<svg width="78" height="67" viewBox="0 0 78 67" fill="none" xmlns="http://www.w3.org/2000/svg">
<g clip-path="url(#clip0_280_2791)">
<path fill-rule="evenodd" clip-rule="evenodd" d="M42.9396 5.67C41.2096 5.15 42.0396 7.19 40.3896 6.76C43.4596 3.42 51.4896 -0.580004 56.0396 3.85C52.2396 2.29 47.4296 2.52 44.3896 4.94C44.1696 5.44 42.9896 4.99 42.9296 5.67H42.9396Z" fill="white"/>
<path fill-rule="evenodd" clip-rule="evenodd" d="M63.6801 15.5C64.5501 12.17 62.7801 8.02001 58.2201 8.22001C56.6401 8.69001 56.4601 12.15 54.5801 11.13C54.5301 9.38001 56.4301 9.59001 56.7601 8.22001C57.1901 6.09001 55.8501 5.73001 56.0301 3.85001C58.1001 6.74001 57.4001 7.98001 63.3101 8.22001C63.4001 9.71001 64.4101 10.27 64.4001 11.86C65.5101 16.05 63.9501 20.49 61.8501 23.5C60.8901 22.15 63.7401 19.59 62.9401 18.41C62.6701 16.93 64.1101 17.16 63.6701 15.5H63.6801Z" fill="white"/>
<path fill-rule="evenodd" clip-rule="evenodd" d="M28.7498 16.95C27.9398 15.69 25.9398 15.64 25.8398 13.68C27.8598 13.84 28.4698 15.42 29.1198 16.95H28.7598H28.7498Z" fill="white"/>
<path fill-rule="evenodd" clip-rule="evenodd" d="M49.4899 16.22C50.6099 17.25 48.3899 18.01 48.3999 19.13C47.4499 18.27 49.3999 17.24 49.4899 16.22Z" fill="white"/>
<path fill-rule="evenodd" clip-rule="evenodd" d="M40.76 14.04C40.64 15.03 40.74 17.66 41.49 16.59C42.6 16.57 43.34 16.92 43.67 17.68C42.42 20.07 39.73 21.02 38.94 23.87C40.05 24.34 41.46 24.5 41.85 25.69C43.08 24.74 43.74 23.22 44.03 21.32C45.86 21.07 46.43 22.07 46.21 23.87C42.43 24.46 42.06 28.45 39.66 30.42C41.95 28.58 46.45 25.81 47.67 21.69C49.36 21.58 50.19 22.33 50.22 23.87C49.93 23.94 49.86 24.24 49.49 24.23C47.64 24.2 47.18 25.56 46.21 26.41C45.47 26.52 45.5 27.39 44.75 27.5C44.65 28.09 45.09 28.13 45.11 28.59V29.68C42.9 31.11 41 32.85 38.92 34.41C41.11 34.05 44.14 31.38 45.83 29.32C46.11 28.26 47.55 28.38 47.29 26.77V26.41H49.47V28.59C46.7 29.1 45.66 31.33 44.01 32.96C46.15 33.28 46.54 30.32 48.38 31.5C48.68 32.53 47.87 32.44 48.02 33.32C44.78 32.76 42.46 35.59 38.92 35.87C42.68 35.98 47.95 35.98 49.47 32.23C49.82 32.23 49.75 31.78 49.83 31.5C50.8 31.5 51.91 31.36 52.38 31.86V33.68C49.49 33.94 48.35 35.96 45.47 36.23C44.89 36.26 44.08 36.05 44.01 36.59C42.67 37.07 41.19 37.41 39.28 37.32C39.3 38.39 40.11 38.67 40.74 39.14C41.31 39.42 41.28 40.29 42.2 40.23C42.17 43.54 45.01 43.97 46.2 46.05C43.03 45.7 42.57 42.64 40.74 40.96C39.78 39.98 39.29 38.53 37.83 38.05H37.47C36.81 37.37 35.63 37.22 34.56 36.96C33.98 37.47 34.17 38.76 33.47 39.14C32.37 40.58 31 41.76 29.83 43.14C29 43.76 27.99 44.21 27.28 44.96C26.94 45.23 26.73 45.62 26.55 46.05H26.19C25.22 45.68 24.34 45.67 23.64 46.41C22.82 47.05 21.63 47.31 20.73 47.87C21.23 56.27 23 63.24 30.92 64.97C32.26 64.49 32.97 63.38 34.92 63.51V62.78C35.76 61.56 35.05 58.78 35.28 56.96C35.7 56.65 36.26 56.48 37.1 56.6C36.18 58.72 36.03 61.6 35.64 64.24C41.41 66.2 45.94 60.75 49.83 58.42V59.15C47.11 63.11 41.79 64.45 37.09 66.43C35.9 65.92 34.75 65.38 33.81 64.61C31.88 65.38 31.32 65.74 29.08 65.7C28.29 65.27 27.41 64.95 26.53 64.61C26.6 64.3 26.39 64.27 26.17 64.25V63.89C24.8 64.05 24.88 62.75 23.99 62.43C21.85 59.17 19.89 54.69 19.62 48.6C17.33 48.76 15.95 48.07 12.71 48.6C12.39 48.32 11.89 48.21 11.25 48.24C6.35996 46.82 2.48996 44.38 0.329961 40.23C0.189961 38.28 0.829961 37.09 2.50996 36.95V34.77C0.319961 34.66 0.779961 31.89 -0.0400391 30.4C0.0899609 29.92 0.599961 29.83 0.689961 29.31C1.00996 29.15 1.33996 28.99 1.41996 28.58C4.20996 26.27 6.24996 23.22 10.15 22.03C10.22 22.32 10.52 22.39 10.51 22.76C8.83996 24.61 5.40996 24.7 4.68996 27.49C-0.510039 28.95 1.97996 33.01 3.59996 36.59C3.28996 37.73 2.19996 38.1 1.04996 38.41C1.29996 39.98 2.26996 40.83 2.86996 42.05C2.93996 43.2 4.70996 42.64 4.68996 43.87C5.58996 44.19 5.49996 45.48 6.86996 45.33H7.59996C16.2 51.19 28.66 44.63 33.44 37.32C32.64 33.87 31.29 30.98 30.53 27.49C24.09 24.65 19.14 23.12 11.61 22.76C11.61 22.41 11.16 22.48 10.88 22.4C10.72 21.39 12.86 22.69 12.7 21.67C12.7 21.32 13.15 21.39 13.43 21.31C11.11 17.9 7.37996 13.34 9.42996 7.85C10.24 7.57 10.85 7.09 11.98 7.12C11.37 -1.36 24.33 -0.539999 30.2 0.940001C29.29 2.18 26.86 -0.0499992 25.83 1.3C24.47 0.700001 22.1 0.850001 21.1 1.66C20.23 1.88 18.46 1.2 18.19 2.02C17.33 1.61 14.65 1.97 14.19 3.11C12.08 3.86 13.4 6.03 12.73 7.84C12.05 8.55 11.4 7.95 10.55 7.84C8.55996 13.49 12.36 17.02 14.19 20.94C18.85 23.88 25.25 22.88 29.47 26.03C30.82 24.89 28.54 22.38 29.83 21.3C30.73 21.25 31.58 21.24 32.01 21.66C32.13 22.5 31.95 23.06 31.65 23.48C29.92 24.24 31.82 26.05 31.65 27.48C32.48 26.98 31.79 24.95 32.01 23.84C32.55 23.17 32.71 22.11 32.74 20.93C33.53 20.27 32.68 17.95 33.47 17.29C34.37 17.24 35.22 17.23 35.65 17.65C35.67 20.46 33.27 20.85 33.47 23.84C33.33 25.2 32.39 27.14 33.11 28.21C33.73 27.14 33.88 25.59 33.84 23.84C33.95 23.35 34.75 23.54 35.3 23.48C35.49 23.77 35.68 24.07 35.66 24.57C34.11 24.84 34.66 27.2 34.57 28.94C35.64 28.31 36.26 27.23 36.39 25.66C36.78 23.45 39.84 21.85 40.39 19.47C40.63 18.45 39.06 9.3 37.11 8.92C37.08 8.34 37.29 7.53 36.75 7.46C35.17 4.8 31.89 3.83 30.2 1.27C34.38 2.18 36.67 4.99 38.21 8.55C38.63 7.88 38.74 6.9 39.67 6.73C38.92 8.48 39.51 11.48 40.76 14.01V14.04ZM37.12 29.32C38.78 28.92 39.13 27.37 38.58 25.68C37.15 25.94 37.01 27.51 37.12 29.32ZM40.03 32.24C40.57 31.57 41.55 31.33 41.85 30.42C41.06 30.62 39.06 31.48 40.03 32.24Z" fill="white"/>
<path fill-rule="evenodd" clip-rule="evenodd" d="M30.9301 18.41C31.2701 19.41 32.0501 19.96 32.3901 20.96C32.2401 21.58 31.9201 20.88 31.3001 20.96C31.1301 19.68 30.1401 19.21 29.4801 18.41C29.5501 18.1 29.3401 18.07 29.1201 18.05C29.2701 16.24 30.3701 18.37 30.9401 18.41H30.9301Z" fill="white"/>
<path fill-rule="evenodd" clip-rule="evenodd" d="M50.5798 27.5C57.1898 22.26 70.5398 23.22 74.2298 30.78V31.14C74.9698 31.97 76.0998 32.42 76.4098 33.69C76.3398 36.07 78.1898 36.52 77.8698 39.15C76.8198 39.44 75.9398 39.89 74.9598 40.24C75.3598 41.42 77.0798 41.27 76.7798 43.15C77.0098 44.84 76.1198 45.4 75.3198 46.06C71.4798 47.81 68.7798 52.62 63.6798 51.88V51.15C63.9498 50.5 64.3398 51.1 64.7698 51.15C65.0598 50.84 65.7698 50.93 65.8598 50.42C70.1498 48.82 75.1398 46.63 75.6898 42.41C74.8798 42.01 73.9098 41.77 73.8698 40.59C73.8698 38.89 75.8898 39.21 76.7798 38.41C74.6798 30.32 68.1198 23.22 58.2198 25.31C56.4598 25.25 55.5698 26.05 54.5798 26.77C53.4298 26.71 52.3798 26.76 52.0298 27.5C51.8098 28 50.6298 27.56 50.5698 28.23C50.2898 28.15 49.8498 28.23 49.8398 27.87C50.1198 27.79 50.5598 27.86 50.5698 27.51L50.5798 27.5Z" fill="white"/>
<path fill-rule="evenodd" clip-rule="evenodd" d="M18.5596 33.69C17.3496 35.15 15.5796 36.05 13.0996 36.24C14.7396 35.22 16.3096 34.11 18.5596 33.69Z" fill="white"/>
<path fill-rule="evenodd" clip-rule="evenodd" d="M54.95 51.89C54.47 51.52 53.61 51.53 53.13 51.16C52.29 51.53 53.14 53.6 51.67 53.34C52.78 47.98 46.97 49.55 46.21 46.06C47.83 46.11 49.65 49.52 50.58 47.88C51.63 47.92 51.21 49.43 52.4 49.34V49.7C53.5 49.81 53.7 50.83 55.31 50.43C56.97 50.74 58.29 52.23 59.31 51.16C59.37 51.59 59.25 52.19 59.67 52.25V52.61C58.81 52.61 58.6 51.98 57.49 52.25C56.31 52.46 55.8 52 54.94 51.89H54.95Z" fill="white"/>
<path fill-rule="evenodd" clip-rule="evenodd" d="M61.1404 51.89C62.3604 51.2 63.1804 52.23 63.6904 51.16V51.89C62.6604 52.44 61.4204 52.77 59.6904 52.62V52.26C59.8004 51.77 60.6004 51.96 61.1504 51.9L61.1404 51.89Z" fill="white"/>
<path fill-rule="evenodd" clip-rule="evenodd" d="M49.8604 58.44C50.2404 57 50.7004 55.64 51.3204 54.44C52.6404 55.25 51.1304 58.62 49.8604 59.17V58.44Z" fill="white"/>
<path fill-rule="evenodd" clip-rule="evenodd" d="M10.1904 22.05C11.0404 21.93 11.5604 21.48 12.7404 21.69C12.9004 22.7 10.7604 21.4 10.9204 22.42C11.2004 22.5 11.6404 22.42 11.6504 22.78H10.5604C10.5604 22.41 10.2704 22.35 10.2004 22.05H10.1904Z" fill="white"/>
<path fill-rule="evenodd" clip-rule="evenodd" d="M62.2301 38.79C61.3001 38.75 60.3601 38.72 60.4101 37.7C62.1301 37.43 62.9101 38.11 64.4101 38.06C64.4701 38.48 64.3301 38.71 64.0501 38.79H62.2301Z" fill="white"/>
<path fill-rule="evenodd" clip-rule="evenodd" d="M36.7504 44.97C37.8204 47.69 36.2004 50.67 36.0204 53.34C35.2204 53.29 35.8704 51.8 35.6604 51.16C36.4904 50.66 35.8004 48.63 36.0204 47.52V45.34C36.3904 45.34 36.4504 45.05 36.7504 44.98V44.97Z" fill="white"/>
</g>
<defs>
<clipPath id="clip0_280_2791">
<rect width="77.92" height="66.44" fill="white"/>
</clipPath>
</defs>
</svg>
