<svg width="60" height="66" viewBox="0 0 60 66" fill="none" xmlns="http://www.w3.org/2000/svg">
<g clip-path="url(#clip0_256_4562)">
<path fill-rule="evenodd" clip-rule="evenodd" d="M15.7974 5.74715C15.5543 8.38489 15.7899 10.6961 16.158 12.9114L16.1138 13.1451C16.9613 13.2516 16.3714 14.344 17.3502 14.3609C18.3917 16.3941 20.2209 17.8901 21.7476 19.5979C16.907 17.203 15.7188 12.3171 12.8086 8.60564C12.1019 8.5729 11.8901 9.26601 11.4033 9.56407C10.548 9.4629 10.6734 8.69293 9.88115 8.54314C8.23819 11.4341 9.41645 16.7284 12.4469 19.5546C12.3636 19.8886 12.2815 20.2161 12.5469 20.3066C13.1342 20.9356 14.069 21.3276 14.1235 22.3199C13.3607 22.0142 13.1063 21.3675 12.413 21.0145C12.2394 20.6521 11.672 20.5582 11.5987 20.1274C9.42261 16.9448 7.27207 11.8837 9.59285 7.50662C10.3556 7.81227 10.61 8.45899 11.3033 8.81203C11.7763 8.80057 11.6648 7.93199 12.3853 8.28346L13.5672 8.50692C14.1383 9.07901 14.3389 9.90388 14.91 10.476C15.3722 9.81004 15.3129 7.74063 15.1064 6.84065C14.6695 6.5899 15.4141 5.53343 14.9 5.33534C15.5936 3.62353 15.5921 2.74212 16.7965 1.77933L17.7446 1.95859C24.6235 0.723465 28.7584 7.49148 31.0099 12.0537C33.046 10.1787 38.1888 10.8686 37.4934 14.0127C38.972 13.4852 40.1787 12.617 41.9262 13.8688C41.9908 14.0963 42.0542 14.3302 42.3106 14.4325C42.8392 15.5145 43.8388 16.2752 43.0559 18.2459C44.7417 18.4368 46.0818 17.4324 47.2992 17.824C48.1994 18.5054 47.5596 20.8933 47.0132 21.9334C50.56 21.6018 52.1648 18.4144 55.4102 17.6492C56.3684 18.4155 57.3323 18.3691 57.9804 19.6014C57.4299 22.8335 55.4373 25.5104 53.6134 25.8718C54.9657 23.8069 58.0325 21.9587 56.8882 18.9039C54.2453 18.0477 53.1624 19.4707 51.7136 20.3738C50.6517 20.8322 49.9333 21.786 48.9029 22.2907C46.852 22.5015 45.7068 24.0405 44.5972 25.6401C44.2422 26.0236 44.0504 26.6465 43.4256 26.6427C41.858 28.0682 40.4232 29.6802 38.3237 30.3258C41.537 26.8842 46.8608 24.9448 47.2095 18.2981C46.4848 18.04 46.2908 18.5683 45.5094 18.2188C42.5072 20.7922 37.96 17.6994 35.4006 21.2041C34.619 20.9621 34.3167 21.4229 33.8511 21.6442C33.0156 21.3316 32.431 21.0798 31.6769 21.4753C30.2905 21.6571 28.8147 21.7076 28.3921 23.3025C27.5904 23.2384 27.7641 24.5963 27.5153 25.3429C27.5097 26.6534 27.6056 27.889 28.3502 28.6822C29.5174 27.8805 30.0948 26.214 31.3844 25.5835C31.6802 25.7268 31.676 26.069 32.0026 26.1913C30.7352 27.4516 29.2361 28.3722 28.1268 29.8641C26.4129 29.9638 25.0548 28.1466 23.7123 27.3143C22.674 26.0822 23.3327 27.5788 22.2524 27.2804C20.4882 26.0456 17.8429 25.7001 16.2716 23.9434C16.105 23.5084 15.3141 23.4934 14.9455 23.2017C14.5023 23.091 14.9305 22.3918 14.3715 22.36C15.6923 21.7421 15.944 23.6125 17.3093 23.6487C17.2728 23.8772 17.5672 23.8857 17.7392 23.9721C18.5328 25.3597 19.8144 25.4473 21.5354 25.914C22.04 25.9489 21.7968 24.8872 22.233 24.8217C23.7511 26.3262 24.999 28.015 27.3214 28.9652C27.9127 28.6129 26.5952 27.8258 27.2501 26.7456C26.4311 26.2746 25.3264 25.9985 24.5461 25.5012C24.3343 24.5935 25.3783 25.5106 25.3877 24.9272C24.0397 23.4482 24.0827 21.0147 21.8942 20.1032C22.0623 19.57 22.6273 19.6768 22.8866 20.0487C23.5557 19.7111 21.9366 19.2032 22.4918 18.2589C22.9532 18.1309 23.2145 17.7095 23.9971 18.0525C23.8064 18.5276 24.0416 18.7066 24.0516 19.0448C23.2736 20.2429 24.2052 20.8294 24.5086 21.8217C25.1513 21.3042 24.4758 19.9322 24.5257 19.1345C24.104 17.9853 25.336 15.7027 23.7804 15.3211C23.8247 13.9843 24.3915 13.4054 25.5534 13.699C25.7191 13.9254 25.5735 14.3754 25.8936 14.4965C24.9272 15.659 24.7704 16.5239 25.2232 18.0422C25.6002 19.4991 25.1806 21.5048 25.7905 22.7972C25.5401 23.5166 25.9538 23.7832 25.9969 24.3025C26.5135 24.1311 26.2529 22.7703 26.1204 22.3686C25.9147 20.9306 26.4503 18.9872 26.3064 17.5071L26.396 17.0331C26.8336 16.8535 27.1847 14.9962 26.843 14.6693L27.0222 13.7212C27.6128 13.7992 28.1802 13.893 28.1145 14.4187C26.7954 16.3082 26.8995 19.4219 27.0075 21.5543C26.8645 22.1326 26.7536 22.6833 26.9736 23.0142C27.518 23.0162 27.3924 21.7952 27.2413 21.5985C27.166 19.0082 28.4886 16.709 28.4924 14.9811L28.5366 14.7474C29.6848 14.7223 29.7775 15.4057 29.4509 16.3865L28.743 16.2527C28.7791 16.8447 28.1201 17.9106 28.6195 18.1866C28.2949 20.2238 27.8853 21.2158 27.7256 22.9142C28.4958 22.932 28.2366 21.4571 29.1752 21.722C28.2999 20.9444 29.9174 18.4724 28.9417 17.7633L29.1209 16.8151L29.8288 16.949C30.6541 17.2799 29.8281 18.7313 29.8117 19.6362C30.4031 19.1763 31.6609 17.0062 30.3925 16.5645C31.6339 15.2993 30.6015 13.1468 30.059 11.8538C30.2652 11.3681 29.806 11.3418 29.4408 11.2459C29.5508 10.4864 28.7959 10.3168 28.7603 9.65093C28.911 9.06735 28.5367 8.84186 28.2318 8.56898C28.0203 8.3003 28.3249 7.68529 27.6578 7.72731C26.2681 5.86374 24.9336 3.95682 22.1849 3.02009L22.2291 2.78631C21.42 2.51225 20.7563 2.14464 19.6757 2.06139C19.9466 3.04754 20.7528 3.65735 21.7264 4.16428C20.1546 4.33119 18.7985 2.2184 17.4626 2.13395C16.9926 2.55628 16.5081 2.94895 16.2013 3.61065L15.9676 3.56644C15.9954 4.23758 15.314 5.38671 15.7986 5.74066L15.7974 5.74715ZM38.3841 18.3379C39.0728 18.7506 39.0255 18.0758 39.4218 18.0431C40.1397 18.5151 41.2514 18.7186 42.1701 19.0537C42.7994 17.1481 42.6 15.5701 41.408 14.013C39.1685 12.9439 38.2878 15.4678 36.6972 14.3465C36.6288 13.6408 37.1438 13.7987 37.1544 13.2088C36.2045 11.2602 31.8331 10.8305 31.2176 13.5526C31.2192 13.8286 31.4073 13.9718 31.602 14.1162C31.2807 14.7483 31.8178 14.7893 31.6123 15.3423C31.4707 16.0554 32.7577 15.7943 32.6149 16.5139C32.2114 17.3322 31.7985 18.1285 31.416 18.9777C31.1752 19.255 30.0456 20.6759 31.0587 20.8674C31.5843 20.9332 31.3452 19.8858 31.5601 19.4959C32.3756 18.7757 32.5158 17.0736 33.367 16.414C34.4605 15.7531 33.6019 14.1043 34.4672 13.1917C35.5003 13.313 36.3801 13.5332 36.1777 14.4971C35.5151 15.3337 34.389 15.4907 34.0306 16.7816C33.2826 17.9988 32.6977 19.4554 32.0445 20.8117C33.5112 20.6316 33.7993 18.5741 34.1306 17.5336C34.24 16.8481 35.9349 17.1685 35.7865 17.8467C35.6388 18.8412 34.8605 18.9025 34.4811 19.5572C34.0613 19.572 33.2061 20.4663 33.7394 20.8832C34.7159 20.8056 35.6766 20.7047 36.1371 19.8703L36.3708 19.9145C36.4931 19.5879 36.8354 19.592 36.9787 19.2963C37.2904 19.3552 37.2716 18.9212 37.5424 18.9119L38.2503 19.0457L38.3841 18.3379Z" fill="#F99B9E"/>
<path fill-rule="evenodd" clip-rule="evenodd" d="M51.595 27.441C52.2459 27.0933 52.5663 26.2525 53.5186 26.3384C53.5564 27.0989 52.7833 26.6702 52.8211 27.4307C52.3566 27.7532 52.0237 28.2687 51.2261 28.1111C51.2745 27.784 51.4348 27.6125 51.5938 27.4475L51.595 27.441Z" fill="#F99B9E"/>
<path fill-rule="evenodd" clip-rule="evenodd" d="M50.9419 28.2993C49.0688 30.38 45.8516 30.4981 43.2424 31.4912C44.413 29.7822 48.5706 29.8486 50.4744 28.2109L50.9484 28.3005L50.9419 28.2993Z" fill="#F99B9E"/>
<path fill-rule="evenodd" clip-rule="evenodd" d="M33.6078 30.6519C34.7412 30.4559 36.7607 30.9453 38.2744 30.5522C38.4169 30.7944 38.427 31.1326 38.3289 31.5445C39.83 31.4315 41.4324 31.4587 42.6163 30.8889C41.7403 33.2455 36.2087 31.3387 34.5311 33.5236C34.1624 33.5884 33.3631 33.0135 33.305 33.5339C32.3138 33.6895 31.5267 34.1528 30.484 34.2247C30.4569 33.8698 30.2731 33.7745 30.6178 33.5169C32.7711 33.0496 34.9336 32.6043 36.8236 31.7509C35.0575 30.704 32.8965 31.4254 31.344 30.957C31.3191 30.199 31.2675 30.4717 31.5674 29.7751C31.1408 29.755 30.9511 30.0823 30.9141 30.6336C30.288 30.1385 30.2279 27.504 31.4949 27.5619C31.5826 27.7736 31.6692 27.9917 31.5948 28.314L31.361 28.2698L31.1818 29.2179C32.4616 29.3859 32.8778 28.2875 33.8587 28.0089C34.7162 27.9558 35.1407 27.276 35.9719 27.1843C36.3287 27.7158 35.748 27.5859 35.7484 28.3662C35.1164 28.0449 35.0753 28.5819 34.5223 28.3765L34.2885 28.3323C33.767 29.2762 32.3924 28.9692 32.1856 30.383L33.6013 30.6507L33.6078 30.6519Z" fill="#F99B9E"/>
<path fill-rule="evenodd" clip-rule="evenodd" d="M23.0604 28.1663C23.1051 27.8586 22.8166 27.7839 22.9604 27.4142L23.1942 27.4584C24.3651 28.2381 24.8256 29.5022 25.8189 30.403C24.3872 30.8251 24.0566 28.7313 23.0604 28.1663Z" fill="#F99B9E"/>
<path fill-rule="evenodd" clip-rule="evenodd" d="M25.2714 32.0147L25.0376 31.9705C24.4317 32.8985 23.9756 34.0297 23.4645 35.0967C22.5361 35.5601 21.9202 36.6476 21.9798 37.7552C20.586 37.8347 20.5487 40.4509 20.512 41.6412C19.3453 38.0643 23.4126 33.7349 25.4494 31.0731L25.2701 32.0212L25.2714 32.0147Z" fill="#F99B9E"/>
<path fill-rule="evenodd" clip-rule="evenodd" d="M14.4162 49.2998C16.8796 47.2634 18.317 43.93 20.4223 42.1152C17.9294 47.0113 14.6466 50.7491 10.8728 53.7753C9.91315 55.3292 5.8469 54.7083 6.80738 57.1701C8.33387 56.3892 10.308 56.2648 11.2118 54.5793C14.8745 53.3145 16.3478 48.831 19.7156 47.1338C20.1003 45.3837 20.9853 44.3673 22.0861 43.6674L22.1758 43.1933C22.4032 43.1287 22.6372 43.0653 22.7395 42.8089C25.31 41.3443 27.1946 38.8825 28.7014 35.8581C28.7089 35.4627 28.9995 35.4907 29.069 35.1945L29.1132 34.9607L29.347 35.0049C29.8098 34.5139 29.6382 33.856 30.4289 34.4763C28.2407 37.4054 26.9161 41.6009 23.485 42.7077C19.5226 47.7632 15.3022 52.4402 10.613 56.4301C8.90233 56.3353 8.51221 58.1852 6.28017 57.326C6.26568 56.4421 5.64889 55.969 6.01926 54.8284C6.85349 55.1475 7.30978 54.9042 7.76485 54.6674C8.71594 54.7598 9.25873 54.2369 9.68847 53.5648C11.1381 52.8703 12.281 51.7345 13.4305 50.5999C13.7118 50.1083 14.3366 50.112 14.406 49.318L14.4162 49.2998Z" fill="#F99B9E"/>
</g>
<defs>
<clipPath id="clip0_256_4562">
<rect width="50.1689" height="57.1745" fill="white" transform="translate(10.6221) rotate(10.7067)"/>
</clipPath>
</defs>
</svg>
