<svg width="81" height="85" viewBox="0 0 81 85" fill="none" xmlns="http://www.w3.org/2000/svg">
<g clip-path="url(#clip0_256_2240)">
<path fill-rule="evenodd" clip-rule="evenodd" d="M65.0692 65.0863C63.5562 66.4629 62.7053 67.6844 61.1311 66.6228C60.0544 67.5328 60.7415 68.6447 60.7807 69.6825C59.9373 70.6252 59.2041 70.5534 58.3964 71.1842C56.0027 71.4936 53.6228 71.683 51.3571 70.8219C51.5965 71.8096 51.3987 72.7412 51.6861 73.7344C50.5165 74.9255 49.4513 75.2047 48.4326 75.1306C47.5284 75.9144 46.8033 79.3809 45.0788 77.4026C45.5134 77.0573 47.0168 76.9317 46.7837 76.048C47.0394 75.7794 46.6404 75.442 46.4454 75.1279C47.1187 74.3967 47.5886 75.4412 48.2908 74.4579C49.1257 73.6418 50.4504 74.3345 50.6243 73.4001C50.7614 72.6804 49.6866 71.8219 50.4424 71.1669C50.6975 70.637 49.0808 70.3182 48.5996 69.8498C47.9307 69.2687 47.2412 68.8676 46.5656 68.2919C45.1623 70.7812 42.7376 73.1657 43.482 75.9009C43.3253 76.1018 43.4379 76.3395 43.1852 76.5294C43.6285 77.1697 44.1652 76.9941 44.6896 76.9265C44.8779 77.2459 44.413 77.4844 44.152 77.7463C43.5085 77.156 43.3792 78.3385 44.0517 78.6222L43.811 78.8134C44.2619 79.6005 43.5541 80.261 44.4369 81.0975C44.1356 81.8713 44.4035 82.7164 43.0703 83.3722C41.6901 82.8981 39.3195 80.2988 39.3994 78.752C39.0567 78.3481 39.0806 77.9801 39.3085 77.6354C38.9413 76.9673 38.4475 77.4578 38.1009 76.6098C37.7707 71.2659 39.2648 65.9668 42.0349 61.5736C41.5442 60.3383 42.0082 59.2062 41.5588 57.9817C41.8462 57.3825 41.3483 54.7242 42.9254 55.707C43.0637 57.4186 41.8702 58.9777 43.0044 60.8033C43.6228 59.3303 44.1226 57.8316 43.7452 56.2446L45.2028 55.0865C45.459 55.4501 45.7098 55.807 46.0225 55.624L46.6016 56.3528C46.1671 56.2727 45.6472 56.9912 45.2937 56.2031C43.3702 59.891 43.3295 62.901 45.6991 66.1991C44.0929 65.5229 43.345 64.252 42.9951 62.7958C42.4219 62.7059 41.5074 63.367 41.9694 64.0034C40.913 64.8427 40.6192 65.7633 40.5586 66.7167C39.7036 69.5666 38.4765 72.3739 39.1212 75.3955C39.5872 76.0506 39.2707 77.7526 40.179 77.729C40.5823 77.9757 39.7024 79.0784 40.5174 78.649C40.8961 79.0571 40.6256 79.4029 41.0523 79.8165C40.5379 81.2831 42.3503 81.6973 43.1772 82.491C43.4896 81.1957 43.3087 79.856 42.7573 78.4618C42.8412 78.1007 42.7744 77.7283 42.6663 77.3452C42.0804 75.8802 42.773 74.5555 42.9257 73.169C43.3148 72.4781 43.3026 71.7352 43.6077 71.0347C45.4611 69.5512 44.9509 67.797 46.1444 66.2379C46.8349 66.7364 48.0209 69.0116 49.3365 69.2534C49.5927 69.617 49.8435 69.9739 50.1562 69.7909C50.4289 70.0106 50.7704 69.5756 51.0321 69.8912C51.5345 70.0156 51.9766 70.6133 52.5365 70.2884C53.2961 70.0775 53.8853 71.3545 54.7697 70.1065C55.1311 70.1357 55.4481 70.6582 55.8369 70.4475C56.237 70.8276 56.699 70.6677 57.2009 70.1599C58.5524 70.4059 60.757 69.1996 59.4875 67.5469C60.4903 66.8047 59.6354 66.4151 59.0088 65.9422C59.2644 65.6737 58.8654 65.3362 58.6704 65.0222C58.8222 64.7053 61.084 66.3439 62.5004 66.342C66.6361 64.354 64.3912 58.4809 60.259 55.0235C61.6947 54.4282 61.4927 56.192 62.781 56.1936L63.1688 56.6817C63.073 57.0415 64.8811 58.3425 64.8618 59.3067C65.0627 59.4634 65.3005 59.3509 65.4904 59.6036C66.6322 58.3364 67.2409 57.0021 67.9268 55.6827C68.6526 55.1823 69.1467 56.6003 69.9193 55.692C71.011 54.6501 69.8633 53.686 68.9056 52.9199C68.6632 52.4363 68.3518 52.6073 68.0297 52.8196C67.26 52.4823 66.4478 52.4622 65.5491 53.1981C65.3632 52.964 65.0995 53.2499 64.8698 53.3452L64.6291 53.5364C63.5912 53.6303 62.4932 54.1428 61.4197 54.4939C60.8074 55.3294 60.4189 54.2638 59.8645 54.5407C57.3476 50.6179 52.3977 51.595 48.5138 53.2411C48.9559 55.0604 49.2832 56.8726 50.0972 58.7345C48.8915 59.5507 46.8346 57.662 46.5588 56.7795C47.3953 55.8967 47.887 58.0256 48.6931 57.4615C48.8495 56.1483 48.1234 54.7402 47.3972 53.332C47.7099 53.149 47.7893 52.9332 47.6941 52.7035C48.7112 52.8443 49.8893 51.5266 50.9035 51.746C51.288 51.2005 51.5287 50.6385 50.6654 49.9501C52.1522 50.0231 53.6612 49.0532 54.7039 47.5376C55.3758 46.8183 55.8664 47.6829 56.4998 47.2996C60.8113 43.405 65.9456 45.1173 70.093 46.4248C71.1894 46.7752 72.7319 46.1496 73.0523 47.651C72.4203 48.0224 71.9105 47.3258 71.3005 47.4505C70.9394 47.3666 70.5671 47.4333 70.1839 47.5414C69.9278 47.1778 69.6769 46.8209 69.3642 47.0039C68.4814 46.9636 67.7276 45.8501 66.7927 46.2657C62.6727 45.1436 59.6733 45.9125 55.2335 48.6984C54.6173 48.2935 53.7951 49.6885 53.0965 50.0036C53.8737 50.9131 54.7551 50.9654 55.6681 50.7417C57.3843 51.1996 59.0085 52.4613 60.6053 53.9631C61.5273 53.0232 62.3026 53.3126 63.1861 52.7087C63.7721 53.3775 64.5584 52.3492 65.2789 51.8421C68.981 52.3146 72.9068 50.8861 76.6884 50.7173C76.7354 48.6076 74.5868 48.6351 73.2997 47.4545C75.1303 47.2325 76.8095 48.3851 77.4507 49.6863L77.21 49.8775C78.2764 50.4372 76.4978 50.6834 77.0602 51.1854C74.6415 51.0239 71.9888 53.0116 69.6305 52.3222C69.3549 52.9774 70.9606 53.3922 71.3729 54.5152C70.7648 54.8893 70.5047 55.3032 70.7845 55.7789C70.0824 56.7622 69.6111 55.7297 68.9391 56.4489C69.1184 56.6883 68.787 56.8752 68.6423 57.0774C66.8669 57.561 67.8681 60.0703 65.1829 60.2187C65.1374 61.4655 66.105 62.8345 65.4116 64.0071C65.3824 64.3685 64.8599 64.6855 65.0706 65.0743L65.0692 65.0863Z" fill="#F99B9E"/>
<path fill-rule="evenodd" clip-rule="evenodd" d="M47.7906 49.8336C46.5375 48.8878 49.9936 49.1194 50.6537 49.9365C50.3123 50.3168 50.0518 50.0439 49.7337 50.2749L49.5424 50.0342C48.9103 50.4055 48.4005 49.7089 47.7906 49.8336Z" fill="#F99B9E"/>
<path fill-rule="evenodd" clip-rule="evenodd" d="M35.3456 42.6527C34.0459 40.4678 32.8569 38.2712 31.775 37.1566L30.6169 35.6991C30.8456 35.5064 30.5651 35.2494 30.4698 35.0197C30.4952 34.2143 29.5314 33.2895 29.2155 32.4388C28.4677 31.9095 29.0571 31.5394 28.4893 31.0307C27.8013 29.396 26.7079 27.3198 26.3737 26.3637C26.7388 25.6701 25.988 24.8487 25.3159 24.0302C23.8775 21.0393 24.9424 16.8884 23.4623 13.1998C19.7149 16.3081 23.1075 21.1821 23.8583 25.1883C23.3786 25.8749 23.6321 26.6333 24.4842 27.4724C24.7387 29.1243 25.7678 30.8589 26.9876 32.6274L27.1788 32.8681C26.9629 33.2142 26.927 33.5808 27.2698 33.9847L27.6576 34.4728C28.1956 37.8955 32.1801 40.4669 34.1848 43.1823C35.389 44.8214 35.4818 46.1874 36.7885 47.4615C38.1179 48.7503 38.8033 50.7798 40.0769 51.6002C38.4326 52.3723 36.833 48.1351 34.8455 47.0202C33.1153 42.7559 28.6408 39.156 26.7375 34.8112C25.5391 33.8656 26.675 33.1812 25.4832 32.2303C22.8694 26.1813 21.1862 20.2328 20.8814 14.4542C22.3136 13.7308 21.8312 12.7943 22.9274 12.0324C23.7535 11.8778 24.3183 14.0576 25.158 13.8377C24.4842 19.881 26.4862 26.2307 30.7266 32.8307C30.7214 33.5655 31.1776 34.3592 31.7844 35.1642C32.3365 36.7651 34.31 39.6471 35.6933 41.5803C37.2793 41.9017 38.8531 42.2763 40.3991 43.0004C41.2376 44.701 42.3331 44.1578 43.2528 45.0958C44.4684 46.5296 47.4807 48.2481 46.3005 49.4258C45.557 48.8058 44.952 47.0834 44.1261 47.1833L43.7383 46.6952C41.4748 45.1779 39.3581 42.4314 36.858 43.0325L36.6668 42.7918L36.1787 43.1796C35.9225 42.816 35.6717 42.4591 35.359 42.6421L35.3456 42.6527Z" fill="#F99B9E"/>
<path fill-rule="evenodd" clip-rule="evenodd" d="M42.1508 54.7186C41.5425 54.7766 40.0232 52.8644 40.2171 52.2849C40.7494 51.4584 41.0754 52.4864 41.4808 52.8732C40.7603 53.3803 42.8714 54.2116 42.1508 54.7186Z" fill="#F99B9E"/>
</g>
<defs>
<clipPath id="clip0_256_2240">
<rect width="48.6251" height="68.7361" fill="white" transform="translate(80.8305 53.8172) rotate(141.532)"/>
</clipPath>
</defs>
</svg>
