<svg width="97" height="92" viewBox="0 0 97 92" fill="none" xmlns="http://www.w3.org/2000/svg">
<g clip-path="url(#clip0_280_2806)">
<path fill-rule="evenodd" clip-rule="evenodd" d="M15.1014 54.1654C16.405 52.2423 15.873 49.7219 17.1945 47.8121C12.0265 47.0475 8.54455 41.1654 3.33228 40.5351C2.30264 37.672 4.96723 34.8721 6.39867 33.6909C9.52486 32.4502 10.646 32.0527 12.2396 29.9274C12.3163 31.4118 13.5175 33.4604 14.6911 33.9885L15.0198 34.6403C15.7703 35.6618 16.6402 36.3206 17.6339 36.581C20.2124 38.6068 23.7071 40.4282 25.6264 41.9242C26.0367 42.8709 27.0443 42.0042 27.2599 43.5419C28.7467 44.136 29.3499 45.2653 30.362 45.6509C31.1666 46.8242 30.5832 47.5329 31.5176 48.7416C30.3567 53.1015 34.4401 55.7572 37.8908 56.5367C41.2351 54.9955 43.4567 53.4047 45.1963 50.8137C44.2148 50.2223 42.2863 52.5054 41.2961 51.9632L40.8052 50.99C41.9518 50.1989 41.2403 48.7882 41.6033 47.7315C42.8485 43.1387 36.6284 42.0647 34.0932 40.9242C36.6933 40.1504 38.5854 41.5481 40.6147 42.5293C41.0322 44.2675 42.3172 43.3955 42.7436 45.1292C42.0429 45.5386 43.5775 45.7389 43.5632 46.7542C42.5557 47.6879 42.6094 48.9712 42.4347 50.1793C44.0507 50.6075 45.3406 48.6129 46.1744 47.8899C48.0458 49.7573 47.5358 52.2545 48.313 54.5505C49.7864 53.8522 49.3532 50.1954 48.1237 47.7132C48.8552 45.8771 50.7284 44.4171 52.6688 42.9792C53.3248 41.3043 54.7017 39.8595 55.0935 38.0827C55.4504 37.8355 55.0731 37.3538 54.9241 36.9473C55.7737 33.0804 59.887 31.4874 61.0783 28.1425C63.9917 23.5931 66.5156 18.9154 67.6963 13.7951C67.7162 13.0795 68.6225 12.656 67.8499 11.6793C68.4125 11.4179 68.5676 11.0149 68.4944 10.5366C68.6476 9.59692 68.7024 8.61732 68.6496 7.60233C69.6393 6.69997 68.6316 3.70266 67.5001 3.70214C68.3123 4.49088 66.7243 5.6726 67.6736 7.28821C65.8942 7.42411 67.8801 8.80803 66.5395 9.08103C65.8478 6.9547 66.8128 5.3816 66.5241 3.38802L68.1491 2.56842C68.516 3.91773 69.3255 3.92385 69.781 5.00453C70.0991 14.14 65.8637 21.7754 61.7269 29.4506C61.4995 29.6437 61.5721 29.9431 61.2372 30.1008C60.1242 31.5358 58.3709 32.7673 57.6743 34.3394C55.5923 34.9191 56.313 36.4148 56.0578 37.5963C56.0657 39.8547 53.9155 41.4096 53.3144 43.46C52.4892 45.3546 47.7016 45.9437 49.4284 48.6791C50.6717 52.5208 49.8196 55.6722 48.8152 58.766C46.7447 56.2375 47.6423 54.5975 46.51 51.7751C46.834 51.0629 46.2894 50.072 46.5015 49.3378C45.6226 49.9491 46.0108 50.9853 45.6961 51.7824C43.8576 54.2217 39.6376 57.2909 37.4174 57.9963C37.1425 62.5141 35.5601 66.5938 37.4612 71.8285C37.111 72.7108 37.6114 73.8584 38.282 75.0769C39.1221 76.1652 38.4309 76.749 39.271 77.8373L38.6192 78.166C37.9173 78.2176 38.2773 77.5992 38.1283 77.1928L36.8179 74.5946C36.4805 74.0367 36.8729 73.7044 36.4818 73.1289L35.8244 71.8253C36.0271 70.9838 36.4941 70.2443 35.6492 69.0576C34.8166 68.828 33.6964 69.4938 32.7223 69.7163C32.6589 70.7898 32.5736 73.2632 33.5504 73.7786L34.5321 75.725C34.0503 76.08 33.8165 75.7052 33.3967 75.8945C32.3778 74.8292 31.3561 71.6709 31.749 70.2072C29.3177 69.3615 26.4881 69.7246 24.4152 67.7909C24.6426 67.5978 24.57 67.2985 24.9049 67.1408C27.8882 68.5257 31.8877 70.2156 35.3221 67.5874C35.4556 64.8321 35.8398 62.1519 36.1121 59.4498C36.36 58.72 37.1855 58.1804 37.0797 57.3266C35.6281 56.6027 35.9397 58.7304 34.6435 58.9585L33.9861 57.6549C33.0986 58.3825 33.4736 58.1934 32.3611 58.4745C31.9111 57.6935 31.5194 56.9391 31.7008 56.366L32.3526 56.0372C33.1611 55.775 33.3811 57.2993 34.3136 56.6833C34.6693 56.0784 33.0317 54.5859 32.192 54.8974C32.3239 54.2261 32.1527 53.8868 31.5346 53.5938C30.5259 54.1698 30.4753 55.0465 29.2651 55.5561C29.188 55.2478 28.987 55.3155 28.7815 55.3968L28.124 54.0932C28.9901 53.6564 29.9182 53.0315 30.563 53.2663C30.8301 51.6419 30.7166 49.8848 29.8958 47.902C28.257 48.6277 29.918 50.4332 27.3033 50.8448C26.9494 50.6984 26.344 50.2086 26.8124 49.8716C27.1955 49.4543 28.6846 49.4089 28.2753 48.7305C26.4864 48.7144 25.0116 49.0102 23.4019 50.3709C23.3248 50.0626 23.1238 50.1304 22.9183 50.2116C22.4329 49.5156 22.3414 48.9346 22.4202 48.4245C23.7268 47.3511 27.7456 49.4345 26.322 46.4565C26.1819 46.0456 26.7716 45.8825 27.1331 45.6443C28.4 46.0244 27.5192 48.6527 29.585 47.2636C29.6384 45.9038 27.8588 44.7294 26.9726 44.5044C26.262 43.362 25.4762 42.4703 24.5223 42.0667C22.0939 44.6466 16.7239 47.5231 17.231 51.8593C16.7551 52.6034 16.4851 53.4227 16.4256 54.3039C15.9609 55.6919 16.1442 58.2538 18.066 59.1773C18.0392 61.7445 21.6036 60.4843 23.1173 61.1096L23.6082 62.0828C24.2862 62.8496 23.2941 63.0588 23.6139 63.7151C23.3056 63.7922 23.3734 63.9932 23.4546 64.1987C22.4999 64.8818 25.4763 66.8526 23.7918 67.2878C22.1033 65.2946 22.1305 64.1049 22.4729 62.2522C19.5302 62.258 15.705 60.5585 15.6157 56.7396C16.28 56.147 14.5534 54.7666 15.1191 54.1341L15.1014 54.1654ZM4.94879 37.2782C4.29668 37.5175 4.41913 38.0045 3.80733 38.2571L4.78905 40.2035C10.1581 40.9004 16.3294 51.0709 21.0744 43.4025C21.4287 42.4174 23.109 42.0627 24.003 41.9254C23.3607 41.1405 22.5946 40.7318 21.7177 40.6364C20.9534 40.7643 20.7378 39.2266 19.9249 39.5023C18.4987 38.3624 16.9132 37.6837 15.3587 36.9109C15.2061 35.4759 13.468 34.6278 12.4175 33.5C12.0987 33.112 11.638 33.1092 11.4386 32.3585C9.76897 33.2006 9.06601 32.9616 7.86718 34.1599C7.70055 33.8295 7.08859 34.0373 7.21539 34.4886C5.7455 34.9052 5.79792 35.8307 4.45785 36.2826L4.94871 37.2558L4.94879 37.2782Z" fill="white"/>
<path fill-rule="evenodd" clip-rule="evenodd" d="M39.4571 86.3114C37.3415 87.5352 35.9473 86.5472 34.4069 86.0025C33.2993 82.5628 36.642 80.5968 33.7256 76.5686C34.2304 76.4148 34.5404 76.8296 35.0275 76.7296C36.8679 79.9565 34.7727 81.8868 35.3773 84.7067C35.2548 86.7509 38.5596 85.4424 40.0971 85.1821C43.2605 83.0602 45.9717 80.7968 47.0665 77.9934C47.5648 77.2493 48.6362 76.7089 48.3555 75.7081C47.602 76.3682 46.9604 77.0502 46.5695 77.8297C44.6374 79.0618 43.2639 78.9145 42.0159 80.1264C41.8395 79.5546 41.4287 79.717 41.2037 79.3153L40.8749 78.6635C44.3922 79.2863 47.38 75.5505 48.6639 73.0998C50.8361 72.7434 48.7912 73.7076 49.6456 75.0462C48.7264 76.9098 47.9728 78.8355 46.7402 80.5884C46.8601 81.6255 44.8666 81.959 44.6328 82.8721C43.5775 84.1995 43.1566 84.0534 42.1951 85.3224C41.0341 84.5528 40.3984 86.9342 39.4347 86.3114L39.4571 86.3114Z" fill="white"/>
<path fill-rule="evenodd" clip-rule="evenodd" d="M25.1882 54.7787L24.5308 53.4751L26.1558 52.6555C27.4452 54.346 28.5154 50.8942 29.2465 51.4999C30.1137 52.6864 28.4827 53.0499 27.4605 53.6214C26.8802 53.9142 26.009 55.4511 25.1837 54.7698L25.1882 54.7787Z" fill="white"/>
<path fill-rule="evenodd" clip-rule="evenodd" d="M31.387 57.3644C30.843 57.8179 30.9258 58.4706 30.0908 58.8358C28.9754 58.3343 28.1675 56.1994 30.246 55.9015C30.9341 55.7336 31.9762 54.4688 32.1997 55.7337C31.3065 56.0722 30.8565 56.5567 31.387 57.3644Z" fill="white"/>
<path fill-rule="evenodd" clip-rule="evenodd" d="M11.5941 29.4466C13.2108 24.9464 19.4593 26.4988 22.6546 27.1272L22.8168 27.4486C24.1921 26.8446 24.8372 28.4344 26.0753 28.2467C29.7732 30.6488 35.7119 34.4071 36.1905 36.9993C36.6397 37.5567 37.6951 36.274 37.8212 37.812L36.5177 38.4695C30.66 31.0303 22.5392 26.0767 14.5093 27.9651C13.7643 28.5088 12.7438 29.5276 11.5807 29.4422L11.5941 29.4466Z" fill="white"/>
<path fill-rule="evenodd" clip-rule="evenodd" d="M36.6873 39.6048C36.0558 39.3298 35.172 39.8203 34.7263 38.9587C35.208 38.6037 35.4419 38.9786 35.8616 38.7893C36.5738 39.1133 37.5647 38.5687 38.2989 38.7808C40.233 38.1077 41.3087 40.0628 43.5039 38.5972C43.0777 42.0601 38.8045 38.8506 36.6739 39.6004L36.6873 39.6048Z" fill="white"/>
<path fill-rule="evenodd" clip-rule="evenodd" d="M49.817 68.8561C51.0108 66.2045 48.9579 62.3119 49.2904 58.9298C50.9611 60.932 50.8667 63.3651 51.2653 66.0873L50.9438 66.2494C51.0733 67.4609 50.7148 68.5265 51.1174 69.8355C50.99 70.5157 50.5806 71.103 50.9637 71.9514C50.4546 72.141 49.8258 72.6709 49.498 72.2874C49.8879 71.2396 49.8749 70.059 49.8126 68.8696L49.817 68.8561Z" fill="white"/>
<path fill-rule="evenodd" clip-rule="evenodd" d="M61.697 22.1075C64.1882 18.3198 64.7094 13.8905 66.0455 9.72229C66.358 9.56467 66.4981 9.99798 66.6957 10.212C66.8495 10.7168 66.4347 11.0268 66.5347 11.5139C66.716 12.2065 65.0572 12.2928 66.219 13.3084C64.352 17.8452 63.4969 22.7005 59.9241 26.6752L60.2528 27.327C56.0291 33.1645 49.6455 33.9202 43.8564 38.4528C48.0434 32.3427 59.5155 31.3277 61.0571 23.259C61.7629 23.0374 62.0434 22.6832 61.7015 22.1164L61.697 22.1075Z" fill="white"/>
<path fill-rule="evenodd" clip-rule="evenodd" d="M31.8847 61.5933L30.9114 62.0842C30.1746 62.3998 29.8007 61.614 29.44 60.7879C29.8619 59.9367 31.4882 59.4749 32.0399 58.659L32.3613 58.4969C33.4739 58.2157 33.0989 58.4049 33.9863 57.6773L34.6438 58.9809C33.7599 59.4267 32.4369 58.3804 32.6974 59.9626C31.5086 60.2038 32.7913 61.2592 31.8847 61.5933Z" fill="white"/>
<path fill-rule="evenodd" clip-rule="evenodd" d="M27.2951 50.8716C27.4714 51.4211 26.6934 51.4551 26.3219 51.3625C25.5593 50.7167 26.0772 49.1675 26.8042 49.8984C26.3358 50.2355 26.9413 50.7253 27.2951 50.8716Z" fill="white"/>
<path fill-rule="evenodd" clip-rule="evenodd" d="M36.6873 39.6048C35.4378 40.3694 34.591 39.9341 33.2752 40.9226C32.5023 39.8564 33.7396 39.4452 34.7308 38.9677C35.1676 39.8337 36.0514 39.3432 36.6918 39.6137L36.6873 39.6048Z" fill="white"/>
</g>
<defs>
<clipPath id="clip0_280_2806">
<rect width="64.9" height="75.34" fill="white" transform="translate(29.2266 91.8746) rotate(-116.765)"/>
</clipPath>
</defs>
</svg>
