<svg width="106" height="101" viewBox="0 0 106 101" fill="none" xmlns="http://www.w3.org/2000/svg">
<g clip-path="url(#clip0_256_2569)">
<path fill-rule="evenodd" clip-rule="evenodd" d="M36.2177 21.1443C37.9037 20.3721 38.7246 17.7887 40.7209 18.6445C41.6011 20.3273 38.2634 18.4157 38.9558 20.4209C36.9346 21.4447 36.9307 23.0508 36.5322 24.5487C36.3979 24.9287 36.0365 25.2494 35.4948 25.5174C36.8788 29.1574 34.2607 32.9348 37.5488 36.2925C37.7488 37.469 39.5015 37.6527 38.8962 38.7198C36.791 37.9789 36.3528 35.8871 34.5701 35.1636L34.0654 34.2544C33.3421 32.31 29.3185 30.4844 28.6888 28.1061C27.1644 29.6943 27.9323 31.9523 28.0434 34.0183C25.977 33.114 26.8673 28.7899 28.1794 27.1886C28.4004 27.917 28.9278 27.5261 29.4165 27.2985C29.6637 29.8236 33.3942 31.6264 34.7931 33.4467C35.1512 30.9238 34.6465 28.1487 35.1978 25.6822C35.1213 25.4083 35.3281 25.2171 35.1567 24.9085C35.493 24.5036 35.6269 24.0256 35.551 23.5003L35.848 23.3355C35.7843 23.0653 35.9009 22.8478 36.2834 22.7009C35.6105 21.9942 36.5392 21.7624 36.2094 21.1489L36.2177 21.1443Z" fill="#F99B9E"/>
<path fill-rule="evenodd" clip-rule="evenodd" d="M34.048 43.397C34.654 43.9444 35.1334 44.944 35.9564 44.7163C37.3714 47.0515 38.9727 47.7011 40.1523 48.7376C40.2973 49.1154 40.5192 49.2431 40.7872 49.1817C41.3015 49.1362 41.4767 50.3265 42.0653 50.0652C39.9912 51.5767 38.3808 48.2479 36.6652 46.7124C34.9719 45.1973 32.9008 44.2847 32.0011 42.5473C31.7572 41.6025 31.0693 42.2681 30.723 41.6637C31.1947 41.3473 30.0603 39.3037 29.5423 39.5367C28.0221 37.3036 27.4103 36.2792 27.6163 34.6482C29.8285 37.3701 30.501 40.914 34.0434 43.3886L34.048 43.397Z" fill="#F99B9E"/>
<path fill-rule="evenodd" clip-rule="evenodd" d="M55.2241 25.6843C56.1518 27.2971 56.923 28.6475 57.5445 29.1645C59.5824 31.514 59.8878 35.349 61.8273 38.2987C62.9536 37.6844 62.352 34.3848 65.4468 33.5071C64.7684 35.7058 62.8259 36.4241 62.6289 39.0431C62.4213 41.5261 60.7069 43.5689 60.6538 46.0971C61.3695 44.8597 63.7652 41.9258 63.2639 39.4871C63.983 39.0334 64.6794 38.6359 65.2286 38.7893C65.8654 40.0725 65.8031 41.1655 64.1348 41.7752C63.5754 42.2057 64.003 42.9177 63.4353 43.3528C64.0147 44.3188 65.1574 43.248 65.515 44.9808C64.6982 46.4053 63.5346 46.0583 62.6102 45.4039C61.3796 46.3162 62.0806 47.7929 60.4508 48.5885C61.2366 49.0907 62.1139 49.2911 63.0915 49.1085C64.4518 47.8078 64.9024 46.2483 65.8119 44.816C66.3496 44.4629 66.707 44.0572 66.6781 43.5386C67.2148 41.9204 69.5627 40.8244 67.8282 38.5356C68.86 38.1592 68.5783 37.399 69.7647 37.0678C70.3947 37.2309 70.7932 38.2209 71.2423 39.03C68.9766 39.8076 69.3942 41.3762 68.4807 42.5488C68.8648 43.5905 69.7842 42.72 70.0922 44.033L69.7953 44.1978C69.5046 44.9375 68.5094 44.6607 68.3353 45.8048C66.9108 46.912 65.1174 47.9185 64.3367 49.2138C67.0061 50.6017 67.7491 46.8285 69.401 45.6061C69.9387 45.253 70.2961 44.8473 70.2672 44.3287C71.278 43.7785 70.095 42.5802 70.4619 41.8419C71.8311 41.0819 73.096 41.6891 73.1437 43.1356C70.3819 44.516 69.039 47.8693 67.3237 50.3381C67.5834 50.9032 68.0514 50.7744 68.2967 51.3911C70.2845 50.1131 72.0571 48.7581 71.1473 46.6334C71.9391 46.1939 72.8198 45.4868 73.2834 46.2442L73.6214 46.8532C73.8946 47.9672 72.9867 48.5476 71.8562 48.6296C74.4755 48.2558 77.146 50.1123 79.5788 49.111C84.029 47.2735 85.6244 40.1574 86.6745 36.432C86.8579 35.3045 86.5343 34.022 86.1933 32.7274C86.3831 32.4474 86.5812 32.1628 86.4574 31.7842C85.5531 31.1077 84.4056 31.2756 83.3448 31.1334C82.8868 30.4055 82.8023 29.7868 83.1042 29.281C82.0457 29.454 81.4989 27.7498 80.2968 28.4608C80.2805 28.1206 80.2597 27.7721 80.5608 27.5176C80.9123 28.0536 81.6772 27.138 82.103 27.4581C82.4906 28.4868 83.3305 27.9006 83.9832 28.0074C83.8698 28.736 83.7563 29.4646 84.5618 30.4687C85.1448 30.7997 86.0254 30.0927 86.6978 30.0795L87.5405 31.5976C87.0408 32.2133 87.7948 33.2023 87.6509 33.915C87.8143 39.4765 85.539 44.3184 81.7313 48.7126C86.7472 49.9546 90.8195 42.2274 96.0427 41.9576C99.0981 46.2955 89.973 52.0921 86.9002 53.7869C82.4949 56.2105 76.1852 58.0218 71.8716 58.5504C70.6005 62.344 65.1612 62.1663 62.4167 60.6237C60.403 62.0689 61.4413 64.4059 59.904 65.9903C59.5298 66.1325 59.405 66.3546 59.4686 66.6248C59.5796 66.9996 58.9906 67.163 59.2046 67.5679C58.7618 67.781 58.3273 67.9895 58.4722 68.3673C55.4531 71.8109 53.1681 75.4689 51.5995 79.3294C51.3703 79.8494 50.9701 80.3335 50.9001 80.907C49.197 83.631 47.8287 86.4528 45.5847 89.0187L45.2467 88.4098C46.0893 86.3708 48.112 84.6697 48.6667 82.5396C49.6043 80.186 51.8426 78.2124 51.8788 75.5954C55.1452 70.3232 60.4424 66.6298 60.6704 59.5963C58.4072 58.0266 55.9595 57.1157 53.5697 55.9982C52.1403 61.0034 49.5391 65.6663 52.6346 72.0006C51.3009 72.8828 51.2293 74.1337 51.4152 75.4599C49.7998 77.4478 48.9524 79.6531 47.865 81.7952C45.3321 84.8707 43.765 88.2285 40.9184 91.2053C40.4829 92.0145 39.064 92.5294 39.4912 93.5906C38.317 94.177 37.3149 94.8206 37.124 95.7012C36.0741 95.5203 34.6092 96.8463 33.353 97.4017L32.751 97.736L33.427 98.9538C33.9257 99.5607 35.1531 98.312 35.225 97.9557C36.2314 97.8444 37.2568 97.0678 37.7553 96.1583C38.1312 95.164 40.4904 94.7491 40.7164 93.718C41.3233 93.2174 41.312 92.5363 41.7128 91.9755C42.1531 91.622 42.3898 91.9707 42.7785 91.7768C41.1351 96.3771 37.8964 96.8983 33.6183 100.037C32.3154 99.1671 31.5394 97.983 32.5349 96.6665C33.7369 96.7522 34.3397 95.5446 35.1017 95.6345C41.2647 90.5657 44.8824 84.7603 47.6971 78.7133C48.1398 78.5002 48.5744 78.2917 48.4294 77.9139C49.8531 77.2327 49.3404 75.9788 49.9868 75.0635C50.188 73.4242 52.5317 72.4178 50.8399 70.2253C49.0894 67.4217 51.091 65.7214 50.5124 63.2602L50.8093 63.0953C50.3907 62.1275 51.4917 61.6036 51.004 60.6085C50.9588 59.3025 53.6344 55.6677 50.7786 55.9653C50.6166 55.6734 51.0201 55.5258 51.214 55.3308C58.4353 53.9956 62.5553 63.7111 70.5254 59.7015C70.8683 58.1035 70.9712 56.4424 71.3785 54.8633C68.3395 50.0689 62.5319 49.7137 56.8111 49.8452C55.7957 47.7246 54.0589 48.2304 52.8229 46.8979C53.0258 46.447 53.409 46.0488 54.1573 45.7643C53.7591 45.047 54.1815 44.5834 53.4449 43.7811C53.1229 41.8212 52.7026 39.8395 52.0798 37.7847C52.95 35.9704 50.1101 34.6445 51.3908 33.0061C52.6068 31.6982 53.8547 33.0132 53.6044 34.156C52.6217 35.4762 52.9058 37.1735 53.5246 38.9686C54.1757 39.7528 53.7354 38.2405 54.2569 38.1692L54.5538 38.0044C55.9762 37.0294 57.3417 39.392 56.1982 40.2669C55.6653 40.4536 55.836 40.8389 55.4659 41.0662L56.8133 43.4935C56.6072 45.2991 57.8177 47.5187 57.7101 49.3461C58.2307 47.2131 58.2187 44.9174 58.3144 42.6602C58.3996 41.1617 59.137 39.8467 58.0889 38.017C57.7597 37.3268 58.4866 36.9452 59.252 36.5749C59.4588 36.3837 59.3822 36.1098 59.6874 35.9404C56.5789 27.9111 51.3107 20.9279 44.8721 19.1445C43.2987 19.6142 44.5502 20.9163 42.9767 21.386C41.9968 20.6315 41.0339 20.5877 41.3324 19.1235C41.9213 19.1349 42.3113 19.8568 42.7772 20.3074C43.2069 19.6433 43.2004 18.1739 44.5424 18.531L44.709 18.8313C45.783 18.6279 46.5774 19.3981 47.6549 19.1819C50.3045 20.8645 52.8248 23.0335 55.2087 25.7147L55.2241 25.6843ZM61.4413 39.7023L60.5986 38.1843C58.826 39.5392 59.3931 42.9125 59.9532 44.0964C60.7251 42.7077 59.5314 40.7516 61.4366 39.694L61.4413 39.7023ZM54.8759 44.1434C55.3805 45.2272 54.9125 47.8439 56.4311 47.6447C55.3774 46.4074 56.3667 45.76 55.5145 44.5745C55.0477 43.306 55.925 40.3967 53.9264 40.2949C54.9583 41.7844 53.8008 42.6343 54.8795 44.1305L54.8759 44.1434ZM74.2566 50.0577C72.8193 50.3645 71.5402 50.0816 69.8507 51.3141C71.2967 51.7226 71.2738 53.1974 71.7028 54.6505C72.3483 54.1613 72.5688 53.5479 73.6393 53.1828C74.1884 53.3362 74.8931 52.9341 75.604 52.485C76.4924 52.9193 77.7183 52.1733 78.9442 51.4273C79.6528 51.9069 80.9375 50.3535 81.552 51.169L78.8468 52.6707C76.3658 53.9934 74.3949 53.4944 71.7356 55.4289C72.8287 56.4261 71.6166 56.7498 72.143 57.5814C73.6154 57.7461 75.3927 56.8468 77.0253 56.4643C82.8371 54.8639 90.144 51.5061 94.9973 45.6913C95.4545 44.8046 96.1225 43.9865 95.7859 42.8748C94.9335 43.7299 93.2183 43.089 93.0807 44.3766C91.8907 44.7207 91.6186 44.0752 91.2826 45.3746C90.3747 46.1296 88.2773 46.5301 88.1502 47.5063C84.3519 50.4986 81.6544 49.5846 78.5651 50.0447C77.5648 50.9055 77.1107 49.8154 76.388 49.6602L75.7859 49.9944C75.5419 49.0496 74.4877 50.9987 74.2437 50.0539L74.2566 50.0577Z" fill="#F99B9E"/>
<path fill-rule="evenodd" clip-rule="evenodd" d="M46.8908 38.2536C46.2174 38.2455 45.6561 37.8369 45.2793 36.7694C45.8574 36.1976 46.7604 35.1616 47.6794 35.4371C48.1673 36.0828 48.2781 36.6323 48.2252 37.12C47.4299 37.3978 47.8792 38.0322 46.8908 38.2536Z" fill="#F99B9E"/>
<path fill-rule="evenodd" clip-rule="evenodd" d="M42.8033 42.9013C43.2715 43.0451 43.7397 43.1889 44.207 43.3114C45.7647 47.4005 49.6667 43.1176 51.7019 45.5013C51.7574 43.9102 51.5071 40.0774 49.5681 39.5388L48.7254 38.0207C49.4064 37.0317 50.2932 36.8995 51.2922 36.9887L51.7969 37.8979C52.0384 39.3242 51.7694 40.6083 52.1479 42.0676C52.7616 43.9311 52.5833 45.1648 52.4989 46.2373C52.1803 46.4797 51.9258 46.4682 51.7302 46.2713C51.3317 45.2813 50.3544 46.3585 49.85 45.7219C49.6797 45.4346 49.3492 45.6944 49.0812 45.7559C48.0789 44.7083 47.7053 46.6397 46.2093 46.9573C45.7061 47.2366 45.2113 47.5113 44.7082 47.7906C44.4169 49.2289 43.6749 50.5355 43.517 52.0198C45.1456 54.0401 47.3431 54.0532 49.214 55.2079C45.3532 56.5327 40.6853 51.3113 43.6296 47.9856C43.7252 47.5942 44.3525 47.3442 44.1906 46.8776L45.6917 46.0443C44.1032 44.7766 42.3809 43.9868 41.0275 41.8793C41.6905 41.4021 40.4635 40.4356 40.0546 40.8263C39.336 39.9594 40.0922 39.5724 39.2119 39.3082C39.6078 39.0884 39.1877 38.6233 39.476 38.3651C40.3159 39.47 41.5875 40.7501 42.7729 42.8854L42.8033 42.9013Z" fill="#F99B9E"/>
<path fill-rule="evenodd" clip-rule="evenodd" d="M66.6913 33.6125L66.0892 33.9467C65.2507 32.339 66.9725 31.9615 68.1513 32.0055C70.2351 29.3648 77.257 27.3982 79.9653 27.8261C76.8433 29.821 72.1314 29.1851 70.5879 31.4385C69.4647 31.942 67.6633 32.1564 66.6867 33.6041L66.6913 33.6125Z" fill="#F99B9E"/>
<path fill-rule="evenodd" clip-rule="evenodd" d="M45.613 88.9922C44.6915 89.9948 44.0682 91.5737 42.8186 91.7327C43.0915 90.7083 44.0084 89.8721 43.9124 88.7469C44.4254 88.4076 44.7559 88.7697 45.2833 88.3787L45.6213 88.9876L45.613 88.9922Z" fill="#F99B9E"/>
<path fill-rule="evenodd" clip-rule="evenodd" d="M50.8103 55.9258C50.4832 55.9001 50.1478 55.879 49.7446 56.1246L49.4066 55.5157C49.5578 55.2244 49.7173 54.9286 50.1389 54.7163C50.349 55.4835 50.9488 54.8342 51.2457 55.2913C51.0518 55.4862 50.6565 55.6293 50.8103 55.9258Z" fill="#F99B9E"/>
<path fill-rule="evenodd" clip-rule="evenodd" d="M69.8199 44.1841C69.9057 44.4748 70.0928 44.4036 70.2835 44.3196C70.3125 44.8382 69.9551 45.2439 69.4174 45.597C69.1688 45.2658 68.7295 45.6406 68.3517 45.7957C68.534 44.647 69.5256 44.9367 69.8117 44.1887L69.8199 44.1841Z" fill="#F99B9E"/>
</g>
<defs>
<clipPath id="clip0_256_2569">
<rect width="83.2582" height="68.4314" fill="white" transform="translate(0 40.409) rotate(-29.0351)"/>
</clipPath>
</defs>
</svg>
