<svg width="80" height="73" viewBox="0 0 80 73" fill="none" xmlns="http://www.w3.org/2000/svg">
<g clip-path="url(#clip0_256_4538)">
<path fill-rule="evenodd" clip-rule="evenodd" d="M42.8863 12.7286C44.4359 12.6964 43.2808 14.192 44.7437 14.2158C42.9736 10.749 37.2551 5.59644 32.4755 8.21254C35.9754 7.79653 39.8987 9.09241 41.8554 11.7918C41.9224 12.2557 43.0013 12.1549 42.8945 12.7309L42.8863 12.7286Z" fill="#F99B9E"/>
<path fill-rule="evenodd" clip-rule="evenodd" d="M23.4822 16.0868C23.5286 13.1341 25.9458 10.1103 29.6693 11.3239C30.8674 12.0757 30.2208 14.9773 32.0094 14.5663C32.453 13.1311 30.8341 12.868 30.8763 11.6596C31.0105 9.79994 32.2009 9.81039 32.4843 8.2149C30.1088 10.1281 30.4024 11.314 25.4617 10.1538C25.0447 11.3648 24.0811 11.5956 23.7238 12.9123C21.843 16.1208 22.1119 20.1498 23.1559 23.1208C24.2599 22.2255 22.4924 19.4541 23.425 18.6625C23.9884 17.5011 22.7452 17.3602 23.4905 16.0891L23.4822 16.0868Z" fill="#F99B9E"/>
<path fill-rule="evenodd" clip-rule="evenodd" d="M52.0236 25.3156C52.9828 24.4602 54.6476 24.8786 55.1809 23.2814C53.4742 22.9493 52.6067 24.1151 51.7177 25.2305L52.0153 25.3133L52.0236 25.3156Z" fill="#F99B9E"/>
<path fill-rule="evenodd" clip-rule="evenodd" d="M35.0471 19.9441C33.8845 20.5381 35.5449 21.6767 35.2792 22.6003C36.2622 22.1077 34.887 20.808 35.0471 19.9441Z" fill="#F99B9E"/>
<path fill-rule="evenodd" clip-rule="evenodd" d="M42.7644 20.1486C42.636 20.9945 41.9488 23.1456 41.5747 22.0887C40.6618 21.817 39.9696 21.9362 39.5221 22.4886C40.006 24.7517 42.0113 26.1554 42.0091 28.693C40.9835 28.8263 39.7811 28.6345 39.1852 29.5285C38.3868 28.4604 38.1906 27.0522 38.3877 25.4149C36.9324 24.7875 36.2313 25.4832 35.9994 27.0217C38.9885 28.3784 38.3771 31.7618 39.9082 33.9421C38.4382 31.8946 35.355 28.5702 35.2936 24.884C33.9218 24.4045 33.0633 24.8337 32.6845 26.0999C32.9081 26.2244 32.897 26.4885 33.2052 26.5653C34.7414 26.9658 34.809 28.1958 35.4154 29.1214C36.0019 29.3825 35.7771 30.0948 36.3718 30.3581C36.3188 30.8688 35.9459 30.8007 35.8236 31.1764L35.573 32.0775C37.0712 33.7676 38.2419 35.6428 39.6027 37.4105C37.8751 36.6095 35.9841 33.7058 35.0606 31.6143C35.0728 30.6737 33.8549 30.4419 34.4399 29.1707L34.5227 28.8731L32.7205 28.372L32.2194 30.1741C34.392 31.2325 34.7391 33.315 35.7283 35.0418C33.8857 34.8143 34.2438 32.2778 32.4515 32.8302C31.9667 33.6127 32.657 33.7245 32.3307 34.4175C35.1378 34.6994 36.4051 37.5722 39.2671 38.6175C36.1335 37.844 31.7771 36.6325 31.3826 33.1831C31.0933 33.1027 31.2546 32.7468 31.2528 32.4969C30.451 32.2739 29.5656 31.903 29.0621 32.2083L28.6437 33.7128C30.973 34.5921 31.451 36.524 33.7697 37.4093C34.2423 37.5674 34.9601 37.58 34.8939 38.0425C35.8912 38.7474 37.0365 39.3687 38.6361 39.7333C38.3736 40.6133 37.6396 40.6585 37.0108 40.9022C36.4752 41.0027 36.3 41.7287 35.5533 41.4677C34.8172 44.2108 32.3706 43.9134 30.9087 45.3593C33.6097 45.7987 34.6934 43.3748 36.5924 42.4067C37.6113 41.8173 38.3497 40.7313 39.667 40.6701L39.9646 40.7529C40.6665 40.3425 41.6764 40.4898 42.6207 40.5208C42.9829 41.0757 42.5293 42.0984 43.0206 42.5735C43.5989 44.0168 44.4601 45.3072 45.1101 46.7169C45.6537 47.4202 46.3852 48.0244 46.7997 48.8076C47.0187 49.109 47.1026 49.4797 47.1526 49.8765L47.4502 49.9593C48.3371 49.8764 49.0668 50.0704 49.4754 50.8431C50.0061 51.5606 50.93 52.0491 51.5453 52.719C49.2009 59.5479 46.1354 64.9028 39.1906 64.5123C38.1932 63.8074 37.8615 62.7266 36.2196 62.3858L36.3874 61.7823C35.9735 60.5807 37.1995 58.4458 37.4278 56.8884C37.1519 56.5356 36.728 56.2663 36.006 56.1724C36.2792 58.1364 35.7411 60.5517 35.4566 62.8237C30.2362 63.1175 27.7444 57.5709 25.0643 54.7505L24.8965 55.354C26.2346 59.2528 30.3244 61.5835 33.7545 64.3008C34.8555 64.1527 35.9303 63.9707 36.8843 63.5503C38.3028 64.6305 38.6829 65.0568 40.5439 65.5387C41.2958 65.3648 42.0968 65.3026 42.9024 65.2239C42.9158 64.9515 43.0963 64.975 43.2828 65.009L43.3655 64.7114C44.4613 65.1586 44.694 64.0656 45.5033 64.0057C48.0217 61.8027 50.6719 58.5499 52.2951 53.5776C54.1513 54.2363 55.4507 53.9831 58.0073 55.1661C58.3362 55.0082 58.7748 55.0322 59.297 55.2041C63.6657 55.1544 67.4258 54.0271 70.1654 51.093C70.7294 49.5132 70.4739 48.3823 69.1173 47.8804L69.6185 46.0783C71.4542 46.4908 71.7107 44.0952 72.7311 43.052C72.734 42.6253 72.333 42.4337 72.3782 41.9831C72.1504 41.7773 71.9144 41.5692 71.9425 41.2119C70.1672 38.6609 69.182 35.6706 66.2316 33.7903C66.1071 34.014 65.843 34.0029 65.7662 34.311C66.7214 36.2243 69.5361 37.0872 69.49 39.5591C73.4529 41.9614 70.4612 44.7452 68.299 47.3322C68.2932 48.3459 69.1092 48.9023 69.9886 49.4229C69.421 50.6633 68.4238 51.143 67.6473 52.0136C67.3251 52.9481 65.9906 52.0783 65.7244 53.0997C64.9069 53.1573 64.6847 54.2444 63.5867 53.8055L62.9832 53.6377C54.5268 56.5048 45.7347 48.2176 43.4638 41.0759C44.9182 38.4078 46.6986 36.3291 48.1291 33.6188C54.1057 32.7516 58.5494 32.6247 64.8569 34.0582C64.9373 33.7688 65.2932 33.9302 65.5431 33.9284C65.9075 33.1303 63.8396 33.7129 64.2064 32.9065C64.2868 32.6172 63.8987 32.5716 63.6857 32.4411C66.3874 30.1556 70.5191 27.2435 70.0866 22.2339C69.4813 21.8162 69.0874 21.2792 68.1464 21.0442C70.6001 14.1744 59.6981 11.8729 54.5054 11.7469C54.9726 12.9812 57.494 11.6964 58.0351 13.0491C59.2973 12.8658 61.222 13.5346 61.8625 14.4341C62.5311 14.816 64.1506 14.6607 64.1853 15.4007C64.9905 15.2594 67.1231 16.1731 67.2413 17.2213C68.8132 18.3263 67.2231 19.8167 67.3609 21.467C67.7598 22.2102 68.4351 21.8637 69.163 21.9681C69.5092 27.0962 65.5564 29.1407 63.1425 31.9606C58.6144 33.3197 53.5537 31.0217 49.341 32.6556C48.4871 31.4028 50.9489 29.8521 50.1308 28.6627C49.3983 28.4145 48.6979 28.2108 48.2459 28.4592C47.9536 29.126 47.9737 29.6303 48.1251 30.0464C49.3805 31.0724 47.3938 32.1319 47.2056 33.3531C46.6344 32.7489 47.6715 31.2295 47.7448 30.2613C47.4524 29.5833 47.5638 28.6703 47.8103 27.6879C47.3089 26.9607 48.5449 25.2383 48.0436 24.5111C47.3111 24.2628 46.6108 24.0592 46.1587 24.3075C45.4962 26.6258 47.3905 27.4999 46.5379 29.9257C46.3409 31.0821 46.672 32.9019 45.8309 33.6209C45.5643 32.5938 45.7966 31.2781 46.232 29.8406C46.2537 29.4102 45.5487 29.3834 45.1078 29.2074C44.8841 29.4034 44.6581 29.6077 44.5597 30.0257C45.7789 30.6052 44.7817 32.4297 44.4561 33.8887C43.7164 33.122 43.4522 32.0866 43.7056 30.7589C43.8913 28.8423 41.7295 26.8162 41.822 24.7224C41.8581 23.824 45.2594 16.621 46.9587 16.7552C47.1169 16.2826 47.1295 15.5647 47.592 15.631C49.5096 13.7953 52.444 13.7475 54.4296 12.0197C50.7649 11.8111 48.2259 13.6075 46.1345 16.1964C45.9413 15.546 46.0756 14.7106 45.3459 14.3563C45.5636 15.9753 44.3862 18.3197 42.7713 20.1238L42.7644 20.1486ZM42.2608 33.6166C40.9805 32.9044 41.0475 31.5426 41.8907 30.272C43.013 30.8157 42.7678 32.1457 42.2608 33.6166ZM39.184 35.3615C38.8916 34.6835 38.1366 34.2598 38.0978 33.4386C38.7049 33.7856 40.1605 34.9562 39.184 35.3615Z" fill="#F99B9E"/>
<path fill-rule="evenodd" clip-rule="evenodd" d="M49.8856 26.0211C49.3747 26.7696 48.6035 27.0449 48.0925 27.7934C48.074 28.3404 48.4994 27.8353 48.9936 28.044C49.4284 27.0249 50.3548 26.864 51.0843 26.3544C51.0977 26.082 51.2782 26.1055 51.4647 26.1396C51.7567 24.6088 50.3578 26.1167 49.8774 26.0188L49.8856 26.0211Z" fill="#F99B9E"/>
<path fill-rule="evenodd" clip-rule="evenodd" d="M31.5526 29.0181C27.293 23.1668 16.0364 20.8915 11.2481 26.2927L11.1654 26.5903C10.3628 27.1063 9.32528 27.2185 8.77706 28.1971C8.2878 30.1807 6.65503 30.1274 6.31496 32.375C7.11629 32.8561 7.7403 33.4304 8.46996 33.9451C7.86803 34.8286 6.48067 34.3092 6.29648 35.9322C5.71784 37.2764 6.32483 37.9439 6.83443 38.6734C9.60649 41.0029 10.7327 45.5998 15.1188 46.1605L15.2866 45.557C15.2128 44.9576 14.7525 45.3639 14.3855 45.3064C14.2171 44.9835 13.6095 44.8947 13.6523 44.4524C10.4738 42.1435 6.85219 39.186 7.36765 35.5711C8.12919 35.4266 8.98622 35.4512 9.29055 34.485C9.68136 33.0796 7.93796 32.8798 7.38614 32.0139C10.9819 25.809 18.037 21.4478 25.7404 25.4514C27.2091 25.8064 27.7609 26.6723 28.4138 27.4951C29.3782 27.7098 30.2347 27.9925 30.3539 28.6847C30.4209 29.1486 31.4975 29.0562 31.393 29.6238C31.6429 29.6221 31.9882 29.7893 32.0793 29.494C31.8662 29.3635 31.4864 29.3203 31.5586 29.0286L31.5526 29.0181Z" fill="#F99B9E"/>
<path fill-rule="evenodd" clip-rule="evenodd" d="M56.5989 41.4959C57.2636 42.981 58.5199 44.1319 60.5263 44.8591C59.405 43.6389 58.3624 42.3604 56.5989 41.4959Z" fill="#F99B9E"/>
<path fill-rule="evenodd" clip-rule="evenodd" d="M22.3334 48.1756C22.8153 47.98 23.5239 48.186 24.0057 47.9905C24.6151 48.4895 23.4366 50.0052 24.7115 50.1282C25.0261 45.4422 29.4681 48.0757 30.8986 45.3654C29.5479 45.0343 27.2595 47.4348 26.8677 45.8653C25.9906 45.6569 25.9906 47.0018 25.0276 46.6538L24.9448 46.9514C24.0102 46.7894 23.6104 47.5867 22.3714 46.8859C20.9279 46.7605 19.4942 47.6888 18.897 46.5698C18.7486 46.9115 18.7098 47.435 18.3488 47.3881L18.2661 47.6857C18.977 47.8834 19.2954 47.4109 20.1509 47.8892C21.0781 48.3341 21.6055 48.0711 22.3417 48.1779L22.3334 48.1756Z" fill="#F99B9E"/>
<path fill-rule="evenodd" clip-rule="evenodd" d="M17.2157 46.7527C16.3658 45.9018 15.4512 46.5648 15.2756 45.563L15.1078 46.1665C15.8328 46.8579 16.782 47.4158 18.2466 47.6895L18.3293 47.3919C18.3511 46.9615 17.646 46.9347 17.2052 46.7586L17.2157 46.7527Z" fill="#F99B9E"/>
<path fill-rule="evenodd" clip-rule="evenodd" d="M25.0347 54.7604C25.0517 53.4826 24.984 52.2526 24.7474 51.1181C23.47 51.4842 23.9435 54.6172 24.8669 55.3638L25.0347 54.7604Z" fill="#F99B9E"/>
<path fill-rule="evenodd" clip-rule="evenodd" d="M66.1938 33.7978C65.5188 33.5032 65.1924 33.0117 64.1686 32.914C63.8042 33.7121 65.8721 33.1295 65.5053 33.9359C65.2555 33.9376 64.9101 33.7703 64.8191 34.0656L65.7202 34.3162C65.8052 34.0104 66.0587 34.0274 66.1856 33.7955L66.1938 33.7978Z" fill="#F99B9E"/>
<path fill-rule="evenodd" clip-rule="evenodd" d="M19.3266 35.6731C20.1045 35.8538 20.8885 36.0451 21.0816 35.1904C19.7219 34.5718 18.9207 34.9547 17.6923 34.5685C17.5461 34.9019 17.609 35.1242 17.822 35.2547L19.3266 35.6731Z" fill="#F99B9E"/>
<path fill-rule="evenodd" clip-rule="evenodd" d="M38.9693 46.639C37.4594 48.6415 38.1136 51.4773 37.6486 53.7259C38.3214 53.8685 38.1266 52.4873 38.4473 52.0065C37.8761 51.4024 38.9132 49.8829 38.9865 48.9148L39.4877 47.1126C39.1818 47.0276 39.1989 46.7741 38.967 46.6472L38.9693 46.639Z" fill="#F99B9E"/>
</g>
<defs>
<clipPath id="clip0_256_4538">
<rect width="66.8574" height="57.0073" fill="white" transform="matrix(-0.96344 -0.267924 -0.267924 0.96344 79.6867 17.9127)"/>
</clipPath>
</defs>
</svg>
