<svg width="83" height="75" viewBox="0 0 83 75" fill="none" xmlns="http://www.w3.org/2000/svg">
<g clip-path="url(#clip0_256_3974)">
<path fill-rule="evenodd" clip-rule="evenodd" d="M35.966 13.7898C35.7746 14.823 33.7743 15.3962 34.5767 16.682C36.1576 16.87 35.0562 14.89 36.6719 14.4032C37.4965 13.9888 37.8527 15.4167 38.3947 16.1371C38.8205 15.8649 39.1653 15.9348 39.4619 16.1944C40.6471 15.414 40.5146 14.2985 41.2531 13.4044C45.8317 14.1228 48.4655 16.1774 51.6961 19.9531C50.1465 15.4339 41.9113 9.5536 39.1061 15.0222C38.4649 14.9958 38.112 13.8124 37.5332 13.5404C36.85 14.2405 36.5046 13.6117 35.9548 13.787L35.966 13.7898Z" fill="#F99B9E"/>
<path fill-rule="evenodd" clip-rule="evenodd" d="M44.0398 29.6806C43.3095 30.2854 42.8687 29.7513 42.1043 30.4902C42.1255 30.7809 42.1508 31.0786 41.897 31.3053C42.4339 32.2561 43.9105 32.3165 43.6646 33.7044C44.2621 35.9367 46.0706 37.5437 46.7475 39.4634C45.0669 38.0078 43.3936 35.7991 43.0106 33.7521C42.1695 33.3896 41.0561 34.0516 40.9728 34.9636C41.4936 35.744 42.0583 36.375 42.9028 35.8823C43.0481 37.2745 44.3411 38.5246 45.2741 39.2968C45.3869 39.7416 44.8867 39.3945 44.5108 39.7506C40.2061 36.2725 30.2824 28.7801 33.9064 21.9148C32.8011 19.8328 35.2761 18.6551 34.584 16.678L33.3096 17.4358C34.3942 19.0847 32.1694 19.8861 32.5282 21.3504C32.7451 21.6195 32.7428 21.8389 32.58 22.0115C32.1901 23.4281 31.856 24.8589 32.5116 26.5353C32.1299 26.6107 31.7907 26.5185 31.5466 26.076C33.7661 30.0641 37.4889 35.1299 41.7657 38.6247C42.6166 38.9718 43.2362 40.2052 44.1537 40.3137C44.9813 41.2433 43.2184 41.5143 44.039 42.4481C39.8559 42.7457 36.407 40.1331 32.9252 37.6727C31.3675 33.7934 26.0928 29.6882 30.4793 26.0186C25.5238 26.2922 28.9093 31.8428 30.4447 34.6643C33.2117 39.7487 38.9329 43.3135 43.3275 43.563C43.2312 43.8952 43.5898 44.3549 43.2701 44.6303L43.42 44.8824C42.4194 45.6384 42.9597 46.7863 42.2899 47.6205C42.491 51.1311 42.6404 54.6345 41.8435 57.8854C44.5063 55.1743 42.135 49.3049 43.8767 45.6345C43.4452 44.8769 44.2085 44.4231 44.1413 43.7521C44.8052 43.6891 45.2774 44.4036 45.7142 45.2339C47.7495 46.3933 50.9841 47.0672 52.8263 46.1804C52.5739 50.5861 49.3009 52.5416 47.8043 55.7157C45.3907 56.2313 43.8627 58.5236 43.614 60.2733C45.514 57.8735 47.4916 56.6883 50.0942 54.3542C50.0177 53.9068 50.1228 53.4936 50.4037 53.1371C52.228 51.152 52.63 48.7993 54.1933 46.7419C55.5507 46.5699 56.1353 46.4214 57.5519 47.162C61.4984 45.5738 68.753 47.5729 69.119 41.6685L68.6652 40.9052C68.4504 40.4642 69.8878 40.5384 70.4509 39.8435C71.6618 38.915 71.6612 38.7068 72.9998 38.3279C73.4206 35.1301 78.2746 31.9597 75.3719 27.2689C73.6061 27.9017 73.7497 29.02 72.3636 29.7494C72.2797 30.4532 72.4667 31.2141 71.4449 31.6794C71.5906 31.9245 71.2463 32.0629 71.0835 32.2355C71.036 32.586 70.8504 32.8954 70.6242 33.2005C69.6205 36.1194 63.7369 40.3 60.7951 36.9782C60.6195 36.5234 60.2947 36.6786 60.0892 36.3648C59.1043 35.9836 58.1705 35.4014 57.0919 35.3887C57.0707 35.098 57.0454 34.8003 57.2992 34.5736C58.1369 34.3883 57.3202 35.9639 58.5163 34.8831C59.6034 34.1609 60.0367 33.4389 61.2152 33.6196L61.7264 33.3157C62.7512 32.0903 65.0123 32.689 66.4575 32.569C67.3451 33.5199 67.8013 31.2582 68.3398 32.8336C68.8011 32.4457 69.1673 32.408 69.4071 32.891C70.3687 31.3999 67.9979 32.0512 67.323 31.7132C71.4349 28.9367 66.4177 20.546 62.4767 23.5621C62.161 23.1906 62.4524 22.9794 62.2749 22.6489C61.5771 21.7463 61.4348 20.9968 61.9765 20.4094C59.4984 18.537 56.2708 19.6125 52.9695 20.9308C52.5264 20.9667 52.1685 20.6677 51.8504 20.2123C51.3587 20.8838 52.6048 21.9912 52.2987 22.7039C52.5192 23.1226 52.9965 23.6065 52.6545 23.8762C54.0504 27.6906 52.5765 30.7752 51.7992 34.043C53.0021 34.0576 52.1732 37.6213 49.7503 38.7112C50.4544 36.2927 49.9121 33.5632 52.0119 31.4995C51.4207 30.1545 50.6011 29.6845 49.4237 30.6215C49.1148 31.6961 50.4361 33.1852 49.4126 34.0781C49.4809 34.8147 49.4975 35.5441 49.2979 36.2126C48.4027 36.1098 48.9692 34.5598 48.9995 33.9731C49.0739 32.8388 48.4895 31.5371 49.0105 30.5164C48.8364 29.6816 50.1098 29.2089 48.9712 28.1229C48.739 28.1946 48.5651 28.0137 48.3101 28.1747L47.0356 28.9325C47.155 29.4681 48.2348 30.2479 47.6912 30.609C48.0311 31.5632 47.641 32.3259 47.8804 33.2546C47.8319 34.544 48.2147 35.9372 47.7601 37.1174C47.8907 37.6558 48.2557 38.2539 48.0067 38.6958C47.4764 38.8879 47.2644 37.3837 47.3511 37.0193C46.3706 35.5456 47.8537 34.6922 47.2123 33.3106C46.9313 33.0133 46.4502 33.4794 46.04 33.6664C46.0612 33.9571 46.0866 34.2548 45.8328 34.4815C44.9402 33.7137 44.2763 33.426 44.0651 32.0824C44.6161 31.6222 44.6162 33.3282 45.2823 32.3919L45.5344 32.242C44.5741 31.6472 44.9238 30.8326 44.0188 29.693L44.0398 29.6806ZM58.0056 46.2193C55.06 45.6011 52.0093 45.396 48.8038 45.8233C47.5644 44.4561 45.8806 44.8601 44.7449 43.0615C45.2209 42.8259 45.1902 42.4556 44.8022 41.9943C44.7048 40.858 46.1485 40.066 47.2013 40.2267C48.0305 40.0749 48.8581 39.9525 49.8022 39.3723L49.952 39.6244C50.4928 38.9237 51.7006 38.4046 52.6509 38.3609C53.2603 37.9512 53.8514 37.5903 54.3274 37.7054C57.183 34.6332 58.7784 37.4759 61.0334 38.5426C63.379 39.6502 65.2705 38.6868 66.8262 39.5816C67.2096 40.4816 68.4685 41.515 68.5434 43.0438C67.5155 44.6786 65.9708 44.8862 64.5701 45.065C63.6045 45.4495 62.9014 44.8249 61.8264 45.6632C61.2455 46.2644 61.0154 45.4629 60.5 45.7598C59.6595 45.9563 58.7651 46.3648 58.0084 46.2081L58.0056 46.2193ZM59.5849 33.2051C58.7126 34.3683 58.5983 32.5501 57.9546 32.7906C56.3476 33.8977 56.2034 35.3768 54.6368 36.4883C55.196 34.6867 55.7844 32.8867 57.047 31.264C56.9694 31.1016 56.903 30.9421 57.1492 30.862L56.5413 29.8397C56.2039 30.0213 55.9955 29.7187 55.6282 30.0414C55.0888 30.4095 55.465 31.0104 55.8747 31.6198C55.2166 32.3144 55.1922 33.1819 54.4448 33.8538C53.8592 33.8892 53.41 33.3886 53.026 32.6311C53.7052 32.2273 53.2567 31.5367 53.4405 31.0009C54.191 28.1662 54.2045 25.1441 53.1712 21.8439C55.7857 20.3748 57.1514 19.8661 58.9177 20.4935L59.681 20.0397C59.914 20.8301 60.4977 20.2176 60.8981 20.3492C62.0333 21.9396 60.864 22.9381 61.593 24.4192C64.5222 23.2084 66.8983 24.0325 68.0343 27.1388C68.4278 28.3266 67.7517 30.3778 66.949 30.5423C66.0523 30.8195 66.8752 31.534 65.9785 31.8112C63.743 31.8134 62.3689 31.9574 59.5667 33.2065L59.5849 33.2051ZM52.9604 37.1438C52.4494 36.3482 53.2297 34.7753 54.1382 35.0597C53.5083 35.6901 53.2358 36.4114 52.9604 37.1438ZM72.3007 32.5449C72.7193 30.9217 73.9532 29.5057 75.1646 28.084C76.077 29.8258 75.274 31.1373 74.6872 32.5098C74.6838 33.0142 74.7879 33.5399 74.1187 33.881L74.2685 34.1331C73.7925 34.3687 73.8232 34.7391 74.2112 35.2003C72.2354 36.9626 71.4216 39.5791 67.9354 40.3154C67.6941 39.8618 67.4089 39.5574 67.0754 39.4429L66.6216 38.6796C65.1687 38.6431 68.1089 36.7812 68.5095 37.2159L69.0207 36.912C68.9342 36.5274 69.0417 36.1981 69.4801 35.947C69.7774 35.6659 69.7537 35.2914 70.3526 35.087C71.275 34.3111 71.3042 33.308 72.2937 32.5491L72.3007 32.5449Z" fill="#F99B9E"/>
<path fill-rule="evenodd" clip-rule="evenodd" d="M46.0536 33.6583C45.4209 33.9491 45.2404 32.6253 45.2959 32.3838C44.6299 33.32 44.6255 31.607 44.0788 32.0743C44.2858 33.4108 44.9539 33.7055 45.8464 34.4734C46.1002 34.2467 46.079 33.956 46.0536 33.6583Z" fill="#F99B9E"/>
<path fill-rule="evenodd" clip-rule="evenodd" d="M59.6527 28.6808L60.6751 28.0729C59.9639 27.3868 61.0211 27.1563 60.8305 26.5967C59.79 27.5566 58.7647 28.5263 58.5281 29.6906C58.8285 30.0523 59.1924 29.5326 59.2914 29.2368C59.5505 29.0828 59.4718 28.8547 59.6527 28.6808Z" fill="#F99B9E"/>
<path fill-rule="evenodd" clip-rule="evenodd" d="M38.5166 63.3224C39.1351 62.0353 40.3831 60.9141 41.1733 59.6766C38.965 60.2029 37.8738 64.0268 35.4087 64.4878C34.8947 65.1536 34.0303 65.7244 33.0096 66.2554C33.1381 66.615 32.6595 66.8143 32.4984 66.5593C31.547 66.8881 32.3976 67.3302 32.7002 67.4725C34.8507 66.7057 34.7482 65.7999 36.5236 65.1992C36.6692 64.4398 37.5154 63.8703 38.5166 63.3224Z" fill="#F99B9E"/>
<path fill-rule="evenodd" clip-rule="evenodd" d="M38.8613 64.4912C38.4126 64.9001 37.3453 66.2456 36.5644 65.8568C36.0294 66.8858 35.2803 67.2838 34.0155 67.3723C34.1532 67.8591 32.3395 68.9374 31.9777 68.5839C30.7478 69.7037 29.2731 69.8697 28.2634 70.451C26.6727 71.3305 25.4355 70.796 23.9413 71.2958C23.2079 71.6086 22.6803 71.1356 22.1611 70.6292C22.8334 70.2295 23.5764 69.5981 23.9917 70.2327C25.5814 69.9415 27.2365 69.3934 28.825 69.084C29.4934 69.2837 30.3023 68.9544 31.1667 68.3836C31.1323 67.5606 32.2118 68.3878 32.0392 67.5237C31.7216 67.6272 31.5644 67.1236 31.2241 67.3164C30.1875 67.9801 29.2147 68.4163 28.3712 68.3207C26.4753 68.974 24.6378 69.3746 22.8768 69.5213C22.2804 70.1602 22.0062 69.5555 21.4524 70.0269L21.2003 70.1768C21.4702 70.822 21.3715 71.3735 22.0099 72.1124C26.6208 72.7736 34.1265 68.946 38.1989 66.2783C38.8611 65.9415 38.7528 65.4087 39.1694 65.0094C41.6794 64.1615 41.7729 62.4378 43.5096 60.7038C41.6191 60.3777 41.1412 63.5432 38.8655 64.4982L38.8613 64.4912Z" fill="#F99B9E"/>
<path fill-rule="evenodd" clip-rule="evenodd" d="M41.8687 25.4552C43.2092 23.9473 40.8665 22.7334 40.6177 21.0234C40.1675 21.765 41.4682 24.6222 41.8687 25.4552Z" fill="#F99B9E"/>
<path fill-rule="evenodd" clip-rule="evenodd" d="M43.9923 29.0267C43.6478 27.8097 42.4715 26.708 42.7861 25.2603C42.3101 25.4959 42.4342 25.8961 41.9135 26.1203C42.9613 27.9145 43.1616 28.1557 42.9698 29.6347L43.9923 29.0267Z" fill="#F99B9E"/>
<path fill-rule="evenodd" clip-rule="evenodd" d="M71.0833 32.2357C70.6685 32.16 70.4481 31.3428 69.8657 31.9261C70.1198 32.3534 70.3697 32.7738 70.6238 33.2011C70.85 32.8959 71.0428 32.5822 71.0833 32.2357Z" fill="#F99B9E"/>
</g>
<defs>
<clipPath id="clip0_256_3974">
<rect width="68.8253" height="46.2909" fill="white" transform="matrix(-0.859549 0.511054 0.511054 0.859549 59.1587 0)"/>
</clipPath>
</defs>
</svg>
