<svg width="71" height="64" viewBox="0 0 71 64" fill="none" xmlns="http://www.w3.org/2000/svg">
<g clip-path="url(#clip0_256_3954)">
<path fill-rule="evenodd" clip-rule="evenodd" d="M61.9749 12.9712C62.0558 12.6402 61.8095 12.5231 61.8125 12.2395C64.038 12.8309 64.451 14.5151 65.0044 16.1294C65.1152 16.8011 65.2593 17.4526 65.1807 18.2392C66.5121 18.2613 66.1401 19.3175 66.8925 19.6911C69.786 25.0344 66.1273 34.8812 62.3594 39.6294L62.0374 39.5507C61.9491 40.6098 61.0201 40.6482 61.5606 41.5008C60.9 41.1782 60.8296 41.8151 60.6692 42.3163C59.6036 43.146 58.9098 44.5881 57.3486 44.6141C59.0319 41.4515 62.0197 40.4375 63.1555 36.3731C63.7789 35.568 64.5083 34.95 64.8479 33.6773C67.0883 28.1196 68.0383 23.5358 65.5864 19.3718C61.4131 18.7592 59.2183 24.4797 56.8571 28.2824C56.1575 28.1967 56.4177 29.6918 55.806 29.7508C55.3917 29.5453 55.7366 28.8712 55.8032 28.366C58.0656 25.3166 60.2947 19.301 64.2844 17.6788C63.9999 15.8174 63.7489 13.9358 61.9838 12.9734L61.9749 12.9712Z" fill="#F99B9E"/>
<path fill-rule="evenodd" clip-rule="evenodd" d="M52.0494 12.622C53.5365 11.6583 56.7494 11.0028 57.3346 13.5728C59.2577 14.005 59.1127 11.0307 61.4706 12.1664C61.2038 13.2578 59.9546 12.7059 59.4444 13.3965C58.6528 14.0752 57.699 14.4867 56.4432 14.3882C56.8204 12.1862 53.6152 11.7629 52.8649 13.5134C52.3615 13.3619 51.7268 13.2826 52.0494 12.622Z" fill="#F99B9E"/>
<path fill-rule="evenodd" clip-rule="evenodd" d="M7.1907 29.5937C8.61552 27.8374 10.6238 27.0295 13.2719 27.2882C12.4743 22.9503 12.6338 18.8464 15.4839 15.4097C17.1464 15.5506 17.8585 15.8954 19.3144 16.6874C20.5724 16.7769 20.7536 15.1052 21.0856 13.6695C23.8197 11.9868 25.4821 13.8343 29.0499 13.5499C31.0798 15.6009 35.2585 15.9589 37.5293 18.3817L37.4505 18.7037C38.1726 18.8139 38.4226 19.2258 38.1872 19.9172L38.8403 20.0768C40.2197 21.182 40.664 22.8548 41.6225 24.2079C43.7639 19.3655 47.0361 16.3733 50.4257 13.5994C51.1801 13.926 51.2767 13.1817 52.1325 13.6754C48.0345 16.3614 44.4952 19.9804 42.035 25.3516C42.2518 27.5282 43.2235 29.2542 42.8837 31.7687C41.6474 29.8453 41.7624 27.4749 40.9812 25.4352C40.1978 23.4045 38.7629 21.9445 38.185 19.9261C35.4574 17.7045 31.5853 16.1701 28.1585 14.3653C26.7691 14.348 24.0087 14.3936 23.5264 13.5742C21.6388 13.966 21.4612 17.1743 19.7291 17.8222C18.4938 17.3685 17.2139 16.9418 16.3104 16.2943C12.0736 19.3541 13.9308 24.7095 14.5919 28.9856C13.618 30.2549 13.2149 27.4829 12.6417 28.5088L11.9887 28.3492C9.09484 27.2341 8.92477 30.6054 6.88253 30.893L7.20184 29.587L7.1907 29.5937Z" fill="#F99B9E"/>
<path fill-rule="evenodd" clip-rule="evenodd" d="M50.5147 30.1826C51.2533 27.8983 54.2691 25.4122 55.7611 22.8381C55.338 25.6546 52.419 28.2876 50.5147 30.1826Z" fill="#F99B9E"/>
<path fill-rule="evenodd" clip-rule="evenodd" d="M55.1525 29.5915C55.0676 30.0163 55.4636 30.1415 55.2361 30.6453C54.9421 31.2275 54.1614 31.0083 54.1851 32.1138L53.863 32.035C53.5376 33.0173 52.7976 33.3294 52.3302 34.0778C51.0679 34.4328 50.7517 36.3464 49.3317 36.4543C51.1031 33.901 53.014 31.5525 55.1503 29.6004L55.1525 29.5915Z" fill="#F99B9E"/>
<path fill-rule="evenodd" clip-rule="evenodd" d="M42.6785 38.2697C42.7527 36.6478 42.6555 35.1451 42.8166 33.478L44.1227 33.7973C44.9698 31.3404 43.9556 30.0211 44.1703 27.9405C44.7224 27.5825 46.1269 27.9259 46.4515 28.4982C46.4821 30.0795 44.6589 29.975 45.4121 31.3537C45.9276 31.6883 45.0069 32.8948 45.6671 33.1415L44.9498 36.0757C45.471 36.6582 46.3149 36.1535 47.1522 36.9554C47.756 34.951 46.837 32.6217 47.8529 31.2583C49.2912 32.5106 48.6254 35.0403 48.0486 37.5159C48.7076 37.5348 48.4406 36.0285 49.593 36.8601C48.5974 38.2568 47.4488 39.4265 46.7708 41.3464C46.1482 42.3034 45.5661 43.3272 44.9997 44.3643C46.0887 44.1755 47.6486 44.7749 48.7376 44.5861C48.4857 45.1123 48.8372 45.2645 49.231 45.3987L49.3097 45.0767C49.9477 45.3369 49.7306 46.1087 50.3774 46.3711C52.6328 45.8322 54.3788 44.4294 57.033 44.5473C55.6022 46.4444 52.8648 46.2018 50.8708 47.1838C51.1499 48.4465 50.3592 49.7417 49.4217 50.2804L49.0997 50.2017C48.6104 50.6129 47.9635 50.7771 47.4743 51.1884C45.7887 51.7623 43.8733 51.9577 42.2845 52.6785C41.4903 52.4369 40.7164 52.2287 40.4967 52.9335C37.1657 53.2189 34.1682 54.0788 31.0783 54.7739C30.7157 54.6283 30.4793 54.7033 30.3465 54.9363C27.385 55.4163 21.4339 56.1039 21.0684 51.9759C21.4404 50.9197 22.3598 50.7653 22.4388 49.2014C21.966 49.3513 19.8739 48.2141 18.4507 48.5677L17.4756 48.3293C11.7216 45.2635 -0.422969 41.7352 4.23067 33.364C5.11035 33.2946 6.08007 33.3611 6.25684 32.1339C6.62004 31.9667 6.8932 31.6638 7.14826 31.3185C7.9309 31.9175 6.73273 33.0182 6.59058 33.5996C5.64271 33.8704 4.45371 33.7314 4.16363 35.0731C3.41317 35.5058 3.40379 36.7075 4.00892 37.102C4.21143 39.1044 5.15985 40.6541 7.44419 41.3927C10.6434 43.6632 16.9719 48.9551 22.3573 48.1386C22.9577 48.0484 23.8057 47.9144 24.0614 46.8298C24.6882 47.0968 25.0965 47.0165 25.1961 46.4151C28.0071 46.6283 29.5317 44.7352 32.1737 44.6701C30.2081 43.3647 27.0156 42.8118 25.4062 41.2902C28.5535 41.7562 29.9852 43.0353 33.5468 43.2803C34.0965 43.3199 34.0361 43.7223 34.4432 43.8408C34.2752 44.1789 33.7444 43.907 33.6305 44.3342C33.1446 45.8176 31.1312 44.785 30.4696 45.9789C30.9479 46.8922 33.1428 46.7557 34.3002 47.2567C36.635 49.1073 38.3274 45.9849 39.9806 45.1945C39.4349 45.0611 38.8982 44.9299 38.3525 44.7965C38.3613 44.3341 37.604 44.3291 37.1252 44.1551L37.6019 42.205C36.8767 41.9139 36.3364 41.9525 35.8951 42.129C33.7077 41.1487 33.1814 39.1523 31.8067 37.6786C31.5306 36.5588 30.9027 35.6374 29.6803 35.092C29.7566 34.3143 30.0401 33.8527 30.4004 33.5426C31.0638 33.117 32.1543 33.6586 32.2718 34.3415C31.3792 36.6355 33.1228 37.3367 34.0002 38.5562C34.5423 39.7126 35.5452 40.574 36.3768 41.5547C36.6523 41.2807 36.1251 39.1325 34.5724 39.0468L34.8917 37.7407C35.1587 37.1139 35.0784 36.7056 34.477 36.606C34.3218 35.9613 33.9995 35.418 33.4902 34.9806C33.6893 32.4601 30.927 31.7374 29.4806 30.2082C28.8433 29.2086 28.0724 28.2902 27.0232 27.5407C28.5901 27.336 30.0403 29.5866 31.0998 30.6041C31.7101 30.7059 31.5656 29.5518 32.0722 29.4576C33.9277 29.3519 33.2361 30.785 33.6243 31.5625C33.7795 32.2072 34.1018 32.7505 34.6111 33.1879C34.7814 33.732 34.8426 34.3348 35.6788 34.4823C36.3364 33.8088 37.6787 32.9329 36.6372 31.9578C36.7202 29.8734 36.703 27.8499 35.1472 26.768L35.3856 25.7929C35.8291 25.6074 36.3672 25.5778 37.0925 25.8689C37.3441 27.0112 36.7719 28.6536 37.6025 29.4445C37.4569 29.8071 37.5319 30.0434 37.7649 30.1762C37.989 32.9045 38.781 35.2881 39.751 37.5635C41.6891 36.1508 39.5498 32.8026 39.715 30.653C40.3614 29.5217 39.1374 29.5258 39.5388 28.5432L39.6175 28.2211C40.4463 27.817 40.763 27.7238 41.6464 28.3758C39.9882 31.2033 41.3943 35.3013 42.3521 38.2089C41.9061 39.2186 42.2061 39.7754 42.1164 40.5688C42.8645 40.5336 42.9105 38.6393 42.6741 38.2876L42.6785 38.2697ZM23.8687 48.8589C23.6767 49.2954 23.0634 49.0507 22.734 49.2736C21.8151 51.675 22.1943 53.3035 23.571 54.3037C32.082 53.6541 42.3799 52.133 50.1261 48.7177C50.3865 47.2645 48.9415 46.8543 48.8123 45.6377C45.4863 44.7392 43.5512 45.4417 40.114 45.9287C39.2589 47.72 37.3833 47.8303 36.2241 49.1206C33.639 47.6733 30.1571 47.2961 27.7614 47.0517C27.1421 46.9478 26.6175 46.9996 26.2957 47.3855C25.0188 47.1018 24.686 48.3856 23.8687 48.8589ZM34.855 34.9824C35.9562 36.7211 36.6255 38.7145 38.4526 40.0049C37.5549 38.3255 37.2218 34.8406 34.855 34.9824ZM43.3986 36.7203C44.583 37.2659 44.6214 34.7819 43.4745 35.0135C42.9809 35.8693 43.7252 35.9659 43.3986 36.7203ZM43.7489 40.9489C44.0732 39.7389 44.1659 38.6618 43.8132 37.8551C42.8164 38.5974 43.5456 40.0744 43.7489 40.9489ZM45.377 41.347C45.742 41.0949 46.9695 38.75 45.6914 38.665C45.698 39.4914 44.7025 40.9261 45.377 41.347Z" fill="#F99B9E"/>
<path fill-rule="evenodd" clip-rule="evenodd" d="M28.0398 37.4587C28.5535 37.0249 30.386 36.7809 30.321 38.0164C30.635 40.4159 33.868 41.0356 35.3844 42.7051L35.2247 43.3582C34.4588 43.8156 34.6824 43.017 33.5966 42.9601C31.8741 41.591 29.1756 41.1114 26.0253 40.0758C21.7913 36.8033 15.5505 35.069 14.5088 29.3252C16.2779 30.1938 15.8983 32.3668 18.1037 32.9629C17.9697 34.2479 18.8599 34.9111 20.3089 35.2274C21.6575 37.2731 25.6445 37.7169 27.5609 39.4178C28.291 39.8049 28.9321 40.246 30.0853 40.3763C30.684 39.0911 28.1209 39.7254 28.0426 38.8435C27.6283 38.6379 27.9732 37.9638 28.0398 37.4587Z" fill="#F99B9E"/>
<path fill-rule="evenodd" clip-rule="evenodd" d="M35.8662 42.1306C36.3097 41.9451 36.8478 41.9155 37.573 42.2065L37.0962 44.1567C36.3418 43.8301 36.2452 44.5744 35.3894 44.0807C34.5531 43.8952 35.0548 43.743 35.227 43.349L35.3866 42.6959C35.6546 42.6856 35.828 42.5194 35.8683 42.1216L35.8662 42.1306Z" fill="#F99B9E"/>
<path fill-rule="evenodd" clip-rule="evenodd" d="M13.4837 36.3079C14.1964 36.3399 14.2878 36.7415 14.7111 36.9492C14.2902 37.6237 12.8555 36.6283 12.0291 36.6349C12.1603 36.0981 11.1693 36.2351 11.2137 35.7434L13.4948 36.3011L13.4837 36.3079Z" fill="#F99B9E"/>
</g>
<defs>
<clipPath id="clip0_256_3954">
<rect width="60.6334" height="50.6046" fill="white" transform="translate(12.0176) rotate(13.7378)"/>
</clipPath>
</defs>
</svg>
