<svg width="34" height="37" viewBox="0 0 34 37" fill="none" xmlns="http://www.w3.org/2000/svg">
<g clip-path="url(#clip0_256_3902)">
<path fill-rule="evenodd" clip-rule="evenodd" d="M30.9766 15.8044L30.1528 20.1151C29.4408 21.6566 29.7933 22.5096 29.3289 24.4258C29.2969 25.1071 29.0703 25.5221 28.7701 25.8084L28.7158 26.0926C27.7834 26.5609 27.5422 28.0369 26.9596 29.0303C26.0671 29.9318 25.4396 31.2031 24.3428 31.8036C23.3034 31.3758 23.2284 32.368 22.6856 32.6817C20.1011 34.2582 17.7074 34.5372 14.0913 34.018C13.411 34.2807 13.2658 33.7129 12.3159 33.9733C10.0641 33.1665 7.94255 32.2782 7.69384 30.1112C8.52325 27.741 11.1827 25.3441 7.98604 23.9149C6.45755 23.991 5.21494 24.4982 3.92275 24.9223C2.85541 24.7265 2.34138 24.1618 1.78975 23.6227C2.16756 21.9027 2.2883 21.8276 2.44911 20.1725L2.66941 19.0199C2.97163 19.1513 2.75815 19.626 3.1356 19.7064C2.8999 21.4535 2.83498 23.0777 3.11801 24.4657C3.99503 24.1587 4.76836 23.7091 5.69009 23.4679C6.71458 23.631 6.93593 22.6012 8.15201 23.0464C8.3523 23.2402 8.56048 23.4355 8.95825 23.4951C9.18665 23.8415 9.41504 24.188 9.65435 24.5201C10.6479 24.931 9.94867 26.4913 10.3121 27.33L11.1727 27.4945C13.5649 27.9516 14.9428 28.706 16.5084 27.6222C19.2928 28.0398 20.7744 26.5389 22.5674 25.5068L23.428 25.6712C23.8203 24.9033 23.1672 24.8522 23.4184 24.18C23.8622 23.3565 24.3236 22.5691 24.7738 21.7549C24.2104 30.6981 13.985 28.4084 8.5384 28.775C8.50489 29.4642 8.78171 29.9426 8.43787 30.8426C11.702 33.7168 18.4921 34.4989 21.9288 31.9315C23.1444 31.3945 24.3423 30.8215 25.0676 29.5526C25.2991 29.1549 25.6327 28.9077 25.8642 28.51C26.2677 28.4971 26.2384 27.8368 26.3687 27.4117C27.9736 26.6791 28.9787 24.0315 28.9041 21.9387C28.1523 21.0339 30.3945 20.1777 29.4533 19.0649C30.5566 17.0171 29.8026 14.197 29.91 12.008C29.7949 11.4541 29.3964 11.869 29.0494 11.8436C28.9802 11.3066 29.7197 10.2204 29.0941 10.0681C27.9851 11.632 26.8392 13.1315 25.8083 14.8003C25.0589 14.3543 26.1212 13.5917 26.1373 13.0792C26.9818 11.743 28.0101 10.6875 28.6822 9.09743C27.164 9.07732 26.7727 10.6965 25.6056 11.1936C25.224 11.7344 24.3635 11.57 24.1784 12.4102C23.6233 12.5742 23.164 12.8792 22.8054 13.3426C23.4765 11.6296 26.2641 9.84644 27.9224 8.36302C23.9569 7.5315 21.9538 2.81149 17.2142 3.63239C15.3771 4.85251 13.8018 6.45818 12.4373 8.37419C10.2756 8.50935 8.51769 9.22906 7.46719 11.0005C7.2488 10.9015 7.2388 10.6541 6.94517 10.6061C6.94142 9.98347 7.28739 9.88593 7.44968 9.50777C7.96855 9.53328 8.20003 9.13562 8.24631 8.46524C13.2557 9.14436 14.3858 2.11801 18.9321 2.4795C20.6485 2.6193 21.6436 4.13519 23.8831 4.62047C24.0559 4.91536 24.0673 5.32671 23.947 5.82747C26.2195 6.48273 29.0406 8.42123 31.296 6.33996L31.8723 6.4501L31.7079 7.31066C31.3771 7.15743 30.5625 7.95104 31.2592 8.1169C30.2679 9.62142 30.915 11.3736 30.7196 12.4819C30.7734 13.6133 31.0059 14.6234 30.9766 15.8044Z" fill="#F99B9E"/>
<path fill-rule="evenodd" clip-rule="evenodd" d="M7.47352 11.01C7.05466 11.6173 6.31011 11.7451 6.22821 12.8588L5.94398 12.8044C5.47042 13.0986 5.51077 14.1292 5.03872 14.4154C3.66705 15.6836 3.8507 17.249 3.13555 19.7064C2.75658 19.634 2.97157 19.1514 2.66935 19.0199L2.44906 20.1726C2.10333 16.8004 4.77639 13.6042 6.66879 10.5534L6.95301 10.6077C7.24513 10.6635 7.24874 10.9016 7.47503 11.0021L7.47352 11.01Z" fill="#F99B9E"/>
<path fill-rule="evenodd" clip-rule="evenodd" d="M29.0644 13.3521C29.1339 14.1019 29.1806 15.1419 28.3955 15.311C27.3001 14.7907 28.6582 14.1501 28.5503 12.9592C28.8345 13.0135 28.846 13.2531 29.0723 13.3536L29.0644 13.3521Z" fill="#F99B9E"/>
</g>
<defs>
<clipPath id="clip0_256_3902">
<rect width="32.1919" height="27.4898" fill="white" transform="translate(33.044 5.16024) rotate(100.819)"/>
</clipPath>
</defs>
</svg>
