<svg width="44" height="43" viewBox="0 0 44 43" fill="none" xmlns="http://www.w3.org/2000/svg">
<g clip-path="url(#clip0_256_2552)">
<path fill-rule="evenodd" clip-rule="evenodd" d="M35.2183 19.1652C38.4809 20.3159 40.2049 16.15 43.0229 15.7707C40.8575 19.0991 40.2832 22.1509 38.8161 25.3259L37.1961 28.273C36.6384 27.9088 36.5558 29.1586 36.1938 29.4681C34.8482 30.7815 32.5121 31.9246 30.4482 32.9391C29.6507 33.0284 29.0052 33.6617 27.9781 32.982C30.5038 31.5114 34.2081 31.178 36.5198 28.2466C38.709 25.4685 38.9221 21.6426 40.6039 18.269C34.4781 22.9029 27.5889 28.4892 19.8833 29.9234C22.8574 27.7591 28.0404 26.4636 31.7475 24.2225C33.3579 22.7765 35.1003 21.8059 36.5747 19.8917C35.2861 19.356 32.7166 21.0808 30.6667 20.4816C28.4582 20.7642 26.7282 19.1992 24.2703 19.4119C23.6728 18.9108 22.6454 18.5283 23.1056 17.7259L23.6435 18.0216C27.359 18.7497 30.0505 20.5554 33.3089 19.4972C33.9727 19.4591 34.5999 19.2954 35.2411 19.1586L35.2183 19.1652Z" fill="#F99B9E"/>
<path fill-rule="evenodd" clip-rule="evenodd" d="M21.3303 17.1151C22.1249 17.4847 22.8167 17.8842 22.2298 18.6552C18.104 16.9629 11.808 14.7683 7.14723 15.6026L6.60939 15.3069C11.2135 13.3191 16.5377 16.217 21.3303 17.1151Z" fill="#F99B9E"/>
<path fill-rule="evenodd" clip-rule="evenodd" d="M6.58654 15.9944C6.10295 16.1411 5.76202 16.7788 5.4384 17.4548C5.77193 18.2617 6.82882 18.8523 6.16164 19.9438L6.42687 20.0896C5.41467 19.9937 3.89173 22.1882 3.49233 21.6233C4.02839 20.6132 4.69643 20.0786 5.35857 19.5024C4.63391 18.8834 5.62927 17.7708 4.90057 17.1591L6.07913 15.0151C6.38012 15.3053 6.23988 15.7175 6.58654 15.9944Z" fill="#F99B9E"/>
<path fill-rule="evenodd" clip-rule="evenodd" d="M19.9805 34.179C20.1561 33.8247 19.8367 33.6203 20.1567 33.2302C22.6978 33.1975 25.1037 32.678 27.7012 32.8395C27.4217 33.156 27.0346 33.1446 26.8447 33.7694C26.3452 33.8402 25.7912 33.7659 25.3275 33.9811C24.5116 33.7725 23.7337 33.6518 23.0073 33.7515C22.1783 34.2647 20.932 33.3206 20.2457 34.3248L19.9805 34.179Z" fill="#F99B9E"/>
<path fill-rule="evenodd" clip-rule="evenodd" d="M7.64703 27.3994C7.48124 25.5718 4.37374 24.5927 3.854 22.8679C4.22505 21.8439 5.52024 24.0429 6.56623 23.6585C8.35006 26.8361 12.1664 28.5502 15.68 28.6684C15.5357 29.0879 15.875 29.3608 15.7764 29.7671C13.163 29.7217 11.2689 27.6347 8.75312 27.3071C9.03826 27.5214 8.81292 27.8964 8.5769 28.256C8.26044 27.9765 8.27177 27.5894 7.64703 27.3994Z" fill="#F99B9E"/>
<path fill-rule="evenodd" clip-rule="evenodd" d="M14.5444 33.2823C15.9293 33.2761 19.2266 32.8628 19.5694 34.2985C17.9253 34.5843 15.946 33.717 14.2487 33.8201L14.5444 33.2823Z" fill="#F99B9E"/>
<path fill-rule="evenodd" clip-rule="evenodd" d="M14.2715 33.1326L14.5367 33.2784L14.2411 33.8162C13.3551 33.4731 10.407 31.9772 10.3946 30.656C11.7896 31.4517 12.5641 32.4338 14.2715 33.1326Z" fill="#F99B9E"/>
<path fill-rule="evenodd" clip-rule="evenodd" d="M8.54685 28.9395C8.76521 28.647 8.9198 28.1564 9.25354 28.2823C9.05337 29.17 11.175 29.3769 10.541 30.3907L10.2757 30.2449C9.56109 29.852 8.68658 29.5056 8.5428 28.9469L8.54685 28.9395Z" fill="#F99B9E"/>
</g>
<defs>
<clipPath id="clip0_256_2552">
<rect width="33.6548" height="29.7538" fill="white" transform="translate(14.333) rotate(28.7979)"/>
</clipPath>
</defs>
</svg>
