<svg width="53" height="48" viewBox="0 0 53 48" fill="none" xmlns="http://www.w3.org/2000/svg">
<g clip-path="url(#clip0_280_2818)">
<path fill-rule="evenodd" clip-rule="evenodd" d="M34.7755 12.2847C34.0493 11.9659 33.9029 11.4636 34.3444 10.8047C35.8806 11.4768 36.4796 11.6116 37.3621 12.8717C37.8899 13.6976 38.8745 14.3977 39.3886 15.2275C43.6979 21.4257 42.2887 28.2951 44.4757 35.4501C36.8538 40.94 28.4087 41.7573 18.5111 37.3855C27.0581 38.8144 35.8691 41.1752 42.3645 35.5347C42.9229 34.7461 41.268 34.6021 42.1115 33.7304L43.3914 34.4329C42.7442 31.7049 40.9286 30.1494 40.4142 26.9924C41.6579 26.3062 41.4619 28.2634 41.974 28.6813C41.6106 24.8543 41.4818 18.6464 37.4555 14.9877C37.3773 13.7585 36.0724 12.8939 34.9671 11.9564L34.7939 12.272L34.7755 12.2847Z" fill="white"/>
<path fill-rule="evenodd" clip-rule="evenodd" d="M16.5445 7.67386C21.2802 6.8396 27.8497 6.38448 32.2597 10.0713C24.104 7.0777 18.4995 7.8115 11.402 10.2469C11.8134 12.8226 10.086 14.4525 8.10797 15.5C7.81619 19.6062 8.50203 23.4276 10.6048 26.8291C9.1671 27.5571 7.3471 24.3679 8.32526 22.669C7.77951 22.3124 7.43373 22.693 6.87216 22.2821C8.35892 18.9915 6.76348 16.5986 7.53541 13.5088C8.27106 13.5818 8.99484 13.614 9.79771 13.9178L10.5002 12.638C9.71258 11.7037 9.98402 10.461 10.305 9.21125C10.5929 9.28943 10.7986 9.06012 11.1181 9.24692C13.0435 9.10596 14.6841 7.98738 16.5493 7.66509L16.5445 7.67386Z" fill="white"/>
<path fill-rule="evenodd" clip-rule="evenodd" d="M39.5106 33.1473C37.3203 33.8957 34.5438 32.657 32.0529 32.3734C34.3935 32.141 36.735 31.8862 39.5106 33.1473Z" fill="white"/>
<path fill-rule="evenodd" clip-rule="evenodd" d="M23.8042 30.7546C24.6727 30.9804 25.5096 31.0975 26.5284 31.8392C25.3909 31.6255 24.448 32.0548 23.1286 31.2165C23.3066 30.8922 23.5897 30.9791 23.7955 30.7498L23.8042 30.7546Z" fill="white"/>
<path fill-rule="evenodd" clip-rule="evenodd" d="M12.1068 30.1403C12.1187 30.7629 12.8775 31.1679 13.351 31.656C14.0866 34.1815 17.9001 34.4039 18.1815 37.2163C15.2832 34.3706 9.52865 31.7824 10.4268 27.1534C10.7527 28.2221 11.3008 29.2188 12.102 30.1491L12.1068 30.1403Z" fill="white"/>
<path fill-rule="evenodd" clip-rule="evenodd" d="M40.7514 26.3564C39.0982 25.5859 39.6582 24.1708 37.7694 23.4762C39.2193 23.2454 40.9699 25.2102 40.7514 26.3564Z" fill="white"/>
<path fill-rule="evenodd" clip-rule="evenodd" d="M33.5734 26.5689C36.8849 27.3941 40.8803 30.3401 40.3237 33.183C39.2035 30.6517 36.4268 28.6028 33.5734 26.5689Z" fill="white"/>
<path fill-rule="evenodd" clip-rule="evenodd" d="M23.137 31.2213C17.9671 29.376 19.8018 28.7975 23.8039 30.7546C23.603 30.9751 23.3151 30.897 23.137 31.2213Z" fill="white"/>
</g>
<defs>
<clipPath id="clip0_280_2818">
<rect width="42.94" height="31.07" fill="white" transform="translate(14.9502) rotate(28.7618)"/>
</clipPath>
</defs>
</svg>
