<svg width="50" height="48" viewBox="0 0 50 48" fill="none" xmlns="http://www.w3.org/2000/svg">
<g clip-path="url(#clip0_256_4447)">
<path fill-rule="evenodd" clip-rule="evenodd" d="M39.6081 21.6687C43.2998 23.0191 45.1906 18.4632 48.3621 18.1139C45.9632 21.7345 45.3541 25.0889 43.7404 28.5574L41.9514 31.7704C41.3182 31.3547 41.2408 32.7322 40.8367 33.0649C39.3365 34.4815 36.7178 35.6858 34.4043 36.7548C33.5067 36.8337 32.787 37.5169 31.6209 36.7413C34.4492 35.1803 38.6201 34.9034 41.1889 31.7247C43.6214 28.7121 43.8137 24.4943 45.6669 20.8119C38.8206 25.776 31.1259 31.7725 22.4589 33.1659C25.7839 30.8502 31.6093 29.5478 35.7596 27.1654C37.5565 25.6089 39.5082 24.5805 41.146 22.5039C39.6869 21.8809 36.8125 23.7214 34.4945 23.0096C32.0089 23.2672 30.0393 21.4971 27.2718 21.6714C26.592 21.1035 25.4293 20.6561 25.9379 19.7818L26.5478 20.1214C30.7447 21.0165 33.8009 23.0759 37.4602 21.988C38.2078 21.9623 38.9127 21.7971 39.6337 21.6619L39.6081 21.6687Z" fill="white"/>
<path fill-rule="evenodd" clip-rule="evenodd" d="M23.9297 19.0637C24.8299 19.4912 25.6146 19.9492 24.9627 20.7859C20.2914 18.8163 13.1676 16.239 7.92503 17.045L7.31513 16.7055C12.4795 14.6246 18.5167 17.9545 23.9297 19.0637Z" fill="white"/>
<path fill-rule="evenodd" clip-rule="evenodd" d="M7.29707 17.464C6.75386 17.614 6.37759 18.3095 6.02132 19.0476C6.40735 19.9465 7.60596 20.6244 6.86767 21.8128L7.16844 21.9803C6.02639 21.8495 4.3374 24.2343 3.88015 23.6009C4.47169 22.4992 5.21794 21.9255 5.957 21.3058C5.13249 20.6047 6.24041 19.4011 5.41142 18.708L6.71289 16.3705C7.05578 16.6983 6.90288 17.1498 7.29707 17.464Z" fill="white"/>
<path fill-rule="evenodd" clip-rule="evenodd" d="M22.6215 37.8658C22.8149 37.4789 22.4524 37.2455 22.8082 36.8227C25.6719 36.8493 28.377 36.3351 31.3067 36.5772C30.9956 36.9197 30.5592 36.8976 30.3529 37.5826C29.7909 37.6484 29.1656 37.5528 28.6456 37.779C27.7234 37.5285 26.8451 37.3762 26.0277 37.4683C25.0997 38.0145 23.6832 36.9417 22.9222 38.0332L22.6215 37.8658Z" fill="white"/>
<path fill-rule="evenodd" clip-rule="evenodd" d="M8.63562 30.0787C8.42584 28.0573 4.91113 26.9001 4.30371 24.9835C4.70908 23.8623 6.19645 26.3214 7.37056 25.9229C9.42093 29.4742 13.7438 31.4602 17.7054 31.6771C17.548 32.1367 17.9339 32.4462 17.8278 32.8922C14.8818 32.7777 12.7208 30.4276 9.88113 30.004C10.2052 30.2476 9.95592 30.656 9.69441 31.047C9.33422 30.7307 9.34214 30.3037 8.63562 30.0787Z" fill="white"/>
<path fill-rule="evenodd" clip-rule="evenodd" d="M16.4833 36.7421C18.0442 36.7693 21.7553 36.3943 22.1598 37.9875C20.3102 38.2625 18.0685 37.2564 16.1568 37.3285L16.4833 36.7421Z" fill="white"/>
<path fill-rule="evenodd" clip-rule="evenodd" d="M16.1741 36.57L16.4749 36.7375L16.1484 37.3239C15.1456 36.9233 11.804 35.1996 11.7734 33.741C13.3558 34.6536 14.241 35.7567 16.1741 36.57Z" fill="white"/>
<path fill-rule="evenodd" clip-rule="evenodd" d="M9.66876 31.8009C9.9112 31.4834 10.0793 30.9456 10.457 31.0928C10.2425 32.0678 12.6364 32.3484 11.9345 33.4518L11.6337 33.2843C10.8233 32.8331 9.83334 32.4292 9.66428 31.8089L9.66876 31.8009Z" fill="white"/>
</g>
<defs>
<clipPath id="clip0_256_4447">
<rect width="38.2786" height="32.5368" fill="white" transform="translate(15.8281) rotate(29.1081)"/>
</clipPath>
</defs>
</svg>
