<svg width="42" height="34" viewBox="0 0 42 34" fill="none" xmlns="http://www.w3.org/2000/svg">
<g clip-path="url(#clip0_256_2543)">
<path fill-rule="evenodd" clip-rule="evenodd" d="M16.3196 5.48495C16.9796 5.39034 17.2113 5.01636 17.0021 4.38324C15.6064 4.58159 15.0909 4.5559 14.0921 5.3778C13.4786 5.92784 12.5234 6.27317 11.92 6.82947C7.03333 10.8793 6.62744 16.761 3.24423 22.064C8.18137 28.2277 14.8379 30.792 23.8397 29.4803C16.5948 28.7124 8.92597 28.64 4.93523 22.6081C4.66061 21.8435 6.03349 22.0996 5.54661 21.2036L4.35166 21.4843C5.49041 19.4204 7.31138 18.5694 8.43918 16.1281C7.58641 15.2921 7.30424 16.9216 6.79531 17.1448C7.95171 14.1267 9.45444 9.12735 13.5399 7.07072C13.8801 6.09262 15.1319 5.68626 16.2383 5.17586L16.3075 5.4705L16.3196 5.48495Z" fill="#F99B9E"/>
<path fill-rule="evenodd" clip-rule="evenodd" d="M32.125 5.85671C28.477 4.11422 23.2583 2.26578 18.8556 4.25875C26.1361 3.67102 30.5105 5.52784 35.7109 9.09924C34.7975 11.0929 35.8295 12.8023 37.1958 14.0963C36.5072 17.488 35.0908 20.4289 32.6214 22.7104C33.6219 23.624 35.8145 21.4507 35.4049 19.8542C35.9273 19.6883 36.1217 20.0745 36.6691 19.8682C36.206 16.8679 38.0374 15.289 38.1081 12.6124C37.4958 12.5058 36.9022 12.3689 36.1835 12.4341L35.9027 11.2392C36.7512 10.6598 36.8112 9.59209 36.8328 8.50749C36.582 8.50596 36.467 8.27389 36.1661 8.35321C34.6383 7.80534 33.5613 6.52972 32.1231 5.84853L32.125 5.85671Z" fill="#F99B9E"/>
<path fill-rule="evenodd" clip-rule="evenodd" d="M7.78392 21.317C9.38952 22.4166 11.9175 22.0386 13.999 22.37C12.1555 21.6545 10.3163 20.9207 7.78392 21.317Z" fill="#F99B9E"/>
<path fill-rule="evenodd" clip-rule="evenodd" d="M21.0446 22.9169C20.2902 22.9041 19.586 22.8105 18.5937 23.1818C19.5632 23.2649 20.2302 23.825 21.4878 23.4432C21.4167 23.1404 21.1678 23.147 21.0528 22.915L21.0446 22.9169Z" fill="#F99B9E"/>
<path fill-rule="evenodd" clip-rule="evenodd" d="M30.6587 25.0541C30.5088 25.5557 29.803 25.7129 29.3095 26.0016C28.1448 27.8815 25.0058 27.2027 24.1443 29.4173C27.1329 27.7652 32.3772 26.9649 32.6924 23.0132C32.1876 23.8054 31.5192 24.4893 30.6606 25.0623L30.6587 25.0541Z" fill="#F99B9E"/>
<path fill-rule="evenodd" clip-rule="evenodd" d="M8.309 15.537C9.82166 15.2853 9.68682 14.0129 11.3732 13.8758C10.2508 13.3622 8.3902 14.5593 8.309 15.537Z" fill="#F99B9E"/>
<path fill-rule="evenodd" clip-rule="evenodd" d="M14.0749 17.3259C11.2067 17.2484 7.30677 18.7347 7.11724 21.1628C8.5948 19.3648 11.3055 18.3307 14.0749 17.3259Z" fill="#F99B9E"/>
<path fill-rule="evenodd" clip-rule="evenodd" d="M21.4796 23.4452C26.0829 23.1151 24.7271 22.2332 21.0446 22.917C21.1576 23.1409 21.4084 23.1424 21.4796 23.4452Z" fill="#F99B9E"/>
</g>
<defs>
<clipPath id="clip0_256_2543">
<rect width="36.1014" height="26.1218" fill="white" transform="matrix(-0.973495 0.228709 0.228709 0.973495 35.1445 0)"/>
</clipPath>
</defs>
</svg>
