<svg width="68" height="70" viewBox="0 0 68 70" fill="none" xmlns="http://www.w3.org/2000/svg">
<g clip-path="url(#clip0_256_2429)">
<path fill-rule="evenodd" clip-rule="evenodd" d="M33.2788 9.06288C33.5271 10.5737 33.5191 11.9477 32.8084 12.9113C34.7606 19.5903 35.3825 25.3776 38.3584 29.6658C40.0772 29.9211 37.0229 27.5062 37.2559 25.5002C38.736 25.654 39.4614 27.1027 40.5223 27.9857C40.8183 27.9811 40.9598 28.2417 41.3088 28.1443C41.6402 28.2546 41.9672 28.356 42.4399 28.2188C42.709 27.5868 42.5008 26.6856 43.0219 26.2038C42.7865 24.1009 43.1522 22.36 44.2604 21.0427C45.5125 24.1832 44.5286 26.4768 45.7534 28.0843C47.6043 27.5884 47.8066 26.1391 48.6808 25.0827C47.9205 24.3807 47.334 26.2322 46.4328 26.4183C44.9825 24.4486 46.2838 21.0239 44.3348 19.9116C44.3302 19.6156 44.5908 19.4741 44.4934 19.1251C44.1444 19.2225 43.7999 19.3067 43.4509 19.4041C43.4863 19.5189 43.5129 19.6382 43.5483 19.7531C43.0187 20.8137 42.4494 21.8611 42.1983 23.0807C42.2654 24.4944 41.6254 25.4889 41.7278 26.9291C37.8789 25.6192 35.9405 20.0712 34.1757 16.657C33.8241 12.1375 34.5066 8.22714 36.2763 4.94347C40.3526 2.25048 43.8397 4.27192 44.1688 8.04036C45.1625 7.44333 44.3442 5.78703 45.7004 5.40628C44.8379 3.86046 42.4881 4.86032 41.9964 2.66482C36.9593 1.85042 34.598 5.96061 33.2788 9.06288ZM35.8273 22.89C36.8787 22.6508 38.2539 24.7353 37.1629 25.138C37.0605 23.8082 36.0533 24.0032 35.8273 22.89Z" fill="#F99B9E"/>
<path fill-rule="evenodd" clip-rule="evenodd" d="M51.6832 15.348C50.263 11.9823 49.0149 8.14369 45.7927 5.74655C47.0006 8.79874 51.4168 13.0066 50.6778 18.5915C50.7974 19.2276 51.2393 19.3157 51.9063 19.0149C52.3387 18.0913 51.0873 16.1878 51.6876 15.3569L51.6832 15.348Z" fill="#F99B9E"/>
<path fill-rule="evenodd" clip-rule="evenodd" d="M51.6365 25.0282C51.4323 23.5174 52.3317 20.2386 50.6039 19.7227C50.6713 21.6224 49.3244 22.7057 48.8305 24.2788C49.4718 25.3387 49.4178 23.7085 49.7801 23.6597C51.0375 28.3112 45.5345 31.575 46.2136 36.8807C44.6864 39.5015 43.8266 42.44 40.8981 43.4977C41.053 44.0719 41.2036 44.6594 41.3586 45.2337C37.8457 51.9203 33.9792 58.3862 28.8885 64.1504C28.902 64.4641 29.114 64.4463 29.3261 64.4064C33.963 60.825 36.2044 55.8578 39.2591 51.3672C39.2674 50.3908 40.0756 49.8867 40.0971 48.9147C40.2648 48.5214 40.5916 48.2252 40.9581 47.9422C40.9227 47.8274 40.8961 47.7081 40.8607 47.5932C41.8103 47.0625 41.0362 45.5387 42.4852 45.2993C42.3878 44.9503 42.3037 44.6058 42.2063 44.2568C46.3973 41.3959 47.0086 36.4605 47.7877 31.6178C50.0754 30.0083 50.3963 27.2512 51.6232 25.0238L51.6365 25.0282Z" fill="#F99B9E"/>
<path fill-rule="evenodd" clip-rule="evenodd" d="M39.2645 31.6541C39.0918 31.1107 39.0781 30.289 38.548 30.3556C37.0784 33.0912 38.5431 37.1638 37.6255 39.5236C38.5713 40.0444 37.8825 40.6545 37.7371 41.3571C37.9979 41.5911 38.2498 41.8295 38.3562 42.3066C38.4889 42.5716 38.7937 42.5626 38.8911 42.9116C37.6514 46.0182 36.5134 49.1734 34.5666 51.8607C34.2091 52.5369 34.0063 53.3013 33.1937 53.7083C32.426 55.6173 30.5977 56.9085 29.2467 58.4688C31.3856 59.497 30.8537 56.4709 32.7932 56.4168C35.7332 52.2488 38.3859 47.9043 39.5802 42.7212C39.421 42.5357 38.3602 41.6085 39.2127 41.3253C38.8317 39.4832 39.3518 37.4329 38.1802 36.0198C38.0605 35.3615 39.2976 35.4934 39.3813 34.9543C39.3459 34.8395 39.3193 34.7202 39.2839 34.6053C39.3277 33.9426 38.3196 32.6796 39.0794 32.4318C38.9157 32.0386 38.9906 31.7912 39.238 31.6453L39.2645 31.6541Z" fill="#F99B9E"/>
<path fill-rule="evenodd" clip-rule="evenodd" d="M24.1263 65.7844C25.3665 63.5613 29.2619 61.3235 28.6553 59.0088C28.6907 59.1236 28.7173 59.2429 28.7527 59.3578C27.5509 59.2524 28.0551 60.1269 27.5516 60.4232C26.1211 62.0455 23.3956 62.913 23.702 65.5328C23.7816 65.736 23.8657 65.9259 24.1395 65.7888L24.1263 65.7844Z" fill="#F99B9E"/>
<path fill-rule="evenodd" clip-rule="evenodd" d="M28.8975 64.1459C28.8621 64.031 28.8355 63.9118 28.8001 63.7969C28.0013 65.2907 25.5363 65.8179 24.9276 67.4264C24.2427 67.2722 23.7076 66.4463 24.1137 65.779C23.831 65.9205 23.747 65.7306 23.6762 65.523C22.9872 66.0005 22.4751 66.5884 22.7407 67.6265C24.0656 66.698 23.1749 69.5746 24.4997 68.6461C24.4643 68.5312 24.4377 68.412 24.4023 68.2971C27.1633 67.7432 27.6394 65.8697 29.4148 64.7376C29.3794 64.6228 29.3528 64.5035 29.3174 64.3886C29.1009 64.4197 28.8933 64.4463 28.8798 64.1327L28.8975 64.1459Z" fill="#F99B9E"/>
</g>
<defs>
<clipPath id="clip0_256_2429">
<rect width="49.5636" height="52.5372" fill="white" transform="matrix(-0.894166 0.447736 0.447736 0.894166 44.3184 0)"/>
</clipPath>
</defs>
</svg>
