<svg width="32" height="31" viewBox="0 0 32 31" fill="none" xmlns="http://www.w3.org/2000/svg">
<g clip-path="url(#clip0_256_4496)">
<path fill-rule="evenodd" clip-rule="evenodd" d="M17.5898 4.29096L20.4177 6.01941C21.3211 6.92907 22.0139 6.91093 23.2456 7.74786C23.7179 7.95244 23.9521 8.22172 24.0765 8.50803L24.263 8.622C24.3524 9.39859 25.3313 9.96185 25.8815 10.6346C26.2869 11.4991 27.0215 12.2775 27.1618 13.2043C26.5916 13.816 27.2721 14.1338 27.3531 14.5968C27.7976 16.8239 27.376 18.5708 26.0757 20.958C26.0853 21.5035 25.6473 21.4531 25.5855 22.1863C24.4348 23.5435 23.2602 24.788 21.6673 24.3821C20.2097 23.1688 19.2059 20.67 17.372 22.5208C17.0309 23.6089 17.0677 24.6126 17.033 25.6287C16.6192 26.322 16.0881 26.53 15.5653 26.7712C14.4496 26.0472 14.4278 25.9428 13.3019 25.3878L12.5457 24.9256C12.7165 24.7496 12.9962 25.0257 13.1504 24.7835C14.3219 25.4155 15.4509 25.8952 16.5031 26.0688C16.5131 25.374 16.3957 24.7135 16.4636 24.0051C16.8433 23.333 16.1741 22.903 16.8023 22.1725C16.9907 22.0844 17.1822 21.9912 17.327 21.7293C17.6304 21.6624 17.9338 21.5955 18.2299 21.5172C18.7763 20.933 19.6964 21.8388 20.3819 21.8092L20.7202 21.2521C21.6606 19.7032 22.5486 18.9424 22.1886 17.5588C23.2024 15.7254 22.5264 14.289 22.2615 12.7604L22.5998 12.2032C22.1595 11.7238 21.9547 12.1663 21.5454 11.8111C21.0792 11.2808 20.6429 10.7478 20.1849 10.2156C26.3478 13.0011 22.0913 19.5319 20.943 23.4348C21.4205 23.6425 21.8295 23.5771 22.3754 24.058C25.2461 22.5465 27.5518 18.0124 26.6284 14.9249C26.5637 13.9321 26.4689 12.942 25.7612 12.0959C25.5405 11.8279 25.4523 11.5287 25.2316 11.2606C25.3267 10.9753 24.8534 10.8192 24.5871 10.6144C24.4849 9.29734 22.877 7.88704 21.3815 7.37944C20.5491 7.66266 20.5242 5.86728 19.4962 6.22714C18.3367 4.9087 16.1527 4.68118 14.6363 4.02069C14.2158 3.95294 14.4056 4.34224 14.298 4.57787C13.9013 4.48261 13.3262 3.6755 13.0572 4.07177C13.8738 5.26478 14.6356 6.4663 15.5464 7.63279C15.0382 8.03706 14.7747 7.091 14.4174 6.94268C13.693 5.99532 13.214 4.99469 12.266 4.09987C11.8597 5.15512 12.9008 5.86153 12.95 6.80974C13.2329 7.22096 12.8946 7.77814 13.4394 8.1322C13.4117 8.56381 13.5082 8.96624 13.7425 9.34069C12.7075 8.41373 12.1698 5.98944 11.5517 4.43423C9.94083 6.98204 6.09395 7.11889 5.4487 10.6494C5.8348 12.2591 6.56051 13.789 7.55956 15.2547C7.0965 16.801 7.15009 18.2215 8.12829 19.4291C8.00203 19.5552 7.82492 19.496 7.71526 19.6883C7.27507 19.5244 7.29564 19.2566 7.07081 19.0421C7.22284 18.6864 7.00212 18.4184 6.5412 18.2067C8.31425 14.889 3.64984 12.2202 5.07923 9.14098C5.6212 7.97937 6.94754 7.68967 7.86836 6.255C8.121 6.21317 8.41411 6.31522 8.73627 6.53316C9.78551 5.1209 11.8816 3.66867 10.9961 1.53645L11.2227 1.1633L11.7872 1.50836C11.5937 1.69845 11.9431 2.47971 12.2401 2.03743C13.0453 3.13233 14.4484 3.1489 15.1797 3.58187C15.9917 3.84688 16.7643 3.95462 17.5898 4.29096Z" fill="white"/>
<path fill-rule="evenodd" clip-rule="evenodd" d="M8.13696 19.4271C8.45719 19.8822 8.35495 20.4366 9.1194 20.7917L9.00765 20.9757C9.09278 21.3852 9.83025 21.6327 9.9102 22.0391C10.4504 23.3366 11.6021 23.627 13.1509 24.7839C13.0019 25.0293 12.717 24.75 12.5462 24.926L13.3025 25.3882C10.8343 24.7278 9.27019 22.0054 7.60696 19.8672L7.71871 19.6832C7.83356 19.494 8.0024 19.5552 8.13178 19.424L8.13696 19.4271Z" fill="white"/>
<path fill-rule="evenodd" clip-rule="evenodd" d="M15.3656 4.97139C15.9127 5.12337 16.6588 5.36888 16.575 5.9632C15.9245 6.59 15.8237 5.4689 14.9554 5.22584C15.0672 5.04161 15.2392 5.09763 15.3687 4.96627L15.3656 4.97139Z" fill="white"/>
</g>
<defs>
<clipPath id="clip0_256_4496">
<rect width="24.311" height="20.4523" fill="white" transform="matrix(0.853244 0.521512 -0.519003 0.854773 10.6152 0)"/>
</clipPath>
</defs>
</svg>
