<svg width="67" height="78" viewBox="0 0 67 78" fill="none" xmlns="http://www.w3.org/2000/svg">
<g clip-path="url(#clip0_256_4531)">
<path fill-rule="evenodd" clip-rule="evenodd" d="M21.2898 66.401C21.6476 70.6837 21.1585 73.4327 21.0934 77.1575C22.0589 77.0663 21.3773 76.17 22.3429 76.0788C23.4864 73.5769 22.6491 70.153 24.2026 67.3412C25.2103 65.4288 24.9854 62.9072 26.2765 61.12C26.3485 60.8372 26.4177 60.5464 26.2651 60.1537C25.706 60.4436 25.9677 61.1281 25.4007 61.4207C25.4333 62.0859 25.1823 62.5992 24.6373 62.9821C23.9853 65.0751 23.6433 67.3196 22.5634 69.2034C21.7339 69.0165 21.9288 67.303 22.0546 66.7881C21.9887 66.2589 21.6431 66.3153 21.2739 66.4064L21.2898 66.401Z" fill="#F99B9E"/>
<path fill-rule="evenodd" clip-rule="evenodd" d="M24.7325 72.6687C25.1655 71.6745 26.1119 70.9313 26.3524 69.843C27.1651 69.3326 27.5124 69.7741 28.1864 69.5338C30.0468 66.2161 34.0698 64.5056 36.8406 62.6733C36.6552 62.1851 36.7986 61.8511 37.1238 61.6059C38.5167 58.4042 43.2062 56.7943 42.2807 53.0357C45.4372 52.664 43.8433 48.2806 45.124 46.2299L44.9245 45.6487C44.2854 45.6278 44.786 44.1566 45.2948 43.9018L45.1964 43.6151C45.5744 43.3163 45.7813 42.9337 46.1593 42.6349C46.3542 35.8661 45.155 30.377 42.5091 24.459C42.2437 25.1375 41.7695 25.7008 42.3383 26.7872C43.9319 26.3736 42.0244 27.9986 43.1224 28.1378C43.285 28.4558 43.2364 28.6772 43.0353 28.8174L43.3333 29.6852C44.4657 32.1801 45.3915 35.6804 45.2542 39.0651L45.4537 39.6463C44.9964 40.3106 44.7718 41.082 45.3813 42.2611C44.5425 42.825 44.3258 42.1162 43.7327 42.1774C43.1353 41.1632 43.6074 40.6718 43.2239 39.7622C42.5649 38.4131 42.5376 38.3335 42.229 36.8641C41.3536 36.0254 41.4757 33.6071 40.537 31.9358C39.6003 31.9814 40.6597 31.0748 40.0395 30.4867L39.6404 29.3243C40.0784 28.8892 40.3294 28.3758 40.4037 27.7628C40.8345 27.4103 40.5808 26.723 40.8725 26.3025C41.2104 25.9907 40.5296 25.1742 41.0546 24.9405C40.2967 24.1327 40.404 25.7157 40.0917 25.9208C39.4313 27.0821 37.5523 26.5346 36.5141 26.8287C36.952 28.4673 38.3527 27.0252 38.9434 27.2941L39.8112 26.9962C39.5773 27.922 39.1001 28.7355 38.3769 29.4288C36.7783 29.8797 36.5868 30.4884 35.1922 30.5222C34.3886 31.163 34.5475 30.7702 33.4565 31.1181C32.4731 31.8829 31.3976 31.8872 30.1768 32.8938C29.4351 33.0149 29.7282 33.6352 28.8261 33.6779C28.4776 33.1033 29.0515 32.9864 29.4944 32.7987C29.2729 32.4387 28.6879 32.8086 28.2336 32.9112C27.196 34.1663 25.8644 35.291 24.9765 36.6194C24.5258 37.1212 25.0297 38.0963 24.7046 38.653C24.7923 38.9344 24.4228 38.9989 24.2218 39.1391L24.3202 39.4258C23.6741 39.5141 23.6242 39.8872 23.2562 40.1115C22.157 42.2243 20.6435 44.1413 19.5337 46.2489C21.5499 49.0367 17.5542 50.2305 18.3389 53.1384C18.9927 54.4982 18.5931 55.3563 18.0731 56.149C17.1995 59.6707 18.5103 61.5704 19.8955 65.2423C20.3761 65.3977 20.9353 65.4193 21.3559 65.711C22.0134 65.1115 20.8522 64.1662 20.089 64.8465C20.2565 64.5309 19.9908 63.9902 20.3723 63.7792L20.2739 63.4926C19.6986 62.5686 20.1714 62.1571 20.2592 61.5574C19.9428 60.7136 18.9338 61.3004 18.7955 60.1196C21.189 57.1885 25.3286 55.1176 28.1179 52.38C28.9576 52.8037 29.0414 52.3477 29.7778 53.4299C30.4162 52.7747 30.0305 51.6254 30.9176 51.0984C30.8219 50.8197 31.1993 50.7525 31.4004 50.6122L31.1024 49.7444C30.8883 50.2095 30.4082 50.1073 30.8158 49.8428C30.7122 49.5669 30.381 49.7429 30.1362 49.7557C28.6694 52.4309 25.1405 53.4289 22.1503 55.7371C22.246 56.0157 21.8686 56.083 21.6675 56.2233C20.9351 57.071 19.593 57.6208 18.8819 58.479C18.7248 56.388 19.089 55.7379 19.9059 53.9177C17.0621 47.0085 27.1471 45.6377 33.3612 42.1692C33.3736 44.746 31.4182 46.3607 31.0991 48.7754C31.5962 48.6938 31.5077 48.3325 31.8685 48.1909C32.767 47.7489 32.3793 46.6716 33.1067 46.146C35.0453 50.0818 35.1227 55.7513 36.5313 60.8392C36.3465 62.1932 34.2606 62.6245 34.0437 63.9628C31.9181 62.9303 31.3973 66.3132 29.6095 66.1349C28.9966 63.9867 28.9577 60.8405 27.5098 59.0859C27.9624 60.2744 28.1983 61.3504 27.9236 62.1835L29.416 66.5306C28.5405 68.6468 26.1441 68.5884 24.8981 70.3512C24.9778 71.5165 23.3462 71.8452 23.5649 73.0785L24.7273 72.6794L24.7325 72.6687ZM39.2081 44.0601C40.4715 49.5806 42.2689 53.8052 40.3883 56.934C39.9886 56.5995 39.772 55.8906 38.9279 56.4652C39.588 58.2323 37.5556 58.6897 37.2103 59.9653C36.3438 57.4414 36.4099 53.8231 35.1944 51.2677C36.1633 51.2644 35.4825 50.4479 35.3765 49.9058L34.9774 48.7434C34.8763 48.4488 35.0908 48.3217 35.0645 48.0637L34.9661 47.7771C34.517 47.869 34.4628 47.1667 34.2804 46.7131C32.7266 41.4615 38.0301 37.6737 38.1269 32.4339C38.8298 32.1481 39.5038 31.9078 39.961 32.1246C41.3518 36.7202 42.5616 40.7105 44.4383 45.1659C43.6837 46.8045 43.167 48.5661 43.8135 50.8897C42.3642 50.7642 42.3911 52.5795 41.595 51.9717C41.4496 50.9002 41.6699 50.5309 41.1812 48.8741C41.4873 47.9769 40.4379 46.4237 40.6691 45.4899C39.8547 44.025 38.8244 40.4538 39.1506 38.2413C38.4124 38.4503 38.0544 38.0036 38.0866 38.927C38.4801 40.9547 39.2964 42.0362 39.1974 44.0549L39.2081 44.0601ZM26.0363 44.3725C24.717 45.6887 22.7342 45.435 21.9871 46.7328C21.4896 46.7612 21.4287 45.9099 20.6252 46.5506C20.7522 45.5725 21.208 44.7485 22.0595 44.1179C22.7971 42.948 23.1844 41.6135 24.4488 40.7077C26.3503 37.821 26.3909 33.7396 30.4881 33.7748C31.2298 33.6537 30.9367 33.0334 31.8388 32.9907C34.0697 31.2191 36.7979 31.4662 38.3032 30.1216C38.2449 32.8295 36.7615 34.834 33.5134 35.9759C33.4141 36.4905 32.9941 36.8483 32.2639 37.0545C31.6325 38.1969 29.83 38.7535 28.6104 39.6083C28.7423 40.0703 27.9465 40.0854 28.3272 40.6756C30.7155 38.9478 33.3609 37.6836 36.0298 35.7616C36.0574 37.0605 35.486 38.0665 34.8961 39.0701C35.1947 40.0178 33.7956 40.1421 33.1638 40.635C32.736 42.2147 30.6987 41.8284 29.6958 42.7957C29.2407 43.6995 27.1279 43.793 26.0283 44.3752L26.0363 44.3725Z" fill="#F99B9E"/>
<path fill-rule="evenodd" clip-rule="evenodd" d="M21.7328 62.0389C23.3818 59.7906 26.2714 58.1489 28.4658 56.1673C28.4174 55.819 28.6285 55.6041 28.8475 55.3865C28.6217 54.5473 30.1018 54.5554 29.5124 53.5384L28.35 53.9375C27.7034 57.2389 23.3028 58.7052 21.1482 61.2695C21.0262 61.614 20.7731 61.8878 20.4799 62.1486C20.7015 62.5087 21.2865 62.1387 21.7407 62.0362L21.7328 62.0389Z" fill="#F99B9E"/>
<path fill-rule="evenodd" clip-rule="evenodd" d="M38.7402 24.7826L38.6418 24.496C39.6788 24.0687 39.6198 23.7152 40.672 23.799C42.4189 17.9214 43.6668 12.7937 43.8102 6.52326C43.9909 5.0016 44.3562 3.57678 43.7668 1.67868C43.5852 1.02011 44.6278 1.80141 45.2158 1.1812C44.6388 3.62216 45.6036 5.83635 44.8018 8.45237C44.7047 13.9504 42.5541 18.4446 42.3286 23.8799C44.9793 16.6686 46.0959 8.48869 45.9932 0.593898C45.7348 -0.029372 45.0475 0.224355 44.3447 0.510171C43.2172 1.24436 43.2475 2.55116 43.211 3.81864C42.937 4.73152 42.7378 5.68101 43.3381 7.01465L42.7569 7.21419C42.9659 10.9339 42.544 14.3451 41.3947 17.4008C41.4495 18.4678 41.1462 19.373 40.7411 20.2152C40.7646 20.4652 40.5449 20.6029 40.654 20.8948C40.927 21.3529 40.6197 21.5207 40.2723 21.6755C40.5053 23.9096 37.9121 23.8743 35.2683 25.0134C35.0208 25.6145 33.9418 25.8159 33.8306 26.4771C33.4798 26.5441 33.3349 26.7184 33.3477 26.9632L33.6344 26.8648C36.1419 26.5469 36.3171 24.413 38.7509 24.7878L38.7402 24.7826Z" fill="#F99B9E"/>
<path fill-rule="evenodd" clip-rule="evenodd" d="M31.1124 49.7493C32.3767 49.7247 31.5875 48.6962 31.8758 48.1878C31.507 48.3322 31.6062 48.6987 31.1064 48.7724C30.5786 48.9981 30.2006 49.297 30.1435 49.7527C30.3883 49.7398 30.7195 49.5638 30.8231 49.8398C30.4155 50.1043 30.9036 50.2037 31.1097 49.7414L31.1124 49.7493Z" fill="#F99B9E"/>
<path fill-rule="evenodd" clip-rule="evenodd" d="M29.8894 32.0312C30.7388 31.1611 32.5614 30.7667 31.8038 29.1044C33.0788 29.085 32.065 27.9467 33.3399 27.9273C33.559 27.4248 33.2956 27.4352 33.042 27.0595C32.0879 27.2357 32.0535 27.8616 31.5059 28.2365C31.9528 29.0977 31.2019 29.3733 30.3548 29.6019C31.027 30.6527 29.8277 30.7885 29.3048 31.2617L29.6028 32.1296L29.8894 32.0312Z" fill="#F99B9E"/>
</g>
<defs>
<clipPath id="clip0_256_4531">
<rect width="48.4028" height="64.9944" fill="white" transform="matrix(0.945812 -0.324716 -0.324716 -0.945812 21.1047 77.1896)"/>
</clipPath>
</defs>
</svg>
