<svg width="58" height="55" viewBox="0 0 58 55" fill="none" xmlns="http://www.w3.org/2000/svg">
<g clip-path="url(#clip0_256_2179)">
<path fill-rule="evenodd" clip-rule="evenodd" d="M9.52455 53.305C7.19426 49.7365 8.58544 45.0149 5.84071 42.7978C7.07264 40.8055 5.57283 39.4019 4.457 38.2166C3.84682 37.1113 5.58502 37.7742 4.97484 36.6688C5.44414 36.4913 5.14429 35.7258 5.12671 35.1728C5.12591 34.7386 5.73618 34.7734 6.15451 34.6637C4.39174 34.3982 4.23987 32.8946 4.56718 31.2122L4.92327 31.1618C4.48245 30.1839 5.29624 30.1596 5.02478 29.3093C4.45517 29.4909 4.35406 29.0609 3.89625 29.1055C3.89685 28.6812 3.7262 28.4731 3.43805 28.4331C3.47371 27.1858 4.79136 24.5148 3.60059 24.3703C3.40296 23.257 3.79242 22.5858 3.96597 21.7432C4.63739 21.4966 4.05559 20.3065 5.25765 20.4595L5.308 20.8159C4.69245 23.5289 5.41053 25.2553 4.83044 27.8623C9.58722 27.8959 14.3567 20.9489 19.1304 19.9601C19.2485 20.3675 19.1422 20.6149 18.8765 20.7333C17.2407 20.5811 17.8714 22.1178 16.5066 22.1696C15.841 22.3143 15.3334 22.5781 15.1646 23.0968C13.9344 22.8165 15.0527 24.3044 13.8225 24.0241C11.3847 25.6215 9.44494 27.6029 6.40868 28.7498C6.02631 30.3997 5.469 32.8822 6.50071 34.6147C10.4115 31.4453 16.8513 30.1802 17.5656 24.5951C18.7562 23.8811 18.75 22.2661 19.6809 21.3567C20.6852 18.4674 23.1333 16.6564 23.6973 13.4357C24.3177 13.2569 24.4301 12.6956 24.2151 11.8878C23.977 11.4166 21.8186 12.2069 21.3871 12.6518C18.9621 14.1262 16.1444 14.5352 13.8711 16.6547C13.3016 16.7656 12.4724 16.681 12.4773 17.2156C12.217 17.4443 11.9468 17.6744 11.4495 17.7246C11.5424 16.954 10.6354 16.9612 10.677 17.4704C10.3308 17.5194 10.3371 17.064 10.2188 16.798C12.9224 16.1527 14.4292 14.6063 16.7489 13.6719C17.8679 14.5942 18.5236 12.4511 19.4748 12.1852C21.7617 12.4472 23.6759 9.57058 26.5737 10.443L26.6758 11.1658L26.3197 11.2162C26.5969 11.9647 25.9018 11.9722 25.3436 12.0917C25.6712 13.1966 25.0279 13.5705 24.9265 14.3524C22.4948 17.5649 21.3403 21.7479 18.2764 24.4843C17.2255 30.3292 14.9982 33.9168 14.1385 39.4013C13.5855 39.8432 14.1163 41.1011 13.3149 41.356C12.4515 45.5281 11.9507 49.9822 10.7048 53.8752C9.9316 54.1866 10.094 53.2648 9.52455 53.305ZM7.33601 40.3845C7.53364 41.4977 6.35386 41.5738 6.97063 43.0116C8.52969 44.4775 9.52732 42.3264 10.4186 41.4226C14.6273 39.4331 13.8597 33.7143 15.7779 30.009C12.489 31.939 9.33426 33.9611 5.95369 35.8132C5.57043 38.0994 7.65203 38.6935 6.92107 40.0897C7.14148 40.0787 7.35339 40.079 7.32752 40.3958L7.33601 40.3845ZM10.3072 43.2765L9.95115 43.3269C9.57878 43.9048 8.81124 44.1851 7.89694 44.355C8.14843 47.3492 10.4457 49.256 9.73946 52.1838C11.9701 50.2622 10.5078 47.3384 11.6513 44.9344C12.1364 43.5831 12.3053 41.9938 12.892 40.719C11.5153 41.1866 10.8725 42.2067 10.3185 43.285L10.3072 43.2765Z" fill="#F99B9E"/>
<path fill-rule="evenodd" clip-rule="evenodd" d="M5.24903 20.4708C5.18617 17.9548 5.93622 16.0509 8.18786 15.2777C8.36931 15.8479 7.93968 15.9491 7.98424 16.4074C7.32462 17.3087 6.29241 17.9295 6.59106 19.5436C7.27357 18.4471 8.83671 18.0137 9.93696 17.2318L9.8866 16.8753L10.2427 16.8249C10.361 17.091 10.3434 17.5378 10.7009 17.4973C11.096 18.8654 8.65717 18.0997 8.74879 19.2482C7.82869 19.5198 6.79708 19.7164 6.32859 20.3281C5.73101 20.3117 5.75299 20.7529 5.30078 20.8372L5.25042 20.4807L5.24903 20.4708Z" fill="#F99B9E"/>
<path fill-rule="evenodd" clip-rule="evenodd" d="M29.0261 4.23831C31.843 2.39533 35.9655 3.36706 37.8749 1.88483L39.6751 1.62999C39.8285 2.07286 40.439 1.89553 40.3972 1.52777L41.1192 1.42555C44.4213 1.1601 47.8219 1.09278 50.7815 2.25945C50.9772 2.71652 51.4943 2.73422 51.656 3.23649C51.2391 3.35611 51.4417 3.9334 51.4524 4.36616C49.1767 4.18334 47.4558 4.28556 45.5935 4.4583C44.8641 3.72329 42.8255 4.71884 41.5865 4.66194C38.888 4.77126 36.1526 4.9767 33.6635 5.78353C30.9907 6.64667 29.3152 8.64117 27.1852 9.27598C30.6391 3.5151 41.9824 3.46466 49.1436 3.59215C44.1388 0.0891443 35.1567 3.85524 28.8828 5.72304C24.7868 6.93913 20.1565 6.37256 16.6974 7.81159C13.9536 8.95747 13.1778 11.1074 10.7277 12.3329L11.0326 14.4914C10.7724 14.7201 10.5022 14.9503 10.0048 15.0005C9.27716 14.0633 9.01849 16.1602 8.35707 16.3346L8.00098 16.385C7.95501 15.9168 8.39593 15.8241 8.2046 15.2553C11.639 8.28528 17.9596 5.39082 25.1887 5.49861C26.7741 5.29438 28.145 4.92862 29.0431 4.21571L29.0261 4.23831Z" fill="#F99B9E"/>
</g>
<defs>
<clipPath id="clip0_256_2179">
<rect width="47.6991" height="51.6985" fill="white" transform="matrix(-0.139885 -0.990168 0.990128 -0.140164 6.67285 54.4763)"/>
</clipPath>
</defs>
</svg>
