<svg width="375" height="972" viewBox="0 0 375 972" fill="none" xmlns="http://www.w3.org/2000/svg">
<path fill-rule="evenodd" clip-rule="evenodd" d="M-77.46 0.000643959C-77.6049 0.00391819 -77.7447 0.400488 -77.8896 0.403964C-78.0347 0.407239 -78.1802 0.400689 -78.3252 0.403964C-78.4701 0.406635 -78.6237 0.0598717 -78.7686 0.063144C-78.9135 0.0667321 -79.0532 0.432573 -79.1953 0.439121C-79.3374 0.445321 -79.4908 0.27242 -79.6357 0.278964C-79.7806 0.285514 -79.9255 0.318268 -80.0703 0.324863C-80.2153 0.33141 -80.3521 0.652026 -80.4971 0.658847C-80.642 0.665393 -80.7984 0.342189 -80.9434 0.3483C-81.0884 0.35485 -81.2368 0.367141 -81.3818 0.373691C-81.5267 0.380422 -81.6686 0.531009 -81.8135 0.537753C-81.9585 0.544303 -82.1128 0.40718 -82.2578 0.41373C-82.4026 0.420732 -82.5388 0.626378 -82.6836 0.636386C-82.8286 0.646211 -82.9829 0.508397 -83.1279 0.518222C-83.2728 0.528139 -83.4177 0.583602 -83.5625 0.593417C-83.7075 0.603243 -83.8472 0.728123 -83.9922 0.737949C-84.1371 0.747264 -84.2994 0.475203 -84.4443 0.485019C-84.5892 0.495458 -84.7115 0.907818 -84.8564 0.917636C-85.0013 0.927454 -85.1461 0.94102 -85.291 0.950839C-85.4359 0.960655 -85.5924 0.774073 -85.7373 0.786777C-85.8822 0.799865 -86.0446 0.558325 -86.1895 0.570956C-86.3345 0.584054 -86.4742 0.675014 -86.6191 0.688144C-86.7642 0.701244 -86.9009 0.855708 -87.0459 0.868808C-87.1909 0.881733 -87.3502 0.711183 -87.4951 0.724277C-87.6401 0.737423 -87.777 0.855711 -87.9219 0.868808C-88.0668 0.882184 -88.2007 1.0585 -88.3428 1.07486C-88.4849 1.09085 -88.6471 0.917878 -88.792 0.934238C-88.9368 0.950922 -89.0651 1.15323 -89.21 1.16959C-89.3549 1.18539 -89.5367 0.747081 -89.6816 0.763339C-89.8267 0.779715 -89.9349 1.23525 -90.0771 1.25162C-90.2192 1.26819 -90.35 1.48135 -90.4922 1.49771C-90.6343 1.51363 -90.8393 0.904196 -90.9814 0.920566C-91.1235 0.937614 -91.2173 1.53701 -91.3623 1.55338C-91.5072 1.56969 -91.6549 1.54 -91.7998 1.55631C-91.9447 1.57267 -92.1039 1.44898 -92.2461 1.46842C-92.3882 1.48807 -92.5737 1.11708 -92.7188 1.13346C-92.8636 1.1501 -92.9859 1.40288 -93.1309 1.42252C-93.2758 1.44208 -93.4292 1.37955 -93.5713 1.39908C-93.7134 1.41873 -93.8276 1.77299 -93.9727 1.79264C-94.1176 1.81211 -94.2769 1.6812 -94.4219 1.70084C-94.5668 1.72062 -94.6978 1.87749 -94.8398 1.89713C-94.982 1.91687 -95.1158 2.04741 -95.2607 2.06705C-95.4057 2.08631 -95.5903 1.72045 -95.7324 1.7399C-95.8746 1.75955 -96.0112 1.86381 -96.1562 1.88346C-96.3012 1.9031 -96.4234 2.12926 -96.5684 2.14908C-96.7133 2.16872 -96.9067 1.73355 -97.0488 1.7526C-97.191 1.77225 -97.3081 2.064 -97.4531 2.08365C-97.5979 2.10324 -97.7457 2.08326 -97.8877 2.10611C-98.0298 2.12904 -98.1753 2.14213 -98.3203 2.16178C-98.429 2.17645 -98.5424 2.14061 -98.6523 2.12955H-98.8701C-98.9805 2.11846 -99.0948 2.08178 -99.2012 2.09635C-99.3434 2.116 -99.4379 2.61771 -99.5801 2.63736C-99.7222 2.65618 -99.9244 2.14605 -100.069 2.16568C-100.214 2.18635 -100.308 2.6568 -100.453 2.67643C-100.598 2.69534 -100.78 2.34234 -100.925 2.36197C-101.07 2.38165 -101.201 2.52299 -101.343 2.54264C-101.485 2.56217 -101.65 2.39116 -101.795 2.4108C-101.94 2.43047 -102.048 2.78436 -102.19 2.80728C-102.332 2.83041 -102.463 2.9937 -102.605 3.01334C-102.748 3.03306 -102.884 3.14799 -103.026 3.16764C-103.168 3.1871 -103.328 3.07901 -103.47 3.09537C-103.612 3.11163 -103.786 2.87001 -103.928 2.88639C-104.07 2.90262 -104.223 2.8365 -104.368 2.85611C-104.513 2.87575 -104.627 3.18397 -104.771 3.20084C-104.916 3.21721 -105.056 3.2655 -105.201 3.28189C-105.346 3.29827 -105.477 3.44288 -105.622 3.46256C-105.767 3.4822 -105.929 3.30564 -106.071 3.32193C-106.213 3.33831 -106.368 3.27626 -106.51 3.29264C-106.652 3.3086 -106.811 3.16788 -106.956 3.18424C-107.101 3.20103 -107.223 3.4628 -107.365 3.47916C-107.507 3.49537 -107.684 3.16787 -107.826 3.18424C-107.968 3.2008 -108.105 3.32803 -108.247 3.34439C-108.389 3.36082 -108.531 3.41979 -108.676 3.43619C-108.821 3.45255 -108.977 3.30197 -109.122 3.31803C-109.267 3.3344 -109.393 3.55751 -109.538 3.57389C-109.683 3.59094 -109.802 3.91788 -109.947 3.93424C-110.092 3.9504 -110.249 3.79322 -110.394 3.80631C-110.539 3.81937 -110.689 3.73472 -110.834 3.74771C-110.979 3.7608 -111.104 4.0418 -111.249 4.05533C-111.394 4.06843 -111.537 4.10082 -111.682 4.11392C-111.827 4.127 -111.977 4.04268 -112.122 4.0524C-112.267 4.06222 -112.423 3.88565 -112.568 3.89518C-112.713 3.905 -112.847 4.07467 -112.992 4.08463C-113.137 4.09445 -113.296 3.80659 -113.441 3.81607C-113.586 3.82589 -113.712 4.15631 -113.856 4.16666C-114.001 4.17648 -114.135 4.3992 -114.28 4.40592C-114.425 4.41247 -114.577 4.27793 -114.722 4.28775C-114.867 4.29769 -115.008 4.37263 -115.153 4.38248C-115.298 4.3923 -115.455 4.14381 -115.6 4.15006C-115.745 4.1566 -115.901 3.88234 -116.046 3.88834C-116.191 3.89488 -116.322 4.23774 -116.467 4.24478C-116.612 4.25133 -116.754 4.30366 -116.899 4.31021C-117.044 4.31678 -117.187 4.39937 -117.332 4.40592C-117.477 4.41276 -117.616 4.54973 -117.764 4.55631C-117.911 4.56285 -118.059 4.32457 -118.204 4.33072C-118.349 4.33727 -118.5 4.07124 -118.646 4.07779C-118.79 4.08463 -118.929 4.31731 -119.074 4.32096C-119.219 4.32423 -119.368 4.09502 -119.513 4.0983C-119.657 4.10183 -119.797 4.32311 -119.941 4.32682C-120.086 4.33009 -120.226 4.65769 -120.371 4.65787C-120.516 4.65787 -120.667 4.04677 -120.812 4.04557C-120.957 4.04557 -121.099 4.07779 -121.247 4.07779C-121.395 4.07788 -121.535 4.41241 -121.68 4.41568C-121.825 4.41897 -121.969 4.42838 -122.114 4.42838C-122.259 4.42838 -122.405 4.44142 -122.55 4.43814C-122.695 4.43397 -122.837 4.03591 -122.981 4.0358C-123.126 4.0358 -123.274 4.57478 -123.419 4.57584C-123.564 4.57584 -123.709 4.65138 -123.854 4.6481C-124 4.64473 -124.142 4.26466 -124.287 4.26139C-124.432 4.25831 -124.577 4.35645 -124.722 4.35318C-124.867 4.34991 -125.017 4.62748 -125.162 4.62467C-125.307 4.62139 -125.453 4.57228 -125.598 4.569C-125.743 4.56538 -125.877 3.98341 -126.021 3.98014C-126.166 3.97706 -126.314 4.11745 -126.459 4.111C-126.604 4.10445 -126.755 4.29397 -126.899 4.28775C-127.044 4.2812 -127.19 4.30407 -127.335 4.29752C-127.48 4.29093 -127.623 4.21911 -127.768 4.21256C-127.912 4.20551 -128.049 3.96742 -128.193 3.9606C-128.338 3.95406 -128.492 4.22151 -128.637 4.21549C-128.782 4.20894 -128.93 4.27477 -129.075 4.26822C-129.22 4.26163 -129.362 4.16979 -129.507 4.15982C-129.652 4.15 -129.792 4.0515 -129.939 4.04166C-130.087 4.03183 -130.23 4.01598 -130.375 4.00943C-130.52 4.00236 -130.653 3.75468 -130.798 3.74771C-130.943 3.74116 -131.091 3.8259 -131.236 3.81607C-131.381 3.80629 -131.526 3.82293 -131.671 3.81314C-131.816 3.80332 -131.978 4.14006 -132.123 4.13053C-132.268 4.1207 -132.385 3.63581 -132.53 3.62271C-132.675 3.61077 -132.851 4.15986 -132.996 4.14713C-133.141 4.13404 -133.292 4.21536 -133.437 4.20572C-133.582 4.1959 -133.702 3.77316 -133.844 3.76334C-133.986 3.75384 -134.154 4.07526 -134.299 4.06217C-134.444 4.04883 -134.575 3.83927 -134.72 3.82291C-134.865 3.80689 -135.024 4.0131 -135.169 3.99674C-135.314 3.97978 -135.427 3.53857 -135.572 3.52506C-135.717 3.51197 -135.874 3.66526 -136.019 3.64908C-136.164 3.63271 -136.315 3.70515 -136.46 3.69205C-136.605 3.67938 -136.767 3.89493 -136.912 3.87857C-137.057 3.86212 -137.196 3.78951 -137.341 3.7731C-137.486 3.75673 -137.626 3.69866 -137.771 3.68228C-137.915 3.66576 -138.021 3.20061 -138.166 3.18424C-138.311 3.16846 -138.487 3.5177 -138.632 3.50162C-138.777 3.48525 -138.919 3.4555 -139.064 3.43912C-139.209 3.4225 -139.338 3.24259 -139.482 3.22623C-139.627 3.20977 -139.764 3.12541 -139.909 3.10904C-140.054 3.09279 -140.202 3.12477 -140.347 3.10514C-140.492 3.08563 -140.654 3.25236 -140.799 3.236C-140.944 3.21952 -141.075 3.06618 -141.217 3.04654C-141.359 3.02686 -141.499 2.94475 -141.644 2.92838C-141.788 2.91192 -141.925 2.83384 -142.069 2.81412C-142.214 2.79447 -142.403 3.19705 -142.545 3.1774C-142.687 3.15728 -142.798 2.79808 -142.942 2.77799C-143.087 2.75834 -143.205 2.49979 -143.35 2.48014C-143.495 2.46099 -143.671 2.75173 -143.815 2.72916C-143.96 2.70624 -144.12 2.82002 -144.265 2.80045C-144.41 2.7808 -144.561 2.81068 -144.703 2.78775C-144.845 2.76478 -144.987 2.69255 -145.129 2.66959C-145.271 2.64666 -145.363 2.14955 -145.508 2.12662C-145.653 2.10416 -145.843 2.49621 -145.988 2.4733C-146.133 2.45032 -146.27 2.37219 -146.415 2.34928C-146.56 2.32603 -146.682 2.12316 -146.827 2.10025C-146.972 2.07748 -147.128 2.17234 -147.273 2.14615C-147.418 2.11985 -147.535 1.88121 -147.68 1.85807C-147.825 1.83514 -148.033 2.32923 -148.175 2.30631C-148.317 2.28297 -148.399 1.75673 -148.544 1.73307C-148.689 1.71015 -148.857 1.87695 -149.002 1.85416C-149.147 1.83124 -149.275 1.68706 -149.42 1.6608C-149.565 1.63461 -149.855 1.81179 -150 1.7858V971.911H450.14V114.911H450.134L450.037 104.374C449.892 104.357 449.662 104.499 449.588 104.738C449.443 104.712 449.528 104.564 449.386 104.538C449.244 104.512 449.078 104.646 448.934 104.62C448.789 104.594 448.626 104.718 448.481 104.692C448.337 104.665 448.229 104.374 448.087 104.347C447.945 104.321 447.737 104.747 447.595 104.721C447.453 104.695 447.304 104.675 447.162 104.649C447.02 104.623 446.875 104.586 446.733 104.56C446.591 104.534 446.46 104.397 446.318 104.371C446.176 104.345 446.096 103.856 445.954 103.827C445.812 103.797 445.61 104.164 445.465 104.134C445.32 104.105 445.22 103.774 445.078 103.745C444.936 103.715 444.805 103.592 444.66 103.562C444.515 103.533 444.282 104.102 444.14 104.076C443.998 104.049 443.944 103.411 443.802 103.382C443.66 103.352 443.505 103.375 443.363 103.345C443.221 103.317 442.997 103.791 442.854 103.761C442.712 103.732 442.622 103.358 442.477 103.329C442.332 103.299 442.189 103.267 442.047 103.238C441.905 103.208 441.777 103.074 441.632 103.045C441.487 103.015 441.359 102.89 441.217 102.861C441.075 102.832 440.929 102.799 440.787 102.769C440.645 102.74 440.477 102.851 440.335 102.818C440.193 102.785 440.045 102.775 439.903 102.746C439.761 102.716 439.553 103.051 439.411 103.018C439.269 102.985 439.184 102.609 439.042 102.576C438.9 102.543 438.76 102.488 438.618 102.455C438.476 102.422 438.299 102.576 438.157 102.544C438.015 102.511 437.913 102.248 437.768 102.215C437.623 102.183 437.435 102.405 437.293 102.373C437.151 102.34 437.077 101.911 436.935 101.879C436.792 101.846 436.579 102.196 436.437 102.164C436.294 102.131 436.116 102.291 435.974 102.255C435.832 102.219 435.8 101.587 435.658 101.55C435.516 101.514 435.365 101.525 435.223 101.489C435.081 101.453 434.834 101.966 434.691 101.93C434.549 101.894 434.461 101.577 434.318 101.538C434.176 101.498 434.037 101.443 433.895 101.407C433.752 101.371 433.613 101.312 433.474 101.276C433.334 101.24 433.167 101.308 433.027 101.269C432.888 101.23 432.738 101.217 432.599 101.177C432.459 101.138 432.317 101.089 432.175 101.049C432.033 101.01 431.944 100.709 431.805 100.67C431.666 100.63 431.518 100.617 431.376 100.578C431.234 100.538 431.08 100.565 430.938 100.526C430.795 100.487 430.633 100.542 430.494 100.503C430.355 100.463 430.224 100.359 430.085 100.316C429.946 100.273 429.857 99.9885 429.715 99.946C429.573 99.9038 429.32 100.371 429.181 100.329C429.041 100.286 428.99 99.8342 428.851 99.7917C428.711 99.7494 428.466 100.158 428.327 100.116C428.188 100.073 428.048 100.012 427.909 99.9694C427.77 99.9266 427.736 99.4153 427.597 99.3727C427.457 99.3302 427.196 99.7948 427.057 99.7497C426.917 99.7038 426.766 99.6969 426.627 99.651C426.488 99.6051 426.385 99.3991 426.246 99.3532C426.107 99.3073 425.927 99.4124 425.788 99.3698C425.649 99.3272 425.541 99.1432 425.401 99.0973C425.262 99.0517 425.083 99.1597 424.943 99.1139C424.804 99.0672 424.81 98.4436 424.671 98.3971C424.532 98.3513 424.338 98.5185 424.198 98.4694C424.059 98.4207 423.852 98.6389 423.713 98.5905C423.574 98.5414 423.559 98.0116 423.42 97.9616C423.281 97.9125 423.115 97.9613 422.979 97.9088C422.842 97.8572 422.593 98.2128 422.456 98.1647C422.32 98.1156 422.2 97.9815 422.061 97.9323C421.921 97.8832 421.81 97.7256 421.674 97.6764C421.537 97.6273 421.355 97.722 421.219 97.6696C421.082 97.6171 421.068 97.1108 420.932 97.0612C420.795 97.0121 420.494 97.5283 420.357 97.4762C420.221 97.4238 420.155 97.1068 420.019 97.0544C419.882 97.0018 419.811 96.7132 419.672 96.6608C419.533 96.6086 419.297 96.8967 419.16 96.8444C419.024 96.792 418.856 96.8375 418.717 96.7819C418.577 96.7262 418.509 96.4421 418.372 96.3864C418.236 96.3309 418.031 96.5003 417.892 96.4479C417.753 96.395 417.718 95.9998 417.582 95.944C417.446 95.8883 417.329 95.7633 417.192 95.7077C417.056 95.6522 416.811 95.9372 416.675 95.8815C416.538 95.8259 416.396 95.7838 416.257 95.7282C416.118 95.6726 416.018 95.4988 415.882 95.443C415.745 95.3874 415.657 95.171 415.521 95.112C415.384 95.0531 415.145 95.3082 415.012 95.2497C414.878 95.1907 414.815 94.8926 414.679 94.8336C414.542 94.7747 414.386 94.7715 414.252 94.7126C414.118 94.6539 413.899 94.8301 413.766 94.7711C413.632 94.7115 413.615 94.2871 413.479 94.2282C413.342 94.1692 413.271 93.9164 413.135 93.8542C412.998 93.792 412.825 93.8476 412.688 93.7887C412.552 93.7298 412.376 93.7889 412.239 93.7301C412.103 93.6712 412.009 93.4906 411.872 93.4284C411.736 93.3662 411.611 93.2816 411.475 93.2194C411.338 93.1572 411.201 93.101 411.067 93.0387C410.934 92.9766 410.758 93.0257 410.624 92.9635C410.49 92.9013 410.337 92.8881 410.2 92.8258C410.064 92.7638 409.865 92.8817 409.731 92.82C409.598 92.7578 409.592 92.3279 409.458 92.2624C409.324 92.1971 409.151 92.2398 409.018 92.1745C408.884 92.109 408.642 92.3343 408.509 92.2692C408.375 92.2037 408.369 91.7878 408.235 91.7223C408.102 91.6568 407.971 91.5847 407.837 91.5192C407.703 91.4544 407.454 91.702 407.32 91.6374C407.187 91.5719 407.115 91.3397 406.981 91.2741C406.848 91.2086 406.643 91.3293 406.51 91.2643C406.376 91.1988 406.305 90.9659 406.171 90.8971C406.037 90.8285 405.83 90.9625 405.696 90.8971C405.563 90.8316 405.472 90.6511 405.338 90.5856C405.204 90.52 405.165 90.2093 405.031 90.1403C404.898 90.0715 404.633 90.3497 404.502 90.2809C404.371 90.2118 404.377 89.78 404.243 89.7145C404.11 89.6493 403.846 89.927 403.712 89.859C403.578 89.7903 403.49 89.6062 403.356 89.5407C403.223 89.4753 403.072 89.453 402.938 89.3844C402.805 89.3157 402.69 89.2042 402.557 89.1354C402.423 89.0665 402.372 88.7911 402.238 88.7223C402.105 88.6535 402 88.5196 401.866 88.4508C401.733 88.3821 401.502 88.5714 401.368 88.5026C401.235 88.4343 401.033 88.5455 400.902 88.4772C400.772 88.4084 400.754 88.0349 400.623 87.9694C400.492 87.9039 400.382 87.7725 400.251 87.7038C400.12 87.6351 399.854 87.9161 399.72 87.8483C399.586 87.7795 399.506 87.5831 399.372 87.5143C399.238 87.4456 399.091 87.419 398.96 87.3503C398.829 87.2815 398.67 87.2784 398.539 87.2096C398.408 87.1409 398.238 87.1668 398.107 87.0983C397.977 87.0295 397.95 86.6784 397.819 86.6129C397.689 86.5473 397.595 86.377 397.462 86.3083C397.328 86.2395 397.055 86.5447 396.921 86.4792C396.787 86.4134 396.739 86.1286 396.605 86.0631C396.472 85.9976 396.378 85.8301 396.244 85.7614C396.111 85.6922 396.071 85.3815 395.94 85.3161C395.81 85.2507 395.537 85.5514 395.403 85.487C395.27 85.4215 395.223 85.1228 395.09 85.0573C394.956 84.9918 394.845 84.8679 394.712 84.8024C394.578 84.7369 394.456 84.6413 394.322 84.5758C394.189 84.5106 393.984 84.6445 393.851 84.5758C393.717 84.5071 393.467 84.7659 393.333 84.7008C393.199 84.6353 393.262 84.0388 393.128 83.9733C392.994 83.9084 392.665 84.3887 392.531 84.3239C392.398 84.2584 392.272 84.1761 392.139 84.1139C392.005 84.0517 391.923 83.8422 391.789 83.7799C391.656 83.7178 391.51 83.6887 391.374 83.6266C391.238 83.5644 391.072 83.6 390.936 83.5378C390.799 83.4752 390.757 83.1576 390.623 83.0954C390.489 83.0334 390.257 83.2588 390.12 83.1969C389.984 83.1348 389.997 82.6543 389.861 82.5915C389.725 82.5292 389.585 82.4867 389.451 82.4245C389.318 82.3623 389.167 82.349 389.03 82.2868C388.894 82.2246 388.766 82.1526 388.63 82.0905C388.493 82.0283 388.317 82.0966 388.181 82.0378C388.044 81.9788 387.879 82.0117 387.745 81.9528C387.612 81.8935 387.572 81.5401 387.436 81.4811C387.299 81.4222 387.126 81.4873 386.989 81.4284C386.853 81.3695 386.773 81.138 386.64 81.0788C386.506 81.0198 386.355 81.0029 386.219 80.944C386.082 80.8851 385.985 80.7048 385.849 80.6491C385.712 80.594 385.408 81.0748 385.271 81.0192C385.135 80.9633 385.115 80.5377 384.979 80.4821C384.842 80.4264 384.714 80.3414 384.578 80.2858C384.442 80.2301 384.344 80.0397 384.208 79.984C384.072 79.9284 383.923 79.9124 383.784 79.86C383.645 79.8082 383.361 80.259 383.222 80.2038C383.082 80.1481 383.065 79.6997 382.929 79.6471C382.792 79.5947 382.63 79.6243 382.49 79.5719C382.351 79.5192 382.274 79.261 382.138 79.2086C382.001 79.1565 381.811 79.2834 381.672 79.2311C381.533 79.1787 381.325 79.3851 381.186 79.3327C381.046 79.2803 380.932 79.1556 380.793 79.1032C380.654 79.0505 380.591 78.7336 380.452 78.6842C380.33 78.6412 380.175 78.7267 380.045 78.7155L379.938 78.692C379.808 78.676 379.658 78.7399 379.536 78.6969C379.397 78.6477 379.289 78.4941 379.149 78.445C379.01 78.3959 378.88 78.3173 378.743 78.2682C378.607 78.2191 378.399 78.4285 378.26 78.3795C378.12 78.3304 378.126 77.7275 377.986 77.6784C377.847 77.6294 377.694 77.6362 377.555 77.5905C377.415 77.5446 377.196 77.8102 377.057 77.7643C376.917 77.7184 376.869 77.3053 376.729 77.2594C376.59 77.2138 376.428 77.26 376.286 77.2174C376.144 77.1749 375.923 77.4688 375.783 77.4235C375.644 77.3776 375.493 77.3775 375.354 77.3317C375.214 77.2859 375.086 77.1911 374.947 77.1452C374.808 77.0993 374.691 76.9645 374.549 76.9186C374.407 76.8727 374.295 76.7229 374.153 76.6803C374.011 76.638 373.806 76.886 373.664 76.8434C373.522 76.7998 373.485 76.3195 373.343 76.277C373.201 76.2351 372.997 76.4896 372.854 76.4508C372.712 76.4115 372.649 76.0217 372.51 75.9792C372.371 75.9365 372.24 75.8446 372.098 75.8053C371.955 75.7665 371.694 76.284 371.552 76.2448C371.41 76.2055 371.327 75.9003 371.185 75.861C371.043 75.8212 370.957 75.5245 370.815 75.485C370.673 75.4457 370.537 75.3925 370.395 75.3532C370.252 75.3139 370.082 75.4159 369.939 75.3766C369.797 75.3375 369.576 75.694 369.434 75.6549C369.292 75.6157 369.226 75.2169 369.084 75.1803C368.942 75.1443 368.765 75.2909 368.623 75.2516C368.481 75.2123 368.335 75.2066 368.193 75.1706C368.051 75.1345 367.926 75.0191 367.784 74.9831C367.642 74.9472 367.465 75.1011 367.323 75.0651C367.181 75.0292 367.034 75.0327 366.892 74.9967C366.75 74.9607 366.65 74.7117 366.508 74.6754C366.366 74.6394 366.252 74.4693 366.109 74.4333C365.967 74.3972 365.865 74.1519 365.723 74.1159C365.58 74.0798 365.359 74.4884 365.214 74.4557C365.069 74.423 364.92 74.4367 364.778 74.404C364.636 74.3711 364.511 74.2463 364.369 74.2135C364.227 74.1809 364.065 74.2658 363.92 74.2331C363.775 74.2001 363.715 73.7136 363.573 73.6803C363.431 73.6476 363.297 73.5588 363.155 73.526C363.013 73.4933 362.854 73.5586 362.709 73.526C362.564 73.4933 362.444 73.343 362.302 73.3102C362.16 73.2779 361.944 73.6765 361.802 73.6442C361.66 73.6115 361.585 73.1595 361.443 73.1266C361.301 73.0939 361.085 73.5061 360.942 73.4733C360.8 73.441 360.633 73.5584 360.491 73.526C360.349 73.4933 360.269 73.0771 360.127 73.0475C359.985 73.018 359.842 72.9924 359.697 72.9596C359.552 72.9271 359.353 73.2742 359.211 73.2448C359.087 73.2188 358.99 73.005 358.873 72.9323L358.77 72.8893C358.652 72.8202 358.553 72.6225 358.427 72.5963C358.282 72.5669 358.122 72.6551 357.979 72.6256C357.837 72.5968 357.647 72.8709 357.505 72.8415C357.363 72.812 357.221 72.7791 357.076 72.7497C356.931 72.7202 356.851 72.2657 356.709 72.236C356.567 72.2065 356.396 72.3472 356.254 72.321C356.112 72.2947 355.984 72.1441 355.842 72.1178C355.7 72.0916 355.548 72.1147 355.403 72.0885C355.259 72.0627 355.094 72.2023 354.949 72.1764C354.804 72.1502 354.693 71.9018 354.548 71.8756C354.403 71.8494 354.281 71.6656 354.136 71.6393C353.991 71.6131 353.842 71.6235 353.7 71.5973C353.558 71.5719 353.336 72.101 353.194 72.0749C353.052 72.0484 352.967 71.5743 352.822 71.5475C352.677 71.5213 352.518 71.6135 352.373 71.5876C352.228 71.5614 352.077 71.5874 351.929 71.5612C351.781 71.5351 351.627 71.6134 351.485 71.5905C351.343 71.5675 351.21 71.4337 351.067 71.4108C350.925 71.3879 350.741 71.6688 350.596 71.6461C350.451 71.6232 350.317 71.5249 350.172 71.4987C350.027 71.4725 349.913 71.1945 349.771 71.1715C349.629 71.1482 349.515 70.8539 349.37 70.8307C349.225 70.8078 349.017 71.3087 348.872 71.2858C348.727 71.2625 348.619 70.9225 348.478 70.8991C348.335 70.8762 348.162 71.0859 348.017 71.0631C347.872 71.0402 347.76 70.7189 347.615 70.696C347.47 70.6734 347.3 70.8923 347.155 70.8698C347.01 70.8469 346.848 70.978 346.703 70.9586C346.558 70.939 346.435 70.7029 346.293 70.6833C346.151 70.664 345.978 70.8793 345.833 70.86C345.688 70.8404 345.591 70.3725 345.446 70.3522C345.301 70.3326 345.159 70.2804 345.014 70.2575C344.869 70.2346 344.721 70.2546 344.576 70.235C344.431 70.2154 344.243 70.6013 344.101 70.5817C343.959 70.562 343.814 70.5291 343.669 70.5094C343.524 70.4898 343.378 70.4838 343.233 70.4674C343.089 70.4508 342.963 70.2341 342.818 70.2145C342.673 70.1951 342.511 70.3621 342.366 70.3424C342.221 70.3228 342.076 70.3168 341.932 70.3004C341.787 70.2841 341.656 70.1138 341.511 70.0973C341.366 70.0809 341.223 70.0414 341.078 70.0251C340.933 70.0085 340.802 69.8158 340.657 69.7995C340.512 69.7832 340.362 69.8158 340.217 69.7995C340.072 69.7831 339.941 69.5893 339.796 69.5729C339.651 69.5566 339.483 69.8223 339.338 69.8092C339.193 69.7964 339.031 69.9828 338.886 69.9665C338.741 69.9498 338.613 69.6973 338.468 69.6842C338.323 69.6709 338.186 69.5108 338.044 69.4977C337.902 69.4848 337.745 69.5694 337.601 69.5563C337.456 69.5437 337.283 69.9029 337.141 69.8874C336.999 69.871 336.867 69.6197 336.723 69.6061C336.578 69.593 336.417 69.7725 336.272 69.7594C336.128 69.7461 335.991 69.6154 335.847 69.6022C335.702 69.5891 335.582 69.1374 335.437 69.1276C335.292 69.1184 335.127 69.4252 334.982 69.4128C334.837 69.3997 334.674 69.6485 334.532 69.6354C334.39 69.6214 334.265 69.1804 334.12 69.1706C333.975 69.1613 333.805 69.5888 333.66 69.5797C333.515 69.5699 333.395 69.0622 333.25 69.0524C333.105 69.043 332.943 69.3597 332.798 69.3532C332.653 69.3462 332.52 69.056 332.375 69.0456C332.23 69.0357 332.082 69.0814 331.937 69.0749C331.81 69.0692 331.676 69.1662 331.55 69.1862L331.442 69.194C331.315 69.2175 331.18 69.3294 331.053 69.3239C330.908 69.3173 330.768 69.144 330.623 69.1374C330.478 69.1308 330.338 68.9017 330.193 68.8952C330.048 68.8887 329.901 68.9544 329.756 68.9479C329.611 68.9414 329.465 68.849 329.32 68.8424C329.175 68.8362 329.025 69.0033 328.88 68.9967C328.735 68.9902 328.592 68.8262 328.447 68.8229C328.302 68.8195 328.158 68.7705 328.013 68.7672C327.868 68.764 327.717 68.9697 327.572 68.9635C327.427 68.957 327.276 69.2422 327.131 69.2389C326.986 69.2357 326.841 69.2386 326.696 69.2321C326.551 69.2255 326.409 68.8922 326.264 68.8922C326.119 68.8923 325.971 68.9111 325.826 68.9079C325.681 68.9046 325.536 68.8258 325.391 68.8258C325.246 68.8258 325.098 68.7871 324.956 68.7838C324.814 68.7806 324.663 68.7936 324.518 68.7936C324.373 68.7944 324.228 69.2125 324.083 69.2126C323.938 69.2126 323.792 69.2819 323.647 69.2819C323.503 69.281 323.355 68.8297 323.21 68.8297C323.065 68.8298 322.922 69.2516 322.777 69.2516C322.632 69.2511 322.485 69.0325 322.34 69.0358C322.195 69.0391 322.047 68.9965 321.905 68.9997C321.763 69.0029 321.615 69.1243 321.473 69.1276C321.33 69.1309 321.185 69.2815 321.04 69.2848C320.895 69.2873 320.739 68.8685 320.594 68.8717C320.449 68.8754 320.31 69.1766 320.165 69.1803C320.02 69.1836 319.875 69.2226 319.729 69.2292C319.585 69.2354 319.422 68.7578 319.277 68.7643C319.132 68.7713 319.004 69.3046 318.856 69.3112C318.709 69.3177 318.567 69.3271 318.422 69.3336C318.277 69.3402 318.128 69.3271 317.983 69.3336C317.838 69.3397 317.676 68.9873 317.531 68.9938C317.387 69.0008 317.253 69.2777 317.108 69.2848C316.963 69.2914 316.815 69.2851 316.67 69.2917C316.525 69.2982 316.374 69.2292 316.229 69.2389C316.085 69.2487 315.956 69.5725 315.812 69.5827C315.667 69.5925 315.515 69.4973 315.37 69.5104C315.225 69.5233 315.075 69.4293 314.93 69.4391C314.785 69.4491 314.651 69.6418 314.506 69.6549C314.361 69.6679 314.21 69.6057 314.065 69.6188C313.92 69.6319 313.761 69.4391 313.616 69.4489C313.471 69.4587 313.34 69.675 313.195 69.6881C313.05 69.7011 312.874 69.2815 312.729 69.2946C312.584 69.308 312.45 69.5009 312.309 69.5143C312.166 69.5274 312.009 69.4192 311.864 69.4323C311.719 69.4453 311.572 69.4159 311.427 69.4323C311.282 69.4487 311.165 69.8319 311.022 69.8483C310.88 69.8644 310.721 69.747 310.579 69.7633C310.437 69.7794 310.269 69.5497 310.124 69.5661C309.979 69.5825 309.837 69.6385 309.695 69.6549C309.553 69.6713 309.416 69.8055 309.271 69.8219C309.126 69.8383 309.006 70.1392 308.864 70.1588C308.722 70.1777 308.537 69.7662 308.393 69.7858C308.248 69.8056 308.139 70.202 307.994 70.2184C307.849 70.2338 307.661 69.7987 307.517 69.8151C307.372 69.832 307.267 70.2663 307.122 70.2868C306.977 70.3064 306.794 69.9263 306.649 69.946C306.504 69.9657 306.368 70.0806 306.226 70.1003C306.084 70.12 305.942 70.1948 305.8 70.2145C305.658 70.2342 305.512 70.274 305.367 70.2936C305.222 70.3133 305.08 70.3619 304.938 70.3815C304.796 70.4016 304.685 70.7522 304.54 70.7721C304.395 70.7918 304.25 70.7847 304.104 70.8044C303.96 70.8239 303.803 70.7163 303.658 70.736C303.513 70.7554 303.334 70.4449 303.189 70.4674C303.044 70.4904 302.942 70.886 302.797 70.9059C302.652 70.9256 302.506 70.9292 302.361 70.9489C302.216 70.9677 302.029 70.5617 301.884 70.5846C301.739 70.6077 301.622 70.8637 301.478 70.8835C301.333 70.9031 301.182 70.8435 301.037 70.8629C300.892 70.8826 300.789 71.2726 300.645 71.2926C300.5 71.3123 300.345 71.2242 300.2 71.2438C300.055 71.2633 299.908 71.2398 299.766 71.2594C299.659 71.2742 299.544 71.2353 299.434 71.2233H299.271C299.142 71.2054 299 71.0823 298.873 71.0993C298.728 71.1189 298.608 71.3579 298.463 71.3776C298.318 71.3972 298.176 71.4302 298.034 71.4499C297.892 71.4695 297.741 71.4429 297.596 71.4626C297.451 71.4819 297.286 71.2994 297.144 71.319C297.002 71.3387 296.863 71.4165 296.721 71.4362C296.579 71.4558 296.421 71.3745 296.279 71.3942C296.137 71.4144 296.038 71.8921 295.896 71.9118C295.754 71.9311 295.572 71.594 295.43 71.6129C295.288 71.6326 295.179 72.033 295.034 72.0495C294.889 72.0658 294.736 71.987 294.594 72.0065C294.452 72.0261 294.306 72.0585 294.164 72.0749C294.022 72.0912 293.874 72.0884 293.729 72.1081C293.584 72.1277 293.442 72.1444 293.297 72.1608C293.152 72.1772 292.987 71.9639 292.845 71.9801C292.703 71.9965 292.586 72.3472 292.443 72.3669C292.301 72.3858 292.119 71.967 291.975 71.9831C291.83 71.9994 291.73 72.5145 291.585 72.5309C291.44 72.5471 291.255 72.0694 291.113 72.0817C290.971 72.0948 290.837 72.2682 290.695 72.2848C290.553 72.3012 290.414 72.3928 290.269 72.4059C290.124 72.419 289.967 72.2494 289.822 72.2624C289.677 72.2755 289.566 72.717 289.421 72.7301C289.276 72.7433 289.137 72.8087 288.992 72.8219C288.847 72.835 288.693 72.7043 288.548 72.7174C288.403 72.7301 288.241 72.4612 288.096 72.4743C287.951 72.4874 287.809 72.5006 287.664 72.5104C287.519 72.5202 287.394 72.8214 287.249 72.8317C287.104 72.8415 286.939 72.5049 286.794 72.5143C286.649 72.5241 286.518 72.7563 286.373 72.7663C286.228 72.7761 286.094 72.9527 285.949 72.9626C285.804 72.9724 285.659 72.9628 285.514 72.9694C285.369 72.9749 285.201 72.4983 285.057 72.5075C284.912 72.5173 284.775 72.6552 284.63 72.6618C284.485 72.6683 284.363 73.1621 284.218 73.1725C284.073 73.1823 283.924 73.0869 283.779 73.0934C283.634 73.0999 283.49 73.0644 283.345 73.071C283.2 73.0775 283.046 72.8422 282.901 72.8483C282.756 72.8548 282.622 73.2018 282.478 73.2086C282.333 73.2152 282.176 72.783 282.031 72.7887C281.886 72.7953 281.752 73.1455 281.607 73.1491C281.462 73.1524 281.323 73.3333 281.178 73.3366C281.033 73.3398 280.885 73.2055 280.74 73.2086C280.595 73.2119 280.453 73.303 280.308 73.3063C280.163 73.3094 280.015 73.0448 279.867 73.0446C279.719 73.0446 279.58 73.179 279.435 73.1823C279.29 73.1851 279.142 72.7731 278.997 72.776C278.852 72.7793 278.709 72.9466 278.564 72.9499C278.42 72.9535 278.278 73.2538 278.133 73.2575C277.988 73.2608 277.842 72.7995 277.697 72.7995C277.552 72.7998 277.408 73.1554 277.263 73.1559C277.118 73.1559 276.972 73.1491 276.827 73.1491C276.682 73.1489 276.54 72.9106 276.396 72.9069C276.25 72.9036 276.105 73.0449 275.96 73.0417C275.815 73.0385 275.67 73.159 275.525 73.1559C275.38 73.1526 275.241 72.8678 275.093 72.8678C274.945 72.8679 274.8 73.0212 274.655 73.0182C274.51 73.0149 274.371 72.7862 274.226 72.7829C274.081 72.7796 273.93 73.0536 273.785 73.0475C273.64 73.041 273.492 73.182 273.347 73.1754C273.202 73.1689 273.057 73.1303 272.912 73.1237C272.767 73.1171 272.63 72.8516 272.485 72.8483C272.34 72.845 272.196 72.8217 272.051 72.8151C271.906 72.8085 271.757 72.9134 271.612 72.9069C271.467 72.9004 271.32 73.0051 271.175 72.9987C271.03 72.9921 270.884 72.9958 270.739 72.986C270.594 72.9763 270.444 73.097 270.299 73.0905C270.154 73.0839 270.029 72.6067 269.884 72.5963C269.739 72.5865 269.593 72.612 269.448 72.6022C269.303 72.5931 269.136 73.0797 268.991 73.071C268.846 73.0611 268.701 73.0612 268.556 73.0514C268.411 73.0416 268.271 72.946 268.126 72.9362C267.981 72.9263 267.842 72.8582 267.697 72.8483C267.552 72.8385 267.435 72.3601 267.29 72.3503C267.145 72.3413 266.966 72.9167 266.821 72.904C266.676 72.8909 266.557 72.4989 266.412 72.485C266.267 72.4719 266.136 72.2617 265.991 72.2516C265.846 72.2418 265.669 72.711 265.524 72.6979C265.38 72.6848 265.238 72.6417 265.093 72.6286C264.948 72.6155 264.817 72.4157 264.672 72.3991C264.527 72.3827 264.37 72.5499 264.225 72.5368C264.08 72.5238 263.932 72.5727 263.787 72.5563C263.642 72.5396 263.537 72.0297 263.392 72.0133C263.247 71.9971 263.096 72.0948 262.951 72.0817C262.806 72.0686 262.672 71.9379 262.527 71.9215C262.383 71.9052 262.241 71.8725 262.096 71.8561C261.951 71.8397 261.78 72.1506 261.635 72.1344C261.49 72.1181 261.359 71.9672 261.211 71.9508C261.063 71.9346 260.895 72.2162 260.75 72.1999C260.605 72.1832 260.477 71.9867 260.332 71.9704C260.187 71.9545 260.017 72.2255 259.872 72.2096C259.727 72.1933 259.61 71.8686 259.465 71.8522C259.32 71.8359 259.169 71.8783 259.024 71.862C258.879 71.8456 258.771 71.4724 258.626 71.4528C258.481 71.4337 258.305 71.7706 258.16 71.7545C258.015 71.7382 257.898 71.4656 257.753 71.446C257.608 71.4261 257.474 71.3084 257.332 71.2887C257.19 71.27 257.005 71.6199 256.86 71.6003C256.715 71.5805 256.593 71.3749 256.448 71.3551C256.303 71.3355 256.126 71.6163 255.981 71.5934C255.837 71.5704 255.698 71.5021 255.556 71.4792C255.414 71.4562 255.305 71.0926 255.16 71.0729C255.015 71.0533 254.813 71.5451 254.668 71.5221C254.523 71.4992 254.389 71.3976 254.244 71.3747C254.099 71.3511 254.014 70.8468 253.869 70.8239C253.724 70.801 253.577 70.8369 253.432 70.8141C253.287 70.7912 253.138 70.8077 252.993 70.7848C252.848 70.7619 252.706 70.7394 252.562 70.7165C252.417 70.6935 252.277 70.6411 252.132 70.6149C251.987 70.5887 251.782 71.0665 251.637 71.0436C251.492 71.0206 251.356 70.9318 251.211 70.9088C251.066 70.8859 250.935 70.7555 250.79 70.7292C250.645 70.7029 250.528 70.477 250.383 70.4508C250.238 70.4248 250.07 70.5655 249.925 70.5426C249.78 70.5193 249.661 70.2999 249.519 70.277C249.376 70.254 249.246 70.1098 249.104 70.0836C248.961 70.0575 248.805 70.1136 248.663 70.0876C248.521 70.0614 248.35 70.2211 248.208 70.195C248.066 70.1688 247.907 70.2376 247.765 70.2116C247.622 70.1854 247.465 70.2378 247.323 70.2116C247.181 70.1851 247.071 69.9111 246.929 69.8844C246.787 69.8582 246.592 70.1694 246.45 70.1432C246.308 70.117 246.163 70.0835 246.021 70.0573C245.879 70.0311 245.794 69.5702 245.651 69.5407C245.509 69.5113 245.35 69.5796 245.205 69.5534C245.06 69.5273 244.884 69.723 244.739 69.694C244.594 69.6646 244.495 69.3372 244.353 69.3073C244.21 69.2778 244.059 69.2918 243.914 69.2624C243.769 69.2329 243.65 69.0488 243.508 69.0192C243.366 68.9897 243.195 69.1307 243.05 69.1012C242.905 69.0718 242.786 68.8916 242.644 68.862C242.501 68.8325 242.331 68.9567 242.188 68.9274C242.046 68.8979 241.844 69.2155 241.702 69.1862C241.56 69.1567 241.48 68.7186 241.338 68.6891C241.196 68.6597 241.003 68.9246 240.86 68.8952C240.718 68.8657 240.624 68.5249 240.482 68.4919C240.34 68.4591 240.161 68.6297 240.019 68.6003C239.877 68.5707 239.763 68.3579 239.618 68.3249C239.473 68.2921 239.302 68.4267 239.16 68.3942C239.018 68.3614 238.913 68.0989 238.771 68.0661C238.628 68.0333 238.469 68.0892 238.327 68.0534C238.185 68.0173 238.037 68.0171 237.895 67.9811C237.752 67.9451 237.625 67.8176 237.482 67.7848C237.34 67.7521 237.172 67.8506 237.03 67.818C236.888 67.7853 236.774 67.5884 236.632 67.5524C236.49 67.5167 236.288 67.7951 236.146 67.7624C236.004 67.7293 235.921 67.3594 235.782 67.3229C235.643 67.2869 235.426 67.6281 235.284 67.5954C235.142 67.5626 234.986 67.5854 234.847 67.5495C234.707 67.5134 234.55 67.5259 234.408 67.4899C234.266 67.4537 234.15 67.2742 234.011 67.2379C233.871 67.2019 233.783 66.8681 233.644 66.8288C233.504 66.7895 233.353 66.7857 233.211 66.7497C233.069 66.7142 232.872 66.9432 232.73 66.904C232.588 66.8648 232.429 66.9041 232.29 66.8649C232.151 66.8256 232.117 66.2563 231.975 66.2165C231.832 66.1772 231.633 66.4157 231.491 66.3766C231.349 66.3374 231.159 66.5237 231.02 66.485C230.88 66.4457 230.786 66.1731 230.644 66.1305C230.501 66.0879 230.374 65.9963 230.231 65.9538C230.089 65.9113 229.876 66.2001 229.736 66.1608C229.597 66.121 229.577 65.5193 229.438 65.4792C229.299 65.4399 229.023 65.9863 228.884 65.944C228.745 65.9015 228.733 65.2774 228.594 65.234C228.454 65.1915 228.306 65.1712 228.167 65.1286C228.028 65.0862 227.786 65.4758 227.644 65.4333C227.502 65.3905 227.399 65.1906 227.26 65.1481C227.121 65.1052 227.038 64.8108 226.898 64.7682C226.759 64.7257 226.62 64.6734 226.48 64.6276C226.341 64.5816 226.219 64.4634 226.08 64.4176C225.941 64.3718 225.705 64.7124 225.565 64.6667C225.426 64.6208 225.329 64.402 225.189 64.3561C225.05 64.3105 224.885 64.3557 224.746 64.3131C224.607 64.2705 224.473 64.192 224.334 64.1461C224.195 64.1002 224.126 63.7733 223.987 63.7272C223.848 63.6814 223.703 63.6578 223.563 63.612C223.424 63.5664 223.179 63.914 223.04 63.8649C222.901 63.8158 222.739 63.8515 222.6 63.8024C222.46 63.7533 222.454 63.2106 222.315 63.1608C222.176 63.1117 221.906 63.5433 221.767 63.4948C221.627 63.4457 221.587 63.0393 221.448 62.9899C221.309 62.9408 221.192 62.8167 221.053 62.7643C220.913 62.7119 220.743 62.7805 220.606 62.7282C220.47 62.6758 220.214 63.0325 220.077 62.9801C219.941 62.9272 219.941 62.3913 219.802 62.3385C219.662 62.2861 219.452 62.4924 219.312 62.4401C219.173 62.3877 219.034 62.3421 218.897 62.2897C218.761 62.2373 218.576 62.3323 218.439 62.2799C218.303 62.2276 218.269 61.8241 218.13 61.7682C217.991 61.7125 217.822 61.7682 217.686 61.7126C217.549 61.6564 217.472 61.3981 217.336 61.3424C217.2 61.2871 217.026 61.3492 216.887 61.2936C216.748 61.2379 216.639 61.0937 216.503 61.0348C216.367 60.9758 216.267 60.7989 216.131 60.7399C215.994 60.681 215.676 61.1953 215.539 61.1364C215.403 61.077 215.445 60.458 215.309 60.3991C215.172 60.341 214.905 60.6912 214.769 60.6325C214.632 60.5735 214.441 60.6817 214.305 60.6227C214.168 60.5635 214.129 60.2093 213.992 60.1471C213.856 60.0846 213.807 59.7607 213.674 59.7018C213.54 59.643 213.344 59.7604 213.208 59.7018C213.072 59.6429 212.963 59.5023 212.826 59.4401C212.69 59.3782 212.479 59.541 212.343 59.4821C212.206 59.4236 212.019 59.5117 211.886 59.4499C211.752 59.3876 211.606 59.348 211.473 59.2858C211.339 59.223 211.305 58.8666 211.172 58.8044C211.038 58.7422 210.922 58.6215 210.788 58.5592C210.654 58.497 210.48 58.5365 210.347 58.4743C210.213 58.4119 210.153 58.1302 210.02 58.068C209.886 58.006 209.716 58.0417 209.582 57.9762C209.448 57.9107 209.164 58.2543 209.03 58.1921C208.897 58.1294 208.92 57.6287 208.786 57.5631C208.652 57.4976 208.53 57.3992 208.396 57.3337C208.263 57.2681 208.157 57.1276 208.023 57.0622C207.89 56.9971 207.691 57.111 207.558 57.0456C207.424 56.98 207.355 56.7409 207.222 56.6754C207.088 56.611 206.799 56.9601 206.665 56.8952C206.531 56.8297 206.366 56.8429 206.232 56.7741C206.099 56.7053 205.971 56.627 205.837 56.5583C205.703 56.4892 205.712 56.0499 205.578 55.9811C205.444 55.9135 205.14 56.2959 205.01 56.2272C204.879 56.1584 204.941 55.5753 204.808 55.5065C204.674 55.4383 204.407 55.7223 204.273 55.6569C204.14 55.5913 204.114 55.2409 203.98 55.1754C203.847 55.1103 203.568 55.4247 203.435 55.3561C203.301 55.2873 203.266 54.9665 203.133 54.901C202.999 54.8354 202.965 54.5152 202.832 54.446C202.698 54.3772 202.57 54.2979 202.439 54.2292C202.309 54.1604 201.99 54.5699 201.856 54.5016C201.723 54.4329 201.68 54.1381 201.547 54.069C201.413 54.0003 201.344 53.7713 201.211 53.7057C201.077 53.6403 200.845 53.8357 200.711 53.7672C200.577 53.6985 200.36 53.8497 200.229 53.7809C200.099 53.7119 200.051 53.42 199.92 53.3512C199.789 53.2824 199.681 53.1514 199.548 53.0827C199.414 53.0139 199.317 52.8572 199.184 52.7917C199.05 52.7262 198.931 52.6208 198.8 52.5553C198.669 52.49 198.45 52.6375 198.319 52.569C198.189 52.5002 198.074 52.379 197.943 52.3102C197.813 52.2416 197.668 52.2051 197.534 52.1364C197.401 52.0678 197.224 52.1201 197.091 52.0514C196.957 51.9827 196.786 52.0186 196.655 51.9499C196.525 51.8809 196.442 51.6778 196.312 51.609C196.181 51.5401 196.127 51.2653 195.993 51.1999C195.859 51.1344 195.6 51.4093 195.467 51.3405C195.333 51.2717 195.237 51.1183 195.104 51.0495C194.97 50.9807 194.805 51.0036 194.671 50.9381C194.537 50.8727 194.501 50.5547 194.367 50.4889C194.234 50.4234 194.059 50.4695 193.926 50.404C193.792 50.3384 193.701 50.1647 193.567 50.0993C193.434 50.0343 193.207 50.2335 193.073 50.1686C192.94 50.1031 192.806 50.0437 192.672 49.9782C192.538 49.9123 192.606 49.2904 192.473 49.2282C192.339 49.1662 192.166 49.2122 192.032 49.1501C191.899 49.0879 191.666 49.2999 191.532 49.235C191.399 49.1695 191.219 49.2416 191.082 49.1794C190.946 49.117 190.846 48.9632 190.713 48.901C190.579 48.8388 190.579 48.3871 190.445 48.3249C190.312 48.2628 189.996 48.7269 189.859 48.6647C189.724 48.6013 189.777 48.0003 189.641 47.9381C189.504 47.8759 189.385 47.7738 189.251 47.7116C189.117 47.6505 188.813 48.095 188.677 48.0329C188.54 47.9705 188.509 47.6071 188.376 47.5446C188.242 47.4824 188.123 47.378 187.986 47.319C187.85 47.2601 187.619 47.4922 187.482 47.4333C187.346 47.3741 187.269 47.1357 187.136 47.0768C187.002 47.0179 186.928 46.7618 186.792 46.7028C186.656 46.6438 186.368 47.0664 186.231 47.0075C186.095 46.9481 186.123 46.3768 185.987 46.3171C185.851 46.2581 185.569 46.6704 185.433 46.612C185.296 46.553 185.219 46.3104 185.083 46.2546C184.947 46.1989 184.855 45.9958 184.719 45.9401C184.582 45.8844 184.474 45.7308 184.338 45.6784C184.202 45.626 183.997 45.7894 183.86 45.734C183.724 45.6784 183.49 45.9437 183.354 45.8913C183.217 45.838 183.257 45.1879 183.118 45.1315C182.979 45.0759 182.777 45.252 182.638 45.1999C182.498 45.1475 182.325 45.2296 182.186 45.1774C182.046 45.125 181.929 45.0032 181.793 44.9508C181.656 44.8984 181.562 44.6855 181.426 44.6364C181.289 44.5878 181.062 44.8557 180.923 44.8034C180.784 44.7509 180.76 44.289 180.621 44.2399C180.482 44.1908 180.354 44.1096 180.215 44.0573C180.076 44.0049 179.905 44.083 179.766 44.0338C179.626 43.9847 179.441 44.1064 179.305 44.0573C179.168 44.0082 179.046 43.8936 178.907 43.8444C178.768 43.7953 178.551 44.0438 178.412 43.9948C178.273 43.9457 178.275 43.3564 178.136 43.3073C177.996 43.2588 177.76 43.5885 177.621 43.5426C177.482 43.4964 177.397 43.238 177.258 43.1921C177.118 43.1462 177.002 43.0123 176.859 42.9665C176.717 42.9207 176.509 43.1598 176.37 43.1139C176.231 43.0679 176.14 42.8316 175.998 42.7858C175.856 42.74 175.623 43.0871 175.483 43.0446C175.344 43.002 175.199 42.9827 175.057 42.9401C174.915 42.8973 174.883 42.4068 174.741 42.3639C174.599 42.3214 174.46 42.2854 174.317 42.2428C174.175 42.2003 173.993 42.344 173.854 42.3014C173.714 42.2593 173.524 42.4327 173.385 42.3903C173.246 42.3477 173.118 42.2522 172.976 42.2096C172.833 42.167 172.682 42.1799 172.543 42.1374C172.404 42.0945 172.321 41.7909 172.179 41.7516C172.037 41.7119 171.962 41.3684 171.823 41.3258C171.684 41.2834 171.539 41.2537 171.397 41.2145C171.255 41.1752 171.082 41.2961 170.939 41.2536C170.797 41.211 170.581 41.5419 170.438 41.5026C170.297 41.4634 170.149 41.4666 170.007 41.4274C169.865 41.3881 169.825 40.8603 169.683 40.821C169.54 40.7817 169.33 41.0865 169.19 41.0504C169.051 41.0145 168.906 40.9947 168.764 40.9587C168.622 40.9224 168.505 40.7724 168.363 40.7331C168.221 40.6938 168.042 40.8603 167.899 40.821C167.757 40.7813 167.664 40.52 167.521 40.484C167.397 40.4526 167.256 40.5183 167.127 40.5114L167.018 40.4958C166.889 40.4888 166.747 40.5546 166.623 40.5231C166.481 40.4871 166.381 40.2322 166.239 40.196C166.097 40.1599 165.918 40.3267 165.775 40.2907C165.633 40.2543 165.554 39.8816 165.412 39.8483C165.27 39.8156 165.133 39.7531 164.991 39.7204C164.849 39.6876 164.729 39.5275 164.587 39.4948C164.445 39.4621 164.289 39.505 164.146 39.4723C164.004 39.4396 163.788 39.8293 163.646 39.7965C163.503 39.7636 163.387 39.593 163.242 39.5602C163.097 39.5275 163 39.2396 162.858 39.2067C162.716 39.174 162.591 39.0433 162.446 39.0104C162.301 38.9777 162.122 39.1838 161.977 39.151C161.832 39.1182 161.721 38.9087 161.579 38.8756C161.437 38.8429 161.24 39.1346 161.098 39.1051C160.956 39.075 160.865 38.7215 160.72 38.6921C160.575 38.6628 160.413 38.7648 160.271 38.7321C160.128 38.6992 160.023 38.4338 159.881 38.401C159.739 38.3689 159.517 38.8328 159.375 38.8034C159.233 38.7737 159.165 38.2664 159.02 38.237C158.875 38.2076 158.699 38.4134 158.554 38.3844C158.409 38.355 158.289 38.1844 158.144 38.1549C157.999 38.1256 157.842 38.188 157.7 38.1618C157.558 38.1356 157.393 38.2505 157.248 38.2243C157.103 38.1981 156.935 38.352 156.79 38.3258C156.645 38.2995 156.532 38.0732 156.39 38.0436C156.247 38.0141 156.136 37.7593 155.991 37.7331C155.846 37.7069 155.67 37.9257 155.525 37.9001C155.38 37.8739 155.241 37.8208 155.099 37.7946C154.956 37.7684 154.78 37.9751 154.635 37.9489C154.49 37.9227 154.345 37.9194 154.2 37.8932C154.055 37.867 153.944 37.6118 153.799 37.5856C153.654 37.5593 153.554 37.2222 153.409 37.196C153.264 37.1698 153.122 37.1401 152.978 37.1139C152.833 37.0877 152.63 37.5033 152.485 37.4772C152.34 37.451 152.255 36.9643 152.11 36.9372C151.965 36.911 151.76 37.3655 151.618 37.3395C151.476 37.3133 151.382 36.8789 151.24 36.8551C151.098 36.8322 150.919 37.0518 150.776 37.029C150.634 37.006 150.503 36.8384 150.361 36.8122C150.219 36.786 150.063 36.8383 149.918 36.8122C149.773 36.786 149.63 36.7472 149.485 36.7243C149.34 36.7013 149.212 36.5412 149.067 36.5182C148.922 36.4953 148.757 36.6359 148.615 36.6129C148.473 36.59 148.323 36.5997 148.178 36.5768C148.033 36.5539 147.887 36.5372 147.742 36.5143C147.597 36.4915 147.447 36.5245 147.302 36.5016C147.157 36.4787 147.042 36.1805 146.897 36.1608C146.753 36.141 146.616 36.0334 146.472 36.0104C146.345 35.9904 146.196 36.175 146.063 36.2087L145.952 36.2184C145.819 36.257 145.669 36.4626 145.542 36.446C145.397 36.4263 145.297 35.9711 145.152 35.9508C145.007 35.9312 144.845 36.059 144.703 36.0397C144.561 36.0201 144.416 35.9842 144.271 35.9645C144.126 35.9449 143.975 35.9899 143.83 35.9704C143.685 35.9507 143.56 35.7287 143.415 35.7087C143.27 35.689 143.087 36.0525 142.942 36.0329C142.797 36.0131 142.663 35.8656 142.519 35.8493C142.374 35.8333 142.208 36.017 142.066 36.0006C141.924 35.9835 141.814 35.5419 141.672 35.5251C141.53 35.5087 141.365 35.6827 141.22 35.6667C141.075 35.6503 140.926 35.6658 140.781 35.6462C140.636 35.6268 140.477 35.7904 140.332 35.7741C140.187 35.7575 140.056 35.5645 139.911 35.5514C139.766 35.5384 139.618 35.5453 139.474 35.529C139.329 35.5126 139.169 35.663 139.024 35.6501C138.879 35.637 138.774 35.1124 138.629 35.0993C138.484 35.0864 138.319 35.335 138.174 35.3219C138.029 35.309 137.875 35.3881 137.73 35.3717C137.585 35.3554 137.429 35.5121 137.284 35.4958C137.139 35.4794 137.011 35.2209 136.866 35.2077C136.721 35.1946 136.573 35.2178 136.428 35.2047C136.283 35.1909 136.16 34.8077 136.016 34.7946C135.871 34.7823 135.689 35.3447 135.544 35.3317C135.399 35.3186 135.259 35.2107 135.114 35.2008C134.969 35.191 134.827 35.1228 134.683 35.1129C134.538 35.1031 134.381 35.2631 134.236 35.2536C134.091 35.2438 133.963 34.9106 133.818 34.9001C133.673 34.8902 133.519 35.0212 133.374 35.0114C133.229 35.0016 133.084 34.9916 132.939 34.985C132.795 34.9785 132.669 34.5371 132.524 34.5299C132.379 34.5234 132.214 34.9483 132.069 34.9421C131.924 34.9355 131.785 34.7562 131.64 34.7497C131.495 34.7432 131.347 34.7946 131.202 34.7848C131.057 34.775 130.912 34.7328 130.767 34.7262C130.622 34.7195 130.483 34.5397 130.338 34.5329C130.193 34.5263 130.036 34.8314 129.891 34.8249C129.746 34.8179 129.607 34.6018 129.462 34.5983C129.317 34.595 129.166 34.7064 129.021 34.6999C128.876 34.6932 128.731 34.6279 128.586 34.6247C128.441 34.6214 128.295 34.5459 128.15 34.5426C128.006 34.5394 127.858 34.5332 127.716 34.5299C127.574 34.5267 127.426 34.4903 127.281 34.487C127.136 34.4837 126.985 34.8379 126.84 34.8346C126.695 34.8314 126.55 34.8346 126.405 34.8346C126.26 34.8346 126.118 34.32 125.973 34.32C125.828 34.32 125.68 34.4087 125.535 34.4088C125.39 34.4088 125.242 34.4352 125.097 34.4352C124.952 34.4351 124.804 34.3366 124.659 34.3366C124.514 34.3366 124.366 34.3561 124.221 34.3561C124.076 34.3572 123.931 34.8571 123.786 34.8571C123.641 34.8571 123.494 34.4223 123.349 34.4215C123.204 34.4215 123.055 34.3792 122.91 34.3825C122.765 34.3861 122.623 34.7516 122.479 34.7555C122.333 34.7588 122.182 34.5296 122.04 34.5329C121.898 34.5362 121.75 34.6014 121.605 34.6081C121.46 34.6146 121.318 34.7952 121.173 34.7985C121.028 34.8018 120.883 34.7855 120.738 34.7887C120.593 34.792 120.451 34.9619 120.306 34.9684C120.161 34.975 120.016 34.9457 119.871 34.9489C119.744 34.9518 119.61 34.8139 119.481 34.7819L119.372 34.7682C119.244 34.7316 119.11 34.576 118.983 34.5817C118.838 34.5883 118.699 34.8046 118.554 34.8112C118.409 34.8172 118.249 34.5201 118.104 34.5299C117.96 34.5398 117.812 34.5494 117.667 34.5592C117.522 34.5691 117.388 34.8668 117.243 34.8766C117.098 34.8864 116.948 34.8249 116.803 34.8346C116.658 34.8444 116.507 34.743 116.362 34.7526C116.217 34.7624 116.086 35.0831 115.941 35.0934C115.796 35.1032 115.628 34.71 115.483 34.7194C115.338 34.7292 115.207 35.018 115.062 35.028C114.918 35.0378 114.758 34.8315 114.613 34.8444C114.468 34.8575 114.351 35.3121 114.206 35.3219C114.061 35.3318 113.916 35.3547 113.771 35.3678C113.626 35.3809 113.458 35.054 113.313 35.0671C113.168 35.08 113.006 34.8606 112.861 34.8737C112.716 34.8873 112.611 35.4628 112.466 35.4792C112.321 35.495 112.156 35.2342 112.012 35.2467C111.867 35.2598 111.712 35.1552 111.567 35.1715C111.423 35.1885 111.306 35.5578 111.161 35.571C111.016 35.5841 110.86 35.4434 110.715 35.4596C110.57 35.476 110.405 35.244 110.26 35.2604C110.115 35.2768 109.987 35.4862 109.842 35.5026C109.697 35.519 109.577 35.8032 109.433 35.82C109.288 35.8364 109.105 35.4169 108.96 35.4333C108.815 35.4496 108.673 35.4859 108.528 35.5055C108.383 35.5252 108.263 35.8042 108.118 35.8239C107.973 35.8425 107.788 35.4306 107.644 35.4469C107.499 35.4634 107.362 35.581 107.217 35.5973C107.072 35.6145 106.97 36.0584 106.825 36.0788C106.68 36.0984 106.526 36.0269 106.381 36.0465C106.236 36.0664 106.105 36.203 105.96 36.2194C105.815 36.2357 105.67 36.2496 105.525 36.2692C105.38 36.2888 105.21 36.0523 105.067 36.0719C104.925 36.0916 104.786 36.1773 104.641 36.1969C104.496 36.2169 104.368 36.397 104.226 36.4167C104.083 36.4355 103.887 35.9742 103.742 35.9938C103.597 36.0139 103.484 36.308 103.339 36.3278C103.194 36.3474 103.057 36.4289 102.912 36.4518C102.767 36.4748 102.633 36.5803 102.488 36.6032C102.343 36.626 102.196 36.6025 102.051 36.6188C101.906 36.6352 101.769 36.714 101.624 36.737C101.479 36.7598 101.286 36.3052 101.141 36.3249C100.996 36.3449 100.913 36.9197 100.769 36.9401C100.624 36.9598 100.45 36.7046 100.308 36.7243C100.166 36.7439 100.035 36.9037 99.8926 36.9235C99.7504 36.9431 99.6079 36.9927 99.4629 37.0124C99.318 37.0322 99.1928 37.2183 99.0479 37.2379C98.9028 37.2574 98.6949 36.6783 98.5527 36.6979C98.4108 36.7181 98.2914 36.983 98.1465 37.0026C98.0015 37.0221 97.8365 36.8384 97.6943 36.8581C97.5522 36.8777 97.4097 36.9341 97.2676 36.9538C97.1256 36.9744 97.0316 37.4839 96.8867 37.5036C96.7418 37.5231 96.5854 37.3951 96.4404 37.4147C96.2954 37.4344 96.1587 37.5005 96.0137 37.5202C95.8688 37.5392 95.6899 37.1962 95.5479 37.2155C95.4057 37.2351 95.2887 37.5526 95.1465 37.569C95.0044 37.5856 94.8793 37.8183 94.7344 37.8346C94.5894 37.851 94.4439 37.8642 94.3018 37.8805C94.1597 37.8961 93.9808 37.5528 93.8359 37.569C93.6909 37.5854 93.5601 37.7362 93.415 37.7526C93.2701 37.769 93.1479 38.0144 93.0029 38.0309C92.8579 38.0473 92.6899 37.7919 92.5449 37.8083C92.3999 37.8247 92.2662 37.9618 92.124 37.9782C91.9819 37.9946 91.8423 38.0731 91.6973 38.0895C91.5524 38.1058 91.4076 38.0901 91.2627 38.1032C91.1177 38.1163 90.9555 37.89 90.8105 37.903C90.6655 37.9161 90.5317 38.0409 90.3867 38.0573C90.2418 38.0737 90.1049 38.162 89.96 38.1784C89.8151 38.1949 89.6811 38.3254 89.5361 38.3385C89.3912 38.3507 89.2094 37.8342 89.0645 37.8473C88.9196 37.8606 88.8059 38.3052 88.6611 38.319C88.5161 38.3321 88.3423 37.8899 88.1973 37.903C88.0522 37.9161 87.9185 38.0699 87.7734 38.0797C87.6285 38.0897 87.4975 38.3088 87.3525 38.3219C87.2076 38.3353 87.0766 38.5807 86.9316 38.5905C86.7867 38.5996 86.6107 38.0382 86.4658 38.0475C86.3209 38.0573 86.1957 38.4171 86.0508 38.4274C85.9059 38.4372 85.7777 38.7345 85.6328 38.7448C85.4879 38.7546 85.3256 38.3849 85.1807 38.3942C85.0357 38.404 84.9076 38.7413 84.7627 38.7516C84.6178 38.7614 84.4555 38.3258 84.3105 38.3317C84.1655 38.3382 84.0229 38.3482 83.8779 38.3581C83.7331 38.3679 83.5911 38.3808 83.4463 38.3874C83.3014 38.3939 83.1645 38.5935 83.0195 38.6003C82.8745 38.6068 82.7349 38.7509 82.5898 38.7575C82.445 38.764 82.3001 38.7971 82.1553 38.8004C82.0103 38.8037 81.856 38.4827 81.7109 38.486C81.5662 38.49 81.4328 38.8814 81.2881 38.8854C81.1431 38.8887 80.9888 38.5218 80.8438 38.5251C80.6989 38.5286 80.5598 38.7285 80.415 38.7321C80.27 38.7354 80.1274 38.9769 79.9824 38.9801C79.8375 38.9834 79.6898 38.8403 79.5449 38.8434C79.3999 38.8467 79.2514 38.5579 79.1064 38.5612C78.9616 38.5649 78.8196 38.8986 78.6748 38.8991C78.5298 38.8991 78.3843 38.9378 78.2393 38.9411C78.0944 38.9442 77.9496 38.7616 77.8047 38.7614C77.6597 38.7614 77.5142 38.7321 77.3691 38.7321C77.2243 38.7317 77.0823 38.3717 76.9375 38.3678C76.7925 38.3646 76.644 38.8887 76.499 38.8854C76.3542 38.882 76.2093 38.781 76.0645 38.7809C75.9194 38.7809 75.7739 38.7813 75.6289 38.778C75.4841 38.7743 75.345 38.3953 75.2002 38.3913C75.0552 38.388 74.9038 38.7412 74.7588 38.7379C74.614 38.7344 74.4748 38.516 74.3271 38.5124C74.1793 38.5091 74.0336 38.7149 73.8857 38.7116C73.7381 38.7081 73.5989 38.5548 73.4541 38.5514C73.3091 38.5481 73.1606 38.6859 73.0156 38.6794C72.8709 38.6723 72.7375 38.3263 72.5928 38.319C72.4478 38.3125 72.3022 38.332 72.1572 38.3288C72.0124 38.3255 71.8675 38.3743 71.7227 38.3678C71.5776 38.3613 71.4263 38.558 71.2812 38.5514C71.1363 38.5446 70.9995 38.306 70.8545 38.2995C70.7096 38.2933 70.5589 38.4431 70.4141 38.4333C70.2691 38.4232 70.1352 38.1784 69.9902 38.1686C69.8454 38.1588 69.7034 38.1325 69.5586 38.1227C69.4137 38.1129 69.2571 38.3871 69.1094 38.3776C68.9615 38.3678 68.8276 38.2111 68.6826 38.1979C68.5376 38.1848 68.3667 38.6823 68.2217 38.6725C68.0768 38.6625 67.9399 38.5027 67.7949 38.4928C67.6502 38.4825 67.5197 38.2249 67.375 38.2145C67.2301 38.2047 67.0678 38.4885 66.9229 38.4792C66.7779 38.4693 66.6382 38.3679 66.4932 38.3581C66.3483 38.3483 66.1976 38.4627 66.0527 38.4499C65.9078 38.4368 65.7709 38.3322 65.626 38.319C65.481 38.3059 65.3413 38.2335 65.1963 38.2204C65.0514 38.2069 64.9349 37.7924 64.79 37.779C64.645 37.7659 64.4995 37.7725 64.3545 37.7594C64.2096 37.7465 64.059 37.834 63.9141 37.821C63.769 37.8079 63.6235 37.8077 63.4785 37.7946C63.3339 37.7811 63.2032 37.6088 63.0586 37.5954C62.9136 37.5823 62.731 38.0538 62.5859 38.0407C62.4412 38.0272 62.3332 37.5667 62.1885 37.5495C62.0436 37.5331 61.8842 37.709 61.7393 37.693C61.5942 37.6767 61.4682 37.4643 61.3203 37.4479C61.1726 37.4316 61.0306 37.4412 60.8857 37.4215C60.7408 37.402 60.5532 37.8732 60.4082 37.8571C60.2632 37.8407 60.1147 37.8735 59.9697 37.8571C59.8249 37.8401 59.7113 37.49 59.5664 37.4704C59.4216 37.4507 59.305 37.1605 59.1602 37.1403C59.0152 37.1207 58.8471 37.3785 58.7021 37.359C58.5571 37.3394 58.4204 37.2713 58.2754 37.2516C58.1305 37.232 57.9857 37.2312 57.8408 37.2116C57.6958 37.1919 57.5386 37.3103 57.3936 37.2907C57.2487 37.2706 57.1322 36.9988 56.9873 36.9792C56.8424 36.9595 56.6947 36.9987 56.5498 36.9792C56.4048 36.9595 56.2563 36.989 56.1113 36.9694C55.9663 36.9503 55.7787 37.323 55.6338 37.3034C55.4888 37.2837 55.3549 37.1756 55.21 37.1559C55.0651 37.1358 54.9623 36.7433 54.8174 36.7204C54.6725 36.6981 54.4935 36.9825 54.3486 36.9596C54.2036 36.9367 54.0923 36.6453 53.9473 36.6256C53.8024 36.6061 53.6546 36.6257 53.5098 36.6061C53.3649 36.5864 53.2512 36.3288 53.1064 36.3053C52.9614 36.2824 52.7505 36.8091 52.6055 36.7829C52.4605 36.7564 52.3833 36.1837 52.2383 36.1608C52.0934 36.1379 51.9485 36.1349 51.8037 36.112C51.6587 36.0891 51.5024 36.1603 51.3574 36.1374C51.2125 36.1144 51.0219 36.4519 50.877 36.4294C50.732 36.4064 50.6323 36.0295 50.4873 36.0065C50.3423 35.9836 50.1685 36.1772 50.0234 36.151C49.8786 36.1246 49.7621 35.889 49.6201 35.8659C49.4779 35.843 49.3013 36.0561 49.1562 36.0299C49.0113 36.0036 48.8891 35.8335 48.7441 35.8073C48.5991 35.7811 48.4507 35.7876 48.3086 35.7614C48.1667 35.7347 48.056 35.447 47.9141 35.4206C47.772 35.3944 47.5815 35.705 47.4365 35.6794C47.2916 35.6532 47.1917 35.3232 47.0469 35.2965C46.9019 35.2703 46.6793 35.7974 46.5371 35.7712C46.3953 35.744 46.3157 35.251 46.1738 35.2243C46.0317 35.1981 45.8922 35.1229 45.75 35.0934C45.6078 35.0639 45.3941 35.4959 45.252 35.4665C45.11 35.4363 45.0219 35.0117 44.8799 34.9821C44.7378 34.9526 44.5445 35.2399 44.4023 35.2106C44.2602 35.1811 44.1206 35.1131 43.9756 35.0837C43.8306 35.0542 43.7339 34.7264 43.5889 34.6969C43.4439 34.6675 43.2876 34.7296 43.1455 34.6969C43.0033 34.6642 42.8638 34.6053 42.7188 34.5758C42.5738 34.5464 42.3862 34.8115 42.2412 34.779C42.0962 34.7462 41.9791 34.5457 41.8369 34.5163C41.6949 34.4867 41.558 34.4022 41.416 34.3727C41.274 34.3436 41.1009 34.49 40.9561 34.4606C40.811 34.4311 40.6743 34.369 40.5293 34.3395C40.3844 34.3098 40.3072 33.881 40.165 33.8483C40.023 33.8157 39.8696 33.8387 39.7275 33.8092C39.5854 33.7798 39.4029 33.9631 39.2607 33.9303C39.1187 33.8976 38.974 33.8712 38.832 33.8385C38.69 33.8058 38.596 33.4923 38.4541 33.4557C38.312 33.4197 38.107 33.7304 37.9648 33.695C37.8228 33.659 37.6606 33.7242 37.5186 33.695C37.3764 33.6655 37.231 33.6389 37.0889 33.6061C36.9467 33.5734 36.8238 33.4191 36.6816 33.3864C36.5397 33.3534 36.4203 33.1939 36.2783 33.1579C36.1361 33.1218 35.9283 33.4328 35.7861 33.4001C35.6441 33.3671 35.5356 33.1411 35.3936 33.1051C35.2517 33.0688 35.141 32.863 34.999 32.8268C34.857 32.7908 34.6948 32.8529 34.5527 32.8171C34.4106 32.781 34.3248 32.4566 34.1826 32.4206C34.0405 32.3846 33.8951 32.3687 33.7529 32.3327C33.6108 32.2971 33.4009 32.5972 33.2588 32.5583C33.1166 32.519 32.9772 32.4595 32.8379 32.4235C32.6986 32.3875 32.5728 32.2499 32.4307 32.2106C32.2886 32.1716 32.1234 32.244 31.9814 32.2047C31.8395 32.1655 31.6976 32.1356 31.5557 32.0963C31.4136 32.0571 31.2202 32.2593 31.0781 32.2204C30.9359 32.1811 30.9068 31.6181 30.7646 31.5788C30.6226 31.5396 30.4692 31.5594 30.3271 31.5202C30.185 31.4809 30.068 31.3271 29.9287 31.2878C29.7894 31.2486 29.5622 31.5852 29.4229 31.5426C29.2835 31.5001 29.1383 31.471 28.9961 31.4284C28.854 31.3857 28.7828 31.0383 28.6436 30.9958C28.5042 30.9533 28.3219 31.0842 28.1826 31.0417C28.0436 30.9985 27.9721 30.6555 27.8301 30.6129C27.6879 30.5709 27.4693 30.8678 27.3301 30.8219C27.1908 30.776 27.0963 30.5377 26.957 30.4919C26.8179 30.4458 26.7154 30.2395 26.5762 30.1969C26.4369 30.1547 26.2291 30.3801 26.0898 30.3376C25.9507 30.2951 25.8032 30.272 25.6641 30.2262C25.5249 30.1804 25.4194 29.9911 25.2803 29.945C25.1409 29.8991 25.0182 29.7809 24.8789 29.735C24.7396 29.6892 24.569 29.7643 24.4297 29.7184C24.2905 29.6726 24.1626 29.5781 24.0234 29.529C23.8841 29.4798 23.6842 29.6627 23.5449 29.6169C23.4059 29.5707 23.3149 29.3389 23.1758 29.2897C23.0366 29.2406 22.9399 29.0344 22.8008 28.985C22.6616 28.9359 22.4567 29.1354 22.3174 29.0837C22.1781 29.0313 22.067 28.8799 21.9307 28.8307C21.7943 28.7816 21.5466 29.119 21.4072 29.0671C21.2679 29.0147 21.2331 28.5921 21.0938 28.5397C20.9546 28.4873 20.8267 28.4052 20.6875 28.3561C20.5482 28.307 20.4117 28.2519 20.2725 28.2028C20.1333 28.1537 19.8749 28.516 19.7383 28.4645C19.602 28.4122 19.5219 28.1444 19.3857 28.0915C19.2492 28.0391 19.1375 27.8812 19.001 27.8288C18.8647 27.7763 18.734 27.6877 18.5977 27.6354C18.4613 27.583 18.319 27.5377 18.1826 27.4821C18.0461 27.4264 17.8922 27.4264 17.7529 27.3708C17.6137 27.315 17.5593 26.9909 17.4229 26.9352C17.2864 26.88 17.0651 27.092 16.9287 27.0368C16.7922 26.9811 16.7009 26.7683 16.5645 26.7126C16.428 26.6569 16.2975 26.5811 16.1611 26.5221C16.0247 26.4632 15.7625 26.7969 15.626 26.7379C15.4898 26.6786 15.4244 26.3975 15.2881 26.3385C15.1516 26.2796 14.9578 26.3975 14.8213 26.3385C14.6852 26.2789 14.696 25.7659 14.5625 25.7038C14.4288 25.6418 14.1784 25.9258 14.042 25.8669C13.9058 25.8076 13.823 25.5853 13.6895 25.5231C13.5558 25.4614 13.3454 25.6214 13.209 25.5592C13.0728 25.4966 13.0387 25.1429 12.9023 25.0807C12.7659 25.0186 12.5583 25.1759 12.4219 25.1139C12.2854 25.0517 12.1199 25.0814 11.9834 25.0192C11.847 24.9568 11.7703 24.7279 11.6367 24.6657C11.5031 24.6035 11.2586 24.8519 11.1221 24.7897C10.9857 24.7274 10.9401 24.4168 10.8037 24.3512C10.6672 24.2857 10.5701 24.1244 10.4336 24.0622C10.2974 23.9998 10.195 23.8499 10.0615 23.7878C9.92789 23.7255 9.80258 23.6332 9.66895 23.571C9.53546 23.509 9.37369 23.522 9.24023 23.4567C9.1066 23.3912 8.87582 23.5906 8.74219 23.5251C8.60873 23.4593 8.57108 23.1296 8.4375 23.0641C8.30389 22.9988 8.13358 23.031 8 22.9655C7.86636 22.8999 7.79767 22.654 7.66406 22.5885C7.53009 22.5244 7.21744 22.9391 7.08398 22.8737C6.95065 22.8079 6.88242 22.5694 6.74902 22.5006C6.61536 22.4319 6.45004 22.4483 6.31641 22.3796C6.18301 22.3106 6.18307 21.8918 6.0498 21.8258C5.91617 21.7603 5.64828 22.0489 5.51465 21.9801C5.38104 21.9114 5.3924 21.4628 5.26172 21.3971C5.13095 21.3316 4.81534 21.731 4.68164 21.6657C4.5481 21.6002 4.57083 21.1257 4.4375 21.0563C4.30396 20.9876 4.05655 21.2194 3.92285 21.151C3.78925 21.0823 3.63556 21.069 3.50195 21.0036C3.36829 20.9381 3.2655 20.794 3.13184 20.7253C2.99841 20.6561 3.04089 20.1358 2.91016 20.0671C2.7793 19.9985 2.46078 20.4112 2.32715 20.3424C2.19351 20.2737 2.07123 20.1817 1.94043 20.1129C1.80994 20.0439 1.83817 19.5604 1.70508 19.4909C1.57144 19.4221 1.2558 19.8305 1.12207 19.7653C0.988434 19.6998 0.905121 19.5069 0.771484 19.4381C0.63797 19.3695 0.495911 19.3268 0.365234 19.2614C0.234619 19.1958 0.251465 18.735 0.118164 18.6657C-0.0154724 18.5969 -0.149536 18.5378 -0.283203 18.4723C-0.416901 18.407 -0.732605 18.8122 -0.866211 18.7467C-0.999573 18.681 -1.07941 18.4785 -1.21289 18.4098C-1.34644 18.3409 -1.37808 18.0167 -1.51172 17.9479C-1.64529 17.8797 -1.86646 18.0524 -2 17.984C-2.13358 17.9153 -2.33014 18.017 -2.46094 17.9518C-2.59174 17.8863 -2.52646 17.2931 -2.65723 17.2243C-2.78802 17.1555 -3.12125 17.6104 -3.25488 17.5417C-3.38821 17.4726 -3.46515 17.2637 -3.59863 17.195C-3.73224 17.1262 -3.82343 16.9561 -3.95703 16.8874C-4.09061 16.8186 -4.17303 16.6251 -4.30664 16.5563C-4.44025 16.4877 -4.67303 16.6933 -4.80664 16.6247C-4.94028 16.5559 -5.03433 16.3923 -5.16797 16.3268C-5.30164 16.2613 -5.53531 16.4714 -5.66895 16.4059C-5.80234 16.3402 -5.83044 15.996 -5.96387 15.9303C-6.09747 15.8649 -6.28238 15.9401 -6.41602 15.8747C-6.54965 15.8092 -6.6554 15.6683 -6.78906 15.6061C-6.92261 15.544 -7.07056 15.5212 -7.2041 15.4557C-7.33768 15.3902 -7.43475 15.2263 -7.56836 15.1608C-7.70206 15.0959 -7.91827 15.2653 -8.05176 15.1999C-8.18475 15.1333 -8.16257 14.6344 -8.2959 14.5719C-8.42953 14.5097 -8.66031 14.7191 -8.79395 14.6569C-8.9274 14.5945 -9.01294 14.3909 -9.14648 14.3288C-9.28015 14.2675 -9.52963 14.5379 -9.66602 14.4762C-9.80249 14.414 -9.81461 14.0013 -9.94824 13.9391C-10.0815 13.8766 -10.1413 13.5993 -10.2773 13.5368C-10.4138 13.4746 -10.6672 13.7724 -10.8037 13.7106C-10.9402 13.6484 -10.9661 13.2715 -11.1025 13.2126C-11.239 13.1538 -11.549 13.6182 -11.6826 13.5592C-11.8159 13.4997 -11.7905 12.9505 -11.9268 12.8913C-12.0632 12.8323 -12.3479 13.2354 -12.4844 13.1764C-12.6208 13.1174 -12.6692 12.7998 -12.8057 12.7409C-12.9421 12.6819 -13.053 12.5537 -13.1895 12.4948C-13.3257 12.4359 -13.4594 12.3808 -13.5957 12.3219C-13.7321 12.263 -13.846 12.1377 -13.9824 12.0788C-14.1189 12.0198 -14.2727 12.0201 -14.4092 11.9645C-14.5456 11.9089 -14.6312 11.6834 -14.7676 11.6276C-14.904 11.5719 -15.0746 11.6272 -15.2139 11.5749C-15.3532 11.5225 -15.5784 11.7581 -15.7148 11.7057C-15.8511 11.6528 -15.8998 11.3033 -16.0361 11.2477C-16.1725 11.1923 -16.388 11.4005 -16.5244 11.3454C-16.6609 11.2897 -16.7864 11.195 -16.9229 11.1393C-17.0593 11.0836 -17.1361 10.8278 -17.2754 10.7721C-17.4147 10.7165 -17.5287 10.5921 -17.668 10.5397C-17.8073 10.4875 -18.0316 10.7489 -18.1709 10.6969C-18.3102 10.6445 -18.3763 10.3437 -18.5156 10.2946C-18.6549 10.2456 -18.8168 10.2845 -18.9561 10.2321C-19.0954 10.1797 -19.303 10.3828 -19.4395 10.3337C-19.5759 10.2845 -19.6555 10.0127 -19.792 9.96353C-19.9284 9.91444 -20.062 9.84566 -20.2012 9.79654C-20.3405 9.74742 -20.5316 9.8984 -20.6709 9.84928C-20.8102 9.80002 -20.85 9.3834 -20.9893 9.33756C-21.1285 9.29201 -21.3246 9.46231 -21.4639 9.41666C-21.6032 9.37081 -21.7542 9.37399 -21.8936 9.32486C-22.0328 9.27567 -22.144 9.12201 -22.2832 9.07291C-22.4224 9.02377 -22.5386 8.88935 -22.6777 8.84342C-22.8171 8.79757 -22.9398 8.67931 -23.0791 8.63346C-23.2184 8.58782 -23.4203 8.79438 -23.5596 8.74869C-23.6989 8.70285 -23.7758 8.40495 -23.918 8.35904C-24.0601 8.31319 -24.2337 8.41759 -24.373 8.37174C-24.5124 8.3262 -24.7231 8.57445 -24.8623 8.53189C-25.0015 8.48921 -25.1265 8.37814 -25.2656 8.3356C-25.4049 8.29304 -25.479 7.96952 -25.6211 7.9235C-25.7633 7.87764 -25.971 8.13634 -26.1104 8.09049C-26.2497 8.04463 -26.3831 7.97193 -26.5225 7.92935C-26.6616 7.88677 -26.7526 7.62852 -26.8945 7.5856C-27.0367 7.54305 -27.1763 7.50999 -27.3184 7.46744C-27.4605 7.42488 -27.6596 7.65722 -27.8018 7.6149C-27.9439 7.57233 -28.0922 7.58228 -28.2344 7.53971C-28.3764 7.49699 -28.4673 7.23828 -28.6094 7.19889C-28.7516 7.15958 -28.894 7.13369 -29.0361 7.09439C-29.1783 7.05506 -29.2669 6.76357 -29.4062 6.72428C-29.5456 6.6856 -29.7388 6.89439 -29.8809 6.85514C-30.0229 6.81614 -30.2046 6.97612 -30.3438 6.93717C-30.4829 6.89791 -30.5856 6.67283 -30.7275 6.63639C-30.8696 6.60039 -30.9723 6.38396 -31.1143 6.34439C-31.2563 6.30511 -31.396 6.26907 -31.5381 6.23307C-31.6802 6.19705 -31.8822 6.47502 -32.0244 6.43912C-32.1665 6.40311 -32.269 6.16772 -32.4082 6.1315C-32.5475 6.09549 -32.6587 5.89616 -32.8008 5.86002C-32.9429 5.82399 -33.1166 5.9644 -33.2588 5.92838C-33.4007 5.8922 -33.4831 5.54887 -33.625 5.51236C-33.7672 5.47634 -34.0093 5.99057 -34.1543 5.95475C-34.2993 5.91872 -34.4447 5.91523 -34.5869 5.88248C-34.7289 5.84933 -34.8257 5.57438 -34.9678 5.54166C-35.1097 5.50881 -35.2292 5.35901 -35.374 5.32291C-35.5189 5.28692 -35.7065 5.52504 -35.8486 5.49283C-35.9908 5.46008 -36.0541 4.97187 -36.1963 4.93912C-36.3384 4.90691 -36.5318 5.1652 -36.6738 5.13248C-36.8159 5.09972 -36.9527 5.03729 -37.0977 5.00455C-37.2424 4.97136 -37.3336 4.65802 -37.4785 4.62857C-37.6234 4.59927 -37.8306 4.96801 -37.9756 4.93912C-38.1206 4.90964 -38.2036 4.52363 -38.3457 4.49088C-38.4879 4.45821 -38.6811 4.72658 -38.8232 4.694C-38.9654 4.66125 -39.0708 4.4061 -39.2158 4.37662C-39.3608 4.34714 -39.4945 4.2684 -39.6367 4.23892C-39.7789 4.20954 -39.9555 4.38265 -40.0977 4.35318C-40.2397 4.32416 -40.4128 4.48392 -40.5547 4.45475C-40.6967 4.4253 -40.7653 3.90898 -40.9072 3.87857C-41.0493 3.84912 -41.2485 4.17593 -41.3906 4.14713C-41.5328 4.11765 -41.6841 4.13427 -41.8291 4.10807C-41.974 4.08171 -42.0592 3.67607 -42.2012 3.64615C-42.3434 3.61668 -42.4887 3.58383 -42.6309 3.55435C-42.7729 3.525 -42.9576 3.76676 -43.1025 3.74088C-43.2476 3.71468 -43.3959 3.71825 -43.5381 3.69205C-43.6802 3.66594 -43.8394 3.73777 -43.9814 3.71158C-44.1236 3.68535 -44.2231 3.3413 -44.3682 3.3151C-44.5132 3.28888 -44.6412 3.16454 -44.7861 3.13834C-44.9312 3.11222 -45.1392 3.55453 -45.2842 3.52506C-45.4291 3.49566 -45.5739 3.49166 -45.7188 3.46549C-45.8637 3.43923 -45.9547 3.034 -46.0996 3.00748C-46.2446 2.98128 -46.3843 2.92528 -46.5293 2.89908C-46.6742 2.87311 -46.856 3.13166 -47.001 3.10904C-47.146 3.08612 -47.2515 2.76122 -47.3965 2.73502C-47.5415 2.70909 -47.735 3.06297 -47.8828 3.03678C-48.0305 3.01063 -48.1754 3.03034 -48.3203 3.00748C-48.4653 2.98455 -48.5512 2.4933 -48.6934 2.47037C-48.8354 2.44802 -49.0397 2.87552 -49.1846 2.85025C-49.3295 2.82407 -49.4606 2.70238 -49.6055 2.67935C-49.7505 2.65643 -49.893 2.60755 -50.0352 2.58463C-50.1772 2.56172 -50.3307 2.5977 -50.4756 2.57486C-50.6205 2.55195 -50.7487 2.39484 -50.8936 2.37174C-51.0385 2.34883 -51.1949 2.42376 -51.3398 2.40103C-51.4847 2.37813 -51.5818 1.94319 -51.7266 1.91959C-51.8716 1.89667 -52.0767 2.39143 -52.2217 2.36881C-52.3666 2.3459 -52.5172 2.38477 -52.6621 2.36197C-52.807 2.33906 -52.904 1.89724 -53.0488 1.87369C-53.1938 1.85077 -53.3735 2.13651 -53.5186 2.11685C-53.6635 2.09727 -53.8228 2.21756 -53.9678 2.19791C-54.1125 2.17782 -54.1923 1.55471 -54.3369 1.53385C-54.4819 1.5142 -54.6812 2.00428 -54.8262 1.98502C-54.9712 1.96537 -55.1225 1.98904 -55.2646 1.96939C-55.4066 1.94932 -55.5201 1.58321 -55.6621 1.56314C-55.8042 1.5435 -55.941 1.41587 -56.0859 1.39615C-56.2309 1.37651 -56.4243 1.83433 -56.5664 1.8151C-56.7086 1.79545 -56.8482 1.70389 -56.9932 1.68424C-57.1382 1.66458 -57.2778 1.59905 -57.4229 1.58268C-57.5676 1.56557 -57.6698 1.07545 -57.8145 1.05826C-57.9594 1.0419 -58.1557 1.56493 -58.2979 1.54947C-58.4399 1.53311 -58.5739 1.36291 -58.7188 1.34635C-58.8638 1.32997 -59.021 1.44866 -59.166 1.43228C-59.3109 1.41555 -59.442 1.21232 -59.584 1.19596C-59.726 1.17918 -59.8599 0.973056 -60.002 0.956699C-60.1439 0.940896 -60.3113 1.15973 -60.4561 1.14713C-60.6011 1.13403 -60.7437 1.07171 -60.8887 1.05533C-61.0336 1.03893 -61.1559 0.708728 -61.3008 0.69205C-61.4456 0.675691 -61.6304 1.16898 -61.7754 1.15689C-61.9203 1.1438 -62.0601 1.05187 -62.2051 1.03873C-62.35 1.02563 -62.4781 0.773629 -62.623 0.76041C-62.7681 0.74731 -62.9331 0.993216 -63.0781 0.980136C-63.2231 0.96704 -63.3482 0.642824 -63.4932 0.62955C-63.6382 0.61645 -63.8091 1.00266 -63.9541 0.992831C-64.0991 0.982928 -64.2388 0.881902 -64.3838 0.868808C-64.5287 0.855799 -64.6765 0.878623 -64.8213 0.868808C-64.9662 0.859042 -65.1168 0.95667 -65.2617 0.946933C-65.4067 0.937108 -65.5435 0.760469 -65.6885 0.750644C-65.8335 0.740739 -65.9644 0.45578 -66.1094 0.445956C-66.2544 0.436265 -66.4224 0.828827 -66.5674 0.819003C-66.7122 0.808283 -66.8287 0.21735 -66.9736 0.210605C-67.1186 0.204059 -67.272 0.347185 -67.417 0.337558C-67.562 0.327733 -67.7104 0.338249 -67.8555 0.331699C-68.0002 0.324946 -68.1394 0.161087 -68.2842 0.151035C-68.4292 0.141209 -68.5776 0.125358 -68.7227 0.118808C-68.8676 0.112397 -69.0182 0.229778 -69.1631 0.2233C-69.3079 0.216755 -69.4586 0.295135 -69.6035 0.28873C-69.7485 0.28218 -69.894 0.200553 -70.0391 0.194003C-70.184 0.187714 -70.3433 0.65563 -70.4883 0.649081C-70.6333 0.642447 -70.77 0.347669 -70.915 0.344394C-71.0598 0.340798 -71.2018 0.109131 -71.3438 0.102206C-71.4859 0.0956563 -71.6372 0.161491 -71.7822 0.154941C-71.9272 0.148772 -72.0806 0.498402 -72.2256 0.491855C-72.3706 0.485299 -72.5132 0.226575 -72.6582 0.2233C-72.8031 0.22017 -72.9508 0.289071 -73.0957 0.2858C-73.2407 0.282525 -73.3862 0.0758393 -73.5312 0.0758393C-73.6761 0.0759419 -73.8239 0.122079 -73.9688 0.118808C-74.1136 0.115515 -74.2585 0.0723389 -74.4033 0.0690033C-74.5483 0.0657283 -74.6968 0.508456 -74.8418 0.508456C-74.9866 0.508105 -75.1315 0.194356 -75.2764 0.194003C-75.4214 0.194003 -75.5698 0.0924408 -75.7119 0.0924408C-75.8539 0.0928378 -76.0016 0.439378 -76.1465 0.443027C-76.2915 0.446302 -76.437 0.521783 -76.582 0.525058C-76.7269 0.527728 -76.8776 0.00762643 -77.0225 0.0074799C-77.1674 0.0074799 -77.3151 -0.00260214 -77.46 0.000643959Z" fill="url(#paint0_linear_256_4500)"/>
<defs>
<linearGradient id="paint0_linear_256_4500" x1="54.5323" y1="161.575" x2="223.996" y2="1604.42" gradientUnits="userSpaceOnUse">
<stop stop-color="#F9F7F3"/>
<stop offset="1" stop-color="#EFEDE9"/>
</linearGradient>
</defs>
</svg>
