<svg width="652" height="353" viewBox="0 0 652 353" fill="none" xmlns="http://www.w3.org/2000/svg">
<path d="M128.521 7.40552C202.173 -9.66579 276.031 7.54847 353.941 11.7581C386.662 13.5196 474.706 -6.49217 549.235 19.7756C627.133 47.2221 667.122 118.966 646.715 209.816C631.806 276.172 568.068 315.379 497.733 323.176C475.613 325.622 448.108 323.179 417.622 320.36C421.178 330.036 426.437 341.366 434.178 352.956C413.292 340.541 398.784 328.313 388.777 317.79C363.437 315.717 336.698 314.272 309.745 315.677C279.012 317.283 214.616 320.586 181.714 321.169C126.301 322.154 74.6957 309.874 43.2783 280.083C13.3712 251.717 -6.97069 222.626 2.23242 143.227C9.70599 78.8007 43.7952 27.0416 128.521 7.40552Z" fill="white"/>
</svg>
