<svg width="1440" height="1936" viewBox="0 0 1440 1936" fill="none" xmlns="http://www.w3.org/2000/svg">
<path d="M1485.38 0.00231934C1485.88 0.0141172 1486.37 1.38261 1486.87 1.39392C1487.38 1.40523 1487.88 1.38263 1488.39 1.39392C1488.89 1.40523 1489.43 0.20608 1489.93 0.217163C1490.44 0.228475 1490.92 1.49504 1491.42 1.51794C1491.91 1.54057 1492.45 0.940631 1492.95 0.963257C1493.46 0.985882 1493.96 1.09977 1494.47 1.12244C1494.97 1.14506 1495.45 2.25255 1495.95 2.27576C1496.46 2.29838 1497 1.17942 1497.51 1.20154C1498.01 1.22416 1498.53 1.26876 1499.03 1.29138C1499.54 1.31401 1500.03 1.835 1500.54 1.85779C1501.04 1.88041 1501.58 1.40456 1502.08 1.42712C1502.59 1.44975 1503.06 2.16263 1503.57 2.19666C1504.07 2.23059 1504.61 1.7555 1505.11 1.78943C1505.62 1.82336 1506.12 2.01617 1506.63 2.05017C1507.13 2.08411 1507.62 2.5133 1508.12 2.54724C1508.63 2.58059 1509.19 1.64222 1509.7 1.67615C1510.2 1.71026 1510.63 3.13507 1511.13 3.16931C1511.64 3.20325 1512.15 3.24865 1512.65 3.28259C1513.16 3.3162 1513.7 2.67192 1514.21 2.71716C1514.71 2.7619 1515.27 1.92485 1515.78 1.97009C1516.28 2.01536 1516.77 2.33305 1517.27 2.3783C1517.78 2.4236 1518.25 2.95512 1518.76 3.00037C1519.26 3.04557 1519.82 2.45722 1520.32 2.50232C1520.83 2.54757 1521.3 2.95504 1521.81 3.00037C1522.31 3.04562 1522.78 3.65669 1523.28 3.71326C1523.77 3.7697 1524.33 3.16944 1524.84 3.22595C1525.34 3.28252 1525.79 3.98384 1526.3 4.04041C1526.8 4.09646 1527.43 2.58151 1527.94 2.63806C1528.44 2.69487 1528.82 4.26635 1529.32 4.32361C1529.81 4.38017 1530.27 5.11568 1530.76 5.17224C1531.26 5.22847 1531.97 3.12447 1532.46 3.18103C1532.96 3.23768 1533.29 5.30806 1533.79 5.36462C1534.3 5.4211 1534.81 5.3189 1535.32 5.37537C1535.82 5.43192 1536.38 5.00294 1536.87 5.07068C1537.37 5.13856 1538.01 3.85982 1538.52 3.91638C1539.02 3.97339 1539.45 4.84364 1539.95 4.9115C1540.46 4.97933 1540.99 4.76452 1541.49 4.8324C1541.98 4.90079 1542.38 6.12134 1542.88 6.18982C1543.39 6.25768 1543.94 5.80587 1544.45 5.87341C1544.92 5.93703 1545.35 6.41857 1545.81 6.53455L1546 6.5697C1546.46 6.6757 1546.89 7.07737 1547.37 7.14099C1547.87 7.20833 1548.52 5.94139 1549.01 6.00916C1549.51 6.07703 1549.98 6.43932 1550.49 6.5072C1550.99 6.57517 1551.42 7.35507 1551.92 7.42322C1552.43 7.4911 1553.1 5.9862 1553.6 6.05408C1554.09 6.12199 1554.5 7.12976 1555 7.19763C1555.51 7.26546 1556.02 7.19758 1556.52 7.27673C1557.01 7.35592 1557.52 7.40124 1558.02 7.46912C1558.53 7.53674 1559.06 7.28808 1559.56 7.35583C1560.05 7.42371 1560.6 7.17468 1561.09 7.24255C1561.59 7.31066 1561.92 9.04089 1562.41 9.10876C1562.91 9.17583 1563.61 7.412 1564.11 7.47986C1564.62 7.5483 1564.95 9.17664 1565.45 9.24451C1565.96 9.31175 1566.59 8.09071 1567.09 8.15857C1567.6 8.22648 1568.05 8.71253 1568.55 8.78064C1569.04 8.84852 1569.62 8.26061 1570.12 8.32849C1570.63 8.39665 1571.01 9.61829 1571.5 9.69763C1572 9.77682 1572.45 10.3417 1572.95 10.4095C1573.44 10.4775 1573.92 10.8737 1574.41 10.9418C1574.91 11.0096 1575.46 10.6363 1575.96 10.6927C1576.45 10.7493 1577.06 9.91255 1577.55 9.96912C1578.05 10.0256 1578.58 9.79871 1579.09 9.86658C1579.59 9.93495 1579.99 10.998 1580.49 11.0551C1581 11.1116 1581.48 11.2807 1581.99 11.3373C1582.49 11.394 1582.95 11.8923 1583.45 11.9603C1583.96 12.0282 1584.52 11.4169 1585.02 11.473C1585.45 11.5225 1585.91 11.3642 1586.35 11.3617L1586.64 11.3763C1587.11 11.3696 1587.62 10.9454 1588.1 10.9984C1588.6 11.055 1589.03 11.9591 1589.52 12.016C1590.02 12.0726 1590.63 10.9418 1591.13 10.9984C1591.62 11.055 1592.1 11.4965 1592.59 11.5531C1593.09 11.6097 1593.58 11.813 1594.09 11.8695C1594.59 11.9259 1595.14 11.4057 1595.64 11.4623C1596.15 11.5191 1596.58 12.2873 1597.09 12.3441C1597.59 12.4007 1598.01 13.5322 1598.51 13.5892C1599.02 13.6458 1599.56 13.1029 1600.07 13.1478C1600.57 13.1931 1601.1 12.8985 1601.6 12.9437C1602.11 12.989 1602.54 13.962 1603.05 14.0072C1603.55 14.0525 1604.05 14.1661 1604.55 14.2113C1605.06 14.2565 1605.58 13.9625 1606.09 13.9965C1606.59 14.03 1607.14 13.4196 1607.64 13.4535C1608.15 13.4878 1608.61 14.0756 1609.12 14.1097C1609.62 14.1437 1610.18 13.1481 1610.68 13.182C1611.19 13.2165 1611.62 14.358 1612.13 14.392C1612.63 14.4259 1613.1 15.1955 1613.61 15.2181C1614.11 15.2407 1614.64 14.777 1615.14 14.8109C1615.65 14.8449 1616.14 15.1051 1616.65 15.139C1617.15 15.1729 1617.7 14.3127 1618.2 14.3353C1618.71 14.3579 1619.25 13.4084 1619.75 13.431C1620.26 13.4537 1620.72 14.6408 1621.22 14.6635C1621.73 14.6861 1622.22 14.8674 1622.73 14.89C1623.23 14.9126 1623.73 15.1954 1624.23 15.2181C1624.74 15.2408 1625.22 15.716 1625.74 15.7386C1626.22 15.7594 1626.7 15.0354 1627.18 14.9633L1627.37 14.9515C1627.84 14.87 1628.33 14.0651 1628.81 14.0863C1629.31 14.109 1629.8 14.9128 1630.3 14.9242C1630.81 14.9355 1631.32 14.1434 1631.83 14.1547C1632.33 14.1663 1632.82 14.9353 1633.32 14.9467C1633.83 14.9581 1634.31 16.0892 1634.82 16.0892C1635.32 16.0892 1635.85 13.974 1636.35 13.974C1636.86 13.974 1637.35 14.0863 1637.87 14.0863C1638.38 14.0863 1638.87 15.2403 1639.37 15.2523C1639.88 15.2636 1640.38 15.2972 1640.89 15.2972C1641.39 15.2972 1641.9 15.3427 1642.4 15.3314C1642.91 15.3201 1643.4 13.9398 1643.91 13.9398C1644.41 13.9408 1644.93 15.8055 1645.43 15.806C1645.94 15.806 1646.44 16.0664 1646.95 16.0551C1647.45 16.0432 1647.95 14.7314 1648.45 14.7201C1648.96 14.7088 1649.46 15.0486 1649.97 15.0375C1650.47 15.0262 1651 15.9871 1651.5 15.976C1652.01 15.9646 1652.51 15.7949 1653.02 15.7836C1653.52 15.7711 1653.99 13.7599 1654.49 13.7474C1655 13.7361 1655.51 14.2222 1656.02 14.1996C1656.52 14.177 1657.05 14.8335 1657.55 14.8109C1658.06 14.7883 1658.56 14.8677 1659.07 14.8451C1659.57 14.8225 1660.07 14.5729 1660.57 14.5502C1661.08 14.5276 1661.55 13.7022 1662.06 13.6791C1662.56 13.6565 1663.1 14.5842 1663.6 14.5619C1664.11 14.5393 1664.62 14.7652 1665.13 14.7426C1665.63 14.7199 1666.13 14.4035 1666.63 14.3695C1667.14 14.3356 1667.62 13.9962 1668.14 13.9623C1668.65 13.9283 1669.15 13.8716 1669.65 13.849C1670.16 13.8262 1670.62 12.9663 1671.13 12.9437C1671.63 12.9212 1672.15 13.2158 1672.65 13.182C1673.16 13.1481 1673.66 13.2042 1674.17 13.1703C1674.67 13.1367 1675.24 14.3018 1675.74 14.2679C1676.25 14.234 1676.65 12.5593 1677.16 12.514C1677.66 12.4688 1678.28 14.3694 1678.78 14.3246C1679.29 14.2793 1679.81 14.5616 1680.32 14.5277C1680.82 14.4936 1681.24 13.0343 1681.73 13.0004C1682.23 12.9667 1682.81 14.0753 1683.32 14.0306C1683.82 13.9854 1684.28 13.2611 1684.78 13.2045C1685.29 13.1479 1685.84 13.8606 1686.35 13.8041C1686.85 13.7475 1687.25 12.2207 1687.75 12.1752C1688.26 12.1299 1688.8 12.6614 1689.31 12.6049C1689.81 12.5483 1690.34 12.7966 1690.84 12.7513C1691.35 12.7064 1691.91 13.4533 1692.42 13.3969C1692.92 13.3403 1693.41 13.0912 1693.91 13.0345C1694.42 12.978 1694.9 12.7748 1695.41 12.7181C1695.91 12.6616 1696.28 11.055 1696.79 10.9984C1697.29 10.9422 1697.91 12.1526 1698.41 12.0961C1698.92 12.0395 1699.41 11.9368 1699.92 11.8802C1700.42 11.8236 1700.87 11.2015 1701.37 11.1449C1701.88 11.0883 1702.35 10.7942 1702.86 10.7377C1703.36 10.6812 1703.88 10.7948 1704.38 10.7269C1704.89 10.6591 1705.45 11.2356 1705.96 11.1791C1706.46 11.1222 1706.92 10.5907 1707.41 10.5228C1707.91 10.455 1708.39 10.1722 1708.9 10.1156C1709.4 10.059 1709.88 9.788 1710.38 9.72009C1710.89 9.65222 1711.54 11.0438 1712.04 10.976C1712.53 10.9077 1712.92 9.66315 1713.42 9.59509C1713.93 9.52722 1714.33 8.6338 1714.84 8.5658C1715.34 8.49793 1715.96 9.50488 1716.46 9.42615C1716.97 9.34697 1717.52 9.74286 1718.03 9.67517C1718.53 9.60729 1719.06 9.70846 1719.55 9.62927C1720.05 9.55005 1720.54 9.30123 1721.04 9.22205C1721.53 9.14254 1721.85 7.4233 1722.35 7.34412C1722.86 7.26575 1723.52 8.62215 1724.03 8.54333C1724.53 8.46416 1725.01 8.19288 1725.51 8.11365C1726.02 8.03448 1726.44 7.33279 1726.95 7.2533C1727.45 7.17411 1728 7.50298 1728.5 7.41248C1729.01 7.32164 1729.42 6.49555 1729.92 6.41638C1730.42 6.33838 1731.15 8.04535 1731.64 7.96619C1732.14 7.88665 1732.42 6.06618 1732.93 5.98669C1733.43 5.9075 1734.02 6.48483 1734.52 6.40564C1735.03 6.3264 1735.47 5.82832 1735.98 5.73767C1736.48 5.64717 1737.49 6.25786 1738 6.16736V388.629H1738.41V1935.91H-351.59V399.1H-352L-351.644 360.534C-351.139 360.477 -350.337 360.964 -350.079 361.789C-349.574 361.699 -349.871 361.191 -349.376 361.1C-348.881 361.009 -348.307 361.472 -347.802 361.382C-347.297 361.292 -346.732 361.722 -346.227 361.631C-345.722 361.54 -345.346 360.534 -344.851 360.444C-344.356 360.353 -343.633 361.823 -343.138 361.733C-342.643 361.642 -342.127 361.574 -341.632 361.484C-341.137 361.393 -340.632 361.27 -340.137 361.179C-339.642 361.089 -339.186 360.613 -338.691 360.523C-338.196 360.432 -337.919 358.747 -337.424 358.645C-336.929 358.543 -336.226 359.81 -335.721 359.708C-335.216 359.607 -334.869 358.464 -334.374 358.362C-333.879 358.26 -333.423 357.83 -332.918 357.728C-332.413 357.626 -331.601 359.595 -331.105 359.504C-330.611 359.413 -330.423 357.208 -329.928 357.106C-329.433 357.004 -328.897 357.084 -328.402 356.982C-327.907 356.88 -327.125 358.52 -326.63 358.418C-326.135 358.316 -325.818 357.027 -325.312 356.925C-324.808 356.823 -324.312 356.711 -323.817 356.609C-323.322 356.507 -322.877 356.043 -322.372 355.941C-321.867 355.839 -321.421 355.409 -320.926 355.307C-320.431 355.205 -319.926 355.092 -319.431 354.991C-318.936 354.889 -318.351 355.274 -317.856 355.161C-317.361 355.047 -316.847 355.013 -316.352 354.911C-315.856 354.81 -315.133 355.963 -314.638 355.85C-314.143 355.736 -313.846 354.437 -313.351 354.324C-312.855 354.21 -312.37 354.018 -311.875 353.905C-311.38 353.792 -310.766 354.323 -310.271 354.21C-309.776 354.097 -309.419 353.192 -308.914 353.078C-308.409 352.966 -307.756 353.735 -307.261 353.621C-306.766 353.508 -306.508 352.027 -306.013 351.913C-305.518 351.801 -304.775 353.011 -304.28 352.898C-303.785 352.785 -303.161 353.339 -302.666 353.214C-302.171 353.09 -302.062 350.907 -301.566 350.783C-301.071 350.658 -300.547 350.691 -300.052 350.567C-299.557 350.443 -298.695 352.218 -298.2 352.094C-297.705 351.97 -297.397 350.872 -296.902 350.737C-296.408 350.601 -295.923 350.409 -295.428 350.285C-294.933 350.16 -294.447 349.956 -293.962 349.831C-293.477 349.707 -292.892 349.945 -292.407 349.809C-291.922 349.673 -291.397 349.628 -290.912 349.493C-290.427 349.357 -289.932 349.187 -289.437 349.051C-288.941 348.915 -288.634 347.875 -288.149 347.739C-287.664 347.603 -287.148 347.558 -286.653 347.422C-286.158 347.287 -285.624 347.377 -285.129 347.242C-284.634 347.106 -284.069 347.298 -283.584 347.162C-283.099 347.027 -282.643 346.664 -282.158 346.517C-281.673 346.37 -281.366 345.386 -280.871 345.239C-280.376 345.092 -279.494 346.71 -279.009 346.563C-278.524 346.416 -278.345 344.854 -277.86 344.707C-277.375 344.56 -276.523 345.975 -276.038 345.828C-275.553 345.68 -275.068 345.465 -274.583 345.318C-274.098 345.171 -273.978 343.406 -273.493 343.259C-273.008 343.113 -272.098 344.718 -271.612 344.56C-271.127 344.402 -270.601 344.379 -270.116 344.221C-269.631 344.062 -269.275 343.349 -268.79 343.191C-268.305 343.032 -267.681 343.395 -267.195 343.247C-266.71 343.1 -266.334 342.467 -265.849 342.309C-265.364 342.151 -264.74 342.524 -264.255 342.366C-263.77 342.207 -263.789 340.046 -263.304 339.888C-262.819 339.73 -262.145 340.306 -261.66 340.137C-261.175 339.967 -260.452 340.725 -259.967 340.555C-259.482 340.385 -259.432 338.553 -258.946 338.383C-258.461 338.214 -257.887 338.383 -257.412 338.203C-256.937 338.022 -256.065 339.254 -255.59 339.084C-255.115 338.915 -254.698 338.451 -254.213 338.282C-253.728 338.112 -253.341 337.568 -252.866 337.399C-252.391 337.229 -251.757 337.557 -251.282 337.376C-250.807 337.195 -250.758 335.442 -250.282 335.272C-249.807 335.102 -248.758 336.889 -248.282 336.709C-247.807 336.528 -247.579 335.43 -247.104 335.249C-246.628 335.068 -246.381 334.073 -245.896 333.892C-245.41 333.711 -244.589 334.706 -244.113 334.526C-243.638 334.345 -243.054 334.503 -242.568 334.311C-242.083 334.119 -241.845 333.134 -241.37 332.942C-240.895 332.749 -240.182 333.338 -239.696 333.157C-239.211 332.975 -239.092 331.607 -238.617 331.414C-238.142 331.222 -237.736 330.792 -237.261 330.6C-236.785 330.408 -235.933 331.392 -235.458 331.2C-234.983 331.007 -234.488 330.86 -234.003 330.667C-233.518 330.475 -233.171 329.876 -232.695 329.684C-232.22 329.492 -231.913 328.745 -231.438 328.541C-230.962 328.338 -230.13 329.22 -229.665 329.016C-229.2 328.812 -228.982 327.783 -228.507 327.579C-228.032 327.376 -227.487 327.364 -227.021 327.161C-226.556 326.957 -225.794 327.568 -225.328 327.365C-224.863 327.161 -224.803 325.691 -224.328 325.487C-223.853 325.283 -223.605 324.412 -223.13 324.197C-222.655 323.982 -222.05 324.174 -221.575 323.97C-221.1 323.767 -220.486 323.97 -220.011 323.767C-219.535 323.563 -219.208 322.941 -218.732 322.726C-218.257 322.511 -217.822 322.217 -217.347 322.002C-216.871 321.787 -216.396 321.595 -215.931 321.38C-215.465 321.165 -214.851 321.334 -214.386 321.12C-213.92 320.905 -213.385 320.86 -212.91 320.645C-212.435 320.43 -211.742 320.836 -211.276 320.621C-210.811 320.406 -210.791 318.925 -210.326 318.699C-209.861 318.472 -209.256 318.619 -208.791 318.393C-208.326 318.167 -207.484 318.947 -207.019 318.721C-206.553 318.495 -206.533 317.059 -206.067 316.832C-205.602 316.606 -205.147 316.356 -204.682 316.13C-204.216 315.904 -203.344 316.764 -202.879 316.537C-202.414 316.311 -202.166 315.509 -201.701 315.283C-201.236 315.056 -200.522 315.475 -200.057 315.248C-199.591 315.022 -199.344 314.218 -198.879 313.981C-198.413 313.743 -197.69 314.207 -197.225 313.981C-196.759 313.755 -196.443 313.133 -195.978 312.907C-195.512 312.68 -195.373 311.605 -194.907 311.368C-194.442 311.131 -193.521 312.092 -193.065 311.855C-192.61 311.617 -192.63 310.123 -192.165 309.897C-191.7 309.671 -190.778 310.632 -190.312 310.395C-189.847 310.157 -189.54 309.523 -189.075 309.297C-188.61 309.071 -188.085 308.992 -187.619 308.754C-187.154 308.517 -186.758 308.132 -186.293 307.895C-185.828 307.657 -185.649 306.707 -185.184 306.469C-184.718 306.232 -184.351 305.768 -183.886 305.531C-183.42 305.293 -182.619 305.949 -182.153 305.711C-181.688 305.474 -180.985 305.858 -180.529 305.62C-180.074 305.383 -180.014 304.094 -179.559 303.868C-179.103 303.641 -178.717 303.189 -178.262 302.952C-177.806 302.714 -176.876 303.686 -176.41 303.449C-175.945 303.211 -175.667 302.533 -175.202 302.295C-174.737 302.058 -174.221 301.966 -173.766 301.729C-173.31 301.492 -172.756 301.48 -172.301 301.243C-171.845 301.005 -171.25 301.095 -170.795 300.858C-170.34 300.62 -170.25 299.41 -169.795 299.184C-169.339 298.958 -169.012 298.37 -168.547 298.132C-168.081 297.895 -167.131 298.946 -166.666 298.72C-166.201 298.494 -166.032 297.51 -165.566 297.284C-165.101 297.057 -164.775 296.48 -164.31 296.243C-163.844 296.005 -163.705 294.93 -163.25 294.703C-162.794 294.477 -161.843 295.519 -161.378 295.292C-160.913 295.066 -160.754 294.036 -160.289 293.81C-159.824 293.584 -159.437 293.154 -158.972 292.928C-158.506 292.702 -158.081 292.373 -157.615 292.147C-157.15 291.921 -156.437 292.384 -155.972 292.147C-155.506 291.909 -154.634 292.804 -154.169 292.578C-153.704 292.351 -153.921 290.292 -153.456 290.066C-152.991 289.84 -151.843 291.501 -151.377 291.276C-150.912 291.049 -150.475 290.767 -150.01 290.552C-149.544 290.337 -149.257 289.613 -148.792 289.398C-148.327 289.183 -147.822 289.081 -147.347 288.867C-146.871 288.652 -146.297 288.776 -145.821 288.561C-145.346 288.346 -145.198 287.249 -144.732 287.034C-144.267 286.819 -143.455 287.599 -142.979 287.384C-142.504 287.169 -142.553 285.506 -142.078 285.291C-141.603 285.076 -141.118 284.929 -140.652 284.714C-140.187 284.499 -139.662 284.455 -139.187 284.24C-138.711 284.025 -138.265 283.776 -137.79 283.561C-137.315 283.346 -136.701 283.583 -136.226 283.379C-135.75 283.176 -135.176 283.289 -134.711 283.085C-134.246 282.882 -134.106 281.66 -133.631 281.456C-133.156 281.253 -132.551 281.479 -132.076 281.276C-131.601 281.072 -131.324 280.268 -130.858 280.065C-130.393 279.861 -129.868 279.805 -129.393 279.601C-128.918 279.397 -128.581 278.776 -128.105 278.583C-127.63 278.391 -126.571 280.053 -126.096 279.862C-125.62 279.669 -125.551 278.199 -125.075 278.006C-124.6 277.814 -124.155 277.52 -123.68 277.328C-123.204 277.135 -122.867 276.479 -122.392 276.286C-121.917 276.094 -121.402 276.038 -120.917 275.857C-120.432 275.676 -119.441 277.236 -118.956 277.044C-118.471 276.852 -118.411 275.302 -117.936 275.121C-117.46 274.941 -116.896 275.042 -116.411 274.861C-115.926 274.68 -115.658 273.787 -115.183 273.606C-114.707 273.425 -114.044 273.866 -113.559 273.685C-113.074 273.504 -112.351 274.216 -111.866 274.036C-111.381 273.855 -110.984 273.425 -110.499 273.244C-110.014 273.062 -109.796 271.965 -109.311 271.795C-108.826 271.626 -108.192 272.033 -107.707 271.864C-107.222 271.694 -106.607 272.01 -106.122 271.84C-105.637 271.67 -105.26 271.139 -104.775 270.969C-104.29 270.799 -103.835 270.528 -103.359 270.359C-102.884 270.189 -102.161 270.913 -101.676 270.744C-101.191 270.573 -101.211 268.493 -100.726 268.323C-100.241 268.153 -99.7058 268.175 -99.2207 268.017C-98.7355 267.859 -97.9725 268.775 -97.4873 268.617C-97.0021 268.458 -96.8338 267.033 -96.3486 266.874C-95.8634 266.716 -95.2988 266.874 -94.8037 266.727C-94.3086 266.58 -93.5359 267.598 -93.0508 267.44C-92.5656 267.282 -92.0408 267.282 -91.5557 267.123C-91.0705 266.965 -90.6248 266.636 -90.1396 266.478C-89.6547 266.32 -89.2488 265.856 -88.7539 265.698C-88.2588 265.539 -87.8721 265.019 -87.377 264.871C-86.8819 264.725 -86.1689 265.585 -85.6738 265.438C-85.1787 265.291 -85.0498 263.627 -84.5547 263.48C-84.0596 263.333 -83.3466 264.215 -82.8516 264.079C-82.3565 263.944 -82.1385 262.598 -81.6533 262.451C-81.1682 262.303 -80.7128 261.987 -80.2178 261.851C-79.7227 261.715 -78.8116 263.503 -78.3164 263.368C-77.8214 263.232 -77.5341 262.179 -77.0391 262.043C-76.5441 261.908 -76.2468 260.879 -75.752 260.743C-75.2569 260.607 -74.7812 260.426 -74.2861 260.29C-73.791 260.155 -73.1963 260.505 -72.7012 260.37C-72.206 260.234 -71.4335 261.466 -70.9385 261.33C-70.4437 261.194 -70.2156 259.815 -69.7207 259.691C-69.2258 259.567 -68.6122 260.075 -68.1172 259.94C-67.6221 259.804 -67.1162 259.781 -66.6211 259.657C-66.1261 259.532 -65.6903 259.137 -65.1953 259.012C-64.7003 258.888 -64.0868 259.418 -63.5918 259.294C-63.0967 259.17 -62.5811 259.181 -62.0859 259.057C-61.5909 258.932 -61.2441 258.073 -60.749 257.949C-60.2541 257.824 -59.8582 257.235 -59.3633 257.111C-58.8683 256.986 -58.5115 256.139 -58.0166 256.014C-57.5216 255.89 -56.7492 257.302 -56.2441 257.19C-55.7391 257.077 -55.2236 257.122 -54.7285 257.009C-54.2335 256.896 -53.7978 256.466 -53.3027 256.353C-52.8077 256.24 -52.2433 256.534 -51.7383 256.421C-51.2333 256.308 -51.0252 254.623 -50.5303 254.509C-50.0352 254.396 -49.5693 254.091 -49.0742 253.978C-48.5791 253.865 -48.0246 254.091 -47.5195 253.978C-47.0145 253.865 -46.5986 253.344 -46.1035 253.231C-45.6084 253.118 -44.8554 254.498 -44.3604 254.385C-43.8655 254.271 -43.6082 252.71 -43.1133 252.597C-42.6182 252.484 -41.8652 253.909 -41.3701 253.796C-40.8751 253.683 -40.2909 254.091 -39.7959 253.978C-39.3008 253.865 -39.0234 252.427 -38.5283 252.326C-38.0332 252.224 -37.5382 252.133 -37.0332 252.02C-36.5282 251.907 -35.835 253.106 -35.3398 253.004C-34.8449 252.902 -34.4783 251.953 -33.9834 251.851C-33.4883 251.749 -33.1115 250.867 -32.6064 250.765C-32.1014 250.663 -31.5469 250.968 -31.0518 250.867C-30.5567 250.765 -29.8935 251.714 -29.3984 251.613C-28.9034 251.511 -28.4082 251.398 -27.9033 251.296C-27.3984 251.194 -27.1208 249.622 -26.626 249.52C-26.1309 249.418 -25.5361 249.904 -25.041 249.814C-24.546 249.723 -24.1005 249.203 -23.6055 249.113C-23.1104 249.022 -22.5851 249.102 -22.0801 249.011C-21.5752 248.921 -21.001 249.407 -20.4961 249.317C-19.9911 249.226 -19.6046 248.366 -19.0996 248.276C-18.5947 248.185 -18.1689 247.552 -17.6641 247.461C-17.159 247.371 -16.6436 247.404 -16.1484 247.314C-15.6533 247.224 -14.8808 249.057 -14.3857 248.966C-13.8908 248.875 -13.5938 247.236 -13.0889 247.145C-12.5839 247.054 -12.0294 247.371 -11.5244 247.281C-11.0194 247.19 -10.4944 247.28 -9.97949 247.19C-9.46457 247.099 -8.92969 247.371 -8.43457 247.291C-7.93964 247.212 -7.4744 246.749 -6.97949 246.669C-6.48438 246.59 -5.84 247.563 -5.33496 247.484C-4.83005 247.404 -4.36429 247.065 -3.85938 246.975C-3.38623 246.89 -3.00867 246.04 -2.55566 245.869L-2.37207 245.818C-1.91873 245.641 -1.5408 244.742 -1.06738 244.667C-0.562347 244.588 0.16098 246.319 0.666016 246.24C1.17084 246.16 1.54703 244.984 2.04199 244.905C2.53711 244.825 3.14145 245.549 3.64648 245.47C4.1514 245.391 4.53802 244.283 5.04297 244.203C5.54782 244.125 6.14163 244.882 6.64648 244.803C7.15137 244.724 7.71579 245.175 8.2207 245.108C8.72574 245.04 9.15234 244.225 9.64746 244.158C10.1424 244.09 10.7462 244.836 11.251 244.769C11.7559 244.701 12.0929 243.084 12.5977 243.015C13.1027 242.947 13.5985 242.766 14.1035 242.687C14.6083 242.608 15.1231 242.676 15.6279 242.608C16.133 242.54 16.7871 243.875 17.2822 243.807C17.7773 243.739 18.2822 243.626 18.7871 243.558C19.292 243.49 19.7969 243.468 20.3018 243.411C20.8068 243.355 21.243 242.608 21.748 242.54C22.253 242.473 22.8173 243.049 23.3223 242.981C23.8273 242.913 24.3329 242.891 24.8379 242.834C25.3427 242.778 25.798 242.19 26.3027 242.133C26.8078 242.077 27.3036 241.941 27.8086 241.884C28.3134 241.827 28.7686 241.16 29.2734 241.103C29.7784 241.046 30.3036 241.159 30.8086 241.103C31.3136 241.046 31.7694 240.379 32.2744 240.323C32.7793 240.266 33.3633 241.182 33.8682 241.137C34.3732 241.092 34.9383 241.737 35.4434 241.68C35.9482 241.623 36.3936 240.753 36.8984 240.707C37.4034 240.662 37.879 240.108 38.374 240.063C38.8691 240.018 39.4139 240.311 39.9189 240.266C40.424 240.221 41.0283 241.465 41.5234 241.409C42.0183 241.352 42.4737 240.481 42.9785 240.436C43.4834 240.391 44.0381 241.012 44.543 240.967C45.0479 240.922 45.5234 240.47 46.0283 240.424C46.5334 240.379 46.95 238.818 47.4551 238.785C47.96 238.751 48.5341 239.813 49.0391 239.768C49.544 239.723 50.1084 240.583 50.6035 240.537C51.0985 240.492 51.5342 238.966 52.0391 238.931C52.544 238.897 53.1385 240.379 53.6436 240.345C54.1485 240.311 54.5645 238.558 55.0693 238.524C55.5744 238.49 56.1395 239.587 56.6445 239.565C57.1493 239.542 57.6144 238.536 58.1191 238.501C58.6241 238.467 59.1395 238.626 59.6445 238.603C60.1496 238.58 60.6846 239.022 61.1797 238.999C61.6747 238.977 62.2197 239.486 62.7246 239.463C63.2295 239.44 63.7148 238.84 64.2197 238.818C64.7247 238.795 65.2099 238.003 65.7148 237.981C66.2198 237.958 66.7352 238.184 67.2402 238.161C67.7451 238.139 68.25 237.823 68.7549 237.8C69.2599 237.778 69.785 238.354 70.29 238.331C70.795 238.309 71.29 237.743 71.7949 237.732C72.2998 237.72 72.8047 237.551 73.3096 237.539C73.8146 237.528 74.3397 238.241 74.8447 238.218C75.3498 238.196 75.8748 239.18 76.3799 239.168C76.8848 239.157 77.3896 239.168 77.8945 239.146C78.3996 239.123 78.8954 237.97 79.4004 237.97C79.9052 237.97 80.42 238.037 80.9248 238.026C81.4298 238.014 81.9354 237.744 82.4404 237.744C82.9453 237.743 83.4601 237.607 83.9551 237.596C84.4502 237.585 84.9754 237.63 85.4805 237.63C85.9854 237.631 86.4902 239.078 86.9951 239.078C87.5 239.078 88.0049 239.316 88.5098 239.316C89.0148 239.316 89.5302 237.754 90.0352 237.754C90.5401 237.754 91.0351 239.214 91.54 239.214C92.0451 239.214 92.5604 238.456 93.0654 238.467C93.5703 238.478 94.0851 238.332 94.5801 238.343C95.0752 238.354 95.5908 238.773 96.0859 238.785C96.5809 238.796 97.0859 239.316 97.5908 239.328C98.0958 239.339 98.6405 237.89 99.1455 237.902C99.6505 237.913 100.136 238.954 100.641 238.965C101.146 238.977 101.651 239.113 102.156 239.135C102.661 239.157 103.226 237.506 103.73 237.529C104.235 237.552 104.681 239.395 105.196 239.417C105.711 239.44 106.206 239.474 106.711 239.496C107.216 239.519 107.731 239.474 108.236 239.496C108.741 239.518 109.306 238.298 109.811 238.321C110.315 238.344 110.781 239.305 111.286 239.328C111.791 239.35 112.306 239.327 112.811 239.35C113.316 239.373 113.841 239.134 114.346 239.168C114.851 239.202 115.297 240.323 115.802 240.357C116.275 240.388 116.766 240.103 117.241 240.104L117.431 240.112C117.906 240.113 118.397 239.827 118.871 239.859C119.376 239.893 119.842 240.561 120.347 240.606C120.852 240.651 121.377 240.436 121.882 240.481C122.387 240.526 122.941 239.859 123.446 239.893C123.951 239.927 124.406 240.674 124.911 240.719C125.416 240.764 126.03 239.316 126.535 239.361C127.04 239.406 127.506 240.074 128.001 240.12C128.496 240.165 129.041 239.791 129.546 239.836C130.051 239.882 130.566 239.78 131.071 239.836C131.576 239.893 131.983 241.216 132.478 241.273C132.972 241.329 133.527 240.923 134.021 240.979C134.517 241.035 135.101 240.244 135.606 240.3C136.111 240.357 136.607 240.549 137.102 240.606C137.597 240.662 138.072 241.126 138.577 241.183C139.082 241.24 139.498 242.28 139.993 242.348C140.488 242.416 141.132 240.99 141.637 241.058C142.142 241.126 142.518 242.495 143.023 242.551C143.528 242.607 144.182 241.104 144.687 241.16C145.192 241.216 145.558 242.721 146.063 242.788C146.568 242.856 147.202 241.545 147.707 241.613C148.212 241.681 148.688 242.076 149.183 242.144C149.678 242.212 150.173 242.473 150.668 242.54C151.163 242.608 151.668 242.744 152.173 242.812C152.678 242.88 153.173 243.049 153.668 243.117C154.163 243.184 154.55 244.395 155.055 244.463C155.56 244.531 156.064 244.509 156.569 244.577C157.074 244.644 157.619 244.272 158.124 244.339C158.629 244.407 159.253 243.333 159.758 243.411C160.263 243.491 160.62 244.859 161.125 244.927C161.63 244.995 162.135 245.007 162.64 245.075C163.145 245.142 163.799 243.74 164.304 243.819C164.809 243.898 165.215 244.78 165.72 244.848C166.225 244.916 166.75 244.712 167.255 244.78C167.76 244.848 168.116 246.194 168.621 246.262C169.126 246.33 169.661 246.024 170.166 246.092C170.671 246.16 171.186 246.081 171.681 246.149C172.176 246.217 172.721 245.957 173.216 246.025C173.711 246.093 174.285 245.526 174.79 245.594C175.295 245.662 175.711 246.488 176.216 246.556C176.721 246.624 177.216 246.737 177.711 246.805C178.206 246.873 178.731 246.782 179.236 246.85C179.741 246.918 180.315 246.285 180.811 246.353C181.306 246.421 181.791 246.692 182.286 246.76C182.781 246.828 183.326 246.545 183.821 246.613C184.316 246.681 184.663 248.332 185.158 248.4C185.653 248.468 186.287 247.303 186.782 247.37C187.277 247.439 187.653 248.818 188.158 248.875C188.663 248.932 189.198 248.66 189.693 248.728C190.188 248.796 190.693 248.91 191.188 248.966C191.684 249.023 192.199 249.011 192.704 249.078C193.209 249.146 193.704 249.204 194.209 249.26C194.714 249.317 195.288 248.582 195.783 248.638C196.278 248.695 196.685 249.905 197.18 249.973C197.675 250.041 198.308 248.592 198.813 248.649C199.318 248.705 199.665 250.481 200.17 250.538C200.675 250.595 201.319 248.943 201.814 248.989C202.309 249.034 202.775 249.633 203.27 249.69C203.765 249.746 204.25 250.063 204.755 250.109C205.26 250.154 205.805 249.566 206.31 249.611C206.815 249.656 207.201 251.183 207.706 251.228C208.211 251.273 208.696 251.5 209.201 251.545C209.706 251.591 210.241 251.138 210.746 251.183C211.251 251.228 211.815 250.301 212.32 250.346C212.825 250.391 213.32 250.436 213.825 250.47C214.33 250.504 214.766 251.546 215.271 251.579C215.776 251.613 216.351 250.448 216.855 250.482C217.36 250.516 217.816 251.319 218.321 251.353C218.826 251.387 219.292 251.998 219.797 252.032C220.302 252.066 220.807 252.031 221.312 252.054C221.817 252.077 222.401 250.425 222.906 250.459C223.411 250.493 223.887 250.968 224.392 250.991C224.896 251.013 225.322 252.721 225.827 252.755C226.332 252.789 226.848 252.461 227.353 252.484C227.857 252.506 228.362 252.382 228.867 252.405C229.372 252.427 229.907 251.614 230.412 251.636C230.917 251.659 231.383 252.858 231.888 252.88C232.393 252.903 232.937 251.409 233.442 251.432C233.947 251.455 234.413 252.665 234.918 252.676C235.423 252.688 235.908 253.31 236.413 253.322C236.918 253.333 237.433 252.869 237.938 252.88C238.443 252.892 238.938 253.208 239.443 253.219C239.948 253.23 240.464 252.315 240.979 252.315C241.493 252.315 241.979 252.778 242.483 252.789C242.988 252.801 243.503 251.377 244.008 251.387C244.513 251.398 245.009 251.975 245.514 251.987C246.019 251.998 246.514 253.039 247.019 253.05C247.524 253.061 248.029 251.466 248.534 251.466C249.039 251.467 249.544 252.699 250.049 252.699C250.554 252.699 251.059 252.676 251.563 252.676C252.068 252.676 252.564 251.851 253.069 251.839C253.574 251.828 254.079 252.314 254.584 252.303C255.089 252.292 255.595 252.71 256.1 252.699C256.604 252.687 257.09 251.703 257.604 251.703C258.119 251.704 258.624 252.235 259.129 252.224C259.634 252.213 260.12 251.421 260.625 251.41C261.13 251.399 261.654 252.348 262.159 252.326C262.664 252.303 263.18 252.79 263.685 252.767C264.189 252.744 264.694 252.609 265.199 252.586C265.704 252.564 266.18 251.648 266.685 251.636C267.19 251.625 267.695 251.545 268.2 251.523C268.674 251.502 269.155 251.818 269.63 251.839H269.819C270.294 251.86 270.776 252.177 271.25 252.156C271.755 252.133 272.26 252.145 272.765 252.111C273.27 252.077 273.795 252.496 274.3 252.473C274.805 252.45 275.241 250.799 275.746 250.765C276.251 250.731 276.756 250.821 277.261 250.787C277.766 250.754 278.35 252.439 278.855 252.405C279.36 252.371 279.865 252.371 280.37 252.337C280.875 252.303 281.36 251.975 281.865 251.941C282.37 251.907 282.855 251.67 283.36 251.636C283.865 251.602 284.271 249.951 284.776 249.916C285.281 249.882 285.905 251.872 286.41 251.828C286.915 251.782 287.332 250.426 287.837 250.38C288.342 250.335 288.797 249.611 289.302 249.577C289.807 249.543 290.421 251.16 290.926 251.116C291.431 251.07 291.927 250.923 292.432 250.877C292.936 250.832 293.392 250.142 293.896 250.085C294.401 250.029 294.946 250.606 295.451 250.561C295.956 250.516 296.472 250.686 296.977 250.629C297.481 250.573 297.848 248.809 298.353 248.751C298.858 248.695 299.383 249.034 299.888 248.989C300.393 248.943 300.858 248.491 301.363 248.434C301.868 248.377 302.363 248.264 302.868 248.207C303.373 248.151 303.968 249.226 304.473 249.169C304.978 249.113 305.433 248.592 305.948 248.536C306.463 248.479 307.048 249.452 307.553 249.396C308.058 249.339 308.503 248.661 309.008 248.604C309.513 248.547 310.107 249.487 310.612 249.43C311.117 249.373 311.523 248.253 312.028 248.197C312.533 248.14 313.058 248.287 313.563 248.231C314.068 248.174 314.444 246.885 314.949 246.817C315.454 246.749 316.068 247.913 316.573 247.857C317.078 247.8 317.484 246.861 317.989 246.793C318.494 246.725 318.96 246.318 319.455 246.25C319.95 246.183 320.594 247.393 321.099 247.326C321.604 247.258 322.029 246.545 322.534 246.477C323.039 246.409 323.653 247.382 324.158 247.303C324.663 247.224 325.149 246.986 325.645 246.907C326.139 246.827 326.516 245.572 327.021 245.504C327.525 245.436 328.228 247.133 328.733 247.054C329.238 246.975 329.704 246.625 330.209 246.545C330.714 246.466 331.012 244.723 331.517 244.644C332.021 244.565 332.536 244.69 333.041 244.611C333.546 244.532 334.061 244.587 334.566 244.508C335.071 244.429 335.566 244.35 336.071 244.271C336.576 244.192 337.061 244.011 337.566 243.92C338.071 243.83 338.785 245.481 339.29 245.402C339.795 245.322 340.271 245.018 340.775 244.939C341.28 244.86 341.735 244.406 342.24 244.316C342.745 244.225 343.151 243.446 343.656 243.355C344.161 243.264 344.746 243.75 345.251 243.671C345.756 243.592 346.172 242.834 346.667 242.755C347.162 242.676 347.617 242.178 348.112 242.087C348.607 241.997 349.152 242.189 349.647 242.099C350.142 242.009 350.736 242.562 351.231 242.472C351.726 242.382 352.281 242.619 352.776 242.529C353.271 242.438 353.816 242.619 354.312 242.529C354.807 242.438 355.193 241.488 355.688 241.398C356.184 241.308 356.857 242.382 357.352 242.291C357.847 242.201 358.352 242.088 358.847 241.997C359.342 241.907 359.639 240.312 360.134 240.209C360.629 240.108 361.184 240.346 361.688 240.255C362.193 240.165 362.808 240.843 363.312 240.742C363.817 240.64 364.164 239.509 364.659 239.407C365.154 239.305 365.68 239.35 366.185 239.248C366.69 239.147 367.105 238.512 367.601 238.411C368.096 238.309 368.69 238.796 369.195 238.694C369.7 238.592 370.116 237.969 370.611 237.868C371.106 237.766 371.7 238.196 372.195 238.094C372.69 237.992 373.394 239.089 373.889 238.988C374.384 238.886 374.661 237.37 375.156 237.268C375.651 237.166 376.325 238.083 376.82 237.981C377.315 237.878 377.642 236.703 378.137 236.589C378.632 236.476 379.256 237.065 379.751 236.963C380.246 236.861 380.642 236.125 381.147 236.012C381.652 235.899 382.246 236.363 382.741 236.25C383.236 236.137 383.603 235.232 384.098 235.119C384.593 235.005 385.148 235.198 385.643 235.074C386.138 234.949 386.653 234.949 387.148 234.825C387.643 234.7 388.089 234.259 388.584 234.146C389.079 234.033 389.663 234.372 390.158 234.259C390.653 234.146 391.05 233.467 391.545 233.342C392.04 233.218 392.743 234.18 393.238 234.067C393.733 233.953 394.021 232.676 394.506 232.551C394.991 232.427 395.743 233.602 396.238 233.49C396.733 233.376 397.278 233.456 397.764 233.331C398.249 233.207 398.793 233.252 399.288 233.127C399.783 233.003 400.19 232.381 400.675 232.256C401.16 232.132 401.467 230.978 401.952 230.842C402.437 230.706 402.962 230.695 403.457 230.571C403.952 230.446 404.636 231.238 405.131 231.103C405.626 230.967 406.181 231.103 406.666 230.967C407.151 230.831 407.27 228.863 407.765 228.727C408.26 228.591 408.953 229.417 409.448 229.282C409.943 229.146 410.607 229.79 411.092 229.655C411.577 229.519 411.904 228.58 412.399 228.433C412.894 228.286 413.34 227.969 413.835 227.822C414.33 227.675 415.073 228.67 415.559 228.535C416.043 228.398 416.113 226.319 416.598 226.182C417.083 226.046 418.044 227.936 418.529 227.788C419.014 227.641 419.054 225.481 419.539 225.333C420.024 225.186 420.539 225.118 421.024 224.971C421.51 224.824 422.352 226.17 422.847 226.023C423.342 225.876 423.698 225.186 424.184 225.039C424.669 224.892 424.956 223.874 425.44 223.727C425.926 223.58 426.411 223.399 426.896 223.241C427.382 223.082 427.808 222.674 428.293 222.516C428.778 222.358 429.6 223.534 430.085 223.376C430.57 223.218 430.907 222.46 431.393 222.301C431.878 222.143 432.451 222.301 432.937 222.154C433.422 222.007 433.888 221.736 434.373 221.578C434.858 221.419 435.096 220.288 435.581 220.129C436.066 219.971 436.571 219.891 437.057 219.733C437.542 219.575 438.394 220.774 438.879 220.604C439.364 220.434 439.928 220.559 440.413 220.389C440.898 220.219 440.918 218.343 441.403 218.172C441.888 218.003 442.829 219.495 443.314 219.326C443.8 219.156 443.939 217.753 444.424 217.583C444.909 217.414 445.315 216.984 445.8 216.803C446.285 216.622 446.879 216.86 447.354 216.679C447.83 216.498 448.722 217.731 449.197 217.55C449.672 217.369 449.672 215.514 450.157 215.332C450.642 215.151 451.375 215.864 451.86 215.683C452.346 215.502 452.831 215.343 453.307 215.162C453.782 214.982 454.425 215.31 454.9 215.129C455.376 214.948 455.495 213.556 455.98 213.364C456.466 213.172 457.049 213.363 457.524 213.171C458 212.979 458.268 212.085 458.743 211.893C459.218 211.701 459.823 211.916 460.308 211.724C460.793 211.532 461.169 211.033 461.645 210.829C462.12 210.626 462.466 210.015 462.941 209.812C463.417 209.608 464.526 211.384 465.001 211.181C465.476 210.977 465.328 208.84 465.803 208.635C466.278 208.432 467.209 209.642 467.685 209.439C468.16 209.235 468.823 209.608 469.299 209.405C469.774 209.201 469.913 207.979 470.388 207.764C470.863 207.549 471.032 206.43 471.497 206.226C471.962 206.022 472.646 206.429 473.121 206.226C473.596 206.022 473.973 205.536 474.448 205.321C474.924 205.106 475.657 205.671 476.132 205.467C476.607 205.264 477.26 205.569 477.726 205.355C478.191 205.14 478.696 205.003 479.161 204.788C479.627 204.574 479.746 203.34 480.211 203.125C480.676 202.91 481.083 202.493 481.548 202.278C482.013 202.063 482.618 202.198 483.083 201.983C483.548 201.768 483.756 200.795 484.222 200.58C484.687 200.365 485.282 200.49 485.747 200.264C486.213 200.038 487.203 201.225 487.668 201.01C488.133 200.795 488.054 199.064 488.52 198.838C488.985 198.612 489.411 198.273 489.876 198.046C490.341 197.82 490.708 197.334 491.173 197.108C491.638 196.882 492.331 197.277 492.797 197.051C493.262 196.825 493.5 195.999 493.966 195.773C494.431 195.547 495.441 196.756 495.906 196.531C496.372 196.304 496.947 196.349 497.412 196.112C497.877 195.874 498.323 195.603 498.788 195.366C499.253 195.128 499.224 193.612 499.689 193.374C500.155 193.137 501.214 194.46 501.67 194.222C502.125 193.984 501.908 191.971 502.373 191.734C502.838 191.496 503.769 192.48 504.234 192.254C504.7 192.028 504.789 190.817 505.255 190.591C505.72 190.365 506.691 191.451 507.156 191.213C507.621 190.975 507.74 189.868 508.205 189.641C508.67 189.415 508.79 188.307 509.255 188.069C509.72 187.831 510.167 187.559 510.622 187.322C511.078 187.085 512.186 188.498 512.651 188.26C513.117 188.023 513.266 187.005 513.731 186.767C514.197 186.529 514.434 185.737 514.899 185.511C515.365 185.285 516.177 185.964 516.643 185.727C517.108 185.489 517.86 186.009 518.315 185.772C518.771 185.534 518.94 184.527 519.396 184.289C519.851 184.052 520.227 183.599 520.692 183.362C521.158 183.124 521.495 182.581 521.96 182.355C522.425 182.129 522.841 181.767 523.297 181.54C523.752 181.314 524.515 181.824 524.971 181.586C525.426 181.349 525.822 180.929 526.277 180.692C526.733 180.454 527.238 180.331 527.703 180.093C528.139 179.87 528.707 180.015 529.159 179.838L529.337 179.758C529.787 179.575 530.337 179.67 530.764 179.448C531.219 179.21 531.507 178.508 531.962 178.271C532.417 178.033 532.605 177.083 533.07 176.857C533.536 176.631 534.437 177.581 534.902 177.343C535.368 177.106 535.705 176.574 536.17 176.336C536.635 176.099 537.21 176.178 537.675 175.953C538.14 175.726 538.269 174.629 538.734 174.403C539.2 174.176 539.804 174.334 540.27 174.108C540.735 173.882 541.052 173.282 541.518 173.056C541.983 172.83 542.775 173.52 543.24 173.293C543.706 173.067 544.171 172.863 544.637 172.637C545.102 172.41 544.865 170.262 545.33 170.047C545.795 169.832 546.399 169.99 546.864 169.776C547.33 169.561 548.142 170.296 548.607 170.07C549.073 169.843 549.697 170.092 550.172 169.877C550.647 169.662 550.994 169.13 551.459 168.915C551.924 168.7 551.925 167.139 552.391 166.924C552.856 166.711 553.954 168.315 554.43 168.101C554.905 167.886 554.717 165.804 555.192 165.589C555.668 165.374 556.084 165.024 556.549 164.809C557.014 164.594 558.074 166.132 558.55 165.917C559.025 165.702 559.134 164.447 559.6 164.232C560.065 164.017 560.481 163.655 560.956 163.452C561.431 163.248 562.234 164.051 562.709 163.847C563.184 163.643 563.452 162.818 563.917 162.615C564.382 162.411 564.64 161.528 565.115 161.325C565.591 161.122 566.59 162.58 567.065 162.376C567.541 162.173 567.442 160.194 567.917 159.99C568.392 159.786 569.373 161.212 569.849 161.008C570.324 160.804 570.591 159.967 571.066 159.775C571.542 159.582 571.859 158.881 572.334 158.689C572.809 158.496 573.186 157.965 573.661 157.784C574.136 157.603 574.849 158.168 575.324 157.976C575.8 157.784 576.612 158.7 577.087 158.519C577.562 158.338 577.424 156.086 577.909 155.894C578.394 155.702 579.097 156.313 579.582 156.132C580.067 155.951 580.672 156.234 581.157 156.053C581.642 155.872 582.048 155.453 582.523 155.272C582.999 155.091 583.326 154.356 583.801 154.186C584.276 154.016 585.068 154.944 585.554 154.763C586.039 154.582 586.118 152.986 586.604 152.817C587.089 152.647 587.534 152.365 588.02 152.184C588.505 152.003 589.099 152.275 589.584 152.105C590.069 151.935 590.712 152.353 591.188 152.184C591.663 152.014 592.089 151.618 592.574 151.449C593.059 151.279 593.812 152.138 594.297 151.969C594.782 151.799 594.773 149.763 595.258 149.593C595.743 149.423 596.565 150.565 597.05 150.408C597.535 150.249 597.832 149.355 598.317 149.197C598.803 149.038 599.209 148.575 599.704 148.416C600.199 148.258 600.922 149.084 601.407 148.925C601.892 148.767 602.209 147.953 602.704 147.794C603.199 147.636 604.012 148.835 604.497 148.688C604.982 148.541 605.487 148.473 605.982 148.326C606.477 148.178 606.586 146.483 607.081 146.335C607.576 146.188 608.062 146.063 608.557 145.916C609.052 145.769 609.686 146.267 610.171 146.12C610.656 145.973 611.32 146.572 611.805 146.425C612.29 146.278 612.735 145.95 613.23 145.803C613.726 145.656 614.251 145.701 614.736 145.554C615.221 145.407 615.509 144.355 616.004 144.219C616.499 144.083 616.756 142.895 617.241 142.748C617.726 142.601 618.231 142.499 618.727 142.364C619.222 142.228 619.826 142.646 620.321 142.499C620.816 142.353 621.568 143.495 622.063 143.36C622.559 143.224 623.074 143.235 623.569 143.099C624.064 142.962 624.203 141.142 624.698 141.006C625.193 140.871 625.926 141.923 626.411 141.798C626.896 141.674 627.401 141.606 627.896 141.482C628.392 141.357 628.798 140.836 629.293 140.701C629.788 140.565 630.411 141.142 630.906 141.006C631.401 140.87 631.729 139.966 632.224 139.841C632.719 139.717 633.293 140.034 633.788 139.91C634.283 139.785 634.857 140.101 635.353 139.977C635.848 139.853 636.195 138.971 636.689 138.846C637.185 138.722 637.809 139.298 638.304 139.174C638.799 139.05 639.076 137.76 639.571 137.647C640.066 137.534 640.542 137.319 641.037 137.205C641.532 137.092 641.948 136.538 642.443 136.425C642.938 136.312 643.483 136.458 643.978 136.345C644.473 136.232 645.226 137.578 645.721 137.465C646.216 137.352 646.622 136.764 647.127 136.651C647.632 136.537 647.969 135.542 648.464 135.429C648.959 135.316 649.395 134.864 649.899 134.75C650.404 134.637 651.028 135.35 651.533 135.237C652.038 135.124 652.425 134.4 652.92 134.286C653.415 134.174 654.099 135.18 654.594 135.078C655.089 134.976 655.405 133.755 655.91 133.653C656.415 133.551 656.98 133.901 657.475 133.788C657.97 133.675 658.337 132.759 658.832 132.646C659.327 132.534 660.099 134.138 660.594 134.037C661.089 133.936 661.327 132.182 661.832 132.08C662.337 131.979 662.951 132.691 663.456 132.589C663.961 132.487 664.377 131.9 664.882 131.798C665.387 131.696 665.932 131.911 666.427 131.821C666.922 131.73 667.496 132.126 668.001 132.036C668.506 131.945 669.091 132.477 669.596 132.386C670.101 132.296 670.497 131.515 670.992 131.413C671.487 131.311 671.873 130.429 672.378 130.338C672.883 130.248 673.497 131.006 674.002 130.915C674.507 130.825 674.992 130.644 675.487 130.553C675.982 130.463 676.597 131.176 677.102 131.085C677.606 130.995 678.111 130.983 678.616 130.893C679.121 130.802 679.508 129.92 680.013 129.829C680.518 129.739 680.864 128.574 681.369 128.483C681.874 128.392 682.37 128.291 682.875 128.201C683.38 128.111 684.083 129.547 684.588 129.456C685.093 129.366 685.39 127.681 685.895 127.589C686.4 127.499 687.113 129.071 687.608 128.981C688.103 128.89 688.43 127.387 688.925 127.307C689.42 127.228 690.044 127.985 690.539 127.906C691.034 127.826 691.49 127.25 691.985 127.16C692.48 127.069 693.025 127.25 693.529 127.16C694.034 127.069 694.53 126.933 695.035 126.854C695.54 126.775 695.985 126.22 696.49 126.141C696.995 126.062 697.57 126.548 698.065 126.469C698.56 126.39 699.085 126.424 699.59 126.345C700.095 126.266 700.6 126.209 701.105 126.13C701.61 126.051 702.135 126.163 702.64 126.084C703.145 126.005 703.541 124.977 704.046 124.909C704.551 124.841 705.026 124.467 705.531 124.388C706.036 124.309 706.641 125.157 707.146 125.089C707.651 125.021 708.265 125.96 708.77 125.892C709.275 125.824 709.621 124.252 710.126 124.184C710.631 124.116 711.195 124.557 711.69 124.49C712.186 124.422 712.691 124.298 713.196 124.23C713.701 124.162 714.226 124.32 714.73 124.252C715.235 124.184 715.672 123.415 716.177 123.347C716.682 123.279 717.315 124.535 717.82 124.467C718.325 124.399 718.791 123.89 719.296 123.833C719.801 123.777 720.375 124.41 720.87 124.354C721.365 124.297 721.752 122.77 722.247 122.713C722.742 122.657 723.316 123.256 723.821 123.2C724.326 123.143 724.842 123.2 725.347 123.132C725.852 123.065 726.406 123.63 726.911 123.574C727.416 123.517 727.871 122.85 728.376 122.804C728.881 122.759 729.396 122.782 729.901 122.725C730.406 122.668 730.961 123.188 731.466 123.143C731.971 123.098 732.338 121.288 732.843 121.243C733.348 121.198 733.922 122.057 734.427 122.012C734.932 121.967 735.467 122.239 735.972 122.182C736.477 122.126 737.021 122.668 737.526 122.612C738.031 122.555 738.477 121.662 738.981 121.617C739.486 121.571 740.002 121.65 740.507 121.605C741.012 121.56 741.438 120.237 741.942 120.191C742.447 120.146 743.082 122.092 743.587 122.046C744.092 122.001 744.577 121.627 745.082 121.593C745.587 121.559 746.082 121.322 746.587 121.288C747.092 121.255 747.637 121.809 748.142 121.775C748.647 121.741 749.093 120.587 749.598 120.553C750.103 120.519 750.638 120.971 751.143 120.937C751.647 120.903 752.152 120.87 752.657 120.847C753.162 120.824 753.598 119.298 754.103 119.275C754.608 119.252 755.182 120.722 755.688 120.7C756.193 120.677 756.678 120.055 757.183 120.033C757.688 120.01 758.203 120.191 758.708 120.157C759.213 120.123 759.718 119.976 760.223 119.953C760.728 119.931 761.213 119.308 761.718 119.286C762.223 119.263 762.767 120.315 763.272 120.292C763.777 120.27 764.263 119.524 764.768 119.512C765.273 119.501 765.798 119.885 766.303 119.863C766.808 119.84 767.312 119.614 767.817 119.603C768.322 119.592 768.828 119.331 769.333 119.32C769.838 119.308 770.353 119.286 770.848 119.275C771.343 119.263 771.858 119.139 772.363 119.127C772.868 119.116 773.394 120.338 773.898 120.327C774.403 120.315 774.908 120.327 775.413 120.327C775.918 120.326 776.413 118.551 776.918 118.55C777.423 118.55 777.938 118.856 778.443 118.856C778.948 118.856 779.463 118.947 779.968 118.947C780.473 118.947 780.988 118.607 781.493 118.607C781.998 118.607 782.514 118.675 783.019 118.675C783.523 118.676 784.028 120.406 784.533 120.406C785.038 120.406 785.554 118.901 786.059 118.901C786.563 118.901 787.078 118.754 787.583 118.765C788.088 118.776 788.583 120.043 789.088 120.055C789.593 120.066 790.118 119.274 790.613 119.286C791.108 119.297 791.623 119.524 792.128 119.546C792.633 119.569 793.129 120.19 793.634 120.202C794.139 120.213 794.644 120.157 795.148 120.168C795.653 120.18 796.148 120.767 796.653 120.79C797.158 120.813 797.664 120.711 798.169 120.722C798.642 120.733 799.142 120.187 799.619 120.128L799.809 120.117C800.285 120.049 800.785 119.434 801.259 119.455C801.764 119.478 802.249 120.225 802.754 120.247C803.259 120.27 803.813 119.241 804.318 119.275C804.823 119.309 805.338 119.342 805.843 119.376C806.348 119.41 806.813 120.44 807.318 120.474C807.823 120.508 808.349 120.293 808.854 120.327C809.359 120.36 809.884 120.009 810.389 120.043C810.893 120.078 811.349 121.186 811.854 121.22C812.359 121.254 812.943 119.896 813.448 119.93C813.953 119.964 814.409 120.96 814.914 120.994C815.419 121.027 815.974 120.315 816.479 120.361C816.984 120.406 817.39 121.978 817.895 122.012C818.399 122.046 818.904 122.125 819.409 122.17C819.914 122.216 820.499 121.084 821.004 121.129C821.509 121.175 822.073 120.417 822.578 120.462C823.083 120.508 823.45 122.498 823.955 122.555C824.46 122.611 825.034 121.707 825.539 121.752C826.044 121.798 826.579 121.435 827.084 121.492C827.589 121.548 827.995 122.826 828.5 122.871C829.005 122.917 829.55 122.431 830.055 122.488C830.56 122.544 831.135 121.741 831.64 121.797C832.144 121.854 832.59 122.578 833.095 122.634C833.6 122.691 834.016 123.675 834.521 123.732C835.025 123.788 835.659 122.341 836.164 122.397C836.669 122.453 837.165 122.578 837.67 122.646C838.175 122.714 838.591 123.675 839.096 123.743C839.601 123.81 840.244 122.386 840.749 122.442C841.254 122.498 841.729 122.906 842.234 122.962C842.739 123.019 843.097 124.557 843.602 124.625C844.106 124.693 844.641 124.444 845.146 124.512C845.65 124.58 846.106 125.055 846.611 125.112C847.116 125.168 847.622 125.214 848.127 125.282C848.632 125.349 849.226 124.535 849.721 124.603C850.216 124.671 850.701 124.965 851.206 125.033C851.711 125.1 852.157 125.723 852.652 125.79C853.147 125.858 853.831 124.264 854.336 124.331C854.841 124.4 855.237 125.416 855.741 125.485C856.246 125.553 856.722 125.836 857.227 125.915C857.731 125.995 858.197 126.357 858.702 126.436C859.207 126.515 859.723 126.435 860.228 126.492C860.733 126.548 861.208 126.82 861.713 126.899C862.218 126.978 862.891 125.406 863.396 125.474C863.901 125.542 864.188 127.533 864.693 127.601C865.198 127.669 865.803 126.786 866.298 126.854C866.793 126.922 867.248 127.476 867.743 127.544C868.238 127.612 868.733 127.782 869.238 127.85C869.743 127.918 870.18 128.562 870.685 128.63C871.189 128.698 871.912 126.696 872.407 126.763C872.902 126.831 873.318 127.748 873.823 127.816C874.328 127.884 874.903 127.25 875.398 127.318C875.893 127.386 876.389 127.578 876.884 127.646C877.379 127.715 877.705 129.478 878.21 129.546C878.715 129.614 879.26 129.173 879.765 129.241C880.27 129.308 880.745 129.535 881.25 129.603C881.755 129.671 882.379 128.484 882.874 128.551C883.369 128.619 883.775 129.716 884.271 129.773C884.766 129.829 885.201 130.632 885.706 130.689C886.211 130.745 886.717 130.79 887.212 130.847C887.707 130.903 888.331 129.716 888.836 129.773C889.341 129.83 889.796 130.35 890.301 130.407C890.806 130.463 891.232 131.311 891.737 131.368C892.242 131.424 892.826 130.543 893.331 130.599C893.836 130.656 894.302 131.13 894.797 131.187C895.292 131.243 895.777 131.515 896.282 131.572C896.787 131.628 897.292 131.571 897.797 131.617C898.302 131.662 898.867 130.882 899.372 130.927C899.877 130.973 900.343 131.402 900.848 131.458C901.353 131.515 901.828 131.821 902.333 131.877C902.838 131.934 903.304 132.386 903.809 132.431C904.314 132.475 904.947 130.689 905.452 130.735C905.957 130.781 906.354 132.318 906.858 132.364C907.363 132.408 907.968 130.882 908.473 130.927C908.977 130.973 909.443 131.503 909.947 131.537C910.452 131.571 910.908 132.329 911.413 132.374C911.918 132.42 912.374 133.268 912.879 133.302C913.384 133.336 913.998 131.39 914.503 131.424C915.008 131.458 915.443 132.702 915.948 132.737C916.453 132.771 916.899 133.8 917.404 133.834C917.909 133.868 918.474 132.59 918.979 132.623C919.484 132.657 919.93 133.823 920.435 133.857C920.939 133.89 921.504 132.386 922.009 132.409C922.514 132.431 923.009 132.465 923.514 132.499C924.019 132.533 924.515 132.578 925.02 132.601C925.524 132.624 926 133.314 926.505 133.336C927.01 133.359 927.495 133.857 928 133.879C928.505 133.902 929.01 134.015 929.515 134.027C930.02 134.038 930.555 132.93 931.06 132.941C931.565 132.952 932.03 134.309 932.535 134.321C933.04 134.332 933.575 133.065 934.08 133.077C934.585 133.088 935.07 133.777 935.575 133.788C936.08 133.8 936.575 134.637 937.08 134.649C937.585 134.66 938.1 134.162 938.605 134.173C939.11 134.184 939.625 133.19 940.13 133.201C940.635 133.212 941.131 134.366 941.636 134.366C942.141 134.366 942.646 134.502 943.15 134.513C943.655 134.524 944.161 133.891 944.666 133.891C945.171 133.891 945.676 133.788 946.181 133.788C946.686 133.788 947.181 132.545 947.686 132.534C948.191 132.522 948.706 134.332 949.211 134.321C949.716 134.309 950.221 133.959 950.726 133.958C951.231 133.958 951.736 133.959 952.241 133.948C952.746 133.936 953.231 132.624 953.736 132.613C954.241 132.602 954.766 133.823 955.271 133.812C955.776 133.8 956.262 133.042 956.776 133.031C957.291 133.019 957.797 133.732 958.312 133.721C958.826 133.71 959.312 133.178 959.816 133.166C960.321 133.155 960.837 133.63 961.342 133.608C961.847 133.584 962.312 132.387 962.816 132.364C963.321 132.341 963.827 132.409 964.332 132.398C964.837 132.387 965.342 132.556 965.847 132.534C966.352 132.511 966.877 133.189 967.382 133.166C967.887 133.144 968.362 132.318 968.867 132.295C969.372 132.273 969.897 132.793 970.402 132.759C970.907 132.725 971.373 131.877 971.878 131.843C972.383 131.809 972.878 131.719 973.383 131.685C973.888 131.651 974.432 132.601 974.947 132.567C975.462 132.533 975.928 131.99 976.433 131.945C976.938 131.899 977.532 133.619 978.037 133.585C978.542 133.551 979.017 132.997 979.522 132.963C980.027 132.929 980.483 132.036 980.987 132.001C981.492 131.967 982.057 132.951 982.562 132.917C983.067 132.883 983.553 132.533 984.058 132.499C984.563 132.466 985.088 132.861 985.593 132.816C986.098 132.77 986.573 132.409 987.078 132.364C987.583 132.318 988.068 132.069 988.573 132.024C989.078 131.978 989.484 130.542 989.989 130.496C990.494 130.451 990.999 130.474 991.504 130.429C992.009 130.384 992.534 130.689 993.039 130.644C993.544 130.599 994.049 130.598 994.554 130.553C995.059 130.508 995.515 129.909 996.02 129.864C996.524 129.818 997.158 131.446 997.663 131.402C998.168 131.356 998.545 129.761 999.05 129.704C999.555 129.648 1000.11 130.259 1000.61 130.203C1001.12 130.146 1001.56 129.41 1002.07 129.354C1002.59 129.297 1003.08 129.332 1003.58 129.264C1004.09 129.196 1004.74 130.825 1005.25 130.768C1005.75 130.711 1006.27 130.824 1006.77 130.768C1007.28 130.711 1007.67 129.501 1008.18 129.433C1008.68 129.365 1009.09 128.359 1009.6 128.29C1010.1 128.223 1010.69 129.117 1011.19 129.049C1011.7 128.981 1012.17 128.743 1012.68 128.675C1013.18 128.607 1013.69 128.607 1014.19 128.539C1014.7 128.472 1015.24 128.879 1015.75 128.811C1016.25 128.743 1016.66 127.805 1017.16 127.737C1017.67 127.669 1018.18 127.805 1018.69 127.737C1019.19 127.669 1019.71 127.77 1020.21 127.703C1020.72 127.635 1021.37 128.925 1021.88 128.857C1022.38 128.789 1022.85 128.415 1023.35 128.347C1023.86 128.279 1024.21 126.923 1024.72 126.843C1025.22 126.764 1025.85 127.747 1026.35 127.668C1026.86 127.589 1027.24 126.583 1027.75 126.515C1028.25 126.447 1028.77 126.515 1029.27 126.447C1029.78 126.378 1030.17 125.485 1030.68 125.406C1031.18 125.328 1031.92 127.148 1032.42 127.058C1032.93 126.967 1033.19 124.988 1033.7 124.909C1034.2 124.829 1034.71 124.818 1035.21 124.739C1035.72 124.66 1036.26 124.909 1036.77 124.829C1037.27 124.751 1037.94 125.915 1038.44 125.836C1038.95 125.757 1039.29 124.456 1039.8 124.376C1040.3 124.298 1040.91 124.964 1041.41 124.874C1041.92 124.784 1042.32 123.97 1042.82 123.89C1043.31 123.811 1043.93 124.546 1044.43 124.455C1044.94 124.365 1045.36 123.777 1045.87 123.686C1046.37 123.595 1046.89 123.618 1047.38 123.528C1047.88 123.437 1048.26 122.443 1048.76 122.352C1049.25 122.261 1049.92 123.336 1050.42 123.245C1050.93 123.155 1051.28 122.012 1051.78 121.921C1052.29 121.831 1053.06 123.652 1053.55 123.562C1054.05 123.471 1054.33 121.763 1054.82 121.672C1055.32 121.582 1055.8 121.322 1056.3 121.22C1056.79 121.118 1057.53 122.612 1058.03 122.51C1058.52 122.408 1058.83 120.937 1059.33 120.835C1059.82 120.734 1060.49 121.729 1060.99 121.627C1061.48 121.526 1061.97 121.288 1062.47 121.186C1062.98 121.084 1063.32 119.953 1063.82 119.851C1064.33 119.749 1064.87 119.964 1065.37 119.851C1065.86 119.738 1066.35 119.535 1066.85 119.433C1067.36 119.331 1068.01 120.247 1068.52 120.134C1069.02 120.021 1069.43 119.331 1069.92 119.229C1070.42 119.127 1070.89 118.834 1071.39 118.732C1071.88 118.63 1072.49 119.138 1072.99 119.036C1073.5 118.935 1073.97 118.72 1074.48 118.619C1074.98 118.517 1075.25 117.035 1075.74 116.921C1076.24 116.808 1076.77 116.887 1077.27 116.786C1077.76 116.684 1078.4 117.318 1078.89 117.204C1079.39 117.091 1079.89 117 1080.39 116.887C1080.88 116.774 1081.21 115.689 1081.71 115.564C1082.2 115.439 1082.91 116.514 1083.41 116.39C1083.9 116.266 1084.47 116.492 1084.96 116.39C1085.46 116.288 1085.96 116.197 1086.46 116.084C1086.95 115.971 1087.38 115.44 1087.88 115.327C1088.37 115.213 1088.79 114.659 1089.28 114.535C1089.78 114.411 1090.5 115.485 1090.99 115.371C1091.49 115.258 1091.87 114.477 1092.36 114.353C1092.86 114.228 1093.24 113.516 1093.74 113.392C1094.23 113.268 1094.8 113.482 1095.29 113.358C1095.79 113.233 1096.08 112.113 1096.58 111.989C1097.07 111.864 1097.58 111.807 1098.07 111.683C1098.57 111.559 1099.3 112.599 1099.8 112.464C1100.29 112.328 1100.78 112.125 1101.26 112C1101.75 111.876 1102.18 111.401 1102.68 111.265C1103.17 111.129 1103.75 111.378 1104.24 111.243C1104.74 111.107 1105.23 111.004 1105.73 110.869C1106.22 110.733 1106.9 111.435 1107.39 111.299C1107.89 111.163 1107.99 109.218 1108.48 109.081C1108.98 108.946 1109.51 109.013 1110.01 108.877C1110.5 108.741 1110.91 108.21 1111.39 108.075C1111.88 107.94 1112.67 109.104 1113.16 108.957C1113.64 108.81 1114.15 108.708 1114.64 108.561C1115.14 108.414 1115.38 107.215 1115.87 107.068C1116.35 106.921 1116.99 107.373 1117.47 107.226C1117.96 107.079 1118.21 105.892 1118.7 105.745C1119.2 105.598 1119.96 106.626 1120.44 106.468C1120.93 106.31 1121.26 105.484 1121.74 105.326C1122.23 105.167 1122.58 104.454 1123.07 104.307C1123.55 104.16 1124.28 104.94 1124.76 104.793C1125.25 104.646 1125.76 104.568 1126.25 104.41C1126.73 104.251 1127.1 103.594 1127.58 103.436C1128.07 103.277 1128.49 102.871 1128.98 102.712C1129.46 102.554 1130.06 102.814 1130.54 102.656C1131.03 102.497 1131.47 102.169 1131.96 101.999C1132.45 101.83 1133.14 102.463 1133.62 102.305C1134.11 102.147 1134.43 101.343 1134.91 101.173C1135.4 101.004 1135.73 100.291 1136.22 100.121C1136.7 99.9521 1137.42 100.642 1137.9 100.461C1138.39 100.28 1138.77 99.7599 1139.25 99.5902C1139.72 99.4211 1140.59 100.585 1141.07 100.405C1141.56 100.224 1141.67 98.7644 1142.16 98.5834C1142.65 98.4024 1143.09 98.1193 1143.58 97.9496C1144.06 97.7799 1144.54 97.587 1145.02 97.4174C1145.51 97.2477 1146.41 98.5036 1146.88 98.3226C1147.36 98.1413 1147.64 97.2147 1148.11 97.0336C1148.59 96.8526 1148.97 96.3093 1149.45 96.1283C1149.92 95.9473 1150.38 95.6413 1150.85 95.4603C1151.33 95.2794 1151.82 95.1213 1152.3 94.9291C1152.78 94.7368 1153.31 94.7365 1153.79 94.5443C1154.28 94.352 1154.47 93.2318 1154.94 93.0394C1155.42 92.8476 1156.19 93.5823 1156.67 93.39C1157.14 93.1977 1157.46 92.4622 1157.93 92.2699C1158.41 92.0776 1158.87 91.8182 1159.34 91.6146C1159.82 91.411 1160.73 92.5641 1161.2 92.3607C1161.68 92.1571 1161.91 91.1845 1162.38 90.9808C1162.86 90.7772 1163.53 91.1845 1164 90.9808C1164.48 90.777 1164.44 89.0005 1164.91 88.7855C1165.37 88.5716 1166.24 89.5549 1166.72 89.3519C1167.19 89.1483 1167.48 88.3784 1167.95 88.1635C1168.41 87.9491 1169.14 88.503 1169.62 88.2885C1170.09 88.0735 1170.21 86.8512 1170.69 86.6361C1171.16 86.4212 1171.89 86.9643 1172.36 86.7494C1172.84 86.5345 1173.41 86.6362 1173.89 86.4213C1174.36 86.2061 1174.63 85.4145 1175.1 85.1996C1175.56 84.9851 1176.41 85.8442 1176.89 85.6293C1177.36 85.4142 1177.52 84.3399 1178 84.1136C1178.47 83.8873 1178.81 83.3335 1179.28 83.1185C1179.76 82.9037 1180.12 82.3834 1180.58 82.1683C1181.05 81.9534 1181.48 81.6362 1181.95 81.4213C1182.41 81.2064 1182.98 81.252 1183.44 81.0258C1183.91 80.7996 1184.71 81.4888 1185.18 81.2631C1185.64 81.0368 1185.77 79.8938 1186.24 79.6674C1186.7 79.4411 1187.3 79.5547 1187.76 79.3285C1188.23 79.1023 1188.46 78.2543 1188.93 78.0277C1189.39 77.8015 1190.48 79.2377 1190.95 79.0121C1191.41 78.7858 1191.65 77.9596 1192.12 77.722C1192.58 77.4846 1193.16 77.5406 1193.62 77.3031C1194.09 77.0653 1194.09 75.6186 1194.55 75.392C1195.02 75.1658 1195.95 76.1601 1196.42 75.9232C1196.88 75.6856 1196.84 74.1358 1197.3 73.9095C1197.75 73.6834 1198.85 75.0626 1199.32 74.8373C1199.78 74.6111 1199.7 72.9709 1200.17 72.7328C1200.63 72.4952 1201.5 73.2985 1201.96 73.0609C1202.43 72.8234 1202.96 72.7784 1203.43 72.5521C1203.89 72.3258 1204.25 71.8277 1204.71 71.5902C1205.18 71.3523 1205.03 69.5543 1205.49 69.3168C1205.94 69.0795 1207.05 70.5033 1207.52 70.267C1207.98 70.0294 1208.41 69.7125 1208.86 69.475C1209.32 69.2368 1209.22 67.5634 1209.68 67.3256C1210.15 67.088 1211.25 68.502 1211.71 68.2758C1212.18 68.0495 1212.47 67.3815 1212.93 67.1439C1213.4 66.9064 1213.89 66.7598 1214.35 66.5336C1214.8 66.3074 1214.74 64.7134 1215.21 64.475C1215.68 64.2374 1216.14 64.0332 1216.61 63.807C1217.07 63.5807 1218.17 64.9835 1218.64 64.7572C1219.1 64.5308 1219.38 63.8297 1219.84 63.5922C1220.31 63.3545 1220.42 62.235 1220.88 61.9974C1221.35 61.76 1222.12 62.359 1222.59 62.1215C1223.05 61.8842 1223.74 62.2342 1224.19 62.0082C1224.65 61.7819 1224.42 59.734 1224.88 59.4965C1225.33 59.2592 1226.49 60.8307 1226.95 60.5941C1227.42 60.3566 1227.69 59.6326 1228.15 59.3949C1228.62 59.1573 1228.93 58.569 1229.4 58.3314C1229.87 58.0939 1230.15 57.4265 1230.62 57.1888C1231.08 56.9513 1231.9 57.6637 1232.36 57.4261C1232.83 57.1885 1233.15 56.6231 1233.62 56.3969C1234.08 56.171 1234.9 56.8942 1235.36 56.6683C1235.83 56.4421 1235.93 55.2552 1236.39 55.0287C1236.86 54.8025 1237.5 55.0622 1237.97 54.8363C1238.43 54.61 1238.8 54.1235 1239.26 53.9086C1239.73 53.6937 1240.24 53.6142 1240.71 53.3881C1241.17 53.1618 1241.51 52.5958 1241.98 52.3695C1242.44 52.1433 1243.19 52.7315 1243.66 52.5052C1244.13 52.2786 1244.05 50.5483 1244.51 50.3334C1244.98 50.1186 1245.78 50.8419 1246.24 50.6273C1246.71 50.4124 1247.01 49.7114 1247.47 49.4965C1247.94 49.2817 1248.81 50.2195 1249.28 50.0052C1249.76 49.7903 1249.8 48.3651 1250.26 48.1498C1250.73 47.9348 1250.94 46.9731 1251.41 46.7582C1251.89 46.5442 1252.77 47.5727 1253.25 47.3578C1253.72 47.1422 1253.81 45.8416 1254.29 45.6381C1254.76 45.4345 1255.84 47.0409 1256.31 46.8373C1256.77 46.6329 1256.68 44.7332 1257.16 44.5297C1257.63 44.3266 1258.62 45.7172 1259.1 45.514C1259.57 45.3104 1259.74 44.2128 1260.22 44.0092C1260.69 43.8055 1261.08 43.3642 1261.55 43.1605C1262.03 42.9569 1262.49 42.7645 1262.97 42.5609C1263.44 42.3573 1263.84 41.9276 1264.32 41.724C1264.79 41.5204 1265.33 41.5207 1265.8 41.3285C1266.28 41.1362 1266.57 40.3558 1267.05 40.1635C1267.53 39.9712 1268.12 40.1628 1268.6 39.9818C1269.09 39.8013 1269.87 40.6152 1270.35 40.4349C1270.82 40.254 1270.99 39.0436 1271.47 38.851C1271.94 38.6587 1272.69 39.3818 1273.17 39.1898C1273.64 38.9975 1274.08 38.6692 1274.56 38.4769C1275.03 38.2844 1275.3 37.4028 1275.78 37.2103C1276.27 37.018 1276.67 36.5886 1277.15 36.4076C1277.64 36.2269 1278.42 37.1307 1278.9 36.9506C1279.39 36.7696 1279.62 35.7292 1280.1 35.559C1280.59 35.3893 1281.15 35.525 1281.64 35.3441C1282.12 35.1631 1282.84 35.8643 1283.32 35.6947C1283.79 35.5251 1284.07 34.5865 1284.55 34.4164C1285.02 34.2467 1285.49 34.0089 1285.97 33.8392C1286.46 33.6695 1287.12 34.1896 1287.61 34.0199C1288.09 33.8496 1288.23 32.414 1288.72 32.2552C1289.2 32.0969 1289.88 32.6851 1290.37 32.5267C1290.86 32.3684 1291.38 32.38 1291.87 32.2103C1292.35 32.0407 1292.74 31.509 1293.22 31.3392C1293.71 31.1696 1294.11 30.7058 1294.6 30.5472C1295.08 30.3889 1295.51 29.981 1295.99 29.8226C1296.48 29.6643 1297.18 30.3774 1297.67 30.2191C1298.15 30.0607 1298.42 29.0308 1298.92 28.8724C1299.41 28.7144 1300.01 29.0765 1300.5 28.9183C1300.99 28.76 1301.72 29.6191 1302.2 29.472C1302.69 29.325 1303.12 28.9404 1303.61 28.7933C1304.09 28.6463 1304.35 27.5269 1304.85 27.3685C1305.34 27.2105 1306.07 28.1031 1306.55 27.9447C1307.04 27.7863 1307.5 27.538 1307.99 27.391C1308.47 27.2439 1308.79 26.3498 1309.28 26.2025C1309.78 26.0555 1310.26 25.9423 1310.76 25.7953C1311.25 25.6482 1311.95 26.452 1312.44 26.3051C1312.94 26.158 1313.45 26.1913 1313.95 26.0443C1314.44 25.8972 1314.76 25.0033 1315.25 24.8676C1315.75 24.7318 1316.25 24.642 1316.74 24.5062C1317.24 24.3704 1317.54 23.3637 1318.03 23.2279C1318.51 23.0922 1319.19 23.8153 1319.68 23.6801C1320.18 23.5443 1320.81 24.0987 1321.29 23.9633C1321.78 23.8275 1322.14 23.0468 1322.63 22.9222C1323.13 22.7978 1323.48 22.0513 1323.98 21.9154C1324.47 21.7797 1324.96 21.6551 1325.45 21.5306C1325.95 21.4062 1326.65 22.3679 1327.15 22.2435C1327.64 22.1191 1328 21.3045 1328.48 21.1801C1328.97 21.0556 1329.36 20.3652 1329.85 20.2406C1330.35 20.1162 1330.95 20.6033 1331.45 20.4789C1331.94 20.3544 1332.23 19.1658 1332.72 19.0414C1333.22 18.9175 1334.06 20.6931 1334.56 20.5687C1335.07 20.4443 1335.57 20.4328 1336.07 20.3197C1336.56 20.2066 1336.9 19.2572 1337.4 19.1439C1337.89 19.0308 1338.31 18.5106 1338.81 18.3861C1339.32 18.2617 1339.97 19.0871 1340.47 18.974C1340.96 18.86 1341.18 17.175 1341.67 17.0619C1342.17 16.9494 1342.84 17.8426 1343.34 17.7299C1343.83 17.6167 1344.31 17.4016 1344.81 17.2885C1345.32 17.1753 1345.64 16.0895 1346.14 15.9877C1346.65 15.8862 1347.37 17.1633 1347.87 17.0619C1348.38 16.9601 1348.67 15.6252 1349.16 15.5121C1349.66 15.3996 1350.33 16.3264 1350.82 16.2133C1351.32 16.1001 1351.69 15.2188 1352.19 15.1166C1352.7 15.0148 1353.16 14.7428 1353.66 14.641C1354.15 14.5392 1354.77 15.1393 1355.26 15.0375C1355.76 14.9358 1356.36 15.4895 1356.85 15.3881C1357.35 15.2862 1357.59 13.4987 1358.08 13.3969C1358.58 13.2953 1359.27 14.4264 1359.77 14.3246C1360.26 14.2229 1360.79 14.2793 1361.29 14.1888C1361.8 14.0984 1362.09 12.6956 1362.59 12.5931C1363.08 12.4913 1363.59 12.3785 1364.08 12.2767C1364.58 12.1754 1365.22 13.0117 1365.73 12.9213C1366.23 12.8308 1366.75 12.8418 1367.24 12.7513C1367.74 12.6608 1368.29 12.9101 1368.79 12.8197C1369.28 12.7292 1369.63 11.5413 1370.13 11.4506C1370.64 11.3601 1371.08 10.9307 1371.59 10.8402C1372.09 10.7501 1372.82 12.2762 1373.32 12.1752C1373.83 12.0734 1374.33 12.0616 1374.84 11.9711C1375.34 11.8802 1375.66 10.4783 1376.16 10.3871C1376.67 10.2966 1377.16 10.1045 1377.66 10.014C1378.17 9.92398 1378.8 10.8168 1379.3 10.7377C1379.81 10.6584 1380.17 9.53969 1380.68 9.44861C1381.18 9.35813 1381.86 10.5794 1382.37 10.4896C1382.89 10.3991 1383.39 10.4663 1383.9 10.3871C1384.4 10.3078 1384.7 8.61143 1385.2 8.53162C1385.69 8.45243 1386.4 9.93462 1386.91 9.84412C1387.41 9.75348 1387.87 9.33552 1388.37 9.25623C1388.88 9.17706 1389.37 9.00732 1389.87 8.9281C1390.36 8.84892 1390.9 8.97308 1391.4 8.89392C1391.91 8.81473 1392.36 8.27194 1392.86 8.19275C1393.37 8.11364 1393.91 8.37349 1394.42 8.29431C1394.92 8.21465 1395.26 6.7104 1395.76 6.63123C1396.27 6.55261 1396.98 8.25995 1397.48 8.18103C1397.99 8.10184 1398.51 8.23776 1399.02 8.15857C1399.52 8.07921 1399.86 6.55221 1400.37 6.47302C1400.87 6.3939 1401.49 7.37772 1402 7.30994C1402.51 7.24207 1403.06 7.66088 1403.56 7.59314C1404.07 7.52528 1404.35 5.36524 1404.85 5.29626C1405.36 5.22839 1406.05 6.92567 1406.56 6.85779C1407.06 6.79002 1407.59 6.86897 1408.08 6.80115C1408.58 6.73327 1408.97 5.46668 1409.47 5.3988C1409.96 5.3308 1410.44 4.88952 1410.94 4.82166C1411.45 4.75447 1412.12 6.33705 1412.62 6.2699C1413.11 6.20203 1413.6 5.88472 1414.1 5.81677C1414.61 5.74891 1415.09 5.52283 1415.6 5.46619C1416.1 5.40962 1416.46 3.71318 1416.96 3.65662C1417.47 3.60044 1418.15 5.40946 1418.65 5.35291C1419.14 5.29605 1419.61 4.70846 1420.11 4.65173C1420.62 4.59518 1421.16 5.00204 1421.67 4.94568C1422.14 4.89266 1422.57 4.27278 1423.03 4.1488L1423.21 4.11365C1423.68 3.9884 1424.11 3.35839 1424.58 3.30505C1425.07 3.24849 1425.66 4.00656 1426.16 3.9613C1426.67 3.91605 1427.16 3.70149 1427.67 3.6449C1428.17 3.58833 1428.6 2.4456 1429.1 2.38904C1429.61 2.33349 1430.25 4.04072 1430.76 3.99548C1431.26 3.95019 1431.75 3.63352 1432.25 3.58826C1432.76 3.54301 1433.2 2.67159 1433.71 2.62634C1434.21 2.58144 1434.79 3.43017 1435.29 3.38513C1435.8 3.33988 1436.23 2.21945 1436.74 2.17419C1437.24 2.12976 1437.84 3.46354 1438.34 3.43005C1438.85 3.39612 1439.33 3.04577 1439.84 3.00037C1440.34 2.95512 1440.86 3.0343 1441.36 3.00037C1441.87 2.96643 1442.39 3.30579 1442.9 3.27185C1443.4 3.23768 1443.88 2.62707 1444.38 2.59314C1444.89 2.55884 1445.34 1.57434 1445.85 1.54041C1446.35 1.50738 1446.94 2.86426 1447.44 2.83044C1447.95 2.79651 1448.35 0.748613 1448.86 0.725952C1449.36 0.703326 1449.9 1.2013 1450.4 1.16736C1450.91 1.13344 1451.42 1.16748 1451.93 1.1449C1452.43 1.12227 1452.92 0.556766 1453.42 0.522827C1453.93 0.48889 1454.44 0.432173 1454.95 0.409546C1455.45 0.38692 1455.98 0.794476 1456.48 0.771851C1456.99 0.749226 1457.51 1.02006 1458.02 0.997437C1458.52 0.974686 1459.03 0.691954 1459.53 0.669312C1460.04 0.646689 1460.59 2.26476 1461.1 2.24255C1461.6 2.21993 1462.08 1.20137 1462.58 1.18982C1463.09 1.17851 1463.58 0.375894 1464.08 0.352905C1464.57 0.330279 1465.1 0.556195 1465.6 0.533569C1466.11 0.511009 1466.64 1.72123 1467.15 1.69861C1467.65 1.6757 1468.15 0.783261 1468.65 0.771851C1469.16 0.760538 1469.67 0.998007 1470.18 0.986694C1470.68 0.975115 1471.19 0.262231 1471.69 0.262085C1472.2 0.262085 1472.71 0.420859 1473.22 0.409546C1473.72 0.398176 1474.23 0.250954 1474.73 0.239624C1475.24 0.228311 1475.75 1.75525 1476.26 1.75525C1476.76 1.75487 1477.27 0.669587 1477.77 0.669312C1478.28 0.669312 1478.79 0.318726 1479.29 0.318726C1479.78 0.319453 1480.3 1.51835 1480.8 1.52966C1481.31 1.54097 1481.81 1.80043 1482.32 1.81189C1482.82 1.8232 1483.35 0.025037 1483.85 0.0247803C1484.36 0.0247803 1484.87 -0.00899359 1485.38 0.00231934Z" fill="url(#paint0_linear_256_2046)"/>
<defs>
<linearGradient id="paint0_linear_256_2046" x1="513.405" y1="363.605" x2="1203.67" y2="1800.68" gradientUnits="userSpaceOnUse">
<stop stop-color="#F9F7F3"/>
<stop offset="1" stop-color="#EDEBE7"/>
</linearGradient>
</defs>
</svg>
