<svg width="375" height="3302" viewBox="0 0 375 3302" fill="none" xmlns="http://www.w3.org/2000/svg">
<path d="M-20.3418 0.000488281C-20.4868 0.00374596 -20.6265 0.398396 -20.7715 0.401855C-20.9165 0.405114 -21.062 0.398597 -21.207 0.401855C-21.3519 0.404514 -21.5055 0.0597326 -21.6504 0.0629883C-21.7953 0.0665315 -21.9351 0.430497 -22.0771 0.437012C-22.2192 0.4432 -22.3727 0.271321 -22.5176 0.277832C-22.6624 0.284352 -22.8073 0.317174 -22.9521 0.32373C-23.0971 0.330245 -23.2339 0.649006 -23.3789 0.655762C-23.5238 0.662274 -23.6802 0.340115 -23.8252 0.346191C-23.9702 0.352708 -24.1187 0.366042 -24.2637 0.372559C-24.4085 0.379261 -24.5505 0.527954 -24.6953 0.534668C-24.8403 0.541185 -24.9946 0.405104 -25.1396 0.411621C-25.2844 0.418578 -25.4207 0.623336 -25.5654 0.633301C-25.7104 0.643076 -25.8647 0.505361 -26.0098 0.515137C-26.1547 0.524996 -26.2994 0.580567 -26.4443 0.590332C-26.5894 0.600114 -26.729 0.724111 -26.874 0.733887C-27.019 0.743212 -27.1813 0.473142 -27.3262 0.48291C-27.471 0.493323 -27.5934 0.90283 -27.7383 0.912598C-27.8832 0.922365 -28.028 0.936031 -28.1729 0.945801C-28.3177 0.955567 -28.4742 0.770088 -28.6191 0.782715C-28.764 0.795737 -28.9264 0.555318 -29.0713 0.567871C-29.2163 0.580903 -29.356 0.672005 -29.501 0.685059C-29.646 0.698093 -29.7827 0.850735 -29.9277 0.86377C-30.0727 0.876689 -30.232 0.708161 -30.377 0.721191C-30.4858 0.731022 -30.5898 0.799316 -30.6963 0.838379L-30.8574 0.876465C-30.982 0.919199 -31.1003 1.05558 -31.2246 1.06982C-31.3667 1.08571 -31.5289 0.912923 -31.6738 0.929199C-31.8187 0.945774 -31.9469 1.14729 -32.0918 1.16357C-32.2368 1.17928 -32.4186 0.743972 -32.5635 0.760254C-32.7085 0.776641 -32.8168 1.22931 -32.959 1.24561C-33.1011 1.26215 -33.2319 1.47346 -33.374 1.48975C-33.5162 1.50565 -33.7211 0.900216 -33.8633 0.916504C-34.0052 0.933725 -34.0992 1.52913 -34.2441 1.54541C-34.389 1.56165 -34.5367 1.53211 -34.6816 1.54834C-34.8265 1.56462 -34.9858 1.44115 -35.1279 1.46045C-35.2701 1.48 -35.4556 1.11213 -35.6006 1.12842C-35.7455 1.14503 -35.8678 1.39501 -36.0127 1.41455C-36.1576 1.43407 -36.311 1.37263 -36.4531 1.39209C-36.5953 1.41164 -36.7095 1.76316 -36.8545 1.78271C-36.9995 1.80215 -37.1588 1.67235 -37.3037 1.69189C-37.4307 1.7091 -37.5466 1.83133 -37.6689 1.87451L-37.7744 1.8999C-37.8972 1.93823 -38.0157 2.04002 -38.1426 2.05713C-38.2875 2.0762 -38.4722 1.71163 -38.6143 1.73096C-38.7564 1.75051 -38.8931 1.85496 -39.0381 1.87451C-39.183 1.89411 -39.3053 2.11847 -39.4502 2.13818C-39.5951 2.15772 -39.7885 1.72471 -39.9307 1.74365C-40.0728 1.7632 -40.1899 2.0532 -40.335 2.07275C-40.4799 2.09225 -40.6274 2.07343 -40.7695 2.09619C-40.9117 2.119 -41.0571 2.13133 -41.2021 2.15088C-41.3471 2.17035 -41.5005 2.09916 -41.6426 2.11865C-41.7847 2.13819 -41.9409 2.06704 -42.083 2.08643C-42.2252 2.10598 -42.3198 2.60398 -42.4619 2.62354C-42.6039 2.64237 -42.8053 2.13632 -42.9502 2.15479C-43.0952 2.17434 -43.1899 2.64305 -43.335 2.6626C-43.4799 2.68147 -43.6617 2.33056 -43.8066 2.3501C-43.9516 2.36969 -44.0825 2.51024 -44.2246 2.52979C-44.3668 2.54921 -44.5318 2.37938 -44.6768 2.39893C-44.8217 2.41859 -44.9301 2.77065 -45.0723 2.79346C-45.2143 2.81651 -45.3453 2.979 -45.4873 2.99854C-45.6294 3.01818 -45.7661 3.13232 -45.9082 3.15186C-46.0503 3.17119 -46.2095 3.06331 -46.3516 3.07959C-46.4937 3.09579 -46.6674 2.85529 -46.8096 2.87158C-46.9517 2.88775 -47.1051 2.82275 -47.25 2.84229C-47.3948 2.86185 -47.5085 3.16718 -47.6533 3.18408C-47.7983 3.20037 -47.938 3.24981 -48.083 3.26611C-48.228 3.2824 -48.3589 3.42523 -48.5039 3.44482C-48.6489 3.46437 -48.811 3.28894 -48.9531 3.30518C-49.0953 3.32147 -49.2495 3.25959 -49.3916 3.27588C-49.5336 3.29178 -49.6931 3.15218 -49.8379 3.16846C-49.9827 3.18518 -50.105 3.44515 -50.2471 3.46143C-50.3892 3.4776 -50.5659 3.15217 -50.708 3.16846C-50.85 3.18494 -50.9869 3.31136 -51.1289 3.32764C-51.2709 3.34398 -51.4128 3.40214 -51.5576 3.41846C-51.7025 3.43474 -51.859 3.28529 -52.0039 3.30127C-52.1488 3.31755 -52.2741 3.53947 -52.4189 3.55615C-52.564 3.57244 -52.6841 3.89826 -52.8291 3.91455C-52.9741 3.93062 -53.1304 3.77359 -53.2754 3.78662C-53.4203 3.79963 -53.5709 3.71511 -53.7158 3.72803C-53.8607 3.74105 -53.986 4.02121 -54.1309 4.03467C-54.2759 4.0477 -54.4185 4.08023 -54.5635 4.09326C-54.7084 4.10625 -54.859 4.02206 -55.0039 4.03174C-55.1488 4.04151 -55.3053 3.866 -55.4502 3.87549C-55.5952 3.88526 -55.7291 4.05404 -55.874 4.06396C-56.0189 4.07373 -56.1783 3.78703 -56.3232 3.79639C-56.4681 3.80615 -56.5934 4.13574 -56.7383 4.146C-56.8832 4.15577 -57.0172 4.37657 -57.1621 4.3833C-57.3071 4.38982 -57.4585 4.25634 -57.6035 4.26611C-57.7484 4.27601 -57.8903 4.35104 -58.0352 4.36084C-58.1801 4.37061 -58.3365 4.12316 -58.4814 4.12939C-58.6263 4.13591 -58.7828 3.86266 -58.9277 3.86865C-59.0726 3.87516 -59.2037 4.21712 -59.3486 4.22412C-59.4937 4.23064 -59.6362 4.28206 -59.7812 4.28857C-59.9261 4.2951 -60.0681 4.37663 -60.2129 4.3833C-60.3579 4.38982 -60.4977 4.52715 -60.6455 4.53369C-60.7932 4.5402 -60.941 4.30204 -61.0859 4.30811C-61.231 4.31462 -61.3823 4.05061 -61.5273 4.05713C-61.6721 4.06393 -61.8113 4.29471 -61.9561 4.29834C-62.1011 4.3016 -62.2495 4.0734 -62.3945 4.07666C-62.5393 4.08012 -62.6785 4.30149 -62.8232 4.30518C-62.9682 4.30843 -63.108 4.6341 -63.2529 4.63428C-63.3978 4.63428 -63.5485 4.02603 -63.6934 4.0249C-63.8384 4.0249 -63.981 4.05713 -64.1289 4.05713C-64.2766 4.05726 -64.4157 4.38907 -64.5605 4.39307C-64.7056 4.39633 -64.8511 4.40576 -64.9961 4.40576C-65.1409 4.40576 -65.2858 4.41875 -65.4307 4.41553C-65.5757 4.41227 -65.7183 4.01523 -65.8633 4.01514C-66.0081 4.01514 -66.1559 4.55211 -66.3008 4.55322C-66.4458 4.55322 -66.5913 4.62777 -66.7363 4.62451C-66.8813 4.6212 -67.0239 4.243 -67.1689 4.23975C-67.3138 4.2367 -67.4587 4.33479 -67.6035 4.33154C-67.7484 4.32829 -67.899 4.60486 -68.0439 4.60205C-68.189 4.59879 -68.3345 4.54965 -68.4795 4.54639C-68.6245 4.54274 -68.7584 3.96273 -68.9033 3.95947C-69.0482 3.95642 -69.1959 4.09677 -69.3408 4.09033C-69.4857 4.08382 -69.6364 4.27227 -69.7812 4.26611C-69.9263 4.2596 -70.0718 4.2824 -70.2168 4.27588C-70.3616 4.26934 -70.5036 4.19756 -70.6484 4.19092C-70.7934 4.1844 -70.9302 3.94669 -71.0752 3.93994C-71.22 3.93343 -71.3737 4.20076 -71.5186 4.19482C-71.6636 4.18831 -71.812 4.2531 -71.957 4.24658C-72.1019 4.24002 -72.2438 4.14909 -72.3887 4.13916C-72.5337 4.12939 -72.6735 4.03177 -72.8213 4.02197C-72.9692 4.0122 -73.1118 3.99529 -73.2568 3.98877C-73.4016 3.98171 -73.535 3.73492 -73.6797 3.72803C-73.8247 3.72151 -73.9731 3.80616 -74.1182 3.79639C-74.263 3.78665 -74.4079 3.80319 -74.5527 3.79346C-74.6977 3.78369 -74.8599 4.11929 -75.0049 4.10986C-75.1499 4.10009 -75.2671 3.61801 -75.4121 3.60498C-75.557 3.59296 -75.7331 4.13905 -75.8779 4.12646C-76.0228 4.11344 -76.1735 4.19462 -76.3184 4.18506C-76.4634 4.17528 -76.5834 3.7544 -76.7256 3.74463C-76.8677 3.73515 -77.0357 4.05453 -77.1807 4.0415C-77.3256 4.02825 -77.4566 3.81951 -77.6016 3.80322C-77.7465 3.78731 -77.9059 3.99235 -78.0508 3.97607C-78.1956 3.95914 -78.3093 3.52072 -78.4541 3.50732C-78.5991 3.4943 -78.7554 3.6465 -78.9004 3.63037C-79.0454 3.61408 -79.1968 3.68637 -79.3418 3.67334C-79.4867 3.66072 -79.649 3.87516 -79.7939 3.85889C-79.9387 3.84251 -80.0779 3.77072 -80.2227 3.75439C-80.3677 3.7381 -80.5073 3.67987 -80.6523 3.66357C-80.7973 3.64717 -80.9028 3.18475 -81.0479 3.16846C-81.1927 3.15274 -81.3688 3.49993 -81.5137 3.48389C-81.6587 3.46759 -81.8013 3.43866 -81.9463 3.42236C-82.0912 3.40587 -82.2194 3.22673 -82.3643 3.21045C-82.5092 3.1941 -82.6461 3.10955 -82.791 3.09326C-82.9359 3.07708 -83.0836 3.10889 -83.2285 3.08936C-83.3735 3.06997 -83.5357 3.2365 -83.6807 3.22021C-83.8256 3.20384 -83.9565 3.05031 -84.0986 3.03076C-84.2407 3.01117 -84.3804 2.92986 -84.5254 2.91357C-84.6702 2.8972 -84.8064 2.81892 -84.9512 2.79932C-85.0962 2.77977 -85.2846 3.18117 -85.4268 3.16162C-85.5687 3.14165 -85.6794 2.78417 -85.8242 2.76416C-85.9692 2.74461 -86.0864 2.48684 -86.2314 2.46729C-86.3763 2.44826 -86.5524 2.73776 -86.6973 2.71533C-86.8422 2.69253 -87.0015 2.80605 -87.1465 2.78662C-87.2915 2.76707 -87.4428 2.79674 -87.585 2.77393C-87.7269 2.75108 -87.8688 2.6796 -88.0107 2.65674C-88.1529 2.63393 -88.2446 2.13853 -88.3896 2.11572C-88.5346 2.09346 -88.7252 2.48324 -88.8701 2.46045C-89.0148 2.4376 -89.1512 2.3603 -89.2959 2.3374C-89.4409 2.31459 -89.564 2.11217 -89.709 2.08936C-89.8539 2.06674 -90.0104 2.1613 -90.1553 2.13525C-90.3002 2.10908 -90.4166 1.87109 -90.5615 1.84814C-90.7065 1.82533 -90.9145 2.31724 -91.0566 2.29443C-91.1986 2.27114 -91.281 1.74756 -91.4258 1.72412C-91.5707 1.70132 -91.7388 1.86785 -91.8838 1.84521C-92.0287 1.82241 -92.1568 1.67899 -92.3018 1.65283C-92.4467 1.62678 -92.7368 1.80271 -92.8818 1.77686V96.3999H-93V3301.68H507.14V114.955H507.258L507.155 103.846C507.15 103.846 507.145 103.846 507.14 103.846V96.3999H476.986C476.927 96.3053 476.869 96.2018 476.79 96.1724C476.651 96.1204 476.415 96.407 476.278 96.355C476.142 96.3029 475.974 96.3486 475.835 96.2935C475.696 96.2381 475.627 95.9543 475.49 95.8989C475.354 95.8439 475.149 96.0126 475.01 95.9604C474.871 95.9078 474.836 95.5152 474.7 95.4595C474.564 95.4041 474.447 95.2795 474.311 95.2241C474.174 95.1689 473.929 95.4524 473.793 95.397C473.657 95.3416 473.514 95.299 473.375 95.2437C473.236 95.1882 473.136 95.0159 473 94.9604C472.864 94.9051 472.775 94.6901 472.639 94.6313C472.502 94.5727 472.264 94.8264 472.13 94.7681C471.996 94.7094 471.933 94.4127 471.797 94.354C471.66 94.2954 471.504 94.2925 471.37 94.2339C471.236 94.1755 471.017 94.3511 470.884 94.2925C470.75 94.2333 470.733 93.8101 470.597 93.7515C470.46 93.6926 470.389 93.4423 470.253 93.3804C470.134 93.3262 469.986 93.3611 469.859 93.3315L469.754 93.2983C469.627 93.2693 469.477 93.3076 469.357 93.2563C469.221 93.1977 469.127 93.0185 468.99 92.9565C468.854 92.8947 468.729 92.8094 468.593 92.7476C468.456 92.6856 468.319 92.6308 468.186 92.5688C468.052 92.507 467.876 92.5555 467.742 92.4937C467.609 92.4317 467.455 92.4188 467.318 92.3569C467.182 92.2951 466.983 92.4118 466.85 92.3501C466.716 92.2882 466.71 91.8616 466.576 91.7964C466.443 91.7313 466.269 91.7735 466.136 91.7085C466.002 91.6434 465.761 91.8677 465.627 91.8032C465.493 91.7381 465.487 91.3235 465.354 91.2583C465.22 91.1932 465.089 91.1223 464.955 91.0571C464.822 90.9924 464.572 91.2386 464.438 91.1743C464.305 91.1091 464.233 90.8772 464.1 90.812C463.966 90.747 463.762 90.8673 463.628 90.8022C463.494 90.7371 463.423 90.5064 463.289 90.438C463.155 90.3696 462.948 90.5029 462.814 90.438C462.681 90.3728 462.59 90.1936 462.456 90.1284C462.323 90.0633 462.283 89.7539 462.149 89.6851C462.016 89.6166 461.751 89.8931 461.62 89.8247C461.489 89.756 461.495 89.3264 461.361 89.2612C461.228 89.1962 460.964 89.4725 460.83 89.4048C460.697 89.3364 460.608 89.1536 460.475 89.0884C460.341 89.0233 460.19 89.0004 460.057 88.9321C459.923 88.8637 459.808 88.7525 459.675 88.6841C459.542 88.6152 459.49 88.3423 459.356 88.2739C459.223 88.2055 459.118 88.0718 458.984 88.0034C458.851 87.935 458.62 88.1236 458.486 88.0552C458.353 87.9872 458.151 88.0979 458.021 88.0298C457.89 87.9614 457.872 87.5901 457.741 87.5249C457.61 87.4597 457.5 87.3287 457.369 87.2603C457.238 87.1921 456.972 87.4716 456.838 87.4038C456.704 87.3354 456.624 87.1402 456.49 87.0718C456.357 87.0034 456.209 86.9771 456.078 86.9087C455.947 86.8403 455.788 86.8365 455.657 86.7681C455.527 86.6999 455.356 86.7259 455.226 86.6577C455.095 86.5893 455.068 86.2405 454.938 86.1753C454.807 86.11 454.713 85.941 454.58 85.8726C454.446 85.8041 454.173 86.1067 454.039 86.0415C453.906 85.9759 453.857 85.6935 453.724 85.6284C453.59 85.5632 453.496 85.397 453.362 85.3286C453.229 85.26 453.189 84.9506 453.059 84.8853C452.928 84.8201 452.655 85.1189 452.521 85.0542C452.388 84.989 452.342 84.6926 452.208 84.6274C452.074 84.5622 451.964 84.4387 451.83 84.3735C451.696 84.3084 451.574 84.2141 451.44 84.1489C451.307 84.0838 451.102 84.217 450.969 84.1489C450.835 84.0806 450.585 84.3375 450.451 84.2729C450.318 84.2078 450.38 83.6145 450.246 83.5493C450.113 83.4843 449.783 83.9622 449.649 83.8979C449.516 83.8328 449.39 83.7509 449.257 83.689C449.123 83.6271 449.041 83.419 448.907 83.3569C448.774 83.2951 448.629 83.2654 448.492 83.2036C448.356 83.1417 448.19 83.1776 448.054 83.1157C447.917 83.0536 447.875 82.7384 447.741 82.6763C447.608 82.6144 447.375 82.8382 447.238 82.7769C447.102 82.715 447.116 82.237 446.979 82.1743C446.843 82.1124 446.703 82.0702 446.569 82.0083C446.436 81.9464 446.285 81.9325 446.148 81.8706C446.012 81.8088 445.884 81.7371 445.748 81.6753C445.612 81.6134 445.435 81.682 445.299 81.6235C445.162 81.5649 444.997 81.5972 444.863 81.5386C444.73 81.4796 444.69 81.1287 444.554 81.0698C444.417 81.0112 444.244 81.0756 444.107 81.0171C443.971 80.9585 443.891 80.7273 443.758 80.6685C443.624 80.6098 443.473 80.5933 443.337 80.5347C443.2 80.476 443.103 80.2971 442.967 80.2417C442.83 80.1867 442.526 80.6652 442.39 80.6099C442.253 80.5543 442.233 80.1311 442.097 80.0757C441.96 80.0203 441.833 79.9358 441.696 79.8804C441.56 79.825 441.463 79.636 441.326 79.5806C441.19 79.5252 441.042 79.5087 440.902 79.4565C440.763 79.4049 440.479 79.8534 440.34 79.7983C440.201 79.743 440.183 79.297 440.047 79.2446C439.91 79.1925 439.748 79.2216 439.608 79.1694C439.469 79.1169 439.392 78.8602 439.256 78.8081C439.119 78.7563 438.929 78.8826 438.79 78.8306C438.651 78.7785 438.443 78.9841 438.304 78.9321C438.164 78.88 438.05 78.7558 437.911 78.7036C437.772 78.6513 437.709 78.3357 437.57 78.2866C437.431 78.2377 437.249 78.355 437.109 78.3062C436.97 78.2573 436.794 78.3482 436.654 78.2993C436.515 78.2503 436.407 78.0972 436.268 78.0483C436.128 77.9995 435.998 77.9214 435.861 77.8726C435.725 77.8237 435.517 78.0324 435.378 77.9839C435.239 77.935 435.244 77.3355 435.104 77.2866C434.965 77.2378 434.812 77.2442 434.673 77.1987C434.534 77.1531 434.314 77.4162 434.175 77.3706C434.036 77.3246 433.987 76.9152 433.848 76.8696C433.708 76.8241 433.546 76.869 433.404 76.8267C433.262 76.7845 433.041 77.0771 432.901 77.0317C432.762 76.9861 432.611 76.9865 432.472 76.9409C432.332 76.8953 432.205 76.801 432.065 76.7554C431.926 76.7098 431.809 76.5754 431.667 76.5298C431.525 76.4841 431.414 76.3348 431.271 76.2925C431.129 76.2505 430.924 76.4979 430.782 76.4556C430.64 76.4125 430.603 75.9334 430.461 75.8911C430.319 75.8496 430.115 76.1027 429.973 76.064C429.83 76.0249 429.767 75.6376 429.628 75.5952C429.489 75.5528 429.358 75.4614 429.216 75.4224C429.074 75.3836 428.812 75.898 428.67 75.8589C428.528 75.8197 428.445 75.5171 428.303 75.478C428.161 75.4385 428.076 75.1421 427.934 75.103C427.791 75.0639 427.655 75.0122 427.513 74.9731C427.371 74.934 427.2 75.0347 427.058 74.9956C426.916 74.9567 426.694 75.3116 426.552 75.2729C426.41 75.2339 426.344 74.8367 426.202 74.8003C426.06 74.7645 425.883 74.9107 425.741 74.8716C425.599 74.8325 425.454 74.8264 425.312 74.7905C425.169 74.7546 425.044 74.6398 424.902 74.604C424.76 74.5683 424.584 74.7219 424.441 74.686C424.299 74.6503 424.152 74.6534 424.01 74.6177C423.868 74.5819 423.768 74.3345 423.626 74.2983C423.484 74.2625 423.37 74.093 423.228 74.0571C423.085 74.0212 422.983 73.7766 422.841 73.7407C422.699 73.7052 422.477 74.112 422.332 74.0796C422.187 74.047 422.039 74.0604 421.896 74.0278C421.754 73.9951 421.629 73.8709 421.487 73.8384C421.345 73.8059 421.183 73.8905 421.038 73.8579C420.893 73.8251 420.833 73.3398 420.691 73.3071C420.549 73.2746 420.416 73.1874 420.273 73.1548C420.131 73.1222 419.972 73.1872 419.827 73.1548C419.682 73.1222 419.562 72.9715 419.42 72.939C419.278 72.9071 419.062 73.3041 418.92 73.272C418.778 73.2394 418.704 72.7902 418.562 72.7573C418.419 72.7247 418.203 73.1346 418.061 73.1021C417.919 73.0699 417.751 73.1869 417.609 73.1548C417.467 73.1222 417.387 72.7077 417.245 72.6782C417.103 72.6489 416.96 72.6229 416.815 72.5903C416.67 72.5582 416.471 72.9038 416.329 72.8745C416.187 72.845 416.082 72.5708 415.939 72.5415C415.798 72.5118 415.69 72.2586 415.545 72.229C415.4 72.1997 415.24 72.2876 415.098 72.2583C414.956 72.2297 414.765 72.5024 414.623 72.4731C414.481 72.4439 414.339 72.4116 414.194 72.3823C414.049 72.353 413.969 71.9 413.827 71.8706C413.685 71.8413 413.514 71.9816 413.372 71.9556C413.23 71.9295 413.102 71.7796 412.96 71.7534C412.818 71.7273 412.667 71.7502 412.521 71.7241C412.377 71.6984 412.212 71.8377 412.067 71.812C411.922 71.7859 411.811 71.5383 411.666 71.5122C411.521 71.4861 411.399 71.304 411.254 71.2778C411.109 71.2518 410.961 71.2609 410.818 71.2349C410.676 71.2098 410.455 71.7365 410.312 71.7104C410.171 71.6841 410.085 71.2127 409.94 71.186C409.796 71.16 409.636 71.251 409.491 71.2251C409.346 71.199 409.195 71.2258 409.047 71.1997C408.899 71.1738 408.746 71.2518 408.604 71.229C408.461 71.2062 408.328 71.0721 408.186 71.0493C408.043 71.0267 407.859 71.3063 407.714 71.2837C407.569 71.2609 407.435 71.1633 407.29 71.1372C407.145 71.1111 407.031 70.8348 406.889 70.812C406.747 70.7889 406.633 70.4962 406.488 70.4731C406.343 70.4503 406.135 70.9481 405.99 70.9253C405.846 70.9021 405.738 70.565 405.596 70.5415C405.454 70.5187 405.28 70.7263 405.135 70.7036C404.99 70.6808 404.878 70.3622 404.733 70.3394C404.589 70.3168 404.418 70.5345 404.273 70.5122C404.129 70.4894 403.966 70.6194 403.821 70.6001C403.676 70.5805 403.553 70.3452 403.411 70.3257C403.269 70.3066 403.096 70.5215 402.951 70.5024C402.806 70.4829 402.709 70.0167 402.564 69.9966C402.419 69.977 402.277 69.9256 402.132 69.9028C401.987 69.88 401.839 69.8989 401.694 69.8794C401.549 69.8598 401.361 70.2447 401.219 70.2251C401.077 70.2056 400.932 70.1733 400.787 70.1538C400.642 70.1343 400.497 70.1271 400.352 70.1108C400.207 70.0942 400.081 69.8794 399.937 69.8599C399.792 69.8405 399.629 70.0064 399.484 69.9868C399.34 69.9673 399.195 69.9611 399.05 69.9448C398.905 69.9285 398.774 69.7591 398.629 69.7427C398.484 69.7264 398.341 69.6877 398.196 69.6714C398.051 69.6549 397.92 69.4621 397.775 69.4458C397.63 69.4296 397.48 69.4621 397.335 69.4458C397.19 69.4295 397.059 69.2375 396.914 69.2212C396.769 69.205 396.601 69.4686 396.456 69.4556C396.311 69.4428 396.149 69.6291 396.004 69.6128C395.859 69.5962 395.731 69.3455 395.586 69.3325C395.441 69.3193 395.304 69.159 395.162 69.146C395.02 69.1332 394.864 69.2186 394.719 69.2056C394.574 69.1929 394.401 69.5501 394.259 69.5347C394.117 69.5184 393.986 69.268 393.841 69.2544C393.696 69.2414 393.536 69.4198 393.391 69.4067C393.246 69.3935 393.11 69.2636 392.965 69.2505C392.82 69.2375 392.7 68.7876 392.555 68.7778C392.41 68.7687 392.245 69.0743 392.101 69.062C391.956 69.049 391.793 69.2967 391.65 69.2837C391.508 69.2698 391.383 68.8306 391.238 68.8208C391.093 68.8116 390.923 69.237 390.778 69.228C390.633 69.2183 390.513 68.7134 390.368 68.7036C390.223 68.6943 390.061 69.0099 389.916 69.0034C389.771 68.9965 389.638 68.7071 389.493 68.6968C389.348 68.687 389.2 68.7326 389.055 68.7261C388.928 68.7204 388.795 68.8165 388.668 68.8364L388.561 68.8442C388.433 68.8677 388.298 68.9796 388.171 68.9741C388.026 68.9676 387.886 68.7942 387.741 68.7876C387.596 68.7811 387.457 68.5539 387.312 68.5474C387.167 68.5409 387.019 68.6056 386.874 68.5991C386.729 68.5926 386.583 68.5011 386.438 68.4946C386.294 68.4884 386.143 68.6545 385.998 68.6479C385.853 68.6414 385.71 68.4784 385.565 68.4751C385.421 68.4718 385.276 68.4227 385.131 68.4194C384.986 68.4162 384.835 68.6219 384.69 68.6157C384.545 68.6092 384.394 68.8924 384.249 68.8892C384.104 68.8859 383.959 68.8888 383.814 68.8823C383.669 68.8758 383.527 68.5435 383.382 68.5435C383.237 68.5435 383.089 68.5633 382.944 68.5601C382.799 68.5568 382.654 68.478 382.509 68.478C382.364 68.478 382.216 68.4393 382.074 68.436C381.932 68.4328 381.781 68.4458 381.636 68.4458C381.491 68.4466 381.346 68.8627 381.201 68.8628C381.056 68.8628 380.911 68.9312 380.766 68.9312C380.621 68.9302 380.473 68.4819 380.328 68.4819C380.183 68.482 380.041 68.9019 379.896 68.9019C379.751 68.9014 379.603 68.6838 379.458 68.687C379.313 68.6903 379.165 68.6477 379.023 68.6509C378.881 68.6541 378.733 68.7746 378.591 68.7778C378.449 68.7811 378.303 68.9318 378.158 68.9351C378.013 68.9375 377.857 68.5207 377.712 68.5239C377.567 68.5275 377.428 68.8268 377.283 68.8306C377.138 68.8338 376.993 68.8729 376.848 68.8794C376.703 68.8856 376.54 68.41 376.396 68.4165C376.251 68.4234 376.122 68.9539 375.975 68.9604C375.827 68.967 375.685 68.9774 375.54 68.9839C375.395 68.9904 375.247 68.9774 375.102 68.9839C374.957 68.9898 374.794 68.6385 374.649 68.645C374.505 68.652 374.371 68.928 374.227 68.9351C374.082 68.9416 373.933 68.9344 373.788 68.9409C373.643 68.9474 373.493 68.8795 373.348 68.8892C373.203 68.8989 373.075 69.2209 372.93 69.231C372.803 69.2395 372.671 69.1688 372.543 69.1597H372.435C372.306 69.1506 372.175 69.0788 372.048 69.0874C371.903 69.0973 371.769 69.2902 371.624 69.3032C371.479 69.3161 371.329 69.2541 371.184 69.2671C371.039 69.2801 370.879 69.0875 370.734 69.0972C370.589 69.1069 370.458 69.3224 370.313 69.3354C370.168 69.3485 369.992 68.9318 369.847 68.9448C369.702 68.9582 369.569 69.1492 369.427 69.1626C369.285 69.1756 369.127 69.0685 368.982 69.0815C368.838 69.0945 368.69 69.0653 368.545 69.0815C368.4 69.0978 368.283 69.4793 368.141 69.4956C367.999 69.5116 367.839 69.3944 367.697 69.4106C367.555 69.4266 367.387 69.1991 367.242 69.2153C367.097 69.2317 366.955 69.2869 366.813 69.3032C366.671 69.3195 366.535 69.4529 366.39 69.4692C366.245 69.4855 366.125 69.7856 365.982 69.8052C365.84 69.8237 365.656 69.4136 365.511 69.4331C365.366 69.4528 365.257 69.8475 365.112 69.8638C364.967 69.879 364.78 69.4461 364.635 69.4624C364.49 69.4792 364.385 69.9119 364.24 69.9321C364.095 69.9517 363.913 69.5737 363.768 69.5933C363.623 69.6129 363.486 69.7261 363.344 69.7456C363.202 69.7652 363.06 69.8402 362.918 69.8599C362.776 69.8794 362.63 69.9184 362.485 69.938C362.34 69.9575 362.198 70.0063 362.056 70.0259C361.914 70.0459 361.803 70.3936 361.658 70.4136C361.513 70.4331 361.368 70.4272 361.223 70.4468C361.078 70.4662 360.921 70.3589 360.776 70.3784C360.631 70.3977 360.453 70.0885 360.308 70.1108C360.163 70.1336 360.06 70.5275 359.915 70.5474C359.77 70.5669 359.625 70.5708 359.479 70.5903C359.335 70.6091 359.147 70.2052 359.002 70.228C358.857 70.251 358.741 70.5052 358.596 70.5249C358.451 70.5444 358.3 70.486 358.155 70.5054C358.01 70.5249 357.908 70.9121 357.763 70.9321C357.618 70.9517 357.463 70.8637 357.318 70.8833C357.173 70.9027 357.026 70.8804 356.884 70.8999C356.742 70.9194 356.585 70.8444 356.443 70.8638C356.301 70.8833 356.136 70.7205 355.991 70.7397C355.846 70.7593 355.726 70.9975 355.581 71.0171C355.436 71.0366 355.294 71.0688 355.152 71.0884C355.01 71.1079 354.859 71.0825 354.714 71.1021C354.569 71.1212 354.404 70.939 354.262 70.9585C354.12 70.9781 353.981 71.0561 353.839 71.0757C353.697 71.0952 353.54 71.0132 353.397 71.0327C353.255 71.0526 353.156 71.5288 353.014 71.5483C352.872 71.5676 352.69 71.2326 352.548 71.2515C352.406 71.271 352.297 71.6686 352.152 71.6851C352.007 71.7013 351.854 71.6228 351.712 71.6421C351.57 71.6616 351.424 71.6942 351.282 71.7104C351.14 71.7267 350.992 71.7241 350.847 71.7437C350.702 71.7632 350.56 71.7791 350.415 71.7954C350.27 71.8117 350.105 71.6005 349.963 71.6167C349.821 71.633 349.704 71.9809 349.562 72.0005C349.419 72.0195 349.238 71.6036 349.093 71.6196C348.948 71.6359 348.848 72.1472 348.703 72.1636C348.558 72.1799 348.374 71.7051 348.231 71.7173C348.089 71.7303 347.956 71.9029 347.813 71.9194C347.671 71.9357 347.532 72.0265 347.387 72.0396C347.242 72.0526 347.085 71.8841 346.94 71.897C346.795 71.91 346.684 72.3498 346.539 72.3628C346.394 72.3759 346.255 72.4405 346.11 72.4536C345.965 72.4666 345.811 72.3361 345.666 72.3491C345.521 72.3618 345.359 72.0959 345.214 72.1089C345.069 72.1219 344.927 72.1343 344.782 72.144C344.637 72.1538 344.512 72.4531 344.367 72.4634C344.222 72.4732 344.057 72.1385 343.912 72.1479C343.767 72.1577 343.636 72.389 343.491 72.3989C343.346 72.4087 343.212 72.5845 343.067 72.5942C342.922 72.604 342.777 72.5936 342.632 72.6001C342.487 72.6056 342.32 72.132 342.175 72.1411C342.03 72.1509 341.893 72.2879 341.748 72.2944C341.603 72.3009 341.481 72.7919 341.336 72.8022C341.191 72.812 341.042 72.7176 340.897 72.7241C340.753 72.7306 340.608 72.6952 340.463 72.7017C340.318 72.7082 340.164 72.4739 340.02 72.48C339.875 72.4865 339.741 72.8315 339.596 72.8384C339.451 72.8449 339.294 72.4156 339.149 72.4214C339.004 72.4279 338.871 72.7762 338.726 72.7798C338.581 72.783 338.441 72.9621 338.296 72.9653C338.151 72.9685 338.003 72.8353 337.858 72.8384C337.713 72.8416 337.571 72.9328 337.426 72.936C337.281 72.9391 337.133 72.6755 336.985 72.6753C336.837 72.6753 336.698 72.8088 336.553 72.812C336.408 72.8148 336.26 72.4057 336.115 72.4087C335.97 72.4119 335.828 72.5773 335.683 72.5806C335.538 72.5841 335.396 72.8835 335.251 72.8872C335.106 72.8905 334.96 72.4312 334.815 72.4312C334.671 72.4314 334.526 72.7861 334.381 72.7866C334.236 72.7866 334.09 72.7798 333.945 72.7798C333.8 72.7796 333.658 72.5422 333.514 72.5386C333.369 72.5353 333.223 72.6756 333.078 72.6724C332.933 72.6692 332.788 72.7897 332.644 72.7866C332.499 72.7834 332.359 72.4995 332.211 72.4995C332.063 72.4995 331.918 72.6519 331.773 72.6489C331.628 72.6457 331.489 72.4178 331.344 72.4146C331.199 72.4113 331.048 72.6843 330.903 72.6782C330.758 72.6717 330.61 72.8127 330.465 72.8062C330.32 72.7996 330.175 72.76 330.03 72.7534C329.885 72.7469 329.749 72.4832 329.604 72.48C329.459 72.4767 329.314 72.4543 329.169 72.4478C329.042 72.4421 328.913 72.5211 328.785 72.5366L328.676 72.5405C328.549 72.5561 328.42 72.635 328.293 72.6294C328.148 72.6229 328.002 72.6265 327.857 72.6167C327.713 72.6071 327.562 72.7277 327.417 72.7212C327.272 72.7147 327.147 72.2392 327.002 72.229C326.857 72.2192 326.711 72.2456 326.566 72.2358C326.422 72.2267 326.254 72.7103 326.109 72.7017C325.964 72.6919 325.819 72.6919 325.674 72.6821C325.529 72.6723 325.389 72.5776 325.244 72.5679C325.099 72.558 324.96 72.4898 324.815 72.48C324.67 72.4702 324.553 71.9946 324.408 71.9849C324.263 71.9759 324.084 72.5483 323.939 72.5356C323.795 72.5226 323.675 72.1324 323.53 72.1187C323.385 72.1056 323.254 71.8973 323.109 71.8872C322.964 71.8774 322.788 72.3426 322.643 72.3296C322.498 72.3166 322.356 72.2743 322.211 72.2612C322.066 72.2482 321.935 72.0503 321.79 72.0337C321.645 72.0174 321.488 72.1834 321.343 72.1704C321.198 72.1575 321.05 72.2062 320.905 72.1899C320.76 72.1735 320.655 71.6652 320.51 71.6489C320.365 71.6328 320.214 71.7303 320.069 71.7173C319.924 71.7042 319.791 71.5744 319.646 71.5581C319.501 71.5418 319.359 71.509 319.214 71.4927C319.069 71.4764 318.898 71.7861 318.753 71.77C318.608 71.7537 318.477 71.6037 318.329 71.5874C318.181 71.5712 318.013 71.8508 317.868 71.8345C317.723 71.8179 317.595 71.6232 317.45 71.6069C317.305 71.5911 317.135 71.8601 316.99 71.8442C316.845 71.8279 316.728 71.506 316.583 71.4897C316.438 71.4735 316.287 71.5158 316.143 71.4995C315.998 71.4832 315.889 71.1118 315.744 71.0923C315.599 71.0732 315.423 71.4072 315.278 71.3911C315.133 71.3748 315.016 71.105 314.871 71.0854C314.726 71.0657 314.592 70.9487 314.45 70.9292C314.308 70.9104 314.123 71.2583 313.979 71.2388C313.834 71.2191 313.711 71.0132 313.566 70.9937C313.421 70.9741 313.245 71.2547 313.1 71.2319C312.955 71.2091 312.816 71.1405 312.674 71.1177C312.532 71.0949 312.423 70.7329 312.278 70.7134C312.133 70.6938 311.931 71.1835 311.786 71.1606C311.641 71.1378 311.507 71.036 311.362 71.0132C311.218 70.9894 311.132 70.4891 310.987 70.4663C310.842 70.4435 310.695 70.4792 310.55 70.4565C310.405 70.4337 310.256 70.4501 310.111 70.4272C309.966 70.4045 309.825 70.3817 309.68 70.3589C309.535 70.3361 309.395 70.2834 309.25 70.2573C309.105 70.2313 308.9 70.7069 308.755 70.6841C308.646 70.6669 308.543 70.614 308.437 70.5786L308.275 70.5376C308.151 70.4971 308.035 70.3945 307.908 70.3716C307.763 70.3455 307.646 70.1203 307.501 70.0942C307.356 70.0684 307.188 70.2088 307.043 70.186C306.898 70.1628 306.779 69.9452 306.637 69.9224C306.495 69.8995 306.364 69.7561 306.222 69.73C306.08 69.7039 305.923 69.7589 305.781 69.7329C305.639 69.7068 305.468 69.8663 305.326 69.8403C305.184 69.8143 305.025 69.8828 304.883 69.8569C304.741 69.8309 304.584 69.883 304.441 69.8569C304.299 69.8306 304.189 69.5572 304.047 69.5308C303.905 69.5047 303.711 69.8146 303.568 69.7886C303.426 69.7625 303.282 69.7297 303.14 69.7036C302.997 69.6775 302.912 69.2183 302.77 69.189C302.627 69.1597 302.468 69.2277 302.323 69.2017C302.178 69.1757 302.002 69.3711 301.857 69.3423C301.713 69.313 301.613 68.9874 301.471 68.9575C301.329 68.9282 301.177 68.9409 301.032 68.9116C300.887 68.8822 300.768 68.6998 300.626 68.6704C300.484 68.6411 300.313 68.7817 300.168 68.7524C300.023 68.7231 299.904 68.5437 299.762 68.5142C299.62 68.4849 299.449 68.6087 299.307 68.5796C299.164 68.5503 298.962 68.8656 298.82 68.8364C298.678 68.8071 298.598 68.3706 298.456 68.3413C298.314 68.3122 298.121 68.5765 297.979 68.5474C297.836 68.5181 297.743 68.1789 297.601 68.146C297.458 68.1134 297.279 68.2827 297.137 68.2534C296.995 68.224 296.881 68.0129 296.736 67.98C296.591 67.9474 296.42 68.0807 296.278 68.0483C296.136 68.0158 296.031 67.7548 295.889 67.7222C295.747 67.6896 295.587 67.7451 295.445 67.7095C295.303 67.6736 295.155 67.674 295.013 67.6382C294.871 67.6023 294.743 67.4745 294.601 67.4419C294.458 67.4093 294.291 67.5076 294.148 67.4751C294.006 67.4425 293.892 67.2463 293.75 67.2104C293.608 67.1751 293.406 67.452 293.264 67.4194C293.122 67.3864 293.039 67.0193 292.9 66.9829C292.761 66.9471 292.545 67.286 292.402 67.2534C292.26 67.2209 292.104 67.2433 291.965 67.2075C291.826 67.1717 291.669 67.1848 291.526 67.1489C291.384 67.113 291.268 66.934 291.129 66.8979C290.99 66.8621 290.901 66.5298 290.762 66.4907C290.622 66.4516 290.471 66.4484 290.329 66.4126C290.187 66.3773 289.991 66.605 289.849 66.5659C289.707 66.5269 289.547 66.5659 289.408 66.5269C289.269 66.4878 289.235 65.9207 289.093 65.8813C288.951 65.8423 288.752 66.0803 288.609 66.0415C288.467 66.0024 288.277 66.1874 288.138 66.1489C287.998 66.1098 287.904 65.8387 287.762 65.7964C287.62 65.754 287.492 65.6629 287.35 65.6206C287.207 65.5783 286.994 65.8648 286.854 65.8257C286.716 65.7856 286.696 65.1877 286.557 65.1479C286.417 65.1089 286.141 65.6528 286.002 65.6108C285.863 65.5685 285.851 64.9466 285.712 64.9038C285.573 64.8615 285.424 64.8417 285.285 64.7993C285.146 64.7572 284.904 65.1454 284.762 65.103C284.62 65.0606 284.517 64.8612 284.378 64.8188C284.239 64.7762 284.156 64.4833 284.017 64.4409C283.877 64.3986 283.738 64.3468 283.599 64.3013C283.459 64.2556 283.337 64.1379 283.198 64.0923C283.059 64.0467 282.823 64.3856 282.684 64.3403C282.544 64.2948 282.448 64.0767 282.309 64.0308C282.169 63.9851 282.004 64.0302 281.864 63.9878C281.725 63.9454 281.591 63.8674 281.452 63.8218C281.313 63.776 281.245 63.4505 281.105 63.4048C280.966 63.3592 280.821 63.3361 280.682 63.2905C280.542 63.2451 280.298 63.5904 280.158 63.5415C280.019 63.4928 279.857 63.5288 279.718 63.48C279.579 63.4311 279.573 62.8907 279.434 62.8413C279.294 62.7924 279.024 63.222 278.885 63.1733C278.745 63.1245 278.706 62.7205 278.566 62.6714C278.427 62.6225 278.31 62.4989 278.171 62.4468C278.032 62.3947 277.861 62.4628 277.725 62.4106C277.588 62.3585 277.332 62.7138 277.195 62.6616C277.059 62.6087 277.059 62.0751 276.92 62.0229C276.781 61.9708 276.57 62.1766 276.431 62.1245C276.291 62.0724 276.152 62.0263 276.016 61.9741C275.879 61.922 275.694 62.0165 275.558 61.9644C275.421 61.9119 275.387 61.5124 275.248 61.4565C275.109 61.4011 274.94 61.4563 274.804 61.4009C274.667 61.3451 274.59 61.0881 274.454 61.0327C274.318 60.9775 274.144 61.0392 274.005 60.9839C273.866 60.9284 273.757 60.7847 273.621 60.7261C273.485 60.6673 273.385 60.4918 273.249 60.4331C273.113 60.3745 272.794 60.8863 272.657 60.8276C272.521 60.7688 272.563 60.1529 272.427 60.0942C272.29 60.0362 272.023 60.3843 271.887 60.3257C271.75 60.2671 271.559 60.3746 271.423 60.3159C271.287 60.2568 271.247 59.9051 271.11 59.8433C270.974 59.7811 270.926 59.4585 270.792 59.3999C270.658 59.3415 270.463 59.4583 270.326 59.3999C270.19 59.3412 270.081 59.2011 269.944 59.1392C269.808 59.0778 269.597 59.2407 269.461 59.1821C269.325 59.1237 269.137 59.2106 269.004 59.1489C268.87 59.087 268.724 59.0487 268.591 58.9868C268.457 58.9247 268.423 58.5694 268.29 58.5073C268.157 58.4455 268.04 58.3251 267.906 58.2632C267.773 58.2013 267.598 58.2401 267.465 58.1782C267.332 58.1161 267.272 57.836 267.139 57.7739C267.005 57.712 266.834 57.7483 266.7 57.6831C266.567 57.618 266.282 57.9599 266.148 57.8979C266.015 57.8356 266.038 57.3371 265.904 57.272C265.771 57.2068 265.648 57.1096 265.515 57.0444C265.381 56.9793 265.275 56.8391 265.142 56.7739C265.008 56.7091 264.809 56.8224 264.676 56.7573C264.542 56.6921 264.473 56.4543 264.34 56.3892C264.206 56.3249 263.917 56.6723 263.783 56.6079C263.65 56.5427 263.484 56.5552 263.351 56.4868C263.217 56.4184 263.089 56.3404 262.955 56.272C262.822 56.203 262.83 55.7671 262.696 55.6987C262.563 55.6309 262.259 56.0113 262.128 55.9429C261.997 55.8742 262.059 55.2945 261.926 55.2261C261.792 55.1582 261.525 55.4406 261.392 55.3755C261.258 55.3101 261.232 54.9621 261.099 54.897C260.965 54.8319 260.686 55.1447 260.553 55.0767C260.419 55.0082 260.385 54.6887 260.251 54.6235C260.118 54.5582 260.084 54.2391 259.95 54.1704C259.817 54.102 259.688 54.024 259.558 53.9556C259.427 53.8872 259.108 54.2941 258.975 54.2261C258.841 54.1577 258.798 53.8641 258.665 53.7954C258.531 53.727 258.463 53.4993 258.329 53.4341C258.196 53.369 257.963 53.5636 257.829 53.4956C257.695 53.4272 257.478 53.5777 257.348 53.5093C257.217 53.4407 257.169 53.1499 257.038 53.0815C256.908 53.0131 256.799 52.8834 256.666 52.8149C256.532 52.7465 256.435 52.5901 256.302 52.5249C256.168 52.4598 256.049 52.3557 255.918 52.2905C255.787 52.2254 255.568 52.3715 255.438 52.3032C255.307 52.2348 255.192 52.1138 255.062 52.0454C254.931 51.9772 254.786 51.9419 254.652 51.8735C254.519 51.8051 254.343 51.8569 254.209 51.7886C254.075 51.7201 253.904 51.7554 253.773 51.687C253.643 51.6183 253.56 51.4165 253.43 51.3481C253.299 51.2795 253.245 51.0061 253.111 50.9409C252.978 50.876 252.719 51.15 252.585 51.0815C252.452 51.0131 252.355 50.86 252.222 50.7915C252.088 50.7231 251.923 50.7453 251.789 50.6802C251.656 50.6149 251.619 50.2994 251.485 50.2339C251.352 50.1687 251.178 50.2141 251.044 50.1489C250.91 50.0836 250.819 49.9113 250.686 49.8462C250.552 49.7815 250.325 49.9794 250.191 49.9146C250.058 49.8494 249.924 49.7912 249.79 49.7261C249.656 49.6609 249.724 49.0419 249.591 48.98C249.457 48.9181 249.284 48.9628 249.15 48.9009C249.017 48.8393 248.784 49.0506 248.65 48.9858C248.517 48.9207 248.338 48.9919 248.201 48.9302C248.065 48.8683 247.965 48.7157 247.831 48.6538C247.697 48.5919 247.697 48.1425 247.563 48.0806C247.43 48.0189 247.114 48.4813 246.978 48.4194C246.841 48.357 246.895 47.7577 246.759 47.6958C246.622 47.6339 246.503 47.5331 246.369 47.4712C246.235 47.4097 245.931 47.8524 245.795 47.7905C245.659 47.7286 245.628 47.3664 245.494 47.3042C245.361 47.2423 245.241 47.1383 245.104 47.0796C244.968 47.0209 244.737 47.2525 244.601 47.1938C244.481 47.1424 244.408 46.9543 244.302 46.8687L244.206 46.8081C244.101 46.7193 244.029 46.5187 243.91 46.4673C243.774 46.4086 243.486 46.8287 243.35 46.77C243.213 46.711 243.242 46.1416 243.105 46.0825C242.969 46.0239 242.687 46.4341 242.551 46.3755C242.414 46.3168 242.337 46.0766 242.201 46.021C242.065 45.9656 241.973 45.7629 241.837 45.7075C241.701 45.652 241.592 45.4989 241.456 45.4468C241.32 45.3948 241.115 45.5577 240.979 45.5024C240.842 45.447 240.608 45.7108 240.472 45.6587C240.336 45.6051 240.375 44.9584 240.236 44.9028C240.097 44.8475 239.895 45.0232 239.756 44.9712C239.617 44.9191 239.443 45.0007 239.304 44.9487C239.164 44.8966 239.048 44.7763 238.911 44.7241C238.775 44.672 238.68 44.4595 238.544 44.4106C238.407 44.3625 238.18 44.6295 238.041 44.5776C237.902 44.5255 237.879 44.066 237.739 44.0171C237.6 43.9682 237.472 43.8866 237.333 43.8345C237.194 43.7823 237.023 43.8599 236.884 43.811C236.744 43.7622 236.559 43.8833 236.423 43.8345C236.287 43.7856 236.165 43.6715 236.025 43.6226C235.886 43.5737 235.67 43.8209 235.53 43.772C235.391 43.723 235.393 43.1372 235.254 43.0884C235.115 43.0401 234.878 43.3683 234.739 43.3228C234.6 43.2768 234.515 43.0199 234.376 42.9741C234.237 42.9285 234.12 42.7951 233.978 42.7495C233.835 42.7039 233.628 42.9416 233.488 42.896C233.349 42.8502 233.258 42.6155 233.116 42.5698C232.974 42.5242 232.741 42.8696 232.602 42.8276C232.462 42.7853 232.317 42.7655 232.175 42.7231C232.033 42.6806 232.001 42.1926 231.859 42.1499C231.717 42.1075 231.578 42.0712 231.436 42.0288C231.293 41.9866 231.111 42.1298 230.972 42.0874C230.832 42.0456 230.642 42.2176 230.503 42.1753C230.364 42.1329 230.236 42.039 230.094 41.9966C229.952 41.9542 229.8 41.9667 229.661 41.9243C229.522 41.8817 229.439 41.5796 229.297 41.5405C229.155 41.501 229.081 41.159 228.941 41.1167C228.802 41.0744 228.658 41.0454 228.516 41.0063C228.374 40.9673 228.2 41.0876 228.058 41.0454C227.915 41.003 227.699 41.3316 227.557 41.2925C227.415 41.2535 227.267 41.2563 227.125 41.2173C226.983 41.1782 226.943 40.6539 226.801 40.6147C226.659 40.5756 226.448 40.8791 226.309 40.8433C226.169 40.8074 226.024 40.7873 225.882 40.7515C225.74 40.7154 225.623 40.5659 225.481 40.5269C225.339 40.4878 225.16 40.6538 225.018 40.6147C224.876 40.5753 224.782 40.3146 224.64 40.2788C224.497 40.2431 224.333 40.3342 224.19 40.2983C224.048 40.2626 223.883 40.3537 223.741 40.3179C223.599 40.282 223.499 40.0287 223.357 39.9927C223.215 39.9568 223.036 40.1232 222.894 40.0874C222.752 40.0514 222.672 39.6801 222.53 39.647C222.388 39.6144 222.251 39.5526 222.109 39.52C221.967 39.4874 221.847 39.328 221.705 39.2954C221.563 39.2629 221.407 39.3045 221.265 39.272C221.122 39.2394 220.906 39.6278 220.764 39.5952C220.622 39.5625 220.505 39.3924 220.36 39.3599C220.215 39.3272 220.119 39.041 219.977 39.0083C219.835 38.9757 219.709 38.8457 219.564 38.813C219.419 38.7804 219.24 38.9852 219.095 38.9526C218.95 38.9199 218.839 38.712 218.697 38.6792C218.555 38.6466 218.358 38.937 218.216 38.9077C218.074 38.8778 217.983 38.5259 217.838 38.4966C217.693 38.4674 217.531 38.5682 217.389 38.5356C217.247 38.5028 217.141 38.2391 216.999 38.2065C216.857 38.1748 216.635 38.6371 216.493 38.6079C216.351 38.5786 216.283 38.0728 216.138 38.0435C215.993 38.0143 215.817 38.2196 215.672 38.1909C215.527 38.1616 215.407 37.9917 215.262 37.9624C215.117 37.9332 214.96 37.9953 214.818 37.9692C214.676 37.9432 214.511 38.0568 214.366 38.0308C214.221 38.0047 214.053 38.1584 213.908 38.1323C213.763 38.1061 213.65 37.8817 213.508 37.8521C213.366 37.8227 213.254 37.5686 213.109 37.5425C212.965 37.5164 212.788 37.734 212.644 37.7085C212.499 37.6824 212.359 37.6301 212.217 37.604C212.075 37.5779 211.898 37.7834 211.753 37.7573C211.608 37.7313 211.463 37.7277 211.318 37.7017C211.173 37.6756 211.062 37.4211 210.917 37.395C210.772 37.3687 210.672 37.0334 210.527 37.0073C210.383 36.9813 210.241 36.9523 210.096 36.9263C209.951 36.9002 209.749 37.3136 209.604 37.2876C209.459 37.2616 209.373 36.7775 209.229 36.7505C209.084 36.7244 208.879 37.1767 208.736 37.1509C208.594 37.1248 208.5 36.6919 208.358 36.6685C208.216 36.6456 208.037 36.8641 207.895 36.8413C207.752 36.8185 207.622 36.6526 207.479 36.6265C207.337 36.6004 207.181 36.6524 207.036 36.6265C206.891 36.6004 206.749 36.5614 206.604 36.5386C206.459 36.5157 206.331 36.3563 206.186 36.3335C206.041 36.3107 205.876 36.4501 205.733 36.4272C205.591 36.4045 205.441 36.4148 205.296 36.3921C205.151 36.3693 205.005 36.3524 204.86 36.3296C204.715 36.3069 204.565 36.3396 204.42 36.3169C204.275 36.2941 204.161 35.9976 204.016 35.978C203.871 35.9583 203.735 35.8505 203.59 35.8276C203.445 35.8048 203.271 36.0493 203.126 36.0298C202.981 36.0104 202.805 36.2802 202.66 36.2612C202.515 36.2417 202.415 35.7892 202.271 35.769C202.126 35.7495 201.963 35.8771 201.821 35.8579C201.679 35.8384 201.534 35.8023 201.389 35.7827C201.244 35.7632 201.093 35.808 200.948 35.7886C200.803 35.769 200.678 35.5488 200.533 35.5288C200.388 35.5093 200.206 35.8706 200.061 35.8511C199.916 35.8314 199.782 35.6847 199.637 35.6685C199.492 35.6525 199.327 35.8341 199.185 35.8179C199.043 35.8007 198.932 35.3631 198.79 35.3462C198.648 35.3299 198.483 35.5019 198.338 35.4858C198.193 35.4695 198.044 35.4859 197.899 35.4663C197.754 35.447 197.595 35.6095 197.45 35.5933C197.305 35.5768 197.174 35.3846 197.029 35.3716C196.884 35.3586 196.737 35.3654 196.592 35.3491C196.447 35.3328 196.288 35.4822 196.143 35.4692C195.998 35.4562 195.892 34.9354 195.747 34.9224C195.602 34.9095 195.437 35.1571 195.292 35.144C195.147 35.1311 194.994 35.2092 194.849 35.1929C194.704 35.1766 194.547 35.3331 194.402 35.3169C194.257 35.3006 194.129 35.0429 193.984 35.0298C193.839 35.0168 193.691 35.0399 193.546 35.0269C193.401 35.0131 193.279 34.6326 193.134 34.6196C192.989 34.6072 192.807 35.1666 192.662 35.1538C192.517 35.1408 192.377 35.0327 192.232 35.0229C192.088 35.0131 191.946 34.9449 191.801 34.9351C191.656 34.9253 191.499 35.0851 191.354 35.0757C191.21 35.0659 191.081 34.7335 190.937 34.7231C190.792 34.7134 190.637 34.8442 190.492 34.8345C190.347 34.8247 190.202 34.8146 190.058 34.8081C189.913 34.8016 189.787 34.3621 189.643 34.355C189.498 34.3485 189.332 34.7723 189.188 34.7661C189.042 34.7596 188.903 34.5802 188.758 34.5737C188.613 34.5673 188.465 34.6195 188.32 34.6099C188.175 34.6001 188.03 34.5568 187.885 34.5503C187.74 34.5436 187.601 34.3657 187.456 34.3589C187.311 34.3524 187.154 34.6554 187.009 34.6489C186.864 34.642 186.725 34.4268 186.58 34.4233C186.435 34.4201 186.284 34.5314 186.139 34.5249C185.994 34.5183 185.849 34.453 185.704 34.4497C185.559 34.4464 185.414 34.3719 185.269 34.3687C185.124 34.3654 184.976 34.3582 184.834 34.355C184.692 34.3517 184.544 34.3163 184.399 34.313C184.254 34.3097 184.103 34.6619 183.958 34.6587C183.813 34.6554 183.668 34.6587 183.523 34.6587C183.378 34.6587 183.236 34.147 183.091 34.147C182.946 34.147 182.798 34.2348 182.653 34.2349C182.508 34.2349 182.36 34.2612 182.215 34.2612C182.07 34.2611 181.922 34.1626 181.777 34.1626C181.632 34.1626 181.485 34.1821 181.34 34.1821C181.195 34.1821 181.049 34.6812 180.904 34.6812C180.759 34.6811 180.612 34.2483 180.467 34.2476C180.322 34.2476 180.173 34.2052 180.028 34.2085C179.883 34.212 179.742 34.5767 179.597 34.5806C179.452 34.5838 179.3 34.3556 179.158 34.3589C179.016 34.3622 178.868 34.4265 178.724 34.4331C178.579 34.4396 178.436 34.6193 178.291 34.6226C178.146 34.6258 178.001 34.6096 177.856 34.6128C177.711 34.6161 177.569 34.785 177.424 34.7915C177.279 34.798 177.134 34.7688 176.989 34.772C176.844 34.7752 176.69 34.5968 176.545 34.6001C176.4 34.603 176.246 34.4012 176.102 34.4077C175.957 34.4144 175.817 34.6287 175.672 34.6353C175.527 34.6412 175.368 34.3452 175.223 34.355C175.078 34.3647 174.93 34.3745 174.785 34.3843C174.64 34.3941 174.506 34.6909 174.361 34.7007C174.253 34.708 174.141 34.6754 174.03 34.6626L173.866 34.6567C173.738 34.6441 173.607 34.5683 173.48 34.5767C173.336 34.5864 173.204 34.9052 173.06 34.9155C172.915 34.9253 172.747 34.535 172.602 34.5444C172.457 34.5542 172.326 34.8401 172.181 34.8501C172.036 34.8599 171.876 34.6556 171.731 34.6685C171.586 34.6815 171.469 35.1343 171.324 35.144C171.179 35.1538 171.034 35.1759 170.89 35.189C170.745 35.202 170.577 34.8771 170.432 34.8901C170.287 34.903 170.124 34.6847 169.979 34.6978C169.835 34.7114 169.729 35.284 169.584 35.3003C169.439 35.316 169.275 35.0563 169.13 35.0688C168.985 35.0819 168.831 34.9774 168.686 34.9937C168.541 35.0105 168.424 35.378 168.279 35.3911C168.134 35.4041 167.978 35.2646 167.833 35.2808C167.688 35.2971 167.523 35.0653 167.378 35.0815C167.233 35.0978 167.105 35.3064 166.96 35.3228C166.815 35.339 166.696 35.6225 166.551 35.6392C166.406 35.6555 166.223 35.2381 166.078 35.2544C165.933 35.2707 165.791 35.3071 165.646 35.3267C165.501 35.3462 165.381 35.6225 165.236 35.6421C165.091 35.6608 164.907 35.2518 164.762 35.2681C164.617 35.2845 164.48 35.4012 164.335 35.4175C164.19 35.4346 164.088 35.8769 163.943 35.897C163.798 35.9165 163.644 35.8442 163.499 35.8638C163.354 35.8835 163.223 36.0203 163.078 36.0366C162.933 36.0529 162.788 36.0659 162.644 36.0854C162.499 36.105 162.328 35.8706 162.186 35.8901C162.043 35.9097 161.904 35.9946 161.759 36.0142C161.614 36.034 161.486 36.2124 161.344 36.2319C161.202 36.2508 161.005 35.7925 160.86 35.812C160.716 35.832 160.602 36.1243 160.457 36.144C160.312 36.1636 160.175 36.2453 160.03 36.2681C159.885 36.2909 159.751 36.3947 159.606 36.4175C159.462 36.4402 159.314 36.4178 159.169 36.4341C159.024 36.4504 158.887 36.5285 158.742 36.5513C158.597 36.5739 158.404 36.1216 158.259 36.1411C158.114 36.161 158.031 36.7331 157.887 36.7534C157.742 36.773 157.568 36.519 157.426 36.5386C157.284 36.5581 157.153 36.7172 157.011 36.7368C156.869 36.7564 156.726 36.8061 156.581 36.8257C156.436 36.8454 156.311 37.0308 156.166 37.0503C156.021 37.0695 155.813 36.4927 155.671 36.5122C155.529 36.5322 155.41 36.7964 155.265 36.8159C155.12 36.8353 154.955 36.6528 154.812 36.6724C154.67 36.6919 154.528 36.7466 154.386 36.7661C154.244 36.7863 154.15 37.2944 154.005 37.314C153.86 37.3334 153.704 37.2065 153.559 37.2261C153.414 37.2456 153.277 37.311 153.132 37.3306C152.987 37.3496 152.808 37.0078 152.666 37.0269C152.524 37.0464 152.407 37.3631 152.265 37.3794C152.123 37.3959 151.997 37.6268 151.853 37.6431C151.708 37.6594 151.562 37.6727 151.42 37.689C151.278 37.7045 151.099 37.3632 150.954 37.3794C150.809 37.3957 150.678 37.5457 150.533 37.562C150.388 37.5783 150.266 37.8219 150.121 37.8384C149.976 37.8547 149.808 37.6004 149.663 37.6167C149.518 37.633 149.384 37.7703 149.242 37.7866C149.1 37.8029 148.96 37.8807 148.815 37.897C148.671 37.9132 148.526 37.8976 148.381 37.9106C148.236 37.9237 148.074 37.6985 147.929 37.7114C147.784 37.7245 147.65 37.8485 147.505 37.8647C147.396 37.877 147.292 37.9291 147.186 37.9614L147.024 37.9966C146.9 38.0327 146.781 38.1336 146.654 38.145C146.509 38.1571 146.327 37.6427 146.183 37.6558C146.038 37.6689 145.924 38.1118 145.779 38.1255C145.634 38.1385 145.46 37.6984 145.315 37.7114C145.17 37.7245 145.037 37.8774 144.892 37.8872C144.747 37.8971 144.616 38.1154 144.471 38.1284C144.326 38.1417 144.195 38.3862 144.05 38.396C143.905 38.405 143.729 37.8458 143.584 37.855C143.439 37.8647 143.314 38.2226 143.169 38.2329C143.024 38.2427 142.896 38.5391 142.751 38.5493C142.606 38.5591 142.444 38.1914 142.299 38.2007C142.154 38.2105 142.026 38.5449 141.881 38.5552C141.736 38.5649 141.574 38.1323 141.429 38.1382C141.284 38.1447 141.141 38.1548 140.996 38.1646C140.851 38.1743 140.709 38.1873 140.564 38.1938C140.419 38.2004 140.283 38.3991 140.138 38.4058C139.993 38.4123 139.853 38.5555 139.708 38.562C139.563 38.5685 139.418 38.6007 139.273 38.604C139.128 38.6073 138.974 38.2882 138.829 38.2915C138.684 38.2955 138.551 38.685 138.406 38.689C138.261 38.6922 138.107 38.3273 137.962 38.3306C137.817 38.3341 137.678 38.5321 137.533 38.5356C137.388 38.5389 137.246 38.7804 137.101 38.7837C136.956 38.7869 136.808 38.6439 136.663 38.647C136.518 38.6502 136.37 38.3634 136.225 38.3667C136.08 38.3704 135.938 38.7012 135.793 38.7017C135.648 38.7017 135.502 38.7414 135.357 38.7446C135.213 38.7477 135.068 38.5652 134.923 38.5649C134.778 38.5649 134.632 38.5356 134.487 38.5356C134.342 38.5353 134.2 38.1782 134.056 38.1743C133.911 38.1711 133.762 38.6922 133.617 38.689C133.472 38.6856 133.327 38.5846 133.183 38.5845C133.038 38.5845 132.892 38.5848 132.747 38.5815C132.602 38.5779 132.463 38.2007 132.318 38.1968C132.173 38.1935 132.022 38.5457 131.877 38.5425C131.732 38.539 131.593 38.3214 131.445 38.3179C131.297 38.3146 131.152 38.5194 131.004 38.5161C130.856 38.5126 130.717 38.3603 130.572 38.3569C130.427 38.3537 130.279 38.4904 130.134 38.4839C129.989 38.4768 129.856 38.1327 129.711 38.1255C129.566 38.119 129.42 38.1385 129.275 38.1353C129.131 38.132 128.986 38.1807 128.841 38.1743C128.696 38.1678 128.544 38.3634 128.399 38.3569C128.254 38.3502 128.118 38.1125 127.973 38.106C127.828 38.0998 127.677 38.2495 127.532 38.2397C127.387 38.2298 127.253 37.9849 127.108 37.9751C126.964 37.9653 126.822 37.94 126.677 37.9302C126.532 37.9204 126.375 38.1934 126.228 38.1841C126.08 38.1743 125.946 38.0175 125.801 38.0044C125.656 37.9914 125.485 38.4868 125.34 38.4771C125.195 38.4671 125.058 38.3081 124.913 38.2983C124.768 38.2881 124.638 38.0313 124.493 38.021C124.348 38.0112 124.186 38.2939 124.041 38.2847C123.896 38.2749 123.756 38.1744 123.611 38.1646C123.466 38.1548 123.316 38.2682 123.171 38.2554C123.026 38.2423 122.889 38.1386 122.744 38.1255C122.599 38.1125 122.459 38.0409 122.314 38.0278C122.17 38.0146 122.053 37.6007 121.908 37.5874C121.763 37.5744 121.618 37.5809 121.473 37.5679C121.328 37.555 121.177 37.6434 121.032 37.6304C120.887 37.6174 120.743 37.617 120.598 37.604C120.453 37.591 120.322 37.4181 120.177 37.4048C120.032 37.3918 119.849 37.8612 119.704 37.8481C119.559 37.8346 119.451 37.377 119.307 37.3599C119.162 37.3436 119.002 37.5193 118.857 37.5034C118.712 37.4871 118.586 37.2746 118.438 37.2583C118.291 37.2421 118.149 37.2524 118.004 37.2329C117.859 37.2134 117.671 37.6816 117.526 37.6655C117.381 37.6492 117.233 37.6818 117.088 37.6655C116.943 37.6486 116.829 37.3013 116.685 37.2817C116.54 37.2622 116.423 36.9727 116.278 36.9526C116.133 36.9331 115.965 37.1898 115.82 37.1704C115.675 37.1509 115.539 37.0825 115.394 37.063C115.249 37.0435 115.104 37.0434 114.959 37.0239C114.814 37.0044 114.657 37.1216 114.512 37.1021C114.367 37.082 114.25 36.812 114.105 36.7925C113.961 36.773 113.813 36.8119 113.668 36.7925C113.523 36.7729 113.375 36.8023 113.229 36.7827C113.085 36.7636 112.897 37.1343 112.752 37.1147C112.607 37.0951 112.473 36.9878 112.328 36.9683C112.183 36.9483 112.08 36.5584 111.936 36.5356C111.791 36.5133 111.612 36.7957 111.467 36.7729C111.322 36.7501 111.21 36.4605 111.065 36.4409C110.921 36.4215 110.773 36.4409 110.628 36.4214C110.483 36.4019 110.369 36.1449 110.225 36.1216C110.08 36.0988 109.869 36.6232 109.724 36.5972C109.579 36.5709 109.501 36.0008 109.356 35.978C109.212 35.9553 109.067 35.952 108.922 35.9292C108.777 35.9064 108.621 35.9783 108.476 35.9556C108.331 35.9328 108.14 36.2679 107.995 36.2456C107.85 36.2228 107.75 35.8477 107.605 35.8247C107.46 35.8019 107.287 35.9943 107.142 35.9683C106.997 35.942 106.88 35.7081 106.738 35.6851C106.596 35.6623 106.419 35.8742 106.274 35.8481C106.129 35.822 106.007 35.6526 105.862 35.6265C105.717 35.6004 105.569 35.6066 105.427 35.5806C105.285 35.554 105.174 35.268 105.032 35.2417C104.89 35.2156 104.7 35.5241 104.555 35.4985C104.41 35.4725 104.31 35.1441 104.165 35.1177C104.02 35.0916 103.797 35.6164 103.655 35.5903C103.513 35.5633 103.434 35.073 103.292 35.0464C103.15 35.0203 103.01 34.9449 102.868 34.9155C102.726 34.8862 102.512 35.3169 102.37 35.2876C102.228 35.2578 102.14 34.8346 101.998 34.8052C101.856 34.7759 101.663 35.0618 101.521 35.0327C101.378 35.0034 101.239 34.9351 101.094 34.9058C100.949 34.8763 100.852 34.5503 100.707 34.521C100.562 34.4917 100.406 34.5535 100.264 34.521C100.121 34.4884 99.9819 34.4302 99.8369 34.4009C99.692 34.3717 99.5043 34.6354 99.3594 34.603C99.2144 34.5704 99.0973 34.3716 98.9551 34.3423C98.8132 34.3129 98.677 34.2281 98.5352 34.1987C98.393 34.1694 98.2192 34.3158 98.0742 34.2866C97.9292 34.2573 97.7925 34.1958 97.6475 34.1665C97.5024 34.1372 97.4254 33.7098 97.2832 33.6772C97.1411 33.6448 96.9878 33.6675 96.8457 33.6382C96.7035 33.6089 96.5211 33.7919 96.3789 33.7593C96.2369 33.7267 96.0922 33.7 95.9502 33.6675C95.8082 33.6349 95.7142 33.323 95.5723 33.2866C95.4301 33.2508 95.2252 33.5594 95.083 33.5239C94.9409 33.4881 94.7788 33.5531 94.6367 33.5239C94.4946 33.4946 94.3492 33.4686 94.207 33.436C94.0648 33.4035 93.942 33.2508 93.7998 33.2183C93.6578 33.1855 93.5385 33.0256 93.3965 32.9897C93.2543 32.9541 93.0464 33.2635 92.9043 33.231C92.7625 33.1981 92.6545 32.9742 92.5127 32.938C92.3706 32.9022 92.2593 32.6966 92.1172 32.6606C91.9751 32.6248 91.813 32.6866 91.6709 32.6509C91.5287 32.615 91.443 32.2922 91.3008 32.2563C91.1587 32.2205 91.0132 32.2043 90.8711 32.1685C90.729 32.1334 90.519 32.4326 90.377 32.394C90.2348 32.355 90.0953 32.2961 89.9561 32.2603C89.8167 32.2244 89.691 32.0874 89.5488 32.0483C89.4067 32.0095 89.2416 32.0806 89.0996 32.0415C88.9577 32.0025 88.8158 31.9731 88.6738 31.9341C88.5318 31.895 88.3384 32.0966 88.1963 32.0581C88.0541 32.019 88.025 31.4585 87.8828 31.4194C87.7408 31.3804 87.5874 31.3999 87.4453 31.3608C87.3031 31.3217 87.1862 31.1685 87.0469 31.1294C86.9075 31.0906 86.6803 31.4256 86.541 31.3833C86.4017 31.3409 86.2564 31.3114 86.1143 31.269C85.9723 31.2263 85.901 30.8817 85.7617 30.8394C85.6224 30.7971 85.4401 30.9276 85.3008 30.8853C85.1617 30.8425 85.0903 30.5008 84.9482 30.4585C84.8061 30.4165 84.5875 30.712 84.4482 30.6665C84.3089 30.6209 84.2145 30.383 84.0752 30.3374C83.9361 30.2915 83.8335 30.0868 83.6943 30.0444C83.555 30.0024 83.3473 30.2264 83.208 30.1841C83.0689 30.1418 82.9213 30.1192 82.7822 30.0737C82.643 30.0282 82.5375 29.8393 82.3984 29.7935C82.2591 29.7478 82.1364 29.6301 81.9971 29.5845C81.8578 29.5389 81.6871 29.6143 81.5479 29.5688C81.4086 29.5233 81.2808 29.4283 81.1416 29.3794C81.0023 29.3305 80.8024 29.5129 80.6631 29.4673C80.5241 29.4214 80.433 29.1911 80.2939 29.1421C80.1547 29.0933 80.0581 28.8875 79.9189 28.8384C79.7797 28.7895 79.5749 28.9878 79.4355 28.936C79.2963 28.8839 79.1852 28.734 79.0488 28.6851C78.9124 28.6362 78.6648 28.9719 78.5254 28.9204C78.3862 28.8683 78.352 28.4476 78.2129 28.395C78.0736 28.3429 77.945 28.2623 77.8057 28.2134C77.6664 28.1645 77.5299 28.1089 77.3906 28.0601C77.2514 28.0112 76.993 28.372 76.8564 28.3208C76.7201 28.2687 76.6402 28.0011 76.5039 27.9487C76.3674 27.8966 76.2556 27.7401 76.1191 27.688C75.9828 27.6358 75.8521 27.5477 75.7158 27.4956C75.5794 27.4435 75.4372 27.3986 75.3008 27.3433C75.1643 27.2879 75.0104 27.2873 74.8711 27.2319C74.732 27.1762 74.6774 26.8537 74.541 26.7983C74.4045 26.7437 74.1832 26.955 74.0469 26.8999C73.9104 26.8445 73.8191 26.6331 73.6826 26.5776C73.5462 26.5223 73.4157 26.4468 73.2793 26.3882C73.1428 26.3295 72.8806 26.6617 72.7441 26.603C72.6079 26.5441 72.5425 26.2643 72.4062 26.2056C72.2698 26.1469 72.0759 26.2642 71.9395 26.2056C71.8033 26.1463 71.8142 25.6356 71.6807 25.5737C71.547 25.5122 71.2966 25.7954 71.1602 25.7368C71.0238 25.678 70.9412 25.4559 70.8076 25.394C70.674 25.3327 70.4635 25.492 70.3271 25.4302C70.1909 25.368 70.1568 25.0167 70.0205 24.9546C69.8841 24.8927 69.6765 25.0486 69.54 24.9868C69.4036 24.9249 69.238 24.954 69.1016 24.8921C68.9654 24.8299 68.8884 24.6024 68.7549 24.5405C68.6212 24.4789 68.3767 24.7264 68.2402 24.6646C68.1038 24.6026 68.0583 24.2933 67.9219 24.228C67.7854 24.1629 67.6882 24.0028 67.5518 23.9409C67.4155 23.8789 67.3132 23.7293 67.1797 23.6675C67.0461 23.6056 66.9207 23.5145 66.7871 23.4526C66.6536 23.3908 66.4919 23.4033 66.3584 23.3384C66.2248 23.2732 65.994 23.4719 65.8604 23.4067C65.7267 23.3416 65.6893 23.0119 65.5557 22.9468C65.4221 22.8819 65.2516 22.9142 65.1182 22.8491C64.9846 22.7838 64.9158 22.5402 64.7822 22.4751C64.6485 22.4105 64.3357 22.8234 64.2021 22.7583C64.0688 22.6929 64.0005 22.4558 63.8672 22.3872C63.7336 22.3188 63.5682 22.3345 63.4346 22.2661C63.3013 22.1973 63.3013 21.7808 63.168 21.7153C63.0343 21.6502 62.7664 21.9371 62.6328 21.8687C62.4993 21.8 62.5106 21.3537 62.3799 21.2886C62.2491 21.2236 61.9335 21.6212 61.7998 21.5562C61.6662 21.491 61.6891 21.0186 61.5557 20.9497C61.4221 20.8813 61.1747 21.1123 61.041 21.0444C60.9075 20.9761 60.7537 20.963 60.6201 20.8979C60.4865 20.8328 60.3836 20.689 60.25 20.6206C60.1165 20.5519 60.1591 20.0337 60.0283 19.9653C59.8974 19.8975 59.5789 20.3081 59.4453 20.2397C59.3117 20.1713 59.1894 20.0797 59.0586 20.0112C58.9281 19.9425 58.9565 19.4611 58.8232 19.3921C58.6897 19.3237 58.374 19.7303 58.2402 19.6655C58.1066 19.6004 58.0233 19.4088 57.8896 19.3403C57.7561 19.272 57.6141 19.2287 57.4834 19.1636C57.3529 19.0979 57.3698 18.6393 57.2363 18.5708C57.1027 18.5024 56.9686 18.4436 56.835 18.3784C56.7011 18.314 56.3855 18.718 56.252 18.6528C56.1184 18.5876 56.0389 18.3853 55.9053 18.3169C55.7717 18.2484 55.7401 17.9254 55.6064 17.8569C55.4728 17.7892 55.2517 17.9611 55.1182 17.8931C54.9846 17.8247 54.788 17.9258 54.6572 17.8608C54.5264 17.7957 54.5917 17.2057 54.4609 17.1372C54.3303 17.0689 53.9982 17.5207 53.8643 17.4536C53.7306 17.3852 53.6532 17.1763 53.5195 17.1079C53.386 17.0394 53.2947 16.8697 53.1611 16.8013C53.0277 16.7327 52.945 16.5405 52.8115 16.4722C52.6779 16.4042 52.4451 16.6088 52.3115 16.5405C52.1779 16.4721 52.0838 16.3098 51.9502 16.2446C51.8166 16.1795 51.5829 16.3879 51.4492 16.3228C51.3159 16.2572 51.2876 15.9156 51.1543 15.8501C51.0207 15.7849 50.8358 15.8595 50.7021 15.7944C50.5685 15.7293 50.4627 15.5897 50.3291 15.5278C50.1955 15.466 50.0477 15.4426 49.9141 15.3774C49.7805 15.3122 49.6834 15.1496 49.5498 15.0845C49.4161 15.0197 49.2 15.1887 49.0664 15.1235C48.9331 15.0577 48.9558 14.5594 48.8223 14.4976C48.6886 14.4359 48.4578 14.6444 48.3242 14.5825C48.1908 14.5204 48.1052 14.3182 47.9717 14.2563C47.8381 14.1954 47.5886 14.4647 47.4521 14.4038C47.3157 14.3419 47.3036 13.9306 47.1699 13.8687C47.0367 13.8065 46.9769 13.5305 46.8408 13.4683C46.7044 13.4064 46.451 13.7027 46.3145 13.6411C46.178 13.5792 46.1521 13.2047 46.0156 13.146C45.8792 13.0873 45.5692 13.5494 45.4355 13.4907C45.3023 13.4316 45.3274 12.886 45.1914 12.8267C45.0549 12.768 44.7703 13.1685 44.6338 13.1099C44.4973 13.0512 44.449 12.7349 44.3125 12.6763C44.1761 12.6176 44.0651 12.4908 43.9287 12.4321C43.7923 12.3735 43.6588 12.3179 43.5225 12.2593C43.3861 12.2007 43.2721 12.0768 43.1357 12.0181C42.9993 11.9594 42.8455 11.9592 42.709 11.9038C42.5725 11.8484 42.487 11.6244 42.3506 11.5688C42.2141 11.5135 42.0436 11.5682 41.9043 11.5161C41.765 11.464 41.5398 11.6991 41.4033 11.647C41.267 11.5945 41.2184 11.2463 41.082 11.1909C40.9457 11.1358 40.7302 11.3432 40.5938 11.2886C40.4573 11.2332 40.3318 11.1379 40.1953 11.0825C40.0589 11.0271 39.9819 10.7738 39.8428 10.7183C39.7035 10.6629 39.5895 10.539 39.4502 10.4868C39.311 10.4347 39.0866 10.6947 38.9473 10.6431C38.8079 10.5909 38.7419 10.2916 38.6025 10.2427C38.4632 10.1939 38.3014 10.2323 38.1621 10.1802C38.0228 10.1282 37.8152 10.3305 37.6787 10.2817C37.5423 10.2329 37.4626 9.96262 37.3262 9.91357C37.1897 9.86471 37.0563 9.79546 36.917 9.74658C36.7776 9.6977 36.5866 9.84819 36.4473 9.79932C36.308 9.75019 36.2682 9.33613 36.1289 9.29053C35.9896 9.24513 35.7935 9.41423 35.6543 9.36865C35.515 9.32303 35.364 9.32671 35.2246 9.27783C35.0854 9.2289 34.9742 9.07572 34.835 9.02686C34.6958 8.97793 34.5796 8.844 34.4404 8.79834C34.3011 8.75272 34.1784 8.63595 34.0391 8.59033C33.8998 8.54473 33.6979 8.75001 33.5586 8.70459C33.4193 8.65898 33.3423 8.36259 33.2002 8.31689C33.058 8.27128 32.8845 8.37521 32.7451 8.32959C32.6058 8.2842 32.3951 8.53112 32.2559 8.48877C32.1167 8.44631 31.9917 8.33578 31.8525 8.29346C31.7133 8.25111 31.6392 7.92905 31.4971 7.8833C31.3549 7.83768 31.1472 8.09494 31.0078 8.04932C30.8685 8.0037 30.735 7.93151 30.5957 7.88916C30.4566 7.84676 30.3655 7.59009 30.2236 7.54736C30.0816 7.50503 29.9419 7.47249 29.7998 7.43018C29.6577 7.38784 29.4586 7.61869 29.3164 7.57666C29.1742 7.5343 29.026 7.54383 28.8838 7.50146C28.7418 7.45894 28.6508 7.20182 28.5088 7.1626C28.3667 7.12351 28.2242 7.09817 28.082 7.05908C27.9398 7.01998 27.8513 6.73002 27.7119 6.69092C27.5726 6.65223 27.3794 6.85987 27.2373 6.8208C27.0952 6.78192 26.9136 6.94068 26.7744 6.90186C26.6352 6.86278 26.5326 6.63816 26.3906 6.60205C26.2486 6.56623 26.1459 6.35133 26.0039 6.31201C25.8618 6.27293 25.7222 6.23748 25.5801 6.20166C25.438 6.16583 25.2359 6.44239 25.0938 6.40674C24.9517 6.37093 24.8491 6.13724 24.71 6.10107C24.5707 6.06525 24.4595 5.86654 24.3174 5.83057C24.1752 5.79472 24.0016 5.93477 23.8594 5.89893C23.7174 5.86309 23.635 5.52133 23.4932 5.48486C23.351 5.44902 23.1089 5.96016 22.9639 5.92432C22.8188 5.88847 22.6734 5.88561 22.5312 5.85303C22.3893 5.8201 22.2924 5.54672 22.1504 5.51416C22.0083 5.48151 21.8891 5.33128 21.7441 5.29541C21.5993 5.2596 21.4117 5.49732 21.2695 5.46533C21.1273 5.43275 21.0641 4.94714 20.9219 4.91455C20.7797 4.88239 20.5864 5.1395 20.4443 5.10693C20.3022 5.07434 20.1655 5.01256 20.0205 4.97998C19.8756 4.94713 19.7846 4.63429 19.6396 4.60498C19.4948 4.57592 19.2875 4.94313 19.1426 4.91455C18.9976 4.88522 18.9146 4.50085 18.7725 4.46826C18.6303 4.43571 18.4371 4.70278 18.2949 4.67041C18.1527 4.63783 18.0474 4.38333 17.9023 4.354C17.7574 4.32466 17.6236 4.24661 17.4814 4.21729C17.3393 4.18809 17.1626 4.36086 17.0205 4.33154C16.8785 4.30259 16.7055 4.46117 16.5635 4.43213C16.4214 4.40283 16.3528 3.8891 16.2109 3.85889C16.0689 3.82959 15.8697 4.15501 15.7275 4.12646C15.5854 4.09714 15.4341 4.11249 15.2891 4.08643C15.1443 4.05992 15.059 3.65709 14.917 3.62744C14.7748 3.59811 14.6295 3.56595 14.4873 3.53662C14.3452 3.50734 14.1606 3.74789 14.0156 3.72217C13.8706 3.6961 13.7223 3.69941 13.5801 3.67334C13.438 3.64737 13.2788 3.71893 13.1367 3.69287C12.9945 3.6668 12.895 3.32441 12.75 3.29834C12.605 3.27225 12.477 3.14862 12.332 3.12256C12.187 3.09651 11.979 3.53665 11.834 3.50732C11.6891 3.47807 11.5443 3.4738 11.3994 3.44775C11.2545 3.42156 11.1635 3.01793 11.0186 2.9917C10.8735 2.96563 10.7339 2.91035 10.5889 2.88428C10.4439 2.85849 10.2621 3.11577 10.1172 3.09326C9.97217 3.07045 9.8667 2.74726 9.72168 2.72119C9.57669 2.69537 9.38318 3.04706 9.23535 3.021C9.08762 2.995 8.94275 3.01446 8.79785 2.9917C8.65283 2.96889 8.56699 2.48033 8.4248 2.45752C8.28275 2.43542 8.07849 2.86075 7.93359 2.83545C7.7887 2.8094 7.65756 2.68946 7.5127 2.6665C7.36768 2.6437 7.22519 2.59459 7.08301 2.57178C6.94092 2.54898 6.78751 2.58473 6.64258 2.56201C6.49768 2.53922 6.36951 2.38286 6.22461 2.35986C6.07974 2.33708 5.92322 2.41175 5.77832 2.38916C5.63348 2.36638 5.53635 1.93438 5.3916 1.91064C5.24664 1.88784 5.0415 2.37942 4.89648 2.35693C4.75159 2.33414 4.60095 2.37277 4.45605 2.3501C4.31119 2.32731 4.21411 1.88833 4.06934 1.86475C3.92432 1.84194 3.74463 2.12551 3.59961 2.10596C3.45462 2.08648 3.29538 2.20656 3.15039 2.18701C3.00562 2.16712 2.92596 1.5466 2.78125 1.52588C2.63629 1.50634 2.43698 1.99421 2.29199 1.9751C2.14697 1.95555 1.9957 1.97902 1.85352 1.95947C1.71158 1.93948 1.59802 1.57513 1.45605 1.55518C1.31393 1.53563 1.17719 1.40879 1.03223 1.38916C0.887299 1.36962 0.693909 1.82521 0.551758 1.80615C0.409576 1.7866 0.27002 1.69484 0.125 1.67529C-0.019989 1.65573 -0.159698 1.591 -0.304688 1.57471C-0.449371 1.55769 -0.551605 1.07041 -0.696289 1.05322C-0.841187 1.03694 -1.03754 1.5569 -1.17969 1.5415C-1.32175 1.52523 -1.45572 1.35687 -1.60059 1.34033C-1.74561 1.32404 -1.90283 1.44061 -2.04785 1.42432C-2.19266 1.4076 -2.32382 1.20621 -2.46582 1.18994C-2.60782 1.17324 -2.74176 0.968911 -2.88379 0.952637C-3.02573 0.936818 -3.19312 1.15368 -3.33789 1.14111C-3.48291 1.12808 -3.62549 1.06659 -3.77051 1.05029C-3.91547 1.03401 -4.03766 0.704514 -4.18262 0.687988C-4.32748 0.671711 -4.51227 1.16294 -4.65723 1.15088C-4.80219 1.13785 -4.94196 1.04676 -5.08691 1.03369C-5.23187 1.02066 -5.35992 0.769511 -5.50488 0.756348C-5.6499 0.743315 -5.81494 0.988094 -5.95996 0.975098C-6.10492 0.962067 -6.23004 0.639679 -6.375 0.626465C-6.52002 0.613431 -6.69092 0.997569 -6.83594 0.987793C-6.98071 0.977951 -7.11987 0.87696 -7.26465 0.86377C-7.40967 0.850735 -7.55811 0.873545 -7.70312 0.86377C-7.84802 0.854062 -7.99866 0.952529 -8.14355 0.942871C-8.28857 0.933096 -8.42529 0.756358 -8.57031 0.746582C-8.71533 0.736726 -8.84619 0.453622 -8.99121 0.443848C-9.13623 0.434221 -9.3042 0.824715 -9.44922 0.814941C-9.59406 0.804323 -9.71057 0.216155 -9.85547 0.209473C-10.0004 0.20296 -10.1539 0.345986 -10.2988 0.336426C-10.4438 0.32665 -10.5923 0.336107 -10.7373 0.32959C-10.8821 0.322851 -11.0212 0.160892 -11.166 0.150879C-11.311 0.141103 -11.4595 0.124193 -11.6045 0.117676C-11.7494 0.111302 -11.9 0.22863 -12.0449 0.222168C-12.1898 0.215657 -12.3405 0.293959 -12.4854 0.287598C-12.6304 0.281081 -12.7759 0.199388 -12.9209 0.192871C-13.0659 0.186597 -13.2252 0.652511 -13.3701 0.645996C-13.5151 0.639394 -13.6519 0.34652 -13.7969 0.343262C-13.9417 0.339697 -14.0836 0.10894 -14.2256 0.102051C-14.3677 0.0955337 -14.519 0.160326 -14.6641 0.153809C-14.809 0.147662 -14.9625 0.49626 -15.1074 0.489746C-15.2524 0.48322 -15.395 0.225426 -15.54 0.222168C-15.6849 0.219053 -15.8326 0.287923 -15.9775 0.284668C-16.1224 0.281406 -16.2673 0.0761262 -16.4121 0.0756836C-16.5571 0.0756836 -16.7056 0.120934 -16.8506 0.117676C-16.9954 0.114395 -17.1403 0.0721646 -17.2852 0.0688477C-17.4302 0.0655891 -17.5786 0.505371 -17.7236 0.505371C-17.8685 0.505056 -18.0134 0.193259 -18.1582 0.192871C-18.3032 0.192871 -18.4516 0.0922852 -18.5938 0.0922852C-18.7358 0.0926941 -18.8835 0.437304 -19.0283 0.440918C-19.1733 0.444176 -19.3188 0.518714 -19.4639 0.521973C-19.6088 0.524633 -19.7594 0.00741112 -19.9043 0.00732422C-20.0492 0.00732422 -20.1969 -0.00274021 -20.3418 0.000488281Z" fill="url(#paint0_linear_256_3616)"/>
<defs>
<linearGradient id="paint0_linear_256_3616" x1="111.5" y1="120.939" x2="164.527" y2="2799.67" gradientUnits="userSpaceOnUse">
<stop stop-color="#F9F9F9"/>
<stop offset="1" stop-color="#E8E8E8"/>
</linearGradient>
</defs>
</svg>
