<svg width="1440" height="689" viewBox="0 0 1440 689" fill="none" xmlns="http://www.w3.org/2000/svg">
<path d="M-21.8193 0C-22.3246 0.0124573 -22.828 0.506645 -23.334 0.508789C-23.84 0.510819 -24.3522 0.575432 -24.8574 0.587891C-25.3625 0.600068 -25.881 0.111442 -26.3867 0.113281C-26.8927 0.115311 -27.4108 0.0969163 -27.916 0.109375C-28.421 0.122041 -28.9198 0.531319 -29.4248 0.543945C-29.9299 0.556401 -30.4373 0.841894 -30.9424 0.854492C-31.4476 0.866951 -31.9694 0.638912 -32.4746 0.651367C-32.9797 0.663822 -33.4343 2.19081 -33.9395 2.2041C-34.4447 2.21656 -34.9817 1.31012 -35.4863 1.33301C-35.9908 1.35575 -36.5339 0.647375 -37.0293 0.65918C-37.5247 0.671018 -38.0348 0.9143 -38.54 0.926758C-39.0452 0.939476 -39.5046 2.09045 -40.0098 2.10352C-40.515 2.11597 -41.0638 1.32509 -41.5684 1.34766C-42.073 1.37054 -42.5726 1.62357 -43.0771 1.64648C-43.5817 1.66937 -44.129 1.04509 -44.6328 1.07812C-45.1367 1.11144 -45.641 1.29152 -46.1455 1.31445C-46.6501 1.33734 -47.1633 1.23492 -47.668 1.25781C-48.1726 1.28079 -48.5938 2.72254 -49.0977 2.75586C-49.6013 2.78866 -50.1711 1.82272 -50.6748 1.85547C-51.1787 1.88878 -51.714 1.59926 -52.208 1.63184C-52.702 1.6645 -53.1432 2.80391 -53.6465 2.84766C-54.1495 2.89144 -54.6376 3.16418 -55.1406 3.20801C-55.6439 3.25175 -56.2773 1.62879 -56.7812 1.66211C-57.2852 1.69542 -57.8015 1.69747 -58.3047 1.74121C-58.8077 1.78549 -59.2087 3.07931 -59.7119 3.12305C-60.215 3.16677 -60.7206 3.17892 -61.2236 3.22266C-61.7267 3.26604 -62.3329 2.19713 -62.8359 2.24023C-63.3391 2.28398 -63.7466 3.48357 -64.2393 3.53711C-64.7319 3.59063 -65.3021 3.07376 -65.8047 3.12793C-66.3071 3.18211 -66.8042 3.31985 -67.3066 3.37402C-67.8092 3.4282 -68.2162 4.48098 -68.7188 4.53516C-69.2212 4.58912 -69.8325 3.59381 -70.335 3.64746C-70.8375 3.70164 -71.349 3.77688 -71.8516 3.83105C-72.3541 3.88523 -72.8168 4.39797 -73.3193 4.45215C-73.8218 4.50606 -74.3843 4.10307 -74.8867 4.15723C-75.3892 4.21149 -75.8204 4.90025 -76.3223 4.96484C-76.8239 5.02913 -77.3861 4.62705 -77.8877 4.69141C-78.3895 4.756 -78.882 4.96663 -79.3838 5.03125C-79.8856 5.09585 -80.3439 5.52426 -80.8457 5.58887C-81.3475 5.65328 -81.9679 4.82511 -82.4697 4.88965C-82.9716 4.95425 -83.3097 6.2957 -83.8115 6.36035C-84.3134 6.42495 -84.8146 6.50083 -85.3164 6.56543C-85.8182 6.63002 -86.4011 6.07145 -86.9023 6.14648C-87.4034 6.22116 -88.0176 5.48672 -88.5186 5.56152C-89.0198 5.63656 -89.4851 5.9611 -89.9863 6.03613C-90.4872 6.1114 -90.9288 6.63177 -91.4297 6.70703C-91.9308 6.78205 -92.5204 6.27674 -93.0215 6.35156C-93.5227 6.42659 -93.9724 6.83317 -94.4736 6.9082C-94.9747 6.98327 -95.402 7.5773 -95.8926 7.66211C-96.3832 7.74675 -96.983 7.23193 -97.4834 7.31738C-97.9836 7.40303 -98.3855 8.07832 -98.8857 8.16406C-99.3861 8.2495 -100.111 6.89473 -100.611 6.97949C-101.112 7.06495 -101.392 8.53922 -101.883 8.62402C-102.373 8.70906 -102.783 9.41609 -103.273 9.50098C-103.764 9.58578 -104.604 7.69351 -105.095 7.77832C-105.585 7.86409 -105.785 9.79319 -106.285 9.87891C-106.786 9.96437 -107.306 9.9038 -107.807 9.98926C-108.307 10.0746 -108.886 9.71543 -109.376 9.81055C-109.866 9.90578 -110.586 8.77001 -111.087 8.85547C-111.587 8.9412 -111.959 9.77229 -112.459 9.86816C-112.959 9.96395 -113.505 9.80126 -113.995 9.89648C-114.485 9.99175 -114.806 11.1433 -115.306 11.2393C-115.805 11.3351 -116.386 10.9552 -116.886 11.0508C-117.385 11.1467 -117.807 11.6771 -118.297 11.7725C-118.787 11.8677 -119.224 12.3152 -119.724 12.4111C-120.223 12.507 -120.943 11.3826 -121.433 11.4775C-121.922 11.5728 -122.375 11.9373 -122.875 12.0332C-123.375 12.1292 -123.752 12.8768 -124.252 12.9727C-124.752 13.0682 -125.515 11.7262 -126.005 11.8213C-126.495 11.9165 -126.839 12.8719 -127.339 12.9678C-127.839 13.0636 -128.357 13.035 -128.846 13.1406C-129.335 13.2463 -129.836 13.3211 -130.336 13.417C-130.773 13.5007 -131.248 13.3628 -131.688 13.3906L-132.061 13.4375C-132.502 13.4656 -132.983 13.3279 -133.412 13.4111C-133.902 13.5064 -134.123 15.1235 -134.613 15.2188C-135.103 15.3131 -135.912 13.7332 -136.412 13.8291C-136.911 13.9257 -137.138 15.4473 -137.638 15.5439C-138.137 15.6398 -138.845 14.5555 -139.345 14.6514C-139.844 14.7474 -140.269 15.226 -140.759 15.3213C-141.249 15.4165 -141.858 14.9121 -142.357 15.0078C-142.857 15.1037 -143.158 16.2544 -143.647 16.3604C-144.137 16.466 -144.557 17.018 -145.047 17.1133C-145.537 17.2085 -145.987 17.6049 -146.477 17.7002C-146.966 17.7954 -147.543 17.4876 -148.033 17.5723C-148.524 17.6571 -149.178 16.925 -149.669 17.0098C-150.159 17.0944 -150.706 16.9217 -151.206 17.0176C-151.706 17.1135 -152.037 18.1196 -152.537 18.2051C-153.037 18.2906 -153.511 18.479 -154.012 18.5645C-154.512 18.6499 -154.937 19.1385 -155.437 19.2344C-155.936 19.33 -156.536 18.8053 -157.026 18.8896C-157.517 18.9745 -158.064 18.8117 -158.555 18.8965C-159.045 18.9813 -159.628 18.5688 -160.129 18.6543C-160.629 18.7398 -160.999 19.6023 -161.489 19.6875C-161.98 19.7723 -162.662 18.7697 -163.152 18.8545C-163.643 18.9393 -164.09 19.3771 -164.581 19.4619C-165.072 19.5467 -165.553 19.7671 -166.054 19.8525C-166.554 19.938 -167.129 19.4946 -167.63 19.5801C-168.13 19.6656 -168.518 20.4038 -169.019 20.4893C-169.519 20.5747 -169.865 21.6446 -170.365 21.7305C-170.866 21.8159 -171.443 21.3507 -171.944 21.4258C-172.445 21.5007 -172.987 21.2648 -173.488 21.3398C-173.989 21.4154 -174.365 22.3395 -174.865 22.415C-175.366 22.4901 -175.854 22.6271 -176.355 22.7021C-176.856 22.777 -177.398 22.541 -177.899 22.6055C-178.401 22.6701 -178.983 22.1424 -179.484 22.207C-179.986 22.2718 -180.414 22.8444 -180.916 22.9092C-181.418 22.9738 -182.032 22.0926 -182.534 22.1572C-183.036 22.2218 -183.401 23.3045 -183.903 23.3691C-184.405 23.4341 -184.823 24.1734 -185.325 24.2275C-185.828 24.2815 -186.379 23.8888 -186.881 23.9531C-187.383 24.0177 -187.861 24.2909 -188.363 24.3555C-188.865 24.4199 -189.46 23.6632 -189.963 23.7168C-190.465 23.771 -191.068 22.9312 -191.57 22.9854C-192.073 23.0401 -192.455 24.1644 -192.957 24.2188C-193.46 24.2729 -193.943 24.4722 -194.445 24.5264C-194.948 24.5805 -195.424 24.8745 -195.927 24.9287C-196.429 24.9829 -196.885 25.453 -197.397 25.5078C-197.878 25.559 -198.404 24.9224 -198.882 24.8877L-199.071 24.8896C-199.551 24.8456 -200.089 24.137 -200.561 24.1875C-201.063 24.2417 -201.499 25.0138 -202.002 25.0576C-202.505 25.1014 -203.067 24.4057 -203.57 24.4492C-204.074 24.493 -204.511 25.2336 -205.015 25.2773C-205.518 25.3215 -205.933 26.3962 -206.437 26.4297C-206.94 26.463 -207.593 24.5488 -208.097 24.5811C-208.6 24.6144 -209.088 24.7511 -209.602 24.7852C-210.115 24.8191 -210.53 25.9152 -211.033 25.959C-211.536 26.0027 -212.038 26.0673 -212.542 26.1006C-213.046 26.1339 -213.547 26.2086 -214.052 26.2314C-214.556 26.2542 -215.135 25.0145 -215.639 25.0479C-216.142 25.082 -216.542 26.835 -217.046 26.8691C-217.55 26.9025 -218.038 27.1763 -218.543 27.1992C-219.047 27.2218 -219.621 26.0447 -220.126 26.0674C-220.63 26.0903 -221.114 26.4359 -221.618 26.459C-222.123 26.4819 -222.588 27.4027 -223.093 27.4258C-223.597 27.4487 -224.112 27.3258 -224.616 27.3486C-225.121 27.3715 -225.708 25.5464 -226.213 25.5693C-226.717 25.5924 -227.202 26.0745 -227.707 26.0869C-228.212 26.0996 -228.696 26.7385 -229.201 26.751C-229.706 26.7635 -230.206 26.8704 -230.711 26.8828C-231.216 26.8952 -231.725 26.6985 -232.23 26.7109C-232.736 26.7234 -233.26 25.9936 -233.766 26.0059C-234.271 26.0183 -234.748 26.9079 -235.253 26.9209C-235.758 26.9334 -236.259 27.1759 -236.764 27.1885C-237.269 27.2009 -237.783 26.9413 -238.289 26.9434C-238.795 26.9453 -239.3 26.6643 -239.815 26.667C-240.331 26.6697 -240.829 26.6506 -241.334 26.6631C-241.839 26.6755 -242.356 25.9136 -242.861 25.9258C-243.367 25.9382 -243.863 26.2441 -244.369 26.2461C-244.875 26.2482 -245.375 26.3329 -245.881 26.335C-246.387 26.337 -246.88 27.4482 -247.386 27.4502C-247.892 27.4513 -248.399 25.9361 -248.905 25.9277C-249.412 25.9199 -249.908 27.7108 -250.415 27.7031C-250.922 27.6947 -251.428 27.9902 -251.935 27.9922C-252.44 27.9941 -252.944 26.6765 -253.44 26.6777C-253.937 26.6791 -254.452 27.7398 -254.959 27.7314C-255.466 27.7229 -255.964 27.0852 -256.472 27.0664C-256.979 27.0478 -257.489 27.7415 -257.996 27.7227C-258.503 27.7035 -258.991 26.3226 -259.498 26.3135C-260.005 26.3051 -260.516 26.8313 -261.023 26.8125C-261.531 26.7937 -262.039 27.0581 -262.546 27.0498C-263.052 27.0414 -263.571 27.7669 -264.078 27.748C-264.585 27.7292 -265.084 27.5316 -265.592 27.5127C-266.099 27.4939 -266.596 27.3382 -267.104 27.3193C-267.611 27.3 -268.074 25.8446 -268.581 25.8252C-269.088 25.8064 -269.627 26.9615 -270.135 26.9434C-270.642 26.9245 -271.143 26.8636 -271.65 26.8447C-272.157 26.8256 -272.64 26.2815 -273.147 26.2627C-273.655 26.2438 -274.147 26.0042 -274.654 25.9854C-275.162 25.9665 -275.669 26.1045 -276.177 26.0752C-276.685 26.0461 -277.212 26.6153 -277.72 26.5967C-278.227 26.5779 -278.714 26.1181 -279.212 26.0879C-279.71 26.058 -280.212 25.8294 -280.72 25.8105C-281.227 25.7916 -281.718 25.5722 -282.226 25.543C-282.734 25.5138 -283.302 26.8405 -283.8 26.8105C-284.298 26.7803 -284.759 25.6584 -285.267 25.6289C-285.775 25.5997 -286.234 24.803 -286.742 24.7734C-287.25 24.7442 -287.802 25.7134 -288.311 25.6738C-288.819 25.6341 -289.348 26.0351 -289.856 26.0059C-290.365 25.9766 -290.882 26.1048 -291.381 26.0645C-291.88 26.0241 -292.389 25.8274 -292.888 25.7871C-293.386 25.7468 -293.808 24.1833 -294.316 24.1436C-294.825 24.1039 -295.404 25.3987 -295.913 25.3594C-296.422 25.3197 -296.913 25.1002 -297.422 25.0605C-297.93 25.0207 -298.398 24.4033 -298.906 24.3633C-299.415 24.3236 -299.939 24.6614 -300.448 24.6113C-300.958 24.5612 -301.413 23.8268 -301.922 23.7871C-302.431 23.7474 -303.048 25.3694 -303.547 25.3291C-304.046 25.2886 -304.443 23.6286 -304.952 23.5889C-305.461 23.5493 -306.009 24.1198 -306.518 24.0801C-307.026 24.0402 -307.501 23.6116 -308.011 23.5615C-308.52 23.5118 -309.491 24.1409 -310 24.0908L-307.714 234.438H-308.376V688.438H1799.21V234.438H1795.9L1796.68 212.911C1796.17 212.893 1795.4 213.394 1795.2 214.172C1794.69 214.122 1794.95 213.634 1794.45 213.583C1793.98 213.536 1793.48 213.942 1793 213.951L1792.8 213.943C1792.32 213.95 1791.82 214.327 1791.34 214.28C1790.83 214.23 1790.4 213.327 1789.9 213.276C1789.4 213.226 1788.77 214.629 1788.27 214.578C1787.77 214.527 1787.25 214.499 1786.75 214.448C1786.25 214.397 1785.74 214.315 1785.24 214.265C1784.74 214.214 1784.26 213.807 1783.76 213.756C1783.26 213.705 1782.88 212.17 1782.38 212.108C1781.88 212.047 1781.25 213.26 1780.74 213.2C1780.23 213.14 1779.82 212.11 1779.32 212.049C1778.82 211.988 1778.34 211.621 1777.83 211.561C1777.32 211.5 1776.63 213.368 1776.13 213.317C1775.63 213.266 1775.3 211.246 1774.8 211.185C1774.3 211.123 1773.77 211.231 1773.27 211.17C1772.77 211.11 1772.09 212.672 1771.59 212.611C1771.09 212.55 1770.7 211.382 1770.19 211.321C1769.68 211.261 1769.18 211.189 1768.68 211.128C1768.18 211.067 1767.7 210.669 1767.19 210.608C1766.68 210.548 1766.21 210.181 1765.71 210.12C1765.21 210.059 1764.7 209.988 1764.2 209.927C1763.7 209.866 1763.14 210.258 1762.64 210.187C1762.14 210.115 1761.62 210.118 1761.12 210.057C1760.62 209.995 1759.97 211.107 1759.47 211.035C1758.97 210.964 1758.59 209.784 1758.09 209.712C1757.59 209.64 1757.1 209.495 1756.6 209.424C1756.1 209.352 1755.51 209.883 1755.01 209.812C1754.51 209.74 1754.1 208.929 1753.59 208.857C1753.08 208.786 1752.48 209.539 1751.97 209.468C1751.47 209.396 1751.13 208.046 1750.62 207.975C1750.12 207.904 1749.46 209.069 1748.96 208.997C1748.46 208.926 1747.87 209.477 1747.37 209.396C1746.86 209.313 1746.62 207.308 1746.12 207.226C1745.62 207.144 1745.1 207.209 1744.59 207.127C1744.09 207.046 1743.34 208.738 1742.84 208.657C1742.34 208.575 1741.97 207.584 1741.46 207.491C1740.96 207.399 1740.47 207.254 1739.96 207.172C1739.46 207.09 1738.97 206.934 1738.47 206.852C1737.98 206.769 1737.41 207.026 1736.92 206.933C1736.43 206.839 1735.9 206.832 1735.41 206.739C1734.92 206.646 1734.41 206.522 1733.91 206.43C1733.41 206.337 1733.04 205.399 1732.55 205.306C1732.05 205.213 1731.54 205.205 1731.04 205.112C1730.53 205.02 1730 205.138 1729.5 205.046C1729 204.953 1728.45 205.167 1727.96 205.074C1727.46 204.981 1726.99 204.678 1726.49 204.574C1726 204.47 1725.63 203.583 1725.13 203.48C1724.63 203.378 1723.85 204.926 1723.35 204.823C1722.86 204.72 1722.59 203.293 1722.09 203.189C1721.6 203.086 1720.84 204.445 1720.34 204.342C1719.85 204.238 1719.35 204.072 1718.86 203.969C1718.37 203.865 1718.14 202.246 1717.65 202.143C1717.16 202.039 1716.35 203.579 1715.85 203.466C1715.36 203.352 1714.83 203.365 1714.34 203.251C1713.85 203.137 1713.45 202.504 1712.95 202.39C1712.46 202.276 1711.86 202.65 1711.36 202.547C1710.87 202.443 1710.46 201.885 1709.96 201.771C1709.47 201.657 1708.87 202.042 1708.38 201.928C1707.88 201.813 1707.77 199.821 1707.28 199.707C1706.78 199.593 1706.15 200.169 1705.65 200.045C1705.16 199.921 1704.48 200.666 1703.99 200.542C1703.49 200.417 1703.33 198.732 1702.84 198.607C1702.34 198.483 1701.78 198.676 1701.29 198.541C1700.81 198.406 1700.01 199.6 1699.53 199.475C1699.05 199.349 1698.6 198.95 1698.11 198.825C1697.61 198.701 1697.2 198.226 1696.71 198.101C1696.23 197.976 1695.61 198.32 1695.13 198.185C1694.64 198.049 1694.49 196.436 1694 196.311C1693.52 196.186 1692.58 197.902 1692.09 197.767C1691.61 197.631 1691.31 196.635 1690.83 196.499C1690.34 196.364 1690.04 195.463 1689.54 195.328C1689.05 195.193 1688.29 196.165 1687.8 196.029C1687.32 195.894 1686.74 196.078 1686.25 195.933C1685.75 195.787 1685.45 194.896 1684.97 194.75C1684.48 194.605 1683.81 195.193 1683.31 195.059C1682.82 194.924 1682.61 193.67 1682.13 193.524C1681.64 193.378 1681.21 193.008 1680.72 192.862C1680.24 192.717 1679.45 193.68 1678.96 193.534C1678.48 193.388 1677.97 193.285 1677.48 193.14C1676.98 192.994 1676.6 192.465 1676.11 192.319C1675.63 192.173 1675.28 191.505 1674.79 191.349C1674.3 191.192 1673.53 192.06 1673.05 191.903C1672.57 191.746 1672.29 190.812 1671.81 190.655C1671.32 190.499 1670.77 190.524 1670.3 190.367C1669.82 190.21 1669.1 190.824 1668.62 190.667C1668.14 190.509 1667.99 189.158 1667.51 189.002C1667.02 188.845 1666.72 188.059 1666.23 187.892C1665.78 187.735 1665.23 187.917 1664.76 187.812L1664.58 187.761C1664.11 187.657 1663.55 187.848 1663.1 187.701C1662.61 187.545 1662.24 186.993 1661.76 186.826C1661.27 186.659 1660.82 186.417 1660.33 186.25C1659.84 186.083 1659.36 185.938 1658.88 185.771C1658.4 185.603 1657.8 185.799 1657.32 185.632C1656.84 185.465 1656.31 185.458 1655.82 185.291C1655.33 185.124 1654.67 185.545 1654.19 185.378C1653.71 185.21 1653.6 183.846 1653.12 183.668C1652.65 183.49 1652.05 183.666 1651.57 183.488C1651.1 183.31 1650.3 184.085 1649.82 183.907C1649.35 183.729 1649.24 182.407 1648.76 182.229C1648.28 182.051 1647.81 181.851 1647.33 181.673C1646.86 181.496 1646.04 182.346 1645.56 182.168C1645.08 181.99 1644.79 181.266 1644.31 181.088C1643.83 180.91 1643.14 181.343 1642.67 181.165C1642.19 180.987 1641.89 180.262 1641.41 180.074C1640.93 179.886 1640.24 180.361 1639.76 180.184C1639.29 180.006 1638.93 179.453 1638.45 179.275C1637.98 179.098 1637.77 178.116 1637.29 177.928C1636.81 177.739 1635.95 178.686 1635.48 178.497C1635.01 178.308 1634.94 176.931 1634.46 176.753C1633.99 176.576 1633.13 177.522 1632.65 177.334C1632.17 177.146 1631.82 176.581 1631.35 176.403C1630.87 176.226 1630.34 176.187 1629.86 175.999C1629.38 175.811 1628.96 175.482 1628.48 175.294C1628.01 175.106 1627.77 174.241 1627.29 174.053C1626.81 173.864 1626.42 173.462 1625.94 173.273C1625.46 173.085 1624.7 173.743 1624.22 173.555C1623.74 173.366 1623.06 173.767 1622.59 173.578C1622.13 173.389 1621.99 172.204 1621.52 172.025C1621.05 171.847 1620.64 171.456 1620.17 171.267C1619.7 171.078 1618.83 172.036 1618.35 171.848C1617.87 171.659 1617.55 171.052 1617.08 170.863C1616.6 170.675 1616.08 170.625 1615.61 170.437C1615.14 170.248 1614.59 170.274 1614.12 170.085C1613.65 169.896 1613.06 170.019 1612.59 169.83C1612.12 169.641 1611.96 168.531 1611.49 168.353C1611.02 168.174 1610.66 167.653 1610.18 167.465C1609.7 167.277 1608.82 168.309 1608.34 168.131C1607.86 167.953 1607.64 167.057 1607.16 166.879C1606.68 166.701 1606.32 166.191 1605.84 166.003C1605.36 165.815 1605.16 164.833 1604.69 164.654C1604.22 164.476 1603.33 165.498 1602.86 165.32C1602.38 165.142 1602.16 164.203 1601.68 164.025C1601.2 163.848 1600.79 163.477 1600.31 163.299C1599.83 163.121 1599.39 162.847 1598.91 162.669C1598.43 162.491 1597.75 162.965 1597.27 162.777C1596.79 162.589 1595.98 163.471 1595.5 163.293C1595.02 163.115 1595.11 161.202 1594.63 161.024C1594.15 160.847 1593.11 162.455 1592.63 162.277C1592.15 162.099 1591.7 161.868 1591.22 161.7C1590.75 161.533 1590.42 160.884 1589.94 160.717C1589.46 160.549 1588.95 160.489 1588.46 160.322C1587.98 160.156 1587.41 160.307 1586.92 160.141C1586.44 159.974 1586.22 158.972 1585.74 158.805C1585.27 158.637 1584.5 159.411 1584.02 159.244C1583.53 159.077 1583.48 157.542 1582.99 157.374C1582.5 157.207 1582.01 157.104 1581.53 156.937C1581.05 156.769 1580.53 156.762 1580.04 156.595C1579.55 156.428 1579.09 156.228 1578.6 156.062C1578.12 155.895 1577.52 156.154 1577.03 155.998C1576.55 155.842 1575.98 155.983 1575.5 155.826C1575.03 155.669 1574.81 154.552 1574.33 154.396C1573.84 154.239 1573.25 154.487 1572.76 154.331C1572.28 154.175 1571.95 153.453 1571.48 153.296C1571 153.139 1570.47 153.121 1569.98 152.965C1569.5 152.808 1569.12 152.257 1568.64 152.111C1568.15 151.967 1567.2 153.569 1566.71 153.423C1566.22 153.277 1566.07 151.925 1565.58 151.779C1565.09 151.633 1564.63 151.392 1564.14 151.246C1563.66 151.1 1563.28 150.517 1562.8 150.371C1562.31 150.225 1561.79 150.207 1561.3 150.072C1560.8 149.937 1559.91 151.442 1559.41 151.297C1558.92 151.151 1558.76 149.726 1558.28 149.591C1557.79 149.456 1557.24 149.587 1556.74 149.452C1556.25 149.317 1555.93 148.51 1555.44 148.375C1554.96 148.24 1554.32 148.69 1553.83 148.556C1553.33 148.421 1552.65 149.125 1552.16 148.99C1551.66 148.855 1551.24 148.486 1550.75 148.351C1550.25 148.216 1549.97 147.218 1549.47 147.094C1548.98 146.969 1548.37 147.387 1547.87 147.263C1547.38 147.138 1546.79 147.47 1546.29 147.346C1545.8 147.221 1545.39 146.756 1544.89 146.632C1544.4 146.507 1543.93 146.287 1543.44 146.162C1542.96 146.038 1542.28 146.752 1541.79 146.628C1541.29 146.503 1541.19 144.583 1540.69 144.459C1540.2 144.335 1539.67 144.39 1539.17 144.276C1538.68 144.162 1537.97 145.057 1537.48 144.943C1536.99 144.829 1536.73 143.527 1536.24 143.412C1535.74 143.298 1535.19 143.482 1534.69 143.379C1534.18 143.276 1533.48 144.265 1532.98 144.151C1532.49 144.037 1531.96 144.072 1531.47 143.958C1530.98 143.844 1530.51 143.571 1530.02 143.457C1529.52 143.343 1529.09 142.943 1528.59 142.829C1528.08 142.716 1527.67 142.261 1527.16 142.158C1526.66 142.055 1526 142.895 1525.5 142.792C1525 142.689 1524.76 141.164 1524.26 141.062C1523.76 140.959 1523.1 141.819 1522.6 141.727C1522.1 141.633 1521.8 140.408 1521.3 140.305C1520.81 140.201 1520.34 139.939 1519.83 139.847C1519.33 139.754 1518.53 141.461 1518.03 141.369C1517.53 141.277 1517.18 140.326 1516.67 140.233C1516.17 140.141 1515.81 139.212 1515.31 139.119C1514.81 139.027 1514.32 138.891 1513.82 138.799C1513.32 138.706 1512.75 139.068 1512.25 138.976C1511.74 138.883 1511.05 140.071 1510.54 139.979C1510.04 139.886 1509.73 138.629 1509.23 138.547C1508.73 138.465 1508.15 138.974 1507.64 138.882C1507.14 138.789 1506.64 138.802 1506.13 138.72C1505.63 138.638 1505.17 138.302 1504.67 138.22C1504.17 138.138 1503.59 138.668 1503.09 138.586C1502.59 138.504 1502.07 138.549 1501.57 138.467C1501.07 138.385 1500.67 137.614 1500.17 137.532C1499.67 137.45 1499.24 136.935 1498.74 136.853C1498.24 136.77 1497.83 136.012 1497.33 135.93C1496.82 135.848 1496.14 137.202 1495.63 137.131C1495.12 137.06 1494.61 137.136 1494.11 137.064C1493.61 136.993 1493.14 136.625 1492.64 136.554C1492.14 136.482 1491.6 136.79 1491.09 136.719C1490.58 136.648 1490.27 135.108 1489.76 135.036C1489.26 134.965 1488.78 134.714 1488.28 134.643C1487.78 134.571 1487.24 134.816 1486.73 134.745C1486.22 134.674 1485.77 134.222 1485.27 134.15C1484.77 134.079 1484.1 135.4 1483.6 135.329C1483.1 135.257 1482.75 133.835 1482.25 133.764C1481.75 133.693 1481.08 135.055 1480.58 134.983C1480.08 134.912 1479.52 135.326 1479.02 135.254C1478.52 135.182 1478.16 133.877 1477.66 133.815C1477.16 133.754 1476.66 133.704 1476.15 133.633C1475.63 133.562 1475.02 134.713 1474.52 134.651C1474.02 134.59 1473.59 133.738 1473.09 133.677C1472.59 133.615 1472.16 132.827 1471.65 132.767C1471.14 132.706 1470.61 133.024 1470.11 132.963C1469.61 132.902 1469 133.821 1468.5 133.761C1468 133.7 1467.5 133.628 1466.99 133.567C1466.48 133.507 1466.11 132.076 1465.61 132.015C1465.11 131.953 1464.54 132.44 1464.04 132.39C1463.55 132.339 1463.07 131.889 1462.57 131.838C1462.07 131.787 1461.55 131.895 1461.04 131.845C1460.53 131.795 1459.99 132.281 1459.48 132.23C1458.97 132.18 1458.53 131.414 1458.02 131.363C1457.51 131.313 1457.05 130.757 1456.54 130.707C1456.03 130.657 1455.52 130.723 1455.02 130.672C1454.52 130.622 1453.86 132.361 1453.36 132.311C1452.86 132.259 1452.47 130.767 1451.96 130.717C1451.45 130.667 1450.91 130.995 1450.4 130.945C1449.89 130.895 1449.38 131.013 1448.86 130.964C1448.34 130.914 1447.82 131.2 1447.32 131.16C1446.82 131.12 1446.33 130.723 1445.83 130.683C1445.33 130.642 1444.75 131.582 1444.24 131.542C1443.73 131.502 1443.25 131.22 1442.74 131.17C1442.23 131.12 1441.77 130.259 1441.28 130.219C1440.78 130.178 1440.32 129.267 1439.81 129.227C1439.3 129.187 1438.69 130.83 1438.18 130.79C1437.67 130.75 1437.22 129.691 1436.72 129.65C1436.22 129.61 1435.66 130.317 1435.16 130.277C1434.65 130.238 1434.19 129.242 1433.69 129.202C1433.18 129.162 1432.63 129.9 1432.12 129.86C1431.61 129.821 1431.08 130.275 1430.57 130.246C1430.06 130.217 1429.59 129.494 1429.09 129.464C1428.59 129.434 1428.03 130.162 1427.52 130.133C1427.02 130.103 1426.58 128.635 1426.07 128.605C1425.57 128.576 1425.06 128.442 1424.55 128.402C1424.04 128.363 1423.53 128.459 1423.03 128.43C1422.52 128.401 1421.95 129.674 1421.45 129.645C1420.95 129.615 1420.44 129.543 1419.93 129.514C1419.42 129.484 1418.92 129.497 1418.41 129.479C1417.9 129.46 1417.42 128.8 1416.92 128.771C1416.41 128.741 1415.88 129.31 1415.37 129.281C1414.86 129.252 1414.36 129.265 1413.85 129.246C1413.34 129.227 1412.85 128.715 1412.34 128.696C1411.84 128.677 1411.34 128.584 1410.83 128.565C1410.32 128.547 1409.83 127.961 1409.32 127.942C1408.81 127.924 1408.29 128.063 1407.79 128.044C1407.28 128.025 1406.78 127.44 1406.28 127.421C1405.77 127.402 1405.24 128.286 1404.74 128.277C1404.23 128.269 1403.7 128.901 1403.2 128.882C1402.69 128.863 1402.19 128.089 1401.69 128.081C1401.18 128.073 1400.67 127.593 1400.17 127.584C1399.68 127.575 1399.15 127.881 1398.65 127.873C1398.14 127.865 1397.61 129.051 1397.11 129.032C1396.62 129.013 1396.11 128.24 1395.6 128.231C1395.1 128.223 1394.58 128.834 1394.07 128.825C1393.57 128.817 1393.07 128.431 1392.56 128.423C1392.05 128.414 1391.54 127.002 1391.04 127.004C1390.53 127.006 1390.02 128.024 1389.51 128.016C1389.01 128.007 1388.5 128.837 1388 128.828C1387.5 128.819 1386.98 127.441 1386.47 127.442C1385.96 127.444 1385.46 128.849 1384.96 128.852C1384.45 128.854 1383.93 127.265 1383.42 127.267C1382.92 127.269 1382.42 128.318 1381.91 128.33C1381.41 128.342 1380.88 127.446 1380.38 127.447C1379.87 127.449 1379.37 127.629 1378.86 127.642C1378.36 127.654 1377.85 128.096 1377.35 128.107C1376.86 128.119 1376.35 128.625 1375.84 128.638C1375.34 128.65 1374.81 128.129 1374.31 128.142C1373.8 128.154 1373.27 127.457 1372.77 127.469C1372.26 127.481 1371.76 127.724 1371.26 127.736C1370.75 127.749 1370.23 127.489 1369.72 127.502C1369.22 127.514 1368.73 128.081 1368.22 128.094C1367.72 128.106 1367.19 127.617 1366.68 127.64C1366.18 127.663 1365.66 127.54 1365.16 127.562C1364.66 127.586 1364.18 128.277 1363.67 128.29C1363.17 128.302 1362.7 129.243 1362.2 129.267C1361.69 129.289 1361.19 129.333 1360.68 129.346C1360.18 129.358 1359.61 128.327 1359.11 128.36C1358.61 128.394 1358.1 128.491 1357.59 128.514C1357.09 128.537 1356.57 128.319 1356.06 128.353C1355.56 128.386 1355.04 128.295 1354.54 128.317C1354.05 128.34 1353.53 128.416 1353.02 128.449C1352.52 128.483 1352.1 129.85 1351.6 129.884C1351.09 129.917 1350.61 130.17 1350.1 130.203C1349.6 130.236 1348.99 128.832 1348.49 128.864C1347.98 128.898 1347.58 130.275 1347.07 130.309C1346.57 130.342 1346.01 129.678 1345.5 129.722C1345 129.765 1344.48 129.663 1343.99 129.706C1343.49 129.749 1343 130.17 1342.51 130.213C1342.02 130.256 1341.55 130.769 1341.04 130.812C1340.54 130.856 1339.91 129.557 1339.4 129.601C1338.9 129.644 1338.48 130.636 1337.98 130.68C1337.47 130.723 1336.98 130.882 1336.47 130.937C1335.97 130.99 1335.31 129.505 1334.81 129.56C1334.3 129.614 1333.97 131.342 1333.46 131.397C1332.95 131.452 1332.45 131.516 1331.95 131.57C1331.45 131.624 1330.93 131.617 1330.43 131.671C1329.93 131.725 1329.29 130.636 1328.79 130.69C1328.28 130.745 1327.88 131.662 1327.38 131.716C1326.87 131.77 1326.36 131.783 1325.86 131.837C1325.35 131.891 1324.82 131.707 1324.31 131.771C1323.81 131.836 1323.44 132.898 1322.93 132.963C1322.43 133.027 1321.89 132.76 1321.39 132.835C1320.89 132.91 1320.34 132.641 1319.84 132.706C1319.34 132.771 1318.91 133.417 1318.41 133.492C1317.91 133.567 1317.38 133.403 1316.87 133.479C1316.37 133.553 1315.78 132.975 1315.28 133.039C1314.78 133.104 1314.37 133.822 1313.87 133.897C1313.36 133.972 1312.66 132.678 1312.16 132.753C1311.66 132.828 1311.24 133.474 1310.75 133.549C1310.25 133.623 1309.69 133.315 1309.19 133.39C1308.69 133.465 1308.17 133.405 1307.67 133.49C1307.16 133.576 1306.84 134.822 1306.35 134.907C1305.86 134.992 1305.28 134.653 1304.79 134.738C1304.3 134.823 1303.67 134.131 1303.17 134.217C1302.67 134.302 1302.18 134.513 1301.69 134.598C1301.2 134.683 1300.76 135.141 1300.26 135.227C1299.76 135.312 1299.41 136.299 1298.92 136.395C1298.43 136.49 1297.7 135.218 1297.2 135.313C1296.7 135.409 1296.4 136.697 1295.9 136.782C1295.4 136.867 1294.66 135.524 1294.16 135.608C1293.66 135.694 1293.39 137.105 1292.89 137.201C1292.39 137.297 1291.67 136.13 1291.17 136.226C1290.67 136.321 1290.22 136.717 1289.73 136.812C1289.24 136.908 1288.77 137.18 1288.28 137.275C1287.79 137.371 1287.29 137.529 1286.79 137.625C1286.29 137.721 1285.81 137.911 1285.32 138.006C1284.83 138.101 1284.52 139.242 1284.02 139.338C1283.52 139.434 1283.01 139.446 1282.51 139.542C1282.01 139.638 1281.45 139.33 1280.95 139.426C1280.45 139.522 1279.76 138.572 1279.26 138.679C1278.76 138.786 1278.49 140.07 1277.99 140.166C1277.49 140.262 1276.98 140.306 1276.48 140.401C1275.98 140.497 1275.25 139.248 1274.75 139.354C1274.25 139.46 1273.9 140.301 1273.4 140.396C1272.9 140.492 1272.36 140.339 1271.86 140.435C1271.36 140.531 1271.09 141.795 1270.59 141.892C1270.09 141.987 1269.54 141.741 1269.04 141.837C1268.54 141.933 1268.02 141.893 1267.53 141.988C1267.04 142.083 1266.48 141.88 1265.99 141.976C1265.5 142.071 1264.89 141.587 1264.39 141.683C1263.89 141.778 1263.53 142.567 1263.03 142.663C1262.53 142.759 1262.04 142.896 1261.55 142.991C1261.06 143.086 1260.53 143.038 1260.03 143.134C1259.53 143.23 1258.92 142.683 1258.43 142.778C1257.94 142.874 1257.47 143.157 1256.98 143.252C1256.49 143.347 1255.93 143.122 1255.44 143.217C1254.95 143.313 1254.71 144.858 1254.22 144.953C1253.73 145.048 1253.02 144.016 1252.53 144.111C1252.04 144.207 1251.75 145.503 1251.25 145.589C1250.75 145.674 1250.2 145.459 1249.71 145.555C1249.22 145.65 1248.72 145.787 1248.23 145.872C1247.74 145.957 1247.23 145.981 1246.73 146.077C1246.23 146.173 1245.74 146.257 1245.24 146.343C1244.74 146.428 1244.12 145.788 1243.63 145.873C1243.14 145.958 1242.81 147.101 1242.32 147.196C1241.83 147.292 1241.11 145.998 1240.61 146.083C1240.11 146.168 1239.87 147.83 1239.37 147.915C1238.87 147.999 1238.12 146.519 1237.63 146.594C1237.14 146.668 1236.72 147.252 1236.22 147.337C1235.73 147.422 1235.27 147.745 1234.77 147.82C1234.27 147.895 1233.69 147.39 1233.19 147.465C1232.68 147.541 1232.39 148.972 1231.89 149.048C1231.39 149.123 1230.92 149.363 1230.42 149.438C1229.92 149.513 1229.36 149.132 1228.86 149.207C1228.35 149.282 1227.73 148.464 1227.23 148.539C1226.73 148.614 1226.24 148.688 1225.74 148.753C1225.24 148.818 1224.86 149.806 1224.36 149.87C1223.86 149.934 1223.22 148.898 1222.72 148.963C1222.21 149.027 1221.81 149.799 1221.31 149.863C1220.8 149.928 1220.38 150.521 1219.88 150.586C1219.37 150.651 1218.87 150.653 1218.37 150.707C1217.86 150.761 1217.18 149.277 1216.68 149.342C1216.18 149.407 1215.73 149.876 1215.23 149.93C1214.73 149.984 1214.4 151.587 1213.9 151.651C1213.4 151.716 1212.87 151.448 1212.36 151.502C1211.86 151.556 1211.35 151.474 1210.85 151.528C1210.35 151.582 1209.76 150.867 1209.26 150.921C1208.76 150.976 1208.36 152.112 1207.86 152.166C1207.36 152.219 1206.73 150.88 1206.22 150.934C1205.72 150.988 1205.33 152.133 1204.83 152.178C1204.32 152.221 1203.88 152.827 1203.37 152.871C1202.87 152.915 1202.33 152.521 1201.83 152.564C1201.32 152.608 1200.85 152.934 1200.34 152.978C1199.84 153.021 1199.27 152.21 1198.76 152.244C1198.24 152.278 1197.79 152.737 1197.29 152.781C1196.78 152.825 1196.18 151.545 1195.68 151.589C1195.17 151.633 1194.72 152.197 1194.21 152.241C1193.71 152.285 1193.28 153.276 1192.78 153.32C1192.27 153.364 1191.67 151.927 1191.17 151.96C1190.66 151.993 1190.23 153.164 1189.73 153.197C1189.23 153.231 1188.72 153.243 1188.22 153.276C1187.71 153.309 1187.17 152.581 1186.66 152.604C1186.19 152.625 1185.74 153.05 1185.28 153.122L1185.09 153.14C1184.62 153.205 1184.17 153.574 1183.69 153.596C1183.19 153.619 1182.64 152.744 1182.13 152.777C1181.62 152.811 1181.15 153.335 1180.64 153.358C1180.14 153.381 1179.6 152.683 1179.1 152.706C1178.59 152.729 1178.13 153.639 1177.62 153.651C1177.12 153.664 1176.63 154.147 1176.13 154.159C1175.62 154.172 1175.11 154.079 1174.61 154.092C1174.1 154.104 1173.57 153.292 1173.07 153.314C1172.56 153.337 1172.05 153.297 1171.55 153.31C1171.04 153.322 1170.55 153.69 1170.04 153.702C1169.54 153.715 1169.05 154.082 1168.54 154.095C1168.04 154.107 1167.53 154.151 1167.03 154.153C1166.52 154.156 1166.02 154.575 1165.52 154.588C1165.01 154.6 1164.48 153.107 1163.97 153.108C1163.47 153.11 1162.97 153.227 1162.46 153.229C1161.95 153.232 1161.47 154.824 1160.97 154.826C1160.46 154.828 1159.96 154.861 1159.45 154.863C1158.95 154.865 1158.44 154.596 1157.94 154.598C1157.43 154.6 1156.93 154.412 1156.43 154.414C1155.92 154.415 1155.41 152.921 1154.91 152.923C1154.4 152.925 1153.9 154.801 1153.39 154.793C1152.89 154.785 1152.39 153.561 1151.88 153.552C1151.38 153.543 1150.88 152.906 1150.37 152.908C1149.87 152.91 1149.35 154.441 1148.85 154.434C1148.34 154.425 1147.84 154.322 1147.33 154.313C1146.82 154.305 1146.33 153.699 1145.82 153.681C1145.31 153.662 1144.8 154.229 1144.3 154.221C1143.79 154.212 1143.29 154.404 1142.78 154.385C1142.27 154.365 1141.8 152.764 1141.29 152.744C1140.78 152.725 1140.28 153.073 1139.77 153.064C1139.27 153.056 1138.77 152.669 1138.27 152.65C1137.76 152.632 1137.26 152.56 1136.75 152.541C1136.24 152.522 1135.72 153.552 1135.21 153.533C1134.7 153.514 1134.22 153.065 1133.7 153.047C1133.18 153.029 1132.66 153.964 1132.15 153.945C1131.64 153.926 1131.16 153.331 1130.65 153.312C1130.14 153.293 1129.61 154.197 1129.1 154.179C1128.59 154.16 1128.12 153.154 1127.61 153.135C1127.1 153.116 1126.59 153.286 1126.08 153.268C1125.57 153.249 1125.12 152.085 1124.61 152.056C1124.1 152.027 1123.56 153.141 1123.06 153.122C1122.55 153.103 1122.09 152.265 1121.58 152.235C1121.07 152.206 1120.58 151.861 1120.08 151.831C1119.58 151.802 1119.02 152.959 1118.51 152.931C1118 152.901 1117.53 152.273 1117.02 152.243C1116.52 152.214 1115.96 153.151 1115.45 153.111C1114.94 153.072 1114.45 152.885 1113.95 152.845C1113.45 152.804 1113 151.671 1112.49 151.642C1111.98 151.613 1111.38 153.223 1110.87 153.184C1110.36 153.144 1109.88 152.851 1109.37 152.812C1108.86 152.771 1108.46 151.186 1107.95 151.146C1107.44 151.107 1106.93 151.255 1106.43 151.215C1105.92 151.175 1105.41 151.261 1104.9 151.222C1104.39 151.182 1103.89 151.142 1103.38 151.103C1102.87 151.063 1102.38 150.928 1101.87 150.878C1101.36 150.828 1100.75 152.397 1100.24 152.357C1099.73 152.318 1099.24 152.068 1098.73 152.028C1098.28 151.993 1097.86 151.692 1097.42 151.584L1097.13 151.534C1096.66 151.417 1096.23 150.805 1095.76 150.758C1095.25 150.708 1094.69 151.195 1094.19 151.155C1093.68 151.116 1093.22 150.445 1092.72 150.404C1092.22 150.364 1091.73 149.935 1091.23 149.884C1090.73 149.833 1090.2 150.047 1089.7 149.996C1089.2 149.946 1088.64 150.495 1088.14 150.444C1087.65 150.394 1087.11 150.649 1086.61 150.599C1086.11 150.548 1085.57 150.75 1085.08 150.699C1084.58 150.648 1084.13 149.798 1083.63 149.747C1083.13 149.696 1082.53 150.732 1082.03 150.682C1081.53 150.631 1081.02 150.56 1080.52 150.509C1080.02 150.457 1079.62 149.008 1079.12 148.946C1078.62 148.885 1078.08 149.14 1077.58 149.09C1077.07 149.04 1076.49 149.706 1075.98 149.646C1075.47 149.585 1075.06 148.565 1074.56 148.504C1074.06 148.443 1073.54 148.52 1073.03 148.459C1072.52 148.398 1072.06 147.841 1071.56 147.78C1071.06 147.719 1070.5 148.207 1069.99 148.146C1069.48 148.086 1069.03 147.54 1068.53 147.479C1068.03 147.417 1067.46 147.852 1066.96 147.791C1066.46 147.73 1065.82 148.788 1065.32 148.727C1064.82 148.665 1064.46 147.287 1063.96 147.226C1063.45 147.164 1062.84 148.053 1062.34 147.992C1061.84 147.931 1061.44 146.868 1060.94 146.796C1060.44 146.724 1059.85 147.308 1059.35 147.247C1058.85 147.186 1058.41 146.534 1057.9 146.463C1057.39 146.392 1056.83 146.859 1056.32 146.787C1055.82 146.715 1055.4 145.906 1054.9 145.834C1054.4 145.762 1053.86 145.976 1053.36 145.894C1052.86 145.812 1052.34 145.846 1051.84 145.764C1051.34 145.682 1050.87 145.304 1050.37 145.232C1049.87 145.161 1049.3 145.513 1048.8 145.441C1048.3 145.37 1047.86 144.77 1047.36 144.688C1046.86 144.605 1046.22 145.538 1045.72 145.467C1045.22 145.395 1044.85 144.236 1044.36 144.153C1043.87 144.071 1043.19 145.204 1042.69 145.133C1042.19 145.061 1041.65 145.171 1041.16 145.088C1040.67 145.005 1040.12 145.082 1039.62 145C1039.12 144.918 1038.68 144.372 1038.19 144.289C1037.69 144.206 1037.32 143.163 1036.83 143.069C1036.33 142.976 1035.81 143 1035.31 142.918C1034.81 142.836 1034.17 143.611 1033.67 143.519C1033.17 143.426 1032.62 143.588 1032.13 143.495C1031.64 143.401 1031.4 141.596 1030.9 141.503C1030.4 141.41 1029.75 142.217 1029.25 142.125C1028.75 142.033 1028.13 142.67 1027.63 142.577C1027.14 142.484 1026.76 141.64 1026.25 141.537C1025.75 141.434 1025.29 141.171 1024.79 141.068C1024.28 140.965 1023.6 141.932 1023.11 141.84C1022.62 141.747 1022.42 139.832 1021.93 139.739C1021.44 139.647 1020.59 141.45 1020.1 141.348C1019.61 141.244 1019.43 139.254 1018.94 139.15C1018.45 139.047 1017.93 139.019 1017.44 138.915C1016.94 138.812 1016.19 140.108 1015.68 140.005C1015.18 139.902 1014.78 139.289 1014.29 139.186C1013.8 139.082 1013.45 138.163 1012.96 138.06C1012.46 137.956 1011.97 137.821 1011.47 137.707C1010.98 137.593 1010.53 137.246 1010.04 137.132C1009.54 137.018 1008.79 138.156 1008.3 138.042C1007.81 137.928 1007.42 137.252 1006.93 137.138C1006.44 137.024 1005.87 137.208 1005.38 137.104C1004.89 137.001 1004.4 136.781 1003.91 136.667C1003.42 136.553 1003.11 135.527 1002.62 135.412C1002.12 135.298 1001.61 135.259 1001.12 135.145C1000.63 135.031 999.851 136.192 999.356 136.067C998.862 135.943 998.306 136.095 997.812 135.971C997.317 135.846 997.183 134.116 996.688 133.991C996.194 133.867 995.346 135.306 994.852 135.182C994.357 135.057 994.133 133.773 993.639 133.648C993.144 133.524 992.713 133.154 992.218 133.02C991.723 132.885 991.144 133.143 990.659 133.008C990.174 132.872 989.359 134.068 988.874 133.933C988.389 133.797 988.276 132.086 987.781 131.951C987.286 131.816 986.598 132.522 986.103 132.387C985.608 132.252 985.114 132.138 984.629 132.003C984.144 131.867 983.52 132.213 983.035 132.077C982.55 131.941 982.347 130.668 981.852 130.521C981.356 130.376 980.784 130.591 980.298 130.445C979.812 130.299 979.491 129.494 979.005 129.348C978.519 129.202 977.929 129.439 977.434 129.294C976.938 129.149 976.532 128.715 976.045 128.559C975.558 128.402 975.175 127.863 974.688 127.706C974.202 127.55 973.204 129.259 972.717 129.104C972.23 128.947 972.247 126.966 971.761 126.81C971.274 126.654 970.419 127.831 969.933 127.675C969.446 127.518 968.807 127.906 968.32 127.75C967.834 127.594 967.62 126.476 967.133 126.31C966.646 126.143 966.409 125.121 965.933 124.964C965.456 124.807 964.799 125.227 964.312 125.071C963.826 124.915 963.421 124.491 962.934 124.324C962.446 124.157 961.749 124.727 961.263 124.571C960.776 124.415 960.143 124.739 959.665 124.572C959.188 124.405 958.675 124.313 958.197 124.146C957.72 123.978 957.526 122.849 957.049 122.682C956.571 122.514 956.141 122.155 955.663 121.987C955.186 121.82 954.591 121.985 954.113 121.817C953.636 121.65 953.369 120.767 952.892 120.6C952.414 120.432 951.829 120.586 951.351 120.408C950.872 120.231 949.957 121.39 949.479 121.223C949.002 121.055 948.976 119.456 948.498 119.277C948.02 119.099 947.574 118.815 947.096 118.637C946.618 118.459 946.222 118.034 945.744 117.856C945.266 117.679 944.598 118.089 944.12 117.911C943.642 117.733 943.354 116.987 942.876 116.81C942.398 116.633 941.463 117.815 940.985 117.637C940.507 117.459 939.937 117.539 939.458 117.351C938.979 117.162 938.518 116.941 938.039 116.753C937.561 116.564 937.498 115.165 937.02 114.977C936.541 114.788 935.564 116.078 935.095 115.89C934.626 115.701 934.72 113.83 934.241 113.642C933.762 113.454 932.893 114.422 932.415 114.244C931.937 114.066 931.775 112.957 931.297 112.778C930.819 112.6 929.916 113.665 929.438 113.478C928.959 113.289 928.772 112.275 928.294 112.097C927.816 111.919 927.63 110.906 927.151 110.717C926.673 110.529 926.211 110.307 925.742 110.118C925.273 109.929 924.252 111.306 923.773 111.118C923.295 110.93 923.084 110.001 922.605 109.812C922.127 109.624 921.841 108.911 921.363 108.732C920.885 108.555 920.116 109.233 919.637 109.045C919.158 108.857 918.439 109.386 917.97 109.197C917.501 109.008 917.272 108.091 916.803 107.902C916.334 107.713 915.931 107.321 915.452 107.133C914.973 106.945 914.604 106.466 914.126 106.288C913.648 106.11 913.211 105.804 912.742 105.625C912.274 105.447 911.544 105.966 911.075 105.777C910.606 105.588 910.185 105.229 909.716 105.04C909.247 104.851 908.736 104.769 908.257 104.581C907.778 104.393 907.176 104.6 906.697 104.412C906.218 104.224 905.633 104.377 905.164 104.188C904.695 103.999 904.366 103.372 903.897 103.183C903.428 102.994 903.182 102.13 902.704 101.952C902.226 101.775 901.385 102.71 900.906 102.521C900.427 102.333 900.059 101.866 899.58 101.678C899.101 101.489 898.533 101.6 898.055 101.422C897.577 101.244 897.381 100.242 896.903 100.063C896.425 99.8856 895.832 100.071 895.354 99.8936C894.875 99.7157 894.522 99.1837 894.044 99.0059C893.566 98.8285 892.818 99.5162 892.34 99.3389C891.862 99.161 891.384 99.0031 890.906 98.8252C890.428 98.6465 890.534 96.6508 890.057 96.4834C889.579 96.3161 888.986 96.5014 888.509 96.334C888.031 96.1668 887.266 96.898 886.788 96.7207C886.31 96.5428 885.702 96.8132 885.215 96.6465C884.728 96.4797 884.349 96.0123 883.872 95.8447C883.395 95.6773 883.299 94.2378 882.821 94.0703C882.344 93.9039 881.345 95.4568 880.857 95.29C880.37 95.1226 880.431 93.1916 879.944 93.0244C879.457 92.8576 879.02 92.562 878.543 92.3945C878.065 92.2271 877.102 93.7156 876.614 93.5488C876.127 93.382 875.942 92.2326 875.465 92.0645C874.987 91.897 874.55 91.59 874.063 91.4336C873.577 91.2773 872.826 92.0706 872.339 91.915C871.852 91.7587 871.534 91.0144 871.058 90.8574C870.581 90.7003 870.27 89.9044 869.783 89.748C869.297 89.5922 868.388 91.0023 867.901 90.8467C867.415 90.6904 867.393 88.8592 866.906 88.7021C866.42 88.5458 865.528 89.9239 865.041 89.7676C864.555 89.611 864.237 88.858 863.751 88.7119C863.265 88.566 862.906 87.9399 862.42 87.7939C861.934 87.648 861.526 87.1825 861.041 87.0469C860.556 86.9114 859.879 87.4798 859.393 87.334C858.907 87.1881 858.152 88.0862 857.667 87.9512C857.182 87.8157 857.182 85.7312 856.687 85.5859C856.191 85.4408 855.526 86.0499 855.031 85.915C854.536 85.7802 853.95 86.0811 853.455 85.9463C852.96 85.8114 852.529 85.4519 852.044 85.3164C851.559 85.1806 851.188 84.5245 850.703 84.3994C850.219 84.2749 849.484 85.1817 848.989 85.0469C848.495 84.9111 848.318 83.4471 847.824 83.3223C847.33 83.1978 846.867 82.9669 846.372 82.832C845.877 82.6973 845.301 82.9865 844.807 82.8623C844.312 82.7379 843.695 83.1661 843.21 83.041C842.726 82.9159 842.277 82.5795 841.782 82.4551C841.288 82.3307 840.589 83.1723 840.095 83.0479C839.6 82.9234 839.486 81.0463 838.991 80.9219C838.497 80.7977 837.747 81.9044 837.253 81.791C836.759 81.677 836.408 80.8728 835.914 80.7588C835.42 80.6448 834.987 80.2432 834.483 80.1299C833.98 80.0165 833.308 80.8259 832.814 80.7119C832.321 80.5977 831.955 79.8682 831.451 79.7549C830.948 79.6419 830.211 80.7995 829.718 80.6963C829.225 80.5927 828.716 80.5639 828.213 80.4609C827.71 80.3573 827.498 78.8011 826.995 78.6982C826.492 78.5953 826 78.5121 825.497 78.4092C824.994 78.3066 824.392 78.8067 823.899 78.7031C823.406 78.5996 822.78 79.1963 822.287 79.0928C821.794 78.9892 821.33 78.7162 820.827 78.6133C820.324 78.5104 819.803 78.587 819.31 78.4834C818.817 78.3797 818.466 77.4285 817.964 77.3359C817.462 77.2435 817.132 76.1661 816.639 76.0625C816.146 75.959 815.636 75.8981 815.134 75.8057C814.631 75.7132 814.054 76.139 813.551 76.0361C813.048 75.9333 812.367 77.0358 811.864 76.9434C811.362 76.8509 810.849 76.8952 810.347 76.8027C809.844 76.7103 809.595 75.0413 809.093 74.9482C808.591 74.8558 807.923 75.8734 807.432 75.791C806.94 75.7083 806.431 75.6787 805.93 75.5967C805.428 75.5145 804.991 75.0622 804.489 74.9697C803.987 74.8773 803.4 75.4497 802.897 75.3574C802.395 75.2649 802.013 74.4522 801.512 74.3701C801.042 74.2934 800.526 74.5785 800.05 74.5469L799.86 74.5254C799.385 74.4938 798.869 74.7788 798.398 74.7021C797.897 74.6201 797.497 73.8291 796.995 73.7471C796.494 73.6651 795.906 74.2383 795.404 74.1562C794.903 74.0738 794.548 72.9039 794.047 72.832C793.546 72.7604 793.059 72.5931 792.558 72.5215C792.057 72.4499 791.607 71.9662 791.106 71.8945C790.606 71.8231 790.071 71.9945 789.57 71.9229C789.069 71.8517 788.4 73.1419 787.899 73.0703C787.399 72.9985 786.958 72.4831 786.447 72.4121C785.937 72.3412 785.54 71.446 785.039 71.374C784.538 71.3024 784.075 70.9147 783.564 70.8438C783.054 70.7728 782.475 71.4704 781.964 71.3994C781.453 71.3284 781.023 70.6869 780.522 70.6152C780.022 70.5439 779.401 71.5159 778.901 71.4551C778.401 71.3939 778.01 70.2891 777.5 70.2285C776.99 70.168 776.448 70.5285 775.947 70.457C775.446 70.3854 775.024 69.5648 774.523 69.4932C774.023 69.4223 773.35 70.9528 772.85 70.8916C772.349 70.83 772.005 69.2295 771.495 69.1689C770.985 69.1088 770.416 69.8064 769.906 69.7461C769.396 69.6855 768.945 69.1709 768.435 69.1104C767.925 69.0499 767.394 69.2832 766.895 69.2324C766.395 69.1819 765.846 69.5852 765.337 69.5352C764.828 69.485 764.277 70.0129 763.768 69.9629C763.258 69.9128 762.816 69.2197 762.315 69.1582C761.815 69.097 761.376 68.3089 760.866 68.2588C760.357 68.2087 759.791 68.9481 759.281 68.8984C758.772 68.8483 758.276 68.7129 757.776 68.6621C757.277 68.6117 756.708 69.3089 756.198 69.2588C755.689 69.2087 755.184 69.2318 754.675 69.1816C754.165 69.1314 753.726 68.3441 753.217 68.2939C752.707 68.2438 752.291 67.1918 751.781 67.1416C751.272 67.0915 750.771 67.0306 750.262 66.9805C749.752 66.9313 749.138 68.3011 748.629 68.251C748.12 68.2003 747.72 66.6663 747.211 66.6162C746.702 66.5669 746.086 68.0629 745.587 68.0127C745.087 67.9619 744.669 66.596 744.17 66.5557C743.671 66.5158 743.095 67.2548 742.597 67.2148C742.098 67.1745 741.608 66.6729 741.108 66.6221C740.609 66.5713 740.077 66.7736 739.567 66.7236C739.058 66.6735 738.555 66.5817 738.046 66.542C737.537 66.5021 737.059 66.0202 736.551 65.9805C736.042 65.9408 735.498 66.4271 734.999 66.3867C734.5 66.3465 733.979 66.4126 733.471 66.373C732.962 66.3334 732.454 66.3141 731.945 66.2744C731.437 66.2347 730.92 66.3736 730.411 66.334C729.902 66.2943 729.444 65.3722 728.937 65.3428C728.429 65.3135 727.931 65.0008 727.423 64.9609C726.914 64.9212 726.363 65.7431 725.854 65.7139C725.347 65.6848 724.791 66.5906 724.283 66.5615C723.775 66.5323 723.333 65.1054 722.825 65.0762C722.317 65.047 721.78 65.4908 721.282 65.4609C720.784 65.431 720.273 65.3496 719.765 65.3203C719.257 65.2912 718.742 65.4716 718.234 65.4424C717.727 65.4127 717.245 64.7325 716.737 64.7031C716.229 64.6739 715.673 65.874 715.165 65.8447C714.657 65.8155 714.162 65.3763 713.654 65.3574C713.147 65.3386 712.613 65.9606 712.115 65.9414C711.618 65.9219 711.139 64.5392 710.642 64.5195C710.144 64.5001 709.607 65.0911 709.1 65.0723C708.592 65.0535 708.082 65.1396 707.574 65.1104C707.066 65.0812 706.547 65.6389 706.04 65.6201C705.533 65.6013 705.037 65.0162 704.53 65.0078C704.024 64.9995 703.511 65.054 703.004 65.0352C702.497 65.0165 701.975 65.5326 701.469 65.5244C700.962 65.516 700.486 63.8719 699.979 63.8633C699.473 63.8549 698.952 64.6851 698.445 64.6768C697.939 64.6684 697.421 64.9544 696.914 64.9355C696.407 64.9168 695.896 65.4524 695.389 65.4336C694.881 65.4143 694.382 64.6207 693.876 64.6123C693.369 64.6039 692.86 64.7105 692.354 64.7021C691.847 64.6937 691.342 63.5019 690.835 63.4932C690.328 63.4848 689.814 65.3208 689.308 65.3125C688.801 65.3041 688.294 64.9922 687.788 64.9941C687.282 64.9962 686.774 64.8095 686.268 64.8115C685.762 64.8136 685.252 65.36 684.746 65.3623C684.24 65.3643 683.725 64.33 683.219 64.332C682.713 64.3342 682.207 64.7868 681.701 64.7891C681.195 64.7911 680.689 64.7932 680.184 64.8057C679.678 64.8181 679.151 63.4394 678.646 63.4512C678.14 63.4636 677.657 64.8561 677.151 64.8691C676.646 64.8816 676.123 64.3401 675.618 64.3525C675.113 64.3651 674.61 64.5663 674.104 64.5684C673.599 64.5704 673.085 64.468 672.58 64.4805C672.075 64.4929 671.553 63.9516 671.048 63.9639C670.543 63.9763 670.063 64.9814 669.558 64.9941C669.052 65.0066 668.522 64.3511 668.018 64.374C667.513 64.3971 667.013 64.7854 666.508 64.7979C666.003 64.8103 665.485 64.6354 664.98 64.6582C664.476 64.6811 663.956 64.4742 663.451 64.4971C662.947 64.52 662.431 64.5334 661.937 64.5557C661.442 64.5779 660.921 64.4976 660.416 64.5205C659.911 64.5434 659.462 65.7037 658.957 65.7266C658.453 65.7495 657.949 65.7938 657.445 65.8271C656.942 65.8598 656.34 64.2566 655.836 64.2891C655.332 64.3224 654.837 64.6374 654.333 64.6709C653.829 64.7042 653.32 64.8212 652.816 64.8545C652.313 64.8878 651.778 64.6095 651.274 64.6426C650.771 64.6759 650.261 64.7723 649.757 64.8057C649.253 64.839 648.854 66.4667 648.351 66.501C647.847 66.5343 647.24 65.1815 646.736 65.2148C646.233 65.2481 645.71 65.1468 645.207 65.1904C644.704 65.2342 644.286 66.4348 643.783 66.4785C643.28 66.5218 642.708 65.827 642.215 65.8701C641.722 65.9133 641.221 66.1558 640.719 66.21C640.216 66.2644 639.76 66.8703 639.257 66.9141C638.754 66.9578 638.246 66.9387 637.743 66.9824C637.24 67.0263 636.782 67.6011 636.279 67.6553C635.777 67.7094 635.267 67.6496 634.764 67.6934C634.26 67.7371 633.689 67.1985 633.186 67.2422C632.682 67.2859 632.106 66.6744 631.604 66.7285C631.101 66.7827 630.662 67.5031 630.16 67.5576C629.658 67.6118 629.041 66.6991 628.539 66.7637C628.037 66.8283 627.525 66.8934 627.023 66.958C626.522 67.0229 626.12 68.0028 625.618 68.0674C625.116 68.1319 624.58 67.9687 624.078 68.0332C623.576 68.0978 623.031 67.8085 622.529 67.873C622.027 67.9376 621.64 68.9898 621.139 69.0547C620.637 69.1193 619.971 67.9061 619.469 67.9707C618.967 68.0355 618.573 68.9833 618.071 69.0479C617.569 69.1124 616.973 68.4924 616.472 68.5674C615.97 68.6424 615.661 70.119 615.159 70.1836C614.657 70.2482 614.158 70.3537 613.657 70.4287C613.156 70.5037 612.504 69.5002 612.003 69.5752C611.502 69.6501 610.893 68.9888 610.392 69.0635C609.891 69.1385 609.646 70.9982 609.146 71.084C608.645 71.1694 608.017 70.3725 607.516 70.4473C607.014 70.5223 606.458 70.2241 605.958 70.3096C605.458 70.3952 605.13 71.6008 604.629 71.6758C604.128 71.7505 603.555 71.3384 603.055 71.4238C602.554 71.5093 601.932 70.8063 601.432 70.8916C600.931 70.9771 600.531 71.6741 600.03 71.7598C599.53 71.8452 599.174 72.7798 598.674 72.8652C598.173 72.9501 597.453 71.6577 596.952 71.7432C596.452 71.8286 595.965 71.9754 595.466 72.0713C594.966 72.1672 594.61 73.0814 594.11 73.1777C593.611 73.2736 592.881 72.0024 592.381 72.0869C591.88 72.1724 591.43 72.5796 590.93 72.665C590.429 72.751 590.167 74.1918 589.668 74.2881C589.168 74.384 588.619 74.1902 588.119 74.2861C587.62 74.3822 587.194 74.8501 586.693 74.9355C586.193 75.021 585.692 75.0955 585.192 75.1914C584.693 75.2873 584.049 74.5757 583.56 74.6709C583.07 74.7662 582.603 75.0692 582.104 75.165C581.604 75.2611 581.198 75.8635 580.708 75.959C580.218 76.0542 579.439 74.6298 578.939 74.7246C578.44 74.8205 578.106 75.7857 577.606 75.8818C577.107 75.9777 576.649 76.2696 576.15 76.376C575.651 76.4823 575.209 76.8467 574.71 76.9531C574.211 77.0594 573.692 77.02 573.191 77.1055C572.691 77.1909 572.233 77.4727 571.734 77.5791C571.235 77.6854 570.468 76.2806 569.968 76.376C569.468 76.4719 569.302 78.327 568.803 78.4229C568.303 78.5186 567.646 77.7446 567.156 77.8398C566.666 77.9352 566.246 78.4761 565.756 78.5713C565.266 78.6665 564.782 78.8563 564.282 78.9521C563.783 79.0482 563.387 79.6706 562.888 79.7666C562.388 79.8625 561.545 78.0645 561.055 78.1592C560.565 78.2544 560.206 79.1263 559.706 79.2227C559.206 79.3185 558.594 78.773 558.104 78.8682C557.615 78.9634 557.131 79.1733 556.642 79.2686C556.152 79.3649 555.933 81.0116 555.434 81.1074C554.934 81.2032 554.364 80.8331 553.864 80.9287C553.365 81.0246 552.904 81.2644 552.404 81.3604C551.905 81.4562 551.21 80.4034 550.72 80.498C550.23 80.5933 549.891 81.631 549.4 81.7158C548.91 81.8008 548.524 82.5698 548.023 82.6553C547.523 82.7407 547.022 82.8166 546.531 82.9014C546.041 82.9859 545.346 81.9325 544.846 82.0176C544.345 82.103 543.922 82.6127 543.422 82.6982C542.922 82.7837 542.548 83.594 542.048 83.6797C541.547 83.7651 540.911 82.9901 540.41 83.0752C539.91 83.1607 539.474 83.629 538.983 83.7139C538.493 83.7987 538.025 84.0815 537.524 84.167C537.024 84.2524 536.517 84.2336 536.016 84.3086C535.514 84.3836 534.904 83.7013 534.402 83.7764C533.901 83.8515 533.463 84.2777 532.963 84.3633C532.462 84.4487 532.006 84.7622 531.506 84.8477C531.005 84.9332 530.568 85.381 530.067 85.4561C529.566 85.5309 528.825 83.9256 528.324 84C527.823 84.075 527.521 85.5191 527.021 85.5947C526.519 85.6697 525.823 84.3024 525.322 84.377C524.821 84.452 524.389 84.9725 523.887 85.0371C523.385 85.1019 522.977 85.8302 522.476 85.9053C521.974 85.9803 521.571 86.7928 521.069 86.8574C520.568 86.9211 519.837 85.1692 519.335 85.2334C518.833 85.298 518.474 86.4728 517.973 86.5381C517.471 86.6027 517.089 87.5815 516.587 87.6465C516.085 87.7111 515.443 86.5692 514.941 86.6338C514.44 86.6988 514.066 87.8026 513.564 87.8672C513.063 87.9318 512.408 86.5821 511.905 86.6357C511.403 86.6899 510.911 86.7538 510.409 86.8184C509.907 86.883 509.416 86.9575 508.913 87.0117C508.411 87.0659 507.978 87.7329 507.476 87.7871C506.973 87.8413 506.519 88.3326 506.017 88.3867C505.514 88.4409 505.017 88.5783 504.514 88.6221C504.01 88.6655 503.409 87.6789 502.906 87.7227C502.403 87.7666 502.022 89.0486 501.519 89.0928C501.016 89.1365 500.405 88.0048 499.901 88.0479C499.398 88.0916 498.955 88.759 498.452 88.8027C497.949 88.8466 497.506 89.6515 497.003 89.6953C496.5 89.7391 495.955 89.3137 495.452 89.3574C494.949 89.4009 494.374 88.5178 493.871 88.5615C493.368 88.6057 492.944 89.701 492.44 89.7344C491.937 89.7677 491.441 89.927 490.938 89.9707C490.434 90.0143 489.892 89.4638 489.388 89.4971C488.884 89.5303 488.374 89.4696 487.87 89.5029C487.366 89.5362 486.797 88.422 486.292 88.4443C485.787 88.4672 485.383 90.1692 484.879 90.1924C484.374 90.2153 483.849 89.9257 483.345 89.959C482.841 89.9923 482.337 90.0259 481.832 90.0488C481.328 90.0709 480.763 88.8941 480.259 88.917C479.754 88.9405 479.305 90.1 478.801 90.123C478.296 90.1459 477.766 89.4794 477.251 89.5029C476.737 89.5266 476.276 90.2167 475.762 90.2402C475.247 90.2638 474.731 89.8065 474.227 89.8291C473.722 89.852 473.237 90.3234 472.731 90.3359C472.226 90.3484 471.689 89.2742 471.184 89.2861C470.678 89.2986 470.178 89.3941 469.674 89.417C469.169 89.4399 468.675 89.6301 468.17 89.6426C467.665 89.6551 467.182 90.3157 466.677 90.3281C466.172 90.3403 465.647 89.6106 465.142 89.623C464.636 89.6357 464.145 90.1493 463.639 90.1514C463.133 90.1534 462.616 89.4023 462.11 89.4043C461.604 89.4063 461.105 89.3554 460.599 89.3574C460.093 89.3599 459.607 90.2715 459.092 90.2744C458.576 90.2771 458.078 89.8072 457.571 89.7988C457.065 89.791 456.576 91.415 456.07 91.417C455.564 91.4188 455.057 90.9394 454.551 90.9414C454.045 90.9434 453.535 90.1493 453.029 90.1514C452.523 90.1539 452.021 91.0974 451.515 91.0996C451.009 91.1016 450.503 90.8105 449.997 90.8125C449.491 90.8145 448.991 91.2145 448.484 91.2061C447.978 91.1975 447.481 90.8951 446.975 90.8867C446.468 90.8782 445.968 90.6813 445.462 90.6729C444.955 90.6638 444.463 89.3668 443.956 89.3584C443.449 89.35 442.947 89.4039 442.44 89.3955C441.934 89.3871 441.429 89.7027 440.922 89.6943C440.415 89.6859 439.911 89.7193 439.404 89.7109C438.898 89.7022 438.407 89.1804 437.9 89.1719C437.394 89.1635 436.86 90.7066 436.354 90.6982C435.847 90.6892 435.374 89.2445 434.867 89.2256C434.36 89.2068 433.843 89.8069 433.336 89.7881C432.829 89.769 432.349 89.1197 431.832 89.1016C431.315 89.0834 430.823 89.1474 430.314 89.1182C429.807 89.0897 429.253 90.6341 428.746 90.6152C428.239 90.5965 427.732 90.7346 427.225 90.7158C426.717 90.6968 426.248 89.6074 425.74 89.5781C425.232 89.5486 424.766 88.6474 424.258 88.6182C423.75 88.5889 423.221 89.4511 422.713 89.4219C422.205 89.3926 421.716 89.205 421.208 89.1758C420.7 89.1466 420.196 89.1796 419.688 89.1504C419.18 89.1211 418.661 89.5322 418.153 89.5029C417.645 89.4735 417.183 88.6347 416.675 88.6055C416.167 88.5763 415.661 88.7353 415.153 88.7061C414.645 88.6768 414.138 88.8046 413.63 88.7754C413.122 88.7461 412.548 89.9783 412.04 89.9492C411.532 89.92 411.045 89.6066 410.537 89.5771C410.029 89.5479 409.59 88.32 409.081 88.2803C408.572 88.2411 408.01 89.1891 407.501 89.1494C406.992 89.1093 406.546 88.2071 406.038 88.1777C405.53 88.1485 405.02 88.2451 404.512 88.2158C404.004 88.1861 403.554 87.3896 403.046 87.3496C402.537 87.3099 401.917 89.0364 401.407 88.9863C400.898 88.9362 400.51 87.1302 400.002 87.0898C399.493 87.0502 398.988 87.0729 398.479 87.0332C397.971 86.9935 397.442 87.2584 396.934 87.2188C396.425 87.1795 395.834 88.2975 395.325 88.2578C394.817 88.2181 394.391 87.0418 393.883 87.002C393.374 86.9623 392.812 87.6172 392.303 87.5674C391.793 87.5173 391.338 86.7933 390.839 86.7529C390.34 86.713 389.773 87.4306 389.264 87.3809C388.754 87.3307 388.293 86.8167 387.783 86.7666C387.274 86.7166 386.762 86.7704 386.263 86.7197C385.763 86.669 385.317 85.7777 384.817 85.7266C384.318 85.6758 383.721 86.7097 383.212 86.6602C382.703 86.61 382.287 85.5795 381.777 85.5293C381.268 85.4792 380.608 87.209 380.108 87.1582C379.609 87.1071 379.228 85.5508 378.729 85.5C378.229 85.4492 377.729 85.2419 377.229 85.1807C376.728 85.12 376.078 86.5446 375.578 86.4834C375.078 86.422 374.682 85.0866 374.182 85.0254C373.682 84.9645 373.07 85.9262 372.57 85.8652C372.07 85.8041 371.572 85.6172 371.062 85.5566C370.551 85.4961 370.146 84.4756 369.636 84.415C369.126 84.3546 368.596 84.5882 368.095 84.5166C367.594 84.445 367.097 84.29 366.587 84.2295C366.077 84.169 365.48 85.0562 364.97 84.9854C364.459 84.9144 364.012 84.3055 363.512 84.2441C363.011 84.1829 362.519 83.943 362.019 83.8818C361.518 83.8208 360.947 84.3301 360.437 84.2695C359.926 84.209 359.439 84.042 358.929 83.9814C358.419 83.9205 358.061 82.5726 357.561 82.501C357.06 82.4294 356.531 82.5367 356.031 82.4756C355.531 82.4144 354.937 83.04 354.437 82.9688C353.936 82.8971 353.426 82.847 352.925 82.7754C352.424 82.7038 352.032 81.725 351.53 81.6426C351.029 81.5605 350.382 82.5974 349.881 82.5156C349.379 82.4336 348.829 82.6794 348.329 82.6182C347.829 82.557 347.319 82.5072 346.818 82.4355C346.318 82.3637 345.86 81.9017 345.359 81.8301C344.859 81.7583 344.41 81.2754 343.908 81.1934C343.407 81.1114 342.751 82.1496 342.25 82.0781C341.749 82.0065 341.326 81.3115 340.824 81.2295C340.323 81.1473 339.894 80.5158 339.393 80.4336C338.891 80.3515 338.34 80.5869 337.839 80.5049C337.337 80.4228 336.972 79.4102 336.471 79.3281C335.969 79.2461 335.462 79.2275 334.961 79.1455C334.459 79.0635 333.791 80.0705 333.289 79.9785C332.787 79.886 332.29 79.7302 331.798 79.6475C331.306 79.5647 330.842 79.155 330.34 79.0625C329.838 78.9703 329.28 79.238 328.777 79.1455C328.275 79.0531 327.775 78.9919 327.272 78.8994C326.77 78.8073 326.141 79.4977 325.639 79.4053C325.137 79.312 324.919 77.5251 324.417 77.4326C323.915 77.3402 323.385 77.4382 322.883 77.3457C322.381 77.2531 321.943 76.7906 321.451 76.6973C320.959 76.6041 320.239 77.7299 319.746 77.627C319.253 77.5234 318.742 77.4623 318.239 77.3594C317.737 77.2561 317.417 76.1687 316.924 76.0645C316.431 75.9609 315.825 76.419 315.332 76.3154C314.839 76.2115 314.52 75.1332 314.017 75.0303C313.514 74.9277 312.816 75.9267 312.322 75.8135C311.828 75.6995 311.452 74.9599 310.958 74.8457C310.464 74.7317 310.064 74.0977 309.571 73.9941C309.078 73.8912 308.404 74.6582 307.911 74.5547C307.418 74.4512 306.9 74.4118 306.406 74.2979C305.912 74.1839 305.506 73.6033 305.013 73.4893C304.519 73.3753 304.07 73.0282 303.576 72.9141C303.082 72.8001 302.505 73.0788 302.011 72.9648C301.517 72.8508 301.052 72.5775 300.558 72.4531C300.063 72.3293 299.411 72.9584 298.917 72.8447C298.423 72.7307 298.058 72.0113 297.563 71.8867C297.069 71.7623 296.69 71.1276 296.195 71.0029C295.701 70.8785 295.031 71.5614 294.536 71.4268C294.041 71.2919 293.623 70.838 293.139 70.7129C292.654 70.5884 291.865 71.7188 291.37 71.584C290.875 71.4486 290.668 70.1116 290.173 69.9766C289.678 69.8417 289.215 69.6107 288.721 69.4863C288.226 69.3619 287.74 69.2162 287.246 69.0918C286.752 68.9674 285.929 70.1843 285.443 70.0488C284.958 69.9132 284.625 69.0759 284.14 68.9404C283.654 68.8049 283.236 68.3299 282.751 68.1943C282.266 68.0588 281.792 67.8074 281.307 67.6719C280.821 67.5364 280.318 67.4232 279.832 67.2773C279.346 67.1314 278.812 67.1668 278.316 67.0215C277.821 66.8761 277.565 65.8564 277.079 65.71C276.593 65.564 275.867 66.2924 275.381 66.1465C274.895 66.0006 274.534 65.3442 274.048 65.1982C273.562 65.0523 273.091 64.8419 272.604 64.6855C272.118 64.5299 271.28 65.6528 270.793 65.4971C270.306 65.3408 270.02 64.4595 269.533 64.3027C269.047 64.1464 268.399 64.5655 267.912 64.4092C267.426 64.2522 267.357 62.6148 266.88 62.4463C266.402 62.2788 265.592 63.2433 265.105 63.0869C264.619 62.9304 264.285 62.2407 263.808 62.0732C263.33 61.9061 262.633 62.4646 262.146 62.2979C261.658 62.1307 261.466 61.0129 260.979 60.8457C260.491 60.679 259.803 61.227 259.315 61.0605C258.828 60.8938 258.261 61.0252 257.773 60.8584C257.286 60.6916 256.971 59.9799 256.493 59.8125C256.016 59.6454 255.219 60.4929 254.731 60.3262C254.244 60.1594 254.02 59.1792 253.532 59.002C253.044 58.8247 252.675 58.3368 252.188 58.1699C251.7 58.0032 251.312 57.5464 250.835 57.3789C250.358 57.2115 249.903 56.9487 249.426 56.7812C248.948 56.6138 248.387 56.6925 247.909 56.5146C247.431 56.3373 246.673 57.0252 246.195 56.8477C245.717 56.6698 245.518 55.6251 245.04 55.4473C244.562 55.2696 243.976 55.4132 243.498 55.2354C243.02 55.0575 242.731 54.2902 242.253 54.1123C241.775 53.9349 240.775 55.3312 240.297 55.1533C239.819 54.9753 239.531 54.2304 239.053 54.042C238.574 53.8537 238.004 53.9432 237.525 53.7549C237.047 53.5666 236.958 52.2321 236.48 52.0537C236.002 51.8758 235.133 52.8553 234.654 52.667C234.176 52.4781 234.12 51.0476 233.652 50.8691C233.184 50.6909 232.172 52.0353 231.693 51.8574C231.215 51.6795 231.194 50.1623 230.716 49.9736C230.237 49.7854 229.426 50.5826 228.947 50.3945C228.469 50.2063 227.932 50.1993 227.454 50.0215C226.976 49.8436 226.589 49.408 226.11 49.2197C225.632 49.0307 225.67 47.3637 225.201 47.1748C224.732 46.9864 223.712 48.3728 223.233 48.1846C222.755 47.9963 222.311 47.7328 221.842 47.5439C221.373 47.355 221.37 45.8045 220.891 45.6162C220.412 45.4281 219.401 46.8038 218.923 46.626C218.445 46.448 218.117 45.8524 217.639 45.6641C217.16 45.4758 216.657 45.3728 216.188 45.1943C215.72 45.0158 215.682 43.5408 215.203 43.3525C214.724 43.1643 214.248 43.0069 213.77 42.8291C213.291 42.6516 212.28 44.0177 211.802 43.8398C211.324 43.6619 211.004 43.033 210.525 42.8447C210.047 42.6562 209.869 41.6316 209.391 41.4434C208.912 41.2551 208.178 41.858 207.699 41.6699C207.22 41.4816 206.559 41.8504 206.091 41.6719C205.623 41.4925 205.725 39.5909 205.257 39.4014C204.788 39.2124 203.727 40.7391 203.248 40.5508C202.769 40.3624 202.458 39.7127 201.979 39.5244C201.501 39.3361 201.149 38.8143 200.67 38.626C200.191 38.4377 199.864 37.8416 199.385 37.6533C198.906 37.4652 198.139 38.1756 197.66 37.9873C197.181 37.799 196.821 37.299 196.343 37.1211C195.865 36.9432 195.098 37.6642 194.62 37.4863C194.142 37.3083 193.971 36.2202 193.493 36.042C193.015 35.8641 192.388 36.1465 191.91 35.9688C191.432 35.7909 191.037 35.3668 190.56 35.1992C190.082 35.0318 189.563 34.9923 189.085 34.8145C188.607 34.6366 188.236 34.1378 187.758 33.96C187.28 33.7821 186.565 34.3729 186.087 34.1953C185.609 34.0175 185.582 32.4177 185.104 32.25C184.627 32.0826 183.871 32.802 183.394 32.6348C182.916 32.4673 182.576 31.8403 182.099 31.6729C181.621 31.5063 180.809 32.428 180.322 32.2617C179.835 32.0949 179.708 30.7837 179.23 30.6162C178.753 30.4487 178.487 29.5761 178 29.4092C177.513 29.2424 176.695 30.2498 176.208 30.083C175.721 29.916 175.553 28.7232 175.066 28.5664C174.58 28.41 173.6 29.9617 173.123 29.8047C172.647 29.6468 172.619 27.8897 172.133 27.7334C171.646 27.5775 170.742 28.9259 170.256 28.7695C169.769 28.6128 169.534 27.6124 169.048 27.4561C168.561 27.2997 168.149 26.9181 167.662 26.7617C167.176 26.6054 166.699 26.4591 166.213 26.3027C165.726 26.1464 165.305 25.7765 164.818 25.6201C164.332 25.4638 163.797 25.4985 163.312 25.3525C162.826 25.2063 162.482 24.5074 161.996 24.3613C161.51 24.2154 160.929 24.4317 160.434 24.2969C159.939 24.1621 159.208 24.9639 158.723 24.8291C158.237 24.6936 157.995 23.5883 157.509 23.4424C157.023 23.2969 156.316 24.0141 155.83 23.8682C155.344 23.7222 154.889 23.4477 154.403 23.3018C153.918 23.1555 153.597 22.3603 153.102 22.2148C152.606 22.0696 152.184 21.6993 151.688 21.5645C151.193 21.4301 150.468 22.3155 149.973 22.1807C149.478 22.0456 149.187 21.102 148.692 20.9775C148.198 20.8531 147.643 21.0157 147.147 20.8809C146.652 20.7463 145.974 21.4395 145.489 21.3145C145.005 21.1892 144.671 20.3431 144.187 20.2178C143.702 20.0927 143.223 19.9037 142.729 19.7793C142.234 19.6549 141.604 20.1779 141.109 20.0537C140.615 19.9293 140.388 18.614 139.895 18.5C139.401 18.3864 138.755 18.973 138.262 18.8594C137.768 18.7454 137.245 18.7904 136.75 18.666C136.255 18.5416 135.837 18.0775 135.343 17.9531C134.849 17.8286 134.416 17.4275 133.922 17.3135C133.428 17.1995 132.978 16.8523 132.484 16.7383C131.991 16.6243 131.333 17.3274 130.839 17.2139C130.345 17.0999 130.015 16.1682 129.512 16.0547C129.008 15.9414 128.427 16.315 127.934 16.2012C127.44 16.0872 126.761 16.9278 126.268 16.8242C125.775 16.7207 125.316 16.3956 124.823 16.292C124.33 16.1884 124.005 15.1729 123.501 15.0596C122.997 14.9463 122.331 15.8171 121.837 15.7031C121.343 15.5891 120.863 15.3907 120.37 15.2871C119.877 15.1833 119.507 14.3805 119.004 14.2773C118.501 14.1745 118.01 14.1029 117.507 14C117.004 13.8971 116.36 14.683 115.857 14.5801C115.354 14.4773 114.843 14.5423 114.34 14.4395C113.837 14.3364 113.466 13.5339 112.964 13.4414C112.462 13.3489 111.962 13.2975 111.46 13.2051C110.958 13.1126 110.59 12.2057 110.098 12.1123C109.605 12.0192 108.977 12.7302 108.475 12.6377C107.972 12.5456 107.374 13.0978 106.882 13.0049C106.389 12.9117 105.986 12.2159 105.484 12.1338C104.983 12.0517 104.581 11.3874 104.079 11.2949C103.577 11.2024 103.085 11.1192 102.583 11.0371C102.082 10.9557 101.439 11.8883 100.938 11.8066C100.436 11.7246 100.03 10.9968 99.5381 10.9141C99.0466 10.8311 98.6195 10.221 98.1182 10.1387C97.6166 10.0566 97.0426 10.5449 96.541 10.4629C96.0397 10.3804 95.681 9.30518 95.1797 9.22266C94.6781 9.14061 93.946 10.8331 93.4346 10.752C92.9231 10.6706 92.418 10.6937 91.917 10.6221C91.4163 10.5501 91.0223 9.69661 90.5215 9.625C90.0206 9.55333 89.574 9.10093 89.0625 9.01953C88.551 8.93826 87.9491 9.74252 87.4482 9.6709C86.9473 9.59926 86.627 8.05991 86.126 7.98828C85.6251 7.91701 85.0077 8.7845 84.5068 8.71289C84.006 8.64125 83.5186 8.47428 83.0078 8.40332C82.4971 8.33223 82.1146 7.35253 81.6045 7.29199C81.0946 7.23163 80.4514 8.4571 79.9414 8.39746C79.4313 8.33692 79.0625 7.12436 78.5615 7.05273C78.0607 6.98176 77.4451 7.88117 76.9443 7.80957C76.4437 7.73761 76.0245 6.94851 75.5146 6.8877C75.0046 6.82717 74.5236 6.60814 74.0234 6.54688C73.5232 6.48568 72.9465 7.07877 72.4463 7.01758C71.946 6.95651 71.3772 7.50748 70.877 7.44629C70.3767 7.38498 70.0305 5.7526 69.5303 5.69141C69.03 5.63042 68.4075 6.7193 67.9072 6.6582C67.407 6.59701 66.8864 6.68293 66.377 6.63281C65.8677 6.58218 65.4855 5.30923 64.9854 5.24805C64.4852 5.18687 63.9747 5.11587 63.4746 5.05469C62.9744 4.99349 62.3824 5.80793 61.873 5.75781C61.3639 5.70777 60.851 5.75188 60.3516 5.70117C59.8522 5.65042 59.3138 5.91679 58.8145 5.86621C58.3149 5.81544 57.8961 4.7425 57.3867 4.69238C56.8774 4.64222 56.4067 4.27579 55.8975 4.22559C55.3881 4.17547 54.7592 5.63086 54.249 5.57031C53.7391 5.50984 53.2347 5.53247 52.7256 5.48242C52.2162 5.43231 51.8141 4.16053 51.3047 4.11035C50.7953 4.06024 50.2994 3.91536 49.79 3.86523C49.2806 3.81512 48.7021 4.68031 48.1934 4.64062C47.6848 4.60052 47.2505 3.59307 46.7412 3.54297C46.2318 3.49351 45.6344 4.66371 45.1152 4.61426C44.5961 4.56485 44.0964 4.65975 43.5879 4.62012C43.0791 4.58043 42.6786 3.03643 42.1797 2.99609C41.6809 2.95663 41.0601 4.36833 40.5508 4.31836C40.0414 4.26825 39.5614 3.91284 39.0527 3.87305C38.5439 3.83336 38.0389 3.70928 37.54 3.66895C37.0413 3.62874 36.5154 3.77893 36.0068 3.73926C35.4982 3.6995 35.0204 3.22821 34.5117 3.18848C34.0031 3.14879 33.4755 3.42439 32.9668 3.38477C32.458 3.34508 32.0303 1.98012 31.5215 1.94043C31.0128 1.90101 30.4052 3.52308 29.8965 3.4834C29.3879 3.44379 28.8728 3.60302 28.3643 3.56348C27.8555 3.52379 27.4258 2.13832 26.917 2.09863C26.4083 2.05924 25.8458 3.00771 25.3379 2.97852C24.8298 2.94926 24.302 3.37105 23.7939 3.3418C23.2859 3.31254 22.8772 1.33883 22.3691 1.30957C21.8613 1.28108 21.2734 2.8896 20.7656 2.86133C20.2577 2.83208 19.7384 2.94002 19.2402 2.91016C18.7421 2.88025 18.2697 1.73811 17.7715 1.70801C17.2733 1.6781 16.7717 1.30269 16.2637 1.27344C15.7557 1.24452 15.1807 2.74786 14.6826 2.71875C14.1846 2.68885 13.6808 2.42875 13.1729 2.39941C12.6648 2.37016 12.1665 2.19365 11.6592 2.1748C11.1519 2.15598 10.6929 0.615967 10.1855 0.59668C9.67834 0.577856 9.10681 2.29106 8.60938 2.27246C8.11194 2.25298 7.61084 1.74051 7.10352 1.72168C6.59631 1.70308 6.07751 2.11453 5.57031 2.0957C5.06299 2.07681 4.5658 1.46089 4.06836 1.44141C3.57092 1.42193 3.06287 0.794872 2.56543 0.775391C2.06799 0.756038 1.53101 1.49375 1.02441 1.48535C0.517944 1.47694 0.0111084 1.3109 -0.496094 1.29199C-1.00342 1.27317 -1.49854 0.248425 -2.00586 0.229492C-2.51306 0.210669 -3.05103 1.82684 -3.55762 1.81934C-4.06433 1.81094 -4.56848 1.55137 -5.0752 1.54297C-5.58167 1.53421 -6.07947 0.760462 -6.58594 0.751953C-7.09265 0.743554 -7.61438 1.56406 -8.12109 1.55566C-8.62756 1.54686 -9.13025 0.543993 -9.63672 0.535156C-10.1433 0.526758 -10.6552 1.79651 -11.1611 1.79883C-11.6671 1.80086 -12.173 1.50938 -12.6797 1.50098C-13.1863 1.49261 -13.6952 1.59953 -14.2012 1.60156C-14.707 1.60359 -15.21 1.95097 -15.7158 1.95312C-16.2217 1.95515 -16.7334 1.42299 -17.2393 1.4248C-17.7452 1.42683 -18.2606 0.549728 -18.7666 0.551758C-19.2725 0.55453 -19.7725 1.8436 -20.2783 1.8457C-20.7843 1.84773 -21.3141 -0.0121135 -21.8193 0Z" fill="url(#paint0_linear_256_2598)"/>
<defs>
<linearGradient id="paint0_linear_256_2598" x1="79.7052" y1="43.4595" x2="1156.77" y2="961.6" gradientUnits="userSpaceOnUse">
<stop stop-color="#F9F7F3"/>
<stop offset="1" stop-color="#EEECE8"/>
</linearGradient>
</defs>
</svg>
