<svg width="335" height="184" viewBox="0 0 335 184" fill="none" xmlns="http://www.w3.org/2000/svg">
<path d="M66.0342 3.81689C103.877 -4.98153 141.826 3.89048 181.856 6.06006C198.669 6.96772 243.905 -3.34506 282.198 10.1929C322.223 24.3385 342.769 61.3144 332.284 108.137C324.624 142.336 291.875 162.543 255.737 166.562C231.908 169.206 195.915 160.774 159.147 162.697C153.361 163 145.252 163.42 136.468 163.846C138.021 169.305 140.577 176.047 144.778 183.041C134.733 176.4 127.729 169.993 122.868 164.481C111.792 164.975 100.949 165.393 93.3643 165.528C64.8931 166.035 38.3786 159.706 22.2363 144.352C6.86998 129.732 -3.58214 114.739 1.14648 73.8179C4.98643 40.6133 22.5015 13.9371 66.0342 3.81689Z" fill="white"/>
</svg>
