<svg width="335" height="184" viewBox="0 0 335 184" fill="none" xmlns="http://www.w3.org/2000/svg">
<path d="M66.0342 3.81689C103.877 -4.98153 141.826 3.89048 181.856 6.06006C198.669 6.96772 243.905 -3.34505 282.198 10.1929C322.223 24.3385 342.769 61.3144 332.284 108.137C324.624 142.336 291.875 162.543 255.737 166.562C235.578 168.798 206.713 163.109 176.038 162.467C175.122 168.158 174.575 175.569 175.516 183.958C170.445 175.824 167.064 168.626 164.824 162.48C162.935 162.527 161.042 162.598 159.147 162.697C143.356 163.525 110.269 165.227 93.3643 165.528C64.8931 166.035 38.3786 159.706 22.2363 144.352C6.86999 129.732 -3.58214 114.739 1.14648 73.8179C4.98643 40.6133 22.5015 13.9371 66.0342 3.81689Z" fill="white"/>
</svg>
