<svg width="375" height="2863" viewBox="0 0 375 2863" fill="none" xmlns="http://www.w3.org/2000/svg">
<path d="M406.6 0.000732422C406.745 0.00399005 406.884 0.397651 407.029 0.401123C407.174 0.404382 407.32 0.397865 407.465 0.401123C407.61 0.40379 407.763 0.0590001 407.908 0.0622559C408.053 0.065787 408.193 0.430741 408.335 0.437256C408.477 0.443419 408.63 0.270589 408.775 0.2771C408.92 0.283618 409.065 0.31644 409.21 0.322998C409.355 0.329512 409.492 0.648254 409.637 0.655029C409.782 0.661542 409.938 0.339402 410.083 0.345459C410.228 0.351976 410.376 0.365309 410.521 0.371826C410.666 0.37852 410.808 0.528218 410.953 0.534912C411.098 0.541429 411.252 0.404372 411.397 0.410889C411.542 0.417832 411.678 0.622586 411.823 0.632568C411.968 0.642344 412.123 0.505605 412.268 0.515381C412.412 0.525248 412.557 0.579834 412.702 0.5896C412.847 0.599375 412.987 0.723379 413.132 0.733154C413.277 0.742505 413.439 0.472409 413.584 0.482178C413.729 0.492552 413.851 0.903074 413.996 0.912842C414.141 0.922609 414.286 0.935299 414.431 0.945068C414.576 0.954834 414.732 0.76938 414.877 0.781982C415.022 0.795004 415.184 0.554616 415.329 0.567139C415.438 0.576927 415.544 0.631088 415.651 0.662842L415.812 0.695068C415.938 0.733146 416.059 0.852595 416.186 0.864014C416.331 0.876881 416.49 0.707431 416.635 0.720459C416.78 0.73354 416.917 0.850983 417.062 0.864014C417.206 0.877304 417.34 1.05281 417.482 1.06909C417.625 1.08501 417.787 0.91219 417.932 0.928467C418.077 0.945014 418.205 1.14754 418.35 1.16382C418.495 1.17938 418.676 0.743242 418.821 0.759521C418.966 0.775843 419.075 1.22858 419.217 1.24487C419.359 1.26139 419.49 1.47273 419.632 1.48901C419.774 1.50502 419.979 0.899483 420.121 0.915771C420.263 0.932897 420.357 1.5284 420.502 1.54468C420.647 1.56092 420.795 1.53139 420.939 1.54761C421.084 1.56389 421.244 1.44045 421.386 1.45972C421.528 1.47927 421.713 1.11139 421.858 1.12769C422.003 1.14426 422.126 1.39526 422.271 1.41479C422.415 1.43427 422.569 1.37192 422.711 1.39136C422.853 1.41091 422.967 1.76341 423.112 1.78296C423.257 1.80233 423.417 1.67162 423.562 1.69116C423.688 1.70835 423.804 1.83057 423.927 1.87378L424.032 1.89917C424.155 1.93748 424.273 2.03929 424.4 2.0564C424.545 2.07553 424.73 1.71097 424.872 1.73022C425.014 1.74978 425.151 1.85423 425.296 1.87378C425.441 1.89334 425.563 2.1177 425.708 2.13745C425.853 2.15699 426.046 1.72476 426.188 1.7439C426.331 1.76345 426.448 2.05345 426.593 2.073C426.738 2.09247 426.885 2.07271 427.027 2.09546C427.169 2.11827 427.315 2.13157 427.46 2.15112C427.605 2.17055 427.758 2.09845 427.9 2.11792C428.042 2.13745 428.199 2.06632 428.341 2.08569C428.483 2.10524 428.578 2.60423 428.72 2.62378C428.862 2.6424 429.063 2.13569 429.208 2.15405C429.353 2.1736 429.448 2.64329 429.593 2.66284C429.738 2.68157 429.92 2.32984 430.064 2.34937C430.209 2.36894 430.34 2.5095 430.482 2.52905C430.625 2.54851 430.79 2.37865 430.935 2.39819C431.08 2.4178 431.188 2.76992 431.33 2.79272C431.472 2.81575 431.603 2.97827 431.745 2.9978C431.887 3.01744 432.024 3.13158 432.166 3.15112C432.308 3.17048 432.467 3.06355 432.609 3.07983C432.752 3.09594 432.925 2.85456 433.067 2.87085C433.209 2.88703 433.363 2.82202 433.508 2.84155C433.653 2.86108 433.766 3.1664 433.911 3.18335C434.056 3.19964 434.196 3.24907 434.341 3.26538C434.486 3.28167 434.617 3.42448 434.762 3.44409C434.907 3.46364 435.069 3.28824 435.211 3.30444C435.353 3.32074 435.507 3.25885 435.649 3.27515C435.791 3.29108 435.951 3.15145 436.096 3.16772C436.241 3.18441 436.363 3.44441 436.505 3.46069C436.647 3.47692 436.824 3.15143 436.966 3.16772C437.108 3.18419 437.245 3.31063 437.387 3.3269C437.529 3.34325 437.671 3.40239 437.815 3.4187C437.96 3.43498 438.117 3.28547 438.262 3.30151C438.407 3.31779 438.532 3.5387 438.677 3.55542C438.822 3.57171 438.942 3.89753 439.087 3.91382C439.232 3.92992 439.388 3.77384 439.533 3.78687C439.678 3.79985 439.829 3.71533 439.974 3.72827C440.119 3.74129 440.244 4.02045 440.389 4.03394C440.534 4.04697 440.676 4.0795 440.821 4.09253C440.93 4.10229 441.042 4.05791 441.152 4.03882L441.316 4.0271C441.445 4.00035 441.581 3.86646 441.708 3.87476C441.853 3.88453 441.987 4.0533 442.132 4.06323C442.277 4.073 442.436 3.78721 442.581 3.79663C442.726 3.8064 442.851 4.13498 442.996 4.14526C443.141 4.15503 443.275 4.37583 443.42 4.38257C443.565 4.38909 443.716 4.25561 443.861 4.26538C444.006 4.27527 444.148 4.3503 444.293 4.36011C444.438 4.36988 444.594 4.12245 444.739 4.12866C444.884 4.13517 445.041 3.86194 445.186 3.86792C445.33 3.87443 445.462 4.21637 445.606 4.22339C445.751 4.22991 445.894 4.2823 446.039 4.28882C446.184 4.29536 446.326 4.37589 446.471 4.38257C446.616 4.38908 446.755 4.52641 446.903 4.53296C447.051 4.53947 447.199 4.30225 447.344 4.30835C447.489 4.31487 447.64 4.05086 447.785 4.05737C447.93 4.06421 448.069 4.29497 448.214 4.29858C448.359 4.30184 448.507 4.07365 448.652 4.0769C448.797 4.08038 448.936 4.30075 449.081 4.30444C449.226 4.3077 449.366 4.63337 449.511 4.63354C449.656 4.63354 449.806 4.02529 449.951 4.02417C450.096 4.02417 450.239 4.05737 450.387 4.05737C450.534 4.0575 450.674 4.38833 450.818 4.39233C450.963 4.39559 451.109 4.40601 451.254 4.40601C451.399 4.40601 451.544 4.41899 451.688 4.41577C451.833 4.41251 451.976 4.01449 452.121 4.0144C452.266 4.0144 452.414 4.55137 452.559 4.55249C452.704 4.55249 452.849 4.62704 452.994 4.62378C453.139 4.62045 453.282 4.24325 453.427 4.23999C453.572 4.23693 453.716 4.33406 453.861 4.33081C454.006 4.32755 454.157 4.60414 454.302 4.60132C454.447 4.59806 454.592 4.54891 454.737 4.54565C454.882 4.54199 455.016 3.96297 455.161 3.95972C455.306 3.95666 455.454 4.09605 455.599 4.0896C455.744 4.08309 455.894 4.27155 456.039 4.26538C456.184 4.25886 456.33 4.28166 456.475 4.27515C456.619 4.26861 456.761 4.19782 456.906 4.19116C457.051 4.18465 457.188 3.94697 457.333 3.94019C457.478 3.93368 457.631 4.20004 457.776 4.19409C457.921 4.18757 458.07 4.25237 458.215 4.24585C458.36 4.23929 458.502 4.14835 458.646 4.13843C458.792 4.12865 458.931 4.03103 459.079 4.02124C459.227 4.01146 459.37 3.99553 459.515 3.98901C459.659 3.98199 459.793 3.7352 459.938 3.72827C460.083 3.72175 460.231 3.80641 460.376 3.79663C460.521 3.78689 460.666 3.80246 460.811 3.79272C460.956 3.78295 461.118 4.11859 461.263 4.10913C461.408 4.09936 461.525 3.61728 461.67 3.60425C461.815 3.59229 461.991 4.13839 462.136 4.12573C462.281 4.11271 462.431 4.1939 462.576 4.18433C462.721 4.17455 462.841 3.75367 462.983 3.7439C463.126 3.73445 463.294 4.0538 463.438 4.04077C463.583 4.02749 463.714 3.81877 463.859 3.80249C464.004 3.78661 464.164 3.99162 464.309 3.97534C464.453 3.95834 464.567 3.51994 464.712 3.50659C464.857 3.49357 465.013 3.64668 465.158 3.63062C465.303 3.61432 465.455 3.68564 465.6 3.67261C465.745 3.66002 465.907 3.87443 466.052 3.85815C466.197 3.84177 466.336 3.76998 466.48 3.75366C466.625 3.73737 466.765 3.67913 466.91 3.66284C467.055 3.64637 467.161 3.18401 467.306 3.16772C467.451 3.15206 467.627 3.49925 467.771 3.48315C467.917 3.46686 468.059 3.43792 468.204 3.42163C468.349 3.40511 468.477 3.226 468.622 3.20972C468.767 3.19336 468.904 3.10881 469.049 3.09253C469.194 3.07636 469.341 3.10913 469.486 3.0896C469.631 3.07013 469.794 3.23577 469.938 3.21948C470.083 3.20309 470.214 3.05055 470.356 3.03101C470.499 3.01143 470.638 2.93011 470.783 2.91382C470.928 2.89746 471.064 2.81919 471.209 2.79956C471.354 2.78001 471.542 3.18044 471.685 3.16089C471.826 3.14085 471.937 2.78338 472.082 2.76343C472.227 2.74388 472.344 2.4861 472.489 2.46655C472.634 2.44758 472.81 2.73709 472.955 2.7146C473.1 2.6918 473.259 2.80534 473.404 2.78589C473.549 2.76634 473.701 2.796 473.843 2.77319C473.985 2.75034 474.127 2.67886 474.269 2.65601C474.411 2.6332 474.502 2.1378 474.647 2.11499C474.792 2.09282 474.983 2.48349 475.128 2.46069C475.273 2.43786 475.409 2.35956 475.554 2.33667C475.699 2.31386 475.822 2.11143 475.967 2.08862C476.112 2.06603 476.268 2.16057 476.413 2.13452C476.558 2.1083 476.674 1.87031 476.819 1.84741C476.964 1.8246 477.172 2.31749 477.314 2.29468C477.456 2.27164 477.539 1.74805 477.684 1.72437C477.829 1.70156 477.997 1.86716 478.142 1.84448C478.287 1.82168 478.415 1.67823 478.56 1.6521C478.705 1.62604 478.995 1.80202 479.14 1.77612V105.699H479.258V2863H-120.882V114.954H-121L-120.897 103.846C-120.752 103.83 -120.522 103.97 -120.448 104.208C-120.303 104.182 -120.388 104.035 -120.246 104.009C-120.104 103.983 -119.939 104.117 -119.794 104.091C-119.649 104.065 -119.487 104.188 -119.342 104.162C-119.197 104.135 -119.089 103.846 -118.947 103.82C-118.805 103.794 -118.597 104.217 -118.455 104.191C-118.313 104.165 -118.165 104.146 -118.022 104.12C-117.88 104.094 -117.736 104.058 -117.594 104.032C-117.452 104.006 -117.321 103.869 -117.179 103.843C-117.037 103.816 -116.957 103.331 -116.814 103.302C-116.672 103.272 -116.47 103.637 -116.325 103.608C-116.18 103.579 -116.081 103.25 -115.938 103.22C-115.796 103.191 -115.665 103.067 -115.521 103.038C-115.375 103.009 -115.142 103.576 -115 103.55C-114.858 103.523 -114.804 102.889 -114.662 102.859C-114.52 102.83 -114.366 102.852 -114.224 102.823C-114.081 102.794 -113.857 103.266 -113.715 103.237C-113.573 103.208 -113.482 102.836 -113.337 102.806C-113.192 102.777 -113.049 102.745 -112.907 102.716C-112.765 102.686 -112.637 102.553 -112.492 102.523C-112.347 102.494 -112.219 102.37 -112.077 102.341C-111.935 102.311 -111.79 102.279 -111.647 102.25C-111.505 102.221 -111.337 102.331 -111.195 102.299C-111.053 102.266 -110.906 102.256 -110.764 102.226C-110.621 102.197 -110.414 102.529 -110.271 102.497C-110.13 102.464 -110.044 102.091 -109.902 102.057C-109.76 102.025 -109.621 101.969 -109.479 101.936C-109.336 101.904 -109.16 102.057 -109.018 102.024C-108.875 101.991 -108.773 101.732 -108.628 101.699C-108.483 101.666 -108.295 101.888 -108.153 101.855C-108.011 101.823 -107.937 101.396 -107.795 101.363C-107.653 101.33 -107.439 101.679 -107.297 101.646C-107.155 101.614 -106.976 101.774 -106.834 101.738C-106.692 101.702 -106.661 101.073 -106.519 101.037C-106.376 101.001 -106.225 101.011 -106.083 100.975C-105.941 100.94 -105.694 101.45 -105.552 101.415C-105.41 101.379 -105.321 101.063 -105.179 101.024C-105.037 100.985 -104.897 100.929 -104.755 100.893C-104.613 100.857 -104.473 100.799 -104.334 100.763C-104.195 100.728 -104.027 100.796 -103.888 100.757C-103.749 100.718 -103.598 100.705 -103.459 100.666C-103.32 100.627 -103.177 100.578 -103.035 100.539C-102.893 100.5 -102.804 100.2 -102.665 100.161C-102.526 100.122 -102.378 100.108 -102.236 100.069C-102.094 100.03 -101.94 100.056 -101.798 100.017C-101.656 99.9783 -101.494 100.034 -101.354 99.9949C-101.215 99.9558 -101.085 99.8507 -100.945 99.8083C-100.806 99.766 -100.717 99.4825 -100.575 99.4402C-100.433 99.3984 -100.18 99.8636 -100.041 99.822C-99.9017 99.7797 -99.8503 99.3292 -99.7109 99.2869C-99.5716 99.2448 -99.3268 99.6525 -99.1875 99.6101C-99.0482 99.5677 -98.9088 99.506 -98.7695 99.4636C-98.6303 99.421 -98.5963 98.9122 -98.457 98.8699C-98.3178 98.8277 -98.0564 99.2899 -97.917 99.2449C-97.7777 99.1993 -97.6266 99.1928 -97.4873 99.1472C-97.348 99.1016 -97.2458 98.896 -97.1064 98.8503C-96.9671 98.8047 -96.7878 98.9093 -96.6484 98.8669C-96.5092 98.8245 -96.401 98.642 -96.2617 98.5964C-96.1224 98.5509 -95.943 98.6586 -95.8037 98.613C-95.6647 98.5669 -95.6703 97.9452 -95.5312 97.8992C-95.3919 97.8536 -95.1979 98.0193 -95.0586 97.9705C-94.9194 97.9224 -94.7124 98.1398 -94.5732 98.0916C-94.434 98.0427 -94.4194 97.515 -94.2803 97.4656C-94.1409 97.4167 -93.9754 97.466 -93.8389 97.4138C-93.7024 97.3622 -93.4529 97.7159 -93.3164 97.6677C-93.1799 97.6189 -93.0602 97.4852 -92.9209 97.4363C-92.7816 97.3874 -92.6706 97.2313 -92.5342 97.1824C-92.3977 97.1335 -92.2156 97.2277 -92.0791 97.1755C-91.9427 97.1233 -91.9283 96.6194 -91.792 96.5701C-91.6555 96.5212 -91.3543 97.035 -91.2178 96.9832C-91.0813 96.931 -91.0154 96.6154 -90.8789 96.5632C-90.7426 96.5109 -90.6714 96.2249 -90.5322 96.1726C-90.3929 96.1205 -90.157 96.4064 -90.0205 96.3542C-89.8841 96.3022 -89.7164 96.3479 -89.5771 96.2927C-89.4378 96.2373 -89.3689 95.9536 -89.2324 95.8982C-89.0959 95.8433 -88.8912 96.0128 -88.752 95.9607C-88.6128 95.9084 -88.5787 95.5143 -88.4424 95.4587C-88.3059 95.4034 -88.1892 95.2798 -88.0527 95.2244C-87.9162 95.169 -87.6716 95.4516 -87.5352 95.3962C-87.3988 95.3409 -87.2564 95.2992 -87.1172 95.2439C-86.9779 95.1885 -86.8786 95.0152 -86.7422 94.9597C-86.6057 94.9043 -86.5173 94.6893 -86.3809 94.6306C-86.2444 94.572 -86.0057 94.8258 -85.8721 94.7673C-85.7385 94.7087 -85.6755 94.413 -85.5391 94.3542C-85.4026 94.2956 -85.2459 94.2918 -85.1123 94.2332C-84.9786 94.1749 -84.7595 94.3504 -84.626 94.2917C-84.4927 94.2324 -84.4752 93.8093 -84.3389 93.7507C-84.2026 93.6918 -84.1315 93.4415 -83.9951 93.3796C-83.8586 93.3177 -83.6853 93.3728 -83.5488 93.3142C-83.4124 93.2556 -83.2361 93.3142 -83.0996 93.2556C-82.9631 93.197 -82.8689 93.0177 -82.7324 92.9558C-82.5962 92.894 -82.4712 92.8097 -82.335 92.7478C-82.1985 92.6859 -82.0614 92.63 -81.9277 92.5681C-81.7941 92.5063 -81.618 92.5548 -81.4844 92.4929C-81.3508 92.431 -81.197 92.4181 -81.0605 92.3562C-80.9242 92.2945 -80.7254 92.4118 -80.5918 92.3503C-80.4582 92.2884 -80.452 91.8608 -80.3184 91.7957C-80.1848 91.7307 -80.0115 91.7729 -79.8779 91.7078C-79.7444 91.6426 -79.5028 91.8672 -79.3691 91.8025C-79.2355 91.7373 -79.2293 91.3237 -79.0957 91.2585C-78.9621 91.1934 -78.8309 91.1216 -78.6973 91.0564C-78.5637 90.9918 -78.3143 91.2381 -78.1807 91.1736C-78.0471 91.1084 -77.9754 90.8775 -77.8418 90.8123C-77.7083 90.7471 -77.5038 90.8672 -77.3701 90.8025C-77.2365 90.7373 -77.1649 90.5057 -77.0312 90.4373C-76.8976 90.369 -76.6902 90.5023 -76.5566 90.4373C-76.423 90.3721 -76.3319 90.1929 -76.1982 90.1277C-76.0647 90.0625 -76.025 89.753 -75.8916 89.6843C-75.758 89.6159 -75.4932 89.8931 -75.3623 89.825C-75.2315 89.7565 -75.2372 89.3257 -75.1035 89.2605C-74.9699 89.1957 -74.7059 89.4719 -74.5723 89.4041C-74.4388 89.3357 -74.3502 89.154 -74.2168 89.0886C-74.0832 89.0235 -73.9324 88.9998 -73.7988 88.9314C-73.6652 88.863 -73.5506 88.7528 -73.417 88.6843C-73.2835 88.6157 -73.2322 88.3416 -73.0986 88.2732C-72.9652 88.2047 -72.8601 88.0711 -72.7266 88.0027C-72.5929 87.9343 -72.3621 88.1238 -72.2285 88.0554C-72.0949 87.9872 -71.8934 88.0973 -71.7627 88.0291C-71.6319 87.9606 -71.6142 87.5893 -71.4834 87.5242C-71.3528 87.459 -71.242 87.3289 -71.1113 87.2605C-70.9806 87.1921 -70.7138 87.4711 -70.5801 87.4031C-70.4464 87.3346 -70.3661 87.1395 -70.2324 87.071C-70.0988 87.0027 -69.951 86.9763 -69.8203 86.908C-69.6895 86.8396 -69.5302 86.8367 -69.3994 86.7683C-69.2687 86.6999 -69.0985 86.7253 -68.9678 86.657C-68.837 86.5886 -68.8105 86.2407 -68.6797 86.1755C-68.5491 86.1103 -68.4557 85.9403 -68.3223 85.8718C-68.1886 85.8034 -67.9149 86.1069 -67.7812 86.0417C-67.6477 85.9764 -67.5994 85.6928 -67.4658 85.6277C-67.3322 85.5625 -67.2381 85.3963 -67.1045 85.3279C-66.9711 85.2592 -66.9314 84.9497 -66.8008 84.8845C-66.6701 84.8194 -66.3975 85.1186 -66.2637 85.0544C-66.13 84.9893 -66.0838 84.6929 -65.9502 84.6277C-65.8166 84.5625 -65.7059 84.438 -65.5723 84.3728C-65.4387 84.3076 -65.3162 84.2133 -65.1826 84.1482C-65.049 84.0832 -64.8446 84.2164 -64.7109 84.1482C-64.5774 84.0798 -64.3271 84.337 -64.1934 84.2722C-64.0597 84.207 -64.1219 83.6138 -63.9883 83.5486C-63.8546 83.4839 -63.5253 83.9618 -63.3916 83.8972C-63.258 83.8321 -63.1326 83.7511 -62.999 83.6892C-62.8654 83.6273 -62.783 83.4182 -62.6494 83.3562C-62.5158 83.2943 -62.3708 83.2647 -62.2344 83.2029C-62.0979 83.141 -61.9324 83.1769 -61.7959 83.115C-61.6597 83.0528 -61.6169 82.7375 -61.4834 82.6755C-61.3498 82.6137 -61.117 82.8377 -60.9805 82.7761C-60.8441 82.7143 -60.8578 82.2361 -60.7217 82.1736C-60.5852 82.1117 -60.4452 82.0695 -60.3115 82.0076C-60.1779 81.9457 -60.027 81.9327 -59.8906 81.8708C-59.7542 81.809 -59.6267 81.7364 -59.4902 81.6746C-59.3538 81.6127 -59.1775 81.6813 -59.041 81.6228C-58.9045 81.5641 -58.7391 81.5965 -58.6055 81.5378C-58.4722 81.4787 -58.4322 81.1279 -58.2959 81.0691C-58.1594 81.0104 -57.9861 81.075 -57.8496 81.0164C-57.7132 80.9577 -57.6336 80.7265 -57.5 80.6677C-57.3665 80.6091 -57.2155 80.5934 -57.0791 80.5349C-56.9426 80.4763 -56.8455 80.2964 -56.709 80.241C-56.5724 80.1863 -56.2682 80.6645 -56.1318 80.6091C-55.9955 80.5534 -55.9753 80.1303 -55.8389 80.075C-55.7026 80.0196 -55.5748 79.935 -55.4385 79.8796C-55.302 79.8242 -55.2048 79.6352 -55.0684 79.5798C-54.9319 79.5245 -54.7838 79.5079 -54.6445 79.4558C-54.5052 79.4045 -54.2214 79.853 -54.082 79.7986C-53.9427 79.7432 -53.9255 79.2961 -53.7891 79.2439C-53.6526 79.1918 -53.4899 79.2218 -53.3506 79.1697C-53.2114 79.1173 -53.1345 78.8595 -52.998 78.8074C-52.8617 78.7557 -52.6714 78.8826 -52.5322 78.8308C-52.3929 78.7787 -52.1852 78.9835 -52.0459 78.9314C-51.9066 78.8793 -51.7926 78.755 -51.6533 78.7029C-51.5142 78.6505 -51.4517 78.3349 -51.3125 78.2859C-51.1905 78.2431 -51.0354 78.3283 -50.9053 78.3171L-50.7979 78.2937C-50.6688 78.2777 -50.5184 78.3423 -50.3965 78.2996C-50.2572 78.2507 -50.1491 78.0975 -50.0098 78.0486C-49.8706 77.9997 -49.7399 77.9217 -49.6035 77.8728C-49.4671 77.8239 -49.2594 78.0318 -49.1201 77.9832C-48.9808 77.9343 -48.986 77.3348 -48.8467 77.2859C-48.7075 77.2371 -48.5542 77.2435 -48.415 77.198C-48.2757 77.1524 -48.0563 77.4165 -47.917 77.3708C-47.7777 77.3251 -47.7292 76.9145 -47.5898 76.8689C-47.4506 76.8234 -47.2886 76.8683 -47.1465 76.8259C-47.0044 76.7839 -46.7828 77.077 -46.6436 77.032C-46.5042 76.9864 -46.3532 76.9858 -46.2139 76.9402C-46.0747 76.8946 -45.9468 76.8003 -45.8076 76.7546C-45.6683 76.709 -45.5513 76.5757 -45.4092 76.53C-45.267 76.4844 -45.1558 76.3341 -45.0137 76.2917C-44.8715 76.2499 -44.6665 76.4972 -44.5244 76.4548C-44.3826 76.4116 -44.3451 75.9337 -44.2031 75.8914C-44.0611 75.8496 -43.8569 76.1027 -43.7148 76.0642C-43.5727 76.0251 -43.5094 75.6368 -43.3701 75.5945C-43.2309 75.5521 -43.1001 75.4607 -42.958 75.4216C-42.8158 75.3831 -42.5542 75.8972 -42.4121 75.8582C-42.2701 75.8188 -42.187 75.5164 -42.0449 75.4773C-41.903 75.4377 -41.8178 75.1414 -41.6758 75.1023C-41.5336 75.0632 -41.397 75.0115 -41.2549 74.9724C-41.1127 74.9333 -40.942 75.034 -40.7998 74.9949C-40.6577 74.9561 -40.4361 75.311 -40.2939 75.2722C-40.1519 75.2331 -40.0863 74.8358 -39.9443 74.7996C-39.8022 74.7637 -39.6256 74.91 -39.4834 74.8708C-39.3413 74.8318 -39.1958 74.8256 -39.0537 74.7898C-38.9117 74.7539 -38.7866 74.6401 -38.6445 74.6042C-38.5024 74.5684 -38.3258 74.7211 -38.1836 74.6853C-38.0416 74.6496 -37.894 74.6527 -37.752 74.6169C-37.6099 74.5811 -37.5102 74.3337 -37.3682 74.2976C-37.226 74.2618 -37.1119 74.0922 -36.9697 74.0564C-36.8276 74.0204 -36.7251 73.7768 -36.583 73.741C-36.4409 73.7051 -36.2192 74.112 -36.0742 74.0798C-35.9292 74.0472 -35.7808 74.0597 -35.6387 74.0271C-35.4967 73.9944 -35.3715 73.8712 -35.2295 73.8386C-35.0873 73.8061 -34.9253 73.8907 -34.7803 73.8582C-34.6353 73.8256 -34.5756 73.3404 -34.4336 73.3074C-34.2915 73.2748 -34.1577 73.1867 -34.0156 73.1541C-33.8736 73.1215 -33.7143 73.1865 -33.5693 73.1541C-33.4243 73.1215 -33.3043 72.9718 -33.1621 72.9392C-33.02 72.9071 -32.8042 73.3035 -32.6621 73.2712C-32.52 73.2387 -32.4458 72.7893 -32.3037 72.7566C-32.1615 72.724 -31.9449 73.1349 -31.8027 73.1023C-31.6608 73.07 -31.4935 73.1863 -31.3516 73.1541C-31.2095 73.1215 -31.1293 72.7081 -30.9873 72.6785C-30.8451 72.6491 -30.7026 72.6232 -30.5576 72.5906C-30.4126 72.5581 -30.2134 72.9031 -30.0713 72.8738C-29.947 72.8479 -29.8507 72.6356 -29.7334 72.5632L-29.6299 72.5203C-29.5122 72.4514 -29.4137 72.2542 -29.2871 72.2283C-29.1421 72.1989 -28.982 72.2869 -28.8398 72.2576C-28.6977 72.229 -28.5072 72.5027 -28.3652 72.4734C-28.2232 72.4441 -28.0814 72.4109 -27.9365 72.3816C-27.7915 72.3523 -27.7115 71.8992 -27.5693 71.8699C-27.4272 71.8406 -27.2564 71.9809 -27.1143 71.9548C-26.9721 71.9287 -26.8443 71.7788 -26.7021 71.7527C-26.56 71.7266 -26.4087 71.7495 -26.2637 71.7234C-26.1189 71.6977 -25.9544 71.837 -25.8096 71.8113C-25.6646 71.7852 -25.5532 71.5375 -25.4082 71.5115C-25.2633 71.4854 -25.141 71.3033 -24.9961 71.2771C-24.8511 71.251 -24.7027 71.2612 -24.5605 71.2351C-24.4184 71.2098 -24.1968 71.7367 -24.0547 71.7107C-23.9127 71.6846 -23.8274 71.2132 -23.6826 71.1863C-23.5378 71.1602 -23.3783 71.2511 -23.2334 71.2253C-23.0884 71.1993 -22.9369 71.225 -22.7891 71.199C-22.6413 71.1731 -22.4878 71.2511 -22.3457 71.2283C-22.2036 71.2054 -22.0699 71.0714 -21.9277 71.0486C-21.7857 71.026 -21.601 71.3064 -21.4561 71.2839C-21.3111 71.2611 -21.1772 71.1636 -21.0322 71.1375C-20.8872 71.1114 -20.773 70.8341 -20.6309 70.8113C-20.4889 70.7881 -20.3753 70.4954 -20.2305 70.4724C-20.0854 70.4496 -19.8774 70.9483 -19.7324 70.9255C-19.5877 70.9025 -19.4798 70.5642 -19.3379 70.5408C-19.1958 70.518 -19.0219 70.7265 -18.877 70.7039C-18.7319 70.681 -18.6206 70.3614 -18.4756 70.3386C-18.3308 70.3162 -18.1605 70.5338 -18.0156 70.5115C-17.8707 70.4887 -17.7084 70.6187 -17.5635 70.5994C-17.4185 70.5798 -17.2955 70.3455 -17.1533 70.3259C-17.0113 70.3067 -16.8382 70.5209 -16.6934 70.5017C-16.5485 70.4822 -16.4514 70.0171 -16.3066 69.9968C-16.1616 69.9773 -16.019 69.9249 -15.874 69.9021C-15.7291 69.8793 -15.5814 69.8991 -15.4365 69.8796C-15.2915 69.8601 -15.1031 70.2439 -14.9609 70.2244C-14.819 70.2048 -14.6741 70.1726 -14.5293 70.1531C-14.3843 70.1335 -14.2388 70.1264 -14.0938 70.1101C-13.9489 70.0935 -13.8236 69.8796 -13.6787 69.8601C-13.5337 69.8407 -13.3715 70.0066 -13.2266 69.9871C-13.0817 69.9675 -12.9369 69.9604 -12.792 69.9441C-12.647 69.9278 -12.5161 69.7583 -12.3711 69.7419C-12.2261 69.7256 -12.0835 69.687 -11.9385 69.6707C-11.7936 69.6542 -11.6625 69.4623 -11.5176 69.446C-11.3727 69.4298 -11.2221 69.4623 -11.0771 69.446C-10.9321 69.4297 -10.8013 69.2377 -10.6562 69.2214C-10.5112 69.2052 -10.3433 69.4688 -10.1982 69.4558C-10.0533 69.443 -9.89102 69.6283 -9.74609 69.6121C-9.6012 69.5954 -9.47304 69.3448 -9.32812 69.3318C-9.18322 69.3186 -9.04637 69.1593 -8.9043 69.1462C-8.76224 69.1334 -8.6058 69.2179 -8.46094 69.2048C-8.31612 69.1922 -8.14299 69.5494 -8.00098 69.5339C-7.85896 69.5177 -7.72784 69.2672 -7.58301 69.2537C-7.43799 69.2406 -7.27783 69.42 -7.13281 69.407C-6.98806 69.3937 -6.85178 69.2639 -6.70703 69.2507C-6.56201 69.2377 -6.44189 68.7878 -6.29688 68.7781C-6.1521 68.7689 -5.98756 69.0737 -5.84277 69.0613C-5.69775 69.0482 -5.53475 69.296 -5.39258 69.283C-5.2506 69.269 -5.12533 68.8298 -4.98047 68.8201C-4.83564 68.8109 -4.66534 69.2363 -4.52051 69.2273C-4.37549 69.2175 -4.25537 68.7127 -4.11035 68.7029C-3.96542 68.6936 -3.80312 69.0092 -3.6582 69.0027C-3.51347 68.9957 -3.38008 68.7064 -3.23535 68.696C-3.09033 68.6863 -2.94189 68.7319 -2.79688 68.7253C-2.65196 68.7189 -2.49853 68.846 -2.35645 68.8396C-2.21441 68.8331 -2.05798 68.9796 -1.91309 68.9734C-1.7681 68.9669 -1.62837 68.7944 -1.4834 68.7878C-1.33838 68.7813 -1.19873 68.5531 -1.05371 68.5466C-0.908821 68.5402 -0.761101 68.6048 -0.616211 68.5984C-0.471191 68.5919 -0.325684 68.5004 -0.180664 68.4939C-0.0357513 68.4877 0.114861 68.6537 0.259766 68.6472C0.404778 68.6407 0.547371 68.4776 0.692383 68.4744C0.837234 68.471 0.982101 68.4229 1.12695 68.4197C1.27185 68.4164 1.42248 68.6211 1.56738 68.615C1.7124 68.6085 1.86377 68.8917 2.00879 68.8884C2.15364 68.8852 2.29851 68.8891 2.44336 68.8826C2.58838 68.8761 2.73096 68.5427 2.87598 68.5427C3.02087 68.5427 3.16859 68.5626 3.31348 68.5593C3.4585 68.5561 3.604 68.4783 3.74902 68.4783C3.89389 68.4782 4.04157 68.4386 4.18359 68.4353C4.32577 68.432 4.47705 68.4451 4.62207 68.4451C4.76693 68.4459 4.91178 68.862 5.05664 68.8621C5.20166 68.8621 5.34717 68.9314 5.49219 68.9314C5.63706 68.9305 5.78482 68.4812 5.92969 68.4812C6.07468 68.4813 6.21731 68.9021 6.3623 68.9021C6.50717 68.9016 6.65495 68.683 6.7998 68.6863C6.94466 68.6895 7.09235 68.648 7.23438 68.6511C7.3587 68.654 7.48785 68.7459 7.61328 68.7712L7.7207 68.7849C7.84564 68.8159 7.97278 68.9315 8.09961 68.9343C8.24451 68.9368 8.40102 68.5199 8.5459 68.5232C8.69069 68.5268 8.82982 68.8261 8.97461 68.8298C9.11963 68.8331 9.26514 68.8721 9.41016 68.8787C9.55515 68.8849 9.71733 68.4093 9.8623 68.4158C10.0073 68.4226 10.1354 68.9542 10.2832 68.9607C10.4309 68.9672 10.5729 68.9766 10.7178 68.9832C10.8628 68.9897 11.0112 68.9766 11.1562 68.9832C11.3012 68.9891 11.4635 68.6378 11.6084 68.6443C11.7531 68.6512 11.8865 68.9273 12.0312 68.9343C12.1763 68.9408 12.3247 68.9346 12.4697 68.9412C12.6146 68.9476 12.7652 68.8787 12.9102 68.8884C13.0551 68.8982 13.1832 69.2212 13.3281 69.2312C13.4551 69.2398 13.5867 69.168 13.7148 69.1589H13.8232C13.9514 69.1498 14.0829 69.0791 14.21 69.0876C14.3549 69.0976 14.4888 69.2895 14.6338 69.3025C14.7787 69.3154 14.9293 69.2533 15.0742 69.2664C15.2192 69.2794 15.3784 69.0877 15.5234 69.0974C15.6684 69.1072 15.7993 69.3217 15.9443 69.3347C16.0894 69.3477 16.2661 68.9311 16.4111 68.9441C16.5558 68.9575 16.6892 69.1485 16.8311 69.1619C16.9732 69.1749 17.1304 69.0678 17.2754 69.0808C17.4203 69.0938 17.568 69.0646 17.7129 69.0808C17.8579 69.0971 17.975 69.4786 18.1172 69.4949C18.2592 69.5109 18.4185 69.3936 18.5605 69.4099C18.7027 69.4259 18.8707 69.1983 19.0156 69.2146C19.1604 69.2309 19.3024 69.2862 19.4443 69.3025C19.5865 69.3188 19.7232 69.4521 19.8682 69.4685C20.0132 69.4848 20.1332 69.7849 20.2754 69.8044C20.4175 69.823 20.6022 69.4128 20.7471 69.4324C20.8921 69.452 21.0005 69.8467 21.1455 69.863C21.2905 69.8783 21.4782 69.4454 21.623 69.4617C21.7678 69.4784 21.8728 69.9111 22.0176 69.9314C22.1626 69.951 22.3452 69.573 22.4902 69.5925C22.6352 69.6122 22.772 69.7263 22.9141 69.7458C23.056 69.7655 23.1979 69.8405 23.3398 69.8601C23.482 69.8797 23.6274 69.9187 23.7725 69.9382C23.9174 69.9578 24.06 70.0066 24.2021 70.0261C24.3441 70.0463 24.4548 70.394 24.5996 70.4138C24.7446 70.4334 24.8901 70.4265 25.0352 70.446C25.1801 70.4655 25.3365 70.3581 25.4814 70.3777C25.6263 70.3971 25.8053 70.0879 25.9502 70.1101C26.0952 70.1329 26.1978 70.5279 26.3428 70.5476C26.4878 70.5672 26.6333 70.57 26.7783 70.5896C26.9233 70.6084 27.111 70.2055 27.2559 70.2283C27.4007 70.2513 27.5173 70.5044 27.6621 70.5242C27.807 70.5437 27.9577 70.4853 28.1025 70.5046C28.2475 70.5242 28.3503 70.9113 28.4951 70.9314C28.6401 70.951 28.7944 70.863 28.9395 70.8826C29.0843 70.902 29.232 70.8796 29.374 70.8992C29.4807 70.9138 29.5954 70.8749 29.7061 70.863H29.8691C29.9978 70.8452 30.1398 70.7222 30.2666 70.739C30.4116 70.7586 30.5317 70.9968 30.6768 71.0164C30.8215 71.0359 30.9635 71.0681 31.1055 71.0876C31.2476 71.1072 31.3989 71.0818 31.5439 71.1013C31.6889 71.1205 31.854 70.9382 31.9961 70.9578C32.138 70.9774 32.2771 71.0553 32.4189 71.075C32.5611 71.0945 32.7182 71.0134 32.8604 71.033C33.0024 71.0531 33.1021 71.5281 33.2441 71.5476C33.3862 71.5669 33.5679 71.2319 33.71 71.2507C33.8521 71.2703 33.9605 71.6679 34.1055 71.6843C34.2504 71.7006 34.4038 71.623 34.5459 71.6423C34.688 71.6619 34.8334 71.6944 34.9756 71.7107C35.1178 71.727 35.2661 71.7234 35.4111 71.7429C35.556 71.7624 35.6979 71.7794 35.8428 71.7957C35.9877 71.8119 36.1528 71.5998 36.2949 71.616C36.4371 71.6323 36.5541 71.9812 36.6963 72.0007C36.8384 72.0196 37.0202 71.6029 37.165 71.6189C37.3101 71.6352 37.4097 72.1475 37.5547 72.1638C37.6996 72.18 37.8843 71.7044 38.0264 71.7166C38.1684 71.7296 38.3023 71.9021 38.4443 71.9187C38.5865 71.935 38.7261 72.0267 38.8711 72.0398C39.016 72.0528 39.1724 71.8834 39.3174 71.8962C39.4624 71.9093 39.5737 72.349 39.7188 72.3621C39.8636 72.3751 40.0027 72.4407 40.1475 72.4539C40.2925 72.4669 40.4468 72.3363 40.5918 72.3494C40.7367 72.362 40.899 72.0951 41.0439 72.1082C41.1888 72.1212 41.3307 72.1345 41.4756 72.1443C41.6205 72.1541 41.7457 72.4534 41.8906 72.4636C42.0356 72.4734 42.2007 72.1378 42.3457 72.1472C42.4907 72.157 42.6216 72.3883 42.7666 72.3982C42.9116 72.408 43.0454 72.5837 43.1904 72.5935C43.3354 72.6033 43.481 72.5938 43.626 72.6003C43.7708 72.6058 43.9382 72.1313 44.083 72.1404C44.228 72.1502 44.3648 72.2871 44.5098 72.2937C44.6547 72.3002 44.777 72.7922 44.9219 72.8025C45.0669 72.8123 45.2153 72.7178 45.3604 72.7244C45.5052 72.7308 45.6501 72.6945 45.7949 72.7009C45.9398 72.7074 46.0934 72.4732 46.2383 72.4792C46.3832 72.4858 46.5172 72.8308 46.6621 72.8376C46.807 72.8442 46.9635 72.4149 47.1084 72.4207C47.2533 72.4272 47.3873 72.7755 47.5322 72.7791C47.6772 72.7823 47.8169 72.9613 47.9619 72.9646C48.1068 72.9678 48.2545 72.8346 48.3994 72.8376C48.5444 72.8409 48.687 72.932 48.832 72.9353C48.977 72.9384 49.1247 72.6748 49.2725 72.6746C49.4203 72.6746 49.5601 72.809 49.7051 72.8123C49.85 72.8151 49.9977 72.405 50.1426 72.408C50.2876 72.4112 50.4302 72.5776 50.5752 72.5808C50.72 72.5844 50.862 72.8828 51.0068 72.8865C51.1519 72.8897 51.2974 72.4304 51.4424 72.4304C51.5872 72.4307 51.7321 72.7854 51.877 72.7859C52.022 72.7859 52.1675 72.7791 52.3125 72.7791C52.4573 72.7788 52.5993 72.5415 52.7441 72.5378C52.8892 72.5346 53.0347 72.6749 53.1797 72.6716C53.3245 72.6684 53.4694 72.7889 53.6143 72.7859C53.7593 72.7826 53.899 72.4988 54.0469 72.4988C54.1946 72.4988 54.3395 72.6522 54.4844 72.6492C54.6294 72.6459 54.7691 72.4181 54.9141 72.4148C55.059 72.4115 55.2096 72.6845 55.3545 72.6785C55.4995 72.672 55.6479 72.8119 55.793 72.8054C55.9378 72.7989 56.0827 72.7602 56.2275 72.7537C56.3726 72.7471 56.5093 72.4825 56.6543 72.4792C56.7991 72.476 56.944 72.4536 57.0889 72.447C57.2339 72.4405 57.3823 72.5444 57.5273 72.5378C57.6722 72.5314 57.82 72.636 57.9648 72.6296C58.1099 72.6231 58.2554 72.6257 58.4004 72.616C58.5453 72.6063 58.6959 72.7269 58.8408 72.7205C58.9858 72.7139 59.1109 72.2384 59.2559 72.2283C59.4009 72.2185 59.5464 72.2449 59.6914 72.2351C59.8362 72.226 60.0036 72.7096 60.1484 72.7009C60.2935 72.6912 60.439 72.6912 60.584 72.6814C60.729 72.6716 60.8687 72.5769 61.0137 72.5671C61.1585 72.5573 61.2976 72.4891 61.4424 72.4792C61.5874 72.4695 61.7046 71.9939 61.8496 71.9841C61.9945 71.9752 62.1735 72.5476 62.3184 72.5349C62.4632 72.5219 62.5827 72.1316 62.7275 72.1179C62.8725 72.1049 63.0036 71.8965 63.1484 71.8865C63.2935 71.8767 63.4702 72.3429 63.6152 72.3298C63.7601 72.3168 63.9021 72.2746 64.0469 72.2615C64.1918 72.2485 64.3229 72.0495 64.4678 72.033C64.6128 72.0167 64.77 72.1827 64.915 72.1697C65.0599 72.1568 65.2077 72.2055 65.3525 72.1892C65.4975 72.1727 65.6031 71.6645 65.748 71.6482C65.8929 71.6321 66.0436 71.7296 66.1885 71.7166C66.3335 71.7035 66.4673 71.5737 66.6123 71.5574C66.7571 71.5411 66.8991 71.5082 67.0439 71.4919C67.1889 71.4757 67.3599 71.7854 67.5049 71.7693C67.6499 71.753 67.7809 71.603 67.9287 71.5867C68.0766 71.5705 68.2447 71.851 68.3896 71.8347C68.5345 71.8182 68.6627 71.6225 68.8076 71.6062C68.9524 71.5904 69.1228 71.8603 69.2676 71.8445C69.4126 71.8282 69.5298 71.5053 69.6748 71.489C69.8197 71.4728 69.9703 71.5151 70.1152 71.4988C70.2603 71.4825 70.3687 71.1111 70.5137 71.0916C70.6586 71.0725 70.8346 71.4073 70.9795 71.3914C71.1245 71.3751 71.2417 71.1043 71.3867 71.0847C71.5316 71.065 71.6656 70.948 71.8076 70.9285C71.9497 70.9098 72.1344 71.2576 72.2793 71.238C72.4242 71.2184 72.5465 71.0135 72.6914 70.9939C72.8364 70.9743 73.0132 71.254 73.1582 71.2312C73.3029 71.2083 73.4421 71.1408 73.584 71.1179C73.7261 71.0951 73.8345 70.7333 73.9795 70.7136C74.1245 70.6941 74.3267 71.1827 74.4717 71.1599C74.6166 71.137 74.7505 71.0362 74.8955 71.0134C75.0403 70.9899 75.1256 70.4884 75.2705 70.4656C75.4154 70.4428 75.5631 70.4785 75.708 70.4558C75.853 70.433 76.0015 70.4493 76.1465 70.4265C76.2913 70.4037 76.4333 70.3809 76.5781 70.3582C76.7231 70.3354 76.8628 70.2836 77.0078 70.2576C77.1528 70.2315 77.3579 70.7071 77.5029 70.6843C77.6115 70.6672 77.7152 70.6133 77.8213 70.5779L77.9824 70.5369C78.1066 70.4964 78.2227 70.3938 78.3496 70.3708C78.4946 70.3448 78.6118 70.1206 78.7568 70.0945C78.9018 70.0686 79.0699 70.2081 79.2148 70.1853C79.3596 70.1621 79.4791 69.9444 79.6211 69.9216C79.7632 69.8988 79.894 69.7553 80.0361 69.7292C80.1782 69.7032 80.3345 69.7581 80.4766 69.7322C80.6187 69.7061 80.7895 69.8664 80.9316 69.8406C81.0737 69.8145 81.2329 69.8821 81.375 69.8562C81.5172 69.8301 81.6742 69.8823 81.8164 69.8562C81.9583 69.8298 82.0691 69.5576 82.2109 69.531C82.3531 69.5049 82.5473 69.8139 82.6895 69.7878C82.8314 69.7618 82.9762 69.7289 83.1182 69.7029C83.2603 69.6768 83.3461 69.2176 83.4883 69.1882C83.6304 69.159 83.7896 69.2279 83.9346 69.2019C84.0794 69.1759 84.2555 69.3704 84.4004 69.3416C84.5453 69.3123 84.6451 68.9866 84.7871 68.9568C84.9293 68.9275 85.0806 68.9412 85.2256 68.9119C85.3705 68.8825 85.4898 68.7002 85.6318 68.6707C85.774 68.6413 85.9448 68.781 86.0898 68.7517C86.2348 68.7224 86.354 68.5429 86.4961 68.5134C86.6382 68.4841 86.8091 68.608 86.9512 68.5789C87.0933 68.5495 87.2953 68.8657 87.4375 68.8367C87.5797 68.8073 87.6596 68.3709 87.8018 68.3416C87.9439 68.3123 88.1371 68.5758 88.2793 68.5466C88.4214 68.5173 88.5152 68.1781 88.6572 68.1453C88.7994 68.1127 88.9789 68.283 89.1211 68.2537C89.2631 68.2244 89.3766 68.0121 89.5215 67.9792C89.6664 67.9467 89.8374 68.0801 89.9795 68.0476C90.1216 68.015 90.2271 67.7552 90.3691 67.7224C90.5112 67.6898 90.6704 67.7444 90.8125 67.7087C90.9547 67.6729 91.103 67.6733 91.2451 67.6375C91.3872 67.6016 91.5151 67.4748 91.6572 67.4421C91.7994 67.4096 91.9672 67.5069 92.1094 67.4744C92.2515 67.4418 92.3656 67.2465 92.5078 67.2107C92.65 67.1751 92.852 67.4513 92.9941 67.4187C93.136 67.3856 93.2184 67.0184 93.3574 66.9822C93.4967 66.9463 93.7133 67.2853 93.8555 67.2527C93.9975 67.2202 94.1537 67.2425 94.293 67.2068C94.4323 67.1709 94.5893 67.184 94.7314 67.1482C94.8734 67.1122 94.9898 66.9332 95.1289 66.8972C95.2682 66.8614 95.3568 66.5291 95.4961 66.49C95.6354 66.4509 95.7866 66.4477 95.9287 66.4119C96.0708 66.3766 96.2672 66.6042 96.4092 66.5652C96.5513 66.5262 96.7104 66.5652 96.8496 66.5261C96.9889 66.4869 97.0229 65.9198 97.165 65.8806C97.3072 65.8415 97.5063 66.0797 97.6484 66.0408C97.7905 66.0017 97.9808 66.1868 98.1201 66.1482C98.2594 66.1091 98.3539 65.839 98.4961 65.7966C98.6382 65.7543 98.7661 65.6622 98.9082 65.6199C99.0504 65.5777 99.264 65.865 99.4033 65.8259C99.5423 65.7863 99.5623 65.1884 99.7012 65.1482C99.8405 65.1091 100.117 65.6523 100.256 65.6101C100.395 65.5678 100.407 64.9456 100.546 64.9031C100.685 64.8607 100.833 64.8419 100.973 64.7996C101.112 64.7572 101.354 65.1447 101.496 65.1023C101.638 65.0598 101.741 64.8614 101.88 64.8191C102.019 64.7766 102.102 64.4835 102.241 64.4412C102.38 64.3988 102.52 64.3461 102.659 64.3005C102.798 64.2549 102.92 64.1382 103.06 64.0925C103.199 64.0469 103.435 64.385 103.574 64.3396C103.713 64.294 103.81 64.0759 103.949 64.03C104.089 63.9844 104.254 64.0304 104.394 63.988C104.533 63.9457 104.666 63.8676 104.806 63.822C104.945 63.7764 105.013 63.4497 105.152 63.4041C105.292 63.3584 105.437 63.3364 105.576 63.2908C105.715 63.2452 105.96 63.5906 106.1 63.5417C106.239 63.4929 106.401 63.5281 106.54 63.4792C106.679 63.4304 106.685 62.8897 106.824 62.8406C106.963 62.7917 107.234 63.2217 107.373 63.1736C107.512 63.1247 107.552 62.7211 107.691 62.6716C107.831 62.6228 107.948 62.4982 108.087 62.446C108.226 62.394 108.397 62.4629 108.533 62.4109C108.67 62.3588 108.926 62.714 109.062 62.6619C109.199 62.6095 109.199 62.0759 109.338 62.0232C109.477 61.9711 109.688 62.1759 109.827 62.1238C109.966 62.0717 110.106 62.0265 110.242 61.9744C110.379 61.9222 110.564 62.0167 110.7 61.9646C110.837 61.9125 110.871 61.5115 111.01 61.4558C111.149 61.4004 111.318 61.4555 111.454 61.4001C111.59 61.3443 111.667 61.0873 111.804 61.032C111.94 60.9769 112.114 61.0385 112.253 60.9832C112.392 60.9277 112.5 60.7849 112.637 60.7263C112.773 60.6676 112.872 60.491 113.009 60.4324C113.145 60.3737 113.464 60.8856 113.601 60.8269C113.737 60.7678 113.695 60.1521 113.831 60.0935C113.968 60.0357 114.235 60.3835 114.371 60.325C114.508 60.2664 114.699 60.3738 114.835 60.3152C114.971 60.2559 115.011 59.9044 115.147 59.8425C115.284 59.7803 115.332 59.4588 115.466 59.4001C115.599 59.3416 115.795 59.4583 115.932 59.4001C116.068 59.3415 116.177 59.2013 116.313 59.1394C116.45 59.0777 116.66 59.24 116.797 59.1814C116.933 59.1231 117.12 59.2106 117.254 59.1492C117.388 59.0873 117.533 59.048 117.667 58.9861C117.8 58.9238 117.834 58.5685 117.968 58.5066C118.101 58.4447 118.218 58.3244 118.352 58.2625C118.485 58.2005 118.659 58.2394 118.793 58.1775C118.926 58.1153 118.986 57.8365 119.119 57.7742C119.253 57.7123 119.424 57.7475 119.558 57.6824C119.691 57.6176 119.976 57.9591 120.109 57.8972C120.243 57.8346 120.22 57.3378 120.354 57.2722C120.487 57.207 120.61 57.1089 120.743 57.0437C120.877 56.9785 120.983 56.8384 121.116 56.7732C121.25 56.7086 121.449 56.8225 121.582 56.7576C121.716 56.6924 121.784 56.4546 121.918 56.3894C122.052 56.3245 122.341 56.6718 122.475 56.6072C122.608 56.542 122.774 56.5555 122.907 56.4871C123.041 56.4186 123.169 56.3397 123.303 56.2712C123.436 56.202 123.428 55.7663 123.562 55.698C123.695 55.6305 123.999 56.0105 124.13 55.9421C124.26 55.8732 124.198 55.2937 124.332 55.2253C124.466 55.1577 124.733 55.4406 124.866 55.3757C125 55.3106 125.026 54.9614 125.159 54.8962C125.293 54.8314 125.571 55.1442 125.705 55.0759C125.822 55.016 125.863 54.7635 125.961 54.658L126.053 54.5876C126.151 54.4819 126.191 54.2297 126.308 54.1697C126.441 54.1013 126.569 54.0233 126.7 53.9548C126.831 53.8864 127.15 54.2937 127.283 54.2253C127.417 54.1569 127.459 53.8632 127.593 53.7947C127.726 53.7262 127.795 53.4985 127.929 53.4333C128.062 53.3684 128.295 53.5635 128.429 53.4958C128.562 53.4274 128.779 53.577 128.91 53.5085C129.041 53.4398 129.089 53.1502 129.22 53.0818C129.35 53.0134 129.458 52.8827 129.592 52.8142C129.725 52.7458 129.822 52.5893 129.956 52.5242C130.09 52.459 130.209 52.355 130.34 52.2898C130.471 52.2246 130.69 52.3709 130.82 52.3025C130.951 52.2341 131.065 52.1141 131.196 52.0457C131.327 51.9773 131.472 51.9412 131.605 51.8728C131.739 51.8044 131.915 51.8563 132.049 51.7878C132.182 51.7194 132.354 51.7557 132.484 51.6873C132.615 51.6187 132.697 51.4168 132.828 51.3484C132.959 51.28 133.013 51.0065 133.146 50.9412C133.28 50.876 133.539 51.1492 133.673 51.0808C133.806 51.0124 133.903 50.8592 134.036 50.7908C134.17 50.7224 134.335 50.7455 134.469 50.6804C134.602 50.6153 134.639 50.2985 134.772 50.2332C134.906 50.168 135.08 50.2143 135.214 50.1492C135.347 50.084 135.439 49.9106 135.572 49.8455C135.706 49.7809 135.933 49.9788 136.066 49.9138C136.2 49.8486 136.334 49.7905 136.468 49.7253C136.601 49.6599 136.533 49.0411 136.667 48.9792C136.801 48.9175 136.974 48.9629 137.107 48.9011C137.241 48.8392 137.474 49.05 137.607 48.9851C137.741 48.92 137.92 48.9919 138.057 48.9304C138.193 48.8685 138.293 48.715 138.427 48.6531C138.56 48.5911 138.561 48.1417 138.694 48.0798C138.828 48.0184 139.144 48.4806 139.28 48.4187C139.416 48.3559 139.363 47.7569 139.499 47.6951C139.635 47.6331 139.755 47.5323 139.889 47.4705C140.022 47.4092 140.326 47.8517 140.463 47.7898C140.599 47.7278 140.63 47.367 140.764 47.3044C140.897 47.2425 141.017 47.1375 141.153 47.0789C141.29 47.0202 141.521 47.2518 141.657 47.1931C141.793 47.1342 141.87 46.8973 142.004 46.8386C142.138 46.78 142.211 46.5253 142.348 46.4666C142.484 46.4079 142.772 46.8287 142.908 46.7703C143.045 46.7116 143.016 46.1406 143.152 46.0818C143.289 46.0232 143.57 46.4341 143.707 46.3757C143.843 46.3171 143.92 46.0758 144.057 46.0203C144.193 45.9649 144.284 45.7632 144.421 45.7078C144.557 45.6524 144.665 45.4992 144.802 45.447C144.938 45.3949 145.143 45.5576 145.279 45.5027C145.416 45.4473 145.65 45.7111 145.786 45.6589C145.922 45.606 145.883 44.9593 146.021 44.9031C146.161 44.8477 146.363 45.0231 146.502 44.9714C146.641 44.9193 146.815 45 146.954 44.948C147.093 44.8959 147.21 44.7755 147.347 44.7234C147.483 44.6713 147.577 44.4598 147.714 44.4109C147.85 44.3623 148.078 44.6289 148.217 44.5769C148.356 44.5248 148.379 44.0652 148.519 44.0164C148.658 43.9675 148.786 43.8858 148.925 43.8337C149.064 43.7816 149.235 43.86 149.374 43.8113C149.513 43.7624 149.698 43.8826 149.835 43.8337C149.971 43.7849 150.093 43.6707 150.232 43.6218C150.372 43.573 150.588 43.8209 150.728 43.7722C150.867 43.7233 150.865 43.1365 151.004 43.0876C151.143 43.0396 151.379 43.3676 151.519 43.322C151.658 43.276 151.743 43.0191 151.882 42.9734C152.021 42.9278 152.138 42.7944 152.28 42.7488C152.422 42.7033 152.63 42.9409 152.77 42.8953C152.909 42.8494 153 42.6147 153.142 42.5691C153.284 42.5235 153.517 42.869 153.656 42.8269C153.796 42.7845 153.941 42.7648 154.083 42.7224C154.225 42.6797 154.256 42.1917 154.398 42.1492C154.541 42.1068 154.68 42.0714 154.822 42.0291C154.964 41.9867 155.147 42.13 155.286 42.0876C155.425 42.0456 155.616 42.2178 155.755 42.1755C155.894 42.1332 156.022 42.0382 156.164 41.9958C156.306 41.9535 156.457 41.9669 156.597 41.9246C156.736 41.8821 156.819 41.5789 156.961 41.5398C157.103 41.5001 157.177 41.1583 157.316 41.116C157.455 41.0737 157.6 41.0446 157.742 41.0056C157.884 40.9665 158.058 41.087 158.2 41.0447C158.342 41.0023 158.559 41.3308 158.701 41.2917C158.843 41.2528 158.991 41.2565 159.133 41.2175C159.275 41.1784 159.315 40.6531 159.457 40.614C159.599 40.575 159.81 40.8784 159.949 40.8425C160.088 40.8067 160.234 40.7875 160.376 40.7517C160.518 40.7157 160.634 40.5652 160.776 40.5261C160.919 40.487 161.098 40.6531 161.24 40.614C161.382 40.5745 161.476 40.3149 161.618 40.2791C161.742 40.2477 161.884 40.3133 162.013 40.3064L162.122 40.2908C162.251 40.2839 162.392 40.3494 162.517 40.3181C162.659 40.2823 162.758 40.0279 162.9 39.9919C163.043 39.9561 163.222 40.1225 163.364 40.0867C163.506 40.0505 163.586 39.6793 163.728 39.6462C163.87 39.6137 164.006 39.5519 164.148 39.5193C164.291 39.4867 164.411 39.3273 164.553 39.2947C164.695 39.2622 164.851 39.3047 164.993 39.2722C165.135 39.2396 165.352 39.6271 165.494 39.5945C165.636 39.5617 165.753 39.3927 165.897 39.3601C166.042 39.3275 166.139 39.0402 166.281 39.0076C166.423 38.975 166.548 38.8449 166.693 38.8123C166.838 38.7797 167.018 38.9855 167.163 38.9529C167.308 38.9202 167.419 38.7113 167.561 38.6785C167.703 38.6459 167.9 38.9363 168.042 38.907C168.184 38.877 168.275 38.5261 168.42 38.4968C168.565 38.4676 168.727 38.5685 168.869 38.5359C169.011 38.5032 169.117 38.2394 169.259 38.2068C169.401 38.1746 169.623 38.6365 169.765 38.6072C169.907 38.5779 169.975 38.0731 170.12 38.0437C170.265 38.0144 170.441 38.219 170.586 38.1902C170.731 38.1609 170.851 37.991 170.996 37.9617C171.141 37.9325 171.297 37.9946 171.439 37.9685C171.582 37.9424 171.747 38.0561 171.892 38.03C172.037 38.004 172.205 38.1577 172.35 38.1316C172.494 38.1054 172.608 37.8809 172.75 37.8513C172.892 37.822 173.003 37.5678 173.148 37.5417C173.293 37.5158 173.469 37.7333 173.614 37.7078C173.759 37.6817 173.899 37.6293 174.041 37.6033C174.183 37.5772 174.36 37.7827 174.505 37.7566C174.65 37.7306 174.795 37.7269 174.939 37.7009C175.084 37.6749 175.196 37.4213 175.341 37.3953C175.486 37.3691 175.585 37.0336 175.73 37.0076C175.875 36.9815 176.017 36.9516 176.162 36.9255C176.307 36.8995 176.509 37.3136 176.654 37.2878C176.799 37.2618 176.885 36.7766 177.029 36.7498C177.174 36.7237 177.379 37.1767 177.521 37.1511C177.664 37.1251 177.758 36.6924 177.899 36.6687C178.042 36.6459 178.221 36.8642 178.363 36.8416C178.505 36.8187 178.636 36.6518 178.778 36.6257C178.92 36.5997 179.077 36.6517 179.222 36.6257C179.367 36.5997 179.509 36.5606 179.654 36.5378C179.799 36.515 179.927 36.3556 180.072 36.3328C180.217 36.31 180.382 36.4503 180.524 36.4275C180.666 36.4047 180.817 36.4141 180.962 36.3914C181.107 36.3685 181.252 36.3526 181.397 36.3298C181.542 36.3071 181.693 36.3389 181.838 36.3162C181.983 36.2934 182.097 35.9968 182.242 35.9773C182.387 35.9576 182.523 35.8508 182.668 35.8279C182.813 35.8051 182.987 36.0496 183.132 36.03C183.277 36.0105 183.453 36.2803 183.598 36.2615C183.743 36.2419 183.842 35.7896 183.987 35.7693C184.132 35.7498 184.294 35.8764 184.437 35.8572C184.579 35.8376 184.724 35.8015 184.869 35.782C185.014 35.7625 185.165 35.8083 185.31 35.7888C185.454 35.7693 185.58 35.548 185.725 35.5281C185.87 35.5085 186.052 35.8699 186.197 35.8503C186.342 35.8307 186.476 35.684 186.621 35.6677C186.766 35.6518 186.931 35.8344 187.073 35.8181C187.215 35.8011 187.326 35.3623 187.468 35.3455C187.61 35.3292 187.775 35.5012 187.92 35.4851C188.065 35.4688 188.213 35.4851 188.358 35.4656C188.503 35.4463 188.663 35.6098 188.808 35.5935C188.953 35.5771 189.084 35.3849 189.229 35.3718C189.373 35.3588 189.521 35.3647 189.666 35.3484C189.811 35.3321 189.97 35.4824 190.115 35.4695C190.26 35.4564 190.366 34.9347 190.511 34.9216C190.656 34.9088 190.821 35.1563 190.966 35.1433C191.111 35.1304 191.264 35.2084 191.409 35.1921C191.554 35.1759 191.711 35.3324 191.855 35.3162C192 35.2999 192.128 35.0422 192.273 35.0291C192.418 35.016 192.567 35.0392 192.712 35.0261C192.857 35.0123 192.979 34.6319 193.124 34.6189C193.269 34.6066 193.451 35.166 193.596 35.1531C193.741 35.14 193.88 35.033 194.025 35.0232C194.17 35.0134 194.312 34.9452 194.457 34.9353C194.602 34.9255 194.758 35.0844 194.903 35.075C195.048 35.0652 195.176 34.7339 195.321 34.7234C195.466 34.7136 195.621 34.8435 195.766 34.8337C195.91 34.824 196.055 34.8139 196.2 34.8074C196.345 34.8009 196.47 34.3624 196.615 34.3552C196.76 34.3487 196.925 34.7716 197.07 34.7654C197.215 34.7589 197.355 34.5795 197.5 34.573C197.645 34.5665 197.793 34.6188 197.938 34.6091C198.083 34.5994 198.228 34.5571 198.373 34.5505C198.518 34.5438 198.657 34.365 198.802 34.3582C198.947 34.3516 199.104 34.6547 199.249 34.6482C199.394 34.6413 199.533 34.4271 199.678 34.4236C199.823 34.4203 199.974 34.5307 200.119 34.5242C200.264 34.5175 200.409 34.4522 200.554 34.449C200.699 34.4457 200.844 34.3712 200.989 34.3679C201.134 34.3647 201.282 34.3585 201.424 34.3552C201.566 34.352 201.714 34.3156 201.858 34.3123C202.003 34.309 202.155 34.6612 202.3 34.658C202.445 34.6547 202.59 34.658 202.734 34.658C202.879 34.658 203.022 34.1462 203.167 34.1462C203.312 34.1463 203.46 34.234 203.604 34.2341C203.75 34.2341 203.898 34.2605 204.043 34.2605C204.188 34.2604 204.336 34.1629 204.48 34.1628C204.625 34.1628 204.773 34.1823 204.918 34.1824C205.063 34.1824 205.208 34.6804 205.354 34.6804C205.498 34.6804 205.646 34.2476 205.791 34.2468C205.936 34.2468 206.084 34.2045 206.229 34.2078C206.374 34.2113 206.516 34.576 206.661 34.5798C206.806 34.5831 206.957 34.3549 207.1 34.3582C207.242 34.3615 207.389 34.4268 207.534 34.4333C207.679 34.4399 207.822 34.6186 207.967 34.6218C208.112 34.6251 208.257 34.6088 208.401 34.6121C208.546 34.6153 208.689 34.7852 208.834 34.7917C208.979 34.7982 209.124 34.769 209.269 34.7722C209.414 34.7755 209.568 34.5961 209.713 34.5994C209.858 34.6023 210.011 34.4005 210.156 34.407C210.301 34.4136 210.441 34.629 210.586 34.6355C210.731 34.6414 210.89 34.3455 211.035 34.3552C211.18 34.365 211.328 34.3748 211.473 34.3845C211.618 34.3943 211.751 34.6902 211.896 34.7C212.041 34.7097 212.192 34.6482 212.337 34.658C212.482 34.6677 212.632 34.5664 212.777 34.5759C212.922 34.5857 213.053 34.9055 213.198 34.9158C213.343 34.9255 213.511 34.5343 213.656 34.5437C213.801 34.5535 213.932 34.8404 214.077 34.8503C214.222 34.8601 214.381 34.6549 214.526 34.6677C214.671 34.6808 214.789 35.1335 214.934 35.1433C215.078 35.1531 215.223 35.1762 215.368 35.1892C215.513 35.2022 215.681 34.8764 215.826 34.8894C215.971 34.9023 216.133 34.684 216.278 34.697C216.423 34.7106 216.529 35.2833 216.674 35.2996C216.819 35.3153 216.983 35.0556 217.128 35.0681C217.273 35.0812 217.427 34.9776 217.572 34.9939C217.717 35.0109 217.834 35.3783 217.979 35.3914C218.123 35.4044 218.28 35.2638 218.425 35.28C218.57 35.2963 218.735 35.0655 218.88 35.0818C219.025 35.0981 219.153 35.3067 219.298 35.323C219.443 35.3393 219.562 35.6217 219.707 35.6384C219.852 35.6547 220.035 35.2383 220.18 35.2546C220.324 35.2709 220.467 35.3064 220.611 35.3259C220.756 35.3455 220.876 35.6228 221.021 35.6423C221.166 35.6609 221.351 35.2511 221.496 35.2673C221.641 35.2837 221.778 35.4005 221.923 35.4167C222.068 35.4338 222.17 35.8761 222.314 35.8962C222.459 35.9158 222.614 35.8435 222.759 35.863C222.904 35.8828 223.035 36.0196 223.18 36.0359C223.325 36.0522 223.469 36.0652 223.614 36.0847C223.759 36.1043 223.93 35.8699 224.072 35.8894C224.214 35.909 224.354 35.9939 224.499 36.0134C224.644 36.0333 224.772 36.2126 224.914 36.2322C225.056 36.2509 225.253 35.7917 225.397 35.8113C225.542 35.8312 225.656 36.1236 225.801 36.1433C225.946 36.1629 226.083 36.2445 226.228 36.2673C226.373 36.2902 226.506 36.3949 226.651 36.4177C226.796 36.4404 226.944 36.4171 227.089 36.4333C227.234 36.4496 227.371 36.5287 227.516 36.5515C227.661 36.574 227.854 36.1208 227.999 36.1404C228.144 36.1602 228.226 36.7322 228.371 36.7527C228.516 36.7722 228.69 36.5184 228.832 36.5378C228.974 36.5574 229.105 36.7175 229.247 36.7371C229.389 36.7566 229.532 36.8054 229.677 36.825C229.822 36.8447 229.947 37.03 230.092 37.0496C230.237 37.0688 230.445 36.4929 230.587 36.5125C230.729 36.5326 230.848 36.7957 230.993 36.8152C231.138 36.8346 231.303 36.6521 231.445 36.6716C231.587 36.6912 231.73 36.7468 231.872 36.7664C232.014 36.7868 232.108 37.2937 232.253 37.3132C232.398 37.3327 232.554 37.2058 232.699 37.2253C232.844 37.2449 232.981 37.3103 233.126 37.3298C233.271 37.3489 233.45 37.0079 233.592 37.0271C233.734 37.0466 233.851 37.3624 233.993 37.3787C234.135 37.3952 234.26 37.626 234.405 37.6423C234.55 37.6586 234.696 37.6719 234.838 37.6882C234.98 37.7038 235.159 37.3625 235.304 37.3787C235.449 37.395 235.58 37.545 235.725 37.5613C235.87 37.5776 235.992 37.8222 236.137 37.8386C236.282 37.8549 236.45 37.6007 236.595 37.6169C236.74 37.6333 236.873 37.7696 237.016 37.7859C237.158 37.8022 237.297 37.8809 237.442 37.8972C237.587 37.9134 237.732 37.8969 237.877 37.9099C238.022 37.9229 238.184 37.6978 238.329 37.7107C238.474 37.7237 238.608 37.8477 238.753 37.864C238.898 37.8803 239.035 37.9688 239.18 37.9851C239.325 38.0016 239.459 38.1313 239.604 38.1443C239.748 38.1564 239.93 37.643 240.075 37.656C240.22 37.6693 240.334 38.111 240.479 38.1248C240.624 38.1378 240.797 37.6977 240.942 37.7107C241.087 37.7237 241.221 37.8777 241.366 37.8875C241.493 37.8962 241.609 38.0634 241.733 38.114L241.841 38.1433C241.965 38.1991 242.081 38.3867 242.208 38.3953C242.353 38.4043 242.529 37.8451 242.674 37.8542C242.819 37.864 242.944 38.2219 243.089 38.2322C243.234 38.2419 243.362 38.5384 243.507 38.5486C243.652 38.5584 243.814 38.1907 243.959 38.2C244.104 38.2097 244.232 38.5452 244.377 38.5554C244.522 38.5652 244.684 38.1325 244.829 38.1384C244.974 38.1449 245.117 38.154 245.262 38.1638C245.407 38.1736 245.549 38.1866 245.693 38.1931C245.838 38.1996 245.975 38.3983 246.12 38.405C246.265 38.4115 246.405 38.5548 246.55 38.5613C246.695 38.5678 246.84 38.6009 246.984 38.6042C247.129 38.6075 247.284 38.2875 247.429 38.2908C247.573 38.2947 247.707 38.6842 247.852 38.6882C247.997 38.6915 248.151 38.3266 248.296 38.3298C248.441 38.3334 248.58 38.5323 248.725 38.5359C248.87 38.5391 249.012 38.7797 249.157 38.783C249.302 38.7862 249.45 38.6432 249.595 38.6462C249.74 38.6495 249.888 38.3627 250.033 38.366C250.178 38.3696 250.32 38.7014 250.465 38.7019C250.61 38.7019 250.755 38.7406 250.9 38.7439C251.045 38.747 251.19 38.5654 251.335 38.5652C251.48 38.5652 251.625 38.5359 251.771 38.5359C251.915 38.5355 252.057 38.1774 252.202 38.1736C252.347 38.1703 252.496 38.6915 252.641 38.6882C252.785 38.6849 252.93 38.5848 253.075 38.5847C253.22 38.5847 253.366 38.5841 253.511 38.5808C253.656 38.5771 253.795 38.201 253.939 38.197C254.084 38.1938 254.236 38.545 254.381 38.5417C254.526 38.5382 254.665 38.3207 254.812 38.3171C254.96 38.3139 255.106 38.5196 255.254 38.5164C255.402 38.5129 255.541 38.3596 255.686 38.3562C255.831 38.3529 255.979 38.4897 256.124 38.4832C256.269 38.4761 256.402 38.132 256.547 38.1248C256.692 38.1182 256.837 38.1378 256.982 38.1345C257.127 38.1313 257.272 38.18 257.417 38.1736C257.562 38.1671 257.713 38.3627 257.858 38.3562C258.003 38.3494 258.14 38.1117 258.285 38.1052C258.43 38.099 258.581 38.2488 258.726 38.239C258.871 38.2291 259.004 37.9851 259.149 37.9753C259.294 37.9656 259.436 37.9392 259.581 37.9294C259.726 37.9197 259.883 38.1927 260.03 38.1833C260.178 38.1736 260.312 38.0177 260.457 38.0046C260.602 37.9916 260.773 38.4871 260.918 38.4773C261.063 38.4674 261.2 38.3074 261.345 38.2976C261.489 38.2873 261.62 38.0305 261.765 38.0203C261.91 38.0105 262.072 38.2941 262.217 38.2849C262.362 38.2751 262.501 38.1736 262.646 38.1638C262.791 38.1541 262.942 38.2684 263.087 38.2556C263.232 38.2426 263.369 38.1378 263.514 38.1248C263.659 38.1117 263.798 38.0401 263.943 38.0271C264.088 38.0138 264.205 37.6011 264.35 37.5876C264.495 37.5746 264.64 37.5812 264.785 37.5681C264.93 37.5552 265.081 37.6427 265.226 37.6296C265.37 37.6166 265.515 37.6163 265.66 37.6033C265.805 37.5903 265.936 37.4184 266.081 37.405C266.226 37.392 266.409 37.8614 266.554 37.8484C266.699 37.835 266.806 37.3762 266.951 37.3591C267.096 37.3429 267.255 37.5186 267.4 37.5027C267.545 37.4864 267.671 37.2748 267.819 37.2585C267.967 37.2423 268.109 37.2517 268.254 37.2322C268.399 37.2127 268.586 37.6816 268.731 37.6658C268.876 37.6495 269.025 37.6821 269.17 37.6658C269.315 37.6489 269.428 37.3006 269.573 37.281C269.718 37.2615 269.835 36.9719 269.979 36.9519C270.124 36.9324 270.293 37.1899 270.438 37.1707C270.583 37.1511 270.719 37.0818 270.864 37.0623C271.009 37.0427 271.154 37.0427 271.299 37.0232C271.444 37.0036 271.601 37.1209 271.746 37.1013C271.891 37.0812 272.007 36.8113 272.152 36.7917C272.297 36.7722 272.445 36.8112 272.59 36.7917C272.735 36.7722 272.883 36.8015 273.028 36.782C273.173 36.763 273.361 37.1345 273.506 37.115C273.651 37.0954 273.785 36.9881 273.93 36.9685C274.075 36.9487 274.177 36.5577 274.322 36.5349C274.467 36.5126 274.646 36.795 274.791 36.7722C274.936 36.7494 275.047 36.4597 275.192 36.4402C275.337 36.4207 275.485 36.4402 275.63 36.4207C275.775 36.4011 275.888 36.1441 276.033 36.1208C276.178 36.098 276.389 36.6225 276.534 36.5964C276.679 36.5701 276.756 36.0001 276.901 35.9773C277.046 35.9546 277.191 35.9512 277.336 35.9285C277.481 35.9057 277.637 35.9776 277.782 35.9548C277.927 35.932 278.118 36.2673 278.263 36.2449C278.408 36.2221 278.507 35.8469 278.652 35.824C278.797 35.8012 278.971 35.9936 279.116 35.9675C279.261 35.9412 279.378 35.7073 279.52 35.6843C279.662 35.6615 279.838 35.8735 279.983 35.8474C280.128 35.8212 280.251 35.6518 280.396 35.6257C280.541 35.5997 280.689 35.6059 280.831 35.5798C280.973 35.5532 281.084 35.2672 281.226 35.241C281.368 35.2149 281.558 35.5242 281.703 35.4988C281.848 35.4727 281.948 35.1433 282.093 35.1169C282.238 35.0909 282.46 35.6157 282.603 35.5896C282.744 35.5625 282.824 35.0721 282.966 35.0457C283.108 35.0196 283.248 34.9451 283.39 34.9158C283.532 34.8864 283.746 35.3162 283.888 35.2869C284.03 35.2569 284.118 34.8338 284.26 34.8044C284.402 34.7751 284.595 35.0619 284.737 35.033C284.879 35.0036 285.019 34.9344 285.164 34.905C285.309 34.8755 285.406 34.5506 285.551 34.5212C285.696 34.4919 285.852 34.5537 285.994 34.5212C286.136 34.4887 286.276 34.4295 286.421 34.4001C286.566 34.371 286.753 34.6348 286.898 34.6023C287.043 34.5697 287.161 34.3709 287.303 34.3416C287.445 34.3122 287.581 34.2274 287.723 34.198C287.865 34.1687 288.039 34.316 288.184 34.2869C288.329 34.2575 288.465 34.1951 288.61 34.1658C288.755 34.1363 288.832 33.7101 288.975 33.6775C289.117 33.645 289.27 33.6677 289.412 33.6384C289.554 33.6091 289.737 33.7911 289.879 33.7585C290.021 33.726 290.166 33.7002 290.308 33.6677C290.45 33.6352 290.544 33.3222 290.686 33.2859C290.828 33.2501 291.033 33.5594 291.175 33.5242C291.317 33.4884 291.479 33.5533 291.621 33.5242C291.763 33.4949 291.909 33.4688 292.051 33.4363C292.193 33.4037 292.316 33.2501 292.458 33.2175C292.6 33.1847 292.719 33.0258 292.861 32.99C293.004 32.9541 293.211 33.2628 293.354 33.2302C293.495 33.1973 293.603 32.9734 293.745 32.9373C293.887 32.9014 293.999 32.6958 294.141 32.6599C294.283 32.6241 294.445 32.6859 294.587 32.6501C294.729 32.6143 294.815 32.2924 294.957 32.2566C295.099 32.2208 295.245 32.2045 295.387 32.1687C295.529 32.1334 295.739 32.4321 295.881 32.3933C296.023 32.3542 296.162 32.2954 296.302 32.2595C296.441 32.2237 296.567 32.0867 296.709 32.0476C296.851 32.0088 297.016 32.0808 297.158 32.0417C297.3 32.0027 297.442 31.9724 297.584 31.9333C297.726 31.8943 297.919 32.096 298.062 32.0574C298.204 32.0183 298.233 31.4578 298.375 31.4187C298.517 31.3797 298.67 31.3991 298.812 31.3601C298.955 31.321 299.072 31.1678 299.211 31.1287C299.35 31.09 299.578 31.4249 299.717 31.3826C299.856 31.3402 300.001 31.3116 300.144 31.2693C300.286 31.2268 300.357 30.881 300.496 30.8386C300.635 30.7964 300.818 30.9269 300.957 30.8845C301.096 30.8417 301.168 30.5001 301.31 30.4578C301.452 30.4159 301.67 30.7114 301.81 30.6658C301.949 30.6201 302.043 30.3823 302.183 30.3367C302.322 30.2907 302.424 30.086 302.563 30.0437C302.703 30.0017 302.911 30.2267 303.05 30.1843C303.189 30.142 303.336 30.1185 303.476 30.073C303.615 30.0274 303.72 29.8386 303.859 29.7927C303.999 29.7471 304.121 29.6304 304.261 29.5847C304.4 29.5391 304.571 29.6137 304.71 29.5681C304.849 29.5225 304.977 29.4276 305.116 29.3787C305.256 29.3298 305.455 29.5131 305.595 29.4675C305.734 29.4218 305.825 29.1903 305.964 29.1414C306.103 29.0925 306.2 28.8879 306.339 28.8386C306.478 28.7898 306.683 28.9877 306.822 28.9363C306.961 28.8842 307.073 28.7344 307.209 28.6853C307.345 28.6364 307.593 28.9714 307.732 28.9197C307.872 28.8676 307.906 28.4482 308.045 28.3953C308.184 28.3431 308.313 28.2615 308.452 28.2126C308.591 28.1638 308.728 28.1082 308.867 28.0593C309.006 28.0105 309.265 28.3715 309.401 28.3201C309.538 28.268 309.618 28.0016 309.754 27.949C309.89 27.8968 310.002 27.7404 310.139 27.6882C310.275 27.6361 310.406 27.548 310.542 27.4958C310.678 27.4437 310.821 27.3979 310.957 27.3425C311.094 27.2871 311.247 27.2876 311.387 27.2322C311.526 27.1767 311.58 26.854 311.717 26.7986C311.853 26.7436 312.075 26.9544 312.211 26.8992C312.347 26.8438 312.439 26.6323 312.575 26.5769C312.712 26.5215 312.842 26.4461 312.979 26.3875C313.115 26.3288 313.377 26.6619 313.514 26.6033C313.65 26.5446 313.715 26.2635 313.852 26.2048C313.988 26.1462 314.182 26.2635 314.318 26.2048C314.454 26.1454 314.444 25.6349 314.577 25.573C314.711 25.5116 314.961 25.7947 315.098 25.7361C315.234 25.6772 315.317 25.4561 315.45 25.3943C315.584 25.3326 315.794 25.4913 315.931 25.4294C316.067 25.3671 316.101 25.0158 316.237 24.9539C316.374 24.892 316.581 25.0485 316.718 24.9871C316.854 24.9251 317.02 24.9542 317.156 24.8923C317.293 24.8303 317.369 24.6017 317.503 24.5398C317.637 24.4783 317.881 24.7257 318.018 24.6638C318.154 24.6017 318.2 24.2924 318.336 24.2273C318.472 24.1621 318.57 24.0021 318.706 23.9402C318.842 23.8781 318.945 23.7286 319.078 23.6667C319.212 23.6048 319.337 23.5138 319.471 23.4519C319.604 23.3901 319.766 23.4026 319.899 23.3376C320.033 23.2725 320.264 23.4712 320.397 23.406C320.531 23.3407 320.569 23.0122 320.702 22.947C320.836 22.882 321.006 22.9144 321.14 22.8494C321.273 22.7842 321.342 22.5395 321.476 22.4744C321.609 22.4101 321.922 22.8227 322.056 22.7576C322.189 22.6921 322.257 22.4549 322.391 22.3865C322.524 22.318 322.69 22.3338 322.823 22.2654C322.956 22.1963 322.956 21.7799 323.09 21.7146C323.223 21.6494 323.491 21.9363 323.625 21.8679C323.758 21.799 323.747 21.353 323.878 21.2878C324.009 21.2231 324.324 21.6206 324.458 21.5554C324.592 21.4902 324.569 21.0176 324.702 20.949C324.836 20.8806 325.083 21.1117 325.217 21.0437C325.35 20.9753 325.504 20.9623 325.638 20.8972C325.771 20.832 325.874 20.6883 326.008 20.6199C326.141 20.5509 326.099 20.0341 326.229 19.9656C326.36 19.8971 326.679 20.3074 326.812 20.239C326.946 20.1706 327.068 20.0789 327.199 20.0105C327.33 19.9415 327.301 19.4601 327.435 19.3914C327.568 19.323 327.884 19.7299 328.018 19.6658C328.151 19.6006 328.235 19.408 328.368 19.3396C328.502 19.2713 328.644 19.2289 328.774 19.1638C328.905 19.0987 328.888 18.6401 329.021 18.571C329.155 18.5026 329.289 18.4438 329.423 18.3787C329.557 18.3136 329.872 18.7173 330.006 18.6521C330.139 18.5868 330.219 18.3845 330.353 18.3162C330.486 18.2475 330.518 17.9256 330.651 17.8572C330.785 17.7891 331.006 17.9605 331.14 17.8923C331.273 17.8239 331.47 17.9252 331.601 17.8601C331.731 17.7949 331.666 17.2049 331.797 17.1365C331.928 17.0684 332.26 17.5202 332.394 17.4529C332.527 17.3845 332.605 17.1756 332.738 17.1072C332.872 17.0387 332.963 16.8699 333.097 16.8015C333.23 16.733 333.313 16.5408 333.446 16.4724C333.58 16.404 333.813 16.6087 333.946 16.5408C334.08 16.4723 334.174 16.3091 334.308 16.2439C334.441 16.1787 334.675 16.3872 334.809 16.322C334.942 16.2564 334.97 15.9147 335.104 15.8494C335.237 15.7843 335.422 15.8595 335.556 15.7947C335.689 15.7295 335.795 15.589 335.929 15.5271C336.062 15.4653 336.21 15.4428 336.344 15.3777C336.477 15.3125 336.574 15.1489 336.708 15.0837C336.842 15.0191 337.058 15.1879 337.191 15.1228C337.325 15.0568 337.302 14.5599 337.436 14.4978C337.569 14.4359 337.8 14.6437 337.934 14.5818C338.067 14.5196 338.153 14.3184 338.286 14.2566C338.42 14.1952 338.669 14.4642 338.806 14.4031C338.942 14.3412 338.954 13.9308 339.088 13.8689C339.221 13.8069 339.281 13.5297 339.417 13.4675C339.553 13.4056 339.807 13.7022 339.943 13.6404C340.08 13.5785 340.106 13.2039 340.242 13.1453C340.379 13.0869 340.689 13.5496 340.822 13.491C340.956 13.4323 340.93 12.8851 341.066 12.8259C341.203 12.7673 341.488 13.1678 341.624 13.1091C341.76 13.0503 341.809 12.7342 341.945 12.6755C342.082 12.6168 342.193 12.49 342.329 12.4314C342.465 12.3728 342.599 12.3172 342.735 12.2585C342.872 12.1999 342.986 12.076 343.122 12.0173C343.258 11.9587 343.412 11.9593 343.549 11.9041C343.685 11.8487 343.771 11.6235 343.907 11.5681C344.044 11.5127 344.214 11.5675 344.354 11.5154C344.493 11.4633 344.718 11.6984 344.854 11.6462C344.991 11.5937 345.039 11.2455 345.176 11.1902C345.312 11.1352 345.528 11.3426 345.664 11.2878C345.801 11.2325 345.926 11.1382 346.062 11.0828C346.199 11.0274 346.276 10.773 346.415 10.7175C346.554 10.6621 346.668 10.5382 346.808 10.4861C346.947 10.4341 347.171 10.6941 347.311 10.6423C347.45 10.5902 347.516 10.2908 347.655 10.2419C347.795 10.1932 347.956 10.2316 348.096 10.1794C348.235 10.1275 348.443 10.3298 348.579 10.281C348.716 10.2321 348.795 9.96179 348.932 9.91284C349.068 9.86401 349.202 9.7957 349.341 9.74683C349.48 9.69795 349.671 9.84746 349.811 9.79858C349.95 9.74931 349.99 9.33637 350.129 9.29077C350.268 9.24518 350.464 9.41427 350.604 9.3689C350.743 9.32328 350.894 9.32598 351.033 9.2771C351.172 9.22813 351.284 9.07497 351.423 9.02612C351.562 8.9772 351.678 8.8443 351.817 8.79858C351.957 8.75296 352.079 8.63522 352.219 8.5896C352.358 8.54409 352.56 8.74938 352.699 8.70386C352.839 8.65824 352.915 8.36178 353.058 8.31616C353.2 8.27056 353.373 8.37447 353.513 8.32886C353.652 8.2836 353.863 8.53135 354.002 8.48901C354.141 8.44659 354.266 8.33506 354.405 8.29272C354.545 8.25029 354.619 7.9282 354.761 7.88257C354.903 7.83695 355.111 8.0942 355.25 8.04858C355.389 8.00297 355.523 7.93175 355.662 7.8894C355.801 7.84708 355.892 7.58929 356.034 7.54663C356.176 7.50429 356.316 7.47177 356.458 7.42944C356.6 7.3871 356.799 7.61807 356.941 7.57593C357.084 7.53357 357.232 7.54407 357.374 7.50171C357.516 7.45937 357.607 7.20224 357.749 7.16284C357.891 7.12374 358.034 7.09745 358.176 7.05835C358.318 7.01925 358.407 6.72929 358.546 6.69019C358.685 6.65159 358.878 6.85913 359.021 6.82007C359.163 6.78128 359.344 6.94073 359.483 6.9021C359.623 6.86304 359.725 6.63853 359.867 6.60229C360.009 6.56649 360.112 6.3517 360.254 6.31226C360.396 6.27317 360.536 6.23675 360.678 6.20093C360.82 6.16511 361.022 6.44239 361.164 6.40698C361.306 6.37116 361.409 6.13645 361.548 6.10034C361.687 6.06451 361.798 5.86576 361.94 5.82983C362.083 5.79399 362.256 5.93404 362.398 5.89819C362.54 5.86225 362.623 5.52049 362.765 5.48413C362.907 5.4483 363.149 5.96 363.294 5.92456C363.439 5.88872 363.584 5.88488 363.727 5.85229C363.869 5.8193 363.965 5.54598 364.107 5.51343C364.249 5.48076 364.369 5.33159 364.514 5.29565C364.659 5.25984 364.846 5.49667 364.988 5.4646C365.13 5.43201 365.194 4.9464 365.336 4.91382C365.478 4.88175 365.671 5.13876 365.813 5.1062C365.956 5.07361 366.092 5.01182 366.237 4.97925C366.382 4.94632 366.473 4.63356 366.618 4.60425C366.763 4.57529 366.97 4.9425 367.115 4.91382C367.26 4.88449 367.343 4.50011 367.485 4.46753C367.628 4.43507 367.821 4.70213 367.963 4.66968C368.105 4.63709 368.21 4.3826 368.355 4.35327C368.5 4.32392 368.634 4.24587 368.776 4.21655C368.919 4.18742 369.095 4.36012 369.237 4.33081C369.379 4.30191 369.552 4.46049 369.694 4.4314C369.836 4.40209 369.905 3.88823 370.047 3.85815C370.189 3.82885 370.388 4.15437 370.53 4.12573C370.672 4.09641 370.824 4.11274 370.969 4.08667C371.114 4.06036 371.199 3.65627 371.341 3.62671C371.483 3.59738 371.628 3.56522 371.771 3.53589C371.913 3.50668 372.097 3.74722 372.242 3.72144C372.387 3.69537 372.536 3.69868 372.678 3.67261C372.82 3.64667 372.979 3.71819 373.121 3.69214C373.263 3.666 373.363 3.32367 373.508 3.29761C373.653 3.2715 373.781 3.14789 373.926 3.12183C374.071 3.09589 374.279 3.53591 374.424 3.50659C374.569 3.47735 374.714 3.47403 374.858 3.448C375.003 3.42194 375.094 3.01838 375.239 2.99194C375.384 2.96588 375.524 2.91059 375.669 2.88452C375.814 2.85857 375.996 3.11511 376.141 3.09253C376.286 3.06972 376.391 2.7475 376.536 2.72144C376.681 2.69541 376.875 3.04731 377.022 3.02124C377.17 2.99522 377.315 3.01468 377.46 2.99194C377.605 2.96913 377.691 2.4796 377.833 2.45679C377.975 2.43478 378.179 2.86012 378.324 2.83472C378.469 2.80867 378.6 2.68871 378.745 2.66577C378.89 2.64296 379.033 2.59385 379.175 2.57104C379.317 2.54826 379.47 2.58401 379.615 2.56128C379.76 2.53848 379.888 2.3821 380.033 2.35913C380.178 2.33634 380.335 2.41104 380.479 2.38843C380.624 2.36564 380.721 1.93356 380.866 1.90991C381.011 1.88711 381.216 2.3788 381.361 2.3562C381.506 2.33341 381.657 2.37206 381.802 2.34937C381.947 2.32657 382.044 1.88751 382.188 1.86401C382.333 1.8412 382.513 2.12478 382.658 2.10522C382.803 2.08578 382.962 2.20582 383.107 2.18628C383.252 2.16628 383.332 1.54575 383.477 1.52515C383.621 1.50561 383.821 1.99425 383.966 1.97534C384.111 1.95579 384.262 1.97829 384.404 1.95874C384.546 1.93868 384.66 1.57433 384.802 1.55444C384.944 1.5349 385.081 1.40804 385.226 1.38843C385.371 1.36888 385.564 1.82457 385.706 1.80542C385.848 1.78587 385.988 1.69509 386.133 1.67554C386.278 1.65599 386.417 1.59027 386.562 1.57397C386.707 1.55688 386.809 1.0696 386.954 1.05249C387.099 1.03621 387.295 1.55696 387.438 1.54175C387.58 1.52547 387.714 1.35612 387.858 1.3396C388.003 1.32331 388.161 1.44085 388.306 1.42456C388.451 1.40791 388.582 1.20548 388.724 1.18921C388.866 1.17248 389 0.968177 389.142 0.951904C389.284 0.936122 389.451 1.15298 389.596 1.14038C389.741 1.12735 389.883 1.06585 390.028 1.04956C390.173 1.03326 390.296 0.704865 390.44 0.688232C390.585 0.671954 390.77 1.16226 390.915 1.15015C391.06 1.13711 391.2 1.04602 391.345 1.03296C391.49 1.01993 391.618 0.76982 391.763 0.756592C391.908 0.743558 392.073 0.987394 392.218 0.974365C392.363 0.961334 392.488 0.638909 392.633 0.625732C392.778 0.612698 392.949 0.997813 393.094 0.988037C393.239 0.978214 393.378 0.877228 393.522 0.864014C393.667 0.85098 393.816 0.873789 393.961 0.864014C394.106 0.854282 394.256 0.951807 394.401 0.942139C394.546 0.932363 394.683 0.756602 394.828 0.746826C394.973 0.737027 395.104 0.45289 395.249 0.443115C395.394 0.433525 395.562 0.824959 395.707 0.815186C395.852 0.804697 395.968 0.215387 396.113 0.20874C396.258 0.202227 396.412 0.345267 396.557 0.335693C396.702 0.325918 396.85 0.336351 396.995 0.329834C397.14 0.323117 397.279 0.160147 397.424 0.150146C397.569 0.140371 397.717 0.124437 397.862 0.11792C398.007 0.111529 398.158 0.227906 398.303 0.221436C398.448 0.214924 398.598 0.293232 398.743 0.286865C398.888 0.280348 399.034 0.198656 399.179 0.192139C399.324 0.185892 399.483 0.651779 399.628 0.645264C399.773 0.638643 399.91 0.345787 400.055 0.342529C400.199 0.338956 400.341 0.108192 400.483 0.101318C400.626 0.0948013 400.777 0.159593 400.922 0.153076C401.067 0.14695 401.22 0.495527 401.365 0.489014C401.51 0.482473 401.653 0.224694 401.798 0.221436C401.943 0.218323 402.09 0.287191 402.235 0.283936C402.38 0.280667 402.525 0.075393 402.67 0.0749512C402.815 0.0749512 402.963 0.121178 403.108 0.11792C403.253 0.114642 403.398 0.0724116 403.543 0.0690918C403.688 0.0658333 403.836 0.505615 403.981 0.505615C404.126 0.505303 404.271 0.192526 404.416 0.192139C404.561 0.192139 404.709 0.0915527 404.852 0.0915527C404.994 0.0919602 405.141 0.43656 405.286 0.440186C405.431 0.443444 405.577 0.517982 405.722 0.52124C405.867 0.523914 406.017 0.00667828 406.162 0.0065918C406.307 0.0065918 406.455 -0.00249708 406.6 0.000732422Z" fill="url(#paint0_linear_256_3585)"/>
<defs>
<linearGradient id="paint0_linear_256_3585" x1="127.5" y1="104.23" x2="444.421" y2="2617.98" gradientUnits="userSpaceOnUse">
<stop stop-color="#F9F7F3"/>
<stop offset="1" stop-color="#EDEBE7"/>
</linearGradient>
</defs>
</svg>
