<svg width="41" height="53" viewBox="0 0 41 53" fill="none" xmlns="http://www.w3.org/2000/svg">
<path d="M30.0781 9.06278C29.7584 11.9525 29.451 14.3135 29.1559 16.1212C28.8608 17.9288 28.5779 19.6012 28.3074 21.1383C28.7993 21.9499 29.1559 22.7123 29.3649 23.4132C29.574 24.1141 29.5863 25.1717 29.4264 26.5981C29.2666 28.0245 29.0575 29.3895 28.787 30.7053C28.5164 32.6482 28.0369 34.8493 27.3605 37.2841C26.6842 39.7312 26.1432 41.8954 25.7619 43.8014C25.3807 45.6951 24.8028 47.761 24.0281 49.9744C23.9789 50.6139 23.7576 51.1672 23.3518 51.6345C22.946 52.1141 22.4295 52.2739 21.7901 52.1387C21.1137 51.9542 20.5358 51.5976 20.0562 51.0566C19.5766 50.5155 19.3676 49.9007 19.4168 49.2243C20.5481 45.8796 21.372 43.2726 21.8884 41.4158C22.4049 39.559 23.1673 36.3987 24.1634 31.9104C22.5279 34.6648 21.2982 36.1897 20.462 36.4602C19.6258 36.7307 18.4084 36.5463 16.8344 35.9191C15.6539 35.1075 14.5718 34.2222 13.5757 33.2753C12.4936 32.1932 11.9157 30.9266 11.8419 29.4756C11.7804 28.0245 12.1247 26.6227 12.8994 25.27C13.711 23.819 14.7194 22.4541 15.9244 21.1629C17.1172 19.8717 18.224 18.8388 19.22 18.0764C20.3021 17.3509 21.2736 16.982 22.1344 16.9574C22.9951 16.9328 23.8067 17.0803 24.5814 17.4001C25.0733 16.5885 25.393 15.494 25.5283 14.1414C25.6636 12.7887 25.7128 11.3992 25.6636 9.99734C23.1304 10.4523 20.4374 11.0426 17.5845 11.7558C14.7317 12.4813 12.1862 13.256 9.94817 14.0922C7.71014 14.9284 5.68115 15.6662 3.87351 16.2933C3.33245 16.5639 2.7545 16.6008 2.13965 16.3917C1.52481 16.1827 1.02064 15.8507 0.614844 15.3711C0.209047 14.8915 0 14.3381 0 13.711C0.135266 12.715 0.725514 12.1001 1.77075 11.8788C4.48836 10.9319 6.60342 10.231 8.11594 9.776C9.62845 9.32102 12.1247 8.69388 15.5801 7.86999C19.0356 7.0584 22.3557 6.2468 25.5283 5.42291C25.6636 3.65217 25.7251 2.11506 25.7251 0.811593C26.0448 0.270531 26.4506 0 26.9424 0C27.0285 0 27.1515 0.0245936 27.2868 0.0737811C27.9262 0.209047 28.4796 0.713218 28.9837 1.5617C29.4756 2.42248 29.9552 3.39393 30.4102 4.47606C32.1317 4.34079 33.4352 4.20553 34.3452 4.07026C35.2551 3.93499 36.1159 3.86121 36.9275 3.86121C37.4194 3.81203 37.985 3.78743 38.5876 3.76284C39.2024 3.73825 39.6697 3.97189 40.014 4.47606C40.3583 4.98023 40.5551 5.53359 40.6289 6.13613C40.6903 6.75098 40.4567 7.30433 39.9156 7.79621C38.4646 7.93147 36.9275 8.06674 35.3043 8.202C33.6811 8.33727 31.935 8.6078 30.0781 9.0136V9.06278ZM23.3641 21.3473C21.7778 21.9868 20.3513 22.909 19.0847 24.1264C17.8182 25.3438 16.7606 26.7334 15.8999 28.2705C15.3588 28.996 15.2481 29.7584 15.5555 30.5823C15.8753 31.3939 16.4163 31.9841 17.1787 32.353C18.6298 32.7096 19.7611 32.144 20.5727 30.6561C21.5195 28.3074 22.2204 26.3276 22.6754 24.7167C23.1304 23.1058 23.3518 21.9868 23.3518 21.3596L23.3641 21.3473Z" fill="#424242"/>
</svg>
