<svg width="140" height="36" viewBox="0 0 140 36" fill="none" xmlns="http://www.w3.org/2000/svg">
<g clip-path="url(#clip0_256_4459)">
<path d="M17.9536 0.954607C22.5096 0.954607 26.7906 2.72629 30.0114 5.94607C33.2322 9.16584 35.0044 13.4454 35.0044 18C35.0044 22.5546 33.2322 26.8342 30.0114 30.0539C26.7906 33.2737 22.5096 35.0454 17.9536 35.0454C13.3975 35.0454 9.11658 33.2737 5.89577 30.0539C2.67496 26.8342 0.902705 22.5546 0.902705 18C0.902705 13.4454 2.67496 9.16584 5.89577 5.95011C9.11658 2.73034 13.3975 0.958652 17.9536 0.958652M17.9536 0.271011C8.15357 0.271011 0.214844 8.20719 0.214844 18C0.214844 27.7928 8.15762 35.733 17.9536 35.733C27.7495 35.733 35.6923 27.7928 35.6923 18C35.6923 8.20719 27.7495 0.271011 17.9536 0.271011Z" fill="white"/>
<path d="M10.5664 4.61791L9.9707 4.96173L15.1195 13.8769L15.7153 13.5331L10.5664 4.61791Z" fill="white"/>
<path d="M8.93421 8.30831C10.1198 8.30831 11.2446 9 11.8961 9.49348C11.2487 9.98697 10.1238 10.6746 8.93421 10.6746C7.74462 10.6746 6.62381 9.98292 5.97236 9.48944C6.62381 8.99595 7.74867 8.30427 8.93421 8.30427M8.93421 7.62067C6.78566 7.62067 4.9082 9.49348 4.9082 9.49348C4.9082 9.49348 6.77757 11.3663 8.93421 11.3663C11.0909 11.3663 12.9602 9.49348 12.9602 9.49348C12.9602 9.49348 11.0828 7.62067 8.93421 7.62067Z" fill="white"/>
<path d="M16.5245 3.36944C16.6217 4.18652 16.654 5.50921 16.0633 6.54067C15.4725 7.57213 14.3153 8.20315 13.5667 8.52674C13.4656 7.71371 13.4332 6.39101 14.0321 5.35551C14.6228 4.32809 15.776 3.69303 16.5286 3.36944M17.0586 2.44315C17.0586 2.44315 14.5095 3.13888 13.4332 5.01169C12.3569 6.88045 13.0326 9.44899 13.0326 9.44899C13.0326 9.44899 15.5818 8.7573 16.6581 6.88045C17.7344 5.00764 17.0586 2.44315 17.0586 2.44315Z" fill="white"/>
<path d="M13.0692 17.7128H2.77148V18.4005H13.0692V17.7128Z" fill="white"/>
<path d="M7.56695 18.991C7.6681 19.804 7.70047 21.1308 7.10163 22.1622C6.50683 23.1937 5.34151 23.8288 4.58891 24.1483C4.48776 23.3312 4.45539 22.0085 5.05018 20.9771C5.64498 19.9456 6.8103 19.3106 7.5629 18.991M8.09701 18.0688C8.09701 18.0688 5.53573 18.7645 4.45539 20.6373C3.37504 22.5061 4.05481 25.0746 4.05481 25.0746C4.05481 25.0746 6.61608 24.3829 7.69643 22.5061C8.77677 20.6333 8.09701 18.0688 8.09701 18.0688Z" fill="white"/>
<path d="M4.58822 11.8962C5.34082 12.2157 6.50209 12.8467 7.10094 13.8863C7.69574 14.9178 7.66337 16.2445 7.56626 17.0575C6.80961 16.7339 5.64834 16.1029 5.05354 15.0715C4.45874 14.04 4.49111 12.7133 4.59227 11.8962M4.05412 10.9739C4.05412 10.9739 3.3784 13.5425 4.4547 15.4112C5.53504 17.28 8.09631 17.9798 8.09631 17.9798C8.09631 17.9798 8.77608 15.4153 7.69574 13.5425C6.61539 11.6697 4.05412 10.9739 4.05412 10.9739Z" fill="white"/>
<path d="M15.2348 22.1255L10.0859 31.0406L10.6816 31.3845L15.8305 22.4693L15.2348 22.1255Z" fill="white"/>
<path d="M13.5706 27.5218C14.3232 27.8454 15.4764 28.4764 16.0672 29.5079C16.662 30.5393 16.6296 31.8661 16.5284 32.6791C15.7758 32.3555 14.6227 31.7245 14.0319 30.693C13.4412 29.6616 13.4735 28.3389 13.5706 27.5218ZM13.0365 26.5995C13.0365 26.5995 12.3608 29.1681 13.4371 31.0369C14.5134 32.9056 17.0626 33.6054 17.0626 33.6054C17.0626 33.6054 17.7383 31.0409 16.662 29.1681C15.5857 27.2953 13.0365 26.5995 13.0365 26.5995Z" fill="white"/>
<path d="M8.93421 25.3699C10.1238 25.3699 11.2487 26.0616 11.9001 26.5551C11.1961 27.0849 10.0591 27.7362 8.93421 27.7362C7.74867 27.7362 6.62381 27.0445 5.96832 26.551C6.61572 26.0575 7.74057 25.3699 8.93421 25.3699ZM8.93421 24.6823C6.78161 24.6823 4.9082 26.5551 4.9082 26.5551C4.9082 26.5551 6.78566 28.4279 8.93421 28.4279C11.0828 28.4279 12.9602 26.5551 12.9602 26.5551C12.9602 26.5551 11.0868 24.6823 8.93421 24.6823Z" fill="white"/>
<path d="M20.752 22.1195L20.1562 22.4634L25.3051 31.3786L25.9008 31.0347L20.752 22.1195Z" fill="white"/>
<path d="M26.9606 25.3699C28.1502 25.3699 29.275 26.0616 29.9265 26.5551C29.2224 27.0849 28.0854 27.7362 26.9606 27.7362C25.775 27.7362 24.6502 27.0445 23.9987 26.551C24.6502 26.0575 25.775 25.3658 26.9606 25.3658M26.9606 24.6823C24.808 24.6823 22.9346 26.5551 22.9346 26.5551C22.9346 26.5551 24.812 28.4279 26.9606 28.4279C29.1091 28.4279 30.9866 26.5551 30.9866 26.5551C30.9866 26.5551 29.1132 24.6823 26.9606 24.6823Z" fill="white"/>
<path d="M22.3273 27.5218C22.4284 28.3348 22.4608 29.6575 21.862 30.693C21.2712 31.7204 20.118 32.3555 19.3654 32.6791C19.2683 31.862 19.2359 30.5393 19.8267 29.5079C20.4174 28.4764 21.5747 27.8454 22.3232 27.5218M22.8614 26.5995C22.8614 26.5995 20.3122 27.2912 19.2359 29.1681C18.1596 31.0409 18.8354 33.6054 18.8354 33.6054C18.8354 33.6054 21.3845 32.9097 22.4608 31.0369C23.5371 29.1681 22.8614 26.5995 22.8614 26.5995Z" fill="white"/>
<path d="M33.2078 17.7128H22.9102V18.4005H33.2078V17.7128Z" fill="white"/>
<path d="M31.3666 11.8962C31.4678 12.7133 31.5001 14.036 30.9053 15.0674C30.3105 16.0989 29.1452 16.7339 28.3926 17.0535C28.2915 16.2404 28.2591 14.9137 28.8579 13.8822C29.4527 12.8508 30.614 12.2157 31.3707 11.8962M31.9007 10.9739C31.9007 10.9739 29.3394 11.6656 28.2591 13.5425C27.1788 15.4153 27.8585 17.9798 27.8585 17.9798C27.8585 17.9798 30.4198 17.284 31.5001 15.4112C32.5805 13.5425 31.9007 10.9739 31.9007 10.9739Z" fill="white"/>
<path d="M28.3926 18.991C29.1493 19.3146 30.3105 19.9456 30.9053 20.9771C31.5001 22.0085 31.4678 23.3353 31.3666 24.1524C30.614 23.8328 29.4527 23.2018 28.8539 22.1622C28.2591 21.1308 28.2915 19.804 28.3886 18.991M27.8585 18.0688C27.8585 18.0688 27.1788 20.6333 28.2591 22.5061C29.3394 24.3789 31.9007 25.0746 31.9007 25.0746C31.9007 25.0746 32.5764 22.5061 31.5001 20.6373C30.4198 18.7685 27.8585 18.0688 27.8585 18.0688Z" fill="white"/>
<path d="M25.3041 4.73204L20.1553 13.6472L20.751 13.9911L25.8998 5.07586L25.3041 4.73204Z" fill="white"/>
<path d="M19.3692 3.36944C20.1258 3.69303 21.2871 4.32404 21.8819 5.35551C22.4767 6.38697 22.4443 7.71371 22.3432 8.53079C21.5906 8.21124 20.4293 7.58022 19.8305 6.54067C19.2357 5.50921 19.268 4.18247 19.3651 3.36944M18.8351 2.44315C18.8351 2.44315 18.1553 5.00764 19.2357 6.88045C20.316 8.75326 22.8773 9.44899 22.8773 9.44899C22.8773 9.44899 23.553 6.88045 22.4767 5.01169C21.3964 3.14292 18.8351 2.44315 18.8351 2.44315Z" fill="white"/>
<path d="M26.9638 8.30831C28.1412 8.30831 29.2621 9 29.9095 9.49348C29.2621 9.98697 28.1412 10.6787 26.9638 10.6787C25.7863 10.6787 24.6655 9.98697 24.0181 9.49348C24.6655 9 25.7863 8.30831 26.9638 8.30831ZM26.9638 7.62067C24.8233 7.62067 22.958 9.49348 22.958 9.49348C22.958 9.49348 24.8193 11.3663 26.9638 11.3663C29.1083 11.3663 30.9696 9.49348 30.9696 9.49348C30.9696 9.49348 29.1042 7.62067 26.9638 7.62067Z" fill="white"/>
<path d="M12.5071 18.0485C12.6083 17.9798 12.7135 17.911 12.8187 17.8503C12.94 17.7816 13.0614 17.7209 13.1828 17.6643C13.1747 17.6602 13.1626 17.6562 13.1545 17.6481C12.1429 17.0656 11.5765 16.1636 11.2609 15.3991C11.977 15.209 12.7296 15.027 12.7296 15.027C12.7296 15.027 12.5071 14.2706 12.3169 13.5667C12.5395 13.5384 12.7741 13.5182 13.025 13.5182C13.7048 13.5182 14.4736 13.6557 15.214 14.0805C17.2776 15.2697 17.2776 17.6481 17.2776 17.6481C17.2776 17.6481 17.2655 17.6562 17.2452 17.6643C17.4718 17.7613 17.6054 17.8382 17.6215 17.8463L17.9655 18.0445V17.6481C17.9655 17.5348 17.9372 14.8611 15.562 13.4858C14.8094 13.049 13.9557 12.8306 13.0291 12.8306C12.7661 12.8306 12.499 12.8467 12.2279 12.8831L11.451 12.9883L11.6533 13.7447C11.7262 14.0157 11.8031 14.2908 11.8718 14.5294C11.6331 14.5901 11.3539 14.6629 11.0828 14.7357L10.3262 14.938L10.6256 15.662C11.0424 16.6733 11.6898 17.4903 12.5071 18.0485Z" fill="white"/>
<path d="M15.2224 22.4049C15.2224 22.2634 15.2305 22.1299 15.2426 21.9964C15.2345 22.0004 15.2305 22.0045 15.2224 22.0085C14.486 22.4333 13.7172 22.5708 13.0415 22.5708C12.7906 22.5708 12.5559 22.5506 12.3334 22.5222C12.5236 21.8063 12.7421 21.0661 12.7421 21.0661C12.7421 21.0661 11.9773 20.884 11.2773 20.6939C11.5929 19.9294 12.1594 19.0274 13.171 18.4449C13.8588 18.0485 14.5426 17.9151 15.1536 17.9151C16.3715 17.9151 17.2819 18.4409 17.2819 18.4409C17.2819 18.4409 17.2819 18.453 17.2819 18.4733C17.4721 18.3317 17.6056 18.2508 17.6259 18.2386L17.9658 18.0404L17.6259 17.8422C17.5814 17.818 16.5374 17.2234 15.1536 17.2234C14.3241 17.2234 13.5392 17.4337 12.827 17.8463C11.864 18.4004 11.1114 19.2944 10.6421 20.431L10.3467 21.151L11.0993 21.3533C11.3704 21.4261 11.6455 21.4989 11.8883 21.5595C11.8195 21.7982 11.7426 22.0733 11.6738 22.3443L11.4715 23.1007L12.2444 23.2018C12.5114 23.2382 12.7825 23.2544 13.0415 23.2544C13.8345 23.2544 14.575 23.0926 15.2426 22.769C15.2345 22.6476 15.2264 22.5222 15.2264 22.4009L15.2224 22.4049Z" fill="white"/>
<path d="M20.3685 22.6072C20.2471 22.5344 20.1298 22.4616 20.0205 22.3847C20.0205 22.3928 20.0205 22.4009 20.0205 22.4049C20.0205 23.5699 19.5269 24.5124 19.0211 25.1676C18.4991 24.6458 17.965 24.0836 17.965 24.0836C17.965 24.0836 17.4228 24.6539 16.909 25.1676C16.4032 24.5124 15.9095 23.5699 15.9095 22.4009C15.9095 20.0184 17.965 18.8333 17.965 18.8333C17.965 18.8333 17.9772 18.8413 17.9934 18.8494C17.965 18.6148 17.965 18.4652 17.965 18.4409V18.0445L17.6211 18.2387C17.524 18.2953 15.2217 19.6544 15.2217 22.4009C15.2217 23.5133 15.6182 24.6135 16.3627 25.5843L16.8402 26.2031L17.3945 25.649C17.5928 25.4508 17.791 25.2445 17.965 25.0665C18.139 25.2445 18.3373 25.4467 18.5356 25.6449L19.0899 26.1991L19.5673 25.5762C20.2309 24.7106 20.6153 23.7479 20.6922 22.7649C20.583 22.7124 20.4737 22.6557 20.3685 22.5951V22.6072Z" fill="white"/>
<path d="M23.4193 18.0485C23.3182 18.1173 23.217 18.182 23.1118 18.2427C22.9904 18.3115 22.865 18.3762 22.7396 18.4328C22.7476 18.4369 22.7598 18.4409 22.7679 18.449C23.7794 19.0315 24.3459 19.9335 24.6615 20.698C23.9453 20.8881 23.1927 21.0701 23.1927 21.0701C23.1927 21.0701 23.4153 21.8265 23.6054 22.5303C23.3829 22.5587 23.1482 22.5789 22.8974 22.5789C22.2176 22.5789 21.4488 22.4413 20.7083 22.0166C18.6488 20.8274 18.6488 18.449 18.6488 18.449C18.6488 18.449 18.6609 18.4409 18.6852 18.4288C18.4586 18.3317 18.3211 18.2548 18.3049 18.2467L17.965 18.0526H17.9609V18.453C17.9609 18.5663 17.9893 21.24 20.3644 22.6153C21.117 23.0521 21.9708 23.2706 22.8974 23.2706C23.1604 23.2706 23.4274 23.2544 23.6985 23.218L24.4713 23.1128L24.269 22.3564C24.1962 22.0854 24.1193 21.8103 24.0505 21.5676C24.2893 21.507 24.5685 21.4342 24.8396 21.3613L25.5962 21.1591L25.2968 20.4351C24.88 19.4238 24.2326 18.6067 23.4193 18.0485Z" fill="white"/>
<path d="M24.8435 14.7317C24.5724 14.6589 24.2932 14.5861 24.0544 14.5254C24.1232 14.2867 24.2001 14.0117 24.2729 13.7407L24.4752 12.9843L23.6984 12.8831C23.4313 12.8467 23.1602 12.8306 22.9013 12.8306C22.1041 12.8306 21.3637 12.9964 20.692 13.316C20.7001 13.4373 20.7082 13.5587 20.7082 13.68C20.7082 13.8216 20.7001 13.9591 20.688 14.0926C20.6961 14.0885 20.7041 14.0805 20.7122 14.0764C21.4527 13.6517 22.2174 13.5142 22.8972 13.5142C23.1481 13.5142 23.3868 13.5344 23.6053 13.5627C23.4151 14.2787 23.1966 15.0189 23.1966 15.0189C23.1966 15.0189 23.9614 15.2009 24.6654 15.391C24.3498 16.1555 23.7833 17.0575 22.7718 17.64C22.0839 18.0364 21.3961 18.1699 20.7851 18.1699C19.5672 18.1699 18.6527 17.644 18.6527 17.644C18.6527 17.644 18.6527 17.6319 18.6527 17.6076C18.4625 17.7533 18.329 17.8301 18.3088 17.8422L17.9648 18.0405L18.3088 18.2387C18.3533 18.2629 19.3972 18.8575 20.7851 18.8575C21.6146 18.8575 22.3995 18.6472 23.1157 18.2346C24.0787 17.6805 24.8354 16.7865 25.3007 15.6499L25.6001 14.9258L24.8435 14.7236V14.7317Z" fill="white"/>
<path d="M15.5582 13.4899C15.6796 13.5627 15.7969 13.6355 15.9062 13.7124C15.9062 13.7043 15.9062 13.6921 15.9062 13.684C15.9062 12.5191 16.3998 11.5766 16.9056 10.9213C17.4276 11.4431 17.9617 12.0054 17.9617 12.0054C17.9617 12.0054 18.5039 11.4351 19.0178 10.9213C19.5235 11.5766 20.0172 12.5191 20.0172 13.6881C20.0172 16.0706 17.9617 17.2557 17.9617 17.2557C17.9617 17.2557 17.9495 17.2476 17.9334 17.2355C17.9617 17.4742 17.9617 17.6279 17.9617 17.6521V18.0485L18.3056 17.8503C18.4027 17.7937 20.705 16.4346 20.705 13.6881C20.705 12.5757 20.3085 11.4755 19.564 10.5047L19.0865 9.88584L18.5322 10.44C18.3339 10.6382 18.1357 10.8445 17.9617 11.0225C17.7877 10.8445 17.5894 10.6422 17.3912 10.444L16.8368 9.88989L16.3594 10.5088C15.6958 11.3744 15.3073 12.3411 15.2305 13.3281C15.3397 13.3807 15.449 13.4373 15.5542 13.498L15.5582 13.4899Z" fill="white"/>
<path d="M41.1377 31.0247V4.70832H43.7435V31.0247H41.1377ZM43.3105 31.0247V28.5978H50.5331C52.8637 28.5978 54.5146 28.1569 55.4857 27.2751C56.4568 26.3933 56.9423 25.2364 56.9423 23.8005V23.7276C56.9423 22.2067 56.5175 20.9933 55.6678 20.0912C54.818 19.1852 53.4059 18.7321 51.4394 18.7321H43.3105V16.3052H51.4394C53.155 16.3052 54.4417 15.9249 55.3036 15.1645C56.1654 14.404 56.5984 13.2755 56.5984 11.7789C56.5984 10.2822 56.129 9.05663 55.1862 8.28405C54.2435 7.51146 52.8273 7.12719 50.9336 7.12719H43.3105V4.70023H51.5123C54.1059 4.70023 56.04 5.34742 57.3065 6.63775C58.573 7.92809 59.2082 9.65933 59.2082 11.8315C59.2082 13.1097 58.8238 14.307 58.0591 15.4153C57.2943 16.5236 56.0764 17.2315 54.4094 17.5348C56.04 17.7775 57.3024 18.4935 58.2007 19.6867C59.099 20.88 59.5481 22.2512 59.5481 23.7964V23.849C59.5481 25.9969 58.8521 27.7281 57.4643 29.0427C56.0764 30.3573 54.1949 31.0166 51.8157 31.0166H43.3065L43.3105 31.0247Z" fill="white"/>
<path d="M67.3177 4.70832V26.0818C67.3177 26.8787 67.5119 27.4975 67.9044 27.9384C68.2969 28.3793 68.8431 28.5978 69.5431 28.5978H71.283V31.0247H69.1102C67.7223 31.0247 66.642 30.5919 65.8691 29.7223C65.0963 28.8526 64.7119 27.631 64.7119 26.0494V4.70832H67.3177Z" fill="white"/>
<path d="M82.6529 31.2957C80.1887 31.2957 78.2829 30.5798 76.9315 29.1519C75.58 27.724 74.9043 25.7097 74.9043 23.1169V20.0589C74.9043 17.4903 75.58 15.4962 76.9315 14.0845C78.2829 12.6728 80.1887 11.9649 82.6529 11.9649C85.117 11.9649 87.0228 12.6728 88.3742 14.0845C89.7257 15.4962 90.4014 17.4863 90.4014 20.0589V23.1735C90.4014 25.7542 89.7257 27.7564 88.3742 29.1721C87.0228 30.5919 85.117 31.2998 82.6529 31.2998V31.2957ZM82.6326 28.8688C84.2754 28.8688 85.5459 28.3712 86.4442 27.3762C87.3425 26.3811 87.7916 24.9775 87.7916 23.1694V20.0548C87.7916 18.2589 87.3425 16.8634 86.4442 15.8724C85.5459 14.8813 84.2754 14.3879 82.6326 14.3879C80.9898 14.3879 79.7436 14.8813 78.8494 15.8724C77.9552 16.8634 77.5101 18.2548 77.5101 20.0548V23.1694C77.5101 24.9775 77.9552 26.3811 78.8494 27.3762C79.7436 28.3712 81.002 28.8688 82.6326 28.8688Z" fill="white"/>
<path d="M102.856 31.2957C100.392 31.2957 98.486 30.5798 97.1346 29.1519C95.7831 27.724 95.1074 25.7097 95.1074 23.1169V20.0589C95.1074 17.4903 95.7831 15.4962 97.1346 14.0845C98.486 12.6728 100.392 11.9649 102.856 11.9649C105.32 11.9649 107.226 12.6728 108.577 14.0845C109.929 15.4962 110.605 17.4863 110.605 20.0589V23.1735C110.605 25.7542 109.929 27.7564 108.577 29.1721C107.226 30.5919 105.32 31.2998 102.856 31.2998V31.2957ZM102.84 28.8688C104.483 28.8688 105.753 28.3712 106.651 27.3762C107.55 26.3811 107.999 24.9775 107.999 23.1694V20.0548C107.999 18.2589 107.55 16.8634 106.651 15.8724C105.753 14.8813 104.483 14.3879 102.84 14.3879C101.197 14.3879 99.9508 14.8813 99.0566 15.8724C98.1623 16.8634 97.7172 18.2548 97.7172 20.0548V23.1694C97.7172 24.9775 98.1623 26.3811 99.0566 27.3762C99.9508 28.3712 101.209 28.8688 102.84 28.8688Z" fill="white"/>
<path d="M127.408 23.7115L135.865 4.70832H138.6V31.0247H135.995V8.41753L136.266 9.57438L128.335 27.364H126.49L118.559 9.93438L118.83 8.41349V31.0207H116.225V4.70832H118.96L127.417 23.7115H127.408Z" fill="white"/>
</g>
<defs>
<clipPath id="clip0_256_4459">
<rect width="140" height="36" fill="white"/>
</clipPath>
</defs>
</svg>
