<svg width="40" height="40" viewBox="0 0 40 40" fill="none" xmlns="http://www.w3.org/2000/svg">
<circle cx="20" cy="20" r="20" fill="white"/>
<g clip-path="url(#clip0_174_1815)">
<path d="M16.2726 11.0621C15.315 11.1073 14.6608 11.2606 14.0893 11.4846C13.4977 11.7151 12.9962 12.0244 12.4972 12.5253C11.9977 13.0266 11.691 13.529 11.4621 14.1212C11.2405 14.6941 11.0902 15.3486 11.0481 16.3068C11.0059 17.2669 10.9964 17.5731 11.0011 20.0171C11.0058 22.4608 11.0166 22.7675 11.0623 23.7278C11.108 24.6852 11.2608 25.339 11.4847 25.9108C11.7157 26.5025 12.0246 27.0038 12.5257 27.503C13.0266 28.0021 13.5294 28.3086 14.1219 28.5378C14.6943 28.7592 15.349 28.9098 16.3069 28.9518C17.2669 28.9941 17.5734 29.0034 20.0167 28.9987C22.4611 28.9941 22.7677 28.9833 23.7276 28.9377C24.6852 28.892 25.3386 28.7386 25.9108 28.5153C26.5025 28.2838 27.004 27.9754 27.5029 27.4743C28.0019 26.9734 28.3086 26.4706 28.5376 25.8781C28.7592 25.3057 28.91 24.651 28.9516 23.6936C28.9935 22.7331 29.0034 22.4262 28.9987 19.9827C28.9941 17.5389 28.9831 17.2327 28.9375 16.2729C28.892 15.3148 28.7386 14.6612 28.5151 14.0892C28.2838 13.4975 27.9753 12.9966 27.4743 12.4971C26.9734 11.9981 26.4706 11.6908 25.8781 11.4624C25.3053 11.2408 24.651 11.0898 23.6931 11.0484C22.7333 11.0056 22.4269 10.9962 19.9827 11.0009C17.539 11.0056 17.2327 11.016 16.2727 11.0621M16.3777 27.3319C15.5002 27.2938 15.0237 27.148 14.7062 27.0258C14.2857 26.863 13.9857 26.6679 13.6698 26.3545C13.3546 26.0399 13.1589 25.7407 12.9948 25.3212C12.8715 25.0036 12.723 24.5277 12.6819 23.6502C12.6373 22.7016 12.627 22.417 12.6227 20.0139C12.618 17.6114 12.6268 17.3266 12.6682 16.3773C12.7059 15.5005 12.8526 15.0234 12.9744 14.7062C13.1371 14.2852 13.3315 13.9857 13.6456 13.6698C13.9603 13.354 14.2594 13.1589 14.6794 12.9948C14.9967 12.8707 15.4725 12.7235 16.3496 12.6819C17.2987 12.6369 17.5831 12.6274 19.9856 12.6227C22.3886 12.618 22.6734 12.6265 23.6227 12.6682C24.4995 12.7064 24.9766 12.8517 25.2936 12.9744C25.7145 13.1371 26.0145 13.331 26.3301 13.6456C26.6456 13.9603 26.8413 14.2589 27.0054 14.6797C27.1293 14.9962 27.2767 15.4726 27.3181 16.3494C27.3633 17.2986 27.3735 17.5831 27.3778 19.9858C27.3825 22.389 27.3737 22.6735 27.3321 23.6223C27.294 24.4998 27.1483 24.9765 27.0259 25.2943C26.8632 25.7145 26.6686 26.0145 26.3544 26.3304C26.0401 26.6451 25.7409 26.8413 25.3206 27.0054C25.004 27.1291 24.5275 27.2767 23.6509 27.3183C22.7018 27.3629 22.4174 27.3732 20.014 27.3775C17.6116 27.3822 17.3272 27.3732 16.3779 27.3319M23.7145 15.189C23.7156 15.7849 24.2003 16.2675 24.7963 16.2664C25.3926 16.2654 25.8752 15.781 25.8743 15.1848C25.873 14.5888 25.3885 14.1059 24.7921 14.107C24.1958 14.1081 23.7132 14.5928 23.7143 15.1888M15.3789 20.0086C15.3837 22.561 17.4568 24.6256 20.0086 24.6206C22.5607 24.6156 24.6264 22.5432 24.6215 19.9908C24.6165 17.4393 22.5432 15.3736 19.9908 15.3785C17.439 15.3835 15.3738 17.4568 15.3789 20.0086ZM16.9999 20.0054C16.9971 18.3489 18.3379 17.003 19.9941 17.0001C21.6506 16.9969 22.9966 18.3372 22.9999 19.9941C23.0031 21.651 21.6623 22.9965 20.0054 22.9997C18.349 23.0029 17.003 21.6625 16.9999 20.0056" fill="#242424"/>
</g>
<defs>
<clipPath id="clip0_174_1815">
<rect width="18" height="18" fill="white" transform="translate(11 11)"/>
</clipPath>
</defs>
</svg>
