<svg width="56" height="56" viewBox="0 0 56 56" fill="none" xmlns="http://www.w3.org/2000/svg">
<circle cx="28" cy="28" r="28" fill="#747474"/>
<path d="M28.5721 37.4663C27.9571 37.4663 27.4683 36.9775 27.4683 36.3626L27.4683 22.3297L21.4689 28.3291C21.0353 28.7627 20.3415 28.7627 19.9079 28.3291L19.8921 28.3134C19.4585 27.8798 19.4585 27.186 19.8921 26.7524L27.7916 18.853C28.2252 18.4194 28.9189 18.4194 29.3525 18.853L37.252 26.7524C37.6856 27.186 37.6856 27.8798 37.252 28.3134L37.2362 28.3291C36.8026 28.7627 36.1089 28.7627 35.6753 28.3291L29.6758 22.3297L29.6758 36.3626C29.6758 36.9775 29.187 37.4663 28.5721 37.4663Z" fill="white"/>
</svg>
