<svg width="170" height="44" viewBox="0 0 170 44" fill="none" xmlns="http://www.w3.org/2000/svg">
<g clip-path="url(#clip0_256_3851)">
<path d="M21.7997 1.16558C27.332 1.16558 32.5303 3.33098 36.4413 7.26626C40.3523 11.2015 42.5043 16.4321 42.5043 21.9988C42.5043 27.5656 40.3523 32.7961 36.4413 36.7314C32.5303 40.6667 27.332 42.8321 21.7997 42.8321C16.2673 42.8321 11.069 40.6667 7.15803 36.7314C3.24705 32.7961 1.09503 27.5656 1.09503 21.9988C1.09503 16.4321 3.24705 11.2015 7.15803 7.2712C11.069 3.33592 16.2673 1.17053 21.7997 1.17053M21.7997 0.330078C9.89965 0.330078 0.259766 10.0299 0.259766 21.9988C0.259766 33.9678 9.90456 43.6726 21.7997 43.6726C33.6947 43.6726 43.3395 33.9678 43.3395 21.9988C43.3395 10.0299 33.6947 0.330078 21.7997 0.330078Z" fill="#7AB760"/>
<path d="M12.8308 5.64423L12.1074 6.06445L18.3596 16.9608L19.0829 16.5406L12.8308 5.64423Z" fill="#14543D"/>
<path d="M10.8487 10.1529C12.2883 10.1529 13.6542 10.9983 14.4452 11.6015C13.6591 12.2046 12.2932 13.0451 10.8487 13.0451C9.40418 13.0451 8.0432 12.1997 7.25216 11.5965C8.0432 10.9934 9.40909 10.148 10.8487 10.148M10.8487 9.3125C8.23973 9.3125 5.95996 11.6015 5.95996 11.6015C5.95996 11.6015 8.2299 13.8905 10.8487 13.8905C13.4675 13.8905 15.7374 11.6015 15.7374 11.6015C15.7374 11.6015 13.4576 9.3125 10.8487 9.3125Z" fill="#14543D"/>
<path d="M20.0657 4.11846C20.1836 5.11711 20.2229 6.73374 19.5056 7.99442C18.7883 9.25509 17.3831 10.0263 16.4741 10.4218C16.3513 9.42813 16.312 7.8115 17.0391 6.54588C17.7565 5.29015 19.1568 4.51397 20.0706 4.11846M20.7143 2.98633C20.7143 2.98633 17.6189 3.83667 16.312 6.12565C15.005 8.4097 15.8255 11.549 15.8255 11.549C15.8255 11.549 18.9209 10.7036 20.2279 8.4097C21.5348 6.12071 20.7143 2.98633 20.7143 2.98633Z" fill="#14543D"/>
<path d="M15.8696 21.6465H3.36523V22.4869H15.8696V21.6465Z" fill="#7AB760"/>
<path d="M9.18704 23.2112C9.30987 24.2049 9.34918 25.8265 8.62201 27.0871C7.89976 28.3478 6.48473 29.124 5.57086 29.5145C5.44802 28.5159 5.40872 26.8993 6.13097 25.6386C6.85323 24.3779 8.26826 23.6017 9.18213 23.2112M9.83068 22.084C9.83068 22.084 6.72057 22.9343 5.40872 25.2233C4.09687 27.5074 4.9223 30.6467 4.9223 30.6467C4.9223 30.6467 8.03242 29.8013 9.34427 27.5074C10.6561 25.2184 9.83068 22.084 9.83068 22.084Z" fill="#7AB760"/>
<path d="M5.57078 14.5393C6.48466 14.9299 7.89477 15.7011 8.62194 16.9717C9.34419 18.2323 9.30489 19.8539 9.18697 20.8476C8.26818 20.4521 6.85807 19.6809 6.13581 18.4202C5.41356 17.1595 5.45287 15.538 5.5757 14.5393M4.92223 13.4121C4.92223 13.4121 4.10171 16.5514 5.40865 18.8355C6.7205 21.1195 9.83061 21.9748 9.83061 21.9748C9.83061 21.9748 10.656 18.8404 9.34419 16.5514C8.03235 14.2624 4.92223 13.4121 4.92223 13.4121Z" fill="#7AB760"/>
<path d="M18.5002 27.0411L12.248 37.9375L12.9714 38.3577L19.2236 27.4614L18.5002 27.0411Z" fill="#14543D"/>
<path d="M16.48 33.6389C17.3938 34.0344 18.7941 34.8056 19.5115 36.0663C20.2337 37.327 20.1944 38.9486 20.0716 39.9423C19.1577 39.5468 17.7574 38.7755 17.0401 37.5149C16.3227 36.2542 16.362 34.6376 16.48 33.6389ZM15.8314 32.5117C15.8314 32.5117 15.0109 35.651 16.3178 37.9351C17.6248 40.2191 20.7201 41.0744 20.7201 41.0744C20.7201 41.0744 21.5407 37.94 20.2337 35.651C18.9268 33.3621 15.8314 32.5117 15.8314 32.5117Z" fill="#14543D"/>
<path d="M10.8487 31.0065C12.2932 31.0065 13.6591 31.8519 14.4501 32.455C13.5952 33.1026 12.2146 33.8986 10.8487 33.8986C9.40909 33.8986 8.0432 33.0532 7.24724 32.4501C8.03337 31.8469 9.39927 31.0065 10.8487 31.0065ZM10.8487 30.166C8.23482 30.166 5.95996 32.455 5.95996 32.455C5.95996 32.455 8.23973 34.744 10.8487 34.744C13.4576 34.744 15.7374 32.455 15.7374 32.455C15.7374 32.455 13.4626 30.166 10.8487 30.166Z" fill="#14543D"/>
<path d="M25.1989 27.0349L24.4756 27.4551L30.7278 38.3514L31.4511 37.9312L25.1989 27.0349Z" fill="#7AB760"/>
<path d="M32.7374 31.0065C34.1819 31.0065 35.5478 31.8519 36.3388 32.455C35.4839 33.1026 34.1033 33.8986 32.7374 33.8986C31.2978 33.8986 29.9319 33.0532 29.1408 32.4501C29.9319 31.8469 31.2978 31.0015 32.7374 31.0015M32.7374 30.166C30.1235 30.166 27.8486 32.455 27.8486 32.455C27.8486 32.455 30.1284 34.744 32.7374 34.744C35.3463 34.744 37.6261 32.455 37.6261 32.455C37.6261 32.455 35.3512 30.166 32.7374 30.166Z" fill="#7AB760"/>
<path d="M27.1116 33.637C27.2345 34.6307 27.2738 36.2473 26.5466 37.5129C25.8293 38.7686 24.429 39.5448 23.5151 39.9403C23.3972 38.9417 23.3579 37.325 24.0752 36.0644C24.7925 34.8037 26.1977 34.0325 27.1067 33.637M27.7602 32.5098C27.7602 32.5098 24.6648 33.3552 23.3579 35.6491C22.0509 37.9381 22.8714 41.0725 22.8714 41.0725C22.8714 41.0725 25.9668 40.2221 27.2738 37.9331C28.5807 35.6491 27.7602 32.5098 27.7602 32.5098Z" fill="#7AB760"/>
<path d="M40.3227 21.6465H27.8184V22.4869H40.3227V21.6465Z" fill="#14543D"/>
<path d="M38.0874 14.5393C38.2102 15.538 38.2495 17.1546 37.5273 18.4153C36.805 19.6759 35.39 20.4521 34.4761 20.8427C34.3533 19.849 34.314 18.2274 35.0412 16.9667C35.7634 15.706 37.1735 14.9299 38.0923 14.5393M38.736 13.4121C38.736 13.4121 35.6258 14.2575 34.314 16.5514C33.0021 18.8404 33.8276 21.9748 33.8276 21.9748C33.8276 21.9748 36.9377 21.1245 38.2495 18.8355C39.5614 16.5514 38.736 13.4121 38.736 13.4121Z" fill="#14543D"/>
<path d="M34.4761 23.2112C35.3949 23.6067 36.805 24.3779 37.5273 25.6386C38.2495 26.8993 38.2102 28.5208 38.0874 29.5195C37.1735 29.1289 35.7634 28.3577 35.0362 27.0871C34.314 25.8265 34.3533 24.2049 34.4712 23.2112M33.8276 22.084C33.8276 22.084 33.0021 25.2184 34.314 27.5074C35.6258 29.7963 38.736 30.6467 38.736 30.6467C38.736 30.6467 39.5565 27.5074 38.2495 25.2233C36.9377 22.9393 33.8276 22.084 33.8276 22.084Z" fill="#14543D"/>
<path d="M30.7258 5.78529L24.4736 16.6816L25.197 17.1019L31.4492 6.20552L30.7258 5.78529Z" fill="#7AB760"/>
<path d="M23.5191 4.12042C24.4379 4.51592 25.848 5.28716 26.5703 6.54783C27.2925 7.80851 27.2532 9.43008 27.1304 10.4287C26.2165 10.0382 24.8064 9.26693 24.0792 7.99637C23.357 6.7357 23.3963 5.11412 23.5142 4.12042M22.8705 2.98828C22.8705 2.98828 22.0451 6.12266 23.357 8.41165C24.6688 10.7006 27.7789 11.551 27.7789 11.551C27.7789 11.551 28.5994 8.41165 27.2925 6.12761C25.9807 3.84356 22.8705 2.98828 22.8705 2.98828Z" fill="#7AB760"/>
<path d="M32.7431 10.1529C34.1728 10.1529 35.5338 10.9983 36.3199 11.6015C35.5338 12.2046 34.1728 13.05 32.7431 13.05C31.3133 13.05 29.9523 12.2046 29.1662 11.6015C29.9523 10.9983 31.3133 10.1529 32.7431 10.1529ZM32.7431 9.3125C30.1439 9.3125 27.8789 11.6015 27.8789 11.6015C27.8789 11.6015 30.139 13.8905 32.7431 13.8905C35.3471 13.8905 37.6072 11.6015 37.6072 11.6015C37.6072 11.6015 35.3422 9.3125 32.7431 9.3125Z" fill="#7AB760"/>
<path d="M15.1873 22.0592C15.3102 21.9751 15.4379 21.8911 15.5657 21.8169C15.7131 21.7329 15.8605 21.6587 16.0078 21.5895C15.998 21.5846 15.9833 21.5796 15.9735 21.5697C14.7451 20.8578 14.0573 19.7553 13.674 18.821C14.5437 18.5886 15.4576 18.3661 15.4576 18.3661C15.4576 18.3661 15.1873 17.4416 14.9564 16.5814C15.2266 16.5468 15.5116 16.5221 15.8162 16.5221C16.6417 16.5221 17.5752 16.6902 18.4743 17.2093C20.9801 18.6628 20.9801 21.5697 20.9801 21.5697C20.9801 21.5697 20.9654 21.5796 20.9408 21.5895C21.2159 21.7082 21.3781 21.8021 21.3977 21.812L21.8154 22.0542V21.5697C21.8154 21.4313 21.781 18.1634 18.8969 16.4825C17.983 15.9486 16.9463 15.6816 15.8211 15.6816C15.5018 15.6816 15.1775 15.7014 14.8483 15.7459L13.905 15.8745L14.1506 16.7989C14.2391 17.1302 14.3324 17.4664 14.4159 17.758C14.1261 17.8322 13.787 17.9212 13.4578 18.0102L12.5391 18.2574L12.9026 19.1423C13.4087 20.3783 14.1948 21.3769 15.1873 22.0592Z" fill="#F29B76"/>
<path d="M18.483 27.3838C18.483 27.2108 18.4928 27.0476 18.5076 26.8845C18.4978 26.8894 18.4928 26.8944 18.483 26.8993C17.5888 27.4184 16.6553 27.5865 15.8348 27.5865C15.5301 27.5865 15.2452 27.5618 14.9749 27.5272C15.2059 26.6521 15.4712 25.7474 15.4712 25.7474C15.4712 25.7474 14.5426 25.5249 13.6926 25.2926C14.0758 24.3582 14.7637 23.2557 15.992 22.5438C16.8272 22.0593 17.6576 21.8962 18.3995 21.8962C19.8784 21.8962 20.9839 22.5389 20.9839 22.5389C20.9839 22.5389 20.9839 22.5537 20.9839 22.5784C21.2148 22.4054 21.377 22.3065 21.4015 22.2917L21.8142 22.0494L21.4015 21.8072C21.3475 21.7775 20.0798 21.0508 18.3995 21.0508C17.3923 21.0508 16.4391 21.3079 15.5744 21.8121C14.405 22.4894 13.4911 23.582 12.9212 24.9712L12.5625 25.8512L13.4764 26.0984C13.8056 26.1874 14.1397 26.2764 14.4345 26.3506C14.3509 26.6422 14.2576 26.9784 14.1741 27.3097L13.9284 28.2342L14.8668 28.3577C15.1911 28.4022 15.5203 28.422 15.8348 28.422C16.7978 28.422 17.6969 28.2243 18.5076 27.8288C18.4978 27.6804 18.4879 27.5272 18.4879 27.3789L18.483 27.3838Z" fill="#FFF799"/>
<path d="M24.7341 27.6294C24.5867 27.5404 24.4442 27.4514 24.3115 27.3575C24.3115 27.3673 24.3115 27.3772 24.3115 27.3822C24.3115 28.806 23.7121 29.9579 23.098 30.7588C22.4641 30.121 21.8156 29.4339 21.8156 29.4339C21.8156 29.4339 21.1572 30.1309 20.5332 30.7588C19.9191 29.9579 19.3196 28.806 19.3196 27.3772C19.3196 24.4653 21.8156 23.0168 21.8156 23.0168C21.8156 23.0168 21.8303 23.0267 21.85 23.0366C21.8156 22.7498 21.8156 22.5669 21.8156 22.5372V22.0527L21.398 22.29C21.28 22.3593 18.4844 24.0204 18.4844 27.3772C18.4844 28.7368 18.9659 30.0815 19.8699 31.268L20.4497 32.0244L21.1228 31.3471C21.3636 31.1049 21.6043 30.8527 21.8156 30.6352C22.0269 30.8527 22.2676 31.0999 22.5084 31.3422L23.1815 32.0195L23.7613 31.2581C24.567 30.2001 25.0338 29.0235 25.1271 27.8222C24.9945 27.7579 24.8618 27.6887 24.7341 27.6145V27.6294Z" fill="#89C997"/>
<path d="M28.4376 22.0566C28.3148 22.1407 28.1919 22.2198 28.0642 22.2939C27.9168 22.378 27.7645 22.4571 27.6122 22.5263C27.622 22.5312 27.6367 22.5362 27.6466 22.5461C28.8749 23.258 29.5628 24.3605 29.946 25.2948C29.0763 25.5272 28.1625 25.7497 28.1625 25.7497C28.1625 25.7497 28.4327 26.6742 28.6636 27.5344C28.3934 27.569 28.1084 27.5937 27.8038 27.5937C26.9784 27.5937 26.0448 27.4256 25.1457 26.9065C22.6448 25.453 22.6448 22.5461 22.6448 22.5461C22.6448 22.5461 22.6596 22.5362 22.6891 22.5214C22.4139 22.4027 22.2469 22.3088 22.2272 22.2989L21.8145 22.0616H21.8096V22.551C21.8096 22.6894 21.844 25.9573 24.7281 27.6382C25.6419 28.1721 26.6786 28.4391 27.8038 28.4391C28.1232 28.4391 28.4474 28.4193 28.7766 28.3748L29.7151 28.2463L29.4694 27.3218C29.381 26.9906 29.2876 26.6544 29.2041 26.3578C29.494 26.2836 29.833 26.1946 30.1622 26.1056L31.081 25.8584L30.7174 24.9735C30.2113 23.7375 29.4252 22.7389 28.4376 22.0566Z" fill="#88ABDA"/>
<path d="M30.1671 18.0052C29.8379 17.9162 29.4988 17.8273 29.209 17.7531C29.2925 17.4614 29.3858 17.1252 29.4743 16.794L29.7199 15.8695L28.7766 15.7459C28.4523 15.7014 28.1231 15.6816 27.8087 15.6816C26.8408 15.6816 25.9416 15.8843 25.126 16.2749C25.1358 16.4232 25.1457 16.5715 25.1457 16.7198C25.1457 16.8929 25.1358 17.061 25.1211 17.2241C25.1309 17.2192 25.1408 17.2093 25.1506 17.2043C26.0497 16.6852 26.9783 16.5171 27.8038 16.5171C28.1084 16.5171 28.3983 16.5419 28.6636 16.5765C28.4327 17.4515 28.1673 18.3562 28.1673 18.3562C28.1673 18.3562 29.096 18.5787 29.9509 18.8111C29.5676 19.7455 28.8798 20.8479 27.6514 21.5598C26.8162 22.0443 25.9809 22.2075 25.239 22.2075C23.7601 22.2075 22.6497 21.5648 22.6497 21.5648C22.6497 21.5648 22.6497 21.55 22.6497 21.5203C22.4188 21.6983 22.2566 21.7922 22.2321 21.807L21.8145 22.0493L22.2321 22.2915C22.2861 22.3212 23.5538 23.0479 25.239 23.0479C26.2462 23.0479 27.1994 22.7909 28.0691 22.2866C29.2384 21.6093 30.1572 20.5167 30.7223 19.1275L31.0858 18.2425L30.1671 17.9953V18.0052Z" fill="#AA89BD"/>
<path d="M18.8921 16.4889C19.0395 16.5779 19.182 16.6669 19.3147 16.7608C19.3147 16.751 19.3147 16.7361 19.3147 16.7262C19.3147 15.3024 19.9141 14.1505 20.5282 13.3496C21.1621 13.9874 21.8106 14.6745 21.8106 14.6745C21.8106 14.6745 22.469 13.9775 23.093 13.3496C23.7071 14.1505 24.3066 15.3024 24.3066 16.7312C24.3066 19.6431 21.8106 21.0916 21.8106 21.0916C21.8106 21.0916 21.7959 21.0817 21.7762 21.0669C21.8106 21.3586 21.8106 21.5465 21.8106 21.5761V22.0606L22.2282 21.8184C22.3462 21.7492 25.1418 20.088 25.1418 16.7312C25.1418 15.3716 24.6603 14.0269 23.7563 12.8404L23.1765 12.084L22.5034 12.7613C22.2626 13.0035 22.0219 13.2557 21.8106 13.4732C21.5993 13.2557 21.3586 13.0085 21.1178 12.7662L20.4447 12.0889L19.865 12.8453C19.0592 13.9033 18.5875 15.0849 18.4941 16.2912C18.6268 16.3554 18.7595 16.4247 18.8872 16.4988L18.8921 16.4889Z" fill="#F29C9F"/>
<path d="M49.9531 37.9205V5.75598H53.1173V37.9205H49.9531ZM52.5916 37.9205V34.9542H61.3618C64.1919 34.9542 66.1965 34.4153 67.3757 33.3376C68.5549 32.2598 69.1445 30.8459 69.1445 29.0908V29.0018C69.1445 27.1429 68.6286 25.6598 67.5968 24.5573C66.565 23.4499 64.8502 22.8962 62.4624 22.8962H52.5916V19.9299H62.4624C64.5456 19.9299 66.108 19.4652 67.1546 18.5358C68.2011 17.6063 68.7268 16.227 68.7268 14.3978C68.7268 12.5686 68.1569 11.0706 67.0121 10.1263C65.8673 9.18205 64.1476 8.71239 61.8482 8.71239H52.5916V5.74609H62.5508C65.7002 5.74609 68.0488 6.5371 69.5867 8.11418C71.1245 9.69126 71.8959 11.8072 71.8959 14.462C71.8959 16.0243 71.4291 17.4877 70.5005 18.8423C69.5719 20.1969 68.093 21.062 66.0687 21.4328C68.0488 21.7295 69.5817 22.6045 70.6725 24.0629C71.7632 25.5214 72.3086 27.1973 72.3086 29.0859V29.1501C72.3086 31.7753 71.4635 33.8913 69.7783 35.498C68.093 37.1047 65.8083 37.9106 62.9193 37.9106H52.5867L52.5916 37.9205Z" fill="#F29C9F"/>
<path d="M81.7423 5.75586V31.879C81.7423 32.8529 81.9781 33.6093 82.4547 34.1482C82.9313 34.6871 83.5946 34.9541 84.4446 34.9541H86.5573V37.9204H83.9189C82.2336 37.9204 80.9218 37.3914 79.9833 36.3284C79.0449 35.2655 78.5781 33.7725 78.5781 31.8395V5.75586H81.7423Z" fill="#F29C9F"/>
<path d="M100.363 38.2496C97.3709 38.2496 95.0567 37.3745 93.4157 35.6293C91.7746 33.8842 90.9541 31.4221 90.9541 28.2532V24.5156C90.9541 21.3763 91.7746 18.939 93.4157 17.2136C95.0567 15.4882 97.3709 14.623 100.363 14.623C103.355 14.623 105.669 15.4882 107.31 17.2136C108.952 18.939 109.772 21.3714 109.772 24.5156V28.3224C109.772 31.4765 108.952 33.9237 107.31 35.6541C105.669 37.3893 103.355 38.2545 100.363 38.2545V38.2496ZM100.338 35.2833C102.333 35.2833 103.876 34.6752 104.967 33.459C106.058 32.2428 106.603 30.5273 106.603 28.3174V24.5107C106.603 22.3156 106.058 20.61 104.967 19.3988C103.876 18.1875 102.333 17.5844 100.338 17.5844C98.3437 17.5844 96.8304 18.1875 95.7446 19.3988C94.6587 20.61 94.1183 22.3107 94.1183 24.5107V28.3174C94.1183 30.5273 94.6587 32.2428 95.7446 33.459C96.8304 34.6752 98.3584 35.2833 100.338 35.2833Z" fill="#F29C9F"/>
<path d="M124.896 38.2515C121.904 38.2515 119.59 37.3765 117.949 35.6313C116.308 33.8861 115.487 31.4241 115.487 28.2551V24.5176C115.487 21.3783 116.308 18.941 117.949 17.2156C119.59 15.4902 121.904 14.625 124.896 14.625C127.888 14.625 130.203 15.4902 131.844 17.2156C133.485 18.941 134.305 21.3733 134.305 24.5176V28.3243C134.305 31.4785 133.485 33.9257 131.844 35.656C130.203 37.3913 127.888 38.2565 124.896 38.2565V38.2515ZM124.877 35.2852C126.871 35.2852 128.414 34.6771 129.505 33.461C130.596 32.2448 131.141 30.5293 131.141 28.3194V24.5126C131.141 22.3176 130.596 20.612 129.505 19.4007C128.414 18.1895 126.871 17.5863 124.877 17.5863C122.882 17.5863 121.369 18.1895 120.283 19.4007C119.197 20.612 118.656 22.3126 118.656 24.5126V28.3194C118.656 30.5293 119.197 32.2448 120.283 33.461C121.369 34.6771 122.897 35.2852 124.877 35.2852Z" fill="#F29C9F"/>
<path d="M154.71 28.9819L164.979 5.75586H168.3V37.9204H165.136V10.2893L165.465 11.7033L155.835 33.4462H153.595L143.965 12.1433L144.294 10.2844V37.9154H141.13V5.75586H144.451L154.72 28.9819H154.71Z" fill="#F29C9F"/>
</g>
<defs>
<clipPath id="clip0_256_3851">
<rect width="170" height="44" fill="white"/>
</clipPath>
</defs>
</svg>
