<svg width="40" height="40" viewBox="0 0 40 40" fill="none" xmlns="http://www.w3.org/2000/svg">
<circle cx="20" cy="20" r="20" fill="white"/>
<g clip-path="url(#clip0_323_2362)">
<path d="M16.2726 11.0623C15.315 11.1075 14.6608 11.2608 14.0893 11.4848C13.4977 11.7153 12.9962 12.0246 12.4972 12.5255C11.9977 13.0268 11.691 13.5292 11.4621 14.1214C11.2405 14.6943 11.0902 15.3488 11.0481 16.307C11.0059 17.2671 10.9964 17.5733 11.0011 20.0173C11.0058 22.461 11.0166 22.7677 11.0623 23.728C11.108 24.6854 11.2608 25.3392 11.4847 25.911C11.7157 26.5027 12.0246 27.004 12.5257 27.5031C13.0266 28.0023 13.5294 28.3088 14.1219 28.538C14.6943 28.7594 15.349 28.91 16.3069 28.952C17.2669 28.9943 17.5734 29.0036 20.0167 28.9989C22.4611 28.9943 22.7677 28.9835 23.7276 28.9379C24.6852 28.8922 25.3386 28.7388 25.9108 28.5155C26.5025 28.284 27.004 27.9756 27.5029 27.4745C28.0019 26.9736 28.3086 26.4708 28.5376 25.8783C28.7592 25.3059 28.91 24.6512 28.9516 23.6938C28.9935 22.7333 29.0034 22.4264 28.9987 19.9829C28.9941 17.5391 28.9831 17.2329 28.9375 16.2731C28.892 15.315 28.7386 14.6614 28.5151 14.0894C28.2838 13.4977 27.9753 12.9968 27.4743 12.4973C26.9734 11.9983 26.4706 11.691 25.8781 11.4626C25.3053 11.241 24.651 11.09 23.6931 11.0486C22.7333 11.0058 22.4269 10.9964 19.9827 11.0011C17.539 11.0058 17.2327 11.0162 16.2727 11.0623M16.3777 27.3321C15.5002 27.294 15.0237 27.1482 14.7062 27.026C14.2857 26.8632 13.9857 26.6681 13.6698 26.3547C13.3546 26.0401 13.1589 25.7409 12.9948 25.3214C12.8715 25.0038 12.723 24.5279 12.6819 23.6504C12.6373 22.7018 12.627 22.4172 12.6227 20.0141C12.618 17.6116 12.6268 17.3268 12.6682 16.3775C12.7059 15.5007 12.8526 15.0236 12.9744 14.7064C13.1371 14.2854 13.3315 13.9859 13.6456 13.67C13.9603 13.3542 14.2594 13.1591 14.6794 12.995C14.9967 12.8709 15.4725 12.7237 16.3496 12.6821C17.2987 12.6371 17.5831 12.6276 19.9856 12.6229C22.3886 12.6182 22.6734 12.6267 23.6227 12.6684C24.4995 12.7066 24.9766 12.8519 25.2936 12.9746C25.7145 13.1373 26.0145 13.3312 26.3301 13.6458C26.6456 13.9605 26.8413 14.2591 27.0054 14.6799C27.1293 14.9964 27.2767 15.4728 27.3181 16.3496C27.3633 17.2988 27.3735 17.5833 27.3778 19.986C27.3825 22.3892 27.3737 22.6737 27.3321 23.6225C27.294 24.5 27.1483 24.9767 27.0259 25.2945C26.8632 25.7147 26.6686 26.0147 26.3544 26.3306C26.0401 26.6453 25.7409 26.8415 25.3206 27.0056C25.004 27.1293 24.5275 27.2769 23.6509 27.3185C22.7018 27.3631 22.4174 27.3734 20.014 27.3777C17.6116 27.3824 17.3272 27.3734 16.3779 27.3321M23.7145 15.1892C23.7156 15.7851 24.2003 16.2677 24.7963 16.2666C25.3926 16.2656 25.8752 15.7812 25.8743 15.185C25.873 14.589 25.3885 14.1061 24.7921 14.1072C24.1958 14.1083 23.7132 14.593 23.7143 15.189M15.3789 20.0088C15.3837 22.5612 17.4568 24.6258 20.0086 24.6208C22.5607 24.6158 24.6264 22.5434 24.6215 19.991C24.6165 17.4395 22.5432 15.3738 19.9908 15.3787C17.439 15.3837 15.3738 17.457 15.3789 20.0088ZM16.9999 20.0056C16.9971 18.3491 18.3379 17.0032 19.9941 17.0003C21.6506 16.9971 22.9966 18.3374 22.9999 19.9943C23.0031 21.6512 21.6623 22.9967 20.0054 22.9999C18.349 23.0031 17.003 21.6627 16.9999 20.0058" fill="#242424"/>
</g>
<defs>
<clipPath id="clip0_323_2362">
<rect width="18" height="18" fill="white" transform="translate(11 11)"/>
</clipPath>
</defs>
</svg>
