<svg width="53" height="31" viewBox="0 0 53 31" fill="none" xmlns="http://www.w3.org/2000/svg">
<path d="M9.90436 16.7904C11.4551 17.6973 13.0616 18.6269 14.7239 19.5792C16.3861 20.5314 20.6989 22.81 22.1533 23.6036C22.3206 23.8417 22.3257 24.1364 22.1686 24.4935C22.0114 24.8506 21.6314 24.9696 21.0334 24.8563C20.4708 24.6976 19.7106 24.3121 18.7528 23.7056C17.7899 23.0991 13.9688 21.0983 12.793 20.5088C11.6173 19.9193 10.6189 19.4998 9.79793 19.2334C9.72192 19.5338 9.65097 20.3444 9.58508 21.6707C9.5192 22.9971 9.44825 25.8709 9.41278 28.1268C9.44825 28.5179 9.45839 28.9317 9.43812 29.3738C9.2354 30.3714 8.72862 30.6321 7.9279 30.1617C7.6289 29.7082 7.49713 29.2321 7.53767 28.7276C7.61369 27.8264 7.68464 26.0579 7.70998 25.5988C7.73532 25.1397 7.76573 24.5388 7.79613 23.7963C7.82147 23.0538 7.85188 22.2772 7.88229 21.461C7.9127 20.6448 7.89749 19.9816 7.84175 19.4658C6.94474 20.6051 5.81967 22.1355 4.46656 24.0514C3.11344 25.9672 0.913998 29.3001 0.761962 29.4702C0.609927 29.6402 0.290652 29.6345 -0.205997 29.4588C-0.702646 29.2831 -0.874953 28.8467 -0.722917 28.1438C-0.332693 27.6507 2.0492 24.0911 3.5138 22.0392C4.97841 19.9873 6.50383 17.7087 8.09514 15.1977L8.12554 15.0106C8.16102 14.7782 8.20156 14.5855 8.23704 14.4381C6.33153 15.141 4.948 15.7418 4.09154 16.2463C3.23507 16.7508 2.55091 17.2666 2.04413 17.8107C1.72485 18.1111 1.25861 18.0431 0.645402 17.618C0.493366 17.3006 0.407213 16.9548 0.376806 16.5921C0.346399 16.2293 0.447756 15.9572 0.670741 15.7702C0.969744 15.5548 1.75019 15.141 3.00702 14.5232C4.26891 13.9053 6.04773 13.2081 8.34346 12.4259C8.39921 11.4227 8.43468 10.5554 8.45496 9.82424C8.47523 9.09304 8.46509 8.37885 8.42455 7.67033C8.14582 7.71567 7.69478 7.86871 7.08157 8.12945C6.46836 8.39019 5.69805 8.73595 4.78583 9.16673C4.16756 9.46714 3.64557 9.24608 3.21987 8.48655C3.0881 7.76669 3.36177 7.28489 4.03072 7.04116C5.33823 6.5537 6.3366 6.1966 7.02582 5.97554C7.71505 5.74881 8.18129 5.54476 8.42455 5.35771C8.42455 4.71153 8.39414 4.15605 8.32826 3.67993C8.26238 3.20947 8.23197 2.80136 8.23197 2.4726C8.15595 2.2062 8.26238 2.01348 8.54111 1.88311C8.6526 1.8321 8.76409 1.80376 8.87559 1.79242C9.02255 1.78108 9.16445 1.79809 9.29622 1.8491C9.76246 2.16085 10.0159 2.67099 10.0513 3.37951C10.1273 3.72527 10.1983 4.26375 10.2743 4.98361C10.852 4.80789 11.4247 4.63785 11.9974 4.46213C12.565 4.28642 13.0312 4.18439 13.386 4.15605C13.609 4.0937 13.8522 4.11638 14.1157 4.2184C14.3793 4.32043 14.5414 4.54149 14.6073 4.88158C14.6732 5.22167 14.7036 5.54476 14.7036 5.85651C14.3691 6.05489 13.9789 6.18526 13.5431 6.25328C13.1022 6.3213 12.7272 6.38932 12.4079 6.45734C12.0886 6.52535 11.3538 6.77476 10.1932 7.21121C10.1172 7.84037 10.0767 8.5659 10.0665 9.37645C10.0564 10.187 10.0665 11.0089 10.1071 11.8421C11.0244 11.5757 12.0785 11.298 13.2745 11.0089C13.462 10.9749 13.6394 10.9239 13.8066 10.8672C14.8354 10.6348 15.8591 10.3797 16.8879 10.102C17.2629 10.0056 17.6328 10.153 18.0079 10.5384C18.2866 11.2243 18.1852 11.7854 17.6987 12.2219C17.2325 12.2446 16.7257 12.2729 16.1885 12.3182C15.256 12.4826 14.3489 12.6697 13.4721 12.8794C12.5954 13.0891 11.445 13.4235 10.026 13.877C9.94997 14.3815 9.90436 14.8859 9.88409 15.3904C9.86382 15.8892 9.87395 16.3597 9.9145 16.7961L9.90436 16.7904Z" fill="#F88388"/>
<path d="M29.2333 17.3571C28.8228 17.5385 28.3718 17.3571 27.8904 16.8187C27.5153 16.2292 27.6572 15.7644 28.311 15.4413C29.056 15.0218 30.029 14.5741 31.225 14.0979C32.421 13.6218 34.0833 12.987 36.2118 12.2048C36.3233 11.927 36.3131 11.6663 36.1864 11.4282C35.5682 11.6266 34.9499 11.757 34.3215 11.8193C33.6981 11.8817 33.0748 11.8363 32.4565 11.6833C31.671 11.5869 31.1845 11.1278 31.002 10.3116C30.9108 9.9885 30.9564 9.65974 31.1439 9.33099C31.4074 9.14394 31.6862 9.09859 31.9852 9.19495C32.6389 9.65974 33.3586 9.89781 34.1441 9.90347C34.9296 9.90914 35.7303 9.84679 36.5513 9.71075C36.7591 8.23703 36.8858 6.72362 36.9415 5.18187C35.781 5.44828 34.6559 5.85639 33.5511 6.4062C33.0849 6.59325 32.6744 6.5139 32.3197 6.16814C31.9649 5.84505 31.7723 5.49929 31.747 5.12519C31.7217 4.75109 31.9953 4.46201 32.5731 4.24096C33.617 3.92354 34.4938 3.67414 35.1931 3.50409C35.8925 3.32838 36.4956 3.13566 36.9973 2.92594C37.0176 1.65626 37.0277 0.874054 37.0277 0.579308C37.1189 0.216544 37.2963 0.0238256 37.5598 0.00115285C37.8031 -0.0215199 38.1781 0.29023 38.6798 0.936403C38.771 1.51456 38.8217 2.01903 38.8217 2.45548C39.1004 2.37045 39.4653 2.28543 39.9113 2.20608C40.3623 2.12672 40.8995 2.03603 41.5381 1.93967C41.8574 1.87165 42.1564 1.89433 42.4452 2.00202C42.7341 2.11539 42.9216 2.33645 43.0078 2.67087C43.0939 3.00529 43.1497 3.35105 43.1902 3.70248C42.1614 3.85552 41.3962 3.98022 40.8945 4.08791C40.3877 4.19561 39.6985 4.36566 38.8217 4.60939C38.5227 7.17708 38.2693 9.5067 38.0666 11.6096C38.3099 11.3999 38.8673 10.6743 39.7339 9.43868C40.6005 8.19735 41.3252 7.09772 41.903 6.12846C42.0347 5.84505 42.1564 5.658 42.2831 5.56731C42.4047 5.47662 42.5871 5.47095 42.8304 5.55031C43.1497 5.70901 43.3726 5.96975 43.5044 6.32118C43.6362 6.67261 43.6615 7.0297 43.5906 7.39247C43.2003 7.84025 42.6834 8.5091 42.0499 9.399C41.8067 9.75043 41.5381 10.1415 41.2391 10.561C43.2916 9.94882 44.7106 9.58605 45.4961 9.47836C45.7596 9.39334 46.0029 9.399 46.2258 9.49536C46.4488 9.59172 46.5806 9.79578 46.6161 10.1019C46.6515 10.578 46.5046 10.9634 46.1701 11.2638C45.0096 11.4906 43.8592 11.7513 42.7088 12.0574C41.5583 12.3635 40.5296 12.6922 39.6123 13.038C38.6798 14.1603 38.0717 15.0105 37.7929 15.6C37.9804 16.0648 38.8572 16.7676 40.4282 17.7199C41.9993 18.6665 43.55 19.4657 45.0906 20.1005C46.6313 20.7354 51.0606 22.4075 51.8613 22.6059C52.3833 22.7929 52.6468 23.133 52.6468 23.6318C52.5556 24.4537 52.1806 24.7768 51.5268 24.6011C51.0048 24.3743 50.4169 24.1136 49.7632 23.8472C48.9473 23.5185 46.0383 22.3735 43.9706 21.5516C42.9317 21.1378 41.8472 20.605 40.707 19.9702C39.5667 19.341 38.5126 18.7402 37.5395 18.179C37.4281 18.9386 37.352 20.2933 37.3166 22.2431C37.2811 24.193 37.3064 26.7947 37.4737 27.9453C37.4534 28.155 37.4281 28.3704 37.3875 28.5915C37.347 28.8125 37.2101 28.9542 36.9669 29.0166C36.3131 29.1356 35.8824 28.9429 35.6796 28.4384C35.6036 27.968 35.6036 27.4635 35.6796 26.9364C35.6594 24.7088 35.6898 22.0164 35.6898 20.9508C35.6898 19.8851 35.7557 18.9159 35.8874 18.0317C34.7472 19.4204 33.6221 20.8034 32.5122 22.1751C31.4024 23.5525 29.5121 26.738 28.838 27.917C28.5593 28.5235 28.1488 28.6935 27.6066 28.4271C27.0998 28.0757 26.9781 27.6052 27.2417 27.0214C27.5407 26.4319 27.865 25.9161 28.2198 25.4683C30.2723 22.7929 32.8467 18.8025 33.9515 17.3118C35.0512 15.8211 35.7709 14.7611 36.1104 14.1263C35.7911 14.1943 35.4668 14.285 35.1323 14.3983C34.514 14.6194 33.8603 14.8801 33.1711 15.1919C32.1271 15.6567 31.3213 16.0705 30.7638 16.4446C30.2064 16.813 29.6996 17.1134 29.2536 17.3401L29.2333 17.3571Z" fill="#F88388"/>
</svg>
