<svg width="84" height="33" viewBox="0 0 84 33" fill="none" xmlns="http://www.w3.org/2000/svg">
<path d="M9.31978 29.6943C10.1965 29.8303 10.8604 29.9267 11.3064 29.9947C11.4533 29.6886 11.5598 29.0027 11.6155 27.9371C11.6713 26.8715 11.727 25.4488 11.7827 23.6747C11.4837 23.8674 11.1087 24.1054 10.5665 24.4455C10.0242 24.7856 9.16774 25.3808 8.31634 25.8682C7.46494 26.3557 6.95815 26.6675 5.85843 27.0756C5.07291 27.1039 4.61681 26.5484 4.48505 25.4148C4.87527 25.2787 5.22496 25.1824 5.5341 25.12C5.84324 25.0634 6.32468 24.8706 6.97844 24.5419C6.99871 23.3119 6.99871 22.4673 6.97844 22.0139L6.5882 22.2349L6.27907 22.4163C5.94459 22.6544 5.59491 22.6204 5.23002 22.32C4.86514 22.0195 4.72831 21.5831 4.8246 21.0106C5.49862 20.7272 6.19798 20.3418 6.92268 19.8656C7.03417 19.0041 7.05445 17.9725 6.97844 16.7708C6.28921 17.0769 5.75707 17.4 5.38205 17.7344C5.00703 18.0688 4.58134 18.3522 4.09483 18.5789C3.8161 20.9369 3.6083 22.9208 3.48161 24.5362C3.38532 25.6472 3.32958 26.5881 3.31438 27.359C3.29411 29.1728 3.35999 30.3234 3.51203 30.8109C3.56778 30.9753 3.59817 31.185 3.6083 31.4457C3.61844 31.7065 3.46135 31.9105 3.14714 32.0636C2.54914 32.262 2.14878 32.0522 1.94099 31.4457C1.84471 31.2473 1.77375 30.7089 1.71801 29.8416C1.69774 29.1955 1.75348 27.8068 1.88524 25.6755C1.94099 24.9216 1.99674 24.0601 2.05249 23.1022C2.33122 19.4575 2.50859 17.2413 2.58461 16.4647C2.66062 15.6882 2.67075 15.1157 2.60994 14.7416C2.63021 14.1748 2.89881 13.897 3.4208 13.8914C4.1303 14.0161 4.46478 14.4695 4.42931 15.2404C4.39383 15.5975 4.35329 15.8922 4.31782 16.1246C4.78406 15.9376 5.29083 15.6768 5.84323 15.3367C6.39055 14.9967 6.74531 14.7699 6.89228 14.6509C6.46151 14.1068 6.46151 13.5003 6.89228 12.8371C7.71327 11.4994 8.56466 10.122 9.4414 8.71631C9.21842 8.77866 8.86873 8.90336 8.39235 9.08474C7.91598 9.27179 7.42948 9.50418 6.93283 9.78759C6.43618 10.071 5.95473 10.4054 5.48849 10.8022C5.16921 11.0573 4.88541 11.131 4.63202 11.0176C4.37863 10.9042 4.17084 10.7909 4.0036 10.6832C2.91908 12.378 2.01701 13.9991 1.28724 15.5408C0.800724 15.6032 0.466251 15.5635 0.278741 15.4218C0.0912305 15.2801 0 15.0477 0 14.7132C0.278732 14.0217 0.750046 13.0298 1.41393 11.7318C2.07782 10.4394 3.10152 8.78432 4.47998 6.76645C4.79925 6.48871 5.07798 6.39235 5.32124 6.47737C5.71146 6.59074 5.9598 6.74945 6.06116 6.95917C6.16251 7.16889 6.17771 7.4353 6.10169 7.75271L5.71147 8.41022C7.26224 7.63368 8.78258 7.04419 10.2776 6.64742C10.6121 6.5794 10.9313 6.5794 11.2304 6.65875C11.9196 7.03852 12.097 7.64502 11.7625 8.48958C11.4077 8.95437 10.9668 9.61188 10.4448 10.4621C9.92285 11.3067 9.43634 12.0209 8.9853 12.599C8.53933 13.1772 8.19979 13.6646 7.9768 14.0614C9.00558 13.5796 10.0191 12.9448 11.7169 12.1966C11.9601 12.0719 12.2034 11.9812 12.4466 11.9302C12.6899 11.8792 12.9433 11.9245 13.2018 12.0662C13.6122 12.3439 13.7998 12.7974 13.7643 13.4266C13.744 14.5715 13.7187 15.6995 13.6781 16.8048C13.6224 18.3069 13.5464 19.7806 13.4551 21.226C13.3234 23.7767 13.222 25.8116 13.146 27.325C13.07 28.8384 13.0345 30.006 13.0345 30.8166C12.999 31.7575 12.5936 32.1543 11.8284 32.0126C10.9313 31.6498 10.2928 31.2417 9.90765 30.7882C9.52249 30.3291 9.32485 29.9663 9.30458 29.6999L9.31978 29.6943ZM11.7422 19.1968C11.6865 19.5369 11.4989 19.7409 11.1847 19.8089C10.7945 20.0073 10.3637 20.1944 9.89751 20.3701C9.43126 20.5458 8.97516 20.7952 8.52412 21.1296C8.4481 21.8438 8.43798 22.7734 8.49879 23.9127C8.87381 23.7993 9.32991 23.3629 9.77081 23.0965C10.2117 22.8301 10.6222 22.507 11.8182 21.6738C11.8942 20.2511 11.95 19.0381 11.9855 18.0348C12.0209 17.2016 12.0412 16.5214 12.0412 15.9999C12.0767 14.872 12.0311 14.1804 11.8993 13.9197C10.4803 14.4185 9.48702 15.093 8.21499 15.9092C8.42277 16.1813 8.53933 16.5611 8.57988 17.0315C8.57988 18.0915 8.59001 18.7773 8.60521 19.0891C8.93969 18.9134 9.37046 18.7036 9.89245 18.4486C10.3992 18.2162 10.9263 18.2672 11.4888 18.596C11.6206 18.7093 11.7017 18.9134 11.7422 19.1968ZM16.2121 14.8323C16.5668 13.9084 16.9469 12.8201 17.3624 11.5787C17.7729 10.3374 18.0517 9.28879 18.2037 8.44423C17.4182 8.78432 16.8607 9.0564 16.5212 9.26045C16.1867 9.46451 15.8674 9.70824 15.5684 9.98031C15.3049 10.0427 15.1073 10.0993 14.9654 10.139C14.8235 10.1844 14.6309 10.1504 14.3927 10.0483C14.1494 9.71391 13.9721 9.27179 13.8606 8.72197C13.9366 8.44423 14.9552 7.86041 16.9266 6.95917C18.898 6.0636 20.3474 5.44576 21.285 5.1C22.2174 4.75991 23.0131 4.53318 23.6669 4.41415L23.976 4.38581C24.3105 4.35747 24.6297 4.38581 24.9287 4.4595C25.5267 4.69756 25.7802 5.19636 25.6839 5.9559C25.6636 6.47737 25.4964 7.24258 25.1771 8.24585L25.1213 8.46691C24.8223 9.40782 24.4574 10.3884 24.0267 11.403C23.5604 12.4857 23.0384 13.4436 22.4607 14.2881C21.5992 15.2177 20.8441 15.1554 20.1903 14.1068C19.9268 13.6306 19.6937 13.1205 19.491 12.5707C19.3592 12.2079 19.2376 11.8338 19.1261 11.4484C18.9791 11.9812 18.7257 12.6274 18.3709 13.3869C18.1834 13.778 17.9706 14.2144 17.7273 14.6906C17.5196 15.1044 17.251 15.3141 16.9165 15.3254C16.6377 15.3254 16.4198 15.1894 16.2729 14.9116L16.2171 14.8209L16.2121 14.8323ZM17.5804 17.9951C17.6716 18.8227 17.6767 19.4065 17.5804 19.7466C18.5686 19.2648 19.6329 18.7773 20.7731 18.2842C20.6768 16.7935 20.763 16.0056 21.0265 15.9206C21.2698 15.8355 21.4978 15.8072 21.7107 15.8299C21.9235 15.8526 22.1465 16.0453 22.3695 16.3967L22.704 17.587L23.5452 17.2979C23.9355 17.0769 24.3206 17.0655 24.6956 17.2639C25.1619 17.4113 25.3848 17.7231 25.3696 18.2048C25.3696 18.5563 25.248 18.783 25.0048 18.8737C24.7615 18.9701 24.4372 19.0607 24.0368 19.1458C23.6365 19.2308 23.2006 19.3498 22.7344 19.4915C22.6229 21.294 22.5671 22.422 22.5671 22.8811C23.2411 22.575 23.9608 22.2123 24.726 21.7928C25.1163 21.5944 25.5116 21.6851 25.9018 22.0649C26.3325 22.592 26.1704 23.0625 25.4254 23.4819C24.4524 23.8164 23.4287 24.3492 22.3441 25.086C22.2326 27.1549 22.1516 28.4416 22.1059 28.9347C22.0603 29.4279 22.0147 30.1137 21.9793 30.9923C21.9995 31.2417 21.9032 31.4967 21.7005 31.7632C21.4927 32.0296 21.29 32.1429 21.0873 32.0976C20.4538 32.0466 20.1548 31.6328 20.1903 30.8619C20.3221 30.2271 20.4032 29.6886 20.4437 29.2465C20.4792 28.8044 20.5349 27.7727 20.6109 26.1403C19.9217 26.5087 19.273 26.9169 18.6801 27.3533C18.0821 27.7898 17.626 28.1468 17.3067 28.4246C16.9722 28.6853 16.6631 28.8327 16.3844 28.878C16.1056 28.9234 15.837 28.827 15.5836 28.589C15.3302 28.3509 15.1782 28.0221 15.1225 27.614C16.0195 26.8318 16.9266 26.1573 17.854 25.6018C18.7764 25.0464 19.7545 24.4285 20.7832 23.7597C20.8187 22.4447 20.839 21.2997 20.839 20.3191C20.2207 20.5798 19.7038 20.8406 19.2832 21.09C18.8625 21.345 18.5483 21.4641 18.3456 21.4527C18.1378 21.4414 17.8388 21.192 17.4486 20.7045C17.2408 21.9685 17.3067 22.9661 17.6462 23.686C17.256 24.2415 16.8151 24.3718 16.3286 24.0828C15.9739 23.822 15.7661 23.3516 15.7103 22.6657C15.6191 20.9426 15.7306 19.2591 16.0448 17.6097C16.2881 17.2979 16.6377 17.1846 17.0939 17.2696C17.55 17.3546 17.7121 17.604 17.5854 18.0065L17.5804 17.9951ZM22.8763 9.88962C23.3628 8.90902 23.7277 7.66202 23.9709 6.14295C23.2412 6.33 22.481 6.5794 21.6904 6.88548C20.8947 7.19156 20.2663 7.45797 19.8001 7.69036C19.9673 7.78106 20.0991 7.92843 20.1903 8.12681C20.2815 8.3252 20.2359 8.74465 20.0484 9.39082C19.9724 10.0823 20.0687 10.6888 20.3271 11.2103C20.4386 11.386 20.54 11.5674 20.6363 11.7488C20.8238 12.0662 21.0113 12.3723 21.1988 12.667C21.7765 11.9132 22.2833 11.0969 22.709 10.224C22.785 10.1163 22.8408 10.003 22.8763 9.89529V9.88962Z" fill="#F88388"/>
<path d="M32.5324 21.1678C32.3803 21.6156 32.1117 21.8083 31.7215 21.7346C31.2907 21.6666 31.0475 21.4058 30.9917 20.9524C30.9563 20.5613 31.0221 20.1475 31.1894 19.7167C31.5644 18.7248 32.0357 17.6592 32.6033 16.5199C33.1709 15.3806 33.9362 13.9465 34.8991 12.2347C35.8619 10.5173 36.9769 8.53339 38.2489 6.27745C38.3401 6.03939 38.5023 5.83533 38.7253 5.65962C38.9483 5.4839 39.1915 5.4669 39.455 5.61427C39.9416 5.824 40.1544 6.26045 40.0987 6.93496C40.0429 7.27505 39.8909 7.63215 39.6527 8.00625C39.1104 8.86214 38.6391 9.59334 38.2388 10.1885C37.8384 10.7837 37.4786 11.4695 37.1593 12.246C37.5698 12.5465 37.7827 12.8809 37.8029 13.255C37.4684 16.1968 37.1897 18.7305 36.9617 20.856C36.9059 21.3832 36.8502 21.8876 36.7944 22.3694C36.5512 24.7614 36.5613 26.4789 36.8248 27.5218C36.9008 27.6805 36.9363 27.9583 36.9363 28.355C36.8046 28.7631 36.4904 28.9332 35.9836 28.8765C35.3501 28.6384 35.0207 28.1566 35.0055 27.4311C34.9092 25.9404 34.9295 24.2626 35.0612 22.3978C35.193 20.4933 35.3248 18.9402 35.4514 17.7385C35.5984 16.5199 35.7048 15.3862 35.7606 14.3376C35.2741 15.1085 34.8737 15.834 34.5544 16.5199C34.2352 17.2057 33.8601 17.9256 33.4192 18.6908C32.9783 19.456 32.6844 20.2835 32.5374 21.1734L32.5324 21.1678ZM48.7495 6.72524C49.7022 6.37381 50.6803 6.01671 51.6888 5.65962C52.0081 5.5916 52.3426 5.5746 52.6973 5.60294C52.9761 5.68229 53.1737 5.85234 53.2852 6.11307C53.3967 6.37381 53.4271 6.65155 53.3714 6.9463C53.2953 7.24671 53.1585 7.4451 52.9507 7.54712C52.7429 7.64915 52.5605 7.70583 52.3882 7.71717C51.2479 7.98357 49.9708 8.38035 48.5518 8.91882C48.5721 9.18523 48.5316 10.1205 48.4403 11.7076C48.5316 11.906 48.6279 12.0987 48.7191 12.2744C48.9978 12.7505 49.2816 13.0679 49.5603 13.2323C49.9151 13.4704 50.2546 13.7425 50.584 14.0372C50.9084 14.3319 51.7344 14.8421 53.0622 15.5733C54.39 16.3045 55.8647 16.8203 57.4865 17.115C57.8057 17.1944 58.0845 17.3474 58.3277 17.5741C58.6825 17.8802 58.7483 18.2657 58.5254 18.7475C58.3176 19.1386 58.0186 19.2576 57.6284 19.1046C56.5084 18.8268 55.3985 18.4584 54.2937 17.9993C53.194 17.5401 52.15 17.0243 51.1719 16.4405C50.1887 15.8567 49.2056 15.1935 48.2174 14.4453C48.1211 15.0801 48.0704 15.647 48.0653 16.1628C48.0552 16.6729 48.0096 17.3134 47.9285 18.0786C47.8423 18.8438 47.8221 19.7507 47.8575 20.788C48.6785 20.5726 49.4792 20.3799 50.2546 20.2099C51.03 20.0398 51.7902 19.9321 52.5352 19.8868C52.8899 19.8981 53.2244 20.0058 53.5437 20.2099C53.7312 20.3799 53.7971 20.6123 53.7413 20.9127C53.6501 21.2528 53.5234 21.4512 53.3612 21.5079C53.2041 21.5645 52.9102 21.6099 52.4794 21.6439C51.4152 21.7573 50.5182 21.95 49.7884 22.2334C49.0586 22.5168 48.3238 22.8115 47.5737 23.1233C47.4977 25.2942 47.4065 27.4708 47.295 29.6417C46.9048 30.1348 46.4943 30.2425 46.0635 29.9648C45.6733 29.7267 45.5415 29.3016 45.6733 28.6838C45.729 27.3858 45.7797 26.3712 45.8253 25.623C45.8709 24.8804 45.876 24.4156 45.8405 24.2286C45.6176 24.3306 45.2881 24.4723 44.8624 24.6537C44.5077 24.9144 44.1834 24.9598 43.8945 24.8011C43.6056 24.6367 43.413 24.3306 43.3218 23.8828C43.1748 23.316 43.3674 22.9192 43.9097 22.7095C44.5989 22.3354 45.3033 21.9953 46.0128 21.6836C46.1446 20.652 46.2358 19.6147 46.2916 18.5661C46.3473 17.5231 46.3929 16.4518 46.4335 15.3692C45.8152 15.9644 45.1057 16.8826 44.305 18.1296C43.5043 19.3766 42.4958 20.9977 41.2795 22.9986C40.9247 23.5257 40.5041 23.6674 40.0176 23.418C39.4753 23.0496 39.4196 22.5508 39.8503 21.933C41.1933 19.7167 42.3792 17.7782 43.408 16.1344C43.5955 15.868 43.7627 15.6016 43.9147 15.3409C45.0702 13.5327 45.9875 12.1213 46.6615 11.1067C46.8845 10.6476 46.9504 10.0695 46.8592 9.37228C45.6834 9.87108 44.751 10.2905 44.0719 10.642C43.3877 10.9934 42.7441 11.3902 42.1258 11.8379C41.8623 12.0477 41.5835 12.11 41.2845 12.0193C40.9855 11.9286 40.7321 11.7756 40.5294 11.5545C40.3216 11.3335 40.2051 11.0444 40.1645 10.693C40.1848 10.2338 40.3875 9.94477 40.7828 9.82573C42.592 9.12855 43.9756 8.57873 44.9283 8.17629C45.8811 7.77385 46.5804 7.4451 47.0315 7.20136C47.067 6.59487 47.0568 6.05639 46.9909 5.59727C46.9251 5.13248 46.8541 4.66769 46.7781 4.19723C46.7426 3.9705 46.7426 3.74944 46.7781 3.52838C46.8136 3.30732 46.9251 3.1146 47.1126 2.95023C47.2443 2.89921 47.366 2.8652 47.4775 2.85387C47.7967 2.82553 48.0653 2.93889 48.2883 3.18829C48.6988 3.67575 48.866 4.25391 48.7951 4.92275C48.7951 5.50658 48.785 6.10174 48.7647 6.70823L48.7495 6.72524Z" fill="#F88388"/>
<path d="M67.997 6.30161C68.1288 5.62142 68.4734 5.3947 69.0309 5.62142C69.7404 6.04087 70.0546 6.37529 69.9684 6.63603C69.8823 6.8911 69.8063 7.28787 69.7302 7.80934C71.803 7.04981 73.5818 6.47165 75.0667 6.07488C76.5516 5.67811 77.5094 5.36635 77.9402 5.13963C79.0247 4.13069 79.9014 3.07641 80.5754 1.97678C80.3119 1.87475 79.9876 1.83508 79.5973 1.85775C79.2071 1.88042 78.1125 2.07314 76.3184 2.4359C74.5244 2.79867 72.8419 3.26346 71.2607 3.83594C69.6796 4.40843 68.4531 4.99225 67.5764 5.58741C67.1456 5.95585 66.6591 6.35262 66.1219 6.77207C65.2452 6.72105 64.8043 6.21658 64.8043 5.25866C65.382 4.60682 66.0155 4.10235 66.7098 3.75092C68.2403 2.99705 69.6137 2.41323 70.8249 2.01079C72.0361 1.60835 73.6325 1.20591 75.614 0.803465C77.5955 0.406692 78.9841 0.16296 79.7899 0.0722694L80.1548 0.0382603C80.768 -0.0127534 81.2444 -0.0127534 81.5839 0.0382603C81.9742 0.128951 82.3948 0.355679 82.8458 0.712774C83.0688 1.27959 83.0688 1.75572 82.8458 2.15249C82.1363 3.12742 81.2596 4.26673 80.2105 5.56474C80.1903 6.00119 80.1497 6.32428 80.0838 6.52833C80.018 6.73239 79.5467 6.90243 78.6699 7.03847C75.6089 7.82068 73.5615 8.41584 72.5378 8.82962C71.5091 9.23773 70.308 9.75353 68.9245 10.3714C67.8045 13.6929 66.8517 16.4307 66.0662 18.5789C65.6912 19.5482 65.3567 20.3984 65.0577 21.1353C64.1252 23.4875 63.5829 25.1653 63.4309 26.1799C63.3954 26.8885 63.0964 27.2796 62.5339 27.3476C61.9004 27.3192 61.5609 26.9338 61.5254 26.1856C61.6166 25.3637 62.0119 24.0544 62.7011 22.2462C62.9038 21.6851 63.1218 21.1182 63.3447 20.5344C63.8515 19.2024 64.3887 17.8024 64.9715 16.3343C65.8128 14.2031 66.3703 12.582 66.654 11.4767C66.7655 11.0912 66.7655 10.7171 66.654 10.3544C66.5983 10.0653 66.6541 9.78187 66.8365 9.49279C67.0139 9.20938 67.171 8.89763 67.3129 8.56321C67.4548 8.22879 67.6828 7.47492 67.997 6.30161ZM80.9961 10.377C80.1193 10.6208 79.2983 10.8475 78.5331 11.0742C77.7678 11.3009 76.9266 11.6127 76.0144 12.0265C76.1816 12.4913 76.136 12.9447 75.8725 13.3812C74.7727 14.4355 73.8909 15.4671 73.2423 16.4817C74.94 15.7958 76.1157 15.314 76.7593 15.0419C77.403 14.7699 77.9655 14.4355 78.452 14.0387C78.5838 13.2338 78.8878 12.837 79.3743 12.837C79.8811 12.854 80.2055 13.1318 80.3575 13.6589C80.5602 13.931 80.7528 14.2767 80.9302 14.6849C81.1076 15.0986 81.4066 15.5237 81.8272 15.9659C82.2478 16.408 82.5114 16.8048 82.6279 17.1448C82.7191 17.7797 82.486 18.0914 81.9285 18.0801C81.4978 17.9497 81.0974 17.655 80.7224 17.2015C80.3474 16.7424 79.871 16.1529 79.2933 15.4331C79.0297 15.5804 78.7257 15.7505 78.3811 15.9489C78.0364 16.1472 77.3168 16.51 76.2221 17.0372C75.1275 17.5643 74.1291 18.0291 73.227 18.4202C72.325 18.8113 71.6915 19.0324 71.3368 19.0834C70.9263 19.055 70.6272 18.834 70.4397 18.4089C70.2522 17.9894 70.232 17.6266 70.384 17.3206C71.3367 15.8638 72.3807 14.4751 73.521 13.1488C73.6882 12.9674 73.8453 12.786 73.9974 12.6103C73.1764 12.888 72.548 13.1148 72.1223 13.2848C71.6915 13.4549 71.3824 13.5739 71.1999 13.6306C70.9567 13.7949 70.7387 13.846 70.5411 13.7779C70.3434 13.7099 70.1559 13.4775 69.9786 13.0751C69.8012 12.6726 69.7961 12.3099 69.9634 11.9811C70.6729 11.7317 71.433 11.4597 72.2439 11.1592C73.0547 10.8588 74.2558 10.4791 75.8421 10.0086C77.2813 9.57215 78.4672 9.19238 79.3997 8.85796C79.5112 8.80694 79.6227 8.76727 79.7342 8.73326C79.9571 8.63123 80.2207 8.60289 80.5197 8.64823C80.8187 8.69358 80.9758 8.9033 80.9961 9.26607C81.0163 9.62883 81.0163 9.99726 80.9961 10.377ZM77.8033 20.2397C78.1783 20.1036 78.6345 19.9166 79.1767 19.6842C79.6987 19.4915 80.0585 19.4915 80.2561 19.6672C80.4538 19.8486 80.5856 20.0526 80.6616 20.2737C80.7528 20.4721 80.7832 20.6421 80.7477 20.7838C80.7123 20.9255 80.5045 21.1352 80.1295 21.413C79.2882 21.7531 78.3811 22.0705 77.4131 22.3652C77.1344 23.5782 76.9165 24.5305 76.7695 25.2333C78.1327 24.9273 79.3389 24.6722 80.3828 24.4738C81.4268 24.2698 82.2427 24.1224 82.8205 24.0317C83.1398 23.9863 83.3932 24.0317 83.5908 24.1677C83.7884 24.3094 83.829 24.6325 83.7175 25.1427C83.231 25.3524 82.339 25.6415 81.0417 26.0099C79.7443 26.384 78.2949 26.7978 76.6985 27.2569C75.1022 27.716 73.7693 28.1355 72.7051 28.5209C72.1628 28.6909 71.6763 28.5379 71.2506 28.0504C70.8401 27.0642 71.1188 26.52 72.0919 26.418C72.8571 26.2706 73.4703 26.1119 73.9264 25.9475C74.3825 25.7832 74.6866 25.6131 74.8336 25.4317C75.0768 24.7856 75.2441 24.043 75.3403 23.2041C74.4281 23.5556 73.4551 23.941 72.4263 24.3604C71.9196 24.5928 71.3874 24.3151 70.83 23.5272C70.683 22.8527 70.9161 22.4559 71.5293 22.3426C72.7811 21.9231 74.1443 21.4867 75.6191 21.0219C75.8421 20.064 75.9434 19.3158 75.9282 18.7773C75.9485 18.4655 76.0194 18.2275 76.1512 18.0688C76.283 17.9101 76.4603 17.8137 76.6833 17.774C77.1496 17.9214 77.4435 18.1198 77.5651 18.3692C77.6868 18.6186 77.778 18.9417 77.8337 19.3328C77.8692 19.7465 77.8591 20.047 77.8033 20.2397Z" fill="#F88388"/>
</svg>
