<svg width="192" height="164" viewBox="0 0 192 164" fill="none" xmlns="http://www.w3.org/2000/svg">
<path d="M109.521 163.711C154.53 163.711 191.018 127.063 191.018 81.8557C191.018 36.648 154.53 0 109.521 0C64.5109 0 28.0234 36.648 28.0234 81.8557C28.0234 127.063 64.5109 163.711 109.521 163.711Z" fill="#F99B9E"/>
<path d="M63.6825 111.648L52.2289 76L0.000374155 112.628L63.6825 111.648Z" fill="#F99B9E"/>
<path d="M84.1864 74.8896V79H65.991V75.4925L74.5954 66.2669C75.4601 65.3048 76.1422 64.4583 76.6415 63.7276C77.1408 62.9847 77.5001 62.3209 77.7193 61.7364C77.9507 61.1396 78.0664 60.5733 78.0664 60.0374C78.0664 59.2336 77.9325 58.5455 77.6645 57.9731C77.3966 57.3885 77.0008 56.9379 76.4771 56.6212C75.9656 56.3045 75.3323 56.1462 74.5772 56.1462C73.7734 56.1462 73.0792 56.3411 72.4946 56.7308C71.9222 57.1205 71.4837 57.6625 71.1792 58.3567C70.887 59.0509 70.7408 59.8364 70.7408 60.7133H65.4612C65.4612 59.1301 65.8388 57.6808 66.5939 56.3654C67.349 55.0379 68.4146 53.9845 69.7908 53.205C71.1671 52.4134 72.799 52.0176 74.6868 52.0176C76.5502 52.0176 78.1212 52.322 79.4 52.931C80.691 53.5278 81.6653 54.3925 82.323 55.5251C82.9928 56.6456 83.3277 57.9852 83.3277 59.5441C83.3277 60.421 83.1877 61.2796 82.9076 62.12C82.6274 62.9482 82.2255 63.7763 81.7018 64.6045C81.1903 65.4205 80.5692 66.2487 79.8385 67.089C79.1077 67.9293 78.2978 68.8001 77.4088 69.7014L72.7869 74.8896H84.1864ZM105.378 63.3622V67.9659C105.378 69.9632 105.165 71.6865 104.738 73.1358C104.312 74.573 103.697 75.7543 102.893 76.6799C102.102 77.5933 101.158 78.2693 100.062 78.7077C98.9655 79.1461 97.7476 79.3654 96.4079 79.3654C95.3362 79.3654 94.3375 79.2314 93.4119 78.9635C92.4863 78.6833 91.652 78.251 90.9091 77.6664C90.1784 77.0818 89.5451 76.345 89.0092 75.4559C88.4855 74.5547 88.0836 73.4829 87.8035 72.2407C87.5234 70.9984 87.3833 69.5735 87.3833 67.9659V63.3622C87.3833 61.3649 87.5965 59.6538 88.0227 58.2288C88.4612 56.7917 89.0762 55.6164 89.8678 54.703C90.6716 53.7896 91.6216 53.1198 92.7177 52.6935C93.8138 52.2551 95.0317 52.0358 96.3714 52.0358C97.4431 52.0358 98.4357 52.1759 99.3491 52.456C100.275 52.7239 101.109 53.1441 101.852 53.7165C102.595 54.2889 103.228 55.0258 103.752 55.927C104.276 56.8161 104.677 57.8817 104.958 59.124C105.238 60.354 105.378 61.7668 105.378 63.3622ZM100.098 68.6601V62.6498C100.098 61.6876 100.043 60.8473 99.9337 60.1287C99.8363 59.4102 99.684 58.8012 99.477 58.3019C99.27 57.7904 99.0142 57.3763 98.7097 57.0596C98.4053 56.743 98.0582 56.5116 97.6684 56.3654C97.2787 56.2193 96.8464 56.1462 96.3714 56.1462C95.7746 56.1462 95.2448 56.2619 94.782 56.4933C94.3314 56.7247 93.9478 57.0962 93.6311 57.6077C93.3145 58.107 93.0709 58.7769 92.9004 59.6172C92.7421 60.4454 92.6629 61.4562 92.6629 62.6498V68.6601C92.6629 69.6222 92.7116 70.4687 92.809 71.1994C92.9186 71.9301 93.077 72.5573 93.284 73.081C93.5032 73.5926 93.759 74.0127 94.0513 74.3416C94.3558 74.6582 94.7029 74.8896 95.0926 75.0358C95.4945 75.1819 95.9329 75.255 96.4079 75.255C96.9925 75.255 97.5101 75.1393 97.9607 74.9079C98.4235 74.6643 98.8133 74.2868 99.1299 73.7752C99.4587 73.2515 99.7023 72.5695 99.8606 71.7292C100.019 70.8888 100.098 69.8658 100.098 68.6601ZM126.861 63.3622V67.9659C126.861 69.9632 126.648 71.6865 126.222 73.1358C125.796 74.573 125.181 75.7543 124.377 76.6799C123.585 77.5933 122.641 78.2693 121.545 78.7077C120.449 79.1461 119.231 79.3654 117.892 79.3654C116.82 79.3654 115.821 79.2314 114.896 78.9635C113.97 78.6833 113.136 78.251 112.393 77.6664C111.662 77.0818 111.029 76.345 110.493 75.4559C109.969 74.5547 109.567 73.4829 109.287 72.2407C109.007 70.9984 108.867 69.5735 108.867 67.9659V63.3622C108.867 61.3649 109.08 59.6538 109.506 58.2288C109.945 56.7917 110.56 55.6164 111.351 54.703C112.155 53.7896 113.105 53.1198 114.201 52.6935C115.297 52.2551 116.515 52.0358 117.855 52.0358C118.927 52.0358 119.919 52.1759 120.833 52.456C121.758 52.7239 122.593 53.1441 123.336 53.7165C124.078 54.2889 124.712 55.0258 125.235 55.927C125.759 56.8161 126.161 57.8817 126.441 59.124C126.721 60.354 126.861 61.7668 126.861 63.3622ZM121.582 68.6601V62.6498C121.582 61.6876 121.527 60.8473 121.417 60.1287C121.32 59.4102 121.168 58.8012 120.961 58.3019C120.754 57.7904 120.498 57.3763 120.193 57.0596C119.889 56.743 119.542 56.5116 119.152 56.3654C118.762 56.2193 118.33 56.1462 117.855 56.1462C117.258 56.1462 116.728 56.2619 116.266 56.4933C115.815 56.7247 115.431 57.0962 115.115 57.6077C114.798 58.107 114.555 58.7769 114.384 59.6172C114.226 60.4454 114.147 61.4562 114.147 62.6498V68.6601C114.147 69.6222 114.195 70.4687 114.293 71.1994C114.402 71.9301 114.561 72.5573 114.768 73.081C114.987 73.5926 115.243 74.0127 115.535 74.3416C115.839 74.6582 116.187 74.8896 116.576 75.0358C116.978 75.1819 117.417 75.255 117.892 75.255C118.476 75.255 118.994 75.1393 119.444 74.9079C119.907 74.6643 120.297 74.2868 120.614 73.7752C120.942 73.2515 121.186 72.5695 121.344 71.7292C121.503 70.8888 121.582 69.8658 121.582 68.6601Z" fill="white"/>
<path d="M146.914 80.3456V72.4777H140.257V69.6937H146.914V65.6508H143.864C143.606 66.2479 143.331 66.8209 143.041 67.3696C142.75 67.9184 142.452 68.4267 142.145 68.8948C141.79 68.6688 141.362 68.451 140.862 68.2411C140.362 68.0152 139.902 67.8538 139.482 67.757C139.95 67.0791 140.41 66.2722 140.862 65.3361C141.314 64.3839 141.709 63.4074 142.048 62.4068C142.387 61.39 142.629 60.454 142.774 59.5986L145.583 60.2522C145.486 60.7041 145.373 61.156 145.244 61.6079C145.131 62.0437 145.01 62.4875 144.881 62.9394H146.914V58.5092H149.892V62.9394H154.976V65.6508H149.892V69.6937H155.799V72.4777H149.892V80.3456H146.914ZM136.48 80.3456V68.8948C136.222 69.2983 135.956 69.6775 135.681 70.0326C135.423 70.3877 135.173 70.7024 134.931 70.9767C134.705 70.7185 134.366 70.4361 133.914 70.1294C133.462 69.8228 133.05 69.5888 132.679 69.4274C133.26 68.7979 133.849 68.0233 134.447 67.1033C135.044 66.1673 135.609 65.1666 136.141 64.1014C136.69 63.0362 137.166 61.9953 137.569 60.9785C137.973 59.9456 138.263 59.0337 138.441 58.2429L141.177 58.9449C140.967 59.6873 140.692 60.4862 140.353 61.3416C140.031 62.197 139.66 63.0604 139.24 63.932V80.3456H136.48Z" fill="white"/>
<path d="M75.2982 113.599C75.1853 113.212 75.0077 112.76 74.7656 112.244C74.5397 111.727 74.3137 111.3 74.0878 110.961C75.7986 110.654 77.2269 110.291 78.3728 109.871C79.5348 109.435 80.4709 108.911 81.181 108.298C81.8911 107.668 82.4237 106.926 82.7788 106.07H74.6446V103.528H83.384C83.4324 103.157 83.4647 102.77 83.4808 102.366C83.497 101.963 83.505 101.543 83.505 101.108L85.6112 101.18C85.5144 100.954 85.466 100.688 85.466 100.381V95.9995H82.343L84.2071 96.9679C83.497 98.485 82.5044 99.76 81.2294 100.793C79.9544 101.81 78.5664 102.528 77.0655 102.947C77.0171 102.738 76.9122 102.471 76.7508 102.149C76.6055 101.826 76.4441 101.519 76.2666 101.229C76.0891 100.922 75.9196 100.688 75.7582 100.527C76.549 100.349 77.3318 100.059 78.1065 99.6551C78.8811 99.2355 79.5832 98.719 80.2126 98.1057C80.8421 97.4924 81.3262 96.7904 81.6652 95.9995H77.5012V98.7594H74.7172V93.5544H83.6261V91.2546H86.6764V93.5544H95.5853V98.5173H93.1644C93.6486 98.7109 94.044 98.84 94.3506 98.9046C94.1569 99.76 93.9149 100.414 93.6243 100.866C93.35 101.317 92.9949 101.632 92.5592 101.81C92.1395 101.971 91.5989 102.052 90.9372 102.052H88.1047C87.2978 102.052 86.7006 101.971 86.3133 101.81C86.3133 102.116 86.3052 102.415 86.2891 102.705C86.2729 102.98 86.2487 103.254 86.2164 103.528H95.6337V106.07H87.669C88.2823 106.958 89.0489 107.733 89.9688 108.394C90.9049 109.04 91.9217 109.565 93.0191 109.968C94.1327 110.355 95.2625 110.622 96.4084 110.767C96.2308 110.993 96.0452 111.275 95.8516 111.614C95.6579 111.953 95.4804 112.292 95.319 112.631C95.1737 112.97 95.0607 113.252 94.98 113.478C92.8335 113.059 90.9291 112.332 89.2668 111.3C87.6044 110.25 86.281 108.871 85.2965 107.16C84.5218 108.919 83.3033 110.299 81.641 111.3C79.9948 112.284 77.8805 113.051 75.2982 113.599ZM89.0489 99.4372H90.2593C90.7112 99.4372 91.0259 99.3484 91.2035 99.1709C91.381 98.9772 91.5585 98.5415 91.7361 97.8636C91.962 98.0089 92.3171 98.1783 92.8012 98.372V95.9995H88.2258V98.832C88.2258 99.0741 88.2823 99.2355 88.3952 99.3162C88.5243 99.3969 88.7422 99.4372 89.0489 99.4372ZM114.371 113.406C114.21 113.083 113.976 112.704 113.669 112.268C113.363 111.832 113.072 111.501 112.798 111.275C112.572 111.63 112.322 111.977 112.047 112.316C111.789 112.655 111.507 113.002 111.2 113.357C110.942 113.099 110.595 112.809 110.159 112.486C109.739 112.163 109.368 111.921 109.045 111.76C109.626 111.227 110.127 110.63 110.546 109.968H104.3V104.981C104.155 105.175 104.002 105.376 103.84 105.586C103.695 105.78 103.534 105.974 103.356 106.167C103.13 105.909 102.8 105.627 102.364 105.32C101.944 104.997 101.565 104.747 101.226 104.569C102.017 103.73 102.687 102.786 103.235 101.737C103.784 100.672 104.228 99.5582 104.567 98.3962C104.922 97.2342 105.164 96.0964 105.293 94.9828H102.218V92.4893H111.902V94.9828H108.029C107.932 95.7897 107.795 96.5886 107.617 97.3794C107.456 98.1703 107.246 98.945 106.988 99.7035H110.982V109.145C111.466 108.144 111.813 107.015 112.023 105.756C112.233 104.497 112.338 103.052 112.338 101.422V94.4744H117.059V91.2304H119.746V94.4744H123.982L124.781 95.0312C124.668 95.4185 124.499 95.9108 124.273 96.5079C124.063 97.0889 123.837 97.678 123.595 98.2752C123.353 98.8562 123.127 99.3484 122.917 99.7519C122.756 99.6551 122.538 99.5502 122.263 99.4372C121.989 99.3242 121.707 99.2193 121.416 99.1225C121.126 99.0256 120.875 98.953 120.666 98.9046C120.762 98.6787 120.892 98.3559 121.053 97.9363C121.231 97.5166 121.376 97.1535 121.489 96.8469H119.746V100.333H122.965L123.885 101.035C123.563 102.455 123.143 103.779 122.627 105.005C122.126 106.216 121.505 107.321 120.762 108.322C121.376 108.919 122.037 109.452 122.748 109.92C123.474 110.372 124.224 110.743 124.999 111.033C124.709 111.324 124.418 111.695 124.128 112.147C123.853 112.599 123.627 112.994 123.45 113.333C121.771 112.591 120.294 111.582 119.019 110.307C118.374 110.92 117.664 111.485 116.889 112.002C116.131 112.518 115.291 112.986 114.371 113.406ZM112.822 111.203C113.726 110.848 114.557 110.428 115.315 109.944C116.074 109.444 116.76 108.895 117.373 108.298C116.825 107.491 116.356 106.619 115.969 105.683C115.582 104.731 115.283 103.714 115.073 102.633H114.977C114.928 104.569 114.734 106.2 114.396 107.523C114.057 108.846 113.532 110.073 112.822 111.203ZM106.697 107.45H108.513V102.197H106.697V107.45ZM115.001 100.333H117.059V96.8469H115.001V100.333ZM119.068 106.264C119.439 105.699 119.77 105.11 120.06 104.497C120.351 103.884 120.577 103.262 120.738 102.633H117.543C117.817 103.956 118.325 105.167 119.068 106.264Z" fill="white"/>
<path d="M133.58 105.942L137.989 92.3236L141.269 93.5174L135.892 106.784L133.58 105.942ZM132.605 112.133C132.05 111.931 131.647 111.561 131.396 111.023C131.145 110.486 131.121 109.939 131.323 109.383C131.532 108.81 131.905 108.397 132.443 108.147C132.981 107.896 133.527 107.872 134.083 108.074C134.657 108.283 135.069 108.656 135.32 109.194C135.588 109.738 135.618 110.297 135.409 110.871C135.207 111.426 134.828 111.826 134.272 112.07C133.735 112.321 133.179 112.342 132.605 112.133Z" fill="white"/>
<path d="M142.383 105.942L146.792 92.3236L150.072 93.5174L144.695 106.784L142.383 105.942ZM141.408 112.133C140.853 111.931 140.449 111.561 140.199 111.023C139.948 110.486 139.923 109.939 140.126 109.383C140.334 108.81 140.708 108.397 141.246 108.147C141.783 107.896 142.33 107.872 142.886 108.074C143.459 108.283 143.871 108.656 144.122 109.194C144.391 109.738 144.421 110.297 144.212 110.871C144.01 111.426 143.631 111.826 143.075 112.07C142.537 112.321 141.982 112.342 141.408 112.133Z" fill="white"/>
</svg>
