<svg width="67" height="75" viewBox="0 0 67 75" fill="none" xmlns="http://www.w3.org/2000/svg">
<path d="M33.4393 67C51.9074 67 66.8787 52.0015 66.8787 33.5C66.8787 14.9985 51.9074 0 33.4393 0C14.9713 0 0 14.9985 0 33.5C0 52.0015 14.9713 67 33.4393 67Z" fill="#F99B9E"/>
<path d="M35.0207 54.9653L20.9365 48.8451L18.0588 74.7948L35.0207 54.9653Z" fill="#F99B9E"/>
<path d="M21.4551 30.1323V32H13.1875V30.4062L17.0972 26.2144C17.4901 25.7772 17.8 25.3926 18.0269 25.0605C18.2537 24.723 18.417 24.4214 18.5166 24.1558C18.6217 23.8846 18.6743 23.6273 18.6743 23.3838C18.6743 23.0186 18.6134 22.7059 18.4917 22.4458C18.37 22.1802 18.1901 21.9754 17.9521 21.8315C17.7197 21.6877 17.432 21.6157 17.0889 21.6157C16.7236 21.6157 16.4082 21.7043 16.1426 21.8813C15.8825 22.0584 15.6833 22.3047 15.5449 22.6201C15.4121 22.9355 15.3457 23.2925 15.3457 23.6909H12.9468C12.9468 22.9715 13.1183 22.313 13.4614 21.7153C13.8045 21.1121 14.2887 20.6335 14.9141 20.2793C15.5394 19.9196 16.2809 19.7397 17.1387 19.7397C17.9854 19.7397 18.6992 19.8781 19.2803 20.1548C19.8669 20.4259 20.3096 20.8188 20.6084 21.3335C20.9128 21.8426 21.0649 22.4513 21.0649 23.1597C21.0649 23.5581 21.0013 23.9482 20.874 24.3301C20.7467 24.7064 20.5641 25.0827 20.3262 25.459C20.0938 25.8298 19.8115 26.2061 19.4795 26.5879C19.1475 26.9697 18.7795 27.3654 18.3755 27.7749L16.2754 30.1323H21.4551ZM31.084 24.8945V26.9863C31.084 27.8939 30.9871 28.6769 30.7935 29.3354C30.5998 29.9884 30.3203 30.5252 29.9551 30.9458C29.5954 31.3608 29.1665 31.668 28.6685 31.8672C28.1704 32.0664 27.617 32.166 27.0083 32.166C26.5213 32.166 26.0675 32.1051 25.647 31.9834C25.2264 31.8561 24.8473 31.6597 24.5098 31.394C24.1777 31.1284 23.89 30.7936 23.6465 30.3896C23.4085 29.9801 23.2259 29.4932 23.0986 28.9287C22.9714 28.3643 22.9077 27.7168 22.9077 26.9863V24.8945C22.9077 23.987 23.0046 23.2095 23.1982 22.562C23.3975 21.909 23.6769 21.375 24.0366 20.96C24.4019 20.5449 24.8335 20.2406 25.3315 20.0469C25.8296 19.8477 26.383 19.748 26.9917 19.748C27.4787 19.748 27.9297 19.8117 28.3447 19.939C28.7653 20.0607 29.1444 20.2516 29.4819 20.5117C29.8195 20.7718 30.1073 21.1066 30.3452 21.5161C30.5832 21.9201 30.7658 22.4043 30.8931 22.9688C31.0203 23.5277 31.084 24.1696 31.084 24.8945ZM28.6851 27.3018V24.5708C28.6851 24.1336 28.6602 23.7518 28.6104 23.4253C28.5661 23.0988 28.4969 22.8221 28.4028 22.5952C28.3088 22.3628 28.1925 22.1746 28.0542 22.0308C27.9159 21.8869 27.7581 21.7817 27.5811 21.7153C27.404 21.6489 27.2075 21.6157 26.9917 21.6157C26.7205 21.6157 26.4798 21.6683 26.2695 21.7734C26.0648 21.8786 25.8905 22.0474 25.7466 22.2798C25.6027 22.5067 25.492 22.811 25.4146 23.1929C25.3426 23.5692 25.3066 24.0285 25.3066 24.5708V27.3018C25.3066 27.7389 25.3288 28.1235 25.373 28.4556C25.4229 28.7876 25.4948 29.0726 25.5889 29.3105C25.6885 29.543 25.8047 29.7339 25.9375 29.8833C26.0758 30.0272 26.2336 30.1323 26.4106 30.1987C26.5933 30.2651 26.7925 30.2983 27.0083 30.2983C27.2739 30.2983 27.5091 30.2458 27.7139 30.1406C27.9242 30.0299 28.1012 29.8584 28.2451 29.626C28.3945 29.388 28.5052 29.0781 28.5771 28.6963C28.6491 28.3145 28.6851 27.8496 28.6851 27.3018ZM40.8457 24.8945V26.9863C40.8457 27.8939 40.7489 28.6769 40.5552 29.3354C40.3615 29.9884 40.082 30.5252 39.7168 30.9458C39.3571 31.3608 38.9282 31.668 38.4302 31.8672C37.9321 32.0664 37.3787 32.166 36.77 32.166C36.283 32.166 35.8293 32.1051 35.4087 31.9834C34.9881 31.8561 34.609 31.6597 34.2715 31.394C33.9395 31.1284 33.6517 30.7936 33.4082 30.3896C33.1702 29.9801 32.9876 29.4932 32.8604 28.9287C32.7331 28.3643 32.6694 27.7168 32.6694 26.9863V24.8945C32.6694 23.987 32.7663 23.2095 32.96 22.562C33.1592 21.909 33.4386 21.375 33.7983 20.96C34.1636 20.5449 34.5952 20.2406 35.0933 20.0469C35.5913 19.8477 36.1447 19.748 36.7534 19.748C37.2404 19.748 37.6914 19.8117 38.1064 19.939C38.527 20.0607 38.9061 20.2516 39.2437 20.5117C39.5812 20.7718 39.869 21.1066 40.1069 21.5161C40.3449 21.9201 40.5275 22.4043 40.6548 22.9688C40.7821 23.5277 40.8457 24.1696 40.8457 24.8945ZM38.4468 27.3018V24.5708C38.4468 24.1336 38.4219 23.7518 38.3721 23.4253C38.3278 23.0988 38.2586 22.8221 38.1646 22.5952C38.0705 22.3628 37.9543 22.1746 37.8159 22.0308C37.6776 21.8869 37.5199 21.7817 37.3428 21.7153C37.1657 21.6489 36.9692 21.6157 36.7534 21.6157C36.4823 21.6157 36.2415 21.6683 36.0312 21.7734C35.8265 21.8786 35.6522 22.0474 35.5083 22.2798C35.3644 22.5067 35.2537 22.811 35.1763 23.1929C35.1043 23.5692 35.0684 24.0285 35.0684 24.5708V27.3018C35.0684 27.7389 35.0905 28.1235 35.1348 28.4556C35.1846 28.7876 35.2565 29.0726 35.3506 29.3105C35.4502 29.543 35.5664 29.7339 35.6992 29.8833C35.8376 30.0272 35.9953 30.1323 36.1724 30.1987C36.355 30.2651 36.5542 30.2983 36.77 30.2983C37.0356 30.2983 37.2708 30.2458 37.4756 30.1406C37.6859 30.0299 37.863 29.8584 38.0068 29.626C38.1562 29.388 38.2669 29.0781 38.3389 28.6963C38.4108 28.3145 38.4468 27.8496 38.4468 27.3018Z" fill="white"/>
<path d="M49.545 32.792V29.217H46.52V27.952H49.545V26.115H48.159C48.0417 26.3863 47.917 26.6467 47.785 26.896C47.653 27.1453 47.5173 27.3763 47.378 27.589C47.2167 27.4863 47.0223 27.3873 46.795 27.292C46.5677 27.1893 46.3587 27.116 46.168 27.072C46.3807 26.764 46.5897 26.3973 46.795 25.972C47.0003 25.5393 47.18 25.0957 47.334 24.641C47.488 24.179 47.598 23.7537 47.664 23.365L48.94 23.662C48.896 23.8673 48.8447 24.0727 48.786 24.278C48.7347 24.476 48.6797 24.6777 48.621 24.883H49.545V22.87H50.898V24.883H53.208V26.115H50.898V27.952H53.582V29.217H50.898V32.792H49.545ZM44.804 32.792V27.589C44.6867 27.7723 44.5657 27.9447 44.441 28.106C44.3237 28.2673 44.21 28.4103 44.1 28.535C43.9973 28.4177 43.8433 28.2893 43.638 28.15C43.4327 28.0107 43.2457 27.9043 43.077 27.831C43.341 27.545 43.6087 27.193 43.88 26.775C44.1513 26.3497 44.408 25.895 44.65 25.411C44.8993 24.927 45.1157 24.454 45.299 23.992C45.4823 23.5227 45.6143 23.1083 45.695 22.749L46.938 23.068C46.8427 23.4053 46.718 23.7683 46.564 24.157C46.4173 24.5457 46.2487 24.938 46.058 25.334V32.792H44.804Z" fill="white"/>
<path d="M17.143 47.902C17.0917 47.726 17.011 47.5207 16.901 47.286C16.7983 47.0513 16.6957 46.857 16.593 46.703C17.3703 46.5637 18.0193 46.3987 18.54 46.208C19.068 46.01 19.4933 45.7717 19.816 45.493C20.1387 45.207 20.3807 44.8697 20.542 44.481H16.846V43.326H20.817C20.839 43.1573 20.8537 42.9813 20.861 42.798C20.8683 42.6147 20.872 42.424 20.872 42.226L21.829 42.259C21.785 42.1563 21.763 42.0353 21.763 41.896V39.905H20.344L21.191 40.345C20.8683 41.0343 20.4173 41.6137 19.838 42.083C19.2587 42.545 18.628 42.8713 17.946 43.062C17.924 42.9667 17.8763 42.8457 17.803 42.699C17.737 42.5523 17.6637 42.413 17.583 42.281C17.5023 42.1417 17.4253 42.0353 17.352 41.962C17.7113 41.8813 18.067 41.7493 18.419 41.566C18.771 41.3753 19.09 41.1407 19.376 40.862C19.662 40.5833 19.882 40.2643 20.036 39.905H18.144V41.159H16.879V38.794H20.927V37.749H22.313V38.794H26.361V41.049H25.261C25.481 41.137 25.6607 41.1957 25.8 41.225C25.712 41.6137 25.602 41.9107 25.47 42.116C25.3453 42.3213 25.184 42.4643 24.986 42.545C24.7953 42.6183 24.5497 42.655 24.249 42.655H22.962C22.5953 42.655 22.324 42.6183 22.148 42.545C22.148 42.6843 22.1443 42.82 22.137 42.952C22.1297 43.0767 22.1187 43.2013 22.104 43.326H26.383V44.481H22.764C23.0427 44.8843 23.391 45.2363 23.809 45.537C24.2343 45.8303 24.6963 46.0687 25.195 46.252C25.701 46.428 26.2143 46.549 26.735 46.615C26.6543 46.7177 26.57 46.846 26.482 47C26.394 47.154 26.3133 47.308 26.24 47.462C26.174 47.616 26.1227 47.7443 26.086 47.847C25.1107 47.6563 24.2453 47.3263 23.49 46.857C22.7347 46.3803 22.1333 45.7533 21.686 44.976C21.334 45.7753 20.7803 46.4023 20.025 46.857C19.277 47.3043 18.3163 47.6527 17.143 47.902ZM23.391 41.467H23.941C24.1463 41.467 24.2893 41.4267 24.37 41.346C24.4507 41.258 24.5313 41.06 24.612 40.752C24.7147 40.818 24.876 40.895 25.096 40.983V39.905H23.017V41.192C23.017 41.302 23.0427 41.3753 23.094 41.412C23.1527 41.4487 23.2517 41.467 23.391 41.467ZM34.897 47.814C34.8237 47.6673 34.7173 47.495 34.578 47.297C34.4387 47.099 34.3067 46.9487 34.182 46.846C34.0793 47.0073 33.9657 47.165 33.841 47.319C33.7237 47.473 33.5953 47.6307 33.456 47.792C33.3387 47.6747 33.181 47.5427 32.983 47.396C32.7923 47.2493 32.6237 47.1393 32.477 47.066C32.741 46.824 32.9683 46.5527 33.159 46.252H30.321V43.986C30.255 44.074 30.1853 44.1657 30.112 44.261C30.046 44.349 29.9727 44.437 29.892 44.525C29.7893 44.4077 29.639 44.2793 29.441 44.14C29.2503 43.9933 29.078 43.8797 28.924 43.799C29.2833 43.4177 29.5877 42.9887 29.837 42.512C30.0863 42.028 30.288 41.522 30.442 40.994C30.6033 40.466 30.7133 39.949 30.772 39.443H29.375V38.31H33.775V39.443H32.015C31.971 39.8097 31.9087 40.1727 31.828 40.532C31.7547 40.8913 31.6593 41.2433 31.542 41.588H33.357V45.878C33.577 45.4233 33.7347 44.91 33.83 44.338C33.9253 43.766 33.973 43.1097 33.973 42.369V39.212H36.118V37.738H37.339V39.212H39.264L39.627 39.465C39.5757 39.641 39.4987 39.8647 39.396 40.136C39.3007 40.4 39.198 40.6677 39.088 40.939C38.978 41.203 38.8753 41.4267 38.78 41.61C38.7067 41.566 38.6077 41.5183 38.483 41.467C38.3583 41.4157 38.23 41.368 38.098 41.324C37.966 41.28 37.8523 41.247 37.757 41.225C37.801 41.1223 37.8597 40.9757 37.933 40.785C38.0137 40.5943 38.0797 40.4293 38.131 40.29H37.339V41.874H38.802L39.22 42.193C39.0733 42.8383 38.8827 43.4397 38.648 43.997C38.4207 44.547 38.1383 45.0493 37.801 45.504C38.0797 45.7753 38.3803 46.0173 38.703 46.23C39.033 46.4353 39.374 46.604 39.726 46.736C39.594 46.868 39.462 47.0367 39.33 47.242C39.2053 47.4473 39.1027 47.627 39.022 47.781C38.2593 47.4437 37.5883 46.9853 37.009 46.406C36.7157 46.6847 36.393 46.9413 36.041 47.176C35.6963 47.4107 35.315 47.6233 34.897 47.814ZM34.193 46.813C34.6037 46.6517 34.9813 46.461 35.326 46.241C35.6707 46.0137 35.9823 45.7643 36.261 45.493C36.0117 45.1263 35.799 44.7303 35.623 44.305C35.447 43.8723 35.3113 43.4103 35.216 42.919H35.172C35.15 43.799 35.062 44.5397 34.908 45.141C34.754 45.7423 34.5157 46.2997 34.193 46.813ZM31.41 45.108H32.235V42.721H31.41V45.108ZM35.183 41.874H36.118V40.29H35.183V41.874ZM37.031 44.569C37.1997 44.3123 37.35 44.0447 37.482 43.766C37.614 43.4873 37.7167 43.205 37.79 42.919H36.338C36.4627 43.5203 36.6937 44.0703 37.031 44.569Z" fill="white"/>
<path d="M43.6218 44.1351L45.6251 37.9471L47.1154 38.4895L44.6724 44.5175L43.6218 44.1351ZM43.179 46.9483C42.9265 46.8564 42.7433 46.6883 42.6293 46.4439C42.5154 46.1995 42.5043 45.9511 42.5962 45.6986C42.6911 45.438 42.8607 45.2507 43.1051 45.1368C43.3495 45.0228 43.5979 45.0118 43.8504 45.1037C44.111 45.1985 44.2982 45.3682 44.4122 45.6125C44.5343 45.8599 44.5479 46.1139 44.4531 46.3745C44.3612 46.6269 44.189 46.8087 43.9364 46.9196C43.6921 47.0336 43.4396 47.0432 43.179 46.9483Z" fill="white"/>
<path d="M47.6218 44.1351L49.6251 37.9471L51.1154 38.4895L48.6724 44.5175L47.6218 44.1351ZM47.179 46.9483C46.9265 46.8564 46.7433 46.6883 46.6293 46.4439C46.5154 46.1995 46.5043 45.9511 46.5962 45.6986C46.6911 45.438 46.8607 45.2507 47.1051 45.1368C47.3495 45.0228 47.5979 45.0118 47.8504 45.1037C48.111 45.1985 48.2982 45.3682 48.4122 45.6125C48.5343 45.8599 48.5479 46.1139 48.4531 46.3745C48.3612 46.6269 48.189 46.8087 47.9364 46.9196C47.6921 47.0336 47.4396 47.0432 47.179 46.9483Z" fill="white"/>
</svg>
