<svg width="1440" height="2780" viewBox="0 0 1440 2780" fill="none" xmlns="http://www.w3.org/2000/svg">
<path d="M82.0312 0.00219727C81.5264 0.0130945 81.041 1.2769 80.5361 1.28735C80.0312 1.2978 79.5264 1.27692 79.0215 1.28735C78.5165 1.2978 77.9816 0.190209 77.4766 0.200439C76.9716 0.21089 76.4863 1.38144 75.9912 1.40259C75.4961 1.42349 74.9611 0.869966 74.4561 0.890869C73.9512 0.911775 73.4463 1.01544 72.9414 1.03638C72.4365 1.05727 71.9609 2.08135 71.4561 2.10278C70.9512 2.12368 70.4062 1.08922 69.9014 1.10962C69.3964 1.13052 68.881 1.1727 68.376 1.1936C67.8711 1.21452 67.376 1.695 66.8711 1.71606C66.3661 1.73697 65.8312 1.29775 65.3262 1.3186C64.8212 1.33951 64.3458 1.99811 63.8408 2.02954C63.3358 2.0609 62.8009 1.62221 62.2959 1.65356C61.791 1.68491 61.2861 1.86239 60.7812 1.8938C60.2762 1.92515 59.7902 2.3224 59.2852 2.35376C58.7803 2.38454 58.2158 1.51773 57.7109 1.54907C57.2061 1.58064 56.7803 2.89742 56.2754 2.92896C55.7704 2.96031 55.2648 3.00209 54.7598 3.03345C54.2549 3.06446 53.71 2.46821 53.2051 2.51001C52.7002 2.55137 52.1357 1.77876 51.6309 1.82056C51.1259 1.86239 50.6407 2.15473 50.1357 2.19653C49.6307 2.23835 49.1554 2.72992 48.6504 2.77173C48.1454 2.81351 47.5909 2.27011 47.0859 2.31177C46.5809 2.35357 46.1056 2.72984 45.6006 2.77173C45.0956 2.81354 44.6299 3.37767 44.1348 3.42993C43.6396 3.48215 43.0753 2.92847 42.5703 2.98071C42.0653 3.03297 41.6193 3.68138 41.1143 3.73364C40.6093 3.78527 39.9756 2.3855 39.4707 2.43774C38.9659 2.49031 38.5896 3.94146 38.0947 3.99438C37.5996 4.04664 37.1436 4.72631 36.6484 4.77856C36.1533 4.83052 35.4404 2.88647 34.9453 2.93872C34.4502 2.991 34.1232 4.90404 33.6182 4.9563C33.1133 5.00848 32.5986 4.91485 32.0938 4.96704C31.5887 5.01929 31.0342 4.62224 30.5391 4.68481C30.0439 4.74752 29.3995 3.56615 28.8945 3.61841C28.3896 3.67109 27.9639 4.47564 27.459 4.53833C26.954 4.60096 26.4188 4.40239 25.9238 4.46509C25.4291 4.52837 25.0331 5.6558 24.5283 5.71899C24.0234 5.78168 23.4688 5.36365 22.9639 5.42603C22.4589 5.48874 22.0029 5.99125 21.5078 6.05396C21.0127 6.11667 20.547 6.53421 20.042 6.59692C19.537 6.65925 18.8934 5.48933 18.3984 5.552C17.9033 5.61471 17.4279 5.94925 16.9229 6.01196C16.418 6.07476 15.9922 6.79574 15.4873 6.85864C14.9823 6.92135 14.3086 5.53128 13.8135 5.59399C13.3184 5.65685 12.9122 6.58695 12.4072 6.64966C11.9023 6.71232 11.3876 6.64978 10.8926 6.7229C10.3975 6.79606 9.89172 6.83792 9.38672 6.90063C8.88196 6.9631 8.34741 6.73262 7.85254 6.79517C7.35742 6.85788 6.8125 6.62796 6.31738 6.69067C5.82227 6.75345 5.49512 8.35257 5 8.41528C4.50488 8.47726 3.80176 6.8477 3.29688 6.9104C2.79199 6.97362 2.46484 8.47856 1.95996 8.54126C1.45496 8.60328 0.821289 7.47466 0.316406 7.53735C-0.188477 7.60008 -0.643799 8.04964 -1.13867 8.11255C-1.63379 8.17526 -2.20886 7.63187 -2.71387 7.69458C-3.21875 7.75756 -3.59485 8.88588 -4.08984 8.95923C-4.58496 9.03239 -5.04102 9.55472 -5.53613 9.61743C-6.03101 9.68022 -6.5061 10.0458 -7.00098 10.1086C-7.49609 10.1713 -8.05078 9.82699 -8.5459 9.87915C-9.04102 9.93141 -9.64551 9.15795 -10.1406 9.21021C-10.6357 9.26241 -11.1708 9.05277 -11.6758 9.11548C-12.1804 9.17865 -12.5764 10.1603 -13.0811 10.2131C-13.5861 10.2654 -14.0721 10.4226 -14.5771 10.4749C-15.0819 10.5273 -15.5372 10.9862 -16.042 11.0491C-16.5469 11.1118 -17.1115 10.548 -17.6064 10.5999C-18.1016 10.6521 -18.6367 10.4539 -19.1318 10.5061C-19.627 10.5584 -20.1815 10.1091 -20.6865 10.1614C-21.1914 10.2137 -21.6173 11.0493 -22.1123 11.1018C-22.6074 11.1541 -23.2217 10.1091 -23.7168 10.1614C-24.2119 10.2137 -24.6875 10.6208 -25.1826 10.6731C-25.6776 10.7254 -26.1729 10.9138 -26.6777 10.9661C-27.1827 11.0182 -27.7274 10.5369 -28.2324 10.5891C-28.7373 10.6415 -29.1729 11.352 -29.6777 11.4045C-30.1826 11.4568 -30.5986 12.5022 -31.1035 12.5549C-31.6084 12.6072 -32.1533 12.1053 -32.6582 12.1467C-33.1632 12.1885 -33.6884 11.9174 -34.1934 11.9592C-34.6984 12.001 -35.1346 12.8998 -35.6396 12.9417C-36.1445 12.9835 -36.6396 13.0874 -37.1445 13.1292C-37.6495 13.1709 -38.1747 12.8996 -38.6797 12.9309C-39.1846 12.9619 -39.7295 12.3976 -40.2344 12.429C-40.7391 12.4606 -41.2042 13.0038 -41.709 13.0354C-42.214 13.0668 -42.7694 12.1466 -43.2744 12.178C-43.7793 12.2098 -44.2148 13.2647 -44.7197 13.2961C-45.2247 13.3275 -45.6903 14.0389 -46.1953 14.0598C-46.7003 14.0807 -47.2255 13.6515 -47.7305 13.6829C-48.2354 13.7143 -48.7305 13.9552 -49.2354 13.9866C-49.7404 14.0179 -50.285 13.2235 -50.79 13.2444C-51.295 13.2652 -51.8397 12.3875 -52.3447 12.4084C-52.8497 12.4294 -53.3055 13.5262 -53.8105 13.5471C-54.3154 13.5681 -54.8105 13.7352 -55.3154 13.7561C-55.8204 13.777 -56.3153 14.0389 -56.8203 14.0598C-57.3253 14.0807 -57.8113 14.5194 -58.3262 14.5403C-58.8408 14.5607 -59.3556 13.799 -59.8604 13.8196C-60.3654 13.8405 -60.8905 12.993 -61.3955 13.0139C-61.9005 13.0349 -62.3856 13.7768 -62.8906 13.7874C-63.3956 13.7978 -63.911 13.0669 -64.416 13.0774C-64.9209 13.0881 -65.4062 13.7984 -65.9111 13.8088C-66.4161 13.8194 -66.9012 14.8644 -67.4062 14.8645C-67.9113 14.8645 -68.4364 12.9094 -68.9414 12.9094C-69.4463 12.9095 -69.9413 13.0139 -70.4561 13.0139C-70.9708 13.0139 -71.4561 14.08 -71.9609 14.0911C-72.4659 14.1015 -72.9716 14.1331 -73.4766 14.1331C-73.9814 14.1331 -74.4863 14.1747 -74.9912 14.1643C-75.4962 14.1539 -75.9921 12.8782 -76.4971 12.8782C-77.002 12.8791 -77.5166 14.6023 -78.0215 14.6028C-78.5265 14.6028 -79.0321 14.8437 -79.5371 14.8333C-80.042 14.8223 -80.5371 13.6103 -81.042 13.5999C-81.5469 13.5894 -82.0518 13.9022 -82.5566 13.8918C-83.0616 13.8814 -83.5868 14.7703 -84.0918 14.76C-84.5968 14.7496 -85.1024 14.5927 -85.6074 14.5823C-86.1122 14.5708 -86.5773 12.7119 -87.082 12.7004C-87.587 12.69 -88.1024 13.1393 -88.6074 13.1184C-89.1124 13.0975 -89.6376 13.7038 -90.1426 13.6829C-90.6475 13.662 -91.1523 13.736 -91.6572 13.7151C-92.1621 13.6942 -92.6572 13.4636 -93.1621 13.4426C-93.667 13.4217 -94.1426 12.6593 -94.6475 12.6379C-95.1523 12.617 -95.6874 13.474 -96.1924 13.4534C-96.6974 13.4325 -97.2128 13.6413 -97.7178 13.6204C-98.1597 13.602 -98.5941 13.3763 -99.0342 13.2991L-99.4111 13.2522C-99.8495 13.1708 -100.278 12.9271 -100.729 12.8997C-101.243 12.8683 -101.738 12.8161 -102.243 12.7952C-102.748 12.7741 -103.214 11.9801 -103.719 11.9592C-104.224 11.9384 -104.738 12.2092 -105.243 12.178C-105.748 12.1466 -106.254 12.1996 -106.759 12.1682C-107.264 12.1371 -107.828 13.2131 -108.333 13.1819C-108.838 13.1505 -109.244 11.6036 -109.749 11.5618C-110.254 11.52 -110.868 13.2752 -111.373 13.2336C-111.878 13.1918 -112.403 13.4535 -112.908 13.4221C-113.413 13.3906 -113.829 12.0423 -114.324 12.011C-114.819 11.9798 -115.403 13.0034 -115.908 12.9622C-116.413 12.9204 -116.869 12.2518 -117.374 12.1995C-117.879 12.1472 -118.433 12.8054 -118.938 12.7532C-119.443 12.7009 -119.84 11.2903 -120.345 11.2483C-120.85 11.2065 -121.394 11.697 -121.899 11.6448C-122.404 11.5926 -122.93 11.8233 -123.435 11.7815C-123.939 11.7399 -124.504 12.4293 -125.009 12.3772C-125.514 12.3249 -125.999 12.0945 -126.504 12.0422C-127.009 11.99 -127.494 11.8016 -127.999 11.7493C-128.504 11.697 -128.871 10.2136 -129.376 10.1614C-129.881 10.1094 -130.495 11.2273 -131 11.175C-131.505 11.1228 -132 11.0281 -132.505 10.9758C-133.01 10.9235 -133.456 10.3494 -133.961 10.2971C-134.466 10.2448 -134.941 9.97339 -135.446 9.92114C-135.951 9.86893 -136.466 9.97306 -136.971 9.9104C-137.476 9.84769 -138.041 10.3806 -138.546 10.3284C-139.051 10.2759 -139.506 9.78464 -140.001 9.72192C-140.434 9.66705 -140.86 9.46015 -141.298 9.37427L-141.675 9.31763C-142.111 9.23372 -142.53 9.03461 -142.972 8.97974C-143.477 8.91703 -144.131 10.2026 -144.626 10.1399C-145.121 10.0767 -145.507 8.9285 -146.012 8.86548C-146.517 8.80278 -146.923 7.9772 -147.428 7.91431C-147.933 7.85161 -148.547 8.78107 -149.052 8.70825C-149.557 8.6351 -150.111 9.00035 -150.616 8.93774C-151.121 8.87503 -151.646 8.96989 -152.142 8.89673C-152.637 8.82355 -153.132 8.59293 -153.627 8.51978C-154.122 8.44625 -154.439 6.85855 -154.944 6.7854C-155.449 6.71292 -156.112 7.96569 -156.617 7.89282C-157.122 7.81967 -157.598 7.56955 -158.103 7.49634C-158.607 7.4232 -159.033 6.77489 -159.538 6.70142C-160.043 6.62825 -160.589 6.93151 -161.094 6.8479C-161.599 6.76392 -162.005 6.00112 -162.51 5.92798C-163.015 5.85592 -163.738 7.43276 -164.232 7.35962C-164.727 7.28609 -165.015 5.60381 -165.52 5.53052C-166.025 5.45736 -166.609 5.9904 -167.114 5.91724C-167.619 5.84398 -168.064 5.38478 -168.569 5.30103C-169.074 5.21741 -170.085 5.78207 -170.59 5.69849V350.167H-171V2779.37H1919V368.716H1919.41L1919.05 333.086C1918.55 333.034 1917.75 333.483 1917.49 334.246C1916.98 334.163 1917.28 333.692 1916.79 333.609C1916.29 333.525 1915.72 333.953 1915.21 333.869C1914.71 333.786 1914.14 334.183 1913.64 334.1C1913.13 334.016 1912.76 333.086 1912.26 333.002C1911.77 332.919 1911.04 334.277 1910.55 334.194C1910.05 334.11 1909.54 334.048 1909.04 333.964C1908.55 333.88 1908.04 333.765 1907.55 333.682C1907.11 333.609 1906.71 333.263 1906.29 333.122L1906.06 333.064C1905.59 332.897 1905.31 331.431 1904.83 331.34C1904.34 331.246 1903.64 332.417 1903.13 332.323C1902.63 332.229 1902.28 331.174 1901.78 331.079C1901.29 330.985 1900.83 330.588 1900.33 330.494C1899.82 330.4 1899.01 332.219 1898.52 332.135C1898.02 332.051 1897.83 330.014 1897.34 329.919C1896.84 329.825 1896.31 329.898 1895.81 329.804C1895.32 329.71 1894.54 331.225 1894.04 331.131C1893.54 331.037 1893.23 329.846 1892.72 329.752C1892.22 329.658 1891.72 329.553 1891.23 329.459C1890.79 329.377 1890.4 329.038 1889.97 328.892L1889.6 328.794C1889.17 328.654 1888.77 328.339 1888.34 328.257C1887.84 328.163 1887.34 328.059 1886.84 327.965C1886.35 327.871 1885.76 328.226 1885.27 328.121C1884.77 328.017 1884.26 327.986 1883.76 327.892C1883.27 327.798 1882.54 328.864 1882.05 328.759C1881.55 328.654 1881.26 327.452 1880.76 327.348C1880.27 327.243 1879.78 327.066 1879.29 326.961C1878.79 326.857 1878.18 327.348 1877.68 327.243C1877.19 327.139 1876.83 326.303 1876.32 326.198C1875.82 326.094 1875.17 326.805 1874.67 326.7C1874.18 326.596 1873.92 325.226 1873.42 325.121C1872.93 325.018 1872.19 326.136 1871.69 326.031C1871.2 325.927 1870.57 326.438 1870.08 326.323C1869.58 326.208 1869.47 324.191 1868.98 324.076C1868.48 323.962 1867.96 323.993 1867.46 323.878C1866.97 323.763 1866.11 325.404 1865.61 325.289C1865.12 325.174 1864.81 324.16 1864.31 324.034C1863.82 323.909 1863.33 323.731 1862.84 323.616C1862.34 323.501 1861.86 323.313 1861.37 323.198C1860.89 323.084 1860.3 323.303 1859.82 323.178C1859.33 323.053 1858.81 323.01 1858.32 322.885C1857.84 322.76 1857.34 322.603 1856.85 322.478C1856.35 322.352 1856.04 321.391 1855.56 321.265C1855.07 321.139 1854.56 321.098 1854.06 320.973C1853.57 320.848 1853.03 320.93 1852.54 320.805C1852.04 320.68 1851.48 320.857 1850.99 320.732C1850.51 320.606 1850.05 320.272 1849.57 320.136C1849.08 320 1848.78 319.091 1848.28 318.955C1847.79 318.819 1846.9 320.314 1846.42 320.178C1845.93 320.042 1845.76 318.6 1845.27 318.464C1844.79 318.328 1843.93 319.635 1843.45 319.499C1842.96 319.363 1842.48 319.164 1841.99 319.029C1841.51 318.893 1841.39 317.262 1840.9 317.126C1840.42 316.991 1839.51 318.474 1839.02 318.328C1838.54 318.182 1838.01 318.161 1837.53 318.015C1837.04 317.868 1836.69 317.21 1836.2 317.064C1835.71 316.917 1835.09 317.251 1834.61 317.115C1834.12 316.979 1833.74 316.395 1833.26 316.248C1832.77 316.102 1832.15 316.447 1831.67 316.301C1831.18 316.155 1831.2 314.158 1830.71 314.012C1830.23 313.866 1829.56 314.398 1829.07 314.241C1828.59 314.085 1827.86 314.785 1827.38 314.628C1826.89 314.471 1826.84 312.778 1826.36 312.621C1825.87 312.465 1825.3 312.621 1824.82 312.454C1824.35 312.287 1823.48 313.426 1823 313.27C1822.52 313.113 1822.11 312.684 1821.62 312.528C1821.14 312.371 1820.75 311.869 1820.28 311.712C1819.8 311.556 1819.17 311.859 1818.69 311.692C1818.22 311.524 1818.17 309.904 1817.69 309.747C1817.22 309.591 1816.17 311.241 1815.69 311.074C1815.22 310.907 1814.99 309.894 1814.51 309.727C1814.04 309.56 1813.79 308.639 1813.31 308.472C1812.82 308.305 1812 309.224 1811.52 309.058C1811.05 308.891 1810.46 309.036 1809.98 308.859C1809.49 308.681 1809.26 307.772 1808.78 307.594C1808.3 307.416 1807.59 307.96 1807.11 307.793C1806.62 307.626 1806.5 306.362 1806.03 306.184C1805.55 306.006 1805.15 305.609 1804.67 305.431C1804.2 305.253 1803.34 306.162 1802.87 305.985C1802.39 305.807 1801.9 305.671 1801.41 305.493C1800.93 305.316 1800.58 304.762 1800.11 304.584C1799.63 304.407 1799.32 303.717 1798.85 303.529C1798.37 303.341 1797.54 304.156 1797.08 303.968C1796.61 303.78 1796.39 302.828 1795.92 302.64C1795.44 302.452 1794.9 302.441 1794.43 302.253C1793.97 302.065 1793.2 302.63 1792.74 302.442C1792.27 302.254 1792.21 300.895 1791.74 300.706C1791.26 300.518 1791.02 299.714 1790.54 299.515C1790.06 299.316 1789.46 299.494 1788.99 299.306C1788.51 299.118 1787.9 299.306 1787.42 299.118C1786.95 298.93 1786.62 298.355 1786.14 298.156C1785.67 297.958 1785.23 297.686 1784.76 297.488C1784.28 297.289 1783.81 297.111 1783.34 296.912C1782.88 296.714 1782.26 296.871 1781.8 296.672C1781.33 296.474 1780.8 296.432 1780.32 296.234C1779.85 296.035 1779.15 296.411 1778.69 296.212C1778.22 296.013 1778.2 294.645 1777.74 294.436C1777.27 294.227 1776.67 294.363 1776.2 294.154C1775.74 293.945 1774.89 294.665 1774.43 294.456C1773.96 294.247 1773.94 292.92 1773.48 292.711C1773.01 292.502 1772.56 292.272 1772.09 292.063C1771.63 291.854 1770.75 292.649 1770.29 292.44C1769.82 292.231 1769.58 291.489 1769.11 291.28C1768.65 291.07 1767.93 291.457 1767.47 291.248C1767 291.039 1766.75 290.297 1766.29 290.077C1765.82 289.858 1765.1 290.286 1764.63 290.077C1764.17 289.868 1763.85 289.293 1763.39 289.084C1762.92 288.875 1762.78 287.883 1762.32 287.663C1761.85 287.444 1760.93 288.332 1760.48 288.113C1760.02 287.893 1760.04 286.513 1759.58 286.304C1759.11 286.095 1758.19 286.983 1757.72 286.764C1757.26 286.544 1756.95 285.959 1756.49 285.75C1756.02 285.541 1755.49 285.468 1755.03 285.248C1754.56 285.029 1754.17 284.674 1753.7 284.454C1753.24 284.235 1753.06 283.358 1752.59 283.138C1752.13 282.918 1751.76 282.489 1751.3 282.27C1750.83 282.051 1750.03 282.656 1749.56 282.437C1749.1 282.217 1748.39 282.573 1747.94 282.354C1747.48 282.134 1747.42 280.943 1746.97 280.734C1746.51 280.525 1746.13 280.106 1745.67 279.887C1745.22 279.668 1744.29 280.566 1743.82 280.347C1743.35 280.127 1743.08 279.5 1742.61 279.281C1742.15 279.061 1741.63 278.978 1741.18 278.758C1740.72 278.539 1740.17 278.528 1739.71 278.309C1739.26 278.089 1738.66 278.173 1738.21 277.953C1737.75 277.734 1737.66 276.615 1737.21 276.406C1736.75 276.197 1736.42 275.654 1735.96 275.435C1735.49 275.216 1734.54 276.187 1734.08 275.978C1733.61 275.769 1733.44 274.86 1732.98 274.651C1732.51 274.442 1732.18 273.908 1731.72 273.689C1731.25 273.469 1731.12 272.477 1730.66 272.268C1730.2 272.059 1729.25 273.02 1728.79 272.811C1728.32 272.602 1728.16 271.651 1727.7 271.442C1727.23 271.233 1726.85 270.836 1726.38 270.627C1725.92 270.418 1725.49 270.115 1725.03 269.906C1724.56 269.697 1723.85 270.125 1723.38 269.906C1722.92 269.686 1722.04 270.512 1721.58 270.303C1721.11 270.094 1721.33 268.192 1720.87 267.983C1720.4 267.774 1719.25 269.309 1718.79 269.101C1718.32 268.892 1717.89 268.63 1717.42 268.432C1716.95 268.233 1716.67 267.564 1716.2 267.365C1715.74 267.167 1715.23 267.073 1714.76 266.874C1714.28 266.676 1713.71 266.791 1713.23 266.593C1712.76 266.395 1712.61 265.381 1712.14 265.182C1711.68 264.983 1710.86 265.704 1710.39 265.505C1709.91 265.307 1709.96 263.77 1709.49 263.572C1709.01 263.373 1708.53 263.238 1708.06 263.039C1707.6 262.841 1707.07 262.798 1706.6 262.6C1706.12 262.401 1705.68 262.171 1705.2 261.973C1704.72 261.775 1704.11 261.994 1703.64 261.806C1703.16 261.618 1702.59 261.722 1702.12 261.533C1701.66 261.345 1701.52 260.217 1701.04 260.029C1700.57 259.841 1699.96 260.05 1699.49 259.862C1699.01 259.673 1698.73 258.931 1698.27 258.743C1697.8 258.555 1697.28 258.503 1696.8 258.315C1696.33 258.126 1695.99 257.552 1695.52 257.374C1695.04 257.197 1693.98 258.732 1693.51 258.555C1693.03 258.377 1692.96 257.019 1692.49 256.841C1692.01 256.663 1691.56 256.392 1691.09 256.214C1690.61 256.036 1690.28 255.43 1689.8 255.252C1689.33 255.075 1688.81 255.023 1688.33 254.856C1687.84 254.688 1686.85 256.13 1686.37 255.952C1685.88 255.775 1685.82 254.343 1685.35 254.176C1684.87 254.009 1684.31 254.103 1683.82 253.936C1683.34 253.769 1683.07 252.943 1682.59 252.776C1682.12 252.609 1681.45 253.016 1680.97 252.849C1680.48 252.682 1679.76 253.339 1679.28 253.172C1678.79 253.005 1678.39 252.608 1677.91 252.441C1677.42 252.273 1677.21 251.26 1676.72 251.103C1676.24 250.946 1675.6 251.323 1675.12 251.166C1674.63 251.009 1674.02 251.302 1673.53 251.145C1673.05 250.988 1672.67 250.497 1672.19 250.34C1671.7 250.183 1671.24 249.932 1670.77 249.776C1670.29 249.619 1669.57 250.288 1669.09 250.131C1668.6 249.974 1668.62 248.052 1668.14 247.895C1667.65 247.738 1667.12 247.759 1666.63 247.613C1666.15 247.466 1665.38 248.313 1664.9 248.166C1664.41 248.02 1664.24 246.703 1663.76 246.557C1663.27 246.411 1662.71 246.557 1662.21 246.421C1661.72 246.285 1660.95 247.226 1660.46 247.079C1659.98 246.933 1659.45 246.933 1658.97 246.786C1658.48 246.64 1658.03 246.337 1657.55 246.191C1657.06 246.044 1656.66 245.616 1656.16 245.47C1655.67 245.324 1655.28 244.842 1654.79 244.706C1654.29 244.571 1653.58 245.365 1653.08 245.23C1652.59 245.094 1652.46 243.557 1651.96 243.421C1651.47 243.285 1650.76 244.1 1650.26 243.975C1649.77 243.849 1649.55 242.606 1649.06 242.47C1648.58 242.334 1648.12 242.042 1647.63 241.916C1647.13 241.791 1646.22 243.442 1645.73 243.317C1645.23 243.191 1644.94 242.22 1644.45 242.094C1643.95 241.969 1643.66 241.018 1643.16 240.892C1642.67 240.766 1642.19 240.599 1641.7 240.474C1641.2 240.348 1640.61 240.673 1640.11 240.547C1639.62 240.422 1638.84 241.561 1638.35 241.436C1637.85 241.31 1637.63 240.035 1637.13 239.92C1636.64 239.805 1636.02 240.275 1635.53 240.15C1635.03 240.024 1634.53 240.004 1634.03 239.889C1633.54 239.774 1633.1 239.408 1632.61 239.293C1632.11 239.178 1631.5 239.669 1631 239.554C1630.51 239.439 1629.99 239.449 1629.5 239.334C1629 239.219 1628.65 238.426 1628.16 238.311C1627.66 238.196 1627.27 237.652 1626.77 237.537C1626.28 237.422 1625.92 236.638 1625.43 236.523C1624.93 236.408 1624.16 237.713 1623.65 237.61C1623.15 237.505 1622.63 237.547 1622.14 237.443C1621.64 237.338 1621.21 236.941 1620.71 236.836C1620.22 236.732 1619.65 237.004 1619.15 236.9C1618.64 236.795 1618.44 235.238 1617.94 235.133C1617.45 235.029 1616.98 234.746 1616.48 234.642C1615.99 234.537 1615.43 234.746 1614.93 234.642C1614.42 234.537 1614.01 234.057 1613.51 233.952C1613.02 233.848 1612.27 235.122 1611.77 235.018C1611.28 234.913 1611.02 233.471 1610.52 233.366C1610.03 233.262 1609.28 234.579 1608.78 234.475C1608.29 234.37 1607.7 234.746 1607.21 234.642C1606.71 234.537 1606.43 233.21 1605.94 233.115C1605.44 233.021 1604.95 232.938 1604.44 232.833C1603.94 232.729 1603.25 233.837 1602.75 233.743C1602.26 233.649 1601.89 232.771 1601.39 232.677C1600.9 232.583 1600.52 231.767 1600.02 231.673C1599.51 231.579 1598.96 231.862 1598.46 231.768C1597.97 231.674 1597.3 232.551 1596.81 232.457C1596.31 232.363 1595.82 232.258 1595.31 232.164C1594.81 232.07 1594.53 230.618 1594.04 230.524C1593.54 230.43 1592.95 230.879 1592.45 230.795C1591.96 230.711 1591.51 230.231 1591.02 230.148C1590.52 230.064 1590 230.138 1589.49 230.054C1588.99 229.97 1588.41 230.42 1587.91 230.336C1587.4 230.253 1587.01 229.458 1586.51 229.374C1586 229.291 1585.58 228.705 1585.07 228.621C1584.57 228.538 1584.05 228.569 1583.56 228.486C1583.06 228.403 1582.29 230.096 1581.8 230.012C1581.3 229.928 1581 228.413 1580.5 228.329C1579.99 228.246 1579.44 228.538 1578.93 228.454C1578.43 228.371 1577.9 228.454 1577.39 228.37C1576.87 228.287 1576.34 228.538 1575.84 228.465C1575.35 228.392 1574.88 227.963 1574.39 227.89C1573.89 227.817 1573.25 228.716 1572.75 228.643C1572.24 228.57 1571.77 228.256 1571.27 228.172C1570.76 228.088 1570.37 227.201 1569.87 227.127C1569.38 227.054 1568.98 226.114 1568.48 226.04C1567.97 225.967 1567.25 227.566 1566.74 227.492C1566.24 227.419 1565.86 226.333 1565.37 226.26C1564.87 226.187 1564.27 226.856 1563.76 226.782C1563.26 226.709 1562.87 225.685 1562.37 225.612C1561.86 225.539 1561.27 226.238 1560.76 226.165C1560.26 226.092 1559.69 226.51 1559.19 226.448C1558.68 226.385 1558.26 225.632 1557.76 225.57C1557.27 225.507 1556.66 226.196 1556.16 226.134C1555.65 226.071 1555.32 224.577 1554.81 224.514C1554.31 224.451 1553.81 224.284 1553.31 224.211C1552.8 224.138 1552.29 224.201 1551.78 224.138C1551.28 224.075 1550.62 225.308 1550.13 225.245C1549.63 225.183 1549.13 225.079 1548.62 225.016C1548.12 224.953 1547.61 224.932 1547.11 224.88C1546.6 224.828 1546.17 224.138 1545.66 224.075C1545.16 224.013 1544.59 224.545 1544.09 224.483C1543.58 224.42 1543.08 224.399 1542.57 224.347C1542.07 224.294 1541.61 223.751 1541.11 223.698C1540.6 223.646 1540.11 223.521 1539.6 223.469C1539.1 223.416 1538.64 222.801 1538.14 222.748C1537.63 222.696 1537.11 222.801 1536.6 222.748C1536.1 222.696 1535.64 222.079 1535.14 222.027C1534.63 221.975 1534.05 222.821 1533.54 222.78C1533.04 222.738 1532.47 223.333 1531.97 223.281C1531.46 223.228 1531.02 222.424 1530.51 222.382C1530.01 222.34 1529.53 221.828 1529.04 221.786C1528.54 221.745 1528 222.017 1527.49 221.975C1526.99 221.933 1526.38 223.082 1525.89 223.03C1525.39 222.977 1524.94 222.173 1524.43 222.131C1523.93 222.089 1523.37 222.664 1522.87 222.622C1522.36 222.581 1521.89 222.162 1521.38 222.12C1520.88 222.079 1520.46 220.637 1519.96 220.606C1519.45 220.575 1518.88 221.557 1518.37 221.515C1517.87 221.473 1517.3 222.267 1516.81 222.225C1516.31 222.183 1515.88 220.774 1515.37 220.741C1514.87 220.71 1514.27 222.078 1513.77 222.047C1513.26 222.016 1512.85 220.396 1512.34 220.365C1511.84 220.333 1511.27 221.347 1510.77 221.326C1510.26 221.305 1509.8 220.376 1509.29 220.344C1508.79 220.313 1508.27 220.459 1507.77 220.438C1507.26 220.417 1506.73 220.825 1506.23 220.804C1505.74 220.783 1505.19 221.254 1504.69 221.233C1504.18 221.212 1503.7 220.658 1503.19 220.637C1502.69 220.616 1502.2 219.884 1501.7 219.864C1501.19 219.843 1500.67 220.051 1500.17 220.031C1499.67 220.009 1499.16 219.716 1498.66 219.696C1498.15 219.675 1497.63 220.208 1497.12 220.187C1496.62 220.166 1496.12 219.644 1495.62 219.633C1495.11 219.623 1494.61 219.466 1494.1 219.455C1493.6 219.445 1493.07 220.103 1492.57 220.082C1492.06 220.061 1491.54 220.971 1491.03 220.96C1490.53 220.95 1490.02 220.961 1489.52 220.94C1489.01 220.919 1488.51 219.853 1488.01 219.853C1487.5 219.853 1486.99 219.915 1486.49 219.905C1485.98 219.894 1485.47 219.644 1484.97 219.644C1484.46 219.644 1483.95 219.519 1483.46 219.508C1482.96 219.498 1482.43 219.539 1481.93 219.539C1481.42 219.54 1480.92 220.877 1480.42 220.877C1479.91 220.877 1479.41 221.097 1478.9 221.097C1478.4 221.097 1477.88 219.655 1477.38 219.655C1476.87 219.655 1476.38 221.002 1475.87 221.002C1475.37 221.002 1474.85 220.302 1474.34 220.313C1473.84 220.323 1473.33 220.187 1472.83 220.198C1472.33 220.208 1471.82 220.595 1471.32 220.606C1470.83 220.616 1470.32 221.096 1469.82 221.107C1469.31 221.117 1468.77 219.78 1468.26 219.79C1467.76 219.801 1467.27 220.762 1466.77 220.773C1466.26 220.783 1465.76 220.908 1465.25 220.929C1464.75 220.949 1464.18 219.425 1463.68 219.446C1463.17 219.467 1462.73 221.17 1462.21 221.191C1461.7 221.212 1461.2 221.243 1460.7 221.264C1460.19 221.285 1459.68 221.243 1459.17 221.264C1458.67 221.284 1458.1 220.156 1457.6 220.177C1457.09 220.198 1456.63 221.086 1456.12 221.107C1455.62 221.128 1455.1 221.107 1454.6 221.128C1454.09 221.149 1453.57 220.929 1453.06 220.96C1452.56 220.992 1452.11 222.027 1451.61 222.058C1451.17 222.085 1450.71 221.857 1450.26 221.827L1449.88 221.829C1449.44 221.8 1448.98 221.57 1448.54 221.598C1448.03 221.629 1447.57 222.247 1447.06 222.288C1446.56 222.33 1446.03 222.131 1445.53 222.173C1445.02 222.215 1444.47 221.598 1443.96 221.629C1443.46 221.661 1443 222.351 1442.5 222.393C1441.99 222.435 1441.38 221.097 1440.88 221.138C1440.37 221.18 1439.9 221.796 1439.41 221.838C1438.91 221.88 1438.37 221.536 1437.86 221.577C1437.36 221.619 1436.84 221.525 1436.34 221.577C1435.83 221.63 1435.43 222.852 1434.93 222.905C1434.44 222.957 1433.88 222.581 1433.39 222.633C1432.89 222.685 1432.31 221.954 1431.8 222.006C1431.3 222.058 1430.8 222.236 1430.31 222.288C1429.81 222.341 1429.34 222.768 1428.83 222.821C1428.33 222.873 1427.91 223.835 1427.42 223.898C1426.92 223.96 1426.28 222.644 1425.77 222.706C1425.27 222.769 1424.89 224.033 1424.39 224.085C1423.88 224.137 1423.23 222.748 1422.72 222.8C1422.22 222.852 1421.85 224.242 1421.35 224.305C1420.84 224.367 1420.21 223.155 1419.7 223.218C1419.2 223.281 1418.72 223.647 1418.23 223.709C1417.73 223.772 1417.24 224.013 1416.74 224.075C1416.25 224.138 1415.74 224.264 1415.24 224.326C1414.73 224.389 1414.24 224.546 1413.74 224.609C1413.25 224.671 1412.86 225.789 1412.36 225.852C1411.85 225.914 1411.35 225.894 1410.84 225.956C1410.34 226.019 1409.79 225.674 1409.29 225.737C1408.78 225.799 1408.16 224.808 1407.65 224.88C1407.15 224.953 1406.79 226.218 1406.29 226.281C1405.78 226.343 1405.28 226.354 1404.77 226.416C1404.27 226.479 1403.61 225.183 1403.11 225.256C1402.6 225.329 1402.2 226.145 1401.69 226.207C1401.19 226.27 1400.66 226.082 1400.16 226.145C1399.65 226.208 1399.29 227.451 1398.79 227.514C1398.28 227.577 1397.75 227.294 1397.24 227.357C1396.74 227.419 1396.22 227.347 1395.73 227.409C1395.23 227.472 1394.69 227.231 1394.19 227.294C1393.7 227.357 1393.13 226.834 1392.62 226.897C1392.12 226.959 1391.7 227.722 1391.19 227.785C1390.69 227.848 1390.19 227.953 1389.7 228.016C1389.2 228.079 1388.68 227.994 1388.17 228.057C1387.67 228.12 1387.09 227.535 1386.6 227.597C1386.1 227.66 1385.62 227.911 1385.12 227.974C1384.63 228.037 1384.08 227.775 1383.59 227.838C1383.09 227.901 1382.75 229.427 1382.25 229.49C1381.76 229.552 1381.12 228.476 1380.63 228.538C1380.13 228.601 1379.76 229.875 1379.25 229.928C1378.75 229.98 1378.21 229.73 1377.72 229.792C1377.22 229.855 1376.72 229.96 1376.22 230.012C1375.73 230.064 1375.21 230.054 1374.71 230.116C1374.2 230.179 1373.71 230.231 1373.2 230.283C1372.7 230.336 1372.12 229.656 1371.63 229.708C1371.13 229.761 1370.73 230.879 1370.23 230.942C1369.74 231.004 1369.1 229.667 1368.6 229.719C1368.09 229.771 1367.75 231.411 1367.24 231.464C1366.74 231.516 1366.09 229.991 1365.6 230.032C1365.1 230.075 1364.64 230.629 1364.14 230.681C1363.65 230.733 1363.16 231.026 1362.66 231.068C1362.15 231.109 1361.61 230.566 1361.1 230.608C1360.6 230.649 1360.21 232.06 1359.7 232.102C1359.2 232.144 1358.71 232.353 1358.21 232.395C1357.7 232.437 1357.17 232.018 1356.66 232.06C1356.16 232.102 1355.59 231.245 1355.09 231.286C1354.58 231.328 1354.09 231.37 1353.58 231.402C1353.08 231.433 1352.64 232.395 1352.14 232.426C1351.63 232.457 1351.06 231.382 1350.55 231.412C1350.05 231.444 1349.59 232.186 1349.09 232.217C1348.58 232.248 1348.12 232.813 1347.61 232.844C1347.11 232.875 1346.6 232.845 1346.1 232.865C1345.59 232.886 1345.01 231.36 1344.5 231.391C1344 231.422 1343.52 231.861 1343.02 231.882C1342.51 231.903 1342.09 233.481 1341.58 233.513C1341.08 233.544 1340.56 233.241 1340.06 233.262C1339.55 233.283 1339.05 233.168 1338.54 233.189C1338.04 233.21 1337.5 232.458 1337 232.479C1336.49 232.5 1336.03 233.607 1335.52 233.628C1335.02 233.649 1334.47 232.269 1333.97 232.29C1333.46 232.311 1333 233.429 1332.49 233.44C1331.99 233.45 1331.5 234.025 1331 234.035C1330.49 234.046 1329.98 233.618 1329.47 233.628C1328.97 233.639 1328.47 233.931 1327.97 233.942C1327.46 233.952 1326.95 233.106 1326.43 233.106C1325.92 233.106 1325.43 233.534 1324.93 233.544C1324.42 233.555 1323.91 232.239 1323.4 232.248C1322.9 232.259 1322.4 232.792 1321.9 232.802C1321.39 232.813 1320.9 233.774 1320.39 233.784C1319.89 233.795 1319.38 232.322 1318.88 232.322C1318.37 232.322 1317.87 233.461 1317.36 233.461C1316.86 233.461 1316.35 233.44 1315.85 233.44C1315.34 233.44 1314.85 232.677 1314.34 232.666C1313.87 232.657 1313.39 233.051 1312.92 233.092L1312.73 233.098C1312.26 233.132 1311.78 233.471 1311.31 233.461C1310.81 233.45 1310.32 232.541 1309.81 232.541C1309.29 232.541 1308.79 233.032 1308.28 233.022C1307.78 233.011 1307.29 232.279 1306.79 232.269C1306.28 232.259 1305.76 233.136 1305.25 233.115C1304.75 233.095 1304.23 233.545 1303.73 233.524C1303.22 233.503 1302.72 233.378 1302.21 233.357C1301.71 233.336 1301.23 232.49 1300.73 232.479C1300.22 232.468 1299.71 232.395 1299.21 232.374C1298.71 232.353 1298.19 232.687 1297.69 232.666C1297.18 232.645 1296.67 232.98 1296.16 232.959C1295.66 232.938 1295.15 232.949 1294.65 232.917C1294.14 232.886 1293.62 233.273 1293.11 233.252C1292.61 233.231 1292.17 231.704 1291.66 231.673C1291.16 231.642 1290.65 231.726 1290.15 231.695C1289.64 231.663 1289.06 233.22 1288.55 233.189C1288.05 233.157 1287.54 233.158 1287.04 233.126C1286.54 233.095 1286.05 232.792 1285.54 232.761C1285.04 232.73 1284.55 232.51 1284.05 232.479C1283.54 232.447 1283.14 230.922 1282.63 230.89C1282.13 230.859 1281.5 232.696 1281 232.656C1280.49 232.614 1280.08 231.36 1279.57 231.319C1279.07 231.277 1278.61 230.608 1278.11 230.576C1277.6 230.545 1276.99 232.039 1276.48 231.997C1275.98 231.956 1275.48 231.819 1274.98 231.778C1274.47 231.735 1274.02 231.099 1273.51 231.046C1273.01 230.994 1272.46 231.527 1271.96 231.486C1271.45 231.444 1270.94 231.6 1270.43 231.548C1269.93 231.496 1269.56 229.866 1269.06 229.813C1268.55 229.76 1268.03 230.074 1267.52 230.032C1267.02 229.991 1266.55 229.573 1266.05 229.521C1265.54 229.469 1265.05 229.364 1264.54 229.312C1264.04 229.26 1263.44 230.252 1262.94 230.199C1262.43 230.147 1261.98 229.667 1261.46 229.615C1260.95 229.562 1260.36 230.461 1259.86 230.408C1259.35 230.356 1258.91 229.729 1258.4 229.677C1257.9 229.625 1257.3 230.493 1256.8 230.441C1256.29 230.388 1255.89 229.353 1255.38 229.301C1254.88 229.249 1254.35 229.385 1253.85 229.332C1253.34 229.279 1252.97 228.089 1252.46 228.026C1251.96 227.963 1251.34 229.04 1250.84 228.988C1250.33 228.935 1249.93 228.068 1249.42 228.005C1248.92 227.942 1248.45 227.566 1247.96 227.503C1247.46 227.441 1246.82 228.559 1246.31 228.496C1245.81 228.434 1245.38 227.775 1244.88 227.712C1244.37 227.649 1243.76 228.547 1243.25 228.475C1242.75 228.402 1242.26 228.183 1241.77 228.11C1241.27 228.036 1240.89 226.876 1240.39 226.814C1239.88 226.751 1239.18 228.318 1238.68 228.245C1238.17 228.172 1237.71 227.848 1237.2 227.775C1236.7 227.701 1236.4 226.092 1235.89 226.019C1235.39 225.946 1234.87 226.061 1234.37 225.988C1233.86 225.914 1233.35 225.967 1232.84 225.894C1232.34 225.821 1231.84 225.747 1231.34 225.674C1230.83 225.601 1230.35 225.433 1229.84 225.35C1229.34 225.266 1228.63 226.792 1228.12 226.719C1227.62 226.646 1227.14 226.364 1226.63 226.291C1226.13 226.218 1225.67 225.8 1225.17 225.716C1224.66 225.632 1224.26 224.911 1223.75 224.827C1223.25 224.744 1222.66 225.194 1222.16 225.12C1221.65 225.047 1221.24 224.347 1220.74 224.274C1220.25 224.201 1219.79 223.741 1219.3 223.657C1218.8 223.574 1218.26 223.751 1217.76 223.667C1217.27 223.584 1216.67 224.096 1216.18 224.013C1215.68 223.929 1215.13 224.148 1214.63 224.065C1214.14 223.981 1213.59 224.148 1213.1 224.065C1212.6 223.981 1212.22 223.103 1211.72 223.02C1211.23 222.937 1210.55 223.928 1210.06 223.845C1209.56 223.761 1209.06 223.657 1208.56 223.573C1208.07 223.49 1207.77 222.017 1207.28 221.922C1206.78 221.828 1206.23 222.048 1205.72 221.964C1205.22 221.881 1204.6 222.507 1204.1 222.413C1203.59 222.319 1203.25 221.275 1202.75 221.18C1202.26 221.086 1201.73 221.128 1201.23 221.033C1200.72 220.939 1200.3 220.354 1199.81 220.26C1199.31 220.166 1198.72 220.616 1198.21 220.522C1197.71 220.427 1197.29 219.853 1196.8 219.759C1196.3 219.665 1195.71 220.062 1195.21 219.968C1194.72 219.874 1194.02 220.887 1193.52 220.793C1193.03 220.699 1192.75 219.298 1192.25 219.204C1191.76 219.11 1191.08 219.958 1190.59 219.864C1190.09 219.769 1189.77 218.682 1189.27 218.577C1188.78 218.473 1188.15 219.016 1187.66 218.922C1187.16 218.828 1186.77 218.149 1186.26 218.044C1185.76 217.94 1185.16 218.368 1184.67 218.264C1184.17 218.159 1183.81 217.324 1183.31 217.219C1182.82 217.115 1182.26 217.292 1181.77 217.177C1181.27 217.062 1180.76 217.062 1180.26 216.948C1179.77 216.832 1179.32 216.424 1178.83 216.32C1178.33 216.215 1177.75 216.529 1177.25 216.425C1176.76 216.321 1176.36 215.693 1175.87 215.578C1175.37 215.463 1174.67 216.352 1174.17 216.247C1173.68 216.143 1173.39 214.961 1172.9 214.846C1172.42 214.732 1171.67 215.818 1171.17 215.714C1170.68 215.61 1170.13 215.683 1169.65 215.568C1169.16 215.453 1168.62 215.494 1168.12 215.379C1167.63 215.264 1167.22 214.689 1166.74 214.574C1166.25 214.46 1165.94 213.393 1165.46 213.268C1164.97 213.142 1164.45 213.132 1163.95 213.017C1163.46 212.902 1162.77 213.634 1162.28 213.509C1161.78 213.384 1161.23 213.508 1160.74 213.383C1160.26 213.257 1160.14 211.44 1159.65 211.314C1159.15 211.188 1158.46 211.951 1157.96 211.825C1157.47 211.7 1156.8 212.296 1156.32 212.171C1155.83 212.046 1155.51 211.178 1155.01 211.042C1154.52 210.906 1154.07 210.614 1153.58 210.478C1153.08 210.342 1152.34 211.261 1151.85 211.136C1151.37 211.01 1151.3 209.088 1150.81 208.962C1150.33 208.837 1149.37 210.582 1148.88 210.447C1148.4 210.31 1148.36 208.314 1147.87 208.178C1147.39 208.042 1146.87 207.98 1146.39 207.844C1145.9 207.708 1145.06 208.952 1144.56 208.816C1144.07 208.68 1143.71 208.042 1143.23 207.906C1142.74 207.77 1142.45 206.83 1141.97 206.694C1141.48 206.558 1141 206.391 1140.51 206.244C1140.03 206.098 1139.6 205.722 1139.12 205.575C1138.63 205.43 1137.81 206.516 1137.33 206.37C1136.84 206.224 1136.5 205.524 1136.02 205.377C1135.53 205.231 1134.96 205.377 1134.47 205.241C1133.99 205.106 1133.52 204.855 1133.04 204.708C1132.55 204.562 1132.31 203.517 1131.83 203.37C1131.34 203.224 1130.84 203.15 1130.35 203.004C1129.87 202.858 1129.02 203.967 1128.53 203.81C1128.05 203.653 1127.48 203.767 1127 203.611C1126.51 203.454 1126.49 201.72 1126.01 201.563C1125.52 201.406 1124.58 202.784 1124.1 202.628C1123.61 202.471 1123.47 201.176 1122.99 201.019C1122.5 200.862 1122.1 200.465 1121.61 200.298C1121.13 200.131 1120.53 200.35 1120.06 200.183C1119.58 200.016 1118.69 201.155 1118.21 200.988C1117.74 200.82 1117.74 199.106 1117.25 198.939C1116.77 198.772 1116.04 199.43 1115.55 199.263C1115.06 199.096 1114.58 198.95 1114.1 198.782C1113.63 198.615 1112.98 198.918 1112.51 198.751C1112.03 198.584 1111.91 197.298 1111.43 197.12C1110.94 196.943 1110.36 197.12 1109.89 196.943C1109.41 196.765 1109.14 195.94 1108.67 195.762C1108.19 195.584 1107.59 195.782 1107.1 195.605C1106.62 195.427 1106.24 194.968 1105.77 194.78C1105.29 194.591 1104.94 194.026 1104.47 193.838C1103.99 193.65 1102.88 195.291 1102.41 195.103C1101.93 194.915 1102.08 192.94 1101.61 192.751C1101.13 192.563 1100.2 193.681 1099.73 193.493C1099.25 193.305 1098.59 193.65 1098.11 193.462C1097.64 193.274 1097.5 192.145 1097.02 191.947C1096.55 191.748 1096.38 190.714 1095.91 190.526C1095.45 190.338 1094.76 190.714 1094.29 190.526C1093.81 190.338 1093.44 189.888 1092.96 189.69C1092.49 189.491 1091.75 190.014 1091.28 189.825C1090.8 189.638 1090.15 189.919 1089.68 189.721C1089.22 189.522 1088.71 189.396 1088.25 189.198C1087.78 188.999 1087.66 187.86 1087.2 187.661C1086.73 187.463 1086.33 187.077 1085.86 186.878C1085.4 186.68 1084.79 186.804 1084.33 186.606C1083.86 186.407 1083.65 185.508 1083.19 185.31C1082.72 185.111 1082.13 185.226 1081.66 185.017C1081.2 184.809 1080.21 185.906 1079.74 185.707C1079.28 185.509 1079.36 183.909 1078.89 183.7C1078.43 183.491 1078 183.178 1077.53 182.969C1077.07 182.76 1076.7 182.31 1076.24 182.101C1075.77 181.892 1075.08 182.258 1074.61 182.049C1074.15 181.84 1073.91 181.077 1073.44 180.868C1072.98 180.659 1071.97 181.777 1071.5 181.569C1071.04 181.36 1070.46 181.401 1070 181.182C1069.53 180.962 1069.09 180.711 1068.62 180.491C1068.16 180.272 1068.19 178.872 1067.72 178.653C1067.26 178.433 1066.2 179.655 1065.74 179.436C1065.28 179.216 1065.5 177.356 1065.04 177.137C1064.57 176.918 1063.64 177.826 1063.18 177.617C1062.71 177.408 1062.62 176.29 1062.16 176.081C1061.69 175.873 1060.72 176.876 1060.25 176.656C1059.79 176.437 1059.67 175.413 1059.21 175.203C1058.74 174.994 1058.62 173.97 1058.16 173.75C1057.69 173.531 1057.24 173.28 1056.79 173.061C1056.33 172.842 1055.22 174.147 1054.76 173.928C1054.29 173.708 1054.14 172.768 1053.68 172.548C1053.21 172.328 1052.98 171.597 1052.51 171.388C1052.05 171.179 1051.23 171.807 1050.77 171.587C1050.3 171.368 1049.55 171.848 1049.09 171.629C1048.64 171.41 1048.47 170.479 1048.01 170.26C1047.56 170.041 1047.18 169.622 1046.72 169.403C1046.25 169.183 1045.92 168.681 1045.45 168.472C1044.98 168.263 1044.57 167.929 1044.11 167.72C1043.66 167.511 1042.89 167.981 1042.44 167.762C1041.98 167.542 1041.59 167.155 1041.13 166.936C1040.68 166.716 1040.17 166.601 1039.71 166.382C1039.24 166.163 1038.63 166.33 1038.16 166.111C1037.7 165.891 1037.1 166.006 1036.65 165.786C1036.19 165.567 1035.9 164.919 1035.45 164.699C1034.99 164.48 1034.81 163.602 1034.34 163.393C1033.87 163.184 1032.97 164.061 1032.51 163.842C1032.04 163.623 1031.71 163.132 1031.24 162.912C1030.77 162.693 1030.2 162.766 1029.74 162.557C1029.27 162.348 1029.14 161.335 1028.68 161.125C1028.21 160.916 1027.61 161.062 1027.14 160.853C1026.68 160.644 1026.36 160.09 1025.89 159.881C1025.43 159.672 1024.64 160.31 1024.17 160.101C1023.7 159.892 1023.24 159.703 1022.77 159.494C1022.31 159.285 1022.55 157.299 1022.08 157.101C1021.61 156.902 1021.01 157.048 1020.55 156.85C1020.08 156.651 1019.27 157.331 1018.8 157.122C1018.34 156.913 1017.71 157.143 1017.24 156.945C1016.76 156.746 1016.42 156.255 1015.95 156.056C1015.49 155.857 1015.48 154.415 1015.02 154.216C1014.55 154.019 1013.46 155.501 1012.98 155.303C1012.51 155.104 1012.69 153.181 1012.22 152.983C1011.74 152.784 1011.33 152.461 1010.86 152.262C1010.4 152.063 1009.34 153.485 1008.86 153.286C1008.39 153.088 1008.28 151.927 1007.81 151.729C1007.35 151.53 1006.93 151.196 1006.45 151.008C1005.98 150.82 1005.18 151.561 1004.7 151.373C1004.23 151.185 1003.96 150.423 1003.49 150.235C1003.03 150.046 1002.77 149.231 1002.29 149.043C1001.82 148.855 1000.82 150.202 1000.34 150.015C999.87 149.827 999.968 147.999 999.493 147.81C999.018 147.622 998.037 148.938 997.562 148.75C997.086 148.562 996.819 147.788 996.344 147.611C995.869 147.433 995.551 146.785 995.076 146.608C994.601 146.43 994.224 145.939 993.749 145.772C993.274 145.605 992.561 146.127 992.086 145.949C991.611 145.772 990.799 146.618 990.323 146.45C989.848 146.283 989.986 144.203 989.501 144.026C989.016 143.848 988.313 144.412 987.828 144.245C987.343 144.078 986.738 144.339 986.253 144.172C985.768 144.005 985.362 143.619 984.887 143.451C984.411 143.284 984.085 142.604 983.609 142.448C983.134 142.291 982.342 143.148 981.856 142.981C981.371 142.813 981.292 141.34 980.807 141.183C980.322 141.026 979.876 140.765 979.391 140.598C978.905 140.431 978.311 140.681 977.826 140.525C977.341 140.368 976.698 140.754 976.223 140.598C975.747 140.441 975.321 140.075 974.836 139.918C974.351 139.762 973.599 140.556 973.113 140.4C972.628 140.243 972.637 138.361 972.152 138.204C971.667 138.048 970.846 139.103 970.36 138.957C969.875 138.811 969.578 137.985 969.093 137.838C968.608 137.692 968.201 137.264 967.706 137.117C967.211 136.971 966.488 137.734 966.003 137.588C965.518 137.442 965.201 136.689 964.706 136.542C964.211 136.396 963.398 137.504 962.913 137.368C962.428 137.233 961.923 137.169 961.428 137.033C960.933 136.897 960.824 135.331 960.329 135.195C959.834 135.059 959.349 134.944 958.854 134.808C958.358 134.672 957.724 135.131 957.239 134.995C956.754 134.859 956.091 135.413 955.605 135.278C955.12 135.142 954.675 134.839 954.18 134.703C953.685 134.568 953.159 134.609 952.674 134.473C952.189 134.337 951.901 133.365 951.406 133.24C950.911 133.114 950.654 132.017 950.169 131.881C949.684 131.745 949.179 131.651 948.684 131.526C948.188 131.4 947.584 131.787 947.089 131.652C946.594 131.516 945.842 132.57 945.347 132.446C944.852 132.32 944.336 132.331 943.841 132.205C943.346 132.079 943.207 130.397 942.712 130.272C942.217 130.147 941.484 131.118 940.999 131.003C940.514 130.888 940.009 130.825 939.514 130.71C939.019 130.595 938.612 130.115 938.117 129.99C937.622 129.864 936.999 130.397 936.504 130.272C936.009 130.146 935.682 129.31 935.187 129.195C934.692 129.08 934.117 129.373 933.622 129.258C933.127 129.143 932.553 129.435 932.058 129.321C931.563 129.206 931.216 128.391 930.721 128.276C930.226 128.161 929.602 128.693 929.106 128.578C928.611 128.463 928.334 127.272 927.839 127.167C927.344 127.063 926.868 126.865 926.373 126.76C925.878 126.655 925.462 126.143 924.967 126.038C924.472 125.934 923.928 126.069 923.433 125.965C922.938 125.861 922.185 127.105 921.689 127C921.194 126.896 920.788 126.352 920.283 126.247C919.778 126.143 919.441 125.223 918.946 125.118C918.451 125.014 918.016 124.596 917.511 124.491C917.006 124.387 916.382 125.046 915.877 124.942C915.372 124.837 914.985 124.168 914.49 124.064C913.995 123.959 913.312 124.889 912.816 124.795C912.322 124.701 912.005 123.572 911.5 123.478C910.995 123.384 910.431 123.708 909.936 123.604C909.44 123.499 909.073 122.653 908.578 122.548C908.083 122.444 907.311 123.926 906.816 123.833C906.321 123.739 906.083 122.12 905.578 122.026C905.073 121.932 904.459 122.589 903.954 122.495C903.449 122.401 903.033 121.858 902.528 121.764C902.023 121.67 901.479 121.868 900.983 121.784C900.488 121.701 899.914 122.067 899.409 121.984C898.904 121.9 898.319 122.39 897.814 122.307C897.31 122.223 896.913 121.503 896.418 121.408C895.923 121.314 895.537 120.499 895.032 120.415C894.527 120.332 893.913 121.032 893.408 120.948C892.903 120.865 892.418 120.698 891.923 120.615C891.428 120.531 890.814 121.189 890.309 121.106C889.804 121.022 889.299 121.012 888.794 120.928C888.289 120.844 887.902 120.029 887.397 119.946C886.893 119.862 886.546 118.786 886.041 118.701C885.536 118.618 885.04 118.524 884.535 118.441C884.03 118.358 883.327 119.684 882.822 119.601C882.317 119.517 882.02 117.961 881.516 117.876C881.011 117.793 880.297 119.245 879.802 119.161C879.307 119.077 878.98 117.688 878.485 117.615C877.99 117.541 877.366 118.241 876.871 118.168C876.376 118.095 875.92 117.562 875.425 117.479C874.93 117.395 874.386 117.562 873.881 117.479C873.376 117.395 872.88 117.27 872.375 117.197C871.87 117.123 871.425 116.612 870.92 116.538C870.415 116.465 869.84 116.914 869.345 116.841C868.85 116.768 868.325 116.799 867.82 116.726C867.315 116.653 866.81 116.601 866.305 116.528C865.8 116.455 865.275 116.559 864.771 116.486C864.266 116.412 863.869 115.462 863.364 115.399C862.859 115.336 862.384 114.991 861.879 114.918C861.374 114.845 860.77 115.628 860.265 115.566C859.76 115.503 859.146 116.371 858.641 116.308C858.136 116.245 857.789 114.793 857.284 114.73C856.779 114.667 856.215 115.074 855.72 115.012C855.225 114.949 854.719 114.834 854.214 114.772C853.709 114.709 853.184 114.855 852.68 114.792C852.175 114.73 851.738 114.019 851.233 113.956C850.728 113.894 850.095 115.054 849.59 114.991C849.085 114.929 848.619 114.458 848.114 114.406C847.609 114.353 847.035 114.939 846.54 114.887C846.045 114.835 845.658 113.424 845.163 113.371C844.668 113.319 844.094 113.873 843.589 113.821C843.084 113.768 842.568 113.821 842.063 113.758C841.559 113.696 841.004 114.218 840.499 114.165C839.994 114.113 839.539 113.496 839.034 113.454C838.529 113.413 838.014 113.434 837.509 113.382C837.004 113.33 836.449 113.81 835.944 113.769C835.439 113.727 835.072 112.055 834.567 112.013C834.062 111.971 833.488 112.765 832.983 112.723C832.478 112.681 831.943 112.932 831.438 112.88C830.933 112.828 830.389 113.33 829.884 113.278C829.379 113.225 828.933 112.4 828.429 112.358C827.924 112.316 827.408 112.389 826.903 112.347C826.398 112.305 825.973 111.083 825.468 111.04C824.963 110.998 824.328 112.796 823.823 112.754C823.318 112.712 822.833 112.368 822.328 112.336C821.823 112.305 821.328 112.085 820.823 112.054C820.318 112.023 819.774 112.535 819.269 112.504C818.764 112.473 818.318 111.407 817.812 111.375C817.308 111.344 816.772 111.762 816.268 111.731C815.763 111.699 815.258 111.668 814.753 111.647C814.248 111.626 813.812 110.215 813.308 110.194C812.803 110.173 812.228 111.532 811.723 111.511C811.218 111.49 810.733 110.915 810.228 110.894C809.723 110.873 809.207 111.04 808.702 111.009C808.197 110.978 807.692 110.841 807.188 110.821C806.682 110.8 806.197 110.225 805.692 110.204C805.187 110.183 804.643 111.156 804.138 111.135C803.633 111.114 803.147 110.424 802.643 110.413C802.138 110.403 801.612 110.758 801.107 110.738C800.603 110.717 800.098 110.508 799.593 110.497C799.088 110.487 798.582 110.246 798.077 110.236C797.572 110.225 797.057 110.204 796.562 110.194C796.067 110.183 795.552 110.068 795.047 110.058C794.542 110.048 794.017 111.177 793.512 111.166C793.007 111.156 792.502 111.166 791.997 111.166C791.492 111.166 790.997 109.525 790.492 109.525C789.987 109.525 789.472 109.807 788.967 109.807C788.462 109.807 787.947 109.891 787.442 109.891C786.937 109.891 786.422 109.577 785.917 109.577C785.412 109.577 784.897 109.64 784.392 109.64C783.887 109.641 783.382 111.24 782.877 111.24C782.372 111.239 781.857 109.849 781.352 109.849C780.847 109.849 780.332 109.713 779.827 109.724C779.322 109.734 778.827 110.904 778.322 110.915C777.817 110.926 777.292 110.194 776.797 110.204C776.302 110.215 775.787 110.424 775.282 110.445C774.777 110.465 774.281 111.041 773.776 111.051C773.271 111.061 772.767 111.009 772.262 111.02C771.757 111.03 771.262 111.573 770.757 111.594C770.252 111.615 769.746 111.521 769.241 111.531C768.736 111.542 768.201 110.967 767.696 110.978C767.191 110.988 766.656 110.341 766.151 110.362C765.646 110.383 765.161 111.072 764.656 111.093C764.151 111.114 763.597 110.162 763.092 110.194C762.587 110.225 762.072 110.257 761.567 110.288C761.062 110.32 760.597 111.27 760.092 111.302C759.587 111.333 759.062 111.135 758.557 111.166C758.052 111.198 757.526 110.873 757.021 110.905C756.517 110.936 756.061 111.959 755.557 111.991C755.052 112.023 754.467 110.769 753.962 110.8C753.457 110.831 753.001 111.751 752.496 111.782C751.991 111.814 751.437 111.156 750.932 111.198C750.427 111.239 750.021 112.691 749.516 112.723C749.011 112.754 748.506 112.828 748.001 112.869C747.496 112.911 746.911 111.867 746.406 111.908C745.901 111.95 745.337 111.25 744.832 111.291C744.327 111.333 743.96 113.173 743.455 113.225C742.95 113.277 742.376 112.441 741.871 112.483C741.366 112.524 740.831 112.19 740.326 112.242C739.821 112.295 739.415 113.476 738.91 113.518C738.405 113.56 737.86 113.11 737.355 113.162C736.85 113.215 736.276 112.472 735.771 112.525C735.266 112.577 734.82 113.246 734.315 113.298C733.81 113.35 733.395 114.259 732.89 114.312C732.385 114.364 731.751 113.027 731.246 113.078C730.741 113.131 730.245 113.246 729.74 113.309C729.235 113.372 728.819 114.26 728.314 114.323C727.81 114.385 727.166 113.069 726.661 113.12C726.156 113.173 725.681 113.548 725.176 113.601C724.671 113.653 724.314 115.075 723.809 115.138C723.304 115.2 722.769 114.971 722.265 115.033C721.76 115.096 721.304 115.535 720.799 115.587C720.294 115.639 719.788 115.681 719.283 115.743C718.778 115.806 718.184 115.054 717.689 115.116C717.194 115.179 716.709 115.451 716.204 115.514C715.699 115.577 715.253 116.151 714.758 116.214C714.263 116.276 713.579 114.803 713.074 114.865C712.57 114.929 712.174 115.869 711.669 115.932C711.164 115.995 710.688 116.256 710.184 116.329C709.679 116.402 709.213 116.737 708.708 116.81C708.203 116.883 707.688 116.809 707.183 116.862C706.678 116.914 706.202 117.165 705.697 117.239C705.192 117.312 704.519 115.858 704.014 115.921C703.509 115.984 703.222 117.823 702.717 117.886C702.212 117.949 701.607 117.134 701.112 117.197C700.617 117.259 700.162 117.771 699.667 117.834C699.172 117.897 698.677 118.054 698.172 118.116C697.667 118.179 697.231 118.774 696.726 118.837C696.221 118.9 695.498 117.051 695.003 117.113C694.508 117.175 694.092 118.022 693.587 118.085C693.082 118.148 692.507 117.563 692.012 117.625C691.517 117.688 691.021 117.865 690.526 117.928C690.032 117.991 689.705 119.62 689.2 119.684C688.695 119.747 688.15 119.339 687.646 119.402C687.141 119.464 686.665 119.674 686.16 119.737C685.655 119.799 685.031 118.702 684.536 118.764C684.041 118.827 683.635 119.84 683.14 119.893C682.645 119.945 682.209 120.687 681.704 120.74C681.199 120.792 680.693 120.834 680.198 120.886C679.703 120.938 679.079 119.841 678.574 119.893C678.069 119.945 677.614 120.426 677.109 120.479C676.604 120.531 676.178 121.314 675.673 121.366C675.168 121.418 674.584 120.604 674.079 120.656C673.574 120.709 673.108 121.147 672.613 121.199C672.118 121.252 671.633 121.503 671.128 121.555C670.623 121.607 670.118 121.555 669.613 121.597C669.108 121.639 668.543 120.917 668.038 120.959C667.533 121.001 667.067 121.398 666.562 121.45C666.058 121.503 665.582 121.785 665.077 121.837C664.572 121.89 664.106 122.307 663.602 122.349C663.097 122.39 662.463 120.74 661.958 120.781C661.453 120.824 661.057 122.245 660.552 122.286C660.047 122.328 659.442 120.917 658.938 120.959C658.433 121.001 657.968 121.492 657.463 121.524C656.958 121.555 656.502 122.255 655.997 122.297C655.492 122.339 655.036 123.122 654.531 123.154C654.026 123.185 653.412 121.388 652.907 121.419C652.402 121.451 651.967 122.599 651.462 122.631C650.957 122.662 650.511 123.613 650.006 123.645C649.501 123.676 648.937 122.496 648.432 122.527C647.927 122.558 647.481 123.635 646.976 123.666C646.471 123.697 645.906 122.308 645.401 122.328C644.896 122.349 644.401 122.381 643.896 122.412C643.391 122.444 642.896 122.485 642.391 122.506C641.886 122.527 641.41 123.165 640.905 123.186C640.4 123.207 639.915 123.666 639.41 123.687C638.905 123.708 638.4 123.812 637.896 123.823C637.391 123.833 636.856 122.809 636.351 122.82C635.846 122.83 635.38 124.085 634.875 124.095C634.37 124.105 633.835 122.934 633.33 122.945C632.857 122.955 632.401 123.515 631.93 123.594L631.74 123.614C631.268 123.707 630.803 124.388 630.33 124.398C629.825 124.408 629.31 123.948 628.805 123.958C628.3 123.968 627.785 123.05 627.28 123.06C626.775 123.07 626.279 124.136 625.774 124.136C625.27 124.136 624.765 124.262 624.26 124.273C623.755 124.283 623.249 123.698 622.744 123.698C622.239 123.697 621.734 123.604 621.229 123.604C620.725 123.604 620.229 122.455 619.725 122.444C619.22 122.433 618.704 124.105 618.199 124.095C617.694 124.084 617.189 123.76 616.685 123.76C616.18 123.76 615.674 123.76 615.169 123.749C614.664 123.738 614.179 122.527 613.674 122.517C613.169 122.507 612.644 123.635 612.139 123.624C611.634 123.614 611.149 122.914 610.634 122.904C610.119 122.893 609.614 123.551 609.099 123.54C608.584 123.53 608.099 123.039 607.594 123.029C607.089 123.018 606.573 123.457 606.068 123.436C605.564 123.414 605.099 122.308 604.594 122.286C604.089 122.265 603.583 122.328 603.078 122.318C602.573 122.307 602.068 122.464 601.563 122.444C601.058 122.423 600.533 123.049 600.028 123.029C599.523 123.008 599.048 122.245 598.543 122.224C598.038 122.203 597.513 122.684 597.008 122.653C596.503 122.621 596.037 121.837 595.532 121.806C595.027 121.775 594.532 121.691 594.027 121.659C593.522 121.628 592.978 122.506 592.463 122.475C591.948 122.443 591.483 121.941 590.978 121.9C590.473 121.858 589.878 123.447 589.373 123.415C588.868 123.384 588.393 122.871 587.888 122.84C587.383 122.808 586.928 121.984 586.423 121.952C585.918 121.921 585.353 122.83 584.848 122.799C584.343 122.768 583.857 122.444 583.353 122.412C582.848 122.381 582.322 122.746 581.817 122.704C581.312 122.662 580.837 122.328 580.332 122.286C579.827 122.244 579.342 122.015 578.837 121.973C578.332 121.931 577.926 120.604 577.421 120.562C576.916 120.52 576.411 120.541 575.906 120.499C575.401 120.457 574.876 120.739 574.371 120.698C573.866 120.656 573.361 120.656 572.856 120.615C572.351 120.573 571.896 120.019 571.391 119.977C570.886 119.935 570.252 121.439 569.747 121.398C569.242 121.356 568.865 119.883 568.36 119.83C567.855 119.778 567.301 120.342 566.796 120.29C566.291 120.238 565.855 119.558 565.34 119.506C564.825 119.454 564.33 119.486 563.825 119.423C563.32 119.36 562.666 120.865 562.161 120.813C561.656 120.761 561.142 120.865 560.637 120.813C560.132 120.76 559.735 119.642 559.23 119.579C558.725 119.517 558.319 118.587 557.814 118.524C557.309 118.461 556.725 119.287 556.22 119.224C555.715 119.161 555.239 118.942 554.734 118.879C554.229 118.816 553.725 118.817 553.22 118.754C552.715 118.691 552.17 119.068 551.665 119.005C551.16 118.942 550.754 118.075 550.249 118.012C549.744 117.949 549.229 118.075 548.724 118.012C548.219 117.949 547.704 118.043 547.199 117.981C546.694 117.918 546.04 119.109 545.535 119.046C545.03 118.983 544.565 118.639 544.06 118.576C543.555 118.514 543.198 117.259 542.693 117.186C542.188 117.113 541.565 118.022 541.06 117.949C540.555 117.876 540.168 116.946 539.663 116.883C539.158 116.82 538.643 116.883 538.138 116.821C537.633 116.758 537.236 115.932 536.731 115.859C536.227 115.786 535.494 117.468 534.989 117.385C534.484 117.301 534.217 115.472 533.712 115.399C533.207 115.326 532.701 115.316 532.196 115.242C531.691 115.169 531.146 115.399 530.642 115.325C530.137 115.253 529.474 116.329 528.969 116.256C528.464 116.183 528.116 114.981 527.611 114.907C527.107 114.835 526.503 115.451 525.998 115.367C525.493 115.284 525.087 114.532 524.592 114.458C524.097 114.385 523.483 115.064 522.978 114.981C522.473 114.897 522.047 114.354 521.542 114.27C521.037 114.186 520.521 114.207 520.026 114.123C519.531 114.04 519.145 113.12 518.65 113.036C518.155 112.953 517.491 113.946 516.986 113.863C516.481 113.779 516.135 112.724 515.63 112.64C515.125 112.556 514.353 114.239 513.857 114.156C513.362 114.072 513.085 112.493 512.59 112.409C512.095 112.326 511.609 112.086 511.114 111.991C510.619 111.897 509.876 113.277 509.381 113.183C508.886 113.088 508.579 111.73 508.084 111.636C507.589 111.542 506.916 112.461 506.421 112.367C505.926 112.273 505.44 112.054 504.936 111.96C504.431 111.866 504.094 110.821 503.589 110.727C503.084 110.633 502.539 110.831 502.044 110.727C501.549 110.622 501.063 110.434 500.559 110.34C500.054 110.246 499.4 111.093 498.895 110.989C498.39 110.884 497.983 110.246 497.488 110.152C496.993 110.057 496.517 109.787 496.022 109.693C495.527 109.599 494.924 110.069 494.419 109.975C493.914 109.881 493.438 109.682 492.934 109.588C492.429 109.494 492.161 108.125 491.666 108.02C491.171 107.915 490.636 107.989 490.141 107.895C489.646 107.801 489.012 108.386 488.517 108.281C488.022 108.177 487.516 108.093 487.021 107.989C486.527 107.884 486.2 106.881 485.705 106.766C485.21 106.651 484.496 107.644 484.001 107.529C483.506 107.414 482.941 107.623 482.446 107.529C481.951 107.435 481.446 107.351 480.951 107.246C480.487 107.148 480.083 106.711 479.627 106.571L479.443 106.522C478.988 106.379 478.593 105.922 478.129 105.815C477.634 105.7 476.911 106.693 476.416 106.588C475.952 106.49 475.592 105.851 475.142 105.676L474.958 105.619C474.506 105.452 474.137 104.867 473.673 104.759C473.178 104.644 472.613 104.843 472.118 104.728C471.623 104.613 471.326 103.578 470.831 103.463C470.336 103.348 469.831 103.296 469.336 103.181C468.841 103.066 468.108 104.027 467.613 103.902C467.118 103.776 466.633 103.589 466.147 103.474C465.662 103.359 465.226 102.92 464.731 102.794C464.236 102.669 463.662 102.899 463.167 102.774C462.672 102.648 462.177 102.553 461.682 102.428C461.187 102.303 460.513 102.951 460.018 102.825C459.523 102.7 459.424 100.902 458.929 100.777C458.434 100.651 457.898 100.715 457.403 100.589C456.908 100.464 456.502 99.9723 456.017 99.8469C455.531 99.7222 454.74 100.797 454.255 100.662C453.77 100.527 453.265 100.432 452.77 100.296C452.274 100.16 452.026 99.0521 451.541 98.9163C451.056 98.7807 450.423 99.1983 449.938 99.0627C449.452 98.9269 449.204 97.8295 448.709 97.6936C448.214 97.5581 447.452 98.5082 446.967 98.3625C446.482 98.2162 446.154 97.4532 445.669 97.3069C445.184 97.1605 444.827 96.5023 444.342 96.3665C443.857 96.2309 443.134 96.9515 442.648 96.8157C442.163 96.6799 441.648 96.6065 441.163 96.4602C440.678 96.3137 440.311 95.7081 439.826 95.5618C439.341 95.4154 438.916 95.0392 438.431 94.8928C437.946 94.7465 437.351 94.9862 436.866 94.8401C436.381 94.6938 435.935 94.3914 435.45 94.2346C434.965 94.0779 434.271 94.663 433.786 94.5168C433.301 94.3705 432.984 93.6278 432.499 93.4709C432.014 93.3142 431.677 92.656 431.191 92.4993C430.706 92.3428 429.993 92.9799 429.508 92.8127C429.023 92.6454 428.636 92.1648 428.161 92.0081C427.686 91.8521 426.825 92.9273 426.34 92.761C425.855 92.5938 425.735 91.2446 425.25 91.0774C424.765 90.9102 424.319 90.6492 423.834 90.4924C423.349 90.3357 422.874 90.158 422.389 90.0012C421.903 89.8444 421.002 91.0044 420.526 90.8372C420.051 90.6696 419.774 89.8129 419.299 89.6458C418.823 89.4785 418.437 88.977 417.962 88.8098C417.487 88.6426 417.031 88.3608 416.556 88.1936C416.08 88.0264 415.586 87.88 415.11 87.7024C414.635 87.5248 414.1 87.5244 413.615 87.3469C413.13 87.1692 412.941 86.134 412.466 85.9563C411.99 85.7791 411.218 86.4581 410.743 86.2805C410.268 86.1028 409.951 85.423 409.476 85.2454C409 85.0677 408.545 84.828 408.069 84.6399C407.594 84.4518 406.683 85.5172 406.208 85.3293C405.733 85.1412 405.505 84.2421 405.029 84.054C404.554 83.866 403.88 84.2421 403.405 84.054C402.93 83.8653 402.969 82.2252 402.504 82.0266C402.038 81.8287 401.168 82.7368 400.692 82.5491C400.217 82.3609 399.929 81.65 399.464 81.4514C398.999 81.2534 398.266 81.765 397.791 81.5667C397.316 81.3681 397.197 80.2404 396.722 80.0413C396.246 79.8427 395.523 80.3441 395.048 80.1458C394.573 79.9472 393.998 80.0406 393.522 79.842C393.047 79.6433 392.78 78.9117 392.314 78.7131C391.849 78.515 390.998 79.3091 390.522 79.1106C390.047 78.912 389.888 77.9192 389.413 77.7102C388.938 77.5011 388.601 76.9888 388.126 76.7903C387.651 76.5917 387.294 76.111 386.829 75.9124C386.364 75.7138 385.927 75.4215 385.462 75.2229C384.996 75.0244 384.432 75.0657 383.967 74.8567C383.501 74.648 382.7 75.285 382.234 75.0764C381.769 74.8674 381.64 73.8122 381.175 73.6028C380.709 73.3938 380.115 73.4983 379.649 73.2893C379.184 73.0803 378.947 72.2965 378.481 72.0872C378.016 71.8781 376.926 73.2053 376.461 72.9963C375.995 72.7873 375.757 72.0244 375.292 71.8049C374.827 71.5856 374.252 71.6376 373.787 71.4182C373.322 71.1986 373.322 69.8606 372.856 69.6516C372.391 69.4426 371.461 70.3619 370.995 70.1428C370.53 69.9233 370.569 68.4915 370.113 68.2825C369.658 68.0738 368.559 69.348 368.094 69.1399C367.628 68.9309 367.707 67.4155 367.242 67.1956C366.777 66.9761 365.915 67.7187 365.449 67.4993C364.984 67.2798 364.449 67.2376 363.983 67.0286C363.518 66.8195 363.162 66.3593 362.696 66.1399C362.231 65.92 362.379 64.2588 361.924 64.0393C361.468 63.8205 360.36 65.1359 359.895 64.9172C359.429 64.6978 359.002 64.4053 358.547 64.1858C358.092 63.9657 358.191 62.4189 357.726 62.1995C357.26 61.9802 356.161 63.2864 355.695 63.0774C355.23 62.8682 354.943 62.2519 354.478 62.0325C354.012 61.813 353.517 61.677 353.062 61.468C352.606 61.259 352.666 59.7854 352.2 59.5657C351.735 59.3462 351.269 59.1585 350.804 58.9495C350.338 58.7404 349.239 60.0364 348.773 59.8274C348.308 59.6183 348.031 58.9707 347.565 58.7512C347.1 58.5317 346.991 57.4971 346.525 57.2776C346.06 57.0583 345.288 57.6113 344.822 57.3918C344.357 57.1727 343.674 57.4961 343.219 57.2874C342.763 57.0783 342.991 55.1865 342.535 54.967C342.08 54.7477 340.922 56.1996 340.456 55.9807C339.991 55.7613 339.723 55.0929 339.258 54.8733C338.792 54.6538 338.475 54.1104 338.01 53.8909C337.544 53.6714 337.257 53.0548 336.792 52.8352C336.327 52.6157 335.514 53.2743 335.049 53.0549C334.583 52.8354 334.256 52.3128 333.791 52.1038C333.326 51.895 332.514 52.5631 332.049 52.3547C331.583 52.1457 331.484 51.0483 331.019 50.8391C330.553 50.6301 329.91 50.8702 329.444 50.6614C328.979 50.4523 328.612 50.0025 328.146 49.804C327.681 49.6055 327.166 49.5324 326.701 49.3235C326.236 49.1145 325.899 48.5921 325.434 48.3831C324.968 48.174 324.215 48.7171 323.75 48.5081C323.285 48.2987 323.364 46.6998 322.898 46.5012C322.433 46.303 321.631 46.9716 321.166 46.7737C320.701 46.5751 320.403 45.9264 319.938 45.7278C319.472 45.5298 318.601 46.3963 318.126 46.1985C317.651 46 317.611 44.6838 317.146 44.4846C316.68 44.286 316.471 43.3971 315.996 43.1985C315.521 43.0008 314.639 43.9517 314.164 43.7532C313.689 43.5543 313.6 42.3527 313.125 42.1643C312.65 41.9762 311.57 43.4599 311.104 43.2717C310.639 43.0831 310.728 41.328 310.253 41.1399C309.778 40.9521 308.788 42.2368 308.312 42.0491C307.837 41.861 307.669 40.8478 307.193 40.6594C306.718 40.4713 306.332 40.0634 305.856 39.8752C305.381 39.6871 304.916 39.5096 304.44 39.3215C303.965 39.1334 303.569 38.7363 303.094 38.5481C302.618 38.36 302.084 38.3595 301.608 38.1819C301.133 38.0042 300.836 37.2834 300.36 37.1057C299.885 36.9281 299.291 37.105 298.806 36.9377C298.321 36.7711 297.539 37.5232 297.063 37.3567C296.588 37.1895 296.42 36.0706 295.944 35.8928C295.469 35.7152 294.717 36.3837 294.241 36.2063C293.766 36.0286 293.33 35.7258 292.854 35.5481C292.379 35.3704 292.112 34.555 291.627 34.3772C291.142 34.1995 290.745 33.8022 290.26 33.635C289.775 33.4685 288.993 34.3037 288.508 34.137C288.023 33.9698 287.794 33.0091 287.31 32.8518C286.824 32.695 286.26 32.8198 285.774 32.6526C285.289 32.4854 284.566 33.1336 284.091 32.9768C283.616 32.82 283.338 31.9532 282.863 31.7961C282.388 31.6394 281.923 31.4197 281.438 31.2629C280.952 31.1062 280.288 31.5867 279.803 31.4299C279.318 31.2726 279.179 29.9469 278.694 29.8C278.209 29.6537 277.525 30.1973 277.04 30.051C276.555 29.9047 276.03 29.9148 275.545 29.7581C275.06 29.6013 274.674 29.1102 274.188 28.9534C273.703 28.7967 273.297 28.3684 272.812 28.2219C272.327 28.0756 271.901 27.6994 271.416 27.553C270.931 27.4067 270.227 28.0645 269.742 27.9182C269.257 27.7718 268.989 26.8214 268.494 26.675C267.999 26.5289 267.395 26.8624 266.91 26.7161C266.425 26.5698 265.692 27.3644 265.207 27.2288C264.722 27.0929 264.286 26.7377 263.801 26.6018C263.316 26.4659 263.058 25.4307 262.562 25.2844C262.067 25.1387 261.344 25.9639 260.859 25.8176C260.374 25.6713 259.909 25.4417 259.424 25.3059C258.939 25.1701 258.622 24.3444 258.127 24.2083C257.632 24.0724 257.146 23.9681 256.651 23.8323C256.156 23.6964 255.463 24.4379 254.968 24.302C254.473 24.1662 253.958 24.1976 253.463 24.0618C252.968 23.9259 252.65 23.1003 252.155 22.9749C251.66 22.8495 251.165 22.7653 250.67 22.6399C250.175 22.5142 249.868 21.5846 249.383 21.4592C248.898 21.3339 248.225 22.0022 247.729 21.8772C247.234 21.7518 246.6 22.264 246.115 22.1389C245.63 22.0135 245.273 21.2921 244.778 21.177C244.283 21.0621 243.927 20.3729 243.432 20.2473C242.937 20.1219 242.451 20.0068 241.956 19.8918C241.461 19.7769 240.758 20.665 240.263 20.55C239.768 20.4351 239.411 19.6826 238.926 19.5676C238.441 19.4527 238.054 18.8157 237.56 18.7004C237.064 18.5855 236.46 19.0342 235.965 18.9192C235.47 18.804 235.183 17.707 234.688 17.592C234.192 17.4775 233.351 19.118 232.846 19.0032C232.341 18.8882 231.836 18.8781 231.341 18.7737C230.846 18.6692 230.509 17.7903 230.014 17.6858C229.519 17.5813 229.103 17.1006 228.598 16.9856C228.093 16.8707 227.438 17.6341 226.943 17.5295C226.449 17.4242 226.23 15.8674 225.735 15.7629C225.24 15.659 224.567 16.4843 224.072 16.3801C223.577 16.2756 223.102 16.0764 222.597 15.9719C222.092 15.8674 221.775 14.8638 221.27 14.7698C220.765 14.6763 220.042 15.8566 219.537 15.7629C219.032 15.6689 218.744 14.4358 218.249 14.3313C217.754 14.2274 217.081 15.0841 216.586 14.9797C216.091 14.8752 215.725 14.0594 215.22 13.9651C214.715 13.871 214.249 13.6207 213.754 13.5266C213.259 13.4325 212.645 13.9859 212.149 13.8918C211.654 13.7981 211.051 14.3099 210.556 14.2161C210.061 14.122 209.822 12.4713 209.327 12.3772C208.832 12.2834 208.139 13.3277 207.644 13.2336C207.149 13.1397 206.624 13.1922 206.119 13.1086C205.614 13.0251 205.317 11.7298 204.822 11.635C204.327 11.5409 203.821 11.4361 203.326 11.342C202.831 11.2484 202.188 12.0213 201.683 11.9377C201.178 11.8542 200.663 11.865 200.168 11.7815C199.673 11.6979 199.118 11.9275 198.623 11.844C198.128 11.7604 197.781 10.6633 197.276 10.5793C196.771 10.4957 196.325 10.0985 195.82 10.0149C195.315 9.93169 194.593 11.3417 194.088 11.2483C193.583 11.1542 193.077 11.1434 192.572 11.0598C192.068 10.9758 191.751 9.68131 191.246 9.59692C190.741 9.51331 190.255 9.33581 189.75 9.2522C189.245 9.16891 188.611 9.99427 188.106 9.92114C187.602 9.848 187.235 8.81279 186.73 8.72876C186.226 8.64516 185.552 9.77375 185.037 9.69067C184.522 9.60706 184.017 9.67008 183.512 9.59692C183.007 9.52378 182.71 7.95707 182.215 7.88306C181.72 7.8099 181.006 9.17858 180.501 9.09497C179.996 9.01125 179.541 8.62528 179.036 8.552C178.531 8.47886 178.036 8.32148 177.541 8.24829C177.046 8.17514 176.511 8.29017 176.006 8.21704C175.501 8.14388 175.055 7.64177 174.55 7.5686C174.045 7.49555 173.5 7.73648 172.995 7.66333C172.49 7.58983 172.153 6.20035 171.648 6.1272C171.143 6.05433 170.431 7.63157 169.926 7.55884C169.421 7.48568 168.896 7.61052 168.391 7.53735C167.886 7.46399 167.549 6.0539 167.044 5.98071C166.539 5.90756 165.915 6.81667 165.41 6.75415C164.905 6.69145 164.351 7.0775 163.846 7.01489C163.341 6.9522 163.063 4.95775 162.559 4.8938C162.054 4.83109 161.359 6.39889 160.854 6.33618C160.35 6.27356 159.825 6.34611 159.33 6.28345C158.835 6.22074 158.438 5.05026 157.943 4.98755C157.448 4.92471 156.973 4.51704 156.468 4.45435C155.963 4.39236 155.29 5.85439 154.795 5.79224C154.3 5.72954 153.814 5.43705 153.31 5.37427C152.805 5.31157 152.319 5.10238 151.814 5.05005C151.309 4.99779 150.952 3.43043 150.447 3.37817C149.942 3.32633 149.259 4.99781 148.764 4.94556C148.269 4.89303 147.804 4.35053 147.299 4.2981C146.794 4.24585 146.249 4.62163 145.744 4.56958C145.271 4.5206 144.841 3.94783 144.381 3.83325L144.195 3.80005C143.735 3.68426 143.297 3.10327 142.833 3.05396C142.338 3.0017 141.753 3.7022 141.248 3.6604C140.743 3.6186 140.248 3.41972 139.743 3.36743C139.238 3.31517 138.812 2.25953 138.307 2.20728C137.802 2.15595 137.158 3.73345 136.653 3.69165C136.148 3.64982 135.663 3.3575 135.158 3.31567C134.653 3.27387 134.207 2.46881 133.702 2.427C133.197 2.38547 132.623 3.16885 132.118 3.1272C131.613 3.08539 131.177 2.05084 130.672 2.00903C130.167 1.96795 129.573 3.20011 129.068 3.16919C128.563 3.13784 128.078 2.81367 127.573 2.77173C127.068 2.72992 126.553 2.80308 126.048 2.77173C125.543 2.74037 125.018 3.05406 124.513 3.02271C124.008 2.99113 123.532 2.4271 123.027 2.39575C122.522 2.36406 122.066 1.45444 121.562 1.4231C121.057 1.39259 120.473 2.6458 119.968 2.6145C119.463 2.58315 119.057 0.692119 118.552 0.671143C118.047 0.650239 117.512 1.10972 117.007 1.07837C116.502 1.04703 115.987 1.07873 115.482 1.05786C114.977 1.03696 114.491 0.514021 113.986 0.482666C113.481 0.451312 112.967 0.399077 112.462 0.378174C111.957 0.357271 111.432 0.734038 110.927 0.713135C110.422 0.692234 109.897 0.943022 109.392 0.922119C108.887 0.901108 108.382 0.639327 107.877 0.618408C107.372 0.597507 106.818 2.09209 106.312 2.07153C105.807 2.05063 105.332 1.11054 104.827 1.09985C104.322 1.0894 103.827 0.347666 103.332 0.326416C102.837 0.305513 102.312 0.514311 101.807 0.493408C101.302 0.47254 100.767 1.59048 100.262 1.56958C99.7568 1.54843 99.2617 0.723674 98.7568 0.713135C98.2518 0.702683 97.7365 0.921829 97.2314 0.911377C96.7266 0.900673 96.2217 0.242566 95.7168 0.242432C95.2118 0.242432 94.6964 0.388625 94.1914 0.378174C93.6865 0.367668 93.1816 0.232392 92.6768 0.221924C92.1718 0.211472 91.6564 1.62231 91.1514 1.62231C90.6465 1.62197 90.1416 0.618662 89.6367 0.618408C89.1317 0.618408 88.6162 0.295166 88.1211 0.295166C87.6261 0.295839 87.1113 1.40288 86.6064 1.41333C86.1016 1.42378 85.5967 1.66348 85.0918 1.67407C84.5868 1.68452 84.0616 0.022942 83.5566 0.0227051C83.0516 0.0227051 82.5363 -0.00825439 82.0312 0.00219727Z" fill="url(#paint0_linear_256_2157)"/>
<defs>
<linearGradient id="paint0_linear_256_2157" x1="242" y1="109.586" x2="1480.76" y2="1673.69" gradientUnits="userSpaceOnUse">
<stop stop-color="#F9F9F9"/>
<stop offset="1" stop-color="#E8E8E8"/>
</linearGradient>
</defs>
</svg>
