<svg width="401" height="181" viewBox="0 0 401 181" fill="none" xmlns="http://www.w3.org/2000/svg">
<path d="M204.477 14.7281C226.798 15.5252 247.112 7.41831 268.964 4.54104C292.969 1.38511 319.183 4.95578 338.591 14.0283C358.007 23.1007 370.252 37.4936 371.134 52.2818C371.555 59.3713 369.539 66.6357 372.777 73.453C376.581 81.4563 387.021 87.6191 393.682 94.916C413.057 116.159 392.023 146.7 353.361 153.459C332.683 157.075 310.499 154.568 289.084 155.935C256.055 158.048 226.782 169.155 195.55 175.972C164.318 182.783 125.187 184.299 101.822 170.088C90.6854 163.31 84.8987 153.932 74.3369 146.83C62.1403 138.639 44.5941 134.122 30.6979 126.974C11.5573 117.131 0.0405712 102.122 0.000104739 86.9646C-0.0727348 60.92 37.8605 37.0594 68.5664 20.5281C86.5416 10.8529 107.115 -1.10983 132.859 0.0825567C158.467 1.26846 178.611 13.8079 204.477 14.7281Z" fill="#EBF6FA"/>
</svg>
