<svg width="309" height="164" viewBox="0 0 309 164" fill="none" xmlns="http://www.w3.org/2000/svg">
<path d="M175.659 144.229C167.341 147.989 161.186 152.29 153.907 156.325C132.531 168.19 102.308 165.588 83.8638 150.286C76.3526 144.054 70.5752 135.96 61.6279 131.462C51.8799 126.562 39.9943 126.743 29.3198 123.729C11.3392 118.649 -2.49207 103.821 -5.39729 87.2603C-8.30913 70.6995 -0.480252 53.1284 13.9797 42.3758C30.1073 30.3814 52.0122 27.2318 72.1105 21.7172C91.8647 16.2985 110.646 8.24958 130.645 3.57035C150.638 -1.10324 172.801 -2.11359 191.231 6.24016C207.643 13.6795 220.429 28.1405 238.621 30.6749C250.924 32.3908 263.994 28.2421 275.741 31.9223C287.037 35.4614 294.138 45.3391 299.042 55.0532C304.74 66.342 308.717 78.5735 308.122 90.9291C307.526 103.285 301.914 115.793 291.127 123.599C273.431 136.406 248.714 133.827 225.32 134.103C222.083 134.143 201.449 131.422 175.659 144.235V144.229Z" fill="#EBF6FA"/>
</svg>
