<svg width="401" height="209" viewBox="0 0 401 209" fill="none" xmlns="http://www.w3.org/2000/svg">
<path d="M231.859 184.085C221.241 188.883 213.386 194.373 204.095 199.524C176.812 214.667 138.237 211.346 114.696 191.815C105.11 183.862 97.7357 173.531 86.316 167.789C73.8742 161.536 58.7042 161.767 45.0799 157.92C22.1306 151.436 4.4773 132.51 0.769263 111.373C-2.94722 90.2363 7.04505 67.8097 25.5008 54.0857C46.085 38.7768 74.0431 34.7569 99.6953 27.7184C124.908 20.8024 148.88 10.5292 174.405 4.55696C199.922 -1.4081 228.21 -2.69765 251.733 7.96454C272.681 17.4597 288.999 35.9168 312.219 39.1515C327.921 41.3415 344.603 36.0465 359.596 40.7436C374.014 45.2606 383.077 57.8679 389.336 70.2663C396.609 84.6747 401.685 100.286 400.925 116.056C400.165 131.826 393.002 147.791 379.234 157.754C356.648 174.1 325.1 170.808 295.241 171.161C291.111 171.211 264.775 167.739 231.859 184.092V184.085Z" fill="#EBF6FA"/>
</svg>
