<svg width="177" height="193" viewBox="0 0 177 193" fill="none" xmlns="http://www.w3.org/2000/svg">
<g clip-path="url(#clip0_256_3532)">
<path d="M28.579 49.2938C28.579 49.2938 28.579 49.3367 28.579 49.3538C28.579 49.3367 28.5704 49.311 28.579 49.2938Z" fill="#8BD0E4"/>
<path d="M24.2849 48.706C24.2849 48.706 24.2506 48.7659 24.2334 48.7916C24.2334 48.7916 24.2506 48.7745 24.2592 48.7659C24.2677 48.7402 24.2763 48.7317 24.2935 48.6974L24.2849 48.706Z" fill="#8BD0E4"/>
<path d="M25.0781 52.7278C25.0781 52.7278 25.1554 52.7449 25.1898 52.7621C25.1812 52.7621 25.164 52.7449 25.1554 52.7364C25.1296 52.7364 25.1125 52.7278 25.0781 52.7192V52.7278Z" fill="#8BD0E4"/>
<path d="M24.2167 48.8083C24.1652 48.8683 24.1394 48.9025 24.1309 48.9282C24.1652 48.8854 24.1996 48.834 24.2339 48.7911C24.2339 48.7911 24.2253 48.7997 24.2167 48.8083Z" fill="#8BD0E4"/>
<path d="M25.2068 52.7704C25.2669 52.8047 25.3185 52.8218 25.3528 52.8218C25.3013 52.8047 25.2498 52.779 25.1982 52.7618C25.1982 52.7618 25.1982 52.7618 25.2068 52.7618V52.7704Z" fill="#8BD0E4"/>
<path d="M28.6477 49.4558C28.6477 49.4558 28.605 49.3876 28.5879 49.3535C28.5879 49.3961 28.605 49.4472 28.6306 49.4984C28.6733 49.5751 28.7245 49.5921 28.6477 49.4558Z" fill="#8BD0E4"/>
<path d="M23.669 50.7169C23.669 50.7169 23.6776 50.7509 23.6861 50.768C23.6861 50.6998 23.6776 50.6316 23.669 50.5635C23.6605 50.5805 23.652 50.6231 23.669 50.7169Z" fill="#8BD0E4"/>
<path d="M23.6699 50.5293C23.6699 50.5293 23.6699 50.5464 23.6699 50.5549C23.687 50.5208 23.7297 50.6145 23.6955 50.785C23.7382 50.9895 23.798 51.194 23.8578 51.39C23.9005 51.4666 23.9346 51.5433 23.9773 51.62C24.0286 51.7138 24.0798 51.799 24.1396 51.8842C24.1481 51.9012 24.1822 51.9438 24.2079 51.9864C24.2249 52.012 24.242 52.029 24.2506 52.0375C24.3189 52.1142 24.3872 52.1824 24.464 52.2591C24.5238 52.3187 24.5921 52.3784 24.6604 52.438C24.8227 52.5403 24.9934 52.634 25.1642 52.7363C25.3948 52.7789 25.4204 52.8215 25.3606 52.8215C25.3606 52.8215 25.3691 52.8215 25.3777 52.8215C25.5484 52.8726 25.8046 52.8896 25.9754 52.9578C26.0522 52.9578 26.1205 52.9663 26.1974 52.9663C26.3169 52.9663 26.4279 52.9663 26.5475 52.9578C26.7268 52.9237 26.8976 52.8896 27.0684 52.8385C27.1281 52.8215 27.2306 52.7704 27.3074 52.7533C27.3074 52.7533 27.3074 52.7533 27.316 52.7533C27.4953 52.6596 27.6575 52.5488 27.8283 52.4466C27.8966 52.3869 27.9649 52.3273 28.0247 52.2676C28.093 52.1994 28.1699 52.1228 28.2382 52.0461C28.2382 52.0461 28.2638 52.0205 28.2809 52.0035C28.3065 51.9609 28.3406 51.9268 28.3492 51.9097C28.4175 51.8075 28.4772 51.7052 28.537 51.603C28.5712 51.5433 28.5968 51.4837 28.6309 51.424C28.6907 51.2366 28.7505 51.0491 28.7932 50.8531C28.7932 50.4867 28.8444 50.6316 28.8017 50.8191C28.8017 50.8276 28.8017 50.8446 28.7932 50.8531C28.7932 50.8872 28.7932 50.9213 28.7932 50.9639C28.7932 50.8617 28.8103 50.7594 28.8188 50.6572C28.8273 50.4867 28.759 50.1885 28.8017 50.0181C28.7846 49.9414 28.7676 49.8647 28.7505 49.788C28.7334 49.7198 28.6822 49.6091 28.6395 49.5068C28.6139 49.4727 28.6053 49.4216 28.5968 49.362C28.5029 49.183 28.4004 49.0126 28.2979 48.8422C28.2809 48.8166 28.2638 48.7996 28.2382 48.774C28.1869 48.7144 28.1272 48.6547 28.0674 48.5951C27.9905 48.5184 27.9052 48.4502 27.8198 48.3735C27.6319 48.2542 27.4441 48.1435 27.2477 48.0412C27.1452 48.0071 27.0513 47.973 26.9488 47.9475C26.8378 47.9134 26.7268 47.8964 26.6158 47.8708C26.4109 47.8623 26.2059 47.8452 25.9925 47.8623C25.9669 47.8623 25.9583 47.8623 25.9327 47.8623C25.8473 47.8793 25.7619 47.8964 25.6765 47.9134C25.5741 47.939 25.4716 47.9645 25.3691 47.9986C25.3179 48.0157 25.113 48.1094 25.1386 48.0923C25.0617 48.1349 24.9849 48.1775 24.908 48.2202C24.8312 48.2628 24.7629 48.3139 24.6946 48.3565C24.5494 48.4928 24.4043 48.6377 24.2591 48.7825C24.1822 48.9615 24.1225 48.9956 24.1396 48.9444C24.1396 48.9444 24.1225 48.9615 24.1225 48.97C24.0286 49.1234 23.9517 49.2853 23.8663 49.4387C23.8322 49.5324 23.798 49.6261 23.7724 49.7198C23.7468 49.8221 23.7212 49.9329 23.6955 50.0351C23.687 50.2055 23.6699 50.376 23.6785 50.5464L23.6699 50.5293Z" fill="#FFBFB9"/>
<path d="M22.0728 8.77657C24.1392 10.0973 25.5396 12.202 26.0519 14.5879C26.5301 16.8204 26.1373 18.7717 25.1809 20.7911C23.3109 24.7619 20.015 28.5111 19.9979 33.0102C19.9979 34.1861 20.1431 35.3535 20.3821 36.5038C20.4846 36.9895 20.5529 38.0631 20.9201 38.1398C20.9713 38.1484 21.791 37.8842 22.0216 37.8246C22.5425 37.6882 23.0633 37.5519 23.5842 37.4156C23.8916 37.3133 23.3451 35.1745 23.3109 34.8081C23.1999 33.7601 23.2939 32.6949 23.6183 31.6895C24.5064 28.869 26.2824 26.3979 27.6145 23.782C28.5708 21.9074 29.5186 19.905 29.7919 17.7918C30.1249 15.1503 29.4076 12.415 28.0585 10.1399C25.7957 6.32253 21.4153 4.09855 17.0093 4.27749C12.7741 4.44791 8.57304 6.45886 6.29319 10.0888C5.01237 12.1168 4.31219 14.4174 4.27804 16.8204C4.27804 17.2123 4.16703 18.0815 4.29512 18.3797C4.30365 18.4053 4.51712 18.5757 4.4232 18.5416C4.76475 18.6609 5.43077 18.4564 5.77232 18.4138C6.35296 18.3541 7.01044 18.2008 7.59962 18.2093C7.63377 18.107 7.73624 18.09 7.73624 18.0644C7.73624 18.2178 7.75331 17.6043 7.75331 17.5787C7.85578 15.44 8.30833 13.2075 9.54645 11.4266C12.2362 7.5325 18.0254 6.18619 22.0728 8.76804V8.77657Z" fill="#FFBFB9"/>
<path d="M7.61621 18.2179C7.61621 18.2179 7.67598 18.2179 7.7016 18.2179C7.95776 18.2349 7.7016 18.1497 7.61621 18.2179Z" fill="#8BD0E4"/>
<path d="M11.4325 20.2292C12.1071 19.0533 11.9192 17.7581 12.1242 16.48C12.4316 14.5542 13.2001 13.1483 14.8139 12.3217C16.5985 11.41 19.1003 11.4441 20.6459 13.0631C21.9694 14.4435 22.3365 16.5481 21.6534 18.3035C21.6022 18.4142 21.5083 18.6358 21.4997 18.6443C21.3546 18.9511 21.2009 19.2493 21.0472 19.5475C20.7142 20.2036 20.3555 20.8427 19.9969 21.4818C19.1772 22.9303 18.2892 24.3363 17.5805 25.8445C16.3679 28.4179 15.5995 31.0764 15.7702 33.9565C15.941 36.8621 16.2569 41.1226 19.5444 42.1792C21.235 42.7246 23.088 41.9577 24.7359 41.5316C24.9152 41.4805 25.0775 41.4209 25.2226 41.3442C26.4522 40.8073 27.4342 39.8615 27.8184 38.5237C28.2283 37.0922 27.6391 35.7885 27.5623 34.3655C27.5196 33.6838 27.5025 33.7861 27.622 33.3004C27.733 32.8573 27.8782 32.4227 28.0575 32.0137C28.6638 30.5737 29.5347 29.2529 30.2861 27.881C32.9246 23.0922 35.0849 18.1245 33.6419 12.5603C32.2671 7.25176 28.5271 3.07648 23.421 1.08258C18.2721 -0.928373 11.9363 -0.0421917 7.38517 2.99979C2.80839 6.07587 0.0759842 11.3248 -0.000864638 16.8208C-0.0264809 18.3716 0.0418291 19.9565 1.06648 21.2006C1.95451 22.2828 3.2951 22.8622 4.69546 22.8025C5.9165 22.7429 7.20585 22.6151 8.40128 22.3935C9.67355 22.1635 10.7836 21.3625 11.424 20.2377L11.4325 20.2292ZM7.7011 18.2182C7.7011 18.2182 7.64133 18.2182 7.61571 18.2182C7.70964 18.1501 7.95726 18.2268 7.7011 18.2182ZM9.54547 11.4356C8.30735 13.225 7.8548 15.4575 7.75233 17.5877C7.75233 17.6133 7.73526 18.2268 7.73526 18.0734C7.73526 18.099 7.63279 18.1075 7.59863 18.2182C7.00946 18.2097 6.35198 18.3631 5.77134 18.4228C5.42979 18.4568 4.76377 18.6699 4.42221 18.5506C4.51614 18.5847 4.30267 18.4142 4.29413 18.3887C4.16605 18.0904 4.27706 17.2213 4.27706 16.8293C4.31121 14.4264 5.01139 12.1343 6.2922 10.0978C8.58059 6.45931 12.7731 4.44836 17.0084 4.28646C21.4229 4.10752 25.7947 6.33149 28.0575 10.1489C29.4066 12.424 30.1239 15.1592 29.7909 17.8007C29.5176 19.9139 28.5698 21.9078 27.6135 23.791C26.2815 26.4069 24.5054 28.8865 23.6174 31.6984C23.3014 32.7124 23.2075 33.769 23.31 34.8171C23.3441 35.1835 23.8906 37.3223 23.5832 37.4245C23.0623 37.5609 22.5415 37.6972 22.0206 37.8335C21.7901 37.8932 20.9703 38.1573 20.9191 38.1488C20.5519 38.0721 20.4836 36.9985 20.3812 36.5128C20.1421 35.3624 19.9969 34.1951 19.9969 33.0192C20.014 28.5201 23.3014 24.7709 25.1799 20.8001C26.1363 18.7806 26.5291 16.8379 26.0509 14.5968C25.5386 12.211 24.1382 10.0978 22.0718 8.78553C18.0159 6.19516 12.2352 7.54999 9.54547 11.4441V11.4356Z" fill="#2E2E2E"/>
<path d="M23.6697 50.5635C23.6697 50.6231 23.6867 50.6998 23.6867 50.768C23.6867 50.7765 23.6867 50.785 23.6867 50.7935C23.7209 50.6231 23.6867 50.5294 23.6611 50.5635H23.6697Z" fill="#2E2E2E"/>
<path d="M24.2502 48.774C24.2502 48.774 24.2331 48.7911 24.2245 48.7996C24.1904 48.8507 24.1562 48.8933 24.1221 48.9359C24.105 48.9871 24.1648 48.953 24.2416 48.774H24.2502Z" fill="#2E2E2E"/>
<path d="M28.7841 50.8446C28.7841 50.8446 28.7841 50.8191 28.7926 50.8105C28.8353 50.6146 28.7755 50.4782 28.7841 50.8446Z" fill="#2E2E2E"/>
<path d="M28.5879 49.3535C28.5879 49.4135 28.6051 49.4649 28.6308 49.4992C28.6137 49.4478 28.5965 49.3964 28.5879 49.3535Z" fill="#2E2E2E"/>
<path d="M29.3481 56.4855C32.2427 55.1051 33.6089 51.6712 32.849 48.6462C32.0549 45.7917 29.6299 43.9 26.7267 43.6018C24.0541 43.3206 21.2277 44.9652 20.1006 47.3851C18.871 50.0266 19.3065 53.2135 21.4327 55.2755C23.5588 57.3376 26.6925 57.7381 29.3396 56.4855H29.3481ZM23.8491 49.4216C23.9431 49.2683 24.0114 49.1064 24.1053 48.953C24.1053 48.953 24.1138 48.9359 24.1224 48.9274C24.1224 48.9019 24.148 48.8593 24.2078 48.8081C24.2078 48.8081 24.2163 48.7996 24.2248 48.7911C24.2419 48.7655 24.2675 48.7314 24.2761 48.7059C24.2675 48.74 24.259 48.7485 24.2419 48.774C24.3871 48.6292 24.5237 48.4929 24.6774 48.348C24.7457 48.3054 24.8225 48.2543 24.8909 48.2117C24.9677 48.1691 25.0446 48.1265 25.1214 48.0838C25.1043 48.1009 25.3007 48.0072 25.352 47.9901C25.4544 47.956 25.5569 47.9305 25.6593 47.9049C25.7447 47.8879 25.8301 47.8708 25.9155 47.8538C25.9326 47.8538 25.9497 47.8538 25.9753 47.8538C26.1802 47.8453 26.3851 47.8538 26.5986 47.8623C26.7096 47.8879 26.8206 47.9134 26.9316 47.939C27.0341 47.9646 27.128 48.0072 27.2305 48.0327C27.4269 48.1435 27.6147 48.2543 27.8026 48.365C27.888 48.4417 27.9734 48.5099 28.0502 48.5866C28.11 48.6462 28.1612 48.7059 28.221 48.7655C28.2381 48.7826 28.2551 48.8081 28.2807 48.8337C28.3832 49.0041 28.4857 49.183 28.5796 49.3535C28.5796 49.3364 28.5711 49.3194 28.5796 49.2938C28.5796 49.3109 28.5796 49.3364 28.5796 49.3535C28.5967 49.3876 28.6223 49.4216 28.6394 49.4557C28.7162 49.5921 28.665 49.575 28.6223 49.4983C28.665 49.6006 28.7162 49.7113 28.7333 49.7795C28.7504 49.8562 28.7675 49.9329 28.7845 50.0096C28.7504 50.18 28.8102 50.4782 28.8016 50.6487C28.8016 50.7509 28.776 50.8532 28.776 50.9554C28.776 50.9128 28.776 50.8787 28.776 50.8446C28.7333 51.0406 28.6735 51.2281 28.6138 51.4155C28.5796 51.4752 28.554 51.5348 28.5198 51.5945C28.4601 51.6967 28.4003 51.799 28.332 51.9012C28.3234 51.9183 28.2893 51.9524 28.2637 51.995C28.2466 52.012 28.2295 52.0376 28.221 52.0376C28.1527 52.1143 28.0844 52.1824 28.0075 52.2591C27.9477 52.3188 27.8794 52.3784 27.8111 52.4381C27.6403 52.5403 27.4781 52.6511 27.2988 52.7448C27.2988 52.7448 27.2988 52.7448 27.2902 52.7448C27.2134 52.7619 27.1109 52.813 27.0512 52.83C26.8804 52.8812 26.7011 52.9152 26.5303 52.9493C26.4108 52.9493 26.2998 52.9578 26.1802 52.9578C26.1034 52.9578 26.0351 52.9578 25.9582 52.9493C25.7874 52.8726 25.5313 52.8641 25.3605 52.813C25.3605 52.813 25.352 52.813 25.3434 52.813C25.3093 52.813 25.258 52.7959 25.1983 52.7619C25.1983 52.7619 25.1983 52.7619 25.1897 52.7619C25.1556 52.7448 25.1129 52.7278 25.0787 52.7278C25.1043 52.7278 25.1299 52.7363 25.1556 52.7448C24.9848 52.6511 24.8225 52.5488 24.6518 52.4466C24.5835 52.3869 24.5237 52.3273 24.4554 52.2676C24.3785 52.1995 24.3102 52.1228 24.2419 52.0461C24.2419 52.0461 24.2163 52.0205 24.1992 51.995C24.1651 51.9524 24.1394 51.9098 24.1309 51.8927C24.0711 51.8075 24.0199 51.7223 23.9687 51.6286C23.926 51.5519 23.8833 51.4752 23.8491 51.3985C23.7894 51.194 23.7296 50.998 23.6869 50.7935C23.6869 50.8106 23.6869 50.8276 23.6869 50.8446C23.6869 50.8276 23.6869 50.7935 23.6869 50.768C23.6869 50.7509 23.6784 50.7339 23.6698 50.7168C23.6527 50.6231 23.6527 50.5805 23.6698 50.5634C23.6698 50.5549 23.6698 50.5464 23.6698 50.5379C23.6698 50.3675 23.6698 50.197 23.6869 50.0266C23.7125 49.9244 23.7296 49.8136 23.7637 49.7114C23.7894 49.6176 23.8235 49.5239 23.8577 49.4302L23.8491 49.4216Z" fill="#2E2E2E"/>
<path d="M25.155 52.7363C25.155 52.7363 25.1806 52.7534 25.1892 52.7619C25.2404 52.7789 25.2916 52.8045 25.3429 52.8215C25.4112 52.8215 25.377 52.7789 25.1465 52.7363H25.155Z" fill="#2E2E2E"/>
<path d="M107.478 120.989C107.435 120.623 107.35 120.401 107.23 120.35C106.76 120.12 106.265 120.171 105.702 120.197C104.182 120.265 102.653 120.529 101.159 120.802C100.536 120.913 99.9208 121.049 99.306 121.177C96.4882 121.782 93.7217 122.583 91.0234 123.58C89.939 123.98 88.6838 123.128 88.3935 122.089C88.069 120.913 88.8033 119.865 89.8878 119.464C93.9351 117.973 98.1106 116.942 102.363 116.311C103.029 116.218 103.695 116.124 104.361 116.047C105.027 115.97 105.702 115.919 106.376 115.936C106.376 115.936 106.376 115.919 106.376 115.911C106.359 115.817 106.316 115.553 106.299 115.519C106.188 115.101 106.146 114.905 105.915 114.701C105.983 114.795 105.608 114.667 105.437 114.658C105.078 114.633 104.72 114.684 104.37 114.743C103.977 114.812 103.575 114.914 103.183 115.008C102.636 115.144 102.09 115.289 101.543 115.425C97.3507 116.465 93.1581 117.513 88.9656 118.552C86.293 119.217 85.1658 115.11 87.8299 114.445C90.5196 113.772 93.2094 113.107 95.8991 112.434C98.4265 111.804 100.98 111.011 103.55 110.577C103.9 110.517 104.25 110.483 104.592 110.457C104.566 109.835 104.463 109.196 104.088 108.847C103.652 108.438 102.901 108.719 102.371 108.847C100.664 109.247 98.973 109.742 97.2909 110.261C93.6278 111.403 90.0073 112.673 86.4467 114.104C85.3708 114.539 84.0985 113.627 83.8167 112.613C83.1934 113.303 82.5871 113.985 82.2114 114.454C81.9638 114.761 81.3234 115.826 81.1185 116.558C80.8708 117.419 80.9221 118.177 81.1185 119.03C81.793 121.952 82.1431 124.969 82.4932 127.951C82.9543 131.947 83.2959 135.952 83.5093 139.966C83.6118 141.934 83.6972 143.911 83.7142 145.888C83.7313 147.634 83.7143 149.381 83.6032 151.119C83.5093 152.585 83.5435 154.392 82.9031 155.729C82.3053 156.982 81.4515 158.141 80.6403 159.266C78.147 162.691 75.4146 165.954 72.8017 169.286C70.2401 172.541 65.0571 175.864 53.4443 193H82.6981C89.5889 180.611 89.4523 178.702 89.5718 178.412C91.9712 172.754 94.3792 167.096 96.7786 161.438C96.7444 161.046 96.8383 160.62 97.1201 160.194C99.3829 156.675 100.186 152.841 99.9721 148.691C99.8013 145.376 99.1182 142.104 98.7339 138.815C98.7254 138.739 98.7254 138.687 98.7169 138.636C98.7169 138.619 98.7169 138.611 98.7169 138.611C98.6912 138.491 98.6742 138.364 98.6571 138.244C98.5973 137.903 98.529 137.563 98.4692 137.23C98.2814 136.233 98.085 135.236 97.8886 134.231C97.5129 132.254 97.0518 130.218 96.9579 128.207C96.9152 127.184 97.1713 126.179 98.1021 125.599C98.9986 125.054 100.109 124.704 101.065 124.278C101.927 123.895 102.79 123.503 103.661 123.12C104.72 122.651 105.949 122.804 106.581 123.886C107.119 124.807 106.871 126.332 105.813 126.801C105.172 127.09 104.523 127.372 103.883 127.661C103.891 127.798 103.908 127.942 103.917 128.079C103.925 128.266 103.926 128.454 103.943 128.65C103.943 128.752 104.002 129.297 103.977 129.144C104.011 129.374 104.25 130.627 104.352 130.899C104.31 130.797 104.677 131.376 104.6 131.325C104.626 131.351 104.651 131.376 104.677 131.402C104.703 131.419 104.737 131.445 104.796 131.479C104.822 131.496 104.831 131.504 104.848 131.513C104.925 131.538 105.01 131.555 105.087 131.581C105.087 131.581 105.087 131.581 105.095 131.581C105.112 131.581 105.147 131.581 105.198 131.581C105.223 131.581 105.223 131.581 105.24 131.581C105.266 131.581 105.317 131.564 105.394 131.555C105.462 131.547 105.505 131.538 105.531 131.538C105.531 131.53 105.556 131.513 105.616 131.479C105.616 131.479 105.778 131.368 105.864 131.317C105.889 131.291 105.915 131.266 105.924 131.266C105.975 131.214 106 131.189 106.026 131.172C106.06 131.121 106.094 131.061 106.137 131.01C106.154 130.984 106.231 130.84 106.274 130.771C106.299 130.712 106.325 130.644 106.325 130.644C106.419 130.371 106.47 130.081 106.521 129.8C106.735 128.607 106.914 127.406 107.068 126.204C107.281 124.543 107.648 122.676 107.461 121.006L107.478 120.989Z" fill="#FDEDDB"/>
<path d="M79.9741 110.568C81.9124 108.353 83.8593 106.001 86.0452 103.947C84.4484 102.891 82.9542 101.715 81.588 100.42C80.9049 103.734 79.8375 106.972 78.5055 110.074C77.071 113.431 75.1924 117.104 72.0331 119.149C70.701 120.009 69.4373 119.149 69.0274 117.99C68.592 118.254 68.1223 118.45 67.6442 118.603C66.7561 122.106 65.4326 125.591 63.5797 128.633C63.5199 128.726 63.4602 128.82 63.4004 128.922L68.276 133.072C68.9847 132.91 69.7788 133.115 70.3168 133.617C72.8955 136.037 75.5852 138.347 78.292 140.622C78.7275 140.988 78.9068 141.508 78.8982 142.036L79.3593 142.3C79.2313 138.875 78.9922 135.449 78.6677 132.032C78.3176 128.3 78.0017 125.224 77.3442 121.697C76.9856 119.771 76.4818 117.99 76.8746 116.013C77.3015 113.866 78.5738 112.162 79.9741 110.56V110.568Z" fill="#FDEDDB"/>
<path d="M78.3003 143.655C77.9417 144.047 77.3184 144.277 76.789 144.277C76.1913 144.277 75.7216 144.021 75.2776 143.655C72.5708 141.371 69.8811 139.071 67.3024 136.651C66.4314 135.833 66.5424 134.469 67.3024 133.634C67.4219 133.507 67.5586 133.404 67.7037 133.311C67.883 133.2 68.0794 133.132 68.2758 133.08L63.4002 128.931C60.275 133.916 55.7409 137.631 49.4649 138.057C48.3122 138.133 47.3302 137.017 47.3302 135.927C47.3302 135.739 47.3644 135.56 47.4071 135.39C44.3673 135.961 41.0969 135.679 39.4319 133.123C36.6055 134.435 33.7963 135.773 31.1151 137.341C27.9814 139.173 24.9331 141.38 22.7044 144.269C21.5261 145.802 20.5698 147.541 19.955 149.364C19.3572 151.136 19.1096 152.977 18.7425 154.809C17.0603 163.006 14.4816 170.999 6.5918 192.991H53.8026C63.7673 174.083 67.5244 169.124 71.401 164.242C72.5452 162.802 73.7235 161.404 74.8592 159.981C76.3449 158.124 77.7624 156.223 78.9407 154.119C78.9749 154.059 79.009 153.999 79.0517 153.94C79.0517 153.88 79.103 153.701 79.103 153.642C79.103 153.514 79.1371 153.377 79.1627 153.241C79.1627 153.199 79.1713 153.156 79.1798 153.122C79.1798 153.088 79.1884 153.054 79.1884 153.045C79.2737 152.27 79.3335 151.486 79.3762 150.71C79.4787 148.819 79.4787 146.927 79.4445 145.044C79.4274 144.132 79.3933 143.229 79.3591 142.317L78.898 142.053C78.898 142.641 78.6675 143.237 78.2918 143.655H78.3003Z" fill="#FFBFB9"/>
<path d="M127.193 134.947C127.056 134.657 126.911 134.367 126.783 134.069C125.357 130.763 124.631 127.312 124.64 123.81C124.136 123.707 123.667 123.384 123.359 122.77C120.208 116.592 118.919 109.546 118.825 102.609C118.159 103.121 117.476 103.606 116.784 104.084C116.05 104.586 115.299 105.072 114.522 105.532C114.59 105.711 114.65 105.899 114.692 106.095C115.128 108.174 114.129 110.474 112.276 111.522C111.285 112.085 110.175 112.11 109.074 111.906C109.33 112.17 109.569 112.468 109.765 112.826C110.5 114.13 110.935 116.022 110.389 117.521C111.644 118.868 111.806 120.793 111.687 122.642C111.541 124.798 111.26 126.954 110.935 129.093C110.722 130.507 110.577 132.007 109.774 133.234C108.152 135.722 104.83 136.625 102.362 134.955C102.405 135.185 102.456 135.424 102.499 135.654C102.883 137.665 103.114 139.693 103.421 141.712C103.925 145.044 104.463 148.41 104.249 151.784C104.241 151.929 104.224 152.074 104.207 152.227C104.266 152.176 104.335 152.125 104.395 152.074C110.175 147.464 115.947 142.854 121.728 138.244C122.411 137.699 123.274 137.469 124.042 137.776C125.229 136.923 126.22 135.961 127.184 134.938L127.193 134.947Z" fill="#FDEDDB"/>
<path d="M140.472 143.033C139.584 141.644 138.9 140.144 138.533 138.525C137.978 136.054 138.123 133.515 138.713 131.061C139.865 126.23 142.529 121.927 144.416 117.368C145.262 115.323 146.005 113.167 146.304 110.96C146.679 108.174 146.688 105.285 146.543 102.482C146.252 97.0027 145.168 91.6004 144.476 86.164C143.674 79.85 143.392 73.4593 143.093 67.1111C142.803 60.6948 142.64 54.27 142.453 47.8452C142.171 38.1739 140.796 28.3918 135.263 20.2032C132.616 16.2835 129.158 12.9518 125.255 10.2848C121.669 7.83925 117.263 5.32556 112.823 5.53006C110.612 5.63232 110.193 2.91413 111.525 1.76379H108.485C109.126 3.03342 108.52 4.95064 106.675 4.91655C105.224 4.89099 103.772 4.9336 102.329 5.05289C91.1773 5.98167 80.1794 11.8271 73.7753 21.0808C66.1416 32.107 64.9804 46.1325 61.3685 58.6924C58.4568 68.7983 53.3506 78.1799 50.6523 88.3539C50.5157 88.8566 50.3962 89.3594 50.2852 89.8706C50.2425 90.0837 50.1998 90.2967 50.1656 90.5097C50.1571 90.5779 50.14 90.646 50.1315 90.7142C50.029 91.643 49.9948 92.5803 50.0119 93.5176C50.0461 95.6223 50.2937 97.4799 50.5926 99.3289C51.3269 103.896 52.3686 108.404 52.9578 112.997C53.4872 117.112 53.7007 121.552 52.2832 125.522C50.695 129.953 47.3393 132.885 43.0187 134.597C41.9428 135.023 40.6705 134.129 40.3887 133.106C40.3546 132.978 40.3375 132.85 40.329 132.731C40.0386 132.867 39.7483 133.004 39.458 133.132C41.1231 135.688 44.3934 135.969 47.4332 135.398C47.6723 134.486 48.5176 133.864 49.4911 133.805C52.0868 133.626 54.4862 132.561 56.4074 130.814C60.1133 127.431 62.376 122.293 63.6312 117.513C65.3305 111.02 64.9206 104.203 64.5534 97.5651C64.3997 94.8213 68.6691 94.8384 68.8228 97.5651C69.0534 101.766 69.2754 105.975 69.0192 110.176C68.857 112.826 68.413 115.723 67.6786 118.62C68.1568 118.458 68.6264 118.263 69.0619 118.007C68.763 117.146 68.9338 116.115 69.9072 115.485C69.9755 115.442 70.1292 115.331 70.1719 115.306C70.2659 115.229 70.3512 115.152 70.4452 115.076C70.727 114.82 70.9917 114.547 71.2478 114.266C71.7175 113.738 71.9907 113.346 72.4432 112.639C73.391 111.147 74.1937 109.546 74.8597 107.918C76.3113 104.382 77.3957 100.624 77.9422 96.8408C77.9593 96.7045 78.002 96.5852 78.0532 96.4659C76.5248 94.4379 75.2269 92.2139 74.2108 89.828C72.9129 86.786 72.0675 83.6929 71.7174 80.4038C71.504 78.4355 71.4357 76.4501 71.3588 74.4732C71.0258 74.4647 70.7013 74.3795 70.411 74.1921C65.1426 70.707 61.4965 64.4952 63.2641 58.0959C64.4766 53.7076 68.1056 48.8848 72.7506 49.5494C72.5201 49.2256 72.392 48.8081 72.4176 48.2968C72.7506 42.0765 74.4242 35.9329 77.8654 30.684C80.8966 26.0741 85.0465 22.3334 89.8111 19.5726C92.1934 18.1922 94.3452 21.8733 91.9629 23.2537C87.8386 25.6396 84.1755 28.8264 81.5456 32.8313C78.7449 37.1003 77.2335 41.9828 76.7809 47.0272C77.1993 46.7801 77.6177 46.5245 78.002 46.2433C77.9251 46.0217 77.8739 45.8002 77.8739 45.5872C77.8739 44.3346 78.8644 43.6018 80.0086 43.4569C88.3595 42.4174 95.071 37.4581 100.228 31.0504C100.954 30.1472 102.5 30.309 103.251 31.0504C104.131 31.928 103.968 33.1636 103.251 34.0668C100.374 37.6456 97.0178 40.858 93.0985 43.2694C90.8187 44.6754 88.3937 45.7235 85.8747 46.4819C87.4629 47.1806 89.1792 47.5129 90.9467 47.6663C90.7162 47.1891 90.6308 46.6267 90.7674 46.1325C91.0919 44.9651 92.2617 44.4283 93.3974 44.6413C93.9695 44.7521 95.3784 44.7862 95.9931 44.7095C97.1459 44.5561 98.2815 44.2068 99.3745 43.8148C102.226 42.7923 105.061 41.4034 107.631 39.8185C112.439 36.8446 116.392 32.32 118.595 27.0966C119.048 26.0315 119.987 25.2732 121.225 25.6055C121.746 25.7503 122.241 26.1593 122.54 26.6706C123.078 26.3638 123.625 26.0912 124.163 25.8441C123.761 24.9153 124.248 23.7138 125.085 23.2281C126.144 22.6146 127.339 23.0577 128.005 23.995C130.934 28.1277 132.334 33.3255 133.222 38.2421C134.136 43.3121 134.571 48.5269 134.289 53.6736C134.247 54.5171 133.803 55.1051 133.214 55.4289C133.299 55.5737 133.376 55.7271 133.461 55.872C133.683 55.676 133.974 55.5141 134.332 55.4204C137.235 54.6535 139.626 56.4855 141.112 58.8202C142.726 61.3595 143.016 64.3333 142.461 67.2475C141.488 72.4026 137.628 76.6972 132.804 78.6144C131.455 85.4312 128.927 91.9753 124.436 97.3776C124.026 97.8718 123.582 98.3405 123.138 98.8091C123.155 98.937 123.163 99.0562 123.163 99.2011C122.907 105.225 123.479 111.557 125.589 117.274C126.724 113.184 128.731 109.392 130.575 105.583C131.079 104.544 132.556 104.271 133.495 104.816C134.546 105.43 134.759 106.7 134.264 107.731C133.239 109.852 132.163 111.948 131.216 114.104C131.053 114.479 131.156 114.241 131.002 114.616C130.917 114.82 130.84 115.033 130.754 115.238C130.567 115.723 130.387 116.217 130.217 116.712C129.866 117.743 129.559 118.791 129.328 119.864C128.893 121.875 128.748 123.844 128.961 126.102C129.491 131.726 132.932 137.171 136.663 141.516C137.141 142.07 137.346 142.777 137.227 143.451C138.303 143.638 139.421 143.476 140.48 143.076L140.472 143.033Z" fill="#8E8478"/>
<path d="M122.301 143.22C116.52 147.83 110.748 152.44 104.967 157.05C104.412 157.493 103.737 157.723 103.097 157.629C102.533 159.274 101.79 160.85 100.826 162.342C100.808 162.359 100.8 162.376 100.783 162.393C100.774 162.742 100.697 163.1 100.552 163.432L99.5191 165.878C97.6235 170.334 95.7279 174.799 87.1123 193H173.84C174.285 175.754 171.441 171.05 170.57 166.96C169.639 162.597 168.666 158.243 167.607 153.906C166.736 150.318 165.84 146.578 164.192 143.442C163.807 142.709 163.381 142.002 162.902 141.329C162.808 141.192 162.706 141.056 162.603 140.92C162.569 140.877 162.518 140.818 162.501 140.792C162.245 140.494 161.989 140.196 161.715 139.906C161.246 139.42 160.742 138.96 160.213 138.542C160.136 138.483 159.956 138.355 159.939 138.338C159.777 138.227 159.615 138.108 159.453 138.006C159.171 137.818 158.889 137.639 158.599 137.469C155.508 135.637 152.263 134.657 148.719 133.507C147.524 133.115 147.123 132.049 147.276 131.078L143.622 129.544C143.408 130.158 143.203 130.771 143.024 131.393C142.52 133.191 142.239 135.091 142.537 136.855C142.768 138.227 143.28 139.48 143.989 140.639C144.493 140.102 144.911 139.522 145.202 138.943C144.911 139.522 144.493 140.093 143.989 140.639C144.459 141.397 145.005 142.113 145.611 142.786C147.447 144.814 144.442 147.839 142.589 145.802C141.803 144.942 141.086 144.013 140.462 143.033C139.404 143.433 138.285 143.595 137.209 143.408C137.141 143.766 136.987 144.107 136.714 144.413C139.199 146.152 142.196 147.123 145.202 146.629C142.196 147.132 139.199 146.16 136.714 144.413C136.688 144.439 136.671 144.473 136.646 144.499C135.877 145.266 134.374 145.376 133.623 144.499C131.121 141.584 128.824 138.44 127.185 134.955C126.228 135.978 125.229 136.949 124.042 137.793C124.29 137.895 124.529 138.04 124.743 138.261C125.494 139.011 125.648 140.553 124.743 141.278C123.923 141.934 123.103 142.581 122.283 143.238L122.301 143.22Z" fill="#FFBFB9"/>
<path d="M129.994 53.631C130.251 48.8678 129.918 44.0279 129.081 39.3328C128.261 34.7486 127.031 29.9598 124.299 26.1083C124.231 26.0146 124.188 25.9123 124.145 25.8101C123.607 26.0572 123.061 26.3298 122.523 26.6366C122.805 27.1138 122.916 27.6847 122.702 28.1959C120.047 34.4844 115.615 39.8526 109.775 43.457C106.812 45.289 103.507 46.8483 100.22 47.9816C97.624 48.8763 94.9599 49.2342 92.2531 48.7144C91.6554 48.5951 91.2028 48.1691 90.9381 47.6323C89.1621 47.4789 87.4543 47.1466 85.8661 46.4479C83.962 47.0188 82.0066 47.4363 80.0085 47.6834C79.0949 47.7942 78.2922 47.0443 78.0019 46.2093C77.6177 46.4905 77.1907 46.7376 76.7809 46.9932C76.7467 47.4107 76.6955 47.8368 76.6784 48.2628C76.6186 49.3961 75.8416 50.0522 74.9792 50.2482C75.039 50.2823 75.0987 50.3079 75.1585 50.3334C77.5835 51.6371 75.4232 55.3182 73.0067 54.0145C72.2041 53.5799 71.8711 53.5458 71.1709 53.7759C71.1794 53.7759 70.7952 53.9548 70.7867 53.9548C70.7525 53.9719 70.4366 54.1764 70.411 54.1849C70.0694 54.449 69.762 54.7728 69.4802 55.0966C68.3531 56.3748 67.6017 58.0875 67.2345 59.8087C66.3892 63.7199 68.669 67.4947 71.6918 69.8464C72.1102 69.3778 72.7164 69.071 73.3227 69.071C74.5352 69.071 75.372 70.0509 75.4574 71.2013C75.6879 74.3881 75.6367 77.6176 76.0295 80.7959C76.4222 83.9913 77.5579 87.2122 79.0266 90.1178C81.2552 94.5232 85.0293 98.4769 89.5036 101.195C89.7256 101.05 89.9391 100.888 90.1611 100.743C91.1601 100.121 92.2531 99.4909 93.3717 99.1075C94.9001 98.5877 96.531 98.6899 98.0936 98.9967C100.373 99.4398 102.628 100.266 104.873 100.897C106.82 101.442 108.767 101.979 110.705 102.533C110.825 102.567 110.936 102.61 111.047 102.644C115.666 100.326 119.91 96.6705 122.788 92.5037C126.126 87.6638 127.877 82.057 128.901 76.3224C129.064 75.4277 129.96 74.8483 130.84 74.7801C130.882 74.763 130.925 74.7375 130.976 74.7204C134.383 73.5531 137.107 70.6048 138.089 67.1538C138.602 65.3474 138.721 63.3023 137.816 61.5981C137.44 60.8909 137.158 60.4478 136.638 59.9451C136.347 59.6639 136.219 59.5701 135.954 59.4594C136.091 59.519 135.596 59.4423 135.878 59.4338C135.732 59.4338 135.673 59.4338 135.647 59.4338C135.604 59.4423 135.553 59.4594 135.459 59.4849C133.154 60.0984 132.01 57.1076 133.453 55.8294C133.367 55.6846 133.282 55.5397 133.205 55.3864C131.907 56.1021 129.909 55.5227 130.012 53.631H129.994ZM91.0406 60.0473C88.2911 60.0473 88.2911 55.7868 91.0406 55.7868C93.7901 55.7868 93.7901 60.0473 91.0406 60.0473ZM102.5 61.8964C102.705 60.6949 102.952 59.4935 103.311 58.3261C103.661 57.1843 104.779 56.5793 105.941 56.8349C107.042 57.082 107.76 58.3857 107.435 59.4594C107.102 60.5415 106.863 61.6578 106.667 62.774C106.624 63.0382 106.581 63.3023 106.538 63.5665C106.538 63.5835 106.53 63.6261 106.521 63.6687C106.564 63.379 106.513 63.7625 106.504 63.8392C106.436 64.393 106.393 64.9554 106.368 65.5093C106.342 66.0461 106.342 66.5914 106.368 67.1283C106.385 67.3924 106.402 67.648 106.427 67.9122C106.453 68.0485 106.479 68.1849 106.504 68.3212C106.743 69.4971 106.18 70.5622 105.01 70.9456C103.968 71.2865 102.602 70.5537 102.38 69.4545C101.876 66.9408 102.081 64.4101 102.5 61.9049V61.8964ZM99.8526 74.9846C99.938 74.7204 100.083 74.4904 100.297 74.3029C100.493 74.0984 100.715 73.945 100.98 73.8598C101.236 73.7235 101.509 73.6638 101.799 73.6724C101.885 73.6809 101.979 73.6894 102.064 73.6979C102.67 73.7661 103.277 73.8343 103.891 73.9024C104.276 73.9024 104.634 74.0047 104.967 74.1921C105.112 74.3029 105.258 74.4137 105.403 74.5245C105.668 74.7886 105.847 75.1039 105.949 75.4618C105.975 75.6492 106.001 75.8367 106.026 76.0241C106.035 76.3139 105.975 76.5951 105.838 76.8422C105.753 77.1063 105.608 77.3364 105.394 77.5238C105.198 77.7283 104.976 77.8817 104.711 77.9669C104.455 78.1033 104.182 78.1629 103.891 78.1544C103.806 78.1459 103.721 78.1373 103.627 78.1288C103.02 78.0607 102.414 77.9925 101.799 77.9243C101.415 77.9243 101.057 77.8221 100.724 77.6346C100.578 77.5238 100.433 77.4131 100.288 77.3023C100.023 77.0381 99.8441 76.7229 99.7416 76.365C99.716 76.1775 99.6904 75.9901 99.6648 75.8026C99.6562 75.5129 99.716 75.2317 99.8526 74.9846ZM105.992 90.0156C105.65 89.9815 105.3 89.9559 104.959 89.9219C102.568 89.7173 100.186 89.5043 97.7948 89.2998C96.5993 89.1976 95.7113 88.4051 95.6601 87.1696C95.6088 86.0874 96.6762 84.9456 97.7948 85.0393C98.1363 85.0734 98.4779 85.099 98.828 85.1331C101.219 85.3376 103.601 85.5506 105.992 85.7551C107.187 85.8573 108.067 86.6498 108.127 87.8853C108.178 88.9675 107.111 90.1093 105.992 90.0156ZM116.887 62.6973C114.138 62.6973 114.138 58.4369 116.887 58.4369C119.637 58.4369 119.637 62.6973 116.887 62.6973ZM126.707 50.5038C126.126 51.5945 124.803 51.7223 123.787 51.2707C123.377 51.0833 122.967 50.9043 122.557 50.7169C119.688 49.4217 116.819 48.135 113.95 46.8398C112.866 46.3541 112.695 44.8544 113.182 43.9256C113.762 42.835 115.086 42.7071 116.102 43.1588C116.512 43.3462 116.922 43.5252 117.331 43.7126C120.2 45.0078 123.07 46.2945 125.939 47.5897C127.023 48.0754 127.194 49.5751 126.707 50.5038Z" fill="#FDEDDB"/>
<path d="M18.7422 154.818C19.1179 152.986 19.357 151.154 19.9547 149.373C20.5695 147.541 21.5258 145.802 22.7041 144.277C24.9242 141.388 27.9726 139.19 31.1148 137.35C34.0778 135.62 37.1859 134.163 40.3025 132.723C40.3111 132.842 40.3282 132.97 40.3623 133.098C40.6441 134.112 41.9078 135.015 42.9922 134.589C47.3129 132.876 50.6686 129.953 52.2568 125.514C53.6828 121.543 53.4608 117.104 52.9314 112.988C52.3422 108.395 51.3005 103.888 50.5661 99.3204C50.2673 97.4714 50.0196 95.6138 49.9855 93.5091C49.9684 92.5718 50.0026 91.6345 50.105 90.7057C50.1136 90.6376 50.1221 90.5694 50.1392 90.5012C50.1819 90.2882 50.216 90.0752 50.2587 89.8622C50.3697 89.3509 50.4893 88.8482 50.6259 88.3454C53.3156 78.1629 58.4303 68.7898 61.342 58.6839C64.9539 46.124 66.1238 32.09 73.7489 21.0724C80.1615 11.8186 91.1509 5.97321 102.302 5.04442C103.746 4.92513 105.197 4.88253 106.649 4.90809C109.398 4.95069 109.398 0.690208 106.649 0.647603C94.7542 0.4431 82.8085 5.07851 74.4491 13.591C64.9625 23.2537 62.1788 36.9469 59.1988 49.6517C57.9265 55.0881 56.4237 60.3285 54.4342 65.5433C52.3934 70.886 50.1904 76.1604 48.2948 81.5542C46.8518 85.6528 45.5539 89.7514 45.7246 94.1397C45.904 98.6217 46.8945 103.053 47.7227 107.449C48.5254 111.753 49.2853 115.74 48.9865 120.18C48.9608 120.546 48.884 121.288 48.8669 121.407C48.8413 121.611 48.6961 122.37 48.5937 122.787C48.4912 123.222 48.3717 123.656 48.2265 124.082C48.1497 124.312 48.0728 124.534 47.9789 124.756C47.9789 124.756 47.9533 124.807 47.9362 124.858C47.902 124.926 47.8423 125.071 47.8252 125.088C47.6288 125.48 47.4239 125.872 47.1933 126.247C47.0652 126.451 46.9286 126.647 46.8005 126.843C46.5529 127.201 46.792 126.903 46.5017 127.227C45.8783 127.925 45.1525 128.607 44.5975 128.99C44.5463 129.025 44.4865 129.059 44.4353 129.093C44.4011 128.829 44.3158 128.573 44.1877 128.351C43.5643 127.286 42.3091 127.09 41.2674 127.585C33.907 131.061 25.7183 134.222 20.2706 140.536C17.4357 143.817 15.6597 147.677 14.9339 151.937C14.2508 155.976 13.1322 159.956 12.1332 163.926C10.8523 168.996 9.55445 174.083 6.18164 192.991H10.4937C14.4642 170.999 17.0429 163.006 18.7251 154.809L18.7422 154.818Z" fill="#2E2E2E"/>
<path d="M171.843 153.25C170.109 146.092 168.094 138.628 161.605 134.316C158.07 131.973 153.851 130.695 149.855 129.391C147.234 128.539 146.115 132.655 148.72 133.498C152.263 134.648 155.508 135.628 158.599 137.46C158.889 137.631 159.171 137.81 159.453 137.997C159.615 138.108 159.777 138.219 159.94 138.329C159.957 138.338 160.136 138.474 160.213 138.534C160.742 138.952 161.246 139.412 161.716 139.897C161.989 140.179 162.245 140.477 162.501 140.784C162.518 140.801 162.569 140.869 162.604 140.911C162.706 141.048 162.809 141.184 162.903 141.32C163.381 141.993 163.808 142.701 164.192 143.434C165.848 146.578 166.736 150.31 167.607 153.897C168.666 158.234 169.64 162.589 170.57 166.951C171.441 171.041 171.919 176.171 172.688 192.991H177C175.839 170.454 173.952 162.001 171.843 153.241V153.25Z" fill="#2E2E2E"/>
<path d="M121.208 25.5799C119.978 25.2391 119.031 26.006 118.578 27.0711C116.375 32.2859 112.43 36.8191 107.614 39.7929C105.044 41.3778 102.209 42.7752 99.3574 43.7892C98.2644 44.1812 97.1288 44.5306 95.976 44.6839C95.3612 44.7692 93.9523 44.7266 93.3802 44.6158C92.2531 44.3942 91.0748 44.9311 90.7503 46.107C90.46 47.1465 91.1004 48.5099 92.2446 48.7314C94.9514 49.2512 97.624 48.8933 100.211 47.9986C103.499 46.8653 106.803 45.2975 109.766 43.474C115.607 39.8696 120.038 34.5014 122.694 28.2129C123.138 27.1478 122.216 25.8696 121.2 25.5885L121.208 25.5799Z" fill="#2E2E2E"/>
<path d="M100.22 31.0248C95.0708 37.4326 88.3594 42.3918 79.9999 43.4313C78.8557 43.5762 77.8652 44.309 77.8652 45.5616C77.8652 46.6011 78.8472 47.8367 79.9999 47.6918C84.645 47.1124 89.0852 45.7064 93.0813 43.2439C97.0091 40.8324 100.365 37.6115 103.234 34.0412C103.951 33.1465 104.113 31.9025 103.234 31.0248C102.491 30.2835 100.937 30.1216 100.211 31.0248H100.22Z" fill="#2E2E2E"/>
<path d="M134.263 53.631C134.536 48.4843 134.109 43.2695 133.196 38.1995C132.308 33.2829 130.907 28.0851 127.978 23.9524C127.312 23.0151 126.117 22.572 125.058 23.1855C124.128 23.7309 123.624 25.1539 124.29 26.0997C127.022 29.9597 128.252 34.74 129.071 39.3243C129.917 44.0193 130.241 48.8592 129.985 53.6225C129.84 56.3662 134.109 56.3577 134.254 53.6225L134.263 53.631Z" fill="#2E2E2E"/>
<path d="M116.102 43.1588C115.085 42.6986 113.762 42.835 113.181 43.9256C112.686 44.8544 112.857 46.3541 113.95 46.8398C116.819 48.135 119.688 49.4217 122.557 50.7169C122.967 50.9043 123.377 51.0833 123.786 51.2707C124.803 51.7308 126.126 51.5945 126.707 50.5038C127.202 49.575 127.031 48.0753 125.938 47.5897C123.069 46.2945 120.2 45.0078 117.331 43.7126C116.921 43.5252 116.511 43.3462 116.102 43.1588Z" fill="#2E2E2E"/>
<path d="M116.887 62.6973C119.637 62.6973 119.637 58.4368 116.887 58.4368C114.138 58.4368 114.138 62.6973 116.887 62.6973Z" fill="#2E2E2E"/>
<path d="M91.0406 60.0472C93.7901 60.0472 93.7901 55.7867 91.0406 55.7867C88.2911 55.7867 88.2911 60.0472 91.0406 60.0472Z" fill="#2E2E2E"/>
<path d="M106.658 62.774C106.854 61.6578 107.094 60.5415 107.427 59.4594C107.751 58.3943 107.042 57.0906 105.932 56.8349C104.78 56.5708 103.652 57.1843 103.302 58.3261C102.944 59.4935 102.696 60.6949 102.491 61.8964C102.073 64.4015 101.868 66.9408 102.372 69.446C102.594 70.5366 103.951 71.2695 105.002 70.9371C106.163 70.5622 106.726 69.4886 106.496 68.3127C106.47 68.1763 106.445 68.04 106.419 67.9037C106.393 67.6395 106.368 67.3839 106.359 67.1197C106.334 66.5829 106.334 66.0376 106.359 65.5008C106.385 64.9384 106.436 64.3845 106.496 63.8306C106.504 63.754 106.564 63.3705 106.513 63.6602C106.513 63.6176 106.521 63.575 106.53 63.558C106.573 63.2938 106.615 63.0297 106.658 62.7655V62.774Z" fill="#2E2E2E"/>
<path d="M99.519 165.878L100.552 163.432C100.697 163.091 100.774 162.734 100.783 162.393C100.8 162.376 100.808 162.359 100.825 162.342C101.782 160.85 102.533 159.274 103.097 157.63C103.737 157.715 104.412 157.485 104.967 157.05C110.747 152.44 116.52 147.83 122.3 143.221C123.12 142.564 123.94 141.917 124.76 141.261C125.665 140.545 125.511 138.994 124.76 138.244C123.872 137.358 122.642 137.52 121.737 138.244C115.956 142.854 110.184 147.464 104.403 152.074C104.343 152.125 104.275 152.176 104.215 152.227C104.224 152.082 104.249 151.938 104.258 151.784C104.471 148.41 103.934 145.036 103.43 141.712C103.122 139.693 102.9 137.665 102.508 135.654C102.465 135.424 102.414 135.185 102.371 134.955C104.839 136.625 108.16 135.722 109.783 133.234C110.585 132.007 110.73 130.507 110.944 129.093C111.268 126.954 111.55 124.807 111.695 122.642C111.815 120.802 111.661 118.876 110.397 117.521C110.944 116.03 110.5 114.13 109.774 112.826C109.569 112.468 109.33 112.17 109.082 111.906C110.184 112.11 111.294 112.085 112.284 111.523C114.146 110.474 115.145 108.165 114.701 106.095C114.658 105.89 114.598 105.711 114.53 105.532C115.299 105.072 116.059 104.595 116.793 104.084C117.485 103.607 118.168 103.121 118.834 102.61C118.928 109.546 120.217 116.592 123.368 122.77C123.684 123.384 124.145 123.708 124.649 123.81C124.632 127.303 125.357 130.754 126.792 134.069C128.448 137.912 130.925 141.329 133.64 144.49C134.391 145.368 135.886 145.257 136.663 144.49C137.534 143.621 137.414 142.351 136.663 141.474C132.931 137.128 129.49 131.675 128.961 126.059C128.747 123.801 128.892 121.833 129.328 119.822C129.558 118.757 129.866 117.709 130.216 116.669C130.387 116.175 130.566 115.689 130.754 115.195C130.831 114.991 130.916 114.778 131.001 114.573C131.155 114.19 131.053 114.437 131.215 114.062C132.154 111.897 133.23 109.801 134.263 107.688C134.767 106.657 134.545 105.387 133.495 104.774C132.555 104.229 131.078 104.501 130.574 105.541C128.73 109.341 126.724 113.142 125.588 117.232C123.479 111.514 122.907 105.174 123.163 99.1586C123.163 99.0223 123.163 98.8944 123.137 98.7666C123.581 98.298 124.025 97.8293 124.435 97.3351C128.926 91.9328 131.445 85.3972 132.803 78.5719C137.628 76.6547 141.487 72.3601 142.46 67.2049C143.007 64.2908 142.725 61.317 141.111 58.7777C139.626 56.4344 137.235 54.6109 134.332 55.3778C131.676 56.0766 132.803 60.1922 135.467 59.4849C135.553 59.4594 135.612 59.4423 135.655 59.4338C135.672 59.4338 135.732 59.4423 135.886 59.4338C135.604 59.4509 136.099 59.519 135.962 59.4594C136.227 59.5702 136.355 59.6554 136.646 59.9451C137.166 60.4478 137.448 60.8909 137.824 61.5981C138.729 63.3023 138.609 65.3474 138.097 67.1538C137.115 70.6133 134.391 73.5531 130.984 74.7204C130.933 74.7375 130.89 74.7631 130.848 74.7801C129.968 74.8483 129.072 75.4192 128.909 76.3224C127.885 82.057 126.134 87.6638 122.796 92.5037C119.918 96.6705 115.674 100.326 111.055 102.644C110.944 102.61 110.833 102.567 110.713 102.533C108.775 101.979 106.828 101.442 104.881 100.897C102.644 100.266 100.39 99.4398 98.1016 98.9967C96.539 98.6899 94.9081 98.5877 93.3796 99.1075C92.2611 99.4909 91.1681 100.121 90.1691 100.743C89.9385 100.88 89.725 101.042 89.5116 101.195C85.0373 98.4854 81.2631 94.5232 79.0345 90.1178C77.5658 87.2122 76.4302 83.9913 76.0374 80.7959C75.6446 77.6176 75.6959 74.3966 75.4653 71.2013C75.3799 70.0509 74.5431 69.071 73.3306 69.071C72.7244 69.071 72.1181 69.3778 71.6997 69.8464C68.677 67.4861 66.3971 63.7113 67.2425 59.8087C67.6097 58.096 68.3611 56.3748 69.4882 55.0966C69.77 54.7729 70.0774 54.4491 70.4189 54.1849C70.4531 54.1764 70.7605 53.9719 70.7946 53.9548C70.8032 53.9548 71.1874 53.7844 71.1789 53.7759C71.879 53.5373 72.212 53.5799 73.0147 54.0145C75.4312 55.3182 77.5915 51.6371 75.1665 50.3334C75.1067 50.2993 75.0469 50.2738 74.9871 50.2482C75.8581 50.0522 76.6266 49.3961 76.6864 48.2628C76.9852 42.7668 78.5222 37.4242 81.5535 32.7973C84.1834 28.7924 87.838 25.6056 91.9707 23.2197C94.3445 21.8478 92.2013 18.1582 89.819 19.5386C85.0543 22.2994 80.896 26.0401 77.8732 30.65C74.4321 35.8989 72.7585 42.0425 72.4255 48.2628C72.3999 48.7826 72.528 49.2001 72.7585 49.5154C68.1134 48.8593 64.493 53.6822 63.272 58.0619C61.4959 64.4697 65.1505 70.673 70.4189 74.1581C70.7092 74.3455 71.0337 74.4307 71.3667 74.4393C71.4436 76.4246 71.5119 78.4015 71.7253 80.3698C72.0754 83.6589 72.9208 86.7521 74.2187 89.794C75.2433 92.1799 76.5327 94.4039 78.0611 96.4319C78.0099 96.5512 77.9672 96.679 77.9501 96.8068C77.3951 100.599 76.3192 104.348 74.8676 107.884C74.193 109.52 73.3989 111.114 72.4511 112.605C71.9986 113.32 71.7253 113.704 71.2557 114.232C70.9995 114.513 70.7348 114.786 70.4531 115.042C70.3677 115.118 70.2737 115.195 70.1798 115.272C70.1371 115.297 69.9834 115.408 69.9151 115.451C67.6182 116.933 69.7529 120.623 72.0669 119.132C75.2262 117.087 77.1133 113.414 78.5393 110.057C79.8628 106.947 80.9301 103.709 81.6218 100.403C82.988 101.698 84.4822 102.874 86.079 103.93C83.8931 105.984 81.9377 108.327 80.0079 110.551C78.6076 112.162 77.3353 113.857 76.9084 116.005C76.5156 117.981 77.0279 119.771 77.378 121.688C78.0355 125.216 78.3514 128.292 78.7015 132.024C79.1028 136.344 79.3931 140.681 79.4785 145.018C79.5127 146.91 79.5127 148.802 79.4102 150.685C79.3675 151.469 79.3078 152.244 79.2224 153.02C79.2224 153.037 79.2224 153.062 79.2138 153.096C79.2138 153.13 79.2053 153.173 79.1968 153.216C79.1711 153.343 79.1455 153.48 79.137 153.616C79.137 153.676 79.0943 153.855 79.0858 153.914C79.0516 153.974 79.0089 154.042 78.9747 154.093C77.7964 156.198 76.3704 158.098 74.8932 159.956C73.7576 161.379 72.5792 162.776 71.435 164.216C67.5584 169.099 63.8014 174.058 48.3633 192.966H53.5036C67.8231 175.83 70.2994 172.516 72.861 169.252C75.4824 165.92 78.2063 162.657 80.6996 159.231C81.5108 158.107 82.3646 156.956 82.9623 155.695C83.6028 154.357 83.5771 152.551 83.6625 151.085C83.765 149.347 83.7906 147.6 83.7735 145.854C83.7479 143.877 83.6711 141.9 83.5686 139.931C83.3551 135.918 83.0136 131.905 82.5525 127.917C82.2109 124.935 81.8608 121.927 81.1777 118.995C80.9814 118.135 80.9216 117.385 81.1777 116.524C81.3912 115.792 82.0231 114.726 82.2707 114.42C82.6464 113.951 83.2527 113.269 83.876 112.579C84.1578 113.593 85.43 114.496 86.5059 114.07C90.0581 112.639 93.687 111.369 97.3502 110.227C99.0238 109.708 100.714 109.205 102.431 108.813C102.96 108.694 103.712 108.412 104.147 108.813C104.531 109.171 104.634 109.801 104.651 110.423C104.301 110.449 103.951 110.483 103.609 110.543C101.039 110.977 98.4858 111.77 95.9583 112.4C93.2686 113.073 90.5789 113.738 87.8892 114.411C85.2251 115.076 86.3522 119.183 89.0249 118.518C93.2174 117.479 97.4099 116.431 101.602 115.391C102.149 115.255 102.695 115.11 103.242 114.974C103.635 114.88 104.027 114.778 104.429 114.709C104.779 114.65 105.138 114.599 105.496 114.624C105.667 114.633 106.051 114.769 105.974 114.667C106.205 114.871 106.248 115.067 106.359 115.485C106.367 115.527 106.41 115.783 106.435 115.877C106.435 115.877 106.435 115.894 106.435 115.902C105.761 115.885 105.086 115.936 104.42 116.013C103.754 116.09 103.088 116.183 102.422 116.277C98.1613 116.899 93.9944 117.939 89.9471 119.43C88.8626 119.83 88.1283 120.87 88.4528 122.054C88.7345 123.094 89.9897 123.946 91.0827 123.546C93.781 122.549 96.5561 121.748 99.3653 121.143C99.9801 121.006 100.595 120.879 101.218 120.768C102.713 120.495 104.241 120.231 105.761 120.163C106.324 120.137 106.82 120.095 107.289 120.316C107.4 120.376 107.494 120.597 107.537 120.955C107.725 122.625 107.358 124.5 107.144 126.153C106.99 127.354 106.803 128.556 106.598 129.749C106.546 130.03 106.495 130.32 106.401 130.592C106.401 130.592 106.376 130.661 106.35 130.72C106.307 130.788 106.23 130.933 106.213 130.959C106.179 131.01 106.137 131.07 106.102 131.121C106.077 131.146 106.051 131.163 106 131.214C106 131.214 105.966 131.24 105.94 131.266C105.863 131.317 105.701 131.428 105.693 131.428C105.633 131.462 105.616 131.479 105.607 131.487C105.573 131.487 105.53 131.487 105.471 131.504C105.394 131.513 105.342 131.521 105.317 131.53C105.3 131.53 105.291 131.53 105.274 131.53C105.223 131.53 105.197 131.53 105.172 131.53C105.172 131.53 105.172 131.53 105.163 131.53C105.086 131.504 105.009 131.479 104.924 131.462C104.907 131.453 104.898 131.445 104.873 131.428C104.813 131.385 104.779 131.368 104.753 131.351C104.728 131.325 104.702 131.3 104.676 131.274C104.745 131.334 104.386 130.746 104.429 130.848C104.326 130.575 104.087 129.331 104.053 129.093C104.07 129.246 104.019 128.701 104.019 128.599C104.01 128.411 104.002 128.224 103.993 128.028C103.993 127.883 103.968 127.746 103.959 127.61C104.6 127.32 105.249 127.039 105.889 126.749C106.939 126.281 107.195 124.756 106.657 123.835C106.026 122.753 104.796 122.6 103.737 123.068C102.875 123.452 102.012 123.844 101.141 124.227C100.185 124.653 99.075 125.003 98.1784 125.548C97.2392 126.127 96.983 127.124 97.0342 128.155C97.1282 130.166 97.5892 132.203 97.965 134.18C98.1528 135.177 98.3492 136.182 98.5456 137.179C98.6139 137.52 98.6737 137.852 98.7334 138.193C98.7591 138.312 98.7761 138.44 98.7932 138.56C98.7932 138.56 98.7932 138.56 98.7932 138.585C98.7932 138.636 98.7932 138.696 98.8103 138.764C99.2031 142.062 99.8776 145.325 100.048 148.64C100.262 152.781 99.4592 156.616 97.1965 160.143C96.9232 160.578 96.8208 160.995 96.8549 161.387C94.4555 167.045 89.4091 178.932 82.766 192.949H87.3683C95.779 174.748 97.6746 170.292 99.5702 165.827L99.519 165.878ZM98.2297 105.532C94.3274 106.657 90.4765 107.986 86.6852 109.469C87.7526 108.276 88.8456 107.1 90.0324 106.061C90.8863 105.311 91.8341 104.689 92.8161 104.109C93.7126 103.589 94.6092 103.01 95.6766 102.993C97.0001 102.967 98.2894 103.436 99.5361 103.803C100.373 104.05 101.21 104.288 102.046 104.527C100.732 104.748 99.408 105.191 98.2297 105.532ZM110.133 107.85C110.133 107.85 110.175 107.85 110.21 107.816C110.175 107.841 110.141 107.858 110.133 107.85ZM110.577 107.006C110.577 107.006 110.56 107.006 110.551 106.998C110.56 106.998 110.568 106.998 110.577 107.015V107.006ZM107.255 106.001C107.904 106.18 108.562 106.367 109.211 106.546C109.526 106.64 109.851 106.717 110.167 106.819C110.517 106.93 110.363 106.887 110.534 106.981C110.363 106.904 110.508 107.023 110.534 106.981C110.534 106.989 110.534 107.006 110.543 107.015C110.543 107.049 110.543 107.066 110.551 107.092C110.551 107.117 110.543 107.143 110.534 107.194C110.534 107.211 110.491 107.356 110.457 107.458C110.397 107.594 110.321 107.697 110.252 107.756C110.184 107.739 110.099 107.722 109.945 107.688C109.304 107.484 108.647 107.313 108.007 107.109C107.802 106.7 107.554 106.316 107.247 105.975L107.255 106.001Z" fill="#2E2E2E"/>
<path d="M112.815 5.52162C117.255 5.31711 121.661 7.8308 125.247 10.2763C129.149 12.9349 132.607 16.2751 135.254 20.1947C140.796 28.3834 142.171 38.1655 142.444 47.8368C142.632 54.2616 142.794 60.6864 143.084 67.1027C143.375 73.4508 143.665 79.8501 144.468 86.1556C145.159 91.5919 146.244 96.9942 146.534 102.473C146.679 105.285 146.671 108.165 146.295 110.952C146.005 113.159 145.262 115.306 144.408 117.359C142.529 121.918 139.857 126.221 138.704 131.053C138.115 133.507 137.97 136.046 138.525 138.517C139.148 141.286 140.702 143.715 142.589 145.794C144.434 147.83 147.448 144.814 145.612 142.777C144.075 141.082 142.914 139.122 142.538 136.847C142.248 135.083 142.521 133.183 143.025 131.385C144.229 127.065 146.56 123.145 148.293 119.029C149.155 116.967 149.924 114.846 150.317 112.639C150.821 109.784 150.932 106.827 150.855 103.93C150.701 98.2042 149.582 92.5633 148.831 86.9054C147.986 80.6255 147.695 74.2518 147.396 67.9292C147.089 61.4874 146.91 55.0285 146.739 48.5781C146.466 38.3785 145.185 27.9573 139.66 19.1296C136.629 14.2897 132.599 10.2337 127.937 6.95314C123.633 3.92819 118.245 0.99698 112.815 1.24409C110.082 1.3719 110.065 5.63239 112.815 5.50457V5.52162Z" fill="#2E2E2E"/>
<path d="M101.807 73.6809C101.517 73.6723 101.235 73.732 100.988 73.8683C100.723 73.9535 100.492 74.0984 100.305 74.3114C100.1 74.5074 99.9459 74.7289 99.8605 74.9931C99.7239 75.2487 99.6641 75.5214 99.6727 75.8111C99.6983 75.9986 99.7239 76.186 99.7495 76.3735C99.852 76.7314 100.031 77.0466 100.296 77.3108C100.441 77.4216 100.586 77.5323 100.731 77.6431C101.064 77.8391 101.423 77.9328 101.807 77.9328C102.414 78.001 103.02 78.0691 103.635 78.1373C103.72 78.1458 103.805 78.1544 103.899 78.1629C104.19 78.1714 104.471 78.1118 104.719 77.9754C104.984 77.8902 105.214 77.7454 105.402 77.5323C105.607 77.3363 105.761 77.1148 105.846 76.8507C105.983 76.595 106.043 76.3224 106.034 76.0326C106.008 75.8452 105.983 75.6577 105.957 75.4703C105.855 75.1124 105.675 74.7971 105.411 74.5329C105.266 74.4222 105.12 74.3114 104.975 74.2006C104.642 74.0046 104.284 73.9109 103.899 73.9109C103.293 73.8427 102.687 73.7746 102.072 73.7064C101.987 73.6979 101.893 73.6894 101.807 73.6809Z" fill="#2E2E2E"/>
<path d="M97.8035 85.0393C96.6849 84.9456 95.6175 86.0874 95.6688 87.1696C95.72 88.4051 96.608 89.1976 97.8035 89.2998C100.194 89.5043 102.577 89.7174 104.967 89.9219C105.309 89.9474 105.659 89.9815 106.001 90.0156C107.119 90.1093 108.187 88.9675 108.135 87.8853C108.076 86.6498 107.196 85.8574 106.001 85.7551C103.61 85.5506 101.227 85.3376 98.8366 85.1331C98.4951 85.099 98.145 85.0734 97.8035 85.0393Z" fill="#2E2E2E"/>
<path d="M56.3812 130.814C54.4685 132.561 52.0606 133.626 49.4648 133.805C48.312 133.881 47.3301 134.725 47.3301 135.935C47.3301 137.026 48.312 138.142 49.4648 138.065C62.7852 137.162 68.3013 121.458 68.9929 110.176C69.2491 105.975 69.0271 101.766 68.7965 97.5651C68.6428 94.8384 64.3734 94.8213 64.5271 97.5651C64.8943 104.194 65.3042 111.02 63.605 117.513C62.3498 122.293 60.0955 127.423 56.3812 130.814Z" fill="#2E2E2E"/>
<path d="M67.3115 136.651C69.8902 139.071 72.5799 141.38 75.2867 143.655C75.7307 144.03 76.2004 144.277 76.7981 144.277C77.3189 144.277 77.9508 144.047 78.3094 143.655C79.0352 142.863 79.2231 141.414 78.3094 140.639C75.6026 138.355 72.9129 136.054 70.3342 133.634C69.5231 132.867 68.1142 132.765 67.3115 133.634C66.5516 134.461 66.4406 135.833 67.3115 136.651Z" fill="#2E2E2E"/>
<path d="M110.466 107.475C110.491 107.373 110.543 107.228 110.543 107.211C110.543 107.16 110.551 107.134 110.56 107.109C110.56 107.083 110.56 107.066 110.551 107.032C110.551 107.015 110.551 107.006 110.543 106.998C110.372 106.913 110.517 107.032 110.543 106.998C110.38 106.904 110.525 106.947 110.175 106.836C109.859 106.734 109.535 106.648 109.219 106.563C108.57 106.376 107.913 106.197 107.264 106.018C107.563 106.359 107.819 106.742 108.024 107.151C108.664 107.364 109.313 107.535 109.962 107.731C110.116 107.765 110.201 107.782 110.269 107.799C110.338 107.739 110.414 107.637 110.474 107.501L110.466 107.475Z" fill="#FDEDDB"/>
<path d="M110.133 107.85C110.133 107.85 110.176 107.85 110.21 107.816C110.184 107.824 110.159 107.833 110.133 107.85Z" fill="white"/>
<path d="M110.552 106.998C110.56 106.998 110.569 106.998 110.578 107.006C110.569 107.006 110.56 106.998 110.552 106.989V106.998Z" fill="white"/>
<path d="M110.544 106.989H110.534L110.544 106.999V106.989Z" fill="white"/>
<path d="M102.047 104.527C101.21 104.288 100.373 104.05 99.5364 103.802C98.2897 103.428 97.0004 102.959 95.6769 102.993C94.6181 103.019 93.7129 103.589 92.8164 104.109C91.8344 104.68 90.8866 105.311 90.0327 106.061C88.8459 107.1 87.7529 108.284 86.6855 109.469C90.4682 107.986 94.3277 106.666 98.23 105.532C99.4083 105.191 100.732 104.748 102.047 104.527Z" fill="#FDEDDB"/>
</g>
<defs>
<clipPath id="clip0_256_3532">
<rect width="177" height="193" fill="white"/>
</clipPath>
</defs>
</svg>
