<svg width="397" height="186" viewBox="0 0 397 186" fill="none" xmlns="http://www.w3.org/2000/svg">
<path d="M155.621 181.235C140.853 183.709 125.761 185.933 110.569 185.234C95.3845 184.534 79.8778 180.563 69.913 172.466C63.6839 167.401 59.9484 161.052 53.918 155.874C43.9456 147.314 28.6187 142.674 17.4634 134.852C1.84798 123.906 -4.04294 106.681 2.85193 92.0932C9.78386 77.4033 27.6437 66.7334 38.9038 53.4359C47.2182 43.6147 51.9949 32.2802 62.2715 23.4166C81.6038 6.72893 116.072 2.61037 146.744 5.06443C164.571 6.4909 182.566 9.71326 200.189 7.53017C210.376 6.26432 219.921 3.24569 229.972 1.54918C264.826 -4.3172 294.783 7.04973 318.616 25.9786C329.042 34.2617 337.409 44.0016 350.078 50.5805C359.512 55.4752 371.694 60.651 378.205 65.17C386.566 70.9727 394.576 80.3629 395.694 87.464C397.35 97.9834 398.213 113.563 386.566 124.094C379.725 130.282 369.275 134.088 362.177 140.131C354.118 146.997 351.021 156.218 342.945 163.07C334.878 169.923 322.661 173.723 310.43 176.184C286.356 181.025 260.47 181.515 235.95 177.592C227.383 176.224 204.115 171.929 155.604 181.236L155.621 181.235Z" fill="#EBF6FA"/>
</svg>
