<svg width="437" height="191" viewBox="0 0 437 191" fill="none" xmlns="http://www.w3.org/2000/svg">
<path d="M327.034 165.068C334.941 156.823 348.824 155.817 361.024 153.829C386.632 149.658 411.245 137.769 425.157 118.778C439.068 99.7933 440.37 73.4047 424.943 55.1852C412.004 39.8989 390.001 32.3401 368.483 28.8728C346.966 25.3985 324.824 25.2313 303.518 20.8764C280.145 16.0991 258.34 6.38583 234.821 2.23067C209.064 -2.31302 181.761 0.131657 157.714 9.13456C139.861 15.8181 123.546 26.0592 104.449 29.3768C84.7946 32.7867 63.8937 28.5017 44.6135 33.2177C19.7182 39.3202 1.9102 60.6973 0.158875 83.0243C-1.59195 105.344 11.3043 127.588 31.191 142.029C51.0776 156.47 77.2145 163.558 103.119 164.431C118.562 164.954 134.041 163.399 149.46 164.395C200.515 167.709 272.543 221.853 327.025 165.068L327.034 165.068Z" fill="#EBF6FA"/>
</svg>
