<svg width="405" height="194" viewBox="0 0 405 194" fill="none" xmlns="http://www.w3.org/2000/svg">
<path d="M39.7765 147.125C62.154 150.702 66.8119 180.033 118 188.213C167.087 196.06 166.428 183.097 202.917 183.929C229.659 184.539 253.096 207.242 311.311 182.41C336.303 171.749 341.327 152.144 351.498 144.609C360.944 137.607 374.356 134.453 384.975 128.436C412.678 112.748 411.391 76.9569 382.646 63.6539C376.62 60.8671 364.164 57.1092 358.765 53.6986C349.539 47.8755 346.005 38.6625 340.313 30.7389C322.601 6.1086 279.043 -6.19616 242.464 3.1C226.544 7.14151 217.73 11.6342 201.044 12.2581C180.605 13.0207 170.942 9.08692 151.309 5.35043C123.076 -0.0220739 90.3325 8.75417 72.6373 26.4314C63.0284 36.0326 61.8801 42.8609 51.864 52.2818C40.6346 62.8535 25.2572 56.7355 6.45459 81.7679C-7.81229 100.762 0.835785 140.893 39.7765 147.118V147.125Z" fill="#EBF6FA"/>
</svg>
