<svg width="70" height="62" viewBox="0 0 70 62" fill="none" xmlns="http://www.w3.org/2000/svg">
<path d="M3.904 38.4002C3.53391 39.3829 2.84478 39.7657 1.86213 39.5233C0.777392 39.2935 0.164828 38.6555 0.0244496 37.6217C-0.0648822 36.7284 0.0882572 35.8096 0.522154 34.878C1.45376 32.7212 2.64059 30.4113 4.08266 27.9356C5.51197 25.4725 7.43898 22.3969 9.8637 18.7088C12.2757 15.0206 15.0832 10.7582 18.2737 5.92147C18.5034 5.411 18.9117 4.96433 19.4732 4.61977C20.0348 4.2752 20.6473 4.2752 21.2982 4.65805C22.5233 5.21957 23.0593 6.25328 22.9189 7.75917C22.7785 8.51211 22.4084 9.29058 21.7959 10.0818C20.4304 11.9195 19.2435 13.4637 18.2354 14.7271C17.2272 15.9905 16.3211 17.4709 15.5299 19.1682C16.5636 19.9212 17.0996 20.7124 17.1506 21.5674C16.3083 28.1397 15.6065 33.7932 15.045 38.5406C14.9046 39.7147 14.7642 40.8377 14.6238 41.9225C14.0113 47.2697 14.0368 51.1492 14.6876 53.5485C14.879 53.9185 14.9684 54.5566 14.9684 55.45C14.6366 56.3433 13.8453 56.6751 12.5692 56.4326C10.974 55.769 10.1445 54.6204 10.1062 52.9869C9.86371 49.6051 9.91475 45.8276 10.2466 41.6417C10.5784 37.3665 10.9102 33.8953 11.2292 31.2153C11.5993 28.4971 11.8673 25.9575 12.0077 23.6093C10.7825 25.2556 9.77437 26.8125 8.98315 28.2929C8.17916 29.7732 7.2348 31.3302 6.12454 32.9765C5.01427 34.6227 4.28685 36.4221 3.904 38.4002ZM44.6903 8.95878C47.0895 8.34621 49.5525 7.73364 52.0793 7.13384C52.8706 7.04451 53.7256 7.05727 54.6189 7.21041C55.3208 7.44012 55.8185 7.87402 56.0993 8.47383C56.38 9.08639 56.4566 9.72448 56.3162 10.3753C56.1248 11.0389 55.7802 11.4601 55.257 11.6388C54.7465 11.8302 54.2743 11.9195 53.8532 11.9195C50.9946 12.2896 47.7659 12.9532 44.2054 13.8848C44.2564 14.4974 44.1543 16.5903 43.9246 20.1509C44.1543 20.623 44.3968 21.0697 44.6265 21.4909C45.3284 22.6139 46.0303 23.3924 46.7322 23.8135C47.6255 24.4261 48.4805 25.0897 49.3101 25.8171C50.1268 26.5445 52.207 27.859 55.5378 29.7605C58.8685 31.662 62.5822 33.1041 66.6659 34.0867C67.4572 34.3164 68.1718 34.7248 68.7844 35.2863C69.6777 36.0393 69.8436 36.9326 69.2821 37.9663C68.7589 38.8086 68.0187 39.0255 67.0233 38.6044C64.2029 37.7621 61.4081 36.7157 58.6388 35.465C55.8696 34.2271 53.2534 32.8488 50.7904 31.3429C48.3274 29.8371 45.8516 28.1525 43.3631 26.2765C43.1206 27.6803 42.993 28.9693 42.9803 30.1178C42.9547 31.2664 42.8399 32.6957 42.6229 34.4185C42.406 36.1286 42.3549 38.1577 42.4443 40.5059C44.5117 40.1741 46.5152 39.8933 48.4678 39.6636C50.4203 39.4339 52.3346 39.3318 54.2105 39.3829C55.1039 39.4722 55.9461 39.7785 56.7501 40.3017C57.2223 40.7229 57.3882 41.2589 57.2478 41.9225C57.0053 42.6754 56.6991 43.0966 56.2907 43.1859C55.8951 43.2752 55.1549 43.3263 54.0702 43.3263C51.3902 43.3773 49.1442 43.6453 47.3065 44.1303C45.4816 44.628 43.6183 45.1512 41.7424 45.7127C41.551 50.6005 41.3212 55.4755 41.0405 60.3633C40.0578 61.397 39.0241 61.5629 37.9394 60.861C36.9567 60.2484 36.6249 59.2657 36.9568 57.9002C37.0971 54.9905 37.2247 52.6934 37.3396 51.0344C37.4545 49.3754 37.4672 48.3289 37.3779 47.895C36.8164 48.0864 35.9869 48.3416 34.9149 48.6735C34.0216 49.1967 33.2176 49.235 32.4902 48.8138C31.7627 48.3927 31.2778 47.6653 31.0481 46.6316C30.678 45.3171 31.1629 44.4748 32.5284 44.092C34.264 43.3901 36.0251 42.752 37.8118 42.1905C38.1436 39.8933 38.3733 37.5707 38.5137 35.2225C38.6541 32.8744 38.7689 30.4751 38.871 28.0376C37.3268 29.2628 35.5402 31.2026 33.5239 33.8443C31.5075 36.4987 28.9679 39.9572 25.9179 44.2324C25.0246 45.3554 23.9654 45.5979 22.753 44.9342C21.3875 43.9899 21.2471 42.8668 22.3319 41.5524C25.7137 36.805 28.6872 32.6829 31.2778 29.1607C31.75 28.5992 32.1711 28.0376 32.5412 27.4761C35.4509 23.6221 37.748 20.623 39.4453 18.4663C40.0068 17.4836 40.1727 16.1947 39.9302 14.5867C36.9695 15.48 34.6341 16.2585 32.9241 16.9094C31.214 17.573 29.5805 18.3387 28.0236 19.232C27.36 19.6532 26.6581 19.7425 25.9051 19.4745C25.1522 19.2193 24.5141 18.8236 24.0036 18.2749C23.4932 17.7389 23.1869 17.0625 23.0848 16.2713C23.1359 15.2376 23.6463 14.625 24.629 14.4463C29.1849 13.2212 32.6561 12.2513 35.0553 11.5239C37.4545 10.7965 39.2156 10.1967 40.3386 9.72448C40.4279 8.35897 40.3896 7.15936 40.2365 6.10013C40.0706 5.04091 39.8919 3.98168 39.7133 2.89693C39.6239 2.38645 39.6239 1.87598 39.7133 1.37827C39.8026 0.880563 40.0834 0.472186 40.5555 0.14038C40.8873 0.0510471 41.1936 0 41.4744 0C42.2656 0 42.9547 0.306283 43.5163 0.918849C44.5499 2.09293 44.9711 3.43292 44.7797 4.93881C44.7797 6.25328 44.7541 7.59326 44.7159 8.95878H44.6903Z" fill="#424242"/>
</svg>
