<svg width="64" height="63" viewBox="0 0 64 63" fill="none" xmlns="http://www.w3.org/2000/svg">
<path d="M16.0524 21.3596C17.2698 20.8186 18.561 20.2283 19.9259 19.6012C21.1064 19.8717 21.7336 21.003 21.8197 22.9951C21.3278 23.6346 20.7006 24.1141 19.9505 24.4585C19.2004 24.8028 18.4503 25.1594 17.6756 25.5406C16.9132 25.9218 16.0524 26.2784 15.0933 26.5981C14.6875 29.2665 14.4538 31.3939 14.4169 32.9802C14.4169 34.4312 14.4661 36.534 14.5522 39.2885V39.8295C16.6796 38.649 18.5979 37.5054 20.3194 36.3987C22.041 35.292 23.8241 34.3574 25.6809 33.5827C26.308 34.5296 26.2957 35.4641 25.6071 36.3618C24.6971 37.3579 23.7257 38.3047 22.6927 39.2147L11.6993 46.8142C8.89565 48.7571 6.96504 50.122 5.93211 50.8844C3.62029 52.151 1.77576 51.7452 0.361624 49.667C0.00501496 49.1751 -0.09336 48.6464 0.091093 48.1053C0.275546 47.5643 0.656749 47.2445 1.247 47.1585C2.4275 46.6666 3.90312 45.9657 5.69847 45.0557C7.48151 44.1457 8.92025 43.3341 10.0024 42.6086L10.0762 41.8585C10.3467 36.4233 10.4328 31.8858 10.3467 28.2213C9.0801 28.5779 7.87501 28.9468 6.7437 29.3034C5.61239 29.66 4.61634 29.9429 3.75556 30.115C2.35372 30.3855 1.33308 29.8937 0.705936 28.6271C-0.339297 26.9547 0.0664993 25.9095 1.92333 25.5037C4.09987 24.9626 5.83373 24.5568 7.1495 24.2863C8.46526 24.0158 9.68265 23.6469 10.814 23.2042C11.0353 22.0729 11.1706 20.9416 11.2198 19.8102C11.2689 18.6789 11.3304 17.2525 11.4288 15.5309C11.4288 14.7193 11.6502 13.9938 12.1051 13.3544C12.597 13.0347 13.052 12.9855 13.4578 13.1822C13.8636 13.3913 14.2694 13.6741 14.6752 14.0307C15.8926 14.9776 16.3721 16.1827 16.1016 17.6337C16.0155 18.8511 15.9909 20.1054 16.0401 21.3719L16.0524 21.3596ZM34.7191 50.9582C32.7762 53.2208 30.9439 55.4097 29.2224 57.537C28.9027 57.9428 28.4846 58.2994 27.9681 58.5945C27.4516 58.8897 26.9352 58.8774 26.4433 58.5577C25.0783 57.5616 24.8324 56.4057 25.6932 55.1022C27.8205 52.483 29.7511 50.1343 31.4973 48.0807C33.2435 46.0271 34.7683 44.2687 36.0717 42.8177C34.0796 43.3587 32.8377 43.7522 32.3335 44.0105C31.8293 44.2564 31.3866 44.5023 30.9808 44.7237C29.9848 45.4 28.9887 45.4492 27.9927 44.859C27.3164 44.5392 26.9106 44.072 26.7753 43.4325C26.64 42.7931 26.6154 42.1167 26.7138 41.3912C31.0054 39.8541 35.1987 38.5015 39.2689 37.321C39.4903 34.8739 39.564 33.1154 39.478 32.0333C38.7033 32.2178 37.5351 32.599 35.9488 33.1892C34.6822 32.8695 33.4525 32.2793 32.2843 31.4308C31.8293 31.0742 31.3497 30.5454 30.8579 29.8691C30.1815 28.873 29.4806 27.4958 28.7551 25.725C27.5746 22.8353 26.7261 20.339 26.1728 18.2608C26.0375 17.4984 26.5171 17.0312 27.6361 16.8713C28.7428 16.7114 29.8618 17.2648 30.9931 18.5314C33.6615 17.4492 36.2439 16.5393 38.7279 15.8138C38.9984 14.3258 39.2074 13.2437 39.3427 12.592C39.478 11.9403 39.564 11.1533 39.6132 10.2556C36.4038 10.7106 33.4402 11.6328 30.7226 13.0347C29.456 13.4897 28.3493 13.3544 27.3901 12.6289C26.8491 12.2231 26.4925 11.7066 26.3326 11.1041C26.1728 10.4892 26.2957 9.82519 26.7015 9.09968C31.1776 8.18971 35.4938 7.21826 39.6624 6.18532C39.933 5.14009 40.1051 4.24242 40.1666 3.46771C40.2281 2.70531 40.3388 1.79534 40.474 0.750108C40.7445 0.258234 41.1258 0 41.6299 0C41.8513 0 42.1464 0.0737812 42.5153 0.209047C43.4253 0.614843 43.9909 1.1559 44.2123 1.83223C44.3967 2.47167 44.6181 3.5292 44.8886 5.01712C47.4709 4.52524 50.0902 3.99648 52.7586 3.45542C53.8407 3.1357 54.8614 3.36934 55.8082 4.13174C56.7059 5.04171 56.8534 6.09924 56.214 7.31663C55.5746 7.31663 54.3695 7.47649 52.5864 7.79621C50.7911 8.11593 47.9382 8.58321 44.0032 9.22264C43.7327 10.895 43.5482 12.6412 43.4622 14.4488C45.2698 14.1291 47.7046 13.6864 50.7542 13.1207C53.8038 12.5551 56.6936 12.1985 59.4112 12.0632C59.9523 12.1124 60.4933 12.2477 61.0467 12.469C61.3172 12.5551 61.5631 12.6781 61.7968 12.8133C63.7397 14.0307 64.0348 15.4817 62.6822 17.1541C61.6861 18.6912 60.5056 20.5726 59.153 22.7861C57.8003 24.9995 56.7305 26.635 55.9681 27.6679C55.1073 28.8484 54.3941 29.4633 53.8284 29.5371C53.2628 29.6108 52.4635 29.4756 51.4182 29.1682C48.5162 29.8937 46.0322 30.4839 43.954 30.9266C43.954 31.8735 43.8802 32.6605 43.7204 33.263C43.5605 33.8656 43.4622 34.8616 43.413 36.2143C44.9501 35.7224 46.6102 35.2428 48.4055 34.7878C50.1885 34.3328 51.7871 34.0254 53.189 33.841C54.185 33.6565 54.9966 33.9762 55.6361 34.7878C56.2755 35.5994 56.5214 36.5586 56.3862 37.6407C54.2588 37.9973 52.2298 38.4277 50.3115 38.9319C48.3932 39.436 46.3642 39.9525 44.2369 40.4936C43.5974 41.3052 42.9088 42.1167 42.171 42.9037C41.4209 43.6908 40.5355 44.859 39.4903 46.3961L39.5518 48.0192C39.5518 49.2858 39.4288 50.5647 39.1828 51.8559C38.9369 53.147 38.691 54.4013 38.4696 55.6187C38.3344 56.3811 38.2852 57.0697 38.3344 57.66C39.2812 57.3403 40.7322 56.6025 42.6752 55.4588C44.6181 54.3152 46.9914 52.7043 49.795 50.6754C49.4384 50.2696 49.0203 49.8392 48.5408 49.3842C48.0612 48.9292 47.7169 48.3759 47.4832 47.7241C47.2619 47.0724 47.4217 46.3838 47.9628 45.6582C48.7744 45.4369 49.5245 45.4738 50.2008 45.7935C50.8772 46.1132 51.3936 46.5682 51.7625 47.1462C52.1192 47.7364 52.4881 48.2037 52.8447 48.5726C53.7423 48.1176 54.6769 47.5397 55.6238 46.8387C56.5706 46.1378 57.4068 45.523 58.1323 45.0065C58.8578 44.49 59.3743 44.0474 59.694 43.6784C60.604 42.9037 61.5263 42.8177 62.4731 43.4079C63.5184 44.0474 63.9856 44.9696 63.8996 46.187C63.5798 46.8264 63.174 47.2937 62.6822 47.6134C60.2843 48.9661 57.911 50.3556 55.5623 51.7575C56.7797 53.3807 57.8987 54.844 58.9193 56.1352C59.94 57.4263 60.7639 58.4347 61.391 59.1602C61.846 59.6152 62.1534 60.2423 62.3378 61.0662C62.6084 62.5172 62.0181 63.1444 60.5794 62.9722C59.0915 62.382 57.9602 61.4597 57.1855 60.1931C55.5131 57.8813 53.853 55.6064 52.2298 53.3438C51.7748 53.6143 50.5206 54.4874 48.467 55.9507C46.4134 57.4263 43.6097 59.443 40.0805 62.0254C39.0353 62.9353 37.9286 63.1813 36.7604 62.7755C34.7191 62.0991 33.7968 60.7219 33.9813 58.6314C34.1657 56.6885 34.3379 55.0899 34.4854 53.848C34.6453 52.606 34.7191 51.6468 34.7191 50.9582ZM38.5926 28.0122C38.5065 27.2007 38.3835 26.3891 38.2483 25.5652C38.0269 23.7575 37.8179 22.0114 37.6334 20.339C36.5513 20.4743 35.5307 20.9293 34.5838 21.6917C33.637 22.4664 32.6163 23.0443 31.5342 23.4501C31.9892 25.4914 32.6655 26.9793 33.5755 27.9262C34.7068 28.7378 36.3792 28.7624 38.5926 28V28.0122ZM42.048 27.2007C42.6383 27.0654 43.29 26.9055 44.0155 26.7211C44.6918 25.3684 45.2821 23.8928 45.7863 22.3065C45.9215 21.8515 46.0568 21.4211 46.1921 21.0153C46.5118 19.9332 46.7823 18.888 47.0037 17.8919C45.5157 18.0764 44.1262 18.3223 42.8596 18.642C42.626 19.1831 42.4538 19.8471 42.3185 20.6095C42.1833 21.3842 42.048 22.1221 41.9128 22.8476V23.5239C41.8636 24.2986 41.9128 25.516 42.048 27.1884V27.2007ZM49.1064 25.9833C49.6967 25.7619 51.1231 25.393 53.3857 24.9011C54.3326 23.4132 55.1442 22.0237 55.8328 20.7571C56.5091 19.4905 57.2101 17.8427 57.9356 15.8015C56.8043 15.8875 55.6729 16.0228 54.5416 16.2073L52.0946 16.6131C51.9593 17.0189 51.8486 17.4247 51.7502 17.8304C50.9878 20.3144 50.1025 23.032 49.1064 25.971V25.9833Z" fill="#424242"/>
</svg>
