<svg width="67" height="62" viewBox="0 0 67 62" fill="none" xmlns="http://www.w3.org/2000/svg">
<path d="M24.2727 54.2376C26.4805 54.7098 28.1523 55.0544 29.2753 55.2968C29.6454 54.6332 29.9134 53.1146 30.0538 50.7153C30.1941 48.3161 30.3345 45.1257 30.4749 41.1312C29.722 41.5013 28.6627 42.0246 27.31 42.6754C25.9445 43.339 24.1961 44.1303 22.0649 45.0746C19.9337 46.019 17.4707 46.8358 14.7015 47.5377C12.7362 47.4483 11.5748 46.1083 11.2558 43.5177C12.2385 43.288 13.119 43.1348 13.8975 43.0583C14.6759 42.9817 15.8755 42.6499 17.5218 42.0373C17.5728 39.268 17.5728 37.3665 17.5218 36.3328L16.5391 36.754L15.7607 37.1113C14.9184 37.5835 14.0378 37.4431 13.119 36.6901C12.2002 35.9372 11.8556 34.929 12.0981 33.6656C13.7826 33.1551 15.5565 32.4277 17.3814 31.4833C17.6622 29.5563 17.7132 27.2337 17.5218 24.5154C15.7862 25.0769 14.4462 25.7022 13.5019 26.3786C12.5575 27.055 11.4855 27.6165 10.2604 28.0377C9.5585 33.2955 9.03527 37.7366 8.71623 41.3482C8.47375 43.8367 8.34614 45.9552 8.29509 47.6908C8.24405 51.7746 8.40995 54.378 8.7928 55.5138C8.93318 55.8839 9.00975 56.3688 9.03527 56.9559C9.06079 57.5429 8.66518 57.9768 7.87396 58.2576C6.36808 58.5894 5.35991 58.0406 4.83668 56.6368C4.60697 56.1646 4.41554 54.9523 4.27516 52.9742C4.22412 51.5193 4.36449 48.3927 4.6963 43.607C4.83668 41.9225 4.97706 39.9954 5.11743 37.8259C5.81933 29.6584 6.26598 24.7068 6.45741 22.9585C6.64884 21.2229 6.67436 19.9339 6.53398 19.0789C6.58503 17.8155 7.2614 17.2284 8.57585 17.3177C10.3625 17.7389 11.2048 18.8236 11.1154 20.5592C11.0261 21.3632 10.924 22.0141 10.8347 22.5373C12.0087 22.2055 13.2849 21.7206 14.6759 21.057C16.067 20.4061 16.9475 19.9594 17.3176 19.717C16.2329 18.4025 16.2329 17.037 17.3176 15.6332C19.385 12.7746 21.5162 9.83934 23.724 6.82756C23.1624 6.91689 22.2819 7.13384 21.0823 7.46565C19.8827 7.79745 18.6576 8.23135 17.4197 8.76735C16.1818 9.30334 14.9694 9.97972 13.7954 10.7709C13.0042 11.2942 12.2767 11.3963 11.6514 11.09C11.0133 10.7837 10.4901 10.4902 10.069 10.2094C7.35073 13.821 5.06639 17.305 3.24147 20.6358C2.01635 20.6869 1.17407 20.5337 0.701892 20.1764C0.22971 19.8191 0 19.2703 0 18.5174C0.701892 17.0115 1.88873 14.8675 3.56051 12.0727C5.21953 9.27782 7.79739 5.7428 11.2686 1.46761C12.0598 0.906087 12.7744 0.740184 13.387 0.969896C14.3697 1.3017 14.995 1.71008 15.2502 2.20779C15.5054 2.7055 15.5437 3.3053 15.3523 4.0072L14.3697 5.411C18.262 3.95615 22.0905 2.92245 25.8552 2.30988C26.6974 2.22055 27.5014 2.28436 28.2544 2.52683C29.9899 3.50949 30.4366 4.92605 29.5943 6.75099C28.701 7.73364 27.6035 9.13744 26.2891 10.9369C24.9746 12.749 23.7495 14.2549 22.6265 15.48C21.5034 16.7052 20.6612 17.7389 20.0869 18.5812C22.6647 17.6878 26.0976 16.5648 30.3728 15.1993C30.9854 14.9696 31.5979 14.8164 32.1977 14.7399C32.7975 14.6633 33.4356 14.8164 34.0992 15.1993C35.1329 15.9012 35.6051 16.9604 35.503 18.3642C35.4519 20.9421 35.3881 23.4817 35.2988 25.9702C35.1584 29.3521 34.967 32.6574 34.7373 35.8989C34.4055 41.629 34.1503 46.1977 33.9588 49.5923C33.7674 52.9997 33.6781 55.6159 33.6781 57.4408C33.5887 59.5593 32.5678 60.376 30.6536 59.9038C28.3947 58.9212 26.7868 57.8747 25.8296 56.7644C24.8725 55.6669 24.362 54.7991 24.311 54.1993L24.2727 54.2376ZM29.4795 30.9218C29.3391 31.6748 28.8669 32.0959 28.0757 32.1852C27.093 32.5553 26.0083 32.8999 24.8342 33.2062C23.6602 33.5125 22.5116 33.9974 21.3886 34.6483C21.1972 36.2435 21.1716 38.3364 21.3248 40.9143C22.2564 40.7229 23.2901 40.3783 24.3876 39.8551C25.4851 39.3446 27.5397 38.2598 30.5515 36.6136C30.7429 33.4231 30.8833 30.6921 30.9726 28.446C31.0619 26.57 31.113 25.0386 31.113 23.8645C31.2023 21.3249 31.0875 19.7552 30.7556 19.1427C27.1824 19.985 23.8005 21.2101 20.6101 22.8053C21.1206 23.4689 21.4269 24.3367 21.529 25.4087C21.529 27.8079 21.5545 29.3521 21.6055 30.054C22.4478 29.7222 23.5325 29.3266 24.847 28.8544C26.1104 28.4333 27.4504 28.6375 28.8669 29.4925C29.1987 29.7733 29.4029 30.2454 29.505 30.8963L29.4795 30.9218ZM41.6031 22.0524C42.4964 20.036 43.4535 17.6623 44.4872 14.9441C45.5209 12.2258 46.2228 9.91591 46.6057 8.03993C44.6404 8.65249 43.2238 9.1502 42.3815 9.55858C41.5393 9.9542 40.7353 10.4391 39.9823 11.0007C39.3187 11.09 38.821 11.1793 38.4637 11.2431C38.1064 11.3069 37.6342 11.2048 37.0216 10.9241C36.4091 10.1329 35.9624 9.09915 35.6817 7.82298C35.8731 7.21041 38.4382 6.08737 43.3897 4.4411C48.3412 2.79483 51.9911 1.68456 54.3392 1.09751C56.6874 0.510472 58.6782 0.14038 60.3245 0H61.1029C61.9452 0 62.7492 0.114856 63.5021 0.35733C65.008 1.02094 65.6333 2.19503 65.4036 3.87958C65.3526 5.05367 64.9314 6.75099 64.1402 8.94601L63.9998 9.44372C63.2469 11.5111 62.328 13.6424 61.2561 15.8501C60.082 18.1983 58.7675 20.2657 57.3127 22.0524C55.156 23.9794 53.2545 23.6986 51.6082 21.2101C50.9446 20.0871 50.3704 18.8874 49.8471 17.624C49.5153 16.7818 49.209 15.9139 48.9283 15.0206C48.5582 16.1947 47.9201 17.5985 47.0268 19.2448C46.5546 20.0871 46.0186 21.0314 45.4061 22.0651C44.8828 22.9585 44.2065 23.3796 43.3642 23.3286C42.6623 23.2775 42.1263 22.9329 41.7435 22.2693L41.6031 22.0524ZM45.0487 29.4414C45.2784 31.3174 45.2784 32.6319 45.0487 33.3848C47.5373 32.4915 50.2172 31.5982 53.0758 30.7049C52.8334 27.323 53.0503 25.5619 53.7139 25.4215C54.3265 25.2811 54.9007 25.2556 55.4367 25.3449C55.9727 25.4342 56.5342 25.9064 57.0958 26.7487L57.938 29.4925L60.0565 28.9948C61.0391 28.5736 62.009 28.6247 62.9406 29.1352C64.1147 29.5563 64.6762 30.3092 64.6251 31.394C64.6251 32.198 64.3189 32.6702 63.7063 32.8361C63.0937 33.002 62.2898 33.1424 61.2816 33.2572C60.2734 33.3721 59.1759 33.5507 58.0146 33.7805C57.7338 37.8259 57.5935 40.3528 57.5935 41.3865C59.278 40.825 61.0902 40.1486 63.0172 39.3446C63.9998 38.9745 64.9825 39.2553 65.9779 40.1869C67.0626 41.4503 66.6543 42.484 64.7783 43.288C62.3408 43.8495 59.7502 44.8577 57.0319 46.3125C56.7512 50.9578 56.547 53.842 56.4322 54.9395C56.3173 56.037 56.2024 57.5812 56.1131 59.5593C56.1642 60.1208 55.9217 60.6823 55.4112 61.2438C54.9007 61.8053 54.3775 62.0223 53.8671 61.8819C52.2718 61.6522 51.5189 60.6568 51.6082 58.9212C51.94 57.5174 52.1442 56.3178 52.2463 55.3351C52.3484 54.3525 52.476 52.0298 52.6675 48.3672C50.9319 49.0691 49.3111 49.8603 47.8053 50.7281C46.2994 51.5959 45.1508 52.3106 44.3596 52.8721C43.5173 53.3826 42.7389 53.6633 42.037 53.7144C41.3351 53.7654 40.6587 53.4974 40.0334 52.9104C39.3953 52.3233 39.0125 51.5576 38.8721 50.626C41.1309 49.0308 43.4152 47.6908 45.7379 46.6061C48.0605 45.5213 50.5107 44.3344 53.1014 43.02C53.1907 40.0593 53.2417 37.4814 53.2417 35.2736C51.6976 35.7458 50.3959 36.2307 49.3367 36.7157C48.2774 37.2006 47.4862 37.4176 46.9757 37.3538C46.4653 37.2899 45.7123 36.6646 44.7169 35.4905C44.1937 38.3109 44.3596 40.557 45.2146 42.2543C44.232 43.4284 43.1217 43.6453 41.9094 42.8924C41.016 42.2415 40.5056 41.1312 40.3652 39.5871C40.1355 35.6947 40.4162 31.9045 41.2075 28.2418C41.82 27.591 42.7006 27.3996 43.8491 27.6803C44.9977 27.9611 45.4061 28.5481 45.0743 29.4414H45.0487ZM58.3592 12.1875C59.5843 10.0691 60.4904 7.32527 61.1029 3.94339C59.2652 4.22415 57.351 4.63253 55.3602 5.18129C53.3693 5.71728 51.7741 6.20223 50.6128 6.62337C51.034 6.85308 51.3658 7.21041 51.5955 7.6826C51.8252 8.15478 51.7103 9.08639 51.2381 10.503C51.0467 12.0471 51.2892 13.4382 51.94 14.6633C52.2208 15.0844 52.476 15.5056 52.7185 15.9267C53.1907 16.6797 53.6629 17.4071 54.1223 18.109C55.5771 16.5138 56.8405 14.7782 57.9253 12.9022C58.1167 12.6725 58.2571 12.43 58.3464 12.2003L58.3592 12.1875Z" fill="#424242"/>
</svg>
