<svg width="375" height="185" viewBox="0 0 375 185" fill="none" xmlns="http://www.w3.org/2000/svg">
<path d="M183.781 169.946C162.907 169.132 143.91 177.418 123.475 180.359C101.027 183.584 83.1494 183.273 65 174C46.8431 164.727 34.325 151.615 33.5 136.5C33.1064 129.254 29.4207 116.892 26.3933 109.924C22.8361 101.744 13.0727 95.4446 6.84378 87.9865C-11.2753 66.2744 8.39532 35.0576 44.5502 28.1492C63.8878 24.4533 84.6331 27.0166 104.659 25.619C135.547 23.4597 162.922 12.107 192.129 5.13898C221.336 -1.82239 257.93 -3.3723 279.78 11.1532C290.194 18.0814 295.606 27.6657 305.483 34.9251C316.889 43.2973 333.297 47.9139 346.292 55.2197C364.192 65.2809 374.962 80.6211 375 96.1136C375.068 122.734 339.594 147.122 310.879 164.018C294.07 173.907 274.83 186.134 250.755 184.916C226.808 183.704 207.97 170.887 183.781 169.946Z" fill="#EBF6FA"/>
</svg>
