<svg width="12" height="15" viewBox="0 0 12 15" fill="none" xmlns="http://www.w3.org/2000/svg">
<g clip-path="url(#clip0_2034_157)">
<path d="M1.07257 0.635C-0.00222445 1.30414 -0.213759 3.39359 0.192192 5.09633C0.508882 6.42289 1.18017 8.2018 2.31365 9.8764C3.37988 11.4526 4.86796 12.8659 6.00267 13.6827C7.45895 14.7327 9.5364 15.3995 10.6112 14.7315C11.1553 14.394 11.9623 13.4705 12.0002 13.3041C12.0002 13.3041 11.527 12.6045 11.4231 12.451L9.83475 10.1037C9.71614 9.92914 8.97638 10.0885 8.59977 10.2924C8.09234 10.5678 7.62525 11.3073 7.62525 11.3073C7.27677 11.4995 6.98575 11.3073 6.37683 11.0389C5.62851 10.7084 4.78726 9.68422 4.11842 8.75492C3.50705 7.79047 2.87367 6.63617 2.86389 5.84633C2.85655 5.20414 2.79174 4.87133 3.11822 4.64516C3.11822 4.64516 4.01326 4.53734 4.4828 4.2057C4.83128 3.95961 5.28492 3.37719 5.16631 3.20258L3.57674 0.856484C3.47281 0.702969 2.99961 0.00218754 2.99961 0.00218754C2.8272 -0.0329687 1.61791 0.2975 1.07379 0.635H1.07257Z" fill="white"/>
</g>
<defs>
<clipPath id="clip0_2034_157">
<rect width="12" height="15" fill="white"/>
</clipPath>
</defs>
</svg>
